mtllib Mushroom.mtl
v 0.000000 -3.306900 -0.000001 0.486275 0.525490 0.380392
v -3.394700 -0.840500 -0.000000 0.341176 0.466667 0.047059
v 3.394700 -0.840500 -0.000000 0.341176 0.466667 0.047059
v -2.098000 3.150200 0.000001 0.764706 0.835294 0.600000
v 2.098000 3.150200 0.000001 0.764706 0.835294 0.600000
v 0.000000 22.592402 -9.939897 0.815686 0.815686 0.815686
v 0.000000 19.958601 -11.911597 0.607843 0.607843 0.607843
v 0.000000 30.515102 -13.779995 1.000000 1.000000 1.000000
v -14.184600 22.592402 -15.815296 0.815686 0.815686 0.815686
v 14.184600 22.592402 -15.815296 0.815686 0.815686 0.815686
v -12.790300 19.958601 -17.209597 0.607843 0.607843 0.607843
v 12.790300 19.958601 -17.209597 0.607843 0.607843 0.607843
v -11.469200 30.515104 -18.530695 1.000000 1.000000 1.000000
v 11.469200 30.515104 -18.530695 1.000000 1.000000 1.000000
v 0.000000 37.123802 -20.608095 1.000000 1.000000 1.000000
v -6.641000 37.123802 -23.358894 1.000000 1.000000 1.000000
v 6.641000 37.123802 -23.358894 1.000000 1.000000 1.000000
v 0.000000 -2.245996 -24.299000 0.537255 0.572549 0.443137
v -2.435300 -0.476596 -24.302200 0.541176 0.580392 0.450980
v 2.435300 -0.476596 -24.302200 0.541176 0.580392 0.450980
v -1.505100 2.386204 -24.307199 0.498039 0.545098 0.388235
v 1.505100 2.386204 -24.307199 0.498039 0.545098 0.388235
v -1.505100 3.467104 -26.433201 0.498039 0.545098 0.388235
v 1.505100 3.467104 -26.433201 0.498039 0.545098 0.388235
v -1.505100 5.999905 -27.928299 0.498039 0.545098 0.388235
v 1.505100 5.999905 -27.928299 0.498039 0.545098 0.388235
v -2.435300 1.277805 -28.278000 0.541176 0.580392 0.450980
v 2.435300 1.277805 -28.278000 0.541176 0.580392 0.450980
v -1.252200 24.776003 -28.317396 0.360784 0.360784 0.360784
v 1.252200 24.776003 -28.317396 0.360784 0.360784 0.360784
v 0.000000 -0.075195 -29.418200 0.537255 0.572549 0.443137
v -18.088301 19.958605 -29.999897 0.607843 0.607843 0.607843
v 18.088301 19.958605 -29.999897 0.607843 0.607843 0.607843
v -20.059999 22.592405 -29.999897 0.815686 0.815686 0.815686
v 20.059999 22.592405 -29.999897 0.815686 0.815686 0.815686
v -16.219900 30.515106 -29.999895 1.000000 1.000000 1.000000
v 16.219900 30.515106 -29.999895 1.000000 1.000000 1.000000
v -9.391800 37.123802 -29.999895 1.000000 1.000000 1.000000
v 9.391800 37.123802 -29.999895 1.000000 1.000000 1.000000
v 0.000000 24.819206 -29.999903 0.360784 0.360784 0.360784
v 0.000000 39.958603 -29.999901 1.000000 1.000000 1.000000
v -2.026200 24.776005 -30.699396 0.360784 0.360784 0.360784
v 2.026200 24.776005 -30.699396 0.360784 0.360784 0.360784
v -2.435300 5.999905 -30.791298 0.474510 0.505882 0.388235
v 2.435300 5.999905 -30.791298 0.474510 0.505882 0.388235
v 0.000000 24.776005 -32.171497 0.360784 0.360784 0.360784
v 0.000000 5.999905 -32.560699 0.537255 0.572549 0.443137
v -6.641000 37.123806 -36.640991 1.000000 1.000000 1.000000
v 6.641000 37.123806 -36.640991 1.000000 1.000000 1.000000
v 0.000000 37.123806 -39.391792 1.000000 1.000000 1.000000
v -11.469200 30.515108 -41.469196 1.000000 1.000000 1.000000
v 11.469200 30.515108 -41.469196 1.000000 1.000000 1.000000
v -12.790301 19.958607 -42.790295 0.607843 0.607843 0.607843
v 12.790300 19.958607 -42.790295 0.607843 0.607843 0.607843
v -14.184600 22.592407 -44.184597 0.815686 0.815686 0.815686
v 14.184600 22.592407 -44.184597 0.815686 0.815686 0.815686
v 0.000000 30.515108 -46.219894 1.000000 1.000000 1.000000
v 0.000000 19.958607 -48.088295 0.607843 0.607843 0.607843
v 0.000000 22.592407 -50.059998 0.815686 0.815686 0.815686
v 2.435300 5.999905 -30.791298 0.474510 0.505882 0.388235
v 2.435300 1.277805 -28.278000 0.541176 0.580392 0.450980
v -12.790301 19.958607 -42.790295 0.607843 0.607843 0.607843
v -2.435300 5.999905 -30.791298 0.474510 0.505882 0.388235
v -2.026200 24.776005 -30.699396 0.360784 0.360784 0.360784
v 0.000000 24.776005 -32.171497 0.360784 0.360784 0.360784
v 0.000000 5.999905 -32.560699 0.537255 0.572549 0.443137
v 0.000000 -0.075195 -29.418200 0.537255 0.572549 0.443137
v -2.435300 1.277805 -28.278000 0.541176 0.580392 0.450980
v 0.000000 -2.245996 -24.299000 0.537255 0.572549 0.443137
v 0.000000 -2.245996 -24.299000 0.537255 0.572549 0.443137
v 0.000000 -2.245996 -24.299000 0.537255 0.572549 0.443137
v -1.505100 3.467104 -26.433201 0.498039 0.545098 0.388235
v -1.505100 5.999905 -27.928299 0.498039 0.545098 0.388235
v -1.505100 2.386204 -24.307199 0.498039 0.545098 0.388235
v -1.505100 2.386204 -24.307199 0.498039 0.545098 0.388235
v -1.505100 2.386204 -24.307199 0.498039 0.545098 0.388235
v -2.435300 -0.476596 -24.302200 0.541176 0.580392 0.450980
v -2.435300 -0.476596 -24.302200 0.541176 0.580392 0.450980
v -2.435300 -0.476596 -24.302200 0.541176 0.580392 0.450980
v 1.505100 5.999905 -27.928299 0.498039 0.545098 0.388235
v 1.252200 24.776003 -28.317396 0.360784 0.360784 0.360784
v -1.252200 24.776003 -28.317396 0.360784 0.360784 0.360784
v 1.505100 3.467104 -26.433201 0.498039 0.545098 0.388235
v 2.098000 3.150200 0.000001 0.764706 0.835294 0.600000
v 3.394700 -0.840500 -0.000000 0.341176 0.466667 0.047059
v 0.000000 39.958603 -29.999901 1.000000 1.000000 1.000000
v -14.184600 22.592407 -44.184597 0.815686 0.815686 0.815686
v -14.184600 22.592407 -44.184597 0.815686 0.815686 0.815686
v 14.184600 22.592407 -44.184597 0.815686 0.815686 0.815686
v 20.059999 22.592405 -29.999897 0.815686 0.815686 0.815686
v 14.184600 22.592402 -15.815296 0.815686 0.815686 0.815686
v 0.000000 22.592402 -9.939897 0.815686 0.815686 0.815686
v -20.059999 22.592405 -29.999897 0.815686 0.815686 0.815686
v 2.026200 24.776005 -30.699396 0.360784 0.360784 0.360784
v 2.435300 -0.476596 -24.302200 0.541176 0.580392 0.450980
v 2.435300 -0.476596 -24.302200 0.541176 0.580392 0.450980
v 2.435300 -0.476596 -24.302200 0.541176 0.580392 0.450980
v 1.505100 2.386204 -24.307199 0.498039 0.545098 0.388235
v 1.505100 2.386204 -24.307199 0.498039 0.545098 0.388235
v 1.505100 2.386204 -24.307199 0.498039 0.545098 0.388235
v -2.098000 3.150200 0.000001 0.764706 0.835294 0.600000
v -3.394700 -0.840500 -0.000000 0.341176 0.466667 0.047059
v 0.000000 -3.306900 -0.000001 0.486275 0.525490 0.380392
v 0.000000 22.592407 -50.059998 0.815686 0.815686 0.815686
v -14.184600 22.592402 -15.815296 0.815686 0.815686 0.815686
vt -0.519700 1.992200
vt -0.727500 1.992200
vt -0.352300 1.343200
vt -0.559600 1.324000
vt -0.309500 1.176700
vt -0.518400 1.158400
vt -0.481200 1.008700
vt -0.265600 1.007900
vt -0.460900 1.828200
vt -0.045800 1.828200
vt -0.249900 1.000100
vt -0.835900 1.671900
vt -0.914000 1.351600
vt -0.585900 1.351600
vt -0.664000 1.671900
vt -0.750000 2.000000
vt -0.749900 2.000000
vt -0.999900 1.005900
vt -0.499900 1.005900
vt -0.003300 1.992200
vt -0.499900 1.992200
vt -0.500000 1.992200
vn 0.587695 0.016755 -0.808893
vn 0.579241 -0.169774 -0.797235
vn 0.577502 -0.206915 -0.789697
vn 0.582110 -0.598956 -0.549883
vn 0.587176 -0.589007 -0.555193
vn 0.560656 -0.760888 -0.326579
vn 0.555681 -0.765404 -0.324564
vn 0.000000 -0.898221 0.439497
vn -0.310770 -0.898221 0.310739
vn 0.000000 -1.000000 0.000000
vn 0.310739 -0.898221 0.310770
vn 0.439497 -0.898221 0.000000
vn 0.310770 -0.898221 -0.310739
vn 0.000000 -0.898221 -0.439497
vn -0.038331 -0.961760 -0.271065
vn -0.439497 -0.898221 0.000000
vn -0.587695 0.016755 -0.808893
vn -0.577502 -0.206915 -0.789697
vn -0.579241 -0.169774 -0.797235
vn -0.582110 -0.598956 -0.549883
vn -0.587176 -0.589007 -0.555193
vn -0.560656 -0.760888 -0.326579
vn -0.555681 -0.765404 -0.324564
vn -0.950865 0.019196 0.308969
vn -0.947478 0.101810 0.303140
vn -0.948088 0.078799 0.308023
vn -0.948546 0.233314 0.213935
vn -0.950835 0.223090 0.214667
vn -0.944731 0.297159 0.138340
vn -0.942228 0.306375 0.135197
vn 0.000000 0.020692 0.999756
vn 0.000000 0.274514 0.961547
vn 0.000000 0.728965 0.684500
vn 0.000000 0.891385 0.453200
vn 0.000000 0.999481 -0.031404
vn 0.950530 0.308786 -0.032899
vn 0.950530 0.308847 -0.032868
vn -0.950530 0.308786 -0.032868
vn -0.950530 0.308847 -0.032899
vn -0.587390 -0.808496 -0.035279
vn 0.587390 -0.808496 -0.035279
vn -0.547441 0.836818 0.000000
vn -0.823817 0.566820 0.000000
vn -0.582537 0.566820 0.582537
vn -0.387097 0.836818 0.387097
vn 0.000000 0.566820 0.823817
vn 0.000000 0.836818 0.547441
vn 0.582537 0.566820 0.582537
vn 0.387097 0.836818 0.387097
vn 0.823817 0.566820 0.000000
vn 0.547441 0.836818 0.000000
vn 0.582537 0.566820 -0.582537
vn 0.387097 0.836818 -0.387097
vn 0.000000 0.566820 -0.823817
vn 0.000000 0.836818 -0.547441
vn -0.582537 0.566820 -0.582507
vn -0.387097 0.836818 -0.387097
vn -0.118839 0.950530 -0.286905
vn 0.017823 0.998901 0.043062
vn -0.899838 0.436140 0.000000
vn -0.636280 0.436140 -0.636280
vn 0.000000 0.436140 -0.899838
vn 0.636280 0.436140 -0.636280
vn 0.899838 0.436140 0.000000
vn 0.636280 0.436140 0.636280
vn 0.000000 0.436140 0.899838
vn -0.636280 0.436140 0.636280
vn -0.314707 -0.568834 -0.759819
vn 0.000000 -0.599292 -0.800501
vn 0.566027 -0.599292 -0.566027
vn 0.800501 -0.599261 0.000000
vn 0.566027 -0.599292 0.566027
vn 0.000000 -0.599292 0.800501
vn -0.566027 -0.599292 0.566027
vn -0.800501 -0.599261 0.000000
vn -0.759819 -0.568834 -0.314707
vn 0.950865 0.019196 0.308969
vn 0.947478 0.101810 0.303140
vn 0.948088 0.078799 0.308023
vn 0.948546 0.233314 0.213935
vn 0.950835 0.223090 0.214667
vn 0.944731 0.297159 0.138340
vn 0.942228 0.306375 0.135197
usemtl unnamed.085
f 46/1/1 94/2/1 47/3/2
f 47/3/2 94/2/1 60/4/3
f 47/3/2 60/4/3 31/5/4
f 31/5/4 60/4/3 61/6/5
f 31/5/4 61/6/5 96/7/6
f 31/5/4 96/7/6 69/8/7
f 7/9/8 11/10/9 40/11/10
f 7/9/8 40/11/10 12/10/11
f 12/10/11 40/11/10 33/9/12
f 54/10/13 33/9/12 40/11/10
f 54/10/13 40/11/10 58/9/14
f 58/9/14 40/11/10 62/10/15
f 62/10/15 40/11/10 32/9/16
f 32/9/16 40/11/10 11/10/9
f 64/1/17 65/2/17 63/3/18
f 63/3/18 65/2/17 66/4/19
f 63/3/18 66/4/19 67/6/20
f 63/3/18 67/6/20 68/5/21
f 68/5/21 67/6/20 78/8/22
f 78/8/22 67/6/20 70/7/23
f 29/1/24 42/2/24 73/3/25
f 73/3/25 42/2/24 44/4/26
f 73/3/25 44/4/26 27/6/27
f 73/3/25 27/6/27 72/5/28
f 72/5/28 27/6/27 74/8/29
f 74/8/29 27/6/27 77/7/30
f 81/1/31 82/2/31 80/3/32
f 80/3/32 82/2/31 25/4/32
f 80/3/32 25/4/32 83/5/33
f 83/5/33 25/4/32 23/6/33
f 83/5/33 23/6/33 98/8/34
f 98/8/34 23/6/33 75/7/34
f 99/1/35 76/2/35 5/8/35
f 5/8/35 76/2/35 101/7/35
f 97/1/36 100/2/36 85/8/37
f 85/8/37 100/2/36 84/7/37
f 21/1/38 79/2/38 4/8/39
f 4/8/39 79/2/38 102/7/39
f 19/1/40 71/2/40 2/8/40
f 2/8/40 71/2/40 1/7/40
f 18/1/41 95/2/41 103/8/41
f 103/8/41 95/2/41 3/7/41
f 38/12/42 36/13/43 13/14/44
f 38/12/42 13/14/44 16/15/45
f 16/15/45 13/14/44 8/13/46
f 16/15/45 8/13/46 15/12/47
f 15/12/47 8/13/46 14/14/48
f 15/12/47 14/14/48 17/15/49
f 17/15/49 14/14/48 37/13/50
f 17/15/49 37/13/50 39/12/51
f 39/12/51 37/13/50 52/14/52
f 39/12/51 52/14/52 49/15/53
f 49/15/53 52/14/52 57/13/54
f 49/15/53 57/13/54 50/12/55
f 50/12/55 57/13/54 51/14/56
f 50/12/55 51/14/56 48/15/57
f 50/12/55 48/15/57 41/16/58
f 49/15/53 50/12/55 86/17/59
f 49/15/53 86/17/59 39/12/51
f 39/12/51 86/17/59 17/15/49
f 15/12/47 17/15/49 86/17/59
f 15/12/47 86/17/59 16/15/45
f 16/15/45 86/17/59 38/12/42
f 38/12/42 86/17/59 48/15/57
f 38/12/42 48/15/57 36/13/43
f 36/13/43 48/15/57 51/14/56
f 36/13/43 51/14/56 34/18/60
f 34/18/60 51/14/56 55/19/61
f 55/19/61 51/14/56 57/13/54
f 55/19/61 57/13/54 104/18/62
f 104/18/62 57/13/54 52/14/52
f 104/18/62 52/14/52 56/19/63
f 56/19/63 52/14/52 37/13/50
f 56/19/63 37/13/50 35/18/64
f 35/18/64 37/13/50 14/14/48
f 35/18/64 14/14/48 10/19/65
f 10/19/65 14/14/48 8/13/46
f 10/19/65 8/13/46 6/18/66
f 6/18/66 8/13/46 13/14/44
f 6/18/66 13/14/44 105/19/67
f 105/19/67 13/14/44 36/13/43
f 105/19/67 36/13/43 34/18/60
f 62/10/15 87/20/68 59/21/69
f 62/10/15 59/21/69 58/9/14
f 58/9/14 59/21/69 89/20/70
f 58/9/14 89/20/70 54/10/13
f 54/10/13 89/20/70 90/21/71
f 54/10/13 90/21/71 33/9/12
f 33/9/12 90/21/71 91/20/72
f 33/9/12 91/20/72 12/10/11
f 12/10/11 91/20/72 92/22/73
f 12/10/11 92/22/73 7/9/8
f 7/9/8 92/22/73 9/20/74
f 7/9/8 9/20/74 11/10/9
f 11/10/9 9/20/74 93/21/75
f 11/10/9 93/21/75 32/9/16
f 32/9/16 93/21/75 88/20/76
f 32/9/16 88/20/76 53/10/76
f 43/1/77 30/2/77 26/4/78
f 43/1/77 26/4/78 45/3/79
f 45/3/79 26/4/78 28/5/80
f 28/5/80 26/4/78 24/6/81
f 28/5/80 24/6/81 22/7/82
f 28/5/80 22/7/82 20/8/83
