mtllib Arm.mtl
v 2.423984 -0.172669 0.909109 1 1 1
v 1.153362 -0.215592 0.412745 1 1 1
v 2.459814 0.354518 0.599087 1 1 1
v 1.172526 0.070931 0.245109 1 1 1
v 2.29803 0.29671 1.070163 1 1 1
v 1.063296 0.072003 0.55296 1 1 1
v 2.508069 0.482721 0.559397 1 1 1
v 3.16155 1.221092 0.427448 1 1 1
v 3.423052 1.069197 0.588479 1 1 1
v 3.085605 0.591469 0.659245 1 1 1
v 3.436896 0.680051 0.648789 1 1 1
v 3.489684 1.016011 1.217937 1 1 1
v 2.429085 0.484899 0.499336 1 1 1
v 3.928132 0.526722 0.647647 1 1 1
v 4.02722 0.722096 0.9868 1 1 1
v 3.413754 -0.048929 1.853597 1 1 1
v 3.96361 -0.170042 1.519315 1 1 1
v 3.360967 -0.384888 1.284449 1 1 1
v 2.371779 -0.318829 0.979079 1 1 1
v 3.864522 -0.365416 1.180163 1 1 1
v 3.014113 0.797113 0.978083 1 1 1
v 3.212737 0.999633 0.220592 1 1 1
v 2.353664 0.307419 1.093243 1 1 1
v 1.158404 -0.172869 0.302554 1 1 1
v 0.013807 -0.127413 -0.096228 1 1 1
v 1.16327 0.159588 0.306965 1 1 1
v 0.017828 0.147345 -0.092583 1 1 1
v 1.065341 -0.006297 0.572762 1 1 1
v -0.064535 0.013117 0.126555 1 1 1
vt 0.007843 -0.003922
vt 0.992157 -0.003922
vt 0.007843 -0.992157
vt 0.988235 -0.992157
vt 0.397592 0.743143
vt 0.454472 0.839031
vt 0.342398 0.839031
vt 0 -0.054902
vt 0 -0.882353
vt 0 -0.066667
vt 0.992157 0
vt 0.003922 0
vt 0.992157 -0.992157
vt 0.003922 -0.992157
vt 0.447059 -0.952941
vt 0.431373 -1
vt 0.603922 -0.890196
vt 0 -0.078431
vt 0 -0.345098
vt 0 -0.6
vt 0.905882 -0.631373
vt 0.996078 -0.631373
vt 0.909804 -0.054902
vt 1 -0.054902
vt 0.407843 -0.039216
vt 0.647059 -0.039216
vt 0.568627 -0.988235
vt 0.509804 -0.003922
vt 0.988235 -0.988235
vt 0.007843 -0.988235
vt 0.988235 -0.003922
vt 0.423529 -0.039216
vt 0.568627 -0.039216
vt 0.298039 -0.988235
vt 0.745098 -0.988235
vt 0 -0.215686
vt 0 -0.494118
vt 0 -0.760784
vt 0.996078 -0.505882
vt 1 0
vt 0.996078 -1
vt 0.996078 0
vt 0.003922 -0.996078
vt 0.996078 -0.996078
vn 0.824671 0.565569 -0.004608
vn 0.522996 0.064730 -0.849849
vn 0.084048 0.945494 0.314524
vn 0.078524 0.351421 -0.932890
vn 0.763787 -0.347972 0.543596
vn 0.001099 -0.174169 0.984710
vn 0.461562 -0.826380 -0.322489
vn -0.023041 -0.990661 -0.134373
vn 0.229896 -0.009217 0.973144
vn 0.643086 -0.734947 -0.215003
vn 0.664052 0.720389 -0.200049
vn -0.401044 -0.706595 -0.582934
vn -0.813349 0.015381 0.581561
vn -0.379223 0.724265 -0.575823
vn 0.262246 0.039064 -0.964202
vn -0.115207 0.975738 -0.186041
vn 0.927854 0.300851 0.220344
vn -0.629170 -0.763726 -0.144292
vn -0.842128 0.324595 0.430586
vn -0.550737 0.295206 -0.780694
vn -0.816919 0.211676 -0.536485
vn 0.629353 -0.744438 -0.222938
vn -0.080325 0.537217 0.839564
vn -0.440016 -0.884304 -0.156072
vn -0.834651 0.318186 0.449538
vn -0.365001 0.309702 -0.877957
vn 0.197638 0.491256 0.848262
vn 0.563860 -0.779839 0.271767
vn 0.667562 0.538255 -0.514389
usemtl material_6
f 2/36/24 6/37/25 4/38/26
f 5/39/27 1/40/28 3/41/29
f 4/12/26 6/42/25 3/43/29
f 3/43/29 6/42/25 5/44/27
f 2/12/24 4/42/26 1/43/28
f 1/43/28 4/42/26 3/44/29
f 6/12/25 2/42/24 5/43/27
f 5/43/27 2/42/24 1/44/28
usemtl material_7
f 22/15/15 8/16/16 9/17/17
f 19/18/18 23/19/19 13/20/20
f 14/21/2 15/22/1 20/23/7
f 20/23/7 15/22/1 17/24/5
usemtl material_2
f 25/8/12 29/9/13 27/10/14
usemtl material_0
f 28/5/9 24/6/10 26/7/11
usemtl material_10
f 27/11/14 29/12/13 26/13/11
f 26/13/11 29/12/13 28/14/9
f 25/11/12 27/12/14 24/13/10
f 24/13/10 27/12/14 26/14/11
f 29/11/13 25/12/12 28/13/9
f 28/13/9 25/12/12 24/14/10
usemtl material_8
f 8/25/16 22/26/15 7/27/21
f 22/28/15 10/29/22 7/30/21
f 9/25/17 8/26/16 21/27/23
f 9/28/17 21/29/23 10/30/22
f 13/1/20 23/28/19 12/30/3
f 23/28/19 16/29/6 12/30/3
f 19/28/18 18/29/8 16/30/6
f 16/29/6 23/28/19 19/31/18
f 12/29/3 11/30/4 13/28/20
f 7/29/21 21/30/23 8/28/16
f 10/27/22 22/25/15 9/26/17
f 19/32/18 13/33/20 18/34/8
f 18/34/8 13/33/20 11/35/4
usemtl material_9
f 15/1/1 14/2/2 12/3/3
f 12/3/3 14/2/2 11/4/4
f 17/1/5 15/2/1 16/3/6
f 16/3/6 15/2/1 12/4/3
f 20/1/7 17/2/5 18/3/8
f 18/3/8 17/2/5 16/4/6
f 14/1/2 20/2/7 11/3/4
f 11/3/4 20/2/7 18/4/8
