mtllib Kiki.mtl
v -0.869894 2.277025 0 1 1 1
v -0.202576 4.087853 0.795912 1 1 1
v 0.225108 2.303266 0.771237 1 1 1
v 0.225108 2.303266 -0.771237 1 1 1
v -1.336887 3.613736 0.000001 1 1 1
v -0.202576 4.087852 -0.795909 1 1 1
v -0.919824 3.263832 0.907339 1 1 1
v -0.568421 4.394786 0.000001 1 1 1
v 0.919768 3.146237 0.676525 1 1 1
v 0.919768 3.146236 -0.676523 1 1 1
v 0.66137 4.10219 0.000001 1 1 1
v -0.919824 3.263832 -0.907337 1 1 1
v 3.40038 6.053689 0.000001 1 1 1
v 3.202804 7.178331 0.000001 1 1 1
v 0.278768 3.866006 0.000001 1 1 1
v -0.208771 5.314156 1.289457 1 1 1
v -0.894522 5.563757 0.000001 1 1 1
v 0.299506 7.182352 1.579952 1 1 1
v -0.527178 7.48325 0 1 1 1
v 0.982149 7.98661 1.114578 1 1 1
v 0.390578 8.201933 0 1 1 1
v 1.838415 8.14054 0 1 1 1
v 1.775886 4.090049 0.989287 1 1 1
v 2.644427 7.38157 -1.071709 1 1 1
v 1.753197 4.45426 1.072011 1 1 1
v 2.63077 6.333813 1.519185 1 1 1
v 2.644428 7.381571 1.071711 1 1 1
v 1.775885 4.090048 -0.989285 1 1 1
v 1.753196 4.454259 -1.072009 1 1 1
v 2.63077 6.333815 -1.519183 1 1 1
v 0.299504 7.182353 -1.579951 1 1 1
v -0.208771 5.314155 -1.289454 1 1 1
v 2.311524 3.881243 0.000001 1 1 1
v 0.982149 7.98661 -1.114578 1 1 1
v 2.347154 4.502932 0.000001 1 1 1
v 0.7911 4.570227 1.295189 1 1 1
v -0.125173 4.524193 0.981257 1 1 1
v -0.125484 4.524797 -0.982113 1 1 1
v -0.587061 4.730795 0.000001 1 1 1
v 0.791899 4.570321 -1.295827 1 1 1
v 0.406504 6.01379 1.550668 1 1 1
v 0.219974 6.081684 1.42853 1 1 1
v 0.009806 6.159138 2.482014 1 1 1
v -0.143467 6.214927 2.101306 1 1 1
v 0.406504 6.013791 -1.550667 1 1 1
v 0.219974 6.081683 -1.428529 1 1 1
v 0.009807 6.159137 -2.482013 1 1 1
v -0.143467 6.214928 -2.101306 1 1 1
v 0.523593 5.132011 1.236251 1 1 1
v 1.063504 6.612821 1.234957 1 1 1
v 0.567669 6.877214 2.065897 1 1 1
v -0.025559 5.249923 2.067191 1 1 1
v 0.523593 5.13201 -1.23625 1 1 1
v 1.063503 6.61282 -1.234955 1 1 1
v 0.567669 6.877215 -2.065896 1 1 1
v -0.025558 5.249924 -2.06719 1 1 1
v 1.040694 1.382215 -1.728725 1 1 1
v 0.555746 2.557437 -1.232361 1 1 1
v 1.547074 1.533176 -1.418702 1 1 1
v 0.830853 2.639774 -1.064725 1 1 1
v 1.436296 1.664492 -1.889778 1 1 1
v 0.793624 2.74247 -1.372576 1 1 1
v 1.684058 1.532846 -1.379012 1 1 1
v 2.604451 1.179145 -1.247063 1 1 1
v 2.553696 0.881019 -1.408094 1 1 1
v 1.988073 1.029907 -1.478861 1 1 1
v 2.194012 0.731843 -1.468403 1 1 1
v 2.527195 0.799986 -2.037551 1 1 1
v 1.658451 1.607596 -1.31895 1 1 1
v 2.222322 0.218014 -1.467262 1 1 1
v 2.44002 0.193577 -1.806414 1 1 1
v 1.503043 0.498366 -2.673212 1 1 1
v 1.582051 -0.0591 -2.338929 1 1 1
v 1.16986 0.430222 -2.104064 1 1 1
v 0.885507 1.379958 -1.798694 1 1 1
v 1.364352 -0.034665 -1.999776 1 1 1
v 2.155685 1.168855 -1.797698 1 1 1
v 2.414917 1.053681 -1.040207 1 1 1
v 1.4658 1.616125 -1.912859 1 1 1
v 0.597532 2.567668 -1.122169 1 1 1
v 0.239483 3.655773 -0.723387 1 1 1
v 0.910663 2.679475 -1.12658 1 1 1
v 0.498268 3.748175 -0.727032 1 1 1
v 0.720994 2.713147 -1.392377 1 1 1
v 0.343704 3.778347 -0.94617 1 1 1
v -0.443677 0.175928 -0.245146 1 1 1
v 0.049737 1.734605 -0.546155 1 1 1
v -0.652893 0.177835 -0.819609 1 1 1
v -0.079865 1.735874 -0.900259 1 1 1
v -1.143596 0.501776 -0.328954 1 1 1
v -0.356083 1.890982 -0.605772 1 1 1
v 0.15327 0.010219 -0.25153 1 1 1
v 0.086124 0.403268 -0.461156 1 1 1
v -1.160633 0.35064 -0.17465 1 1 1
v -1.357612 0.009124 0.005369 1 1 1
v 1.073442 0.018693 -0.766921 1 1 1
v -0.111396 0.419791 -1.033583 1 1 1
v -1.257644 0.361365 -0.460243 1 1 1
v -0.210248 0.032308 -1.29084 1 1 1
v -1.537309 0.022621 -0.512784 1 1 1
v 0.84523 0.034367 -1.400383 1 1 1
v 0.648758 0.538808 -0.9934 1 1 1
v 0.114985 1.836437 -0.598507 1 1 1
v -0.408464 2.744249 -0.234294 1 1 1
v 0.059859 1.924203 -0.897819 1 1 1
v -0.462897 2.830939 -0.528637 1 1 1
v -0.190747 1.721653 -0.749452 1 1 1
v -0.708991 2.630847 -0.384138 1 1 1
v -0.443677 0.175928 0.245146 1 1 1
v 0.049737 1.734605 0.546155 1 1 1
v -0.652893 0.177835 0.819608 1 1 1
v -0.079865 1.735874 0.900258 1 1 1
v -1.143596 0.501776 0.328954 1 1 1
v -0.356083 1.890982 0.605772 1 1 1
v 0.15327 0.010219 0.25153 1 1 1
v 0.086124 0.403268 0.461156 1 1 1
v -1.160633 0.35064 0.17465 1 1 1
v -1.357612 0.009124 -0.005369 1 1 1
v 1.073441 0.018694 0.766921 1 1 1
v -0.111397 0.419791 1.033583 1 1 1
v -1.257644 0.361365 0.460242 1 1 1
v -0.210248 0.032308 1.290839 1 1 1
v -1.537309 0.022621 0.512784 1 1 1
v 0.84523 0.034367 1.400383 1 1 1
v 0.648757 0.538808 0.9934 1 1 1
v 0.114985 1.836436 0.598506 1 1 1
v -0.408464 2.744249 0.234293 1 1 1
v 0.059859 1.924202 0.897819 1 1 1
v -0.462897 2.830939 0.528636 1 1 1
v -0.190747 1.721653 0.749452 1 1 1
v -0.708991 2.630848 0.384137 1 1 1
vt 0.988235 -0.007843
vt 0.913725 -0.996078
vt 0.992157 -0.996078
vt 0.008225 -0.008225
vt 0.008225 -0.991775
vt 0.906249 -0.991775
vt 0.991775 -0.008225
vt 0.917647 -0.996078
vt 0.992157 -0.003922
vt 0.007843 -0.992157
vt 0.988235 -0.992157
vt 0.007843 -0.003922
vt 1.866667 -0.007843
vt 0.12549 -0.007843
vt 2 -0.996078
vt 0 -0.996078
vt 2.984314 -0.007843
vt 0.011765 -0.007843
vt 2.984314 -0.996078
vt 0.011765 -0.996078
vt 0.176471 -0.011765
vt 1.498039 -0.011765
vt 1.498039 -0.996078
vt 2.807843 -0.011765
vt 3 -0.996078
vt 0 0
vt 0.498039 -1
vt 1 0
vt 0.996078 -0.058824
vt 0.003922 -0.003922
vt 0.482353 -1
vt 0.996078 0
vt 0.229995 0.743143
vt 0.34207 0.743143
vt 0.285189 0.839031
vt 0.859389 0.091586
vt 0.999836 0.13175
vt 0.857061 0.276471
vt 0.999836 0.233473
vt 0.351001 0.000164
vt 0.000306 0.058305
vt 0.000164 0.285303
vt 0.347317 0.371327
vt 0.121749 0.849901
vt 0.121749 0.743143
vt 0.229667 0.798432
vt 0.857057 0.466826
vt 0.999805 0.509915
vt 0.859268 0.651713
vt 0.99974 0.611638
vt 0.000164 0.684455
vt 0.000164 0.457456
vt 0.350824 0.742815
vt 0.347373 0.371655
vt 0.121421 0.838157
vt 0.000164 0.838157
vt 0.048842 0.743143
vt 0.415686 0
vt 0.752941 -0.996078
vt 1 -0.996078
vt 0.462745 -0.815686
vt 0.666667 -0.894118
vt 0.521569 -1
vt 0.74902 -0.737255
vt 0.784314 -0.886275
vt 0.85098 -0.094118
vt 0.698039 -0.094118
vt 0.521569 0
vt 0.278431 -0.094118
vt 0.133333 -0.094118
vt 0.92549 -0.737255
vt 1 -0.309804
vt 0.788235 -0.309804
vt 0.239216 -0.764706
vt 0.192157 -0.309804
vt 0 -0.309804
vt 0.611765 -0.498039
vt 0 -0.043137
vt 0 -0.952941
vt 0.556863 -1
vt 0.556863 0
vt 0.996078 -0.498039
vt 0.835294 -0.498039
vt 1 -0.498039
vt 0 -0.929412
vt 0 -0.113725
vt 0 -0.941176
vt 0.980392 -0.996078
vt 0 -0.690196
vt 0.996078 -0.996078
vt 0.227451 -0.011765
vt 0.247059 -0.007843
vt 0.980392 -0.003922
vt 0 -0.494118
vt 0.996078 -0.992157
vt 0.023529 -0.003922
vt 1.976471 -0.003922
vt 1 -0.984314
vt 0.992157 -0.992157
vt 0.003922 -0.992157
vt 0.992157 0
vt 0.003922 0
vt 1 -0.988235
vt 0.603922 -0.890196
vt 0.431373 -1
vt 0.447059 -0.952941
vt 0 -0.6
vt 0 -0.345098
vt 0 -0.078431
vt 0.909804 -0.054902
vt 1 -0.054902
vt 0.905882 -0.631373
vt 0.996078 -0.631373
vt 0.568627 -0.988235
vt 0.647059 -0.039216
vt 0.407843 -0.039216
vt 0.007843 -0.988235
vt 0.988235 -0.988235
vt 0.509804 -0.003922
vt 0.988235 -0.003922
vt 0.298039 -0.988235
vt 0.745098 -0.988235
vt 0.423529 -0.039216
vt 0.568627 -0.039216
vt 0.992157 -0.988235
vt 0.992157 -0.294118
vt 0.482353 -0.372549
vt 0.419608 -0.988235
vt 0.462745 -0.364706
vt 0.941176 -0.364706
vt 0 -0.760784
vt 0 -0.215686
vt 0.996078 -1
vt 0.996078 -0.505882
vt 0.003922 -0.996078
vt 0 -0.796078
vt 0.011765 -0.494118
vt 0 -0.180392
vt 0.835294 -0.988235
vt 0.235294 -0.007843
vn -0.571184 -0.132603 -0.809992
vn 0.484054 -0.249641 -0.838649
vn 0.009644 -0.296274 -0.955046
vn 0.978027 -0.208350 -0.001099
vn 0.934446 -0.356059 0.000000
vn 0.530900 -0.055788 0.845576
vn 0.480239 -0.238655 0.844020
vn 0.009003 -0.297342 0.954711
vn -0.566088 -0.131413 0.813776
vn 0.541002 -0.049318 -0.839534
vn 0.913816 0.254219 -0.316660
vn 0.352580 0.054353 0.934172
vn 0.814508 -0.580126 -0.001648
vn 0.236518 -0.471541 0.849513
vn -0.164220 -0.064791 -0.984283
vn -0.067598 -0.835475 -0.545305
vn -0.934477 -0.330790 0.131504
vn -0.617145 -0.720786 0.315531
vn 0.808069 -0.073397 -0.584460
vn 0.806696 -0.073763 0.586291
vn 0.270363 -0.723014 -0.635701
vn 0.270608 -0.721427 0.637379
vn -0.004791 0.639027 -0.769158
vn -0.567675 -0.017396 -0.823054
vn -0.004456 0.637318 0.770562
vn -0.348155 0.937407 0.000000
vn -0.565905 -0.017304 0.824274
vn -0.959441 0.281869 0.000000
vn -0.607166 -0.794549 0.000000
vn 0.408582 -0.620075 -0.669729
vn -0.353282 -0.935484 0.000000
vn 0.408490 -0.620014 0.669820
vn 0.739464 -0.673147 0.000000
vn 0.907590 -0.369091 0.199988
vn -0.464125 -0.859279 0.214942
vn 0.071383 -0.217322 -0.973479
vn -0.521226 -0.353923 0.776543
vn -0.243110 0.793695 0.557543
vn -0.898038 -0.319895 -0.301950
vn -0.515061 0.829585 -0.215583
vn 0.303537 -0.482253 0.821711
vn 0.887783 -0.321390 0.329417
vn 0.493545 -0.308603 -0.813105
vn -0.272805 -0.414563 -0.868129
vn 0.522141 -0.038240 -0.851985
vn 0.760491 -0.434919 0.482101
vn -0.467299 -0.865169 -0.181799
vn -0.898434 -0.318888 0.301767
vn -0.515763 0.829005 0.216071
vn -0.521134 -0.353221 -0.776910
vn -0.243355 0.793115 -0.558306
vn 0.887722 -0.321451 -0.329478
vn 0.494247 -0.308267 0.812799
vn 0.304117 -0.481918 -0.821711
vn -0.273019 -0.410382 0.870052
vn -0.466781 -0.865413 0.181982
vn 0.760674 -0.434950 -0.481826
vn 0.522355 -0.038423 0.851833
vn 0.667257 0.744804 0.000000
vn -0.565203 -0.592181 0.574297
vn -0.554430 -0.599536 -0.577166
vn -0.872311 -0.488662 0.014649
vn -0.379681 0.925077 -0.001404
vn -0.057863 0.792352 0.607288
vn 0.321116 0.947020 0.000000
vn 0.576861 0.562761 0.591998
vn 0.886441 0.462783 -0.002716
vn 0.579211 0.560900 -0.591479
vn -0.059420 0.792444 -0.607013
vn -0.998932 -0.045289 0.005921
vn -0.863277 0.504685 0.000183
vn -0.407025 0.312967 0.858089
vn -0.409650 0.324595 -0.852504
vn -0.660878 0.240333 -0.710929
vn 0.762780 0.472793 -0.441084
vn 0.279244 -0.853450 -0.439985
vn -0.265297 -0.898495 -0.349681
vn 0.279244 -0.853450 0.439985
vn -0.660878 0.240333 0.710929
vn 0.375469 0.858913 0.348216
vn -0.938566 0.342296 -0.043703
vn -0.119663 0.044252 0.991821
vn -0.265297 -0.898495 0.349681
vn 0.762780 0.472793 0.441115
vn -0.938566 0.342296 0.043703
vn 0.375469 0.858913 -0.348216
vn -0.119663 0.044252 -0.991821
vn 0.546556 0.608509 0.575274
vn -0.269906 0.766411 -0.582873
vn -0.802789 0.127628 0.582415
vn 0.356822 0.923826 -0.138462
vn -0.185003 0.861812 -0.472243
vn 0.166204 0.823298 0.542680
vn 0.356822 0.923826 0.138462
vn -0.184698 0.861690 0.472610
vn 0.166692 0.823145 -0.542772
vn 0.750206 -0.272988 0.602191
vn 0.750206 -0.272988 -0.602191
vn 0.314158 0.507065 -0.802576
vn -0.868709 -0.495285 -0.002075
vn 0.599048 0.024323 0.800317
vn 0.314066 0.507706 0.802240
vn -0.869442 -0.493973 0.001556
vn 0.598895 0.025025 -0.800409
vn 0.606586 -0.763848 -0.220344
vn 0.873684 0.449477 0.186041
vn 0.128391 -0.231971 0.964202
vn 0.083773 0.619251 0.780694
vn 0.009308 0.902493 -0.430586
vn -0.935636 0.322062 0.144292
vn -0.087619 0.839320 0.536485
vn -0.477065 -0.850093 0.222938
vn 0.475112 0.263283 -0.839564
vn 0.179754 0.448012 0.875759
vn 0.025147 0.899106 -0.436964
vn -0.978698 0.112522 0.171606
vn 0.741813 -0.426038 0.517838
vn -0.523637 -0.808771 -0.267647
vn 0.541307 -0.009949 -0.840754
vn 0.362682 0.377300 -0.852077
vn -0.474105 0.863948 0.169683
vn 0.818873 0.373333 0.435896
vn -0.042146 -0.681997 -0.730094
vn 0.431440 -0.677572 0.595599
vn -0.940642 -0.079836 0.329783
vn 0.821009 0.375744 -0.429792
vn -0.478164 0.863582 -0.159856
vn 0.356822 0.374310 0.855861
vn -0.942534 -0.079409 -0.324473
vn 0.430738 -0.680319 -0.592944
vn -0.043153 -0.678945 0.732902
usemtl material_12
f 97/96/92 93/97/93 102/98/91
f 125/98/94 116/97/96 120/96/95
usemtl material_6
f 60/131/114 62/94/115 58/132/116
f 59/133/117 57/28/118 61/134/119
f 59/135/117 61/90/119 60/102/114
f 60/102/114 61/90/119 62/32/115
f 57/135/118 59/90/117 58/102/116
f 58/102/116 59/90/117 60/32/114
f 61/135/119 57/90/118 62/102/115
f 62/102/115 57/90/118 58/32/116
f 89/136/120 91/137/121 87/138/122
f 88/133/123 86/28/124 90/134/125
f 88/133/123 90/16/125 89/28/120
f 89/28/120 90/16/125 91/26/121
f 86/133/124 88/16/123 87/28/122
f 87/28/122 88/16/123 89/26/120
f 90/133/125 86/16/124 91/28/121
f 91/28/121 86/16/124 87/26/122
f 110/138/126 114/137/127 112/136/128
f 113/134/129 109/28/130 111/133/131
f 112/28/128 114/26/127 111/133/131
f 111/133/131 114/26/127 113/16/129
f 110/28/126 112/26/128 109/133/130
f 109/133/130 112/26/128 111/16/131
f 114/28/127 110/26/126 113/133/129
f 113/133/129 110/26/126 109/16/130
usemtl material_7
f 65/104/105 64/105/106 78/106/107
f 69/107/108 79/108/109 75/109/110
f 76/110/18 73/111/16 70/112/14
f 70/112/14 73/111/16 71/113/13
usemtl material_4
f 32/1/1 29/2/2 40/3/3
f 13/4/4 35/5/5 29/6/2
f 13/4/4 26/7/6 25/6/7
f 36/3/8 25/8/7 16/9/9
f 29/6/2 30/7/10 13/4/4
f 25/6/7 35/5/5 13/4/4
usemtl material_5
f 50/28/75 41/94/97 49/95/76
f 41/94/97 50/95/75 51/28/80
f 41/94/97 51/95/80 43/28/82
f 41/94/97 43/95/82 52/28/83
f 41/94/97 52/95/83 49/28/76
f 53/95/78 56/28/77 45/94/98
f 53/28/78 45/94/98 54/95/84
f 55/95/86 54/28/84 45/94/98
f 47/95/87 55/28/86 45/94/98
f 56/95/77 47/28/87 45/94/98
usemtl material_2
f 11/58/59 9/16/20 10/16/19
f 10/16/19 6/59/23 11/58/59
f 11/58/59 8/60/26 2/59/25
f 8/60/26 11/58/59 6/59/23
f 2/59/25 9/16/20 11/58/59
f 36/61/8 37/62/60 15/63/31
f 40/61/3 38/62/61 32/64/1
f 39/65/62 15/63/31 37/62/60
f 21/66/63 20/67/64 22/68/65
f 20/67/64 27/69/66 22/68/65
f 22/68/65 14/70/67 24/69/68
f 15/63/31 38/62/61 40/61/3
f 24/69/68 34/67/69 22/68/65
f 38/62/61 15/63/31 39/65/62
f 34/67/69 21/66/63 22/68/65
f 14/70/67 22/68/65 27/69/66
f 16/64/9 37/62/60 36/61/8
f 17/71/70 16/64/9 19/72/71
f 19/72/71 16/64/9 18/73/72
f 19/72/71 18/73/72 21/66/63
f 21/66/63 18/73/72 20/67/64
f 16/64/9 25/74/7 18/73/72
f 18/73/72 25/74/7 26/75/6
f 18/73/72 26/75/6 20/67/64
f 20/67/64 26/75/6 27/69/66
f 14/70/67 13/76/4 24/69/68
f 24/69/68 13/76/4 30/75/10
f 29/74/2 32/64/1 30/75/10
f 30/75/10 32/64/1 31/73/73
f 30/75/10 31/73/73 24/69/68
f 24/69/68 31/73/73 34/67/69
f 32/64/1 17/71/70 31/73/73
f 31/73/73 17/71/70 19/72/71
f 31/73/73 19/72/71 34/67/69
f 34/67/69 19/72/71 21/66/63
f 13/76/4 14/70/67 26/75/6
f 26/75/6 14/70/67 27/69/66
f 37/62/60 16/64/9 39/65/62
f 39/65/62 16/64/9 17/71/70
f 39/65/62 17/71/70 38/62/61
f 38/62/61 17/71/70 32/64/1
f 42/77/74 50/78/75 49/79/76
f 56/80/77 53/79/78 46/77/79
f 42/77/74 51/81/80 50/78/75
f 44/82/81 43/83/82 51/81/80
f 42/77/74 44/82/81 51/81/80
f 44/82/81 52/80/83 43/83/82
f 42/77/74 52/80/83 44/82/81
f 42/77/74 49/79/76 52/80/83
f 53/79/78 54/78/84 46/77/79
f 48/84/85 56/80/77 46/77/79
f 54/78/84 55/81/86 46/77/79
f 47/83/87 48/84/85 55/81/86
f 55/81/86 48/84/85 46/77/79
f 47/83/87 56/80/77 48/84/85
f 83/85/88 85/86/89 81/87/90
f 101/88/43 102/89/91 96/90/42
f 97/91/92 102/89/91 101/88/43
f 93/92/93 92/28/41 96/90/42
f 101/88/43 99/93/44 97/91/92
f 96/90/42 102/89/91 93/92/93
f 119/90/52 125/89/94 124/88/53
f 124/88/53 125/89/94 120/91/95
f 119/90/52 115/28/54 116/92/96
f 120/91/95 122/93/55 124/88/53
f 116/92/96 125/89/94 119/90/52
usemtl material_3
f 36/139/8 23/117/32 25/140/7
f 33/117/33 35/12/5 25/9/7
f 33/117/33 28/125/30 29/9/2
f 29/140/2 28/117/30 40/139/3
f 25/9/7 23/125/32 33/117/33
f 29/9/2 35/12/5 33/117/33
usemtl material_0
f 3/26/22 1/27/29 4/28/21
f 12/28/24 4/26/21 1/27/29
f 5/26/28 1/27/29 7/28/27
f 1/27/29 5/28/28 12/26/24
f 3/28/22 7/26/27 1/27/29
f 40/29/3 28/30/30 15/31/31
f 15/31/31 23/30/32 36/29/8
f 28/32/30 33/30/33 15/31/31
f 23/30/32 15/31/31 33/32/33
f 82/33/34 80/34/35 84/35/36
f 95/36/37 94/37/38 100/38/39
f 100/38/39 94/37/38 98/39/40
f 92/40/41 95/36/37 96/41/42
f 96/41/42 95/36/37 100/38/39
f 96/41/42 100/38/39 101/42/43
f 101/42/43 100/38/39 99/43/44
f 105/44/45 103/45/46 107/46/47
f 123/47/48 121/48/49 118/49/50
f 118/49/50 121/48/49 117/50/51
f 119/51/52 124/52/53 115/53/54
f 115/53/54 124/52/53 122/54/55
f 115/53/54 122/54/55 118/49/50
f 118/49/50 122/54/55 123/47/48
f 130/55/56 126/56/57 128/57/58
usemtl material_1
f 10/13/19 9/14/20 4/15/21
f 4/15/21 9/14/20 3/16/22
f 6/17/23 10/18/19 12/19/24
f 12/19/24 10/18/19 4/20/21
f 2/21/25 8/22/26 7/16/27
f 7/16/27 8/22/26 5/23/28
f 8/22/26 6/24/23 5/23/28
f 5/23/28 6/24/23 12/25/24
f 9/17/20 2/18/25 3/19/22
f 3/19/22 2/18/25 7/20/27
usemtl material_10
f 82/99/34 84/100/36 83/101/88
f 83/101/88 84/100/36 85/102/89
f 80/99/35 82/100/34 81/101/90
f 81/101/90 82/100/34 83/102/88
f 84/99/36 80/100/35 85/101/89
f 85/101/89 80/100/35 81/102/90
f 105/103/45 107/16/47 106/32/99
f 106/32/99 107/16/47 108/26/100
f 103/103/46 105/16/45 104/32/101
f 104/32/101 105/16/45 106/26/99
f 107/103/47 103/16/46 108/32/100
f 108/32/100 103/16/46 104/26/101
f 129/32/102 131/26/103 128/103/58
f 128/103/58 131/26/103 130/16/56
f 127/32/104 129/26/102 126/103/57
f 126/103/57 129/26/102 128/16/58
f 131/32/103 127/26/104 130/103/56
f 130/103/56 127/26/104 126/16/57
usemtl material_8
f 63/114/111 78/115/107 64/116/106
f 63/117/111 66/118/112 78/119/107
f 77/114/113 64/115/106 65/116/105
f 66/117/112 77/118/113 65/119/105
f 68/117/11 79/119/109 69/12/108
f 68/117/11 72/118/15 79/119/109
f 72/117/15 74/118/17 75/119/110
f 75/120/110 79/119/109 72/118/15
f 69/119/108 67/117/12 68/118/11
f 64/119/106 77/117/113 63/118/111
f 65/115/105 78/116/107 66/114/112
f 74/121/17 67/122/12 75/123/110
f 75/123/110 67/122/12 69/124/108
f 99/125/44 100/126/39 98/127/40
f 92/125/41 93/128/93 94/127/38
f 98/127/40 97/128/92 99/125/44
f 94/127/38 95/126/37 92/125/41
f 93/128/93 97/125/92 94/129/38
f 94/129/38 97/125/92 98/130/40
f 121/127/49 123/126/48 122/125/55
f 117/127/51 116/128/96 115/125/54
f 122/125/55 120/128/95 121/127/49
f 115/125/54 118/126/50 117/127/51
f 117/129/51 121/130/49 116/128/96
f 116/128/96 121/130/49 120/125/95
usemtl material_9
f 68/10/11 67/11/12 71/12/13
f 71/12/13 67/11/12 70/9/14
f 72/10/15 68/11/11 73/12/16
f 73/12/16 68/11/11 71/9/13
f 74/10/17 72/11/15 76/12/18
f 76/12/18 72/11/15 73/9/16
f 67/10/12 74/11/17 70/12/14
f 70/12/14 74/11/17 76/9/18
