mtllib Door.mtl
v -25.000000 -0.370644 5.000010 0.600000 0.376471 0.364706
v -25.000000 50.000027 5.000037 0.600000 0.376471 0.364706
v -25.000000 -0.370635 -4.999983 0.737255 0.529412 0.529412
v -25.000000 50.000027 -4.999956 0.737255 0.529412 0.529412
v 25.000000 -0.370644 5.000010 0.203922 0.094118 0.101961
v -25.000000 -0.370644 5.000010 0.203922 0.094118 0.101961
v 25.000000 -0.370635 -4.999983 0.419608 0.239216 0.239216
v -25.000000 -0.370635 -4.999983 0.419608 0.239216 0.239216
v 25.000000 50.000027 5.000037 0.600000 0.376471 0.364706
v 25.000000 -0.370644 5.000010 0.600000 0.376471 0.364706
v 25.000000 50.000027 -4.999956 0.737255 0.529412 0.529412
v 25.000000 -0.370635 -4.999983 0.737255 0.529412 0.529412
v -25.000000 50.000027 5.000037 1.000000 0.713726 0.713726
v 25.000000 50.000027 5.000037 1.000000 0.713726 0.713726
v -25.000000 50.000027 -4.999956 1.000000 0.713726 0.713726
v 25.000000 50.000027 -4.999956 1.000000 0.713726 0.713726
v -25.000000 -0.370635 -4.999983 0.921569 0.749020 0.749020
v 25.000000 -0.370635 -4.999983 0.921569 0.749020 0.749020
v 25.000000 -0.370644 5.000010 0.921569 0.749020 0.749020
v 25.000000 50.000027 5.000037 0.737255 0.529412 0.529412
v -25.000000 -0.370644 5.000010 0.921569 0.749020 0.749020
v -25.000000 50.000027 5.000037 0.737255 0.529412 0.529412
vt 0.000000 1.000000
vt 0.000000 0.000000
vt 0.160784 1.000000
vt 0.160784 0.000000
vt 0.164706 1.000000
vt 0.164706 0.000000
vt 1.000000 1.000000
vt 1.003922 0.000000
vn -0.999969 0.000000 0.000000
vn -1.000000 0.000000 0.000000
vn -0.707083 0.000000 -0.707083
vn 0.000000 -1.000000 0.000000
vn 0.000000 -0.999969 0.000000
vn 1.000000 0.000000 0.000000
vn 0.707083 0.000000 -0.707083
vn 0.000000 1.000000 0.000000
vn 0.000000 0.999969 0.000000
vn 0.000000 0.000000 -1.000000
vn 0.000000 0.000000 1.000000
usemtl attach_006A993C_material_0
f 1/1/1 2/2/2 3/3/2
f 3/3/2 2/2/2 4/4/3
f 5/4/4 6/3/5 7/2/5
f 7/2/5 6/3/5 8/1/4
f 9/4/6 10/3/6 11/2/7
f 11/2/7 10/3/6 12/1/6
f 13/4/8 14/3/9 15/2/9
f 15/2/9 14/3/9 16/1/8
f 17/5/10 4/6/3 18/7/10
f 18/7/10 4/6/3 11/8/7
f 19/7/11 20/8/11 21/5/11
f 21/5/11 20/8/11 22/6/11
