mtllib Sunglasses.mtl
v -1.741091 1.202074 1.739017
v -2.140761 2.710027 1.958490
v 2.141101 2.710027 1.958490
v 1.813002 1.202074 1.739017
v -0.337303 1.202074 1.739017
v 0.000000 2.710027 1.958490
v 0.000000 2.710027 1.958490
v 0.409215 1.202074 1.739017
v -2.140761 2.859132 1.958490
v 2.141101 2.859132 1.958490
v -2.140761 2.710027 0.220799
v 2.141101 2.710027 0.220799
v -2.140761 2.859132 0.220799
v 2.141101 2.859132 0.220799
vt 1.000000 0.000000
vt 0.000000 1.000000
vt 0.000000 0.000000
vt 1.000000 1.000000
vn 0.000000 -0.144026 0.989574
vn 0.000000 0.000000 -1.000000
vn -1.000000 0.000000 0.000000
vn 1.000000 0.000000 0.000000
usemtl None
f 6/1/1 1/2/1 5/3/1
f 3/1/1 8/2/1 4/3/1
f 10/3/2 2/3/2 9/3/2
f 10/3/3 12/3/3 3/3/3
f 2/3/4 13/3/4 9/3/4
f 6/1/1 2/4/1 1/2/1
f 3/1/1 7/4/1 8/2/1
f 10/3/2 3/3/2 2/3/2
f 10/3/3 14/3/3 12/3/3
f 2/3/4 11/3/4 13/3/4
