mtllib NokiBayTransparent.mtl
v 91.528534 939.046509 606.620972 0.584314 1.000000 1.000000
v 79.494858 939.046692 553.273987 0.584314 1.000000 1.000000
v 73.124146 939.046509 580.583069 0.584314 1.000000 1.000000
v 114.289749 939.046692 541.770203 0.584314 1.000000 1.000000
v 137.431717 939.046509 615.319153 0.584314 1.000000 1.000000
v 148.582077 939.046692 556.769714 0.584314 1.000000 1.000000
v 163.966599 939.046509 614.239746 0.584314 1.000000 1.000000
v 174.386810 939.046509 588.666687 0.584314 1.000000 1.000000
v 209.535919 939.046387 638.153809 0.584314 1.000000 1.000000
v 214.472321 939.046387 597.100159 0.584314 1.000000 1.000000
v 241.182892 939.046387 595.106750 0.584314 1.000000 1.000000
v 348.041443 154.884277 -343.985870 0.149020 0.329412 0.349020
v 348.917877 154.884277 -390.252411 0.149020 0.329412 0.349020
v 329.590851 154.884277 -385.304871 0.149020 0.329412 0.349020
v 387.646729 154.884277 -373.787689 0.149020 0.329412 0.349020
v 391.628357 154.884262 -352.850037 0.149020 0.329412 0.349020
v -202.682114 658.349243 611.636841 0.000000 0.627451 0.627451
v -177.809753 658.349243 599.003967 0.000000 0.529412 0.529412
v -198.483551 658.349243 583.065674 0.000000 0.627451 0.627451
v -174.066818 658.349243 612.986511 0.000000 0.627451 0.627451
v -194.766525 658.349243 636.596741 0.000000 0.627451 0.627451
v -220.774338 658.349243 643.510742 0.000000 0.419608 0.247059
v -203.592102 658.349243 650.552002 0.149020 0.337255 0.337255
v -212.146820 658.349243 654.988525 0.000000 0.094118 0.094118
v 270.153839 160.238113 -396.004303 0.149020 0.329412 0.349020
v 253.438568 160.238113 -369.492523 0.149020 0.329412 0.349020
v 278.451691 160.238113 -387.055511 0.149020 0.329412 0.349020
v 252.188385 160.238113 -387.840912 0.149020 0.329412 0.349020
v 269.381775 160.238113 -410.502716 0.149020 0.329412 0.349020
v 296.180542 160.238113 -404.752228 0.149020 0.329412 0.349020
v 299.071625 160.238113 -388.588470 0.149020 0.329412 0.349020
v 297.245941 168.153275 -340.356384 0.149020 0.329412 0.349020
v 266.571960 168.153275 -333.730896 0.149020 0.329412 0.349020
v 280.119720 168.153229 -308.581268 0.149020 0.329412 0.349020
v 265.406464 168.153275 -358.307892 0.149020 0.329412 0.349020
v 284.717377 168.153290 -374.363770 0.149020 0.329412 0.349020
v 317.817596 168.153290 -370.942200 0.149020 0.329412 0.349020
v 333.932251 168.153259 -341.997223 0.149020 0.329412 0.349020
v 322.488647 168.153229 -317.367004 0.149020 0.329412 0.349020
v -419.956512 169.804367 198.864105 0.000000 0.529412 0.529412
v -436.780975 169.804367 192.144073 0.000000 0.529412 0.529412
v -453.739899 169.804367 211.746155 0.000000 0.529412 0.529412
v -413.300934 169.804367 187.522034 0.000000 0.529412 0.529412
v -398.735321 169.804367 193.845062 0.000000 0.529412 0.529412
v -479.750488 161.241531 208.901382 0.058824 1.000000 1.000000
v -483.371582 161.241516 231.316772 0.000000 0.529412 0.529412
v -466.354584 161.241516 211.002090 0.149020 0.329412 0.349020
v -496.617676 161.241486 243.133469 0.000000 0.529412 0.529412
v -509.184052 161.241531 232.678284 0.000000 0.529412 0.529412
v -497.547333 161.241531 192.102753 0.000000 0.529412 0.529412
v -458.185638 161.241562 172.743546 0.000000 0.529412 0.529412
v -444.632202 161.241547 181.272369 0.000000 0.529412 0.529412
v 228.171356 939.046387 636.055298 0.000000 0.839216 0.839216
v 227.880127 939.046387 666.996704 0.584314 1.000000 1.000000
v 262.441193 939.046387 680.344971 0.000000 0.839216 0.839216
v 272.461029 939.046387 601.785339 0.000000 0.839216 0.839216
v 269.643463 939.046387 576.004333 0.584314 1.000000 1.000000
v 298.442169 939.046387 579.580017 0.584314 1.000000 1.000000
v 306.730865 939.046387 646.075073 0.000000 0.839216 0.839216
v 330.591095 939.046387 629.469666 0.584314 1.000000 1.000000
v 310.804901 939.046387 667.523743 0.584314 1.000000 1.000000
v 387.671936 154.884262 -332.809021 0.149020 0.329412 0.349020
v 360.496490 154.884247 -321.349335 0.149020 0.329412 0.349020
v 298.363861 168.153229 -317.367035 0.149020 0.329412 0.349020
v -215.786118 658.349243 590.481506 0.000000 0.627451 0.627451
v -225.397095 658.349243 600.092468 0.000000 0.627451 0.627451
v 264.763855 939.046387 693.565125 0.584314 1.000000 1.000000
v -222.695755 658.349243 628.386475 0.000000 0.627451 0.627451
v -399.189606 169.804352 207.782074 0.000000 0.529412 0.529412
v 353.432068 939.256531 488.952271 0.109804 0.109804 0.247059
v 388.432098 939.256531 453.952332 0.000000 0.376471 0.627451
v 318.432068 939.256531 453.952301 0.000000 0.376471 0.627451
v 388.432037 939.256531 523.952332 0.000000 0.376471 0.627451
v 318.432068 939.256531 523.952332 0.000000 0.376471 0.627451
v 125.932144 939.256348 695.452332 0.109804 0.109804 0.247059
v 160.932144 939.256348 660.452332 0.000000 0.376471 0.627451
v 90.932159 939.256470 660.452332 0.000000 0.376471 0.627451
v 160.932114 939.256348 730.451721 0.000000 0.376471 0.627451
v 90.932159 939.256348 730.451782 0.000000 0.376471 0.627451
v 443.027985 1046.917480 -736.678101 0.109804 0.109804 0.247059
v 478.027985 1046.917480 -771.678162 0.000000 0.376471 0.627451
v 408.027985 1046.917480 -771.678101 0.000000 0.376471 0.627451
v 478.027985 1046.917480 -701.678162 0.000000 0.376471 0.627451
v 408.027954 1046.917480 -701.678101 0.000000 0.376471 0.627451
vt 0.500000 0.500000
vt 0.000000 0.000000
vt 1.000000 0.000000
vt 0.000000 1.000000
vt 1.000000 1.000000
vt -0.125600 3.080600
vt -0.071900 2.842500
vt -0.043500 2.964400
vt -0.227200 2.791100
vt -0.330500 3.119500
vt -0.380300 2.858100
vt -0.449000 3.114700
vt -0.495500 3.000500
vt -0.652400 3.221400
vt -0.674500 3.038100
vt -0.793700 3.029200
vt -1.270800 -1.163100
vt -1.274700 -1.369700
vt -1.188400 -1.347600
vt -1.447600 -1.296200
vt -1.465300 -1.202700
vt 1.187800 3.103000
vt 1.076800 3.046600
vt 1.169100 2.975500
vt 1.060100 3.109100
vt 1.152500 3.214500
vt 1.268600 3.245300
vt 1.191900 3.276800
vt 1.230100 3.296600
vt -0.923000 -1.395300
vt -0.848400 -1.277000
vt -0.960100 -1.355400
vt -0.842800 -1.358900
vt -0.919600 -1.460100
vt -1.039200 -1.434400
vt -1.052200 -1.362200
vt -1.044000 -1.146900
vt -0.907100 -1.117300
vt -0.967500 -1.005100
vt -0.901900 -1.227100
vt -0.988100 -1.298700
vt -1.135800 -1.283500
vt -1.207800 -1.154300
vt -1.156700 -1.044300
vt 2.157800 1.260300
vt 2.232900 1.230300
vt 2.308600 1.317800
vt 2.128100 1.209700
vt 2.063100 1.237900
vt 2.424700 1.305100
vt 2.440900 1.405200
vt 2.364900 1.314500
vt 2.500000 1.457900
vt 2.556100 1.411300
vt 2.504200 1.230100
vt 2.328500 1.143700
vt 2.268000 1.181800
vt -0.735600 3.212100
vt -0.734300 3.350200
vt -0.888600 3.409800
vt -0.933400 3.059100
vt -0.920800 2.944000
vt -1.049300 2.959900
vt -1.086300 3.256800
vt -1.192900 3.182700
vt -1.104500 3.352500
vt -1.447700 -1.113200
vt -1.326400 -1.062100
vt -1.049000 -1.044300
vt 1.246300 3.008600
vt 1.289200 3.051500
vt -0.899000 3.468800
vt 1.277200 3.177800
vt 2.065100 1.300100
vn 0.000000 1.000000 0.000000
vn 0.000000 0.999969 0.000000
usemtl plam_ougi.png
f 70/1/1 71/2/1 72/3/1
f 70/1/1 73/4/1 71/2/1
f 74/5/2 73/4/1 70/1/1
f 75/1/1 76/2/1 77/3/1
f 75/1/1 78/4/1 76/2/1
f 79/5/1 78/4/1 75/1/1
f 80/1/1 81/2/1 82/3/1
f 80/1/1 83/4/1 81/2/1
f 84/5/1 83/4/1 80/1/1
f 77/3/1 79/5/1 75/1/1
f 72/3/1 74/5/2 70/1/1
f 82/3/1 84/5/1 80/1/1
usemtl HAYAwave2a.png
f 1/6/1 2/7/1 3/8/1
f 1/6/1 4/9/1 2/7/1
f 5/10/1 4/9/1 1/6/1
f 5/10/1 6/11/1 4/9/1
f 7/12/2 6/11/1 5/10/1
f 7/12/2 8/13/1 6/11/1
f 9/14/1 8/13/1 7/12/2
f 9/14/1 10/15/2 8/13/1
f 11/16/1 10/15/2 9/14/1
f 12/17/1 13/18/1 14/19/1
f 12/17/1 15/20/1 13/18/1
f 16/21/1 15/20/1 12/17/1
f 17/22/1 18/23/1 19/24/1
f 17/22/1 20/25/1 18/23/1
f 21/26/1 20/25/1 17/22/1
f 22/27/1 21/26/1 17/22/1
f 22/27/1 23/28/1 21/26/1
f 24/29/1 23/28/1 22/27/1
f 25/30/1 26/31/1 27/32/2
f 25/30/1 28/33/1 26/31/1
f 29/34/1 28/33/1 25/30/1
f 25/30/1 30/35/1 29/34/1
f 25/30/1 31/36/1 30/35/1
f 27/32/2 31/36/1 25/30/1
f 32/37/1 33/38/2 34/39/1
f 32/37/1 35/40/1 33/38/2
f 36/41/1 35/40/1 32/37/1
f 32/37/1 37/42/1 36/41/1
f 32/37/1 38/43/1 37/42/1
f 39/44/1 38/43/1 32/37/1
f 40/45/1 41/46/1 42/47/1
f 40/45/1 43/48/1 41/46/1
f 44/49/1 43/48/1 40/45/1
f 45/50/1 46/51/1 47/52/1
f 45/50/1 48/53/1 46/51/1
f 49/54/1 48/53/1 45/50/1
f 45/50/1 50/55/1 49/54/1
f 45/50/1 51/56/1 50/55/1
f 52/57/1 51/56/1 45/50/1
f 53/58/1 54/59/1 55/60/1
f 53/58/1 9/14/1 54/59/1
f 11/16/1 9/14/1 53/58/1
f 56/61/2 11/16/1 53/58/1
f 56/61/2 57/62/1 11/16/1
f 58/63/1 57/62/1 56/61/2
f 59/64/1 58/63/1 56/61/2
f 59/64/1 60/65/1 58/63/1
f 61/66/1 60/65/1 59/64/1
f 12/17/1 62/67/1 16/21/1
f 12/17/1 63/68/2 62/67/1
f 64/69/1 32/37/1 34/39/1
f 64/69/1 39/44/1 32/37/1
f 65/70/2 17/22/1 19/24/1
f 65/70/2 66/71/1 17/22/1
f 67/72/1 55/60/1 54/59/1
f 67/72/1 61/66/1 55/60/1
f 68/73/1 17/22/1 66/71/1
f 68/73/1 22/27/1 17/22/1
f 69/74/1 40/45/1 42/47/1
f 69/74/1 44/49/1 40/45/1
f 47/52/1 52/57/1 45/50/1
f 59/64/1 55/60/1 61/66/1
