mtllib NokiBayTransparent.mtl
v 130.7551 1341.4954 866.6007 0.59 1 1
v 113.564095 1341.4954 790.3907 0.59 1 1
v 104.4631 1341.4954 829.4037 0.59 1 1
v 163.27109 1341.4954 773.95667 0.59 1 1
v 196.33109 1341.4954 879.0267 0.59 1 1
v 212.2601 1341.4954 795.38464 0.59 1 1
v 234.2381 1341.4954 877.4847 0.59 1 1
v 249.12408 1341.4954 840.9517 0.59 1 1
v 299.3371 1341.4954 911.64764 0.59 1 1
v 306.38907 1341.4954 852.99963 0.59 1 1
v 344.5471 1341.4954 850.15173 0.59 1 1
v 497.2021 221.26308 -491.40854 0.15 0.33 0.35
v 498.45404 221.26309 -557.50354 0.15 0.33 0.35
v 470.84406 221.26309 -550.4356 0.15 0.33 0.35
v 553.78107 221.26309 -533.98254 0.15 0.33 0.35
v 559.46906 221.26308 -504.07156 0.15 0.33 0.35
v -289.54587 940.49927 873.7666 0 0.63 0.63
v -254.01389 940.49927 855.71954 0 0.53 0.53
v -283.54788 940.49927 832.95056 0 0.63 0.63
v -248.66687 940.49927 875.6946 0 0.63 0.63
v -278.23788 940.49927 909.4235 0 0.63 0.63
v -315.39188 940.49927 919.30054 0 0.42 0.25
v -290.8459 940.49927 929.35956 0.15 0.34 0.34
v -303.06686 940.49927 935.6975 0 0.1 0.1
v 385.93405 228.9114 -565.7205 0.15 0.33 0.35
v 362.05505 228.91139 -527.84656 0.15 0.33 0.35
v 397.78812 228.9114 -552.9366 0.15 0.33 0.35
v 360.26907 228.9114 -554.0586 0.15 0.33 0.35
v 384.8311 228.9114 -586.43256 0.15 0.33 0.35
v 423.11505 228.9114 -578.2176 0.15 0.33 0.35
v 427.2451 228.9114 -555.1265 0.15 0.33 0.35
v 424.6371 240.21877 -486.22354 0.15 0.33 0.35
v 380.81708 240.21877 -476.75858 0.15 0.33 0.35
v 400.17105 240.21877 -440.83054 0.15 0.33 0.35
v 379.15207 240.21878 -511.86856 0.15 0.33 0.35
v 406.73907 240.2188 -534.80554 0.15 0.33 0.35
v 454.0251 240.2188 -529.91754 0.15 0.33 0.35
v 477.04608 240.21877 -488.56754 0.15 0.33 0.35
v 460.69806 240.21877 -453.38156 0.15 0.33 0.35
v -599.93787 242.57773 284.0914 0 0.53 0.53
v -623.97284 242.57773 274.4914 0 0.53 0.53
v -648.1999 242.57773 302.4944 0 0.53 0.53
v -590.4299 242.57773 267.8884 0 0.53 0.53
v -569.6219 242.57773 276.9214 0 0.53 0.53
v -685.35785 230.34512 298.4304 0.06 1 1
v -690.5308 230.34511 330.4524 0 0.53 0.53
v -666.2209 230.34512 301.4314 0.15 0.33 0.35
v -709.4538 230.3451 347.33337 0 0.53 0.53
v -727.4058 230.34511 332.39737 0 0.53 0.53
v -710.78186 230.34512 274.43237 0 0.53 0.53
v -654.55084 230.34514 246.77635 0 0.53 0.53
v -635.18884 230.34514 258.9604 0 0.53 0.53
v 325.95908 1341.4954 908.6497 0 0.84 0.84
v 325.54306 1341.4954 952.85175 0.59 1 1
v 374.91608 1341.4954 971.9207 0 0.84 0.84
v 389.23004 1341.4954 859.6927 0 0.84 0.84
v 385.20505 1341.4954 822.8627 0.59 1 1
v 426.34607 1341.4954 827.9707 0.59 1 1
v 438.18707 1341.4954 922.9637 0 0.84 0.84
v 472.27307 1341.4954 899.2417 0.59 1 1
v 444.00702 1341.4954 953.6047 0.59 1 1
v 553.8171 221.26308 -475.44156 0.15 0.33 0.35
v 514.99506 221.26308 -459.07056 0.15 0.33 0.35
v 426.23404 240.21877 -453.38156 0.15 0.33 0.35
v -308.26587 940.49927 843.54456 0 0.63 0.63
v -321.99588 940.49927 857.27454 0 0.63 0.63
v 378.23407 1341.4954 990.80664 0.59 1 1
v -318.13687 940.49927 897.6946 0 0.63 0.63
v -570.2709 242.57773 296.83142 0 0.53 0.53
v 504.903 1341.7953 698.5027 0.11 0.11 0.25
v 554.903 1341.7953 648.5027 0 0.38 0.63
v 454.903 1341.7953 648.5027 0 0.38 0.63
v 554.903 1341.7953 748.5027 0 0.38 0.63
v 454.903 1341.7953 748.5027 0 0.38 0.63
v 179.9031 1341.7953 993.5026 0.11 0.11 0.25
v 229.90308 1341.7953 943.5026 0 0.38 0.63
v 129.9031 1341.7953 943.5026 0 0.38 0.63
v 229.90308 1341.7953 1043.5018 0 0.38 0.63
v 129.9031 1341.7953 1043.5018 0 0.38 0.63
v 632.89703 1495.5958 -1052.3981 0.11 0.11 0.25
v 682.89703 1495.596 -1102.3981 0 0.38 0.63
v 582.89703 1495.596 -1102.3981 0 0.38 0.63
v 682.89703 1495.5958 -1002.39813 0 0.38 0.63
v 582.89703 1495.5958 -1002.39813 0 0.38 0.63
vt -0.1256 3.0806
vt -0.0719 2.8425
vt -0.0435 2.9644
vt -0.2272 2.7911
vt -0.3305 3.1195
vt -0.3803 2.8581
vt -0.449 3.1147
vt -0.4955 3.0005
vt -0.6524 3.2214
vt -0.6745 3.0381
vt -0.7937 3.0292
vt -1.2708 -1.1631
vt -1.2747 -1.3697
vt -1.1884 -1.3476
vt -1.4476 -1.2962
vt -1.4653 -1.2027001
vt 1.1878 3.103
vt 1.0768 3.0466
vt 1.1691 2.9755
vt 1.0601 3.1091
vt 1.1525 3.2145
vt 1.2686 3.2453
vt 1.1919 3.2768
vt 1.2301 3.2966
vt -0.923 -1.3952999
vt -0.8484 -1.277
vt -0.9601 -1.3554001
vt -0.8428 -1.3589001
vt -0.9196 -1.4601002
vt -1.0392 -1.4344001
vt -1.0522 -1.3622
vt -1.044 -1.1469002
vt -0.9071 -1.1173
vt -0.9675 -1.0051
vt -0.9019 -1.2270999
vt -0.9881 -1.2986999
vt -1.1358 -1.2835
vt -1.2078 -1.1543
vt -1.1567 -1.0443001
vt 2.1578 1.2603
vt 2.2329 1.2303
vt 2.3086 1.3178
vt 2.1281 1.2097
vt 2.0631 1.2379
vt 2.4247 1.3051
vt 2.4409 1.4052
vt 2.3649 1.3145
vt 2.5 1.4579
vt 2.5561 1.4113
vt 2.5042 1.2301
vt 2.3285 1.1437
vt 2.268 1.1818
vt -0.7356 3.2121
vt -0.7343 3.3502
vt -0.8886 3.4098
vt -0.9334 3.0591
vt -0.9208 2.944
vt -1.0493 2.9599
vt -1.0863 3.2568
vt -1.1929 3.1827
vt -1.1045 3.3525
vt -1.4477 -1.1132
vt -1.3264 -1.0620999
vt -1.049 -1.0443001
vt 1.2463 3.0086
vt 1.2892 3.0515
vt -0.899 3.4688
vt 1.2772 3.1778
vt 2.0651 1.3001
vt 0.5 0.5
vt 0 0
vt 1 0
vt 0 1
vt 1 1
vn 0 1 0
usemtl plam_ougi.png
f 70/70/1 71/71/1 72/72/1
f 70/70/1 73/73/1 71/71/1
f 74/74/1 73/73/1 70/70/1
f 75/70/1 76/71/1 77/72/1
f 75/70/1 78/73/1 76/71/1
f 79/74/1 78/73/1 75/70/1
f 80/70/1 81/71/1 82/72/1
f 80/70/1 83/73/1 81/71/1
f 84/74/1 83/73/1 80/70/1
f 77/72/1 79/74/1 75/70/1
f 72/72/1 74/74/1 70/70/1
f 82/72/1 84/74/1 80/70/1
usemtl HAYAwave2a.png
f 1/1/1 2/2/1 3/3/1
f 1/1/1 4/4/1 2/2/1
f 5/5/1 4/4/1 1/1/1
f 5/5/1 6/6/1 4/4/1
f 7/7/1 6/6/1 5/5/1
f 7/7/1 8/8/1 6/6/1
f 9/9/1 8/8/1 7/7/1
f 9/9/1 10/10/1 8/8/1
f 11/11/1 10/10/1 9/9/1
f 12/12/1 13/13/1 14/14/1
f 12/12/1 15/15/1 13/13/1
f 16/16/1 15/15/1 12/12/1
f 17/17/1 18/18/1 19/19/1
f 17/17/1 20/20/1 18/18/1
f 21/21/1 20/20/1 17/17/1
f 22/22/1 21/21/1 17/17/1
f 22/22/1 23/23/1 21/21/1
f 24/24/1 23/23/1 22/22/1
f 25/25/1 26/26/1 27/27/1
f 25/25/1 28/28/1 26/26/1
f 29/29/1 28/28/1 25/25/1
f 25/25/1 30/30/1 29/29/1
f 25/25/1 31/31/1 30/30/1
f 27/27/1 31/31/1 25/25/1
f 32/32/1 33/33/1 34/34/1
f 32/32/1 35/35/1 33/33/1
f 36/36/1 35/35/1 32/32/1
f 32/32/1 37/37/1 36/36/1
f 32/32/1 38/38/1 37/37/1
f 39/39/1 38/38/1 32/32/1
f 40/40/1 41/41/1 42/42/1
f 40/40/1 43/43/1 41/41/1
f 44/44/1 43/43/1 40/40/1
f 45/45/1 46/46/1 47/47/1
f 45/45/1 48/48/1 46/46/1
f 49/49/1 48/48/1 45/45/1
f 45/45/1 50/50/1 49/49/1
f 45/45/1 51/51/1 50/50/1
f 52/52/1 51/51/1 45/45/1
f 53/53/1 54/54/1 55/55/1
f 53/53/1 9/9/1 54/54/1
f 11/11/1 9/9/1 53/53/1
f 56/56/1 11/11/1 53/53/1
f 56/56/1 57/57/1 11/11/1
f 58/58/1 57/57/1 56/56/1
f 59/59/1 58/58/1 56/56/1
f 59/59/1 60/60/1 58/58/1
f 61/61/1 60/60/1 59/59/1
f 12/12/1 62/62/1 16/16/1
f 12/12/1 63/63/1 62/62/1
f 64/64/1 32/32/1 34/34/1
f 64/64/1 39/39/1 32/32/1
f 65/65/1 17/17/1 19/19/1
f 65/65/1 66/66/1 17/17/1
f 67/67/1 55/55/1 54/54/1
f 67/67/1 61/61/1 55/55/1
f 68/68/1 17/17/1 66/66/1
f 68/68/1 22/22/1 17/17/1
f 69/69/1 40/40/1 42/42/1
f 69/69/1 44/44/1 40/40/1
f 47/47/1 52/52/1 45/45/1
f 59/59/1 55/55/1 61/61/1
