mtllib Laser.mtl
v 0.58828 0.496108 -0.494875
v 0.78223 0.701401 0.000109
v 0.584746 0.496017 0.495035
v 0.588176 0.001153 -0.699939
v 0.783548 0.001475 -0.699936
v 0.393204 0.495793 -0.494878
v 0.194299 0.495382 0.495017
v 0.38967 0.495703 0.495022
v 0.388104 0.000704 0.699988
v 0.389422 -0.699223 -0.000048
v 0.391635 0.700762 0.000096
v 0.587007 0.701083 0.000101
v 0.583327 0.001021 0.699996
v 0.387853 -0.494252 0.494918
v 0.583225 -0.493933 0.494933
v 0.584646 -0.698905 -0.000049
v 0.391387 -0.494152 -0.494983
v 0.586758 -0.493831 -0.494978
v 0.392953 0.000847 -0.699948
v 0.196559 0.700448 0.000085
v 0.196311 -0.494468 -0.494986
v 0.197878 0.000521 -0.69995
v 0.997495 0.254216 -0.252357
v 0.990969 0.422511 -0.420621
v 0.997444 0.001792 -0.356944
v 0.990881 0.001802 -0.594937
v 0.996644 -0.250655 -0.252415
v 0.989551 -0.418937 -0.420714
v 0.995566 -0.355237 0.000004
v 0.987754 -0.593246 -0.000022
v 0.994841 -0.250702 0.252439
v 0.986547 -0.419025 0.420701
v 0.994895 0.001721 0.357027
v 0.986633 0.001692 0.595016
v 0.995694 0.254168 0.252488
v 0.987965 0.422432 0.420793
v 0.996771 0.358758 0.000077
v 0.98976 0.59674 0.000101
v 0.978874 0.496746 -0.494862
v 0.978772 0.001794 -0.699925
v 0.977207 -0.493195 -0.49496
v 0.975093 -0.698269 -0.000031
v 0.973672 -0.493297 0.49494
v 0.973775 0.001658 0.700005
v 0.975342 0.496646 0.495039
v 0.977453 0.701719 0.000108
v 0.783503 0.496427 -0.494865
v 0.781834 -0.493516 -0.494965
v 0.779722 -0.69859 -0.000035
v 0.7783 -0.493616 0.494936
v 0.778403 0.001338 0.7
v 0.779969 0.496337 0.495035
v 0.992892 0.329246 -0.790364
v 0.99424 0.001825 -0.855522
v 0.9752 0.001815 -1.066997
v 0.993455 -0.325596 -0.790428
v 0.974829 -0.406539 -0.985807
v 0.97574 -0.75274 -0.75454
v 0.931712 -1.08488 -1.09287
v 0.971793 -0.984091 -0.408389
v 0.999577 0.162882 -0.388837
v 0.999419 0.0018 -0.420893
v 0.999999 0.001761 0.000042
v 0.999034 -0.159297 -0.388863
v 0.998478 -0.295869 -0.297636
v 0.989352 -0.78869 -0.327451
v 0.989743 -0.853843 -0.00004
v 0.972952 -1.065354 -0.000063
v 0.988683 -0.788743 0.32737
v 0.967879 -0.984166 0.408275
v 0.971619 -0.752878 0.75447
v 0.926236 -1.078847 1.08652
v 0.96779 -0.406719 0.98581
v 0.999482 0.299448 -0.297574
v 0.996686 -0.387161 0.161083
v 0.997207 -0.419185 0.000001
v 0.997836 -0.387133 -0.161081
v 0.925864 -1.352957 -0.003987
v 0.992325 -0.603194 -0.604992
v 0.993686 0.792243 -0.327291
v 0.994365 0.606803 -0.604869
v 0.978717 0.756331 -0.754395
v 0.964141 0.410139 -0.98573
v 0.941285 0.074769 -1.339044
v 0.999147 0.390684 -0.16101
v 0.998626 0.422707 0.00008
v 0.997997 0.390656 0.161163
v 0.966197 0.98759 -0.408197
v 0.934504 1.533978 0.004587
v 0.977386 1.068796 0.000138
v 0.973469 0.987528 0.408475
v 0.991349 0.792189 0.327526
v 0.97122 0.75619 0.754616
v 0.989004 0.606688 0.605065
v 0.988915 0.329096 0.790504
v 0.991376 0.857344 0.000123
v 0.920219 1.156915 -1.019332
v 0.996415 0.001722 0.420974
v 0.996256 -0.15937 0.388919
v 0.996351 -0.295926 0.297657
v 0.987812 -0.325746 0.790441
v 0.987088 0.001668 0.855594
v 0.996799 0.162818 0.388946
v 0.997357 0.299392 0.297716
v 0.986755 -0.6033 0.604953
v 0.925588 0.962159 0.966187
v 0.968333 0.409981 0.985889
v 0.969676 0.001629 1.067071
v 0.917732 0.005857 1.525837
v 0.197832 0.495474 -0.494882
v 0.192629 -0.494559 0.494919
v 0.194051 -0.699542 -0.000062
v 0.01052 0.495155 -0.494892
v 0.009099 0.700138 0.00008
v 0.006986 0.495065 0.495009
v 0.005419 0.000068 0.699975
v 0.19288 0.000387 0.699979
v 0.005317 -0.494877 0.494911
v 0.006738 -0.699861 -0.000061
v 0.008851 -0.494787 -0.494989
v 0.010417 0.000212 -0.699955
v 0.589542 0.708263 -0.706969
v 0.394171 0.707943 -0.706973
v 0.587159 -0.705943 -0.707115
v 0.58211 -0.706086 0.707031
v 0.386738 -0.706397 0.707016
v 0.584494 0.70813 0.707178
v 0.389122 0.70781 0.707174
v 0.587513 1.001087 0.000135
v 0.392141 1.000768 0.000122
v 0.199096 0.707628 -0.706986
v 0.003724 0.707309 -0.70699
v 0.003577 0.000232 -0.99994
v 0.001339 -0.706897 -0.707136
v -0.001679 -0.999854 -0.000095
v -0.003709 -0.707031 0.70701
v -0.003563 0.000035 0.99996
v 0.194047 0.707496 0.707161
v -0.001325 0.707175 0.707157
v 0.197065 1.000452 0.000117
v 0.001693 1.000133 0.000114
v 0.589248 0.001186 -0.999924
v 0.779364 -0.998582 -0.000075
v 0.583992 -0.998903 -0.000079
v 0.77748 0.001309 0.99999
v 0.582108 0.000989 0.999976
v 0.782736 1.001406 0.000135
v 0.394172 0.00087 -0.999928
v 0.1988 0.00055 -0.999931
v 0.391935 -0.706259 -0.707124
v 0.196563 -0.70658 -0.707128
v 0.388917 -0.999217 -0.000082
v 0.193545 -0.999538 -0.000087
v 0.191515 -0.706714 0.707019
v 0.387033 0.000673 0.999972
v 0.191661 0.000353 0.999969
v 0.777186 -0.705759 0.707035
v 0.972704 0.001626 0.999989
v 0.972557 -0.70545 0.707038
v 0.985724 0.001658 0.850002
v 0.985598 -0.599345 0.600986
v 0.994349 0.001711 0.510011
v 0.994274 -0.358896 0.360606
v 0.995309 -0.508241 -0.000016
v 0.996848 -0.358825 -0.360602
v 0.989891 -0.599229 -0.601033
v 0.991792 0.001825 -0.849923
v 0.979843 0.001824 -0.999912
v 0.784618 0.708578 -0.706966
v 0.97999 0.708899 -0.706961
v 0.977959 1.001724 0.000144
v 0.991916 0.602839 -0.600906
v 0.990191 0.851738 0.000131
v 0.998065 0.362417 -0.360534
v 0.997029 0.511752 0.000088
v 0.77957 0.708446 0.70718
v 0.974941 0.708766 0.707185
v 0.987625 0.602723 0.601112
v 0.995491 0.362349 0.360686
v 0.784472 0.001504 -0.999916
v 0.99799 0.001809 -0.509939
v 0.974588 -0.998262 -0.000064
v 0.987324 -0.848245 -0.000053
v 0.977606 -0.705306 -0.707108
v 0.782234 -0.705626 -0.707112
vt 1 -9.8164
vt 0.875 -9.8164
vt 1 -11.8125
vt 0.875 -11.8125
vt 0.75 -9.8164
vt 0.75 -11.8125
vt 0.625 -9.8164
vt 0.625 -11.8125
vt 0.5 -9.8164
vt 0.5 -11.8125
vt 0.375 -9.8164
vt 0.375 -11.8125
vt 0.25 -9.8164
vt 0.25 -11.8125
vt 0.125 -9.8164
vt 0.125 -11.8125
vt 0 -9.8164
vt 0 -11.8125
vt 0 -11.7773
vt 0.125 -11.7773
vt 0 -11.7109
vt 0.125 -11.7109
vt 0.25 -11.7773
vt 0.25 -11.7109
vt 0.375 -11.7773
vt 0.375 -11.7109
vt 0.5 -11.7773
vt 0.5 -11.7109
vt 0.625 -11.7773
vt 0.625 -11.7109
vt 0.75 -11.7773
vt 0.75 -11.7109
vt 0.875 -11.7773
vt 0.875 -11.7109
vt 1 -11.7773
vt 1 -11.7109
vt 0 -11.5977
vt 0.125 -11.5977
vt 0.25 -11.5977
vt 0.375 -11.5977
vt 0.5 -11.5977
vt 0.625 -11.5977
vt 0.75 -11.5977
vt 0.875 -11.5977
vt 1 -11.5977
vt 1.375 -11.8125
vt 0.292955 0.999859
vt 0.000113 0.707033
vt 0.292929 0.0001
vt 0.0001 0.29292
vt 0.707048 0.0001
vt 0.999889 0.292926
vt 0.707072 0.999859
vt 0.9999 0.707039
vt 0.6914 0.870057
vt 0.75 0.870057
vt 0.8281 0.577157
vt 0.7734 0.870057
vt 0.8555 0.577157
vt 1 0.022457
vt 0.75 0.577157
vt 0.6016 1.096657
vt 0.4961 1.221657
vt 0.6328 1.096657
vt 0.6445 1.096657
vt 0.6016 0.870057
vt 0.6328 0.577157
vt 0.4961 0.870057
vt 0.4961 0.577157
vt 0.3594 0.577157
vt 0.2891 0.022457
vt 0.2461 0.577157
vt 0.5547 1.096657
vt 0.4961 1.096657
vt 0.6797 0.206057
vt 0.9219 0.284157
vt 0.4414 1.096657
vt 0.3945 1.096657
vt 0.3047 0.870057
vt 0.168 0.577157
vt 0.2461 0.870057
vt 0.2227 0.870057
vt 0.3945 0.870057
vt 0.6719 -0.110343
vt 0.3594 1.096657
vt 0.3477 1.096657
vt 0.0547 0.206057
vt 0.1406 0.577157
vt 0 -0.196343
vt 0.0001 0.707039
vt 0.0001 0.292921
vt 0.292934 0.0001
vt 0.70706 0.000109
vt 0.292934 0.99987
vt 0.9999 0.292943
vt 0.707066 0.999882
vt 0.9999 0.707062
vn -0.001099 0.707144 -0.707022
vn -0.001617 0.999969 0.000061
vn -0.001129 0.707144 -0.707022
vn -0.001617 0.999969 0.000092
vn -0.00116 0.707022 0.707175
vn -0.001129 0.707022 0.707175
vn -0.000031 -0.000092 0.999969
vn 0 -0.000092 1
vn 0.001099 -0.707144 0.707022
vn 0.001129 -0.707144 0.707022
vn 0.001617 -0.999969 -0.000092
vn 0.001617 -0.999969 -0.000061
vn 0.00116 -0.706992 -0.707175
vn 0.00116 -0.707022 -0.707175
vn 0 0.000061 -0.999969
vn 0.000031 0.000092 -1
vn -0.00119 0.707022 0.707175
vn -0.000031 -0.000092 1
vn 0.001129 -0.707144 0.707053
vn 0.001648 -0.999969 -0.000092
vn 0 0.000092 -1
vn 0 0.000092 -0.999969
vn 0.999786 0.014893 -0.013001
vn 0.999786 -0.001679 -0.019898
vn 0.996643 0.058779 -0.056887
vn 0.996612 -0.001648 -0.081942
vn 0.999725 -0.018281 -0.013031
vn 0.996429 -0.062105 -0.056887
vn 0.999664 -0.025147 0.00354
vn 0.996185 -0.0871 0.00351
vn 0.999603 -0.018281 0.020142
vn 0.996002 -0.062075 0.063936
vn 0.999603 -0.001679 0.027039
vn 0.996002 -0.001648 0.088992
vn 0.999664 0.014893 0.020142
vn 0.996216 0.058748 0.063967
vn 0.999756 0.02179 0.00354
vn 0.99646 0.083804 0.00354
vn 0.594043 0.569384 -0.568194
vn 0.59447 -0.000305 -0.804102
vn 0.593982 -0.56972 -0.567949
vn 0.592944 -0.805231 0.001404
vn 0.591906 -0.569414 0.570391
vn 0.59151 -0.000458 0.806269
vn 0.591998 0.568865 0.570879
vn 0.593036 0.805139 0.001556
vn 0.999969 -0.001679 0.00354
vn -0.6292 0.549028 -0.550096
vn -0.630177 0.776421 -0.001495
vn -0.631245 0.549333 0.547441
vn -0.631703 0.000336 0.775201
vn -0.631306 -0.548997 0.547746
vn -0.630268 -0.77633 -0.001648
vn -0.629261 -0.548479 -0.550615
vn -0.628803 0.000488 -0.77752
vn 0.997253 0.026185 -0.069247
vn 0.998444 0.000855 -0.055666
vn 0.993835 0.005951 -0.11063
vn 0.998505 -0.021943 -0.049715
vn 0.995605 -0.035646 -0.08655
vn 0.996185 -0.064608 -0.058412
vn 0.995697 -0.067934 -0.062868
vn 0.995361 -0.090487 -0.032533
vn 0.999939 0.00238 -0.008148
vn 0.999939 -0.000946 -0.007935
vn 0.999939 -0.005829 -0.00647
vn 0.999939 -0.009369 -0.004089
vn 0.998505 -0.051759 -0.017212
vn 0.998627 -0.052034 0.001007
vn 0.991882 -0.126896 0.004089
vn 0.998199 -0.053926 0.025636
vn 0.994171 -0.099368 0.041444
vn 0.996002 -0.062899 0.063295
vn 0.99527 -0.068453 0.068789
vn 0.995086 -0.035218 0.092349
vn 0.999969 0.005982 -0.004089
vn 0.999878 -0.011719 0.007721
vn 0.999908 -0.013184 0.002838
vn 0.999908 -0.013398 -0.000488
vn 0.986816 -0.161626 0.004395
vn 0.998688 -0.039949 -0.031434
vn 0.99765 0.064425 -0.023194
vn 0.998871 0.032502 -0.033906
vn 0.993866 0.072939 -0.08298
vn 0.990844 0.048494 -0.125919
vn 0.992737 0.018677 -0.118717
vn 0.999939 0.009003 -0.000275
vn 0.999939 0.010315 0.003021
vn 0.999908 0.008545 0.008271
vn 0.992309 0.114536 -0.046327
vn 0.995727 0.091861 -0.008667
vn 0.996246 0.085971 -0.006165
vn 0.995392 0.084933 0.044069
vn 0.998596 0.046449 0.025269
vn 0.992309 0.083499 0.091281
vn 0.998444 0.036592 0.041688
vn 0.998169 0.020661 0.056612
vn 0.998993 0.044191 0.003388
vn 0.992431 0.089053 -0.084445
vn 0.999878 -0.001221 0.015381
vn 0.999878 -0.006531 0.013825
vn 0.999847 -0.009796 0.012421
vn 0.99826 -0.021821 0.054506
vn 0.998444 -0.001526 0.055361
vn 0.999878 0.002197 0.01413
vn 0.999878 0.006989 0.011597
vn 0.998749 -0.033998 0.036103
vn 0.98825 0.103336 0.112522
vn 0.99414 0.039888 0.100284
vn 0.994873 -0.000977 0.101108
vn 0.993622 -0.000519 0.112491
vn -0.00116 0.706992 0.707175
vn -0.62917 0.549058 -0.550096
vn -0.628803 0.000488 -0.777551
vn -0.629261 -0.548448 -0.550615
vn -0.630299 -0.776299 -0.001648
vn -0.631306 -0.548967 0.547746
vn -0.631214 0.549364 0.547472
vn 0.602802 -0.000488 0.797876
vn 0.603168 -0.563463 0.56447
vn 0.997955 -0.001679 0.06354
vn 0.997955 -0.044099 0.045961
vn 0.999786 -0.001679 0.01999
vn 0.999786 -0.013306 0.015168
vn 0.999817 -0.018097 0.00354
vn 0.999878 -0.013276 -0.008026
vn 0.99826 -0.044099 -0.038881
vn 0.998383 -0.001648 -0.056459
vn 0.605731 -0.000336 -0.795648
vn 0.605335 0.563402 -0.562212
vn 0.604297 0.796716 0.001587
vn 0.998383 0.040742 -0.038881
vn 0.99826 0.058321 0.00354
vn 0.999908 0.009919 -0.008026
vn 0.999878 0.01474 0.003571
vn 0.603259 0.562883 0.564959
vn 0.998108 0.040742 0.045991
vn 0.999817 0.009919 0.015168
vn 0.999908 -0.001679 -0.012848
vn 0.604205 -0.796808 0.001434
vn 0.998077 -0.061678 0.00354
vn 0.605243 -0.563768 -0.561937
usemtl Tex_0038_0_png
f 1/1/1 12/2/2 47/3/3
f 47/3/3 12/2/2 2/4/4
f 12/2/2 3/5/5 2/4/4
f 2/4/4 3/5/5 52/6/6
f 3/5/5 13/7/7 52/6/6
f 52/6/6 13/7/7 51/8/8
f 13/7/7 15/9/9 51/8/8
f 51/8/8 15/9/9 50/10/10
f 15/9/9 16/11/11 50/10/10
f 50/10/10 16/11/11 49/12/12
f 16/11/11 18/13/13 49/12/12
f 49/12/12 18/13/13 48/14/14
f 18/13/13 4/15/15 48/14/14
f 48/14/14 4/15/15 5/16/16
f 4/15/15 1/17/1 5/16/16
f 5/16/16 1/17/1 47/18/3
f 110/1/3 20/2/2 6/3/3
f 6/3/3 20/2/2 11/4/4
f 20/2/2 7/5/17 11/4/4
f 11/4/4 7/5/17 8/6/5
f 7/5/17 117/7/18 8/6/5
f 8/6/5 117/7/18 9/8/18
f 117/7/18 111/9/19 9/8/18
f 9/8/18 111/9/19 14/10/9
f 111/9/19 112/11/20 14/10/9
f 14/10/9 112/11/20 10/12/12
f 112/11/20 21/13/13 10/12/12
f 10/12/12 21/13/13 17/14/14
f 21/13/13 22/15/21 17/14/14
f 17/14/14 22/15/21 19/16/22
f 22/15/21 110/17/3 19/16/22
f 19/16/22 110/17/3 6/18/3
f 6/1/3 11/2/4 1/3/1
f 1/3/1 11/2/4 12/4/2
f 11/2/4 8/5/5 12/4/2
f 12/4/2 8/5/5 3/6/5
f 8/5/5 9/7/18 3/6/5
f 3/6/5 9/7/18 13/8/7
f 9/7/18 14/9/9 13/8/7
f 13/8/7 14/9/9 15/10/9
f 14/9/9 10/11/12 15/10/9
f 15/10/9 10/11/12 16/12/11
f 10/11/12 17/13/14 16/12/11
f 16/12/11 17/13/14 18/14/13
f 17/13/14 19/15/22 18/14/13
f 18/14/13 19/15/22 4/16/15
f 19/15/22 6/17/3 4/16/15
f 4/16/15 6/17/3 1/18/1
f 23/19/23 25/20/24 24/21/25
f 24/21/25 25/20/24 26/22/26
f 25/20/24 27/23/27 26/22/26
f 26/22/26 27/23/27 28/24/28
f 27/23/27 29/25/29 28/24/28
f 28/24/28 29/25/29 30/26/30
f 29/25/29 31/27/31 30/26/30
f 30/26/30 31/27/31 32/28/32
f 31/27/31 33/29/33 32/28/32
f 32/28/32 33/29/33 34/30/34
f 33/29/33 35/31/35 34/30/34
f 34/30/34 35/31/35 36/32/36
f 35/31/35 37/33/37 36/32/36
f 36/32/36 37/33/37 38/34/38
f 37/33/37 23/35/23 38/34/38
f 38/34/38 23/35/23 24/36/25
f 24/21/25 26/22/26 39/37/39
f 39/37/39 26/22/26 40/38/40
f 26/22/26 28/24/28 40/38/40
f 40/38/40 28/24/28 41/39/41
f 28/24/28 30/26/30 41/39/41
f 41/39/41 30/26/30 42/40/42
f 30/26/30 32/28/32 42/40/42
f 42/40/42 32/28/32 43/41/43
f 32/28/32 34/30/34 43/41/43
f 43/41/43 34/30/34 44/42/44
f 34/30/34 36/32/36 44/42/44
f 44/42/44 36/32/36 45/43/45
f 36/32/36 38/34/38 45/43/45
f 45/43/45 38/34/38 46/44/46
f 38/34/38 24/36/25 46/44/46
f 46/44/46 24/36/25 39/45/39
f 39/37/39 40/38/40 47/17/3
f 47/17/3 40/38/40 5/15/16
f 40/38/40 41/39/41 5/15/16
f 5/15/16 41/39/41 48/13/14
f 41/39/41 42/40/42 48/13/14
f 48/13/14 42/40/42 49/11/12
f 42/40/42 43/41/43 49/11/12
f 49/11/12 43/41/43 50/9/10
f 43/41/43 44/42/44 50/9/10
f 50/9/10 44/42/44 51/7/8
f 44/42/44 45/43/45 51/7/8
f 51/7/8 45/43/45 52/5/6
f 45/43/45 46/44/46 52/5/6
f 52/5/6 46/44/46 2/2/4
f 46/44/46 39/45/39 2/2/4
f 2/2/4 39/45/39 47/1/3
f 63/12/47 25/20/24 23/19/23
f 31/27/31 63/12/47 33/29/33
f 33/29/33 63/12/47 35/31/35
f 63/12/47 37/33/37 35/31/35
f 31/27/31 29/25/29 63/12/47
f 29/25/29 27/23/27 63/12/47
f 63/12/47 27/23/27 25/20/24
f 23/35/23 37/33/37 63/46/47
f 113/1/48 114/2/49 110/3/3
f 110/3/3 114/2/49 20/4/2
f 114/2/49 115/5/50 20/4/2
f 20/4/2 115/5/50 7/6/17
f 115/5/50 116/7/51 7/6/17
f 7/6/17 116/7/51 117/8/18
f 116/7/51 118/9/52 117/8/18
f 117/8/18 118/9/52 111/10/19
f 118/9/52 119/11/53 111/10/19
f 111/10/19 119/11/53 112/12/20
f 119/11/53 120/13/54 112/12/20
f 112/12/20 120/13/54 21/14/13
f 120/13/54 121/15/55 21/14/13
f 21/14/13 121/15/55 22/16/21
f 121/15/55 113/17/48 22/16/21
f 22/16/21 113/17/48 110/18/3
f 121/47/55 120/48/54 118/49/52
f 119/50/53 118/49/52 120/48/54
f 118/49/52 116/51/51 121/47/55
f 116/51/51 115/52/50 113/53/48
f 115/52/50 114/54/49 113/53/48
f 113/53/48 121/47/55 116/51/51
usemtl Tex_0039_0_png
f 53/55/56 54/56/57 55/57/58
f 54/56/57 56/58/59 55/57/58
f 55/57/58 56/58/59 57/59/60
f 56/58/59 58/57/61 57/59/60
f 57/59/60 58/57/61 59/60/62
f 58/57/61 60/61/63 59/60/62
f 61/62/64 63/63/47 62/64/65
f 62/64/65 63/63/47 64/65/66
f 63/63/47 65/64/67 64/65/66
f 66/55/68 67/66/69 68/67/70
f 67/66/69 69/68/71 68/67/70
f 68/67/70 69/68/71 70/69/72
f 69/68/71 71/70/73 70/69/72
f 70/69/72 71/70/73 72/71/74
f 71/70/73 73/72/75 72/71/74
f 61/62/64 74/73/76 63/63/47
f 75/74/77 76/73/78 63/63/47
f 76/73/78 77/62/79 63/63/47
f 63/63/47 77/62/79 65/64/67
f 70/69/72 78/75/80 68/67/70
f 78/75/80 60/61/63 68/67/70
f 68/67/70 60/61/63 66/55/68
f 60/61/63 58/57/61 66/55/68
f 66/55/68 58/57/61 79/56/81
f 58/57/61 56/58/59 79/56/81
f 80/68/82 81/66/83 82/67/84
f 81/66/83 53/55/56 82/67/84
f 82/67/84 53/55/56 83/61/85
f 53/55/56 55/57/58 83/61/85
f 83/61/85 55/57/58 84/76/86
f 55/57/58 57/59/60 84/76/86
f 74/73/76 85/74/87 63/63/47
f 85/74/87 86/77/88 63/63/47
f 63/63/47 86/77/88 87/78/89
f 88/69/90 89/71/91 90/70/92
f 89/71/91 91/72/93 90/70/92
f 90/70/92 91/72/93 92/79/94
f 91/72/93 93/80/95 92/79/94
f 92/79/94 93/80/95 94/81/96
f 93/80/95 95/82/97 94/81/96
f 92/79/94 96/83/98 90/70/92
f 96/83/98 80/68/82 90/70/92
f 90/70/92 80/68/82 88/69/90
f 80/68/82 82/67/84 88/69/90
f 88/69/90 82/67/84 97/84/99
f 82/67/84 83/61/85 97/84/99
f 98/85/100 99/78/101 63/63/47
f 99/78/101 100/77/102 63/63/47
f 63/63/47 100/77/102 75/74/77
f 101/79/103 98/85/100 102/81/104
f 98/85/100 103/86/105 102/81/104
f 102/81/104 103/86/105 95/82/97
f 103/86/105 104/85/106 95/82/97
f 95/82/97 104/85/106 94/81/96
f 104/85/106 87/78/89 94/81/96
f 94/81/96 87/78/89 92/79/94
f 87/78/89 86/77/88 92/79/94
f 92/79/94 86/77/88 96/83/98
f 86/77/88 85/74/87 96/83/98
f 96/83/98 85/74/87 80/68/82
f 85/74/87 74/73/76 80/68/82
f 80/68/82 74/73/76 81/66/83
f 74/73/76 61/62/64 81/66/83
f 81/66/83 61/62/64 53/55/56
f 61/62/64 62/64/65 53/55/56
f 53/55/56 62/64/65 54/56/57
f 62/64/65 64/65/66 54/56/57
f 54/56/57 64/65/66 56/58/59
f 64/65/66 65/64/67 56/58/59
f 56/58/59 65/64/67 79/56/81
f 65/64/67 77/62/79 79/56/81
f 79/56/81 77/62/79 66/55/68
f 77/62/79 76/73/78 66/55/68
f 66/55/68 76/73/78 67/66/69
f 76/73/78 75/74/77 67/66/69
f 67/66/69 75/74/77 69/68/71
f 75/74/77 100/77/102 69/68/71
f 69/68/71 100/77/102 105/83/107
f 100/77/102 99/78/101 105/83/107
f 105/83/107 99/78/101 101/79/103
f 99/78/101 98/85/100 101/79/103
f 91/72/93 106/87/108 93/80/95
f 106/87/108 107/88/109 93/80/95
f 93/80/95 107/88/109 95/82/97
f 107/88/109 108/80/110 95/82/97
f 95/82/97 108/80/110 102/81/104
f 108/80/110 101/79/103 102/81/104
f 87/78/89 104/85/106 63/63/47
f 104/85/106 103/86/105 63/63/47
f 63/63/47 103/86/105 98/85/100
f 107/88/109 109/89/111 108/80/110
f 109/89/111 73/72/75 108/80/110
f 108/80/110 73/72/75 101/79/103
f 73/72/75 71/70/73 101/79/103
f 101/79/103 71/70/73 105/83/107
f 71/70/73 69/68/71 105/83/107
f 122/18/3 142/16/21 123/17/1
f 123/17/1 142/16/21 148/15/22
f 142/16/21 124/14/14 148/15/22
f 148/15/22 124/14/14 150/13/14
f 124/14/14 144/12/11 150/13/14
f 150/13/14 144/12/11 152/11/11
f 144/12/11 125/10/9 152/11/11
f 152/11/11 125/10/9 126/9/9
f 125/10/9 146/8/18 126/9/9
f 126/9/9 146/8/18 155/7/8
f 146/8/18 127/6/5 155/7/8
f 155/7/8 127/6/5 128/5/112
f 127/6/5 129/4/4 128/5/112
f 128/5/112 129/4/4 130/2/2
f 129/4/4 122/3/3 130/2/2
f 130/2/2 122/3/3 123/1/1
f 131/18/1 149/16/21 132/17/113
f 132/17/113 149/16/21 133/15/114
f 149/16/21 151/14/14 133/15/114
f 133/15/114 151/14/14 134/13/115
f 151/14/14 153/12/12 134/13/115
f 134/13/115 153/12/12 135/11/116
f 153/12/12 154/10/10 135/11/116
f 135/11/116 154/10/10 136/9/117
f 154/10/10 156/8/18 136/9/117
f 136/9/117 156/8/18 137/7/51
f 156/8/18 138/6/5 137/7/51
f 137/7/51 138/6/5 139/5/118
f 138/6/5 140/4/2 139/5/118
f 139/5/118 140/4/2 141/2/49
f 140/4/2 131/3/1 141/2/49
f 141/2/49 131/3/1 132/1/113
f 169/18/3 180/16/21 122/17/3
f 122/17/3 180/16/21 142/15/21
f 180/16/21 185/14/14 142/15/21
f 142/15/21 185/14/14 124/13/14
f 185/14/14 143/12/11 124/13/14
f 124/13/14 143/12/11 144/11/11
f 143/12/11 157/10/10 144/11/11
f 144/11/11 157/10/10 125/9/9
f 157/10/10 145/8/18 125/9/9
f 125/9/9 145/8/18 146/7/18
f 145/8/18 176/6/5 146/7/18
f 146/7/18 176/6/5 127/5/5
f 176/6/5 147/4/2 127/5/5
f 127/5/5 147/4/2 129/2/4
f 147/4/2 169/3/3 129/2/4
f 129/2/4 169/3/3 122/1/3
f 123/18/1 148/16/22 131/17/1
f 131/17/1 148/16/22 149/15/21
f 148/16/22 150/14/14 149/15/21
f 149/15/21 150/14/14 151/13/14
f 150/14/14 152/12/11 151/13/14
f 151/13/14 152/12/11 153/11/12
f 152/12/11 126/10/9 153/11/12
f 153/11/12 126/10/9 154/9/10
f 126/10/9 155/8/8 154/9/10
f 154/9/10 155/8/8 156/7/18
f 155/8/8 128/6/112 156/7/18
f 156/7/18 128/6/112 138/5/5
f 128/6/112 130/4/2 138/5/5
f 138/5/5 130/4/2 140/2/2
f 130/4/2 123/3/1 140/2/2
f 140/2/2 123/3/1 131/1/1
f 145/7/18 157/9/10 158/42/119
f 157/9/10 159/41/120 158/42/119
f 158/42/119 159/41/120 160/30/121
f 159/41/120 161/28/122 160/30/121
f 160/30/121 161/28/122 162/29/123
f 161/28/122 163/27/124 162/29/123
f 162/29/123 163/27/124 63/10/47
f 163/27/124 164/25/125 63/10/47
f 63/10/47 164/25/125 165/23/126
f 164/25/125 166/24/127 165/23/126
f 165/23/126 166/24/127 167/22/128
f 166/24/127 168/38/129 167/22/128
f 169/1/3 147/2/2 170/45/130
f 147/2/2 171/44/131 170/45/130
f 170/45/130 171/44/131 172/36/132
f 171/44/131 173/34/133 172/36/132
f 172/36/132 173/34/133 174/35/134
f 173/34/133 175/33/135 174/35/134
f 176/5/5 145/7/18 177/43/136
f 145/7/18 158/42/119 177/43/136
f 177/43/136 158/42/119 178/32/137
f 158/42/119 160/30/121 178/32/137
f 178/32/137 160/30/121 179/31/138
f 160/30/121 162/29/123 179/31/138
f 179/31/138 162/29/123 63/10/47
f 180/15/21 169/17/3 168/38/129
f 169/17/3 170/37/130 168/38/129
f 168/38/129 170/37/130 167/22/128
f 170/37/130 172/21/132 167/22/128
f 167/22/128 172/21/132 181/20/139
f 172/21/132 174/19/134 181/20/139
f 181/20/139 174/19/134 63/10/47
f 157/9/10 143/11/11 159/41/120
f 143/11/11 182/40/140 159/41/120
f 159/41/120 182/40/140 161/28/122
f 182/40/140 183/26/141 161/28/122
f 161/28/122 183/26/141 163/27/124
f 183/26/141 164/25/125 163/27/124
f 183/26/141 166/24/127 164/25/125
f 167/22/128 181/20/139 165/23/126
f 181/20/139 63/10/47 165/23/126
f 168/38/129 166/24/127 184/39/142
f 166/24/127 183/26/141 184/39/142
f 184/39/142 183/26/141 182/40/140
f 168/38/129 184/39/142 180/15/21
f 180/15/21 184/39/142 185/13/14
f 184/39/142 182/40/140 185/13/14
f 185/13/14 182/40/140 143/11/11
f 174/33/134 175/31/135 63/10/47
f 63/10/47 175/33/135 179/31/138
f 179/31/138 175/33/135 178/32/137
f 175/33/135 173/34/133 178/32/137
f 178/32/137 173/34/133 177/43/136
f 173/34/133 171/44/131 177/43/136
f 177/43/136 171/44/131 176/5/5
f 171/44/131 147/2/2 176/5/5
f 134/90/115 135/91/116 136/92/117
f 136/92/117 137/93/51 133/94/114
f 137/93/51 139/95/118 132/96/113
f 139/95/118 141/97/49 132/96/113
f 132/96/113 133/94/114 137/93/51
f 133/94/114 134/90/115 136/92/117
