mtllib stg220_MotCloud_19.mtl

v -1351.591309 -1323.159180 -8440.629883
v -1699.564941 -671.505615 -8900.916992
v -1599.667847 -727.492554 -8337.459961
v -1451.488403 -1267.172241 -9004.086914

vt 0.000000 0.000000
vt 0.500000 1.000000
vt 0.000000 1.000000
vt 0.500000 0.000000

vn 7924809334889683200000000000000000.000000 7840161470883427500000000000000000.000000 -1.0
vn 7924809334889683200000000000000000.000000 7840161470883427500000000000000000.000000 -1.0
vn 7924809334889683200000000000000000.000000 7840161470883427500000000000000000.000000 -1.0
vn 7900660838543343300000000000000000.000000 0.000000 0.000000

g polygon0
s 1
usemtl mat1
f 1/1/1 2/2/2 3/3/3
f 1/1/1 4/4/4 2/2/2

