mtllib stg200_obj_killer_brk_b.mtl

v 0.562910 -11.785837 1.454178
v -21.216003 -0.983318 -0.664556
v -19.876249 -8.502795 -0.917845
v -0.395949 1.588514 2.972355
v 21.088743 1.482333 -0.212587
v 10.498529 6.148337 0.914072
v -16.610062 7.966563 0.143467
v 0.547721 14.981725 1.453374
v -19.876249 -8.502795 -0.917845
v -20.914253 -0.883564 -2.639144
v -19.627424 -8.391622 -2.899190
v -21.216003 -0.983318 -0.664556
v -16.293945 7.891019 -1.829947
v -16.610062 7.966563 0.143467
v -19.627424 -8.391622 -2.899190
v 0.562910 -11.785837 1.454178
v -19.876249 -8.502795 -0.917845
v 0.539701 -11.574612 -0.534501
v 20.795828 1.617015 -2.186431
v 10.498529 6.148337 0.914072
v 21.088743 1.482333 -0.212587
v 10.206465 5.949932 -1.054514
v 0.547721 14.981725 1.453374
v 0.554889 14.754796 -0.533697
v 25.406212 -11.030377 -2.140826
v 25.114506 -10.827634 -4.109023
v 25.114506 -10.827634 -4.109023
v 21.088743 1.482333 -0.212587
v 25.406212 -11.030377 -2.140826
v 20.795828 1.617015 -2.186431
v 0.554889 14.754796 -0.533697
v 0.547721 14.981725 1.453374
v 25.406212 -11.030377 -2.140826

vt 6.754150 1.254639
vt 6.957275 1.415283
vt 6.832275 1.404541
vt 6.997803 1.254639
vt 6.996826 0.644775
vt 7.154785 0.962158
vt 7.099609 1.379395
vt 7.246338 1.254639
vt 6.832275 1.404541
vt 6.957275 1.415283
vt 6.832275 1.404541
vt 6.957275 1.415283
vt 7.099609 1.379395
vt 7.099609 1.379395
vt 6.832275 1.404541
vt 6.754150 1.254639
vt 6.832275 1.404541
vt 6.754150 1.254639
vt 6.996826 0.644775
vt 7.154785 0.962158
vt 6.996826 0.644775
vt 7.154785 0.962158
vt 7.246338 1.254639
vt 7.246338 1.254639
vt 6.672852 0.549561
vt 6.672852 0.549561
vt 6.672852 0.549561
vt 6.996826 0.644775
vt 6.672852 0.549561
vt 6.996826 0.644775
vt 7.246338 1.254639
vt 7.246338 1.254639
vt 6.672852 0.549561

vn 0.011719 -0.105345 0.994367
vn -0.150331 -0.049866 0.987377
vn -0.123904 -0.055421 0.990745
vn -0.007324 -0.005615 0.999957
vn 0.146057 -0.067138 0.986995
vn 0.145506 0.096861 0.984604
vn -0.157471 0.037354 0.986817
vn -0.003540 0.112916 0.993598
vn -0.977054 -0.163880 -0.136048
vn -0.976802 0.163024 -0.138854
vn -0.977759 -0.163021 -0.131955
vn -0.976961 0.156978 -0.144588
vn -0.659172 0.740530 -0.130797
vn -0.662654 0.736689 -0.134826
vn -0.149357 -0.985868 -0.075869
vn -0.064394 -0.992522 -0.103702
vn -0.149776 -0.985935 -0.074156
vn -0.064574 -0.992414 -0.104612
vn 0.399410 0.916678 -0.013122
vn 0.514899 0.843517 -0.152834
vn 0.403428 0.915008 0.002563
vn 0.513726 0.843494 -0.156858
vn 0.667425 0.739081 -0.091126
vn 0.669272 0.738488 -0.081912
vn 0.015015 -0.994387 -0.104737
vn 0.015015 -0.994393 -0.104676
vn 0.934955 0.338935 -0.104799
vn 0.933035 0.341244 -0.114012
vn 0.935170 0.338680 -0.103698
vn 0.932808 0.341494 -0.115113
vn -0.369311 0.923246 -0.105953
vn -0.369321 0.923150 -0.106750
vn 0.145510 -0.101442 0.984143

g polygon0
s 1
usemtl mat1
f 1/1/1 2/2/2 3/3/3
f 1/1/1 4/4/4 2/2/2
f 5/5/5 4/4/4 1/1/1
f 5/5/5 6/6/6 4/4/4
f 4/4/4 7/7/7 2/2/2
f 4/4/4 8/8/8 7/7/7
f 6/6/6 8/8/8 4/4/4
f 9/9/9 10/10/10 11/11/11
f 9/9/9 12/12/12 10/10/10
f 12/12/12 13/13/13 10/10/10
f 12/12/12 14/14/14 13/13/13
f 15/15/15 16/16/16 17/17/17
f 15/15/15 18/18/18 16/16/16
f 19/19/19 20/20/20 21/21/21
f 19/19/19 22/22/22 20/20/20
f 22/22/22 23/23/23 20/20/20
f 22/22/22 24/24/24 23/23/23
f 18/18/18 25/25/25 16/16/16
f 18/18/18 26/26/26 25/25/25
f 27/27/27 28/28/28 29/29/29
f 27/27/27 30/30/30 28/28/28
f 31/31/31 14/14/14 32/32/32
f 31/31/31 13/13/13 14/14/14
f 5/5/5 1/1/1 33/33/33

v -20.914253 -0.883564 -2.639144
v 0.539701 -11.574612 -0.534501
v -19.627424 -8.391622 -2.899190
v -0.381614 1.599528 0.972437
v -16.293945 7.891019 -1.829947
v 0.554889 14.754796 -0.533697
v 10.206465 5.949932 -1.054514
v 20.795828 1.617015 -2.186431
v 25.114506 -10.827634 -4.109023

vt 6.957275 1.415283
vt 6.754150 1.254639
vt 6.832275 1.404541
vt 6.997803 1.254639
vt 7.099609 1.379395
vt 7.246338 1.254639
vt 7.154785 0.962158
vt 6.996826 0.644775
vt 6.672852 0.549561

vn 0.151432 0.049928 -0.987206
vn -0.011474 0.105895 -0.994311
vn 0.124939 0.055725 -0.990598
vn 0.007019 0.005371 -0.999961
vn 0.158634 -0.038209 -0.986598
vn 0.003662 -0.114014 -0.993472
vn -0.146607 -0.101685 -0.983954
vn -0.146846 0.067564 -0.986849
vn -0.146238 0.101256 -0.984054

g polygon1
s 1
usemtl mat2
f 34/34/34 35/35/35 36/36/36
f 34/34/34 37/37/37 35/35/35
f 38/38/38 37/37/37 34/34/34
f 38/38/38 39/39/39 37/37/37
f 40/40/40 37/37/37 39/39/39
f 40/40/40 41/41/41 37/37/37
f 41/41/41 35/35/35 37/37/37
f 41/41/41 42/42/42 35/35/35

