mtllib stg210_MotCloud_05.mtl

v -9869.795898 -589.692505 2883.321533
v -9956.079102 -259.101379 2124.710205
v -10118.130859 -176.926971 2768.044434
v -9707.744141 -671.866943 2239.987305

vt 0.500000 0.000000
vt 1.000000 1.000000
vt 0.500000 1.000000
vt 1.000000 0.000000

vn 7924809334889683200000000000000000.000000 7840161470883427500000000000000000.000000 -1.0
vn 7924809334889683200000000000000000.000000 7840161470883427500000000000000000.000000 -1.0
vn 7924809334889683200000000000000000.000000 7840161470883427500000000000000000.000000 -1.0
vn 7900660838543343300000000000000000.000000 0.000000 0.000000

g polygon0
s 1
usemtl mat1
f 1/1/1 2/2/2 3/3/3
f 1/1/1 4/4/4 2/2/2

v -9675.892578 -895.789490 2526.899170
v -9554.031250 -447.174347 1836.883911
v -9898.062500 -468.907776 2409.651611
v -9331.861328 -874.056091 1954.131592

vt 0.500000 0.000000
vt 1.000000 1.000000
vt 0.500000 1.000000
vt 1.000000 0.000000

vn 7924809334889683200000000000000000.000000 7840161470883427500000000000000000.000000 -1.0
vn 7924809334889683200000000000000000.000000 7840161470883427500000000000000000.000000 -1.0
vn 7924809334889683200000000000000000.000000 7840161470883427500000000000000000.000000 -1.0
vn 7900660838543343300000000000000000.000000 0.000000 0.000000

g polygon1
s 1
usemtl mat1
f 5/5/5 6/6/6 7/7/7
f 5/5/5 8/8/8 6/6/6

v -9043.056641 -819.061462 2224.575439
v -8045.599609 -400.283264 2410.422119
v -8661.138672 -515.960632 1789.500610
v -8427.517578 -703.384094 2845.497070

vt 0.000000 0.000000
vt 0.500000 1.000000
vt 0.000000 1.000000
vt 0.500000 0.000000

vn 7924809334889683200000000000000000.000000 7840161470883427500000000000000000.000000 -1.0
vn 7924809334889683200000000000000000.000000 7840161470883427500000000000000000.000000 -1.0
vn 7924809334889683200000000000000000.000000 7840161470883427500000000000000000.000000 -1.0
vn 7900660838543343300000000000000000.000000 0.000000 0.000000

g polygon2
s 1
usemtl mat1
f 9/9/9 10/10/10 11/11/11
f 9/9/9 12/12/12 10/10/10

v -9773.288086 -839.677490 1916.012695
v -9096.756836 -503.286407 1544.362305
v -9773.288086 -503.286407 1544.362305
v -9096.756836 -839.677490 1916.012695

vt 0.500000 0.000000
vt 1.000000 1.000000
vt 0.500000 1.000000
vt 1.000000 0.000000

vn 7924809334889683200000000000000000.000000 7840161470883427500000000000000000.000000 -1.0
vn 7924809334889683200000000000000000.000000 7840161470883427500000000000000000.000000 -1.0
vn 7924809334889683200000000000000000.000000 7840161470883427500000000000000000.000000 -1.0
vn 7900660838543343300000000000000000.000000 0.000000 0.000000

g polygon3
s 1
usemtl mat1
f 13/13/13 14/14/14 15/15/15
f 13/13/13 16/16/16 14/14/14

v -9716.825195 -530.815735 2461.543457
v -9143.653320 -145.209595 2461.543457
v -9716.825195 -145.209595 2461.543457
v -9143.653320 -530.815735 2461.543457

vt 0.500000 0.000000
vt 1.000000 1.000000
vt 0.500000 1.000000
vt 1.000000 0.000000

vn 7924809334889683200000000000000000.000000 7840161470883427500000000000000000.000000 -1.0
vn 7924809334889683200000000000000000.000000 7840161470883427500000000000000000.000000 -1.0
vn 7924809334889683200000000000000000.000000 7840161470883427500000000000000000.000000 -1.0
vn 7900660838543343300000000000000000.000000 0.000000 0.000000

g polygon4
s 1
usemtl mat1
f 17/17/17 18/18/18 19/19/19
f 17/17/17 20/20/20 18/18/18

v -9059.926758 -878.944763 2017.081055
v -8395.458008 -548.551331 1652.057129
v -9059.926758 -548.551331 1652.057129
v -8395.458008 -878.944763 2017.081055

vt 0.000000 0.000000
vt 0.500000 1.000000
vt 0.000000 1.000000
vt 0.500000 0.000000

vn 7924809334889683200000000000000000.000000 7840161470883427500000000000000000.000000 -1.0
vn 7924809334889683200000000000000000.000000 7840161470883427500000000000000000.000000 -1.0
vn 7924809334889683200000000000000000.000000 7840161470883427500000000000000000.000000 -1.0
vn 7900660838543343300000000000000000.000000 0.000000 0.000000

g polygon5
s 1
usemtl mat1
f 21/21/21 22/22/22 23/23/23
f 21/21/21 24/24/24 22/22/22

v -9606.768555 -491.692719 1771.027466
v -9106.772461 -139.180634 1657.064331
v -9606.768555 -139.180634 1657.064331
v -9106.772461 -491.692719 1771.027466

vt 0.000000 0.000000
vt 0.500000 1.000000
vt 0.000000 1.000000
vt 0.500000 0.000000

vn 7924809334889683200000000000000000.000000 7840161470883427500000000000000000.000000 -1.0
vn 7924809334889683200000000000000000.000000 7840161470883427500000000000000000.000000 -1.0
vn 7924809334889683200000000000000000.000000 7840161470883427500000000000000000.000000 -1.0
vn 7900660838543343300000000000000000.000000 0.000000 0.000000

g polygon6
s 1
usemtl mat1
f 25/25/25 26/26/26 27/27/27
f 25/25/25 28/28/28 26/26/26

v -9511.754883 -836.678650 2265.112549
v -8847.286133 -506.285217 1900.088623
v -9511.754883 -506.285217 1900.088623
v -8847.286133 -836.678650 2265.112549

vt 0.000000 0.000000
vt 0.500000 1.000000
vt 0.000000 1.000000
vt 0.500000 0.000000

vn 7924809334889683200000000000000000.000000 7840161470883427500000000000000000.000000 -1.0
vn 7924809334889683200000000000000000.000000 7840161470883427500000000000000000.000000 -1.0
vn 7924809334889683200000000000000000.000000 7840161470883427500000000000000000.000000 -1.0
vn 7900660838543343300000000000000000.000000 0.000000 0.000000

g polygon7
s 1
usemtl mat1
f 29/29/29 30/30/30 31/31/31
f 29/29/29 32/32/32 30/30/30

v -9509.697266 -836.678650 1639.283447
v -8845.228516 -506.285217 1274.259521
v -9509.697266 -506.285217 1274.259521
v -8845.228516 -836.678650 1639.283447

vt 0.000000 0.000000
vt 0.500000 1.000000
vt 0.000000 1.000000
vt 0.500000 0.000000

vn 7924809334889683200000000000000000.000000 7840161470883427500000000000000000.000000 -1.0
vn 7924809334889683200000000000000000.000000 7840161470883427500000000000000000.000000 -1.0
vn 7924809334889683200000000000000000.000000 7840161470883427500000000000000000.000000 -1.0
vn 7900660838543343300000000000000000.000000 0.000000 0.000000

g polygon8
s 1
usemtl mat1
f 33/33/33 34/34/34 35/35/35
f 33/33/33 36/36/36 34/34/34

v -8047.082520 -997.314819 2374.246338
v -7481.328613 -345.649048 2260.751221
v -8032.250977 -401.636505 2105.976318
v -7496.160156 -941.327332 2529.021240

vt 0.000000 0.000000
vt 0.500000 1.000000
vt 0.000000 1.000000
vt 0.500000 0.000000

vn 7924809334889683200000000000000000.000000 7840161470883427500000000000000000.000000 -1.0
vn 7924809334889683200000000000000000.000000 7840161470883427500000000000000000.000000 -1.0
vn 7924809334889683200000000000000000.000000 7840161470883427500000000000000000.000000 -1.0
vn 7900660838543343300000000000000000.000000 0.000000 0.000000

g polygon9
s 1
usemtl mat1
f 37/37/37 38/38/38 39/39/39
f 37/37/37 40/40/40 38/38/38

v -9757.606445 -1329.021240 2238.500732
v -8561.951172 -1107.987915 1323.163696
v -9760.105469 -1174.727661 1308.071411
v -8559.451172 -1262.281494 2253.593018

vt 0.000000 0.000000
vt 0.500000 1.000000
vt 0.000000 1.000000
vt 0.500000 0.000000

vn 7924809334889683200000000000000000.000000 7840161470883427500000000000000000.000000 -1.0
vn 7924809334889683200000000000000000.000000 7840161470883427500000000000000000.000000 -1.0
vn 7924809334889683200000000000000000.000000 7840161470883427500000000000000000.000000 -1.0
vn 7900660838543343300000000000000000.000000 0.000000 0.000000

g polygon10
s 1
usemtl mat1
f 41/41/41 42/42/42 43/43/43
f 41/41/41 44/44/44 42/42/42

v -9654.623047 -1279.031372 3626.133057
v -10076.086914 -1074.428223 2178.101563
v -10515.280273 -1377.240112 3253.123047
v -9215.429688 -976.219421 2551.111572

vt 0.000000 0.000000
vt 0.500000 1.000000
vt 0.000000 1.000000
vt 0.500000 0.000000

vn 7924809334889683200000000000000000.000000 7840161470883427500000000000000000.000000 -1.0
vn 7924809334889683200000000000000000.000000 7840161470883427500000000000000000.000000 -1.0
vn 7924809334889683200000000000000000.000000 7840161470883427500000000000000000.000000 -1.0
vn 7900660838543343300000000000000000.000000 0.000000 0.000000

g polygon11
s 1
usemtl mat1
f 45/45/45 46/46/46 47/47/47
f 45/45/45 48/48/48 46/46/46

v -9792.301758 -1048.887817 3866.672852
v -10913.832031 -815.064514 3421.600342
v -10448.225586 -991.190735 4251.979492
v -10257.908203 -872.761536 3036.293701

vt 0.000000 0.000000
vt 0.500000 1.000000
vt 0.000000 1.000000
vt 0.500000 0.000000

vn 7924809334889683200000000000000000.000000 7840161470883427500000000000000000.000000 -1.0
vn 7924809334889683200000000000000000.000000 7840161470883427500000000000000000.000000 -1.0
vn 7924809334889683200000000000000000.000000 7840161470883427500000000000000000.000000 -1.0
vn 7900660838543343300000000000000000.000000 0.000000 0.000000

g polygon12
s 1
usemtl mat1
f 49/49/49 50/50/50 51/51/51
f 49/49/49 52/52/52 50/50/50

v -10523.933594 -1173.200806 3433.344971
v -11062.806641 -505.043579 2553.699707
v -11056.726563 -633.055054 3513.343994
v -10530.013672 -1045.189331 2473.700928

vt 0.000000 0.000000
vt 0.500000 1.000000
vt 0.000000 1.000000
vt 0.500000 0.000000

vn 7924809334889683200000000000000000.000000 7840161470883427500000000000000000.000000 -1.0
vn 7924809334889683200000000000000000.000000 7840161470883427500000000000000000.000000 -1.0
vn 7924809334889683200000000000000000.000000 7840161470883427500000000000000000.000000 -1.0
vn 7900660838543343300000000000000000.000000 0.000000 0.000000

g polygon13
s 1
usemtl mat1
f 53/53/53 54/54/54 55/55/55
f 53/53/53 56/56/56 54/54/54

v -11009.125000 -726.629761 2559.880371
v -10935.443359 -1168.129761 2289.286621
v -10882.317383 -726.629761 2175.374023
v -11025.716797 -1168.129761 2541.593506
v -11131.866211 -726.629761 2798.545166
v -11135.980469 -1168.129761 2789.491943
v -11372.283203 -726.629761 3111.364014
v -11370.375977 -1168.129761 3111.705811
v -11460.752930 -1168.129761 3235.687012
v -12004.125977 -726.629761 3380.726563
v -12064.914063 -285.129761 3304.931641
v -12215.168945 -285.129761 3361.458252
v -11737.739258 -285.129761 3127.899170
v -11678.568359 -726.629761 3184.852295
v -11375.851563 -726.629761 2793.424561
v -11376.406250 -1168.129761 2793.626221
v -11130.990234 -1168.129761 2284.142578
v -11436.608398 -285.129761 2752.651367
v -11117.388672 -726.629761 2290.643799
v -11071.455078 -1168.129761 2108.814209
v -11214.146484 -285.129761 2245.189697
v -11136.419922 -285.129761 2078.520264
v -11042.626953 -726.629761 2046.988159
v -11196.661133 -285.129761 2747.009766
v -11088.538086 -285.129761 2507.825684
v -12261.361328 -726.629761 3443.203125
v -12174.534180 -1168.129761 3417.985840
v -12008.279297 -1168.129761 3375.466797
v -11670.056641 -1168.129761 3194.105469
v -11000.408203 -285.129761 2258.992676
v -11428.061523 -285.129761 3066.857178
v -11527.138672 -285.129761 3184.420654
v -11527.413086 -726.629761 3292.730469

vt 0.241577 -0.001587
vt 0.642578 -1.003174
vt 0.839111 -0.001587
vt 0.241577 -1.003174
vt -0.159424 -0.001587
vt -0.159424 -1.003174
vt -0.672852 -0.001587
vt -0.672852 -1.003174
vt -0.887085 -1.003174
vt -0.672852 -0.001587
vt -0.672852 1.000000
vt -0.887085 1.000000
vt -0.159424 1.000000
vt -0.159424 -0.001587
vt 0.642578 -0.001587
vt 0.642578 -1.003174
vt 1.765503 -1.003174
vt 0.642578 1.000000
vt 1.765503 -0.001587
vt 2.006592 -1.003174
vt 1.765503 1.000000
vt 2.006592 1.000000
vt 2.006592 -0.001587
vt -0.159424 1.000000
vt 0.241577 1.000000
vt -1.003540 -0.001587
vt -0.887085 -1.003174
vt -0.672852 -1.003174
vt -0.159424 -1.003174
vt 0.642578 1.000000
vt -0.672852 1.000000
vt -0.887085 1.000000
vt -1.003540 -0.001587

vn 7924809334889683200000000000000000.000000 7840161470883427500000000000000000.000000 -1.0
vn 7924809334889683200000000000000000.000000 7840161470883427500000000000000000.000000 -1.0
vn 7924809334889683200000000000000000.000000 7840161470883427500000000000000000.000000 -1.0
vn 7900660838543343300000000000000000.000000 0.000000 0.000000
vn 7900660838543343300000000000000000.000000 0.000000 0.000000
vn 7900660838543343300000000000000000.000000 0.000000 0.000000
vn 7900660838543343300000000000000000.000000 0.000000 0.000000
vn 7900660838543343300000000000000000.000000 0.000000 0.000000
vn 7900660838543343300000000000000000.000000 0.000000 0.000000
vn 7924809334889683200000000000000000.000000 7840161470883427500000000000000000.000000 -1.0
vn 7924809334889683200000000000000000.000000 7840161470883427500000000000000000.000000 -1.0
vn 7924809334889683200000000000000000.000000 7840161470883427500000000000000000.000000 -1.0
vn 7900660838543343300000000000000000.000000 0.000000 0.000000
vn 7900660838543343300000000000000000.000000 0.000000 0.000000
vn 7900660838543343300000000000000000.000000 0.000000 0.000000
vn 7900660838543343300000000000000000.000000 0.000000 0.000000
vn 7900660838543343300000000000000000.000000 0.000000 0.000000
vn 7924809334889683200000000000000000.000000 7840161470883427500000000000000000.000000 -1.0
vn 7900660838543343300000000000000000.000000 0.000000 0.000000
vn 7900660838543343300000000000000000.000000 0.000000 0.000000
vn 7924809334889683200000000000000000.000000 7840161470883427500000000000000000.000000 -1.0
vn 7900660838543343300000000000000000.000000 0.000000 0.000000
vn 7900660838543343300000000000000000.000000 0.000000 0.000000
vn 7924809334889683200000000000000000.000000 7840161470883427500000000000000000.000000 -1.0
vn 7924809334889683200000000000000000.000000 7840161470883427500000000000000000.000000 -1.0
vn 7924809334889683200000000000000000.000000 7840161470883427500000000000000000.000000 -1.0
vn 7900660838543343300000000000000000.000000 0.000000 0.000000
vn 7924809334889683200000000000000000.000000 7840161470883427500000000000000000.000000 -1.0
vn 7900660838543343300000000000000000.000000 0.000000 0.000000
vn 7924809334889683200000000000000000.000000 7840161470883427500000000000000000.000000 -1.0
vn 7924809334889683200000000000000000.000000 7840161470883427500000000000000000.000000 -1.0
vn 7900660838543343300000000000000000.000000 0.000000 0.000000
vn 7924809334889683200000000000000000.000000 7840161470883427500000000000000000.000000 -1.0

g polygon14
s 1
usemtl mat2
f 57/57/57 58/58/58 59/59/59
f 57/57/57 60/60/60 58/58/58
f 61/61/61 60/60/60 57/57/57
f 61/61/61 62/62/62 60/60/60
f 63/63/63 62/62/62 61/61/61
f 63/63/63 64/64/64 62/62/62
f 65/65/65 64/64/64 63/63/63
f 66/66/66 67/67/67 68/68/68
f 66/66/66 69/69/69 67/67/67
f 70/70/70 69/69/69 66/66/66
f 70/70/70 71/71/71 69/69/69
f 72/72/72 71/71/71 70/70/70
f 72/72/72 73/73/73 71/71/71
f 71/71/71 74/74/74 69/69/69
f 71/71/71 75/75/75 74/74/74
f 73/73/73 75/75/75 71/71/71
f 73/73/73 76/76/76 75/75/75
f 75/75/75 77/77/77 74/74/74
f 75/75/75 78/78/78 77/77/77
f 79/79/79 78/78/78 75/75/75
f 80/80/80 57/57/57 81/81/81
f 80/80/80 61/61/61 57/57/57
f 63/63/63 61/61/61 80/80/80
f 82/82/82 66/66/66 68/68/68
f 82/82/82 83/83/83 66/66/66
f 84/84/84 66/66/66 83/83/83
f 84/84/84 85/85/85 66/66/66
f 70/70/70 85/85/85 72/72/72
f 70/70/70 66/66/66 85/85/85
f 86/86/86 57/57/57 59/59/59
f 86/86/86 81/81/81 57/57/57
f 87/87/87 63/63/63 80/80/80
f 87/87/87 88/88/88 63/63/63
f 89/89/89 63/63/63 88/88/88
f 89/89/89 65/65/65 63/63/63
f 79/79/79 75/75/75 76/76/76

