mtllib stg210_MotCloud_06.mtl

v -9970.837891 -282.865417 -2481.974854
v -9833.881836 -724.365417 -2726.705566
v -9754.734375 -282.865417 -2824.396484
v -9982.484375 -724.365417 -2503.718750
v -10147.657227 -282.865417 -2280.121094
v -10149.430664 -724.365417 -2289.886963
v -10456.625000 -282.865417 -2034.728271
v -10454.855469 -724.365417 -2033.935181
v -10572.541992 -724.365417 -1935.500732
v -11334.167969 -506.990417 -1658.949219
v -11374.842773 -65.490433 -1747.212524
v -11534.294922 -65.490433 -1728.672974
v -11014.529297 -65.490425 -1839.821777
v -10970.909180 -506.990417 -1770.287598
v -10582.489258 -506.990417 -2076.784912
v -10583.075195 -948.490417 -2076.723145
v -10221.694336 -948.490417 -2511.701660
v -10631.521484 -65.490417 -2131.087646
v -10210.083984 -506.990417 -2502.144775
v -10121.457031 -948.490417 -2667.461670
v -10292.957031 -65.490410 -2569.614746
v -10177.191406 -65.490410 -2712.585938
v -10078.569336 -506.990417 -2720.462891
v -10198.087891 158.634583 -2345.814697
v -10035.284180 158.634598 -2551.722900
v -11598.863281 -506.990448 -1660.587402
v -11508.528320 -948.490417 -1664.021973
v -11336.883789 -948.490417 -1665.071899
v -10964.901367 -948.490417 -1759.221924
v -9889.616211 158.634598 -2771.829834
v -10499.978516 158.634583 -2091.406982
v -10624.511719 158.634583 -2001.318848
v -10651.037109 -282.865417 -1896.320313

vt 0.241577 -0.001587
vt 0.642578 -1.003174
vt 0.839111 -0.001587
vt 0.241577 -1.003174
vt -0.159424 -0.001587
vt -0.159424 -1.003174
vt -0.672852 -0.001587
vt -0.672852 -1.003174
vt -0.887085 -1.003174
vt -0.672852 -0.001587
vt -0.672852 1.000000
vt -0.887085 1.000000
vt -0.159424 1.000000
vt -0.159424 -0.001587
vt 0.642578 -0.001587
vt 0.642578 -1.003174
vt 1.765503 -1.003174
vt 0.642578 1.000000
vt 1.765503 -0.001587
vt 2.006592 -1.003174
vt 1.765503 1.000000
vt 2.006592 1.000000
vt 2.006592 -0.001587
vt -0.159424 1.000000
vt 0.241577 1.000000
vt -1.003540 -0.001587
vt -0.887085 -1.003174
vt -0.672852 -1.003174
vt -0.159424 -1.003174
vt 0.642578 1.000000
vt -0.672852 1.000000
vt -0.887085 1.000000
vt -1.003540 -0.001587

vn 7924809334889683200000000000000000.000000 7840161470883427500000000000000000.000000 -1.0
vn 7924809334889683200000000000000000.000000 7840161470883427500000000000000000.000000 -1.0
vn 7924809334889683200000000000000000.000000 7840161470883427500000000000000000.000000 -1.0
vn 7900660838543343300000000000000000.000000 0.000000 0.000000
vn 7900660838543343300000000000000000.000000 0.000000 0.000000
vn 7900660838543343300000000000000000.000000 0.000000 0.000000
vn 7900660838543343300000000000000000.000000 0.000000 0.000000
vn 7900660838543343300000000000000000.000000 0.000000 0.000000
vn 7900660838543343300000000000000000.000000 0.000000 0.000000
vn 7924809334889683200000000000000000.000000 7840161470883427500000000000000000.000000 -1.0
vn 7924809334889683200000000000000000.000000 7840161470883427500000000000000000.000000 -1.0
vn 7924809334889683200000000000000000.000000 7840161470883427500000000000000000.000000 -1.0
vn 7900660838543343300000000000000000.000000 0.000000 0.000000
vn 7900660838543343300000000000000000.000000 0.000000 0.000000
vn 7900660838543343300000000000000000.000000 0.000000 0.000000
vn 7900660838543343300000000000000000.000000 0.000000 0.000000
vn 7900660838543343300000000000000000.000000 0.000000 0.000000
vn 7924809334889683200000000000000000.000000 7840161470883427500000000000000000.000000 -1.0
vn 7900660838543343300000000000000000.000000 0.000000 0.000000
vn 7900660838543343300000000000000000.000000 0.000000 0.000000
vn 7924809334889683200000000000000000.000000 7840161470883427500000000000000000.000000 -1.0
vn 7900660838543343300000000000000000.000000 0.000000 0.000000
vn 7900660838543343300000000000000000.000000 0.000000 0.000000
vn 7924809334889683200000000000000000.000000 7840161470883427500000000000000000.000000 -1.0
vn 7924809334889683200000000000000000.000000 7840161470883427500000000000000000.000000 -1.0
vn 7924809334889683200000000000000000.000000 7840161470883427500000000000000000.000000 -1.0
vn 7900660838543343300000000000000000.000000 0.000000 0.000000
vn 7924809334889683200000000000000000.000000 7840161470883427500000000000000000.000000 -1.0
vn 7900660838543343300000000000000000.000000 0.000000 0.000000
vn 7924809334889683200000000000000000.000000 7840161470883427500000000000000000.000000 -1.0
vn 7924809334889683200000000000000000.000000 7840161470883427500000000000000000.000000 -1.0
vn 7900660838543343300000000000000000.000000 0.000000 0.000000
vn 7924809334889683200000000000000000.000000 7840161470883427500000000000000000.000000 -1.0

g polygon0
s 1
usemtl mat1
f 1/1/1 2/2/2 3/3/3
f 1/1/1 4/4/4 2/2/2
f 5/5/5 4/4/4 1/1/1
f 5/5/5 6/6/6 4/4/4
f 7/7/7 6/6/6 5/5/5
f 7/7/7 8/8/8 6/6/6
f 9/9/9 8/8/8 7/7/7
f 10/10/10 11/11/11 12/12/12
f 10/10/10 13/13/13 11/11/11
f 14/14/14 13/13/13 10/10/10
f 14/14/14 15/15/15 13/13/13
f 16/16/16 15/15/15 14/14/14
f 16/16/16 17/17/17 15/15/15
f 15/15/15 18/18/18 13/13/13
f 15/15/15 19/19/19 18/18/18
f 17/17/17 19/19/19 15/15/15
f 17/17/17 20/20/20 19/19/19
f 19/19/19 21/21/21 18/18/18
f 19/19/19 22/22/22 21/21/21
f 23/23/23 22/22/22 19/19/19
f 24/24/24 1/1/1 25/25/25
f 24/24/24 5/5/5 1/1/1
f 7/7/7 5/5/5 24/24/24
f 26/26/26 10/10/10 12/12/12
f 26/26/26 27/27/27 10/10/10
f 28/28/28 10/10/10 27/27/27
f 28/28/28 29/29/29 10/10/10
f 14/14/14 29/29/29 16/16/16
f 14/14/14 10/10/10 29/29/29
f 30/30/30 1/1/1 3/3/3
f 30/30/30 25/25/25 1/1/1
f 31/31/31 7/7/7 24/24/24
f 31/31/31 32/32/32 7/7/7
f 33/33/33 7/7/7 32/32/32
f 33/33/33 9/9/9 7/7/7
f 23/23/23 19/19/19 20/20/20

