mtllib stg220_MotCloud_08.mtl

v 662.634094 -924.815308 5117.447754
v 525.026550 -339.873871 4542.009277
v 546.584900 -450.577942 5200.921387
v 641.075745 -814.111267 4458.535645

vt 0.500000 0.000000
vt 1.000000 1.000000
vt 0.500000 1.000000
vt 1.000000 0.000000

vn 7924809334889683200000000000000000.000000 7840161470883427500000000000000000.000000 -1.0
vn 7924809334889683200000000000000000.000000 7840161470883427500000000000000000.000000 -1.0
vn 7924809334889683200000000000000000.000000 7840161470883427500000000000000000.000000 -1.0
vn 7900660838543343300000000000000000.000000 0.000000 0.000000

g polygon0
s 1
usemtl mat1
f 1/1/1 2/2/2 3/3/3
f 1/1/1 4/4/4 2/2/2

v 639.634033 -1303.383423 5894.003906
v -277.431122 -453.729401 4926.838867
v 547.944702 -366.893555 5888.133789
v -185.741852 -1390.219238 4932.708984

vt 0.500000 0.000000
vt 1.000000 1.000000
vt 0.500000 1.000000
vt 1.000000 0.000000

vn 7924809334889683200000000000000000.000000 7840161470883427500000000000000000.000000 -1.0
vn 7924809334889683200000000000000000.000000 7840161470883427500000000000000000.000000 -1.0
vn 7924809334889683200000000000000000.000000 7840161470883427500000000000000000.000000 -1.0
vn 7900660838543343300000000000000000.000000 0.000000 0.000000

g polygon1
s 1
usemtl mat1
f 5/5/5 6/6/6 7/7/7
f 5/5/5 8/8/8 6/6/6

v 463.254974 -1208.680298 5168.279297
v 377.792145 -766.046204 4190.747070
v 308.892517 -600.718079 5036.925293
v 532.154602 -1374.008423 4322.101074

vt 0.500000 0.000000
vt 1.000000 1.000000
vt 0.500000 1.000000
vt 1.000000 0.000000

vn 7924809334889683200000000000000000.000000 7840161470883427500000000000000000.000000 -1.0
vn 7924809334889683200000000000000000.000000 7840161470883427500000000000000000.000000 -1.0
vn 7924809334889683200000000000000000.000000 7840161470883427500000000000000000.000000 -1.0
vn 7900660838543343300000000000000000.000000 0.000000 0.000000

g polygon2
s 1
usemtl mat1
f 9/9/9 10/10/10 11/11/11
f 9/9/9 12/12/12 10/10/10

v 1936.311646 -687.260254 4690.140625
v 1537.849976 -280.138428 4377.732422
v 1917.000366 -303.658508 4735.788086
v 1557.161255 -663.740173 4332.084961

vt 0.500000 0.000000
vt 1.000000 1.000000
vt 0.500000 1.000000
vt 1.000000 0.000000

vn 7924809334889683200000000000000000.000000 7840161470883427500000000000000000.000000 -1.0
vn 7924809334889683200000000000000000.000000 7840161470883427500000000000000000.000000 -1.0
vn 7924809334889683200000000000000000.000000 7840161470883427500000000000000000.000000 -1.0
vn 7900660838543343300000000000000000.000000 0.000000 0.000000

g polygon3
s 1
usemtl mat1
f 13/13/13 14/14/14 15/15/15
f 13/13/13 16/16/16 14/14/14

v -880.722168 -2019.710938 4666.376465
v -1178.270020 -1182.497559 2679.738525
v -1468.357178 -900.866089 4380.952637
v -590.635010 -2301.342529 2965.162598

vt 0.500000 0.000000
vt 1.000000 1.000000
vt 0.500000 1.000000
vt 1.000000 0.000000

vn 7924809334889683200000000000000000.000000 7840161470883427500000000000000000.000000 -1.0
vn 7924809334889683200000000000000000.000000 7840161470883427500000000000000000.000000 -1.0
vn 7924809334889683200000000000000000.000000 7840161470883427500000000000000000.000000 -1.0
vn 7900660838543343300000000000000000.000000 0.000000 0.000000

g polygon4
s 1
usemtl mat1
f 17/17/17 18/18/18 19/19/19
f 17/17/17 20/20/20 18/18/18

v 276.244507 -1117.682739 5101.448730
v -224.511581 -675.048218 4257.577637
v 80.199242 -509.719940 5049.990234
v -28.466331 -1283.010986 4309.036133

vt 0.500000 0.000000
vt 1.000000 1.000000
vt 0.500000 1.000000
vt 1.000000 0.000000

vn 7924809334889683200000000000000000.000000 7840161470883427500000000000000000.000000 -1.0
vn 7924809334889683200000000000000000.000000 7840161470883427500000000000000000.000000 -1.0
vn 7924809334889683200000000000000000.000000 7840161470883427500000000000000000.000000 -1.0
vn 7900660838543343300000000000000000.000000 0.000000 0.000000

g polygon5
s 1
usemtl mat1
f 21/21/21 22/22/22 23/23/23
f 21/21/21 24/24/24 22/22/22

