mtllib Sky.mtl
v -3209.015869 -4280.544434 -3209.020264 1.000000 1.000000 1.000000
v -2316.614990 -4865.741699 -0.004035 1.000000 1.000000 1.000000
v -886.530090 -4865.743652 2140.269287 1.000000 1.000000 1.000000
v 1638.094360 -4865.743652 1638.089966 1.000000 1.000000 1.000000
v 2140.273193 -4865.742188 886.525696 1.000000 1.000000 1.000000
v 0.000000 -5055.975098 -0.004119 1.000000 1.000000 1.000000
v 2316.615479 -4865.741699 -0.003411 1.000000 1.000000 1.000000
v 2140.273682 -4865.741211 -886.533936 1.000000 1.000000 1.000000
v 1638.094727 -4865.739746 -1638.097900 1.000000 1.000000 1.000000
v 886.530579 -4865.739746 -2140.277100 1.000000 1.000000 1.000000
v -4192.783203 -4280.544922 -1736.711304 1.000000 1.000000 1.000000
v -4538.235352 -4280.546875 -0.003685 1.000000 1.000000 1.000000
v -2140.273193 -4865.742188 886.526184 1.000000 1.000000 1.000000
v -1638.094116 -4865.743652 1638.090210 1.000000 1.000000 1.000000
v -3209.015869 -4280.549316 3209.012695 1.000000 1.000000 1.000000
v 0.000100 -4865.743652 2316.611084 1.000000 1.000000 1.000000
v 0.000525 -4280.551270 4538.232422 1.000000 1.000000 1.000000
v 3209.017334 -4280.549316 3209.011963 1.000000 1.000000 1.000000
v 4192.783203 -4280.548828 1736.702881 1.000000 1.000000 1.000000
v 4538.235840 -4280.546875 -0.002404 1.000000 1.000000 1.000000
v 4192.784180 -4280.544922 -1736.710449 1.000000 1.000000 1.000000
v 3209.017090 -4280.544434 -3209.019531 1.000000 1.000000 1.000000
v 1736.708130 -4280.543945 -4192.786621 1.000000 1.000000 1.000000
v 0.000256 -4865.739746 -2316.619141 1.000000 1.000000 1.000000
v -1736.707642 -4280.543945 -4192.786621 1.000000 1.000000 1.000000
v -2140.273193 -4865.741211 -886.534241 1.000000 1.000000 1.000000
v -886.530029 -4865.739746 -2140.277344 1.000000 1.000000 1.000000
v -1638.094116 -4865.739746 -1638.098267 1.000000 1.000000 1.000000
v 886.530334 -4865.743652 2140.269043 1.000000 1.000000 1.000000
v 6477.358887 -0.000000 0.001544 1.000000 1.000000 1.000000
v 6040.228027 -2316.615234 -0.000446 1.000000 1.000000 1.000000
v 5984.299316 -0.002189 2478.776855 1.000000 1.000000 1.000000
v 5580.441895 -2316.617432 2311.490479 1.000000 1.000000 1.000000
v 4580.185059 -0.003703 4580.184082 1.000000 1.000000 1.000000
v 4271.086426 -2316.618896 4271.081055 1.000000 1.000000 1.000000
v -2478.777588 -0.004878 5984.299316 1.000000 1.000000 1.000000
v -2311.493408 -2316.620117 5580.439453 1.000000 1.000000 1.000000
v -4580.184570 -0.003703 4580.185059 1.000000 1.000000 1.000000
v -5580.441406 -2316.617432 2311.493164 1.000000 1.000000 1.000000
v -6477.358398 0.000000 -0.000115 1.000000 1.000000 1.000000
v -6040.226562 -2316.615234 -0.001461 1.000000 1.000000 1.000000
v -5580.441895 -2316.613037 -2311.497070 1.000000 1.000000 1.000000
v -4580.185059 0.003703 -4580.185547 1.000000 1.000000 1.000000
v -4271.085449 -2316.611572 -4271.087402 1.000000 1.000000 1.000000
v 0.000877 0.005118 -6477.358887 1.000000 1.000000 1.000000
v 0.000528 -2316.610352 -6040.229492 1.000000 1.000000 1.000000
v 4580.186523 0.003703 -4580.185059 1.000000 1.000000 1.000000
v 4271.086426 -2316.611572 -4271.087891 1.000000 1.000000 1.000000
v 5580.443848 -2316.613037 -2311.496338 1.000000 1.000000 1.000000
v 2311.495850 -2316.610352 -5580.445312 1.000000 1.000000 1.000000
v 0.000561 -4280.542480 -4538.238281 1.000000 1.000000 1.000000
v -2311.494873 -2316.610352 -5580.444336 1.000000 1.000000 1.000000
v -4192.783691 -4280.548828 1736.704224 1.000000 1.000000 1.000000
v -4271.084473 -2316.618896 4271.083496 1.000000 1.000000 1.000000
v -1736.707031 -4280.549805 4192.780273 1.000000 1.000000 1.000000
v 0.001163 -2316.620117 6040.224121 1.000000 1.000000 1.000000
v 1736.708374 -4280.549805 4192.779297 1.000000 1.000000 1.000000
v 2311.496094 -2316.620117 5580.438477 1.000000 1.000000 1.000000
v 5984.300293 0.002189 -2478.776855 1.000000 1.000000 1.000000
v 5584.060547 2316.618164 -2312.990723 1.000000 1.000000 1.000000
v 2478.779297 0.004878 -5984.299316 1.000000 1.000000 1.000000
v 0.000528 2316.620605 -6044.141113 1.000000 1.000000 1.000000
v -2478.777588 0.004878 -5984.299805 1.000000 1.000000 1.000000
v -2312.993408 2316.620605 -5584.057617 1.000000 1.000000 1.000000
v -5984.299316 0.002189 -2478.778320 1.000000 1.000000 1.000000
v -5984.298828 -0.002189 2478.777832 1.000000 1.000000 1.000000
v -5584.058594 2316.613281 2312.995850 1.000000 1.000000 1.000000
v -4273.853516 2316.612061 4273.855957 1.000000 1.000000 1.000000
v -2312.992432 2316.610840 5584.061523 1.000000 1.000000 1.000000
v 0.000615 -0.005118 6477.357422 1.000000 1.000000 1.000000
v 0.001164 2316.610840 6044.144043 1.000000 1.000000 1.000000
v 2478.778320 -0.004878 5984.298340 1.000000 1.000000 1.000000
v 4273.854492 2316.612061 4273.854492 1.000000 1.000000 1.000000
v 6044.143555 2316.615723 0.003327 1.000000 1.000000 1.000000
v 4587.462402 4280.549316 -1900.184082 1.000000 1.000000 1.000000
v 4273.854980 2316.619385 -4273.851562 1.000000 1.000000 1.000000
v 2312.994385 2316.620605 -5584.057617 1.000000 1.000000 1.000000
v -1900.188354 4280.551758 -4587.458496 1.000000 1.000000 1.000000
v -4273.853516 2316.619385 -4273.852051 1.000000 1.000000 1.000000
v -5584.059570 2316.618164 -2312.991211 1.000000 1.000000 1.000000
v -4587.461426 4280.549316 -1900.185425 1.000000 1.000000 1.000000
v -6044.142090 2316.615723 0.002312 1.000000 1.000000 1.000000
v -1900.188354 4280.541992 4587.464844 1.000000 1.000000 1.000000
v 0.000806 4280.541992 4965.436523 1.000000 1.000000 1.000000
v 2312.994385 2316.610840 5584.060059 1.000000 1.000000 1.000000
v 1900.189209 4280.541992 4587.463379 1.000000 1.000000 1.000000
v 5584.059570 2316.613281 2312.993164 1.000000 1.000000 1.000000
v 0.000000 5633.488281 0.004590 1.000000 1.000000 1.000000
v 0.000307 5313.167480 -2942.095459 1.000000 1.000000 1.000000
v -2942.100098 5313.165039 0.004454 1.000000 1.000000 1.000000
v -4587.460938 4280.544434 1900.192383 1.000000 1.000000 1.000000
v -3511.090332 4280.544434 3511.094238 1.000000 1.000000 1.000000
v 1125.893677 5313.162598 2718.150146 1.000000 1.000000 1.000000
v 0.000668 5313.162598 2942.104736 1.000000 1.000000 1.000000
v 1125.893555 5313.167480 -2718.141846 1.000000 1.000000 1.000000
v 2080.378662 5313.167480 -2080.373291 1.000000 1.000000 1.000000
v 2718.146973 5313.165039 -1125.888184 1.000000 1.000000 1.000000
v -2718.146484 5313.165039 -1125.888550 1.000000 1.000000 1.000000
v -1125.893066 5313.167480 -2718.141846 1.000000 1.000000 1.000000
v -4965.433594 4280.546875 0.003501 1.000000 1.000000 1.000000
v -2080.377930 5313.167480 -2080.373535 1.000000 1.000000 1.000000
v -3511.091064 4280.549316 -3511.087891 1.000000 1.000000 1.000000
v 0.000580 4280.551758 -4965.431152 1.000000 1.000000 1.000000
v 1900.189453 4280.551758 -4587.458496 1.000000 1.000000 1.000000
v 3511.091553 4280.549316 -3511.087402 1.000000 1.000000 1.000000
v 4965.434570 4280.546875 0.004670 1.000000 1.000000 1.000000
v 4587.461426 4280.544434 1900.191406 1.000000 1.000000 1.000000
v 3511.091553 4280.544434 3511.093018 1.000000 1.000000 1.000000
v -1125.892212 5313.162598 2718.150879 1.000000 1.000000 1.000000
v -2080.377930 5313.162598 2080.383057 1.000000 1.000000 1.000000
v -2718.145996 5313.165039 1125.897705 1.000000 1.000000 1.000000
v 2942.100342 5313.165039 0.005030 1.000000 1.000000 1.000000
v 2718.146484 5313.165039 1125.895874 1.000000 1.000000 1.000000
v 2080.378662 5313.162598 2080.382080 1.000000 1.000000 1.000000
vt 2.007843 -1.003922
vt 2.603922 -0.250980
vt 2.270588 -0.082353
vt 1.023530 0.756863
vt 1.541177 -0.164706
vt 1.776471 1.000000
vt 1.254902 -0.407843
vt 1.086275 -0.741176
vt 1.054902 -1.113726
vt 1.168628 -1.470588
vt 2.117647 -1.956863
vt 2.474510 -1.843137
vt 2.760784 -1.600000
vt 2.929412 -1.266667
vt 2.960784 -0.894118
vt 2.847059 -0.537255
vt 0.423529 0.247059
vt 0.062745 -0.450980
vt 0.000000 -1.235294
vt 0.243137 -1.988235
vt 1.411765 -1.756863
vt 0.752941 -2.588235
vt 1.745098 -1.925490
vt 1.454902 -2.949020
vt 2.239216 -3.011765
vt 2.992157 -2.768628
vt 3.592157 -2.258824
vt 3.952941 -1.556863
vt 4.015687 -0.772549
vt 3.772549 -0.019608
vt 3.262745 0.576471
vt 2.560785 0.937255
vt 1.898039 -0.050980
vt 16.062746 -1.505883
vt 16.062746 -0.149020
vt 15.058825 -1.505883
vt 15.058825 -0.149020
vt 14.054903 -1.505883
vt 14.054903 -0.149020
vt 13.050982 -1.505883
vt 13.050982 -0.149020
vt 12.047060 -1.505883
vt 12.047060 -0.149020
vt 11.043138 -1.505883
vt 11.043138 -0.149020
vt 10.039216 -1.505883
vt 10.039216 -0.149020
vt 9.035295 -1.505883
vt 9.035295 -0.149020
vt 8.031373 -1.505883
vt 8.031373 -0.149020
vt 7.027452 -1.505883
vt 7.027452 -0.149020
vt 6.023530 -1.505883
vt 6.023530 -0.149020
vt 5.019608 -1.505883
vt 5.019608 -0.149020
vt 4.015687 -1.505883
vt 4.015687 -0.149020
vt 3.011765 -1.505883
vt 3.011765 -0.149020
vt 2.007843 -1.505883
vt 2.007843 -0.149020
vt 1.003922 -1.505883
vt 1.003922 -0.149020
vt 0.000000 -1.505883
vt 0.000000 -0.149020
vt 0.000000 1.000000
vt 1.003922 1.000000
vt 2.007843 1.000000
vt 3.011765 1.000000
vt 4.015687 1.000000
vt 5.019608 1.000000
vt 6.023530 1.000000
vt 7.027452 1.000000
vt 8.031373 1.000000
vt 9.035295 1.000000
vt 10.039216 1.000000
vt 11.043138 1.000000
vt 12.047060 1.000000
vt 13.050982 1.000000
vt 14.054903 1.000000
vt 15.058825 1.000000
vt 16.062746 1.000000
vt 0.000000 -2.862745
vt 1.003922 -2.862745
vt 2.007843 -2.862745
vt 3.011765 -2.862745
vt 4.015687 -2.862745
vt 5.019608 -2.862745
vt 6.023530 -2.862745
vt 7.027452 -2.862745
vt 8.031373 -2.862745
vt 9.035295 -2.862745
vt 10.039216 -2.862745
vt 11.043138 -2.862745
vt 12.047060 -2.862745
vt 13.050982 -2.862745
vt 14.054903 -2.862745
vt 15.058825 -2.862745
vt 16.062746 -2.862745
vt 0.000000 -4.015687
vt 1.003922 -4.015687
vt 2.007843 -4.015687
vt 3.011765 -4.015687
vt 4.015687 -4.015687
vt 5.019608 -4.015687
vt 6.023530 -4.015687
vt 7.027452 -4.015687
vt 8.031373 -4.015687
vt 9.035295 -4.015687
vt 10.039216 -4.015687
vt 11.043138 -4.015687
vt 12.047060 -4.015687
vt 13.050982 -4.015687
vt 14.054903 -4.015687
vt 15.058825 -4.015687
vt 16.062746 -4.015687
vt 3.011765 -2.007843
vt 4.658824 -1.325490
vt 4.796079 -2.007843
vt 2.329412 -0.360784
vt 3.011765 -0.223529
vt 1.364706 -2.690196
vt 1.227451 -2.007843
vt 0.227451 -3.160784
vt 0.882353 -4.137255
vt 3.694118 -3.654902
vt 3.011765 -3.792157
vt 3.694118 -0.360784
vt 4.274510 -0.745098
vt 1.364706 -1.325490
vt 1.749020 -0.745098
vt 0.000000 -2.007843
vt 0.227451 -0.854902
vt 0.882353 0.117647
vt 1.858824 0.772549
vt 4.164706 0.772549
vt 5.141177 0.117647
vt 5.796079 -0.854902
vt 6.023530 -2.007843
vt 4.658824 -2.690196
vt 5.796079 -3.160784
vt 4.274510 -3.270588
vt 5.141177 -4.137255
vt 4.164706 -4.792157
vt 3.011765 -5.019608
vt 2.329412 -3.654902
vt 1.858824 -4.792157
vt 1.749020 -3.270588
vn 0.000000 1.000000 0.000000
vn 0.000000 0.983734 0.179540
vn 0.068697 0.983734 0.165868
vn 0.537004 0.813685 0.222419
vn 0.165868 0.983734 0.068697
vn 0.410993 0.813685 0.410993
vn 0.179510 0.983734 0.000000
vn 0.165868 0.983734 -0.068697
vn 0.126926 0.983734 -0.126926
vn 0.068697 0.983734 -0.165868
vn -0.126926 0.983734 -0.126926
vn -0.165868 0.983734 -0.068697
vn -0.179510 0.983734 0.000000
vn -0.165868 0.983734 0.068697
vn -0.126926 0.983734 0.126926
vn -0.068697 0.983734 0.165868
vn 0.581256 0.813685 0.000000
vn 0.537004 0.813685 -0.222419
vn 0.410993 0.813685 -0.410993
vn 0.222419 0.813685 -0.537004
vn 0.000000 0.983734 -0.179510
vn 0.000000 0.813685 -0.581256
vn -0.068697 0.983734 -0.165868
vn -0.222419 0.813685 -0.537004
vn -0.410993 0.813685 -0.410993
vn -0.537004 0.813685 -0.222419
vn -0.581256 0.813685 0.000000
vn -0.537004 0.813685 0.222419
vn -0.410993 0.813685 0.410993
vn -0.222419 0.813685 0.537004
vn 0.000000 0.813685 0.581256
vn 0.222419 0.813685 0.537004
vn 0.126926 0.983734 0.126926
vn -0.923856 0.000793 0.382672
vn -0.847865 0.397137 0.351177
vn -0.999969 0.000793 0.000000
vn -0.917722 0.397137 0.000000
vn -0.923856 0.000793 -0.382672
vn -0.847865 0.397137 -0.351177
vn -0.707083 0.000793 -0.707083
vn -0.648915 0.397137 -0.648915
vn -0.382672 0.000793 -0.923856
vn -0.351177 0.397137 -0.847865
vn 0.000000 0.000793 -0.999969
vn 0.000000 0.397137 -0.917722
vn 0.382672 0.000793 -0.923856
vn 0.351177 0.397137 -0.847865
vn 0.707083 0.000793 -0.707083
vn 0.648915 0.397137 -0.648915
vn 0.923856 0.000793 -0.382672
vn 0.847865 0.397137 -0.351177
vn 0.999969 0.000793 0.000000
vn 0.917722 0.397137 0.000000
vn 0.923856 0.000793 0.382672
vn 0.847865 0.397137 0.351177
vn 0.707083 0.000793 0.707083
vn 0.648915 0.397137 0.648915
vn 0.382672 0.000793 0.923856
vn 0.351177 0.397137 0.847865
vn 0.000000 0.000793 0.999969
vn 0.000000 0.397137 0.917722
vn -0.382672 0.000793 0.923856
vn -0.351177 0.397137 0.847865
vn -0.707083 0.000793 0.707083
vn -0.648915 0.397137 0.648915
vn -0.871853 -0.330760 0.361126
vn -0.667287 -0.330760 0.667287
vn -0.361126 -0.330760 0.871853
vn 0.000000 -0.330760 0.943693
vn 0.361126 -0.330760 0.871853
vn 0.667287 -0.330760 0.667287
vn 0.871853 -0.330760 0.361126
vn 0.943693 -0.330760 0.000000
vn 0.871853 -0.330760 -0.361126
vn 0.667287 -0.330760 -0.667287
vn 0.361126 -0.330760 -0.871853
vn 0.000000 -0.330760 -0.943693
vn -0.361126 -0.330760 -0.871853
vn -0.667287 -0.330760 -0.667287
vn -0.871853 -0.330760 -0.361126
vn -0.943693 -0.330760 0.000000
vn -0.659841 -0.699881 0.273324
vn -0.505020 -0.699881 0.505020
vn -0.273324 -0.699881 0.659841
vn 0.000000 -0.699881 0.714225
vn 0.273324 -0.699881 0.659841
vn 0.505020 -0.699881 0.505020
vn 0.659841 -0.699881 0.273324
vn 0.714225 -0.699881 0.000000
vn 0.659841 -0.699881 -0.273324
vn 0.505020 -0.699881 -0.505020
vn 0.273324 -0.699881 -0.659841
vn 0.000000 -0.699881 -0.714225
vn -0.273324 -0.699881 -0.659841
vn -0.505020 -0.699881 -0.505020
vn -0.659841 -0.699881 -0.273324
vn -0.714225 -0.699881 0.000000
vn 0.000000 -1.000000 0.000000
vn -0.283212 -0.951842 0.117313
vn -0.306558 -0.951842 0.000000
vn 0.117313 -0.951842 0.283212
vn 0.000000 -0.951842 0.306558
vn 0.283212 -0.951842 -0.117313
vn 0.306558 -0.951842 0.000000
vn -0.117313 -0.951842 -0.283212
vn 0.000000 -0.951842 -0.306558
vn -0.117313 -0.951842 0.283212
vn -0.216773 -0.951842 0.216773
vn 0.283212 -0.951842 0.117313
vn 0.216773 -0.951842 0.216773
vn -0.283212 -0.951842 -0.117313
vn -0.216773 -0.951842 -0.216773
vn 0.117313 -0.951842 -0.283212
vn 0.216773 -0.951842 -0.216773
usemtl Mesh_0247.rip
f 6/1/1 24/2/2 27/3/3
f 11/4/4 26/5/5 1/6/6
f 2/7/7 13/8/8 6/1/1
f 13/8/8 14/9/9 6/1/1
f 6/1/1 14/9/9 3/10/10
f 4/11/11 5/12/12 6/1/1
f 5/12/12 7/13/13 6/1/1
f 6/1/1 7/13/13 8/14/14
f 8/14/14 9/15/15 6/1/1
f 9/15/15 10/16/16 6/1/1
f 6/1/1 10/16/16 24/2/2
f 26/5/5 11/4/4 2/7/7
f 11/4/4 12/17/17 2/7/7
f 2/7/7 12/17/17 13/8/8
f 12/17/17 53/18/18 13/8/8
f 13/8/8 53/18/18 14/9/9
f 53/18/18 15/19/19 14/9/9
f 14/9/9 15/19/19 3/10/10
f 15/19/19 55/20/20 3/10/10
f 3/10/10 55/20/20 16/21/21
f 55/20/20 17/22/22 16/21/21
f 16/21/21 17/22/22 29/23/23
f 17/22/22 57/24/24 29/23/23
f 29/23/23 57/24/24 4/11/11
f 57/24/24 18/25/25 4/11/11
f 4/11/11 18/25/25 5/12/12
f 18/25/25 19/26/26 5/12/12
f 5/12/12 19/26/26 7/13/13
f 19/26/26 20/27/27 7/13/13
f 7/13/13 20/27/27 8/14/14
f 20/27/27 21/28/28 8/14/14
f 8/14/14 21/28/28 9/15/15
f 21/28/28 22/29/29 9/15/15
f 9/15/15 22/29/29 10/16/16
f 22/29/29 23/30/30 10/16/16
f 10/16/16 23/30/30 24/2/2
f 23/30/30 51/31/31 24/2/2
f 24/2/2 51/31/31 27/3/3
f 51/31/31 25/32/32 27/3/3
f 27/3/3 25/32/32 28/33/33
f 25/32/32 1/6/6 28/33/33
f 28/33/33 1/6/6 26/5/5
f 27/3/3 28/33/33 6/1/1
f 28/33/33 26/5/5 6/1/1
f 6/1/1 26/5/5 2/7/7
f 3/10/10 16/21/21 6/1/1
f 16/21/21 29/23/23 6/1/1
f 6/1/1 29/23/23 4/11/11
f 59/34/34 49/35/35 30/36/36
f 49/35/35 31/37/37 30/36/36
f 30/36/36 31/37/37 32/38/38
f 31/37/37 33/39/39 32/38/38
f 32/38/38 33/39/39 34/40/40
f 33/39/39 35/41/41 34/40/40
f 34/40/40 35/41/41 72/42/42
f 35/41/41 58/43/43 72/42/42
f 72/42/42 58/43/43 70/44/44
f 58/43/43 56/45/45 70/44/44
f 70/44/44 56/45/45 36/46/46
f 56/45/45 37/47/47 36/46/46
f 36/46/46 37/47/47 38/48/48
f 37/47/47 54/49/49 38/48/48
f 38/48/48 54/49/49 66/50/50
f 54/49/49 39/51/51 66/50/50
f 66/50/50 39/51/51 40/52/52
f 39/51/51 41/53/53 40/52/52
f 40/52/52 41/53/53 65/54/54
f 41/53/53 42/55/55 65/54/54
f 65/54/54 42/55/55 43/56/56
f 42/55/55 44/57/57 43/56/56
f 43/56/56 44/57/57 63/58/58
f 44/57/57 52/59/59 63/58/58
f 63/58/58 52/59/59 45/60/60
f 52/59/59 46/61/61 45/60/60
f 45/60/60 46/61/61 61/62/62
f 46/61/61 50/63/63 61/62/62
f 61/62/62 50/63/63 47/64/64
f 50/63/63 48/65/65 47/64/64
f 47/64/64 48/65/65 59/66/34
f 48/65/65 49/67/35 59/66/34
f 21/68/28 49/67/35 22/69/29
f 49/67/35 48/65/65 22/69/29
f 22/69/29 48/65/65 23/70/30
f 48/65/65 50/63/63 23/70/30
f 23/70/30 50/63/63 51/71/31
f 50/63/63 46/61/61 51/71/31
f 51/71/31 46/61/61 25/72/32
f 46/61/61 52/59/59 25/72/32
f 25/72/32 52/59/59 1/73/6
f 52/59/59 44/57/57 1/73/6
f 1/73/6 44/57/57 11/74/4
f 44/57/57 42/55/55 11/74/4
f 11/74/4 42/55/55 12/75/17
f 42/55/55 41/53/53 12/75/17
f 12/75/17 41/53/53 53/76/18
f 41/53/53 39/51/51 53/76/18
f 53/76/18 39/51/51 15/77/19
f 39/51/51 54/49/49 15/77/19
f 15/77/19 54/49/49 55/78/20
f 54/49/49 37/47/47 55/78/20
f 55/78/20 37/47/47 17/79/22
f 37/47/47 56/45/45 17/79/22
f 17/79/22 56/45/45 57/80/24
f 56/45/45 58/43/43 57/80/24
f 57/80/24 58/43/43 18/81/25
f 58/43/43 35/41/41 18/81/25
f 18/81/25 35/41/41 19/82/26
f 35/41/41 33/39/39 19/82/26
f 19/82/26 33/39/39 20/83/27
f 33/39/39 31/37/37 20/83/27
f 20/83/27 31/37/37 21/84/28
f 31/37/37 49/35/35 21/84/28
f 59/66/34 60/85/66 47/64/64
f 60/85/66 76/86/67 47/64/64
f 47/64/64 76/86/67 61/62/62
f 76/86/67 77/87/68 61/62/62
f 61/62/62 77/87/68 45/60/60
f 77/87/68 62/88/69 45/60/60
f 45/60/60 62/88/69 63/58/58
f 62/88/69 64/89/70 63/58/58
f 63/58/58 64/89/70 43/56/56
f 64/89/70 79/90/71 43/56/56
f 43/56/56 79/90/71 65/54/54
f 79/90/71 80/91/72 65/54/54
f 65/54/54 80/91/72 40/52/52
f 80/91/72 82/92/73 40/52/52
f 40/52/52 82/92/73 66/50/50
f 82/92/73 67/93/74 66/50/50
f 66/50/50 67/93/74 38/48/48
f 67/93/74 68/94/75 38/48/48
f 38/48/48 68/94/75 36/46/46
f 68/94/75 69/95/76 36/46/46
f 36/46/46 69/95/76 70/44/44
f 69/95/76 71/96/77 70/44/44
f 70/44/44 71/96/77 72/42/42
f 71/96/77 85/97/78 72/42/42
f 72/42/42 85/97/78 34/40/40
f 85/97/78 73/98/79 34/40/40
f 34/40/40 73/98/79 32/38/38
f 73/98/79 87/99/80 32/38/38
f 32/38/38 87/99/80 30/36/36
f 87/99/80 74/100/81 30/36/36
f 30/36/36 74/100/81 59/34/34
f 74/100/81 60/101/66 59/34/34
f 60/85/66 75/102/82 76/86/67
f 75/102/82 105/103/83 76/86/67
f 76/86/67 105/103/83 77/87/68
f 105/103/83 104/104/84 77/87/68
f 77/87/68 104/104/84 62/88/69
f 104/104/84 103/105/85 62/88/69
f 62/88/69 103/105/85 64/89/70
f 103/105/85 78/106/86 64/89/70
f 64/89/70 78/106/86 79/90/71
f 78/106/86 102/107/87 79/90/71
f 79/90/71 102/107/87 80/91/72
f 102/107/87 81/108/88 80/91/72
f 80/91/72 81/108/88 82/92/73
f 81/108/88 100/109/89 82/92/73
f 82/92/73 100/109/89 67/93/74
f 100/109/89 91/110/90 67/93/74
f 67/93/74 91/110/90 68/94/75
f 91/110/90 92/111/91 68/94/75
f 68/94/75 92/111/91 69/95/76
f 92/111/91 83/112/92 69/95/76
f 69/95/76 83/112/92 71/96/77
f 83/112/92 84/113/93 71/96/77
f 71/96/77 84/113/93 85/97/78
f 84/113/93 86/114/94 85/97/78
f 85/97/78 86/114/94 73/98/79
f 86/114/94 108/115/95 73/98/79
f 73/98/79 108/115/95 87/99/80
f 108/115/95 107/116/96 87/99/80
f 87/99/80 107/116/96 74/100/81
f 107/116/96 106/117/97 74/100/81
f 74/100/81 106/117/97 60/101/66
f 106/117/97 75/118/82 60/101/66
f 88/119/98 97/120/99 112/121/100
f 88/119/98 99/122/101 89/123/102
f 88/119/98 111/124/103 90/125/104
f 91/126/90 111/124/103 92/127/91
f 88/119/98 93/128/105 94/129/106
f 89/123/102 95/130/107 88/119/98
f 95/130/107 96/131/108 88/119/98
f 88/119/98 96/131/108 97/120/99
f 90/125/104 98/132/109 88/119/98
f 98/132/109 101/133/110 88/119/98
f 88/119/98 101/133/110 99/122/101
f 111/124/103 91/126/90 90/125/104
f 91/126/90 100/134/89 90/125/104
f 90/125/104 100/134/89 98/132/109
f 100/134/89 81/135/88 98/132/109
f 98/132/109 81/135/88 101/133/110
f 81/135/88 102/136/87 101/133/110
f 101/133/110 102/136/87 99/122/101
f 102/136/87 78/137/86 99/122/101
f 99/122/101 78/137/86 89/123/102
f 78/137/86 103/71/85 89/123/102
f 89/123/102 103/71/85 95/130/107
f 103/71/85 104/138/84 95/130/107
f 95/130/107 104/138/84 96/131/108
f 104/138/84 105/139/83 96/131/108
f 96/131/108 105/139/83 97/120/99
f 105/139/83 75/140/82 97/120/99
f 97/120/99 75/140/82 112/121/100
f 75/140/82 106/141/97 112/121/100
f 112/121/100 106/141/97 113/142/111
f 106/141/97 107/143/96 113/142/111
f 113/142/111 107/143/96 114/144/112
f 107/143/96 108/145/95 114/144/112
f 114/144/112 108/145/95 93/128/105
f 108/145/95 86/146/94 93/128/105
f 93/128/105 86/146/94 94/129/106
f 86/146/94 84/147/93 94/129/106
f 94/129/106 84/147/93 109/148/113
f 84/147/93 83/149/92 109/148/113
f 109/148/113 83/149/92 110/150/114
f 83/149/92 92/127/91 110/150/114
f 110/150/114 92/127/91 111/124/103
f 94/129/106 109/148/113 88/119/98
f 109/148/113 110/150/114 88/119/98
f 88/119/98 110/150/114 111/124/103
f 112/121/100 113/142/111 88/119/98
f 113/142/111 114/144/112 88/119/98
f 88/119/98 114/144/112 93/128/105
