# Blender v2.79 (sub 0) OBJ File: ''
# www.blender.org
mtllib GreenHillPFlowerBase.mtl
v -0.459318 9.314815 -0.016427
v -0.227972 13.948344 -0.415699
v -0.227972 9.314815 -0.415702
v -0.459318 13.948344 -0.016424
v -0.229450 9.314815 0.383380
v -0.229450 13.948344 0.383383
v 0.231891 9.314815 0.384148
v 0.231892 13.948344 0.384151
v 0.463114 9.314815 -0.014866
v 0.463114 13.948344 -0.014864
v 0.233156 9.314815 -0.414923
v 0.233156 13.948344 -0.414920
v -0.459318 -0.097712 -0.016433
v -0.227973 -0.097712 -0.415708
v 0.233156 -0.097712 -0.414928
v 0.463113 -0.097712 -0.014872
v 0.231890 -0.097712 0.384142
v -0.229450 -0.097712 0.383374
v 0.001965 13.948344 -0.015700
v 0.001964 -0.097712 -0.015709
v -0.230807 0.350560 0.784565
v 5.190136 5.948485 0.854031
v 0.816818 0.015620 -0.257936
v 2.833310 6.702012 3.199610
v 1.454403 0.023819 0.196142
v 3.875030 6.584616 -3.482133
v 0.461726 0.342351 -0.903468
v 6.108599 5.868213 -1.007671
v -1.079402 0.102087 -0.774833
v 1.100724 6.736152 2.571384
v -0.086591 -0.216446 0.325150
v -1.132947 7.452553 0.097239
v 0.605793 -0.224644 -1.209587
v -0.571719 7.486478 -1.290311
v -0.441797 0.110285 -0.167110
v 1.784994 6.732951 -3.635850
v 7.240696 2.728694 -5.287644
v -2.653201 9.524148 -5.181565
v -2.708678 9.383945 4.687175
v 6.009332 3.829812 4.835519
vt 0.407200 0.021600
vt 0.508500 0.311400
vt 0.471600 0.021600
vt 0.355200 0.311400
vt 0.405900 0.024700
vt 0.509400 0.316300
vt 0.472700 0.024700
vt 0.350300 0.316300
vt 0.407200 0.026500
vt 0.506000 0.301000
vt 0.462900 0.026500
vt 0.351300 0.301000
vt 0.471600 0.012600
vt 0.345700 0.292400
vt 0.402100 0.012600
vt 0.510900 0.292400
vt 0.425300 0.486300
vt 0.348300 0.328800
vt 0.513500 0.328800
vt 0.424100 0.497200
vt 0.506800 0.331000
vt 0.352000 0.331000
vt 0.423800 0.494800
vt 0.422700 0.483900
vt 0.051200 0.206000
vt 0.051200 0.206000
vt 0.051200 0.206000
vt 0.051200 0.206000
vt 0.051200 0.206000
vt 0.051200 0.206000
vt 0.051200 0.206000
vt 0.051200 0.206000
vt 0.051200 0.206000
vt 0.051200 0.206000
vt 0.051200 0.206000
vt 0.051200 0.206000
vt 0.051200 0.206000
vt 0.051200 0.206000
vt 0.051200 0.206000
vt 0.051200 0.206000
vt 0.051200 0.206000
vt 0.051200 0.206000
vt 0.051200 0.206000
vt 0.051200 0.206000
vn -0.5188 0.5109 -0.6855
vn -0.5188 0.5109 -0.6854
vn -0.5312 0.5549 0.6402
vn -0.5312 0.5549 0.6403
vn 0.7516 0.0831 -0.6544
vn 0.7516 0.0830 -0.6543
vn 0.7515 0.0831 -0.6544
vn 0.7191 0.1170 0.6850
vn 0.6167 0.7036 -0.3530
vn 0.4716 0.8594 0.1978
vn 0.4860 0.8526 -0.1919
vn 0.5493 0.7793 0.3016
vn -1.0000 0.0000 -0.0017
vn -0.3951 0.6100 -0.6869
vn -0.4986 0.0000 -0.8668
vn -0.7924 0.6100 -0.0013
vn -0.5015 -0.0000 0.8652
vn -0.3974 0.6100 0.6856
vn 0.4986 -0.0000 0.8668
vn 0.3951 0.6100 0.6869
vn 1.0000 -0.0000 0.0018
vn 0.7924 0.6100 0.0014
vn 0.5016 0.0000 -0.8651
vn 0.3974 0.6100 -0.6855
vn -0.7924 -0.6100 -0.0013
vn -0.3951 -0.6100 -0.6869
vn 0.3974 -0.6100 -0.6855
vn 0.7924 -0.6100 0.0014
vn 0.3951 -0.6100 0.6869
vn -0.3974 -0.6100 0.6856
vn 0.0000 1.0000 -0.0000
vn 0.0000 -1.0000 -0.0000
usemtl komonoA
s 1
f 21/1/1 22/2/2 23/3/1
f 24/4/2 22/2/2 21/1/1
f 25/5/3 26/6/3 27/7/4
f 28/8/3 26/6/3 25/5/3
f 29/9/5 30/10/5 31/11/6
f 32/12/7 30/10/5 29/9/5
f 33/13/8 34/14/8 35/15/8
f 36/16/8 34/14/8 33/13/8
f 26/6/9 28/8/9 37/17/9
f 34/18/10 36/19/10 38/20/10
f 30/21/11 32/22/11 39/23/11
f 22/2/12 24/4/12 40/24/12
f 1/25/13 2/26/14 3/27/15
f 4/28/16 2/26/14 1/25/13
f 5/29/17 4/28/16 1/25/13
f 6/30/18 4/28/16 5/29/17
f 7/31/19 6/30/18 5/29/17
f 8/32/20 6/30/18 7/31/19
f 9/33/21 8/32/20 7/31/19
f 10/34/22 8/32/20 9/33/21
f 11/35/23 10/34/22 9/33/21
f 12/36/24 10/34/22 11/35/23
f 3/27/15 12/36/24 11/35/23
f 2/26/14 12/36/24 3/27/15
f 3/27/15 13/37/25 1/25/13
f 14/38/26 13/37/25 3/27/15
f 11/35/23 14/38/26 3/27/15
f 15/39/27 14/38/26 11/35/23
f 9/33/21 15/39/27 11/35/23
f 16/40/28 15/39/27 9/33/21
f 7/31/19 16/40/28 9/33/21
f 17/41/29 16/40/28 7/31/19
f 5/29/17 17/41/29 7/31/19
f 18/42/30 17/41/29 5/29/17
f 1/25/13 18/42/30 5/29/17
f 13/37/25 18/42/30 1/25/13
f 19/43/31 2/26/14 4/28/16
f 12/36/24 2/26/14 19/43/31
f 10/34/22 12/36/24 19/43/31
f 19/43/31 8/32/20 10/34/22
f 6/30/18 8/32/20 19/43/31
f 4/28/16 6/30/18 19/43/31
f 20/44/32 13/37/25 14/38/26
f 18/42/30 13/37/25 20/44/32
f 17/41/29 18/42/30 20/44/32
f 15/39/27 20/44/32 14/38/26
f 16/40/28 20/44/32 15/39/27
f 16/40/28 17/41/29 20/44/32
