mtllib GreenHillTotemWings.mtl
v -4.369603 -0.134054 3.375673
v -2.780936 0.081013 3.375673
v -5.904802 -1.026052 3.375673
v 0.345866 13.793406 2.427208 1.000000 1.000000 1.000000
v -0.387867 13.793404 4.276609 1.000000 1.000000 1.000000
v -0.387867 15.346138 6.096013 1.000000 1.000000 1.000000
v -0.387868 13.793406 2.427208 1.000000 1.000000 1.000000
v -0.387868 12.292023 -2.636859 1.000000 1.000000 1.000000
v -0.387867 15.346144 -6.032054 1.000000 1.000000 1.000000
v 0.345866 12.292023 -2.636859 1.000000 1.000000 1.000000
v 0.345867 15.346144 -6.032054 1.000000 1.000000 1.000000
v 0.345867 15.346138 6.096013 1.000000 1.000000 1.000000
v 0.345867 15.346141 -2.363258 1.000000 1.000000 1.000000
v -0.387867 15.346138 6.096013 1.000000 1.000000 1.000000
v -0.387868 15.346141 -2.363257 1.000000 1.000000 1.000000
v 0.345866 13.564752 -4.456254 1.000000 1.000000 1.000000
v -0.387867 15.346141 2.427209 1.000000 1.000000 1.000000
v -0.387868 13.564752 -4.456254 1.000000 1.000000 1.000000
v 0.345867 15.346141 2.427209 1.000000 1.000000 1.000000
v -0.387868 13.564749 2.427208 1.000000 1.000000 1.000000
v 0.345866 13.564749 2.427208 1.000000 1.000000 1.000000
v 0.345867 13.564745 4.520211 1.000000 1.000000 1.000000
v -0.387867 13.564745 4.520211 1.000000 1.000000 1.000000
v -0.387867 13.793404 4.276609 1.000000 1.000000 1.000000
v -0.387867 15.346138 6.096013 1.000000 1.000000 1.000000
v 0.345867 13.793404 4.276609 1.000000 1.000000 1.000000
v 0.345867 13.793404 4.276609 1.000000 1.000000 1.000000
v -1.693468 16.074087 -1.662252 1.000000 1.000000 1.000000
v -1.905003 0.466218 1.894137 1.000000 1.000000 1.000000
v -2.386199 16.074087 0.010081 1.000000 1.000000 1.000000
v -0.020937 0.466217 2.674471 1.000000 1.000000 1.000000
v -0.020935 16.074087 -2.354854 1.000000 1.000000 1.000000
v 1.862997 0.466218 1.894136 1.000000 1.000000 1.000000
v 1.651467 16.074087 -1.662252 1.000000 1.000000 1.000000
v 2.643330 0.466218 0.010073 1.000000 1.000000 1.000000
v 2.344199 16.074087 0.010081 1.000000 1.000000 1.000000
v 1.862997 0.466218 -1.873798 1.000000 1.000000 1.000000
v 1.651467 16.074087 1.682612 1.000000 1.000000 1.000000
v -0.020937 0.466219 -2.654193 1.000000 1.000000 1.000000
v -0.020934 16.074087 2.375412 1.000000 1.000000 1.000000
v -1.905003 0.466219 -1.873798 1.000000 1.000000 1.000000
v -1.693468 16.074087 1.682612 1.000000 1.000000 1.000000
v -2.685336 0.466219 0.010073 1.000000 1.000000 1.000000
v -1.905002 4.884481 1.894139 1.000000 1.000000 1.000000
v -0.020936 4.884481 2.674473 1.000000 1.000000 1.000000
v 1.862998 4.884480 1.894139 1.000000 1.000000 1.000000
v 2.643332 4.884481 0.010075 1.000000 1.000000 1.000000
v 1.862998 4.884483 -1.873795 1.000000 1.000000 1.000000
v -0.020936 4.884483 -2.654191 1.000000 1.000000 1.000000
v -1.905003 4.884483 -1.873795 1.000000 1.000000 1.000000
v -2.685335 4.884482 0.010075 1.000000 1.000000 1.000000
v -1.736667 5.299887 1.725875 1.000000 1.000000 1.000000
v -0.020936 5.299887 2.436472 1.000000 1.000000 1.000000
v 1.694665 5.299886 1.725875 1.000000 1.000000 1.000000
v 2.405331 5.299887 0.010075 1.000000 1.000000 1.000000
v 1.694664 5.299889 -1.705527 1.000000 1.000000 1.000000
v -0.020936 5.299889 -2.416194 1.000000 1.000000 1.000000
v -1.736667 5.299889 -1.705527 1.000000 1.000000 1.000000
v -2.447335 5.299888 0.010075 1.000000 1.000000 1.000000
v -1.905001 11.182078 1.894142 1.000000 1.000000 1.000000
v -0.020935 11.182078 2.674477 1.000000 1.000000 1.000000
v 1.862999 11.182078 1.894142 1.000000 1.000000 1.000000
v 2.643332 11.182078 0.010078 1.000000 1.000000 1.000000
v 1.862999 11.182078 -1.873792 1.000000 1.000000 1.000000
v -0.020935 11.182078 -2.654188 1.000000 1.000000 1.000000
v -1.905001 11.182078 -1.873792 1.000000 1.000000 1.000000
v -2.685333 11.182078 0.010078 1.000000 1.000000 1.000000
v -1.905001 15.684215 1.894145 1.000000 1.000000 1.000000
v -1.693468 16.074087 1.682612 1.000000 1.000000 1.000000
v -0.020934 15.684215 2.674479 1.000000 1.000000 1.000000
v -0.020934 16.074087 2.375412 1.000000 1.000000 1.000000
v 1.863000 15.684215 1.894143 1.000000 1.000000 1.000000
v 1.651467 16.074087 1.682612 1.000000 1.000000 1.000000
v 2.643333 15.684215 0.010081 1.000000 1.000000 1.000000
v 2.344199 16.074087 0.010081 1.000000 1.000000 1.000000
v 1.863000 15.684215 -1.873791 1.000000 1.000000 1.000000
v 1.651467 16.074087 -1.662252 1.000000 1.000000 1.000000
v -0.020935 15.684215 -2.654185 1.000000 1.000000 1.000000
v -0.020935 16.074087 -2.354854 1.000000 1.000000 1.000000
v -1.905001 15.684215 -1.873791 1.000000 1.000000 1.000000
v -2.386199 16.074087 0.010081 1.000000 1.000000 1.000000
v -2.685333 15.684215 0.010081 1.000000 1.000000 1.000000
v -1.693468 16.074087 -1.662252 1.000000 1.000000 1.000000
v -0.387868 13.564749 -2.363258 1.000000 1.000000 1.000000
v 0.345866 13.564749 -2.363259 1.000000 1.000000 1.000000
v 0.345866 12.292023 -2.363258 1.000000 1.000000 1.000000
v -0.387868 12.292023 -2.363258 1.000000 1.000000 1.000000
v 0.345866 13.793406 -2.363259 1.000000 1.000000 1.000000
v -0.387868 13.793406 -2.363258 1.000000 1.000000 1.000000
v -0.387868 13.793409 -4.212654 1.000000 1.000000 1.000000
v 0.345866 13.793409 -4.212654 1.000000 1.000000 1.000000
v 0.345867 15.346144 -6.032054 1.000000 1.000000 1.000000
v -0.387868 13.793409 -4.212654 1.000000 1.000000 1.000000
v -0.387867 15.346144 -6.032054 1.000000 1.000000 1.000000
v 0.345866 13.793409 -4.212654 1.000000 1.000000 1.000000
v 0.345866 13.564752 -4.456254 1.000000 1.000000 1.000000
v -0.387868 12.292023 -2.636859 1.000000 1.000000 1.000000
v -0.387868 13.564752 -4.456254 1.000000 1.000000 1.000000
v 0.345866 12.292023 -2.636859 1.000000 1.000000 1.000000
v -0.387868 13.564749 -2.363258 1.000000 1.000000 1.000000
v -0.387868 12.292023 -2.363258 1.000000 1.000000 1.000000
v -0.387868 12.292023 -2.636859 1.000000 1.000000 1.000000
v -0.387868 13.564752 -4.456254 1.000000 1.000000 1.000000
v -0.387868 15.346141 -2.363257 1.000000 1.000000 1.000000
v -0.387868 13.793406 -2.363258 1.000000 1.000000 1.000000
v -0.387868 13.793409 -4.212654 1.000000 1.000000 1.000000
v -0.387867 15.346144 -6.032054 1.000000 1.000000 1.000000
v 0.345866 12.292023 -2.363258 1.000000 1.000000 1.000000
v 0.345866 13.564749 -2.363259 1.000000 1.000000 1.000000
v 0.345866 13.564752 -4.456254 1.000000 1.000000 1.000000
v 0.345866 12.292023 -2.636859 1.000000 1.000000 1.000000
v 0.345866 13.793406 -2.363259 1.000000 1.000000 1.000000
v 0.345867 15.346141 -2.363258 1.000000 1.000000 1.000000
v 0.345867 15.346144 -6.032054 1.000000 1.000000 1.000000
v 0.345866 13.793409 -4.212654 1.000000 1.000000 1.000000
v -0.020934 16.074087 0.010081 1.000000 1.000000 1.000000
v -2.430402 10.749350 0.010078 1.000000 1.000000 1.000000
v -1.724601 10.749350 -1.693392 1.000000 1.000000 1.000000
v -0.020935 10.749350 -2.398990 1.000000 1.000000 1.000000
v 1.682532 10.749350 -1.693392 1.000000 1.000000 1.000000
v 2.388399 10.749350 0.010078 1.000000 1.000000 1.000000
v 1.682532 10.749350 1.713742 1.000000 1.000000 1.000000
v -0.020935 10.749350 2.419542 1.000000 1.000000 1.000000
v -1.724602 10.749350 1.713742 1.000000 1.000000 1.000000
v -2.685334 10.338747 0.010078 1.000000 1.000000 1.000000
v -1.905001 10.338746 -1.873792 1.000000 1.000000 1.000000
v -0.020935 10.338747 -2.654188 1.000000 1.000000 1.000000
v 1.862999 10.338746 -1.873792 1.000000 1.000000 1.000000
v 2.643332 10.338745 0.010078 1.000000 1.000000 1.000000
v 1.862999 10.338746 1.894142 1.000000 1.000000 1.000000
v -0.020935 10.338745 2.674476 1.000000 1.000000 1.000000
v -1.905001 10.338746 1.894142 1.000000 1.000000 1.000000
v -2.685334 8.033683 0.010076 1.000000 1.000000 1.000000
v -1.905002 8.033682 -1.873794 1.000000 1.000000 1.000000
v -0.020936 8.033683 -2.654190 1.000000 1.000000 1.000000
v 1.862999 8.033682 -1.873794 1.000000 1.000000 1.000000
v 2.643332 8.033682 0.010076 1.000000 1.000000 1.000000
v 1.862999 8.033682 1.894140 1.000000 1.000000 1.000000
v -0.020935 8.033682 2.674474 1.000000 1.000000 1.000000
v -1.905001 8.033682 1.894140 1.000000 1.000000 1.000000
v -2.685335 5.700420 0.010075 1.000000 1.000000 1.000000
v -1.905003 5.700420 -1.873795 1.000000 1.000000 1.000000
v -0.020936 5.700421 -2.654191 1.000000 1.000000 1.000000
v 1.862998 5.700420 -1.873795 1.000000 1.000000 1.000000
v 2.643332 5.700419 0.010075 1.000000 1.000000 1.000000
v 1.862998 5.700418 1.894139 1.000000 1.000000 1.000000
v -0.020936 5.700418 2.674473 1.000000 1.000000 1.000000
v -1.905002 5.700418 1.894139 1.000000 1.000000 1.000000
v -2.447335 5.299888 0.010075 1.000000 1.000000 1.000000
v -1.736667 5.299889 -1.705527 1.000000 1.000000 1.000000
v -0.020936 5.299889 -2.416194 1.000000 1.000000 1.000000
v 1.694664 5.299889 -1.705527 1.000000 1.000000 1.000000
v 2.405331 5.299887 0.010075 1.000000 1.000000 1.000000
v 1.694665 5.299886 1.725875 1.000000 1.000000 1.000000
v -0.020936 5.299887 2.436472 1.000000 1.000000 1.000000
v -1.736667 5.299887 1.725875 1.000000 1.000000 1.000000
v -2.430402 10.749350 0.010078 1.000000 1.000000 1.000000
v -1.724601 10.749350 -1.693392 1.000000 1.000000 1.000000
v -0.020935 10.749350 -2.398990 1.000000 1.000000 1.000000
v 1.682532 10.749350 -1.693392 1.000000 1.000000 1.000000
v 2.388399 10.749350 0.010078 1.000000 1.000000 1.000000
v 1.682532 10.749350 1.713742 1.000000 1.000000 1.000000
v -0.020935 10.749350 2.419542 1.000000 1.000000 1.000000
v -1.724602 10.749350 1.713742 1.000000 1.000000 1.000000
v -2.257603 -0.006580 0.010073 1.000000 1.000000 1.000000
v -1.602536 -0.006580 -1.571328 1.000000 1.000000 1.000000
v -0.020937 -0.006580 -2.226464 1.000000 1.000000 1.000000
v 1.560464 -0.006580 -1.571328 1.000000 1.000000 1.000000
v 2.215597 -0.006581 0.010073 1.000000 1.000000 1.000000
v 1.560464 -0.006581 1.591671 1.000000 1.000000 1.000000
v -0.020937 -0.006582 2.246802 1.000000 1.000000 1.000000
v -1.602536 -0.006580 1.591671 1.000000 1.000000 1.000000
v 0.345867 13.793404 4.276609 1.000000 1.000000 1.000000
v 0.345867 15.346138 6.096013 1.000000 1.000000 1.000000
v 0.345867 15.346141 2.427209 1.000000 1.000000 1.000000
v 0.345866 13.793406 2.427208 1.000000 1.000000 1.000000
v 0.345866 12.292023 2.700808 1.000000 1.000000 1.000000
v 0.345867 13.564745 4.520211 1.000000 1.000000 1.000000
v 0.345866 13.564749 2.427208 1.000000 1.000000 1.000000
v 0.345866 12.292023 2.427208 1.000000 1.000000 1.000000
v -0.387867 13.793404 4.276609 1.000000 1.000000 1.000000
v 0.345867 15.346138 6.096013 1.000000 1.000000 1.000000
v 0.345866 12.292023 2.700808 1.000000 1.000000 1.000000
v -0.387867 13.564745 4.520211 1.000000 1.000000 1.000000
v -0.387868 12.292023 2.700808 1.000000 1.000000 1.000000
v 0.345867 13.564745 4.520211 1.000000 1.000000 1.000000
v -0.387868 13.793406 2.427208 1.000000 1.000000 1.000000
v -0.387867 15.346141 2.427209 1.000000 1.000000 1.000000
v -0.387867 13.564745 4.520211 1.000000 1.000000 1.000000
v -0.387868 12.292023 2.700808 1.000000 1.000000 1.000000
v -0.387868 12.292023 2.427208 1.000000 1.000000 1.000000
v -0.387868 13.564749 2.427208 1.000000 1.000000 1.000000
v 0.345866 12.292023 2.700808 1.000000 1.000000 1.000000
v -0.387868 12.292023 2.700808 1.000000 1.000000 1.000000
v -0.387868 12.292023 2.427208 1.000000 1.000000 1.000000
v 0.345866 12.292023 2.427208 1.000000 1.000000 1.000000
vt 0.558600 0.398300
vt 0.550500 0.398300
vt 0.558600 0.436200
vt 0.496200 0.436200
vt 0.558600 0.489400
vt 0.449100 0.489400
vt 0.558600 0.443100
vt 0.503400 0.443100
vt 0.275306 0.513200
vt 0.325400 0.513200
vt 0.275306 0.528100
vt 0.325400 0.528100
vt 0.379400 0.513200
vt 0.379400 0.528100
vt 0.433500 0.513200
vt 0.433500 0.528100
vt 0.487500 0.513200
vt 0.487500 0.528100
vt 0.541500 0.513200
vt 0.541500 0.528100
vt 0.595500 0.513200
vt 0.595500 0.528100
vt 0.649500 0.513200
vt 0.649500 0.528100
vt 0.698617 0.513200
vt 0.698617 0.528100
vt 0.275306 0.649700
vt 0.325400 0.649700
vt 0.379400 0.649700
vt 0.433500 0.649700
vt 0.487500 0.649700
vt 0.541500 0.649700
vt 0.595500 0.649700
vt 0.649500 0.649700
vt 0.698617 0.649700
vt 0.275306 0.665400
vt 0.325400 0.665400
vt 0.379400 0.665400
vt 0.433500 0.665400
vt 0.487500 0.665400
vt 0.541500 0.665400
vt 0.595500 0.665400
vt 0.649500 0.665400
vt 0.698617 0.665400
vt 0.275306 0.823500
vt 0.325400 0.823500
vt 0.275306 0.838600
vt 0.325400 0.838600
vt 0.379400 0.823500
vt 0.379400 0.838600
vt 0.433500 0.823500
vt 0.433500 0.838600
vt 0.487500 0.823500
vt 0.487500 0.838600
vt 0.541500 0.823500
vt 0.541500 0.838600
vt 0.595500 0.823500
vt 0.595500 0.838600
vt 0.649500 0.823500
vt 0.649500 0.838600
vt 0.698617 0.823500
vt 0.698617 0.838600
vt 0.275306 0.979000
vt 0.325400 0.979000
vt 0.379400 0.979000
vt 0.433500 0.979000
vt 0.487500 0.979000
vt 0.541500 0.979000
vt 0.595500 0.979000
vt 0.649500 0.979000
vt 0.698617 0.979000
vt 0.275306 0.993600
vt 0.325400 0.993600
vt 0.379400 0.993600
vt 0.433500 0.993600
vt 0.487500 0.993600
vt 0.541500 0.993600
vt 0.595500 0.993600
vt 0.649500 0.993600
vt 0.698617 0.993600
vt 0.776800 0.673300
vt 0.733300 0.716800
vt 0.715300 0.673300
vt 0.776800 0.734800
vt 0.820300 0.716800
vt 0.838300 0.673300
vt 0.820300 0.629800
vt 0.776800 0.611700
vt 0.733300 0.629800
vt 0.698617 0.808300
vt 0.649500 0.808300
vt 0.595500 0.808300
vt 0.541500 0.808300
vt 0.487500 0.808300
vt 0.433500 0.808300
vt 0.379400 0.808300
vt 0.325400 0.808300
vt 0.275306 0.808300
vt 0.698617 0.745400
vt 0.649500 0.745400
vt 0.595500 0.745400
vt 0.541500 0.745400
vt 0.487500 0.745400
vt 0.433500 0.745400
vt 0.379400 0.745400
vt 0.325400 0.745400
vt 0.275306 0.745400
vt 0.698617 0.681100
vt 0.649500 0.681100
vt 0.595500 0.681100
vt 0.541500 0.681100
vt 0.487500 0.681100
vt 0.433500 0.681100
vt 0.379400 0.681100
vt 0.325400 0.681100
vt 0.275306 0.681100
vn -1.000000 0.000000 0.000000
vn -0.999969 0.000000 0.000000
vn 0.999969 0.000000 0.000000
vn 1.000000 0.000000 0.000000
vn 0.000000 -1.000000 0.000000
vn 0.000000 -0.819391 0.573199
vn 0.000000 -0.999969 0.000000
vn 0.000000 0.999969 0.000000
vn 0.000000 1.000000 0.000000
vn 0.000000 -0.760643 -0.649159
vn 0.000000 -0.819391 -0.573199
vn 0.000000 -0.760643 0.649159
vn -0.741539 -0.670858 0.000000
vn -0.524338 -0.670888 0.524338
vn -0.942900 -0.333018 0.000000
vn -0.666738 -0.333018 0.666707
vn 0.000031 -0.670827 0.741600
vn 0.000000 -0.332987 0.942900
vn 0.524308 -0.670919 0.524338
vn 0.666738 -0.333048 0.666707
vn 0.741539 -0.670858 -0.000031
vn 0.942900 -0.333018 0.000000
vn 0.524308 -0.670919 -0.524308
vn 0.666738 -0.333048 -0.666707
vn 0.000000 -0.670858 -0.741539
vn 0.000000 -0.333018 -0.942900
vn -0.524338 -0.670888 -0.524338
vn -0.666707 -0.333018 -0.666738
vn -0.970031 0.242836 0.000000
vn -0.685934 0.242866 0.685903
vn 0.000000 0.242836 0.970031
vn 0.685934 0.242866 0.685903
vn 0.970031 0.242836 0.000000
vn 0.685934 0.242866 -0.685903
vn 0.000000 0.242836 -0.970031
vn -0.685934 0.242866 -0.685903
vn -0.867672 0.497116 0.000000
vn -0.613483 0.497116 0.613544
vn 0.000000 0.497116 0.867672
vn 0.613514 0.497116 0.613544
vn 0.867672 0.497116 0.000000
vn 0.613514 0.497116 -0.613544
vn 0.000000 0.497116 -0.867672
vn -0.613483 0.497116 -0.613544
vn -0.861568 -0.507584 0.000000
vn -0.609149 -0.507828 0.609088
vn -0.968719 -0.248085 0.000000
vn -0.684957 -0.248207 0.684957
vn 0.000031 -0.507614 0.861568
vn 0.000000 -0.248085 0.968719
vn 0.609027 -0.507920 0.609149
vn 0.684957 -0.248238 0.684957
vn 0.861568 -0.507614 -0.000061
vn 0.968719 -0.248085 -0.000031
vn 0.609058 -0.507889 -0.609119
vn 0.684957 -0.248268 -0.684957
vn 0.000000 -0.507950 -0.861354
vn 0.000000 -0.248268 -0.968657
vn -0.609058 -0.507859 -0.609149
vn -0.684957 -0.248207 -0.684988
vn -0.953978 0.299783 0.000000
vn -0.674551 0.299783 0.674551
vn 0.000000 0.299753 0.954009
vn 0.674581 0.299783 0.674551
vn 0.953978 0.299783 0.000000
vn 0.674581 0.299814 -0.674551
vn 0.000000 0.299905 -0.953948
vn -0.674551 0.299814 -0.674581
vn -0.793359 0.608722 0.000000
vn -0.560991 0.608722 0.560991
vn 0.000000 0.608631 0.793420
vn 0.560991 0.608722 0.560961
vn 0.793359 0.608722 0.000000
vn 0.560961 0.608753 -0.560961
vn 0.000000 0.608936 -0.793176
vn -0.560930 0.608753 -0.560991
vn -0.600574 0.527726 -0.600635
vn -0.966094 0.258095 -0.000031
vn -0.849544 0.527482 -0.000031
vn -0.683096 0.258217 -0.683126
vn 0.000000 0.527848 -0.849300
vn 0.000000 0.258278 -0.966063
vn 0.600513 0.527818 -0.600635
vn 0.683096 0.258248 -0.683096
vn 0.849544 0.527482 0.000031
vn 0.966094 0.258095 0.000000
vn 0.600604 0.527787 0.600543
vn 0.683126 0.258248 0.683065
vn 0.000000 0.527482 0.849544
vn 0.000000 0.258095 0.966094
vn -0.600574 0.527726 0.600635
vn -0.683096 0.258217 0.683126
vn -0.707083 0.000000 -0.707083
vn 0.000000 0.000000 -1.000000
vn 0.707083 0.000000 -0.707083
vn 0.707114 0.000000 0.707083
vn 0.000000 0.000000 0.999969
vn -0.707083 0.000000 0.707083
vn -0.968291 -0.249702 0.000000
vn -0.684683 -0.249702 -0.684683
vn 0.000000 -0.249702 -0.968291
vn 0.684713 -0.249702 -0.684683
vn 0.968291 -0.249702 0.000000
vn 0.684713 -0.249702 0.684683
vn 0.000000 -0.249702 0.968291
vn -0.684683 -0.249702 0.684683
vn -0.859676 -0.510819 0.000000
vn -0.607837 -0.510849 -0.607898
vn 0.000000 -0.510819 -0.859676
vn 0.607837 -0.510819 -0.607868
vn 0.859676 -0.510819 0.000000
vn 0.607837 -0.510819 0.607868
vn 0.000000 -0.510819 0.859676
vn -0.607837 -0.510819 0.607898
usemtl happa5
f 191/1/1 190/2/1 192/3/2
f 192/3/2 190/2/1 189/4/1
f 179/3/3 178/4/4 180/1/4
f 180/1/4 178/4/4 177/2/4
f 196/1/5 193/2/5 195/1/5
f 195/1/5 193/2/5 194/2/5
f 175/5/4 174/6/4 176/7/3
f 176/7/3 174/6/4 173/8/4
f 186/4/6 184/4/6 183/2/6
f 183/2/6 184/4/6 185/2/6
f 88/7/5 89/7/5 91/8/5
f 89/7/5 90/8/5 91/8/5
f 86/1/5 87/1/7 10/2/7
f 87/1/7 8/2/5 10/2/7
f 13/5/8 11/6/9 9/6/9
f 15/5/8 13/5/8 9/6/9
f 109/3/4 108/1/4 110/4/3
f 108/1/4 111/2/3 110/4/3
f 92/6/10 95/8/10 94/6/10
f 95/8/10 93/8/10 94/6/10
f 84/3/9 85/3/8 18/4/9
f 85/3/8 16/4/9 18/4/9
f 96/4/11 99/2/11 98/4/11
f 99/2/11 97/2/11 98/4/11
f 105/7/1 104/5/2 106/8/2
f 104/5/2 107/6/1 106/8/2
f 187/7/1 5/8/1 188/5/1
f 188/5/1 5/8/1 25/6/1
f 20/3/8 23/4/9 21/3/9
f 21/3/9 23/4/9 22/4/9
f 4/7/5 27/8/5 7/7/7
f 7/7/7 27/8/5 24/8/5
f 17/5/9 14/6/9 19/5/9
f 19/5/9 14/6/9 12/6/9
f 182/6/12 6/6/12 26/8/12
f 26/8/12 6/6/12 181/8/12
f 165/9/13 172/10/14 43/11/15
f 43/11/15 172/10/14 29/12/16
f 172/10/14 171/13/17 29/12/16
f 29/12/16 171/13/17 31/14/18
f 171/13/17 170/15/19 31/14/18
f 31/14/18 170/15/19 33/16/20
f 170/15/19 169/17/21 33/16/20
f 33/16/20 169/17/21 35/18/22
f 169/17/21 168/19/23 35/18/22
f 35/18/22 168/19/23 37/20/24
f 168/19/23 167/21/25 37/20/24
f 37/20/24 167/21/25 39/22/26
f 167/21/25 166/23/27 39/22/26
f 39/22/26 166/23/27 41/24/28
f 166/23/27 165/25/13 41/24/28
f 41/24/28 165/25/13 43/26/15
f 43/11/15 29/12/16 51/27/29
f 51/27/29 29/12/16 44/28/30
f 29/12/16 31/14/18 44/28/30
f 44/28/30 31/14/18 45/29/31
f 31/14/18 33/16/20 45/29/31
f 45/29/31 33/16/20 46/30/32
f 33/16/20 35/18/22 46/30/32
f 46/30/32 35/18/22 47/31/33
f 35/18/22 37/20/24 47/31/33
f 47/31/33 37/20/24 48/32/34
f 37/20/24 39/22/26 48/32/34
f 48/32/34 39/22/26 49/33/35
f 39/22/26 41/24/28 49/33/35
f 49/33/35 41/24/28 50/34/36
f 41/24/28 43/26/15 50/34/36
f 50/34/36 43/26/15 51/35/29
f 51/27/29 44/28/30 59/36/37
f 59/36/37 44/28/30 52/37/38
f 44/28/30 45/29/31 52/37/38
f 52/37/38 45/29/31 53/38/39
f 45/29/31 46/30/32 53/38/39
f 53/38/39 46/30/32 54/39/40
f 46/30/32 47/31/33 54/39/40
f 54/39/40 47/31/33 55/40/41
f 47/31/33 48/32/34 55/40/41
f 55/40/41 48/32/34 56/41/42
f 48/32/34 49/33/35 56/41/42
f 56/41/42 49/33/35 57/42/43
f 49/33/35 50/34/36 57/42/43
f 57/42/43 50/34/36 58/43/44
f 50/34/36 51/35/29 58/43/44
f 58/43/44 51/35/29 59/44/37
f 157/45/45 164/46/46 67/47/47
f 67/47/47 164/46/46 60/48/48
f 164/46/46 163/49/49 60/48/48
f 60/48/48 163/49/49 61/50/50
f 163/49/49 162/51/51 61/50/50
f 61/50/50 162/51/51 62/52/52
f 162/51/51 161/53/53 62/52/52
f 62/52/52 161/53/53 63/54/54
f 161/53/53 160/55/55 63/54/54
f 63/54/54 160/55/55 64/56/56
f 160/55/55 159/57/57 64/56/56
f 64/56/56 159/57/57 65/58/58
f 159/57/57 158/59/59 65/58/58
f 65/58/58 158/59/59 66/60/60
f 158/59/59 157/61/45 66/60/60
f 66/60/60 157/61/45 67/62/47
f 67/47/47 60/48/48 82/63/61
f 82/63/61 60/48/48 68/64/62
f 60/48/48 61/50/50 68/64/62
f 68/64/62 61/50/50 70/65/63
f 61/50/50 62/52/52 70/65/63
f 70/65/63 62/52/52 72/66/64
f 62/52/52 63/54/54 72/66/64
f 72/66/64 63/54/54 74/67/65
f 63/54/54 64/56/56 74/67/65
f 74/67/65 64/56/56 76/68/66
f 64/56/56 65/58/58 76/68/66
f 76/68/66 65/58/58 78/69/67
f 65/58/58 66/60/60 78/69/67
f 78/69/67 66/60/60 80/70/68
f 66/60/60 67/62/47 80/70/68
f 80/70/68 67/62/47 82/71/61
f 82/63/61 68/64/62 81/72/69
f 81/72/69 68/64/62 69/73/70
f 68/64/62 70/65/63 69/73/70
f 69/73/70 70/65/63 71/74/71
f 70/65/63 72/66/64 71/74/71
f 71/74/71 72/66/64 73/75/72
f 72/66/64 74/67/65 73/75/72
f 73/75/72 74/67/65 75/76/73
f 74/67/65 76/68/66 75/76/73
f 75/76/73 76/68/66 77/77/74
f 76/68/66 78/69/67 77/77/74
f 77/77/74 78/69/67 79/78/75
f 78/69/67 80/70/68 79/78/75
f 79/78/75 80/70/68 83/79/76
f 80/70/68 82/71/61 83/79/76
f 83/79/76 82/71/61 81/80/69
f 101/1/2 100/3/2 102/2/2
f 100/3/2 103/4/1 102/2/2
f 113/5/4 112/7/3 114/6/4
f 112/7/3 115/8/4 114/6/4
f 116/81/9 42/82/9 40/83/9
f 30/84/9 42/82/9 116/81/9
f 28/85/9 30/84/9 116/81/9
f 116/81/9 32/86/9 28/85/9
f 34/87/9 32/86/9 116/81/9
f 36/88/9 34/87/9 116/81/9
f 116/81/9 38/89/9 36/88/9
f 40/83/9 38/89/9 116/81/9
f 118/59/77 125/90/78 117/61/79
f 126/91/80 125/90/78 118/59/77
f 119/57/81 126/91/80 118/59/77
f 127/92/82 126/91/80 119/57/81
f 120/55/83 127/92/82 119/57/81
f 128/93/84 127/92/82 120/55/83
f 121/53/85 128/93/84 120/55/83
f 129/94/86 128/93/84 121/53/85
f 122/51/87 129/94/86 121/53/85
f 130/95/88 129/94/86 122/51/87
f 123/49/89 130/95/88 122/51/87
f 131/96/90 130/95/88 123/49/89
f 124/46/91 131/96/90 123/49/89
f 132/97/92 131/96/90 124/46/91
f 117/45/79 132/97/92 124/46/91
f 125/98/78 132/97/92 117/45/79
f 126/91/80 133/99/1 125/90/78
f 134/100/93 133/99/1 126/91/80
f 127/92/82 134/100/93 126/91/80
f 135/101/94 134/100/93 127/92/82
f 128/93/84 135/101/94 127/92/82
f 136/102/95 135/101/94 128/93/84
f 129/94/86 136/102/95 128/93/84
f 137/103/4 136/102/95 129/94/86
f 130/95/88 137/103/4 129/94/86
f 138/104/96 137/103/4 130/95/88
f 131/96/90 138/104/96 130/95/88
f 139/105/97 138/104/96 131/96/90
f 132/97/92 139/105/97 131/96/90
f 140/106/98 139/105/97 132/97/92
f 125/98/78 140/106/98 132/97/92
f 133/107/1 140/106/98 125/98/78
f 134/100/93 141/108/99 133/99/1
f 142/109/100 141/108/99 134/100/93
f 135/101/94 142/109/100 134/100/93
f 143/110/101 142/109/100 135/101/94
f 136/102/95 143/110/101 135/101/94
f 144/111/102 143/110/101 136/102/95
f 137/103/4 144/111/102 136/102/95
f 145/112/103 144/111/102 137/103/4
f 138/104/96 145/112/103 137/103/4
f 146/113/104 145/112/103 138/104/96
f 139/105/97 146/113/104 138/104/96
f 147/114/105 146/113/104 139/105/97
f 140/106/98 147/114/105 139/105/97
f 148/115/106 147/114/105 140/106/98
f 133/107/1 148/115/106 140/106/98
f 141/116/99 148/115/106 133/107/1
f 142/109/100 149/44/107 141/108/99
f 150/43/108 149/44/107 142/109/100
f 143/110/101 150/43/108 142/109/100
f 151/42/109 150/43/108 143/110/101
f 144/111/102 151/42/109 143/110/101
f 152/41/110 151/42/109 144/111/102
f 145/112/103 152/41/110 144/111/102
f 153/40/111 152/41/110 145/112/103
f 146/113/104 153/40/111 145/112/103
f 154/39/112 153/40/111 146/113/104
f 147/114/105 154/39/112 146/113/104
f 155/38/113 154/39/112 147/114/105
f 148/115/106 155/38/113 147/114/105
f 156/37/114 155/38/113 148/115/106
f 141/116/99 156/37/114 148/115/106
f 149/36/107 156/37/114 141/116/99
