# Blender v2.78 (sub 0) OBJ File: ''
# www.blender.org
mtllib GreenHillSwingPlatform.mtl
v 8.282847 -1.077713 15.240127
v -8.324330 1.145892 15.240127
v -8.324330 -1.077711 15.240127
v 8.282847 1.145890 15.240127
v -8.324332 -1.077706 -14.991975
v 8.282846 1.145894 -14.991975
v 8.282845 -1.077709 -14.991975
v -8.324331 1.145896 -14.991975
vt 0.5805 0.4130
vt 0.9596 0.4713
vt 0.9596 0.4130
vt 0.5805 0.4713
vt 0.5831 0.4130
vt 0.9621 0.4713
vt 0.9621 0.4130
vt 0.5831 0.4713
vt 0.5443 0.4713
vt 0.9951 0.4713
vt 0.9951 0.4713
vt 0.5443 0.4713
vt 0.5485 0.4713
vt 0.9900 0.4130
vt 0.9900 0.4713
vt 0.5485 0.4130
vt 0.5443 0.4713
vt 0.9951 0.4713
vt 0.9951 0.4713
vt 0.5443 0.4713
vt 0.5375 0.4130
vt 0.9967 0.4713
vt 0.9967 0.4130
vt 0.5375 0.4713
vn 0.0000 0.0000 1.0000
vn 0.0000 0.0000 -1.0000
vn -0.0000 -1.0000 -0.0000
vn -1.0000 0.0000 0.0000
vn 0.0000 1.0000 0.0000
vn 1.0000 0.0000 -0.0000
usemtl bridgeMat
s 1
f 1/1/1 2/2/1 3/3/1
f 4/4/1 2/2/1 1/1/1
f 5/5/2 6/6/2 7/7/2
f 8/8/2 6/6/2 5/5/2
f 5/9/3 1/10/3 3/11/3
f 7/12/3 1/10/3 5/9/3
f 8/13/4 3/14/4 2/15/4
f 5/16/4 3/14/4 8/13/4
f 6/17/5 2/18/5 4/19/5
f 8/20/5 2/18/5 6/17/5
f 7/21/6 4/22/6 1/23/6
f 6/24/6 4/22/6 7/21/6
