# Blender v2.78 (sub 0) OBJ File: ''
# www.blender.org
mtllib GreenHillGrass.mtl
v 0.793283 1.086781 -0.076994
v 0.627783 1.309071 -0.018279
v 0.000183 1.309071 0.609316
v 0.058883 1.086781 -0.811674
v 0.067484 0.913777 -0.931578
v -0.913216 0.913777 0.049104
v -0.727017 0.619374 -0.018278
v 0.000183 0.619374 0.708620
v 0.726984 0.619374 -0.018278
v -0.067517 0.913777 0.894807
v 0.913483 0.913777 -0.085997
v -0.058617 1.086781 0.774812
v -0.793316 1.086781 0.040407
v -0.627516 1.309071 -0.018278
v 0.000183 0.619374 -0.745177
v 0.000183 1.309071 -0.645872
v 0.000185 12.594471 2.431034
v 1.246685 12.594471 -0.018276
v 0.000185 12.594471 -2.467770
v -1.246716 12.594471 -0.018276
v 0.000185 16.617479 -0.018275
v 0.793283 1.044880 0.256227
v 0.627783 1.228871 0.393831
v 0.000183 0.993779 0.975832
v 0.058883 1.319981 -0.424773
v 0.067484 1.204472 -0.600890
v -0.913216 0.837178 0.308504
v -0.727017 0.589482 0.135805
v 0.000183 0.317174 0.809511
v 0.726984 0.589482 0.135805
v -0.067517 0.520177 1.092714
v 0.913483 0.887776 0.183321
v -0.058617 0.725575 1.046327
v -0.793316 1.000981 0.365328
v -0.627516 1.228871 0.393831
v 0.000183 0.861775 -0.538298
v 0.000183 1.463978 -0.187987
v 0.000185 10.775073 6.892521
v 1.246685 11.692676 4.621616
v 0.000185 12.610172 2.350407
v -1.246716 11.692676 4.621616
v 0.000185 15.422580 6.128513
v 0.793283 0.881077 0.549532
v 0.627783 1.000172 0.746309
v 0.000183 0.564076 1.197511
v 0.058884 1.391286 0.021120
v 0.067484 1.350178 -0.185484
v -0.913216 0.668874 0.520204
v -0.727017 0.504185 0.267122
v 0.000183 -0.000926 0.790224
v 0.726984 0.504185 0.267122
v -0.067517 0.081181 1.128816
v 0.913483 0.762776 0.423128
v -0.058617 0.289281 1.162630
v -0.793316 0.799382 0.633913
v -0.627516 1.000172 0.746309
v 0.000183 1.009083 -0.255583
v 0.000183 1.435979 0.294832
v 0.000184 7.416674 10.347720
v 1.246685 9.118182 8.585911
v 0.000185 10.819583 6.823734
v -1.246716 9.118182 8.585911
v 0.000185 11.224382 10.619724
v 0.793283 1.000981 -0.401793
v 0.627783 1.228871 -0.430571
v 0.000183 1.463978 0.151125
v 0.058883 0.725575 -1.083098
v 0.067484 0.520177 -1.129576
v -0.913216 0.887776 -0.220091
v -0.727017 0.589482 -0.172270
v 0.000183 0.861775 0.501405
v 0.726984 0.589482 -0.172270
v -0.067517 1.204472 0.564302
v 0.913483 0.837178 -0.345396
v -0.058617 1.319981 0.388216
v -0.793316 1.044881 -0.293089
v -0.627516 1.228871 -0.430571
v 0.000183 0.317174 -0.846373
v 0.000183 0.993779 -1.012694
v 0.000185 12.610172 -2.387295
v 1.246685 11.692677 -4.658169
v 0.000184 10.775075 -6.929073
v -1.246716 11.692677 -4.658169
v 0.000185 15.422582 -6.165278
v 0.793283 0.799382 -0.670775
v 0.627783 1.000172 -0.782896
v 0.000183 1.435979 -0.331389
v 0.058883 0.289281 -1.199187
v 0.067483 0.081181 -1.165282
v -0.913216 0.762776 -0.459685
v -0.727017 0.504185 -0.303984
v 0.000183 1.009083 0.218813
v 0.726984 0.504185 -0.303984
v -0.067516 1.350178 0.148622
v 0.913483 0.668873 -0.556975
v -0.058617 1.391286 -0.057982
v -0.793316 0.881078 -0.586272
v -0.627516 1.000172 -0.782896
v 0.000183 -0.000926 -0.827086
v 0.000183 0.564076 -1.234373
v 0.000184 10.819585 -6.860592
v 1.246684 9.118184 -8.622372
v 0.000183 7.416678 -10.384488
v -1.246716 9.118184 -8.622372
v 0.000184 11.224386 -10.656490
vt 0.3062 0.3122
vt 0.3073 0.3079
vt 0.3195 0.3079
vt 0.2919 0.3122
vt 0.2895 0.3156
vt 0.3086 0.3156
vt 0.3073 0.3213
vt 0.3215 0.3213
vt 0.3073 0.3213
vt 0.3251 0.3156
vt 0.3060 0.3156
vt 0.3228 0.3122
vt 0.3085 0.3122
vt 0.3073 0.3079
vt 0.2932 0.3213
vt 0.2951 0.3079
vt 0.3550 0.0881
vt 0.3073 0.0881
vt 0.2596 0.0881
vt 0.3073 0.0881
vt 0.3073 0.0098
vt 0.3094 0.3105
vt 0.3082 0.3061
vt 0.2960 0.3061
vt 0.3237 0.3105
vt 0.3260 0.3138
vt 0.3069 0.3138
vt 0.3082 0.3196
vt 0.2941 0.3196
vt 0.3082 0.3196
vt 0.2904 0.3138
vt 0.3095 0.3138
vt 0.2928 0.3105
vt 0.3071 0.3105
vt 0.3082 0.3061
vt 0.3224 0.3196
vt 0.3204 0.3061
vt 0.2605 0.0863
vt 0.3082 0.0863
vt 0.3559 0.0863
vt 0.3082 0.0863
vt 0.3082 0.0080
vt 0.3094 0.3105
vt 0.3082 0.3061
vt 0.2960 0.3061
vt 0.3237 0.3105
vt 0.3260 0.3138
vt 0.3069 0.3138
vt 0.3082 0.3196
vt 0.2941 0.3196
vt 0.3082 0.3196
vt 0.2904 0.3138
vt 0.3095 0.3138
vt 0.2928 0.3105
vt 0.3071 0.3105
vt 0.3082 0.3061
vt 0.3224 0.3196
vt 0.3204 0.3061
vt 0.2605 0.0863
vt 0.3082 0.0863
vt 0.3559 0.0863
vt 0.3082 0.0863
vt 0.3082 0.0080
vt 0.3062 0.3122
vt 0.3073 0.3079
vt 0.3195 0.3079
vt 0.2919 0.3122
vt 0.2895 0.3156
vt 0.3086 0.3156
vt 0.3073 0.3213
vt 0.3215 0.3213
vt 0.3073 0.3213
vt 0.3251 0.3156
vt 0.3060 0.3156
vt 0.3228 0.3122
vt 0.3085 0.3122
vt 0.3073 0.3079
vt 0.2932 0.3213
vt 0.2951 0.3079
vt 0.3550 0.0881
vt 0.3073 0.0881
vt 0.2596 0.0881
vt 0.3073 0.0881
vt 0.3073 0.0098
vt 0.3062 0.3122
vt 0.3073 0.3079
vt 0.3195 0.3079
vt 0.2919 0.3122
vt 0.2895 0.3156
vt 0.3086 0.3156
vt 0.3073 0.3213
vt 0.3215 0.3213
vt 0.3073 0.3213
vt 0.3251 0.3156
vt 0.3060 0.3156
vt 0.3228 0.3122
vt 0.3085 0.3122
vt 0.3073 0.3079
vt 0.2932 0.3213
vt 0.2951 0.3079
vt 0.3550 0.0881
vt 0.3073 0.0881
vt 0.2596 0.0881
vt 0.3073 0.0881
vt 0.3073 0.0098
vn 0.8126 0.5828 -0.0035
vn 0.8109 0.5714 0.1260
vn 0.1261 0.5716 0.8108
vn 0.0037 0.5830 -0.8125
vn 0.0395 0.0129 -0.9991
vn -0.9991 0.0133 0.0390
vn -0.6300 -0.7721 -0.0840
vn 0.0842 -0.7718 0.6302
vn 0.6299 -0.7721 0.0843
vn -0.0392 0.0129 0.9991
vn 0.9992 0.0129 -0.0392
vn -0.0036 0.5828 0.8126
vn -0.8125 0.5829 0.0039
vn -0.8109 0.5715 -0.1259
vn -0.0842 -0.7722 -0.6298
vn -0.1259 0.5715 -0.8109
vn 0.7350 -0.1045 0.6699
vn 0.8824 -0.0524 0.4675
vn 0.7025 -0.1134 0.7025
vn 0.8902 -0.0488 0.4530
vn -0.7350 -0.1045 -0.6700
vn -0.8824 -0.0524 -0.4676
vn -0.7025 -0.1134 -0.7026
vn -0.8901 -0.0488 -0.4531
vn -0.8817 -0.0715 0.4664
vn -0.7370 -0.0439 0.6745
vn -0.8888 -0.0730 0.4525
vn -0.7065 -0.0388 0.7066
vn 0.7370 -0.0439 -0.6744
vn 0.8818 -0.0715 -0.4662
vn 0.7066 -0.0387 -0.7066
vn 0.8889 -0.0730 -0.4523
vn 0.8591 0.2662 0.4372
vn -0.8590 0.2662 -0.4373
vn -0.8590 0.2662 0.4373
vn 0.8591 0.2662 -0.4372
vn 0.8122 0.5423 0.2148
vn 0.8110 0.4826 0.3308
vn 0.1263 0.2262 0.9659
vn 0.0037 0.8449 -0.5348
vn 0.0389 0.3865 -0.9215
vn -0.9992 -0.0025 0.0410
vn -0.6301 -0.6844 -0.3667
vn 0.0841 -0.9519 0.2946
vn 0.6299 -0.7474 -0.2111
vn -0.0393 -0.3624 0.9312
vn 0.9991 0.0272 -0.0313
vn -0.0035 0.2362 0.9717
vn -0.8125 0.5390 0.2221
vn -0.8106 0.5775 0.0968
vn -0.0837 -0.4801 -0.8732
vn -0.1260 0.8334 -0.5381
vn 0.7351 -0.3479 0.5820
vn 0.8824 -0.2237 0.4138
vn 0.7026 -0.3683 0.6089
vn 0.8902 -0.2150 0.4017
vn -0.7349 0.1541 -0.6604
vn -0.8824 0.1266 -0.4532
vn -0.7024 0.1580 -0.6940
vn -0.8901 0.1245 -0.4384
vn -0.8817 -0.2410 0.4056
vn -0.7370 -0.2934 0.6089
vn -0.8888 -0.2372 0.3922
vn -0.7066 -0.3006 0.6406
vn 0.7370 0.2120 -0.6418
vn 0.8818 0.1084 -0.4591
vn 0.7065 0.2288 -0.6697
vn 0.8889 0.1017 -0.4467
vn 0.8591 0.0830 0.5051
vn -0.8590 0.4107 -0.3057
vn -0.8590 0.0831 0.5052
vn 0.8591 0.4106 -0.3056
vn 0.8122 0.4224 0.4023
vn 0.8112 0.3230 0.4875
vn 0.1261 -0.1521 0.9803
vn 0.0041 0.9838 -0.1794
vn 0.0389 0.7034 -0.7097
vn -0.9991 -0.0176 0.0375
vn -0.6301 -0.4969 -0.5968
vn 0.0843 -0.9930 -0.0833
vn 0.6300 -0.6139 -0.4757
vn -0.0393 -0.6846 0.7279
vn 0.9991 0.0370 -0.0187
vn -0.0036 -0.1449 0.9894
vn -0.8125 0.4169 0.4074
vn -0.8110 0.4985 0.3062
vn -0.0841 -0.1179 -0.9895
vn -0.1260 0.9744 -0.1862
vn 0.7350 -0.5406 0.4093
vn 0.8824 -0.3625 0.2999
vn 0.7025 -0.5696 0.4266
vn 0.8902 -0.3498 0.2920
vn -0.7349 0.3902 -0.5546
vn -0.8824 0.2871 -0.3728
vn -0.7024 0.4065 -0.5842
vn -0.8901 0.2796 -0.3599
vn -0.8817 -0.3754 0.2858
vn -0.7369 -0.5002 0.4547
vn -0.8888 -0.3669 0.2747
vn -0.7065 -0.5188 0.4814
vn 0.7370 0.4370 -0.5157
vn 0.8818 0.2725 -0.3850
vn 0.7065 0.4630 -0.5352
vn 0.8889 0.2617 -0.3761
vn 0.8333 -0.0394 0.5515
vn -0.8332 0.5499 -0.0586
vn -0.8332 -0.0394 0.5516
vn 0.8333 0.5498 -0.0586
vn 0.8123 0.5396 -0.2215
vn 0.8111 0.5768 -0.0969
vn 0.1262 0.8337 0.5377
vn 0.0042 0.2363 -0.9717
vn 0.0389 -0.3621 -0.9313
vn -0.9991 0.0270 0.0313
vn -0.6302 -0.7470 0.2117
vn 0.0840 -0.4799 0.8733
vn 0.6299 -0.6843 0.3673
vn -0.0393 0.3861 0.9216
vn 0.9991 -0.0022 -0.0417
vn -0.0036 0.8449 0.5349
vn -0.8125 0.5418 -0.2150
vn -0.8108 0.4827 -0.3309
vn -0.0840 -0.9519 -0.2947
vn -0.1258 0.2261 -0.9659
vn 0.7349 0.1541 0.6604
vn 0.8824 0.1266 0.4531
vn 0.7024 0.1580 0.6940
vn 0.8902 0.1244 0.4383
vn -0.7351 -0.3478 -0.5820
vn -0.8824 -0.2238 -0.4139
vn -0.7026 -0.3683 -0.6089
vn -0.8901 -0.2150 -0.4018
vn -0.8817 0.1084 0.4592
vn -0.7369 0.2120 0.6419
vn -0.8888 0.1018 0.4469
vn -0.7064 0.2288 0.6698
vn 0.7371 -0.2933 -0.6088
vn 0.8818 -0.2409 -0.4055
vn 0.7067 -0.3006 -0.6405
vn 0.8888 -0.2371 -0.3921
vn 0.8591 0.4106 0.3057
vn -0.8590 0.0830 -0.5052
vn -0.8590 0.4107 0.3057
vn 0.8591 0.0830 -0.5051
vn 0.8125 0.4170 -0.4074
vn 0.8109 0.4986 -0.3064
vn 0.1262 0.9744 0.1863
vn 0.0041 -0.1450 -0.9894
vn 0.0389 -0.6846 -0.7279
vn -0.9991 0.0368 0.0192
vn -0.6299 -0.6139 0.4757
vn 0.0838 -0.1175 0.9895
vn 0.6297 -0.4970 0.5970
vn -0.0393 0.7034 0.7097
vn 0.9991 -0.0175 -0.0375
vn -0.0035 0.9838 0.1794
vn -0.8126 0.4217 -0.4023
vn -0.8108 0.3237 -0.4877
vn -0.0838 -0.9930 0.0833
vn -0.1260 -0.1524 -0.9803
vn 0.7350 0.3902 0.5545
vn 0.8824 0.2871 0.3727
vn 0.7025 0.4065 0.5842
vn 0.8902 0.2796 0.3598
vn -0.7350 -0.5406 -0.4093
vn -0.8824 -0.3625 -0.3000
vn -0.7026 -0.5696 -0.4266
vn -0.8901 -0.3499 -0.2920
vn -0.8817 0.2726 0.3851
vn -0.7369 0.4370 0.5157
vn -0.8888 0.2618 0.3762
vn -0.7065 0.4630 0.5353
vn 0.7371 -0.5000 -0.4546
vn 0.8818 -0.3753 -0.2857
vn 0.7066 -0.5187 -0.4813
vn 0.8889 -0.3667 -0.2747
vn 0.8333 0.5498 0.0586
vn -0.8332 -0.0394 -0.5515
vn -0.8332 0.5499 0.0586
vn 0.8333 -0.0394 -0.5514
usemtl happa5
s 1
f 1/1/1 2/2/2 3/3/3
f 4/4/4 2/2/2 1/1/1
f 5/5/5 4/4/4 1/1/1
f 6/6/6 4/4/4 5/5/5
f 7/7/7 6/6/6 5/5/5
f 8/8/8 6/6/6 7/7/7
f 9/9/9 8/8/8 7/7/7
f 10/10/10 8/8/8 9/9/9
f 11/11/11 10/10/10 9/9/9
f 12/12/12 10/10/10 11/11/11
f 1/1/1 12/12/12 11/11/11
f 3/3/3 12/12/12 1/1/1
f 10/10/10 6/6/6 8/8/8
f 13/13/13 6/6/6 10/10/10
f 12/12/12 13/13/13 10/10/10
f 14/14/14 13/13/13 12/12/12
f 3/3/3 14/14/14 12/12/12
f 11/11/11 5/5/5 1/1/1
f 15/15/15 5/5/5 11/11/11
f 9/9/9 15/15/15 11/11/11
f 7/7/7 15/15/15 9/9/9
f 16/16/16 13/13/13 14/14/14
f 4/4/4 13/13/13 16/16/16
f 2/2/2 4/4/4 16/16/16
f 2/2/17 17/17/18 3/3/19
f 18/18/20 17/17/18 2/2/17
f 14/14/21 19/19/22 16/16/23
f 20/20/24 19/19/22 14/14/21
f 20/20/25 3/3/26 17/17/27
f 14/14/28 3/3/26 20/20/25
f 16/16/29 18/18/30 2/2/31
f 19/19/32 18/18/30 16/16/29
f 17/17/33 18/18/33 21/21/33
f 19/19/34 20/20/34 21/21/34
f 21/21/35 20/20/35 17/17/35
f 18/18/36 19/19/36 21/21/36
f 6/6/6 13/13/13 4/4/4
f 15/15/15 7/7/7 5/5/5
f 22/22/37 23/23/38 24/24/39
f 25/25/40 23/23/38 22/22/37
f 26/26/41 25/25/40 22/22/37
f 27/27/42 25/25/40 26/26/41
f 28/28/43 27/27/42 26/26/41
f 29/29/44 27/27/42 28/28/43
f 30/30/45 29/29/44 28/28/43
f 31/31/46 29/29/44 30/30/45
f 32/32/47 31/31/46 30/30/45
f 33/33/48 31/31/46 32/32/47
f 22/22/37 33/33/48 32/32/47
f 24/24/39 33/33/48 22/22/37
f 31/31/46 27/27/42 29/29/44
f 34/34/49 27/27/42 31/31/46
f 33/33/48 34/34/49 31/31/46
f 35/35/50 34/34/49 33/33/48
f 24/24/39 35/35/50 33/33/48
f 32/32/47 26/26/41 22/22/37
f 36/36/51 26/26/41 32/32/47
f 30/30/45 36/36/51 32/32/47
f 28/28/43 36/36/51 30/30/45
f 37/37/52 34/34/49 35/35/50
f 25/25/40 34/34/49 37/37/52
f 23/23/38 25/25/40 37/37/52
f 23/23/53 38/38/54 24/24/55
f 39/39/56 38/38/54 23/23/53
f 35/35/57 40/40/58 37/37/59
f 41/41/60 40/40/58 35/35/57
f 41/41/61 24/24/62 38/38/63
f 35/35/64 24/24/62 41/41/61
f 37/37/65 39/39/66 23/23/67
f 40/40/68 39/39/66 37/37/65
f 38/38/69 39/39/69 42/42/69
f 40/40/70 41/41/70 42/42/70
f 42/42/71 41/41/71 38/38/71
f 39/39/72 40/40/72 42/42/72
f 27/27/42 34/34/49 25/25/40
f 36/36/51 28/28/43 26/26/41
f 43/43/73 44/44/74 45/45/75
f 46/46/76 44/44/74 43/43/73
f 47/47/77 46/46/76 43/43/73
f 48/48/78 46/46/76 47/47/77
f 49/49/79 48/48/78 47/47/77
f 50/50/80 48/48/78 49/49/79
f 51/51/81 50/50/80 49/49/79
f 52/52/82 50/50/80 51/51/81
f 53/53/83 52/52/82 51/51/81
f 54/54/84 52/52/82 53/53/83
f 43/43/73 54/54/84 53/53/83
f 45/45/75 54/54/84 43/43/73
f 52/52/82 48/48/78 50/50/80
f 55/55/85 48/48/78 52/52/82
f 54/54/84 55/55/85 52/52/82
f 56/56/86 55/55/85 54/54/84
f 45/45/75 56/56/86 54/54/84
f 53/53/83 47/47/77 43/43/73
f 57/57/87 47/47/77 53/53/83
f 51/51/81 57/57/87 53/53/83
f 49/49/79 57/57/87 51/51/81
f 58/58/88 55/55/85 56/56/86
f 46/46/76 55/55/85 58/58/88
f 44/44/74 46/46/76 58/58/88
f 44/44/89 59/59/90 45/45/91
f 60/60/92 59/59/90 44/44/89
f 56/56/93 61/61/94 58/58/95
f 62/62/96 61/61/94 56/56/93
f 62/62/97 45/45/98 59/59/99
f 56/56/100 45/45/98 62/62/97
f 58/58/101 60/60/102 44/44/103
f 61/61/104 60/60/102 58/58/101
f 59/59/105 60/60/105 63/63/105
f 61/61/106 62/62/106 63/63/106
f 63/63/107 62/62/107 59/59/107
f 60/60/108 61/61/108 63/63/108
f 48/48/78 55/55/85 46/46/76
f 57/57/87 49/49/79 47/47/77
f 64/64/109 65/65/110 66/66/111
f 67/67/112 65/65/110 64/64/109
f 68/68/113 67/67/112 64/64/109
f 69/69/114 67/67/112 68/68/113
f 70/70/115 69/69/114 68/68/113
f 71/71/116 69/69/114 70/70/115
f 72/72/117 71/71/116 70/70/115
f 73/73/118 71/71/116 72/72/117
f 74/74/119 73/73/118 72/72/117
f 75/75/120 73/73/118 74/74/119
f 64/64/109 75/75/120 74/74/119
f 66/66/111 75/75/120 64/64/109
f 73/73/118 69/69/114 71/71/116
f 76/76/121 69/69/114 73/73/118
f 75/75/120 76/76/121 73/73/118
f 77/77/122 76/76/121 75/75/120
f 66/66/111 77/77/122 75/75/120
f 74/74/119 68/68/113 64/64/109
f 78/78/123 68/68/113 74/74/119
f 72/72/117 78/78/123 74/74/119
f 70/70/115 78/78/123 72/72/117
f 79/79/124 76/76/121 77/77/122
f 67/67/112 76/76/121 79/79/124
f 65/65/110 67/67/112 79/79/124
f 65/65/125 80/80/126 66/66/127
f 81/81/128 80/80/126 65/65/125
f 77/77/129 82/82/130 79/79/131
f 83/83/132 82/82/130 77/77/129
f 83/83/133 66/66/134 80/80/135
f 77/77/136 66/66/134 83/83/133
f 79/79/137 81/81/138 65/65/139
f 82/82/140 81/81/138 79/79/137
f 80/80/141 81/81/141 84/84/141
f 82/82/142 83/83/142 84/84/142
f 84/84/143 83/83/143 80/80/143
f 81/81/144 82/82/144 84/84/144
f 69/69/114 76/76/121 67/67/112
f 78/78/123 70/70/115 68/68/113
f 85/85/145 86/86/146 87/87/147
f 88/88/148 86/86/146 85/85/145
f 89/89/149 88/88/148 85/85/145
f 90/90/150 88/88/148 89/89/149
f 91/91/151 90/90/150 89/89/149
f 92/92/152 90/90/150 91/91/151
f 93/93/153 92/92/152 91/91/151
f 94/94/154 92/92/152 93/93/153
f 95/95/155 94/94/154 93/93/153
f 96/96/156 94/94/154 95/95/155
f 85/85/145 96/96/156 95/95/155
f 87/87/147 96/96/156 85/85/145
f 94/94/154 90/90/150 92/92/152
f 97/97/157 90/90/150 94/94/154
f 96/96/156 97/97/157 94/94/154
f 98/98/158 97/97/157 96/96/156
f 87/87/147 98/98/158 96/96/156
f 95/95/155 89/89/149 85/85/145
f 99/99/159 89/89/149 95/95/155
f 93/93/153 99/99/159 95/95/155
f 91/91/151 99/99/159 93/93/153
f 100/100/160 97/97/157 98/98/158
f 88/88/148 97/97/157 100/100/160
f 86/86/146 88/88/148 100/100/160
f 86/86/161 101/101/162 87/87/163
f 102/102/164 101/101/162 86/86/161
f 98/98/165 103/103/166 100/100/167
f 104/104/168 103/103/166 98/98/165
f 104/104/169 87/87/170 101/101/171
f 98/98/172 87/87/170 104/104/169
f 100/100/173 102/102/174 86/86/175
f 103/103/176 102/102/174 100/100/173
f 101/101/177 102/102/177 105/105/177
f 103/103/178 104/104/178 105/105/178
f 105/105/179 104/104/179 101/101/179
f 102/102/180 103/103/180 105/105/180
f 90/90/150 97/97/157 88/88/148
f 99/99/159 91/91/151 89/89/149
