# Blender v2.79 (sub 0) OBJ File: ''
# www.blender.org
mtllib GreenHillRockCollision.mtl
v 4.321669 7.640554 6.517815
v 6.317465 3.971859 3.862297
v 5.893667 7.640559 3.598903
v 8.336764 3.434855 6.146015
v 7.962464 4.626058 8.949512
v 9.750564 -0.560731 7.788496
v 9.371761 -0.560734 9.558697
v 6.947364 -0.023946 9.890179
v 5.423767 5.163062 9.697008
v -0.437826 7.640554 7.399010
v -7.641792 11.309254 6.343147
v -7.775619 10.610354 6.458005
v -4.070523 10.671849 7.500210
v -8.204945 11.309258 3.028660
v -4.106623 11.309258 3.112519
v -4.106623 11.309259 -2.187769
v -0.437826 11.309258 -2.187769
v -4.085461 11.309267 -5.868119
v -0.416664 11.309266 -5.338239
v -0.437826 10.422562 -5.506187
v 2.919170 10.360168 -4.853692
v 4.610468 9.631667 -4.851190
v 3.410370 10.213665 -2.491970
v 4.968568 9.397962 -2.491973
v 3.230870 7.640568 -6.085688
v 1.919970 7.640568 -6.742394
v 2.323069 3.971874 -9.844476
v -0.437828 3.971873 -9.241970
v 3.058368 -0.023924 -10.242582
v -0.437828 -0.023923 -11.216886
v 4.373466 -0.023925 -9.976682
v 3.178571 10.699846 6.197720
v 4.591469 10.633060 5.023922
v -0.401526 10.577153 7.369106
v -4.106623 7.640554 7.519217
v -7.775619 7.640556 6.478997
v 5.780766 -0.023948 10.566203
v -0.437828 -0.023947 11.473703
v 0.897572 5.163062 9.752092
v -4.106624 -0.023946 11.300577
v -4.106623 5.163063 9.227892
v -9.722419 -0.023944 10.650278
v -7.775619 5.163063 8.413013
v -7.775620 3.971874 -8.817376
v -4.106625 -0.023922 -11.611295
v -7.775622 -0.023923 -10.160398
v -4.106624 3.971876 -10.121269
v -7.775620 7.640570 -6.742393
v -4.106623 7.640569 -6.742394
v -7.775619 10.529374 -5.642295
v -4.106623 10.757464 -6.039877
v -4.070523 11.289753 7.319658
v -0.437826 11.309257 3.112519
v 6.351066 6.027468 -2.037690
v 6.479665 6.027464 -0.307377
v 5.462567 7.640565 -2.896483
v 6.686765 3.971868 -3.240601
v 4.789367 7.640566 -4.794672
v 6.336765 3.971869 -5.149201
v -0.627726 7.872670 -6.107783
v 7.326164 -0.023943 6.848586
v 9.450062 -0.599838 6.039810
v 6.977563 -0.023938 2.736500
v 4.381767 3.971869 -6.237000
v 3.257668 3.971871 -8.994287
v 5.708865 -0.023931 -6.124880
v 5.423168 9.684148 4.035609
v 5.583667 7.640561 0.363005
v 6.451465 3.971864 0.492915
v -0.380664 11.289752 7.171522
v -7.684730 11.309267 -5.530076
v 6.986264 -0.023931 -3.196204
v 7.391364 -0.023936 -1.197609
v 7.243964 3.971864 -1.558993
v 4.779868 9.709956 0.158601
v 3.629470 10.562860 -0.556271
v -8.199511 11.309259 -2.196842
v -9.147365 7.640567 -2.533482
v -8.353196 10.552212 -2.193884
v -11.006314 -0.023930 -2.871073
v -10.194222 4.412420 -2.625447
v -10.194222 4.831819 3.441107
v -9.147364 7.640560 3.096601
v -11.647590 -0.023937 3.983974
v -8.353196 10.587068 3.014746
vt 0.935400 0.078200
vt 0.935400 0.078200
vt 0.935400 0.078200
vt 0.935400 0.078200
vt 0.935400 0.078200
vt 0.935400 0.078200
vt 0.935400 0.078200
vt 0.935400 0.078200
vt 0.935400 0.078200
vt 0.935400 0.078200
vt 0.935400 0.078200
vt 0.935400 0.078200
vt 0.935400 0.078200
vt 0.935400 0.078200
vt 0.935400 0.078200
vt 0.935400 0.078200
vt 0.935400 0.078200
vt 0.935400 0.078200
vt 0.935400 0.078200
vt 0.935400 0.078200
vt 0.935400 0.078200
vt 0.935400 0.078200
vt 0.935400 0.078200
vt 0.935400 0.078200
vt 0.935400 0.078200
vt 0.935400 0.078200
vt 0.935400 0.078200
vt 0.935400 0.078200
vt 0.935400 0.078200
vt 0.935400 0.078200
vt 0.935400 0.078200
vt 0.935400 0.078200
vt 0.935400 0.078200
vt 0.935400 0.078200
vt 0.935400 0.078200
vt 0.935400 0.078200
vt 0.935400 0.078200
vt 0.935400 0.078200
vt 0.935400 0.078200
vt 0.935400 0.078200
vt 0.935400 0.078200
vt 0.935400 0.078200
vt 0.935400 0.078200
vt 0.935400 0.078200
vt 0.935400 0.078200
vt 0.935400 0.078200
vt 0.935400 0.078200
vt 0.935400 0.078200
vt 0.935400 0.078200
vt 0.935400 0.078200
vt 0.935400 0.078200
vt 0.935400 0.078200
vt 0.935400 0.078200
vt 0.935400 0.078200
vt 0.935400 0.078200
vt 0.935400 0.078200
vt 0.935400 0.078200
vt 0.935400 0.078200
vt 0.935400 0.078200
vt 0.935400 0.078200
vt 0.935400 0.078200
vt 0.935400 0.078200
vt 0.935400 0.078200
vt 0.935400 0.078200
vt 0.935400 0.078200
vt 0.935400 0.078200
vt 0.935400 0.078200
vt 0.935400 0.078200
vt 0.935400 0.078200
vt 0.935400 0.078200
vt 0.935400 0.078200
vt 0.935400 0.078200
vt 0.935400 0.078200
vt 0.935400 0.078200
vt 0.935400 0.078200
vt 0.935400 0.078200
vt 0.935400 0.078200
vt 0.935400 0.078200
vt 0.935400 0.078200
vt 0.935400 0.078200
vt 0.935400 0.078200
vt 0.935400 0.078200
vt 0.935400 0.078200
vt 0.935400 0.078200
vt 0.935400 0.078200
vn 0.5995 0.5763 0.5554
vn 0.9289 0.3227 -0.1820
vn 0.9574 0.1969 0.2110
vn 0.8365 0.4468 -0.3172
vn 0.6915 0.5396 0.4803
vn 0.7754 -0.6312 0.0208
vn 0.5489 -0.5825 0.5995
vn 0.2383 -0.3119 0.9197
vn 0.2034 0.5129 0.8340
vn 0.0568 0.3774 0.9243
vn -0.5336 0.6961 0.4803
vn -0.5700 0.1390 0.8098
vn -0.1127 0.1430 0.9833
vn -0.9564 0.2501 -0.1512
vn -0.5147 0.6603 -0.5469
vn -0.6710 0.2419 -0.7009
vn 0.0006 1.0000 0.0018
vn -0.6501 0.7578 0.0558
vn 0.0000 1.0000 0.0000
vn 0.1064 0.9942 -0.0174
vn 0.0166 0.7786 -0.6273
vn 0.1866 0.7780 -0.6000
vn 0.1229 0.2545 -0.9592
vn 0.3155 0.8072 -0.4988
vn 0.6846 0.5414 -0.4880
vn 0.7127 0.6875 -0.1397
vn 0.7962 0.6038 -0.0377
vn 0.5161 0.3813 -0.7670
vn 0.1270 0.5529 -0.8235
vn 0.2007 0.3692 -0.9074
vn 0.0336 0.5015 -0.8645
vn 0.1196 0.7974 -0.5915
vn 0.1652 0.4421 -0.8816
vn 0.6213 0.3652 -0.6933
vn 0.4339 0.6312 0.6429
vn 0.6423 0.6304 0.4360
vn 0.1473 0.1507 0.9775
vn -0.1191 0.3074 0.9441
vn -0.6951 0.2936 0.6563
vn 0.2450 -0.5881 0.7708
vn 0.0323 0.2876 0.9572
vn -0.0046 0.4927 0.8702
vn -0.0878 0.3574 0.9298
vn -0.1175 0.4969 0.8598
vn -0.5787 0.4777 0.6610
vn -0.5361 0.4990 0.6809
vn -0.6537 0.3164 -0.6875
vn -0.0866 0.3685 -0.9256
vn -0.6359 0.2459 -0.7315
vn -0.0245 0.4856 -0.8739
vn -0.5940 0.3945 -0.7011
vn 0.0582 0.4787 -0.8760
vn 0.0196 0.2592 -0.9656
vn -0.0716 0.7702 0.6338
vn 0.0663 0.9978 0.0017
vn 0.9156 0.3528 -0.1928
vn 0.9144 0.3087 0.2619
vn 0.8917 0.3246 -0.3153
vn 0.9461 0.1768 -0.2713
vn 0.8135 0.2420 -0.5289
vn 0.8390 0.1661 -0.5182
vn -0.0182 0.4196 -0.9075
vn -0.2321 -0.9726 0.0116
vn 0.6770 -0.6650 -0.3154
vn 0.9392 0.3367 -0.0677
vn 0.7272 0.2411 -0.6427
vn 0.7377 0.3582 -0.5723
vn 0.8661 0.1353 -0.4812
vn 0.8978 0.3841 0.2153
vn 0.9415 0.3192 0.1080
vn 0.9525 0.2094 0.2213
vn 0.1455 0.7761 0.6135
vn -0.9716 0.1359 0.1936
vn 0.9521 0.0681 -0.2981
vn 0.9973 0.0504 -0.0538
vn 0.9812 0.1881 -0.0432
vn 0.7762 0.5397 -0.3260
vn 0.4764 0.8736 -0.0993
vn -0.6489 0.7592 -0.0509
vn -0.9331 0.3345 0.1316
vn -0.9542 0.2395 -0.1794
vn -0.9522 0.2735 -0.1359
vn -0.9347 0.3105 0.1731
vn -0.9555 0.1992 -0.2176
vn -0.9326 0.3153 0.1757
usemtl iwa
s 1
f 1/1/1 2/2/2 3/3/3
f 4/4/4 2/2/2 1/1/1
f 5/5/5 4/4/4 1/1/1
f 6/6/6 4/4/4 5/5/5
f 7/7/7 6/6/6 5/5/5
f 8/8/8 6/6/6 7/7/7
f 5/5/5 8/8/8 7/7/7
f 9/9/9 8/8/8 5/5/5
f 1/1/1 9/9/9 5/5/5
f 10/10/10 9/9/9 1/1/1
f 11/11/11 12/12/12 13/13/13
f 79/14/14 71/15/15 50/16/16
f 15/17/17 14/18/18 11/11/11
f 16/19/19 14/18/18 15/17/17
f 17/20/20 16/19/19 15/17/17
f 18/21/21 16/19/19 17/20/20
f 19/22/22 18/21/21 17/20/20
f 20/23/23 18/21/21 19/22/22
f 21/24/24 20/23/23 19/22/22
f 22/25/25 23/26/26 24/27/27
f 21/24/24 23/26/26 22/25/25
f 25/28/28 21/24/24 22/25/25
f 26/29/29 21/24/24 25/28/28
f 27/30/30 26/29/29 25/28/28
f 28/31/31 26/29/29 27/30/30
f 29/32/32 28/31/31 27/30/30
f 30/33/33 28/31/31 29/32/32
f 31/34/34 30/33/33 29/32/32
f 32/35/35 3/3/3 33/36/36
f 1/1/1 3/3/3 32/35/35
f 34/37/37 1/1/1 32/35/35
f 10/10/10 1/1/1 34/37/37
f 13/13/13 10/10/10 34/37/37
f 35/38/38 10/10/10 13/13/13
f 12/12/12 35/38/38 13/13/13
f 36/39/39 35/38/38 12/12/12
f 37/40/40 8/8/8 9/9/9
f 38/41/41 8/8/8 37/40/40
f 39/42/42 38/41/41 37/40/40
f 40/43/43 38/41/41 39/42/42
f 41/44/44 40/43/43 39/42/42
f 42/45/45 40/43/43 41/44/44
f 43/46/46 42/45/45 41/44/44
f 44/47/47 45/48/48 46/49/49
f 47/50/50 45/48/48 44/47/47
f 48/51/51 47/50/50 44/47/47
f 49/52/52 47/50/50 48/51/51
f 50/16/16 49/52/52 48/51/51
f 51/53/53 49/52/52 50/16/16
f 52/54/54 11/11/11 13/13/13
f 15/17/17 11/11/11 52/54/54
f 53/55/55 15/17/17 52/54/54
f 17/20/20 15/17/17 53/55/55
f 33/36/36 17/20/20 53/55/55
f 54/56/56 24/27/27 55/57/57
f 56/58/58 24/27/27 54/56/56
f 57/59/59 56/58/58 54/56/56
f 58/60/60 56/58/58 57/59/59
f 59/61/61 58/60/60 57/59/59
f 26/29/29 20/23/23 21/24/24
f 60/62/62 20/23/23 26/29/29
f 28/31/31 60/62/62 26/29/29
f 49/52/52 60/62/62 28/31/31
f 47/50/50 49/52/52 28/31/31
f 61/63/63 6/6/6 8/8/8
f 62/64/64 6/6/6 61/63/63
f 63/65/65 62/64/64 61/63/63
f 4/4/4 62/64/64 63/65/65
f 2/2/2 4/4/4 63/65/65
f 64/66/66 25/28/28 59/61/61
f 65/67/67 25/28/28 64/66/66
f 66/68/68 65/67/67 64/66/66
f 31/34/34 65/67/67 66/68/68
f 3/3/3 67/69/69 33/36/36
f 68/70/70 67/69/69 3/3/3
f 69/71/71 68/70/70 3/3/3
f 70/72/72 52/54/54 34/37/37
f 53/55/55 52/54/54 70/72/72
f 33/36/36 53/55/55 70/72/72
f 85/73/73 36/39/39 12/12/12
f 18/21/21 50/16/16 71/15/15
f 16/19/19 18/21/21 71/15/15
f 57/59/59 66/68/68 59/61/61
f 72/74/74 66/68/68 57/59/59
f 73/75/75 72/74/74 57/59/59
f 65/67/67 27/30/30 25/28/28
f 29/32/32 27/30/30 65/67/67
f 31/34/34 29/32/32 65/67/67
f 74/76/76 55/57/57 69/71/71
f 54/56/56 55/57/57 74/76/76
f 57/59/59 54/56/56 74/76/76
f 41/44/44 36/39/39 43/46/46
f 35/38/38 36/39/39 41/44/44
f 10/10/10 35/38/38 41/44/44
f 39/42/42 10/10/10 41/44/44
f 9/9/9 10/10/10 39/42/42
f 37/40/40 9/9/9 39/42/42
f 75/77/77 55/57/57 76/78/78
f 68/70/70 55/57/57 75/77/77
f 51/53/53 18/21/21 20/23/23
f 50/16/16 18/21/21 51/53/53
f 77/79/79 16/19/19 71/15/15
f 14/18/18 16/19/19 77/79/79
f 21/24/24 17/20/20 76/78/78
f 19/22/22 17/20/20 21/24/24
f 76/78/78 24/27/27 23/26/26
f 55/57/57 24/27/27 76/78/78
f 58/60/60 24/27/27 56/58/58
f 22/25/25 24/27/27 58/60/60
f 58/60/60 25/28/28 22/25/25
f 59/61/61 25/28/28 58/60/60
f 60/62/62 51/53/53 20/23/23
f 49/52/52 51/53/53 60/62/62
f 45/48/48 28/31/31 30/33/33
f 47/50/50 28/31/31 45/48/48
f 63/65/65 74/76/76 69/71/71
f 73/75/75 74/76/76 63/65/65
f 2/2/2 69/71/71 3/3/3
f 63/65/65 69/71/71 2/2/2
f 33/36/36 67/69/69 75/77/77
f 76/78/78 33/36/36 75/77/77
f 69/71/71 55/57/57 68/70/70
f 70/72/72 34/37/37 32/35/35
f 34/37/37 52/54/54 13/13/13
f 23/26/26 21/24/24 76/78/78
f 33/36/36 76/78/78 17/20/20
f 70/72/72 32/35/35 33/36/36
f 67/69/69 68/70/70 75/77/77
f 66/68/68 64/66/66 59/61/61
f 57/59/59 74/76/76 73/75/75
f 6/6/6 62/64/64 4/4/4
f 43/46/46 84/80/80 42/45/45
f 81/81/81 48/51/51 44/47/47
f 78/82/82 50/16/16 48/51/51
f 77/79/79 85/73/73 14/18/18
f 81/81/81 83/83/83 78/82/82
f 80/84/84 44/47/47 46/49/49
f 82/85/85 36/39/39 83/83/83
f 83/83/83 79/14/14 78/82/82
f 82/85/85 80/84/84 84/80/80
f 85/73/73 11/11/11 14/18/18
f 79/14/14 77/79/79 71/15/15
f 85/73/73 83/83/83 36/39/39
f 43/46/46 82/85/85 84/80/80
f 81/81/81 78/82/82 48/51/51
f 78/82/82 79/14/14 50/16/16
f 77/79/79 79/14/14 85/73/73
f 81/81/81 82/85/85 83/83/83
f 80/84/84 81/81/81 44/47/47
f 82/85/85 43/46/46 36/39/39
f 83/83/83 85/73/73 79/14/14
f 82/85/85 81/81/81 80/84/84
f 85/73/73 12/12/12 11/11/11
