mtllib GreenHillSunflowerTop2.mtl
v 1.200367 1.960779 -0.811125
v 0.940833 2.631382 -1.090396
v 0.934883 2.803247 -0.000382
v 0.945707 1.982244 -1.982706
v 1.20405 1.477177 -1.475995
v 1.206679 0.812178 -1.959784
v 1.408059 -0.000017 0.002189
v 1.207444 -0.000016 -2.088011
v 1.206679 -0.812292 -1.959785
v 0.950227 -0.000016 -2.803691
v 0.949271 -1.089951 -2.631783
v 0.945707 -1.982357 -1.982708
v 1.204049 -1.47729 -1.475996
v 1.200366 -1.960883 -0.811128
v 1.195899 -2.089159 0.001136
v 0.934883 -2.803555 -0.000388
v 1.191487 -1.960883 0.813314
v 0.928904 -2.631486 1.089549
v 0.923993 -1.982358 1.981871
v 1.1959 2.089044 0.00114
v 1.191487 1.960779 0.813318
v 0.928905 2.631382 1.089555
v 0.923993 1.982242 1.981874
v 1.187864 1.477176 1.47823
v 1.185235 0.812177 1.962018
v 0.920315 1.089846 2.630994
v 0.919473 -0.000018 2.802857
v 1.187863 -1.477292 1.478229
v 1.185235 -0.812293 1.962019
v 0.920315 -1.089953 2.630993
v 1.184398 -0.000018 2.090054
v 0.441947 -1.089953 2.628381
v 0.450363 -2.631486 1.086938
v 0.456266 -0.000017 -0.002968
v 0.441947 1.089846 2.628382
v 0.450363 2.631382 1.086943
v 0.462261 -2.631486 -1.09298
v 0.470851 -1.089951 -2.63442
v 0.470851 1.089849 -2.634418
v 0.949271 1.089849 -2.631783
v 0.940833 -2.631486 -1.090401
v 0.462262 2.631382 -1.092974
v 0.940833 2.013802 -2.014382
v 0.934883 2.589714 -1.07311
v 0.945707 1.072605 -2.590353
v 0.950227 -1.072941 -2.590267
v 0.949271 -2.014125 -2.014345
v 0.945707 -2.590209 -1.073169
v 0.934883 -2.590296 1.072515
v 0.928904 -2.014226 2.013638
v 0.923993 -1.073032 2.589626
v 0.928905 2.848033 -0.00037
v 0.923993 2.589782 1.072443
v 0.920315 2.013724 2.013656
v 0.919473 1.072589 2.589509
v 0.920315 -0.000148 2.847827
v 0.441947 -0.001148 2.845414
v 0.450363 -2.015225 2.011226
v 0.440099 -0.001169 3.162944
v 0.441947 2.012725 2.011241
v 0.450363 2.847033 -0.002782
v 0.462261 -2.849443 -0.002756
v 0.470851 -2.015133 -2.016781
v 0.470851 -0.00126 -2.850953
v 0.949271 -0.000252 -2.848517
v 0.940833 -2.848456 -0.000373
v 0.462262 2.012815 -2.016764
v 0.922881 -0.000246 2.373235
v 0.925785 -0.894175 2.15788
v 0.922042 0.89382 2.15792
v 0.922881 1.678074 1.678054
v 0.925785 2.15802 0.893622
v 0.929789 2.373363 -0.000368
v 0.934883 2.158018 -0.894297
v 0.939797 1.678182 -1.678689
v 0.943998 0.893743 -2.158614
v 0.946928 -0.000234 -2.373747
v 0.947703 -0.894169 -2.158673
v 0.946928 -1.678555 -1.678566
v 0.943998 -2.158451 -0.894356
v 0.939797 -2.373773 -0.000318
v 0.934883 -2.158599 0.893702
v 0.929788 -1.67859 1.678002
v 0.449605 -2.239752 2.235692
v 0.462893 -3.166969 -0.002811
v 0.472285 -2.239697 -2.24135
v 0.472285 -0.001264 -3.168538
v 0.462893 2.237359 -2.24135
v 0.449606 3.164576 -0.002847
v 0.440099 2.237264 2.235755
v 0.918864 -0.000118 3.165479
v 0.665096 2.118112 5.113635
v 0.918864 2.238314 2.238291
v 0.674059 5.114508 2.117185
v 0.928249 3.165636 -0.000289
v 0.695513 5.114577 -2.120266
v 0.941522 2.238404 -2.238828
v 0.717123 2.118138 -5.116705
v 0.950915 -0.000219 -3.166015
v 0.726085 -2.119441 -5.116751
v 0.950915 -2.238652 -2.238829
v 0.674058 -2.119535 5.113616
v 0.928249 -2.238692 2.238251
v 0.717122 -5.115905 -2.120274
v 0.941522 -3.165924 -0.000288
v 0.695513 -5.116039 2.117386
vt 0.8964 0.9476
vt 0.9093 0.9787
vt 0.8587 0.9867
vt 0.9507 0.9486
vt 0.9273 0.9252
vt 0.9497 0.8943
vt 0.8587 0.8566
vt 0.9557 0.8566
vt 0.9497 0.8189
vt 0.9888 0.8566
vt 0.9808 0.806
vt 0.9507 0.7646
vt 0.9273 0.7881
vt 0.8964 0.7656
vt 0.8587 0.7597
vt 0.8587 0.7265
vt 0.8211 0.7656
vt 0.8082 0.7345
vt 0.7668 0.7646
vt 0.8587 0.9536
vt 0.8211 0.9476
vt 0.8082 0.9787
vt 0.7668 0.9486
vt 0.7902 0.9252
vt 0.7677 0.8943
vt 0.7366 0.9072
vt 0.7287 0.8566
vt 0.7902 0.7881
vt 0.7677 0.8189
vt 0.7366 0.806
vt 0.7618 0.8566
vt 0.9093 0.7345
vt 0.9808 0.9072
vt 0.8381 0.0751
vt 0.8381 0.075
vt 0.838 0.0751
vt 0.8381 0.0734
vn 0.9718 0.2199 -0.0857
vn 0.9417 0.3127 -0.1244
vn 0.9392 0.3432 0.0051
vn 0.9406 0.2427 -0.2376
vn 0.9728 0.1666 -0.1612
vn 0.9724 0.0911 -0.2146
vn 1.0000 0.0000 0.0055
vn 0.9731 0.0000 -0.2303
vn 0.9724 -0.0911 -0.2146
vn 0.9411 0.0000 -0.3382
vn 0.9427 -0.1295 -0.3076
vn 0.9406 -0.2427 -0.2376
vn 0.9728 -0.1666 -0.1612
vn 0.9718 -0.2199 -0.0857
vn 0.9718 -0.2355 0.0053
vn 0.9393 -0.3432 0.0051
vn 0.9708 -0.2199 0.0964
vn 0.9403 -0.3127 0.1347
vn 0.9379 -0.2428 0.2479
vn 0.9718 0.2356 0.0053
vn 0.9708 0.2199 0.0964
vn 0.9403 0.3127 0.1347
vn 0.9379 0.2428 0.2479
vn 0.9709 0.1666 0.1719
vn 0.9700 0.0911 0.2253
vn 0.9392 0.1296 0.3181
vn 0.9373 0.0000 0.3485
vn 0.9709 -0.1666 0.1719
vn 0.9700 -0.0911 0.2253
vn 0.9391 -0.1296 0.3181
vn 0.9706 0.0000 0.2409
vn -1.0000 0.0000 -0.0055
vn -1.0000 -0.0000 -0.0054
vn -1.0000 0.0003 -0.0054
vn 0.9427 0.1295 -0.3076
vn 0.9417 -0.3126 -0.1244
vn -1.0000 -0.0018 -0.0058
vn -1.0000 -0.0019 -0.0055
vn 1.0000 0.0022 0.0054
vn 1.0000 0.0006 0.0087
vn 1.0000 0.0021 0.0050
vn 1.0000 0.0021 0.0049
vn 1.0000 0.0021 0.0051
vn 0.9985 -0.0182 0.0514
vn 1.0000 0.0024 0.0052
vn 1.0000 0.0020 0.0049
vn 0.9984 0.0205 0.0522
vn 1.0000 0.0019 0.0051
vn 1.0000 0.0020 0.0051
vn 0.9985 0.0485 0.0253
vn 1.0000 0.0021 0.0052
vn 1.0000 0.0022 0.0049
vn 0.9987 0.0492 -0.0135
vn 0.9989 0.0223 -0.0413
vn 1.0000 0.0020 0.0050
vn 1.0000 0.0019 0.0050
vn 0.9990 -0.0165 -0.0420
vn 1.0000 0.0022 0.0050
vn 0.9989 -0.0443 -0.0153
vn -1.0000 -0.0020 -0.0051
vn -0.8900 -0.3256 0.3193
vn -1.0000 -0.0019 -0.0053
vn -0.8880 -0.4598 -0.0045
vn -1.0000 -0.0017 -0.0047
vn -0.8867 -0.3256 -0.3283
vn -1.0000 -0.0021 -0.0045
vn -0.8867 -0.0019 -0.4624
vn -1.0000 -0.0022 -0.0050
vn -0.8880 0.3220 -0.3283
vn -1.0000 -0.0024 -0.0051
vn -0.8900 0.4560 -0.0045
vn -1.0000 -0.0026 -0.0056
vn -0.8914 0.3217 0.3191
vn -1.0000 -0.0024 -0.0058
vn -0.8349 -0.0018 0.5504
vn 0.8867 0.0019 0.4624
vn -0.0044 0.3827 0.9239
vn 0.8867 0.3256 0.3282
vn -0.0028 0.9239 0.3827
vn 0.8880 0.4598 0.0045
vn 0.0010 0.9239 -0.3827
vn 0.8899 0.3256 -0.3193
vn 0.0050 0.3827 -0.9239
vn 0.8913 0.0019 -0.4533
vn 0.0066 -0.3827 -0.9239
vn 0.8913 -0.3219 -0.3192
vn -0.0028 -0.3827 0.9239
vn 0.8880 -0.3220 0.3283
vn 0.0050 -0.9239 -0.3827
vn 0.8900 -0.4560 0.0045
vn 0.0010 -0.9239 0.3827
usemtl komonoA
f 1/1/1 2/2/2 3/3/3
f 4/4/4 2/2/2 1/1/1
f 5/5/5 4/4/4 1/1/1
f 6/6/6 4/4/4 5/5/5
f 7/7/7 6/6/6 5/5/5
f 8/8/8 6/6/6 7/7/7
f 9/9/9 8/8/8 7/7/7
f 10/10/10 8/8/8 9/9/9
f 11/11/11 10/10/10 9/9/9
f 9/9/9 12/12/12 11/11/11
f 13/13/13 12/12/12 9/9/9
f 7/7/7 13/13/13 9/9/9
f 14/14/14 13/13/13 7/7/7
f 15/15/15 14/14/14 7/7/7
f 16/16/16 14/14/14 15/15/15
f 17/17/17 16/16/16 15/15/15
f 18/18/18 16/16/16 17/17/17
f 19/19/19 18/18/18 17/17/17
f 1/1/1 7/7/7 5/5/5
f 20/20/20 7/7/7 1/1/1
f 3/3/3 20/20/20 1/1/1
f 21/21/21 20/20/20 3/3/3
f 22/22/22 21/21/21 3/3/3
f 23/23/23 21/21/21 22/22/22
f 21/21/21 7/7/7 20/20/20
f 24/24/24 7/7/7 21/21/21
f 23/23/23 24/24/24 21/21/21
f 25/25/25 24/24/24 23/23/23
f 26/26/26 25/25/25 23/23/23
f 27/27/27 25/25/25 26/26/26
f 7/7/7 17/17/17 15/15/15
f 28/28/28 17/17/17 7/7/7
f 29/29/29 28/28/28 7/7/7
f 19/19/19 28/28/28 29/29/29
f 30/30/30 19/19/19 29/29/29
f 29/29/29 27/27/27 30/30/30
f 31/31/31 27/27/27 29/29/29
f 7/7/7 31/31/31 29/29/29
f 25/25/25 31/31/31 7/7/7
f 24/24/24 25/25/25 7/7/7
f 34/7/32 33/18/32 32/30/33
f 35/26/33 34/7/32 32/30/33
f 36/22/32 34/7/32 35/26/33
f 34/7/32 37/32/32 33/18/32
f 38/11/34 37/32/32 34/7/32
f 39/33/32 38/11/34 34/7/32
f 6/6/6 40/33/35 4/4/4
f 10/10/10 40/33/35 6/6/6
f 8/8/8 10/10/10 6/6/6
f 14/14/14 12/12/12 13/13/13
f 41/32/36 12/12/12 14/14/14
f 16/16/16 41/32/36 14/14/14
f 34/7/32 42/2/32 39/33/32
f 36/22/32 42/2/32 34/7/32
f 19/19/19 17/17/17 28/28/28
f 27/27/27 31/31/31 25/25/25
f 57/34/37 58/35/37 59/36/38
f 68/37/39 51/37/40 69/37/41
f 56/37/42 51/37/40 68/37/39
f 70/37/43 56/37/42 68/37/39
f 55/37/44 56/37/42 70/37/43
f 71/37/45 55/37/44 70/37/43
f 54/37/46 55/37/44 71/37/45
f 72/37/43 54/37/46 71/37/45
f 53/37/47 54/37/46 72/37/43
f 73/37/48 53/37/47 72/37/43
f 52/37/49 53/37/47 73/37/48
f 74/37/43 52/37/49 73/37/48
f 44/37/50 52/37/49 74/37/43
f 75/37/51 44/37/50 74/37/43
f 43/37/43 44/37/50 75/37/51
f 76/37/52 43/37/43 75/37/51
f 45/37/53 43/37/43 76/37/52
f 77/37/42 45/37/53 76/37/52
f 65/37/43 45/37/53 77/37/42
f 78/37/41 65/37/43 77/37/42
f 46/37/54 65/37/43 78/37/41
f 79/37/55 46/37/54 78/37/41
f 47/37/43 46/37/54 79/37/55
f 80/37/56 47/37/43 79/37/55
f 48/37/57 47/37/43 80/37/56
f 81/37/41 48/37/57 80/37/56
f 66/37/58 48/37/57 81/37/41
f 82/37/43 66/37/58 81/37/41
f 49/37/59 66/37/58 82/37/43
f 83/37/52 49/37/59 82/37/43
f 50/37/58 49/37/59 83/37/52
f 62/37/60 84/37/61 58/37/62
f 85/37/63 84/37/61 62/37/60
f 63/37/64 85/37/63 62/37/60
f 86/37/65 85/37/63 63/37/64
f 64/37/66 86/37/65 63/37/64
f 87/37/67 86/37/65 64/37/66
f 67/37/68 87/37/67 64/37/66
f 88/37/69 87/37/67 67/37/68
f 61/37/70 88/37/69 67/37/68
f 89/37/71 88/37/69 61/37/70
f 60/37/72 89/37/71 61/37/70
f 90/37/73 89/37/71 60/37/72
f 57/37/74 90/37/73 60/37/72
f 59/37/75 90/37/73 57/37/74
f 55/37/44 91/37/76 56/37/42
f 92/37/77 91/37/76 55/37/44
f 93/37/78 92/37/77 55/37/44
f 90/37/73 92/37/77 93/37/78
f 94/37/79 90/37/73 93/37/78
f 89/37/71 90/37/73 94/37/79
f 95/37/80 89/37/71 94/37/79
f 96/37/81 89/37/71 95/37/80
f 44/37/50 96/37/81 95/37/80
f 97/37/82 96/37/81 44/37/50
f 43/37/43 97/37/82 44/37/50
f 45/37/53 97/37/82 43/37/43
f 98/37/83 88/37/69 97/37/82
f 87/37/67 88/37/69 98/37/83
f 99/37/84 87/37/67 98/37/83
f 100/37/85 87/37/67 99/37/84
f 46/37/54 100/37/85 99/37/84
f 101/37/86 100/37/85 46/37/54
f 47/37/43 101/37/86 46/37/54
f 48/37/57 101/37/86 47/37/43
f 84/37/61 59/37/75 58/37/62
f 102/37/87 59/37/75 84/37/61
f 103/37/88 102/37/87 84/37/61
f 51/37/40 102/37/87 103/37/88
f 50/37/58 51/37/40 103/37/88
f 69/37/41 51/37/40 50/37/58
f 83/37/52 69/37/41 50/37/58
f 104/37/89 86/37/65 101/37/86
f 85/37/63 86/37/65 104/37/89
f 105/37/90 85/37/63 104/37/89
f 106/37/91 85/37/63 105/37/90
f 49/37/59 106/37/91 105/37/90
f 103/37/88 49/37/59 50/37/58
f 106/37/91 49/37/59 103/37/88
f 84/37/61 106/37/91 103/37/88
f 85/37/63 106/37/91 84/37/61
f 53/37/47 94/37/79 93/37/78
f 95/37/80 94/37/79 53/37/47
f 52/37/49 95/37/80 53/37/47
f 44/37/50 95/37/80 52/37/49
f 59/37/75 92/37/77 90/37/73
f 91/37/76 92/37/77 59/37/75
f 102/37/87 91/37/76 59/37/75
f 51/37/40 91/37/76 102/37/87
f 45/37/53 98/37/83 97/37/82
f 99/37/84 98/37/83 45/37/53
f 65/37/43 99/37/84 45/37/53
f 46/37/54 99/37/84 65/37/43
f 48/37/57 104/37/89 101/37/86
f 105/37/90 104/37/89 48/37/57
f 66/37/58 105/37/90 48/37/57
f 49/37/59 105/37/90 66/37/58
f 54/37/46 93/37/78 55/37/44
f 53/37/47 93/37/78 54/37/46
f 96/37/81 88/37/69 89/37/71
f 97/37/82 88/37/69 96/37/81
f 100/37/85 86/37/65 87/37/67
f 101/37/86 86/37/65 100/37/85
f 56/37/42 91/37/76 51/37/40
