# Blender v2.78 (sub 0) OBJ File: ''
# www.blender.org
mtllib GreenHillTotemCollision.mtl
v 0.518799 20.347122 -3.544888
v 0.518799 18.438034 -3.544887
v -2.813839 24.111130 -2.767004
v -4.027999 23.526321 0.015121
v -3.966274 24.111130 0.015107
v -2.857501 23.526321 -2.810685
v -0.031395 24.111130 -3.919224
v -0.031402 23.526321 -3.981278
v 2.750831 24.111130 -2.767004
v 2.794500 23.526321 -2.810685
v 3.903267 24.111130 0.015107
v 3.964999 23.526321 0.015121
v 2.750831 24.111130 2.797547
v 2.794500 23.526321 2.841216
v -0.031394 24.111130 3.950095
v -0.031401 23.526321 4.011718
v -2.813839 24.111130 2.797547
v -2.857501 23.526321 2.841217
v -4.028000 16.773117 0.015118
v -2.857502 16.773117 -2.810688
v -0.031403 16.773117 -3.981281
v 2.794498 16.773117 -2.810688
v 3.964998 16.773117 0.015118
v 2.794499 16.773117 2.841213
v -0.031403 16.773117 4.011715
v -2.857502 16.773117 2.841214
v -4.023202 16.124023 0.015102
v -2.853888 16.124023 -2.807070
v -0.031393 16.124023 -3.976046
v 2.790774 16.124023 -2.807070
v 3.960197 16.124023 0.015102
v 2.790774 16.124023 2.837595
v -0.031393 16.124023 4.006907
v -2.853890 16.124023 2.837595
v -4.028001 15.508120 0.015118
v -2.857502 15.508119 -2.810688
v -0.031403 15.508121 -3.981281
v 2.794498 15.508119 -2.810688
v 3.964998 15.508118 0.015118
v 2.794499 15.508119 2.841213
v -0.031403 15.508116 4.011713
v -2.857502 15.508119 2.841214
v -4.028001 12.050524 0.015115
v -2.857503 12.050523 -2.810691
v -0.031404 12.050526 -3.981284
v 2.794498 12.050523 -2.810691
v 3.964997 12.050522 0.015115
v 2.794498 12.050523 2.841210
v -0.031403 12.050520 4.011712
v -2.857502 12.050523 2.841211
v -4.028002 8.550631 0.015112
v -2.857504 8.550630 -2.810693
v -0.031404 8.550633 -3.981286
v 2.794497 8.550630 -2.810693
v 3.964997 8.550629 0.015112
v 2.794497 8.550630 2.841208
v -0.031404 8.550627 4.011709
v -2.857503 8.550630 2.841208
v -4.020533 7.949831 0.015103
v -2.852155 7.949831 -2.805443
v -0.031397 7.949831 -3.973820
v 2.789145 7.949831 -2.805443
v 3.957521 7.949830 0.015103
v 2.789146 7.949830 2.835974
v -0.031397 7.949831 4.004235
v -2.852155 7.949831 2.835974
v -4.028002 7.326723 0.015112
v -2.857504 7.326725 -2.810694
v -0.031404 7.326725 -3.981287
v 2.794497 7.326725 -2.810694
v 3.964997 7.326722 0.015112
v 2.794497 7.326722 2.841207
v -0.031404 7.326723 4.011709
v -2.857503 7.326723 2.841208
v -4.053155 0.699328 0.015109
v -2.875290 0.699328 -2.828482
v -0.031405 0.699330 -4.006442
v 2.812281 0.699327 -2.828482
v 3.990146 0.699327 0.015109
v 2.812281 0.699327 2.858989
v -0.031405 0.699324 4.036858
v -2.875289 0.699328 2.858990
v -4.095479 -0.009870 0.015086
v -2.905200 -0.009869 -2.858370
v -0.031384 -0.009868 -4.048773
v 2.842072 -0.009871 -2.858370
v 4.032470 -0.009871 0.015086
v 2.842072 -0.009872 2.888901
v -0.031384 -0.009874 4.079294
v -2.905200 -0.009870 2.888901
v -0.031394 24.111130 0.015107
vt 0.6495 0.9936
vt 0.7035 0.9790
vt 0.7035 0.9936
vt 0.6495 0.9790
vt 0.5955 0.9936
vt 0.5955 0.9790
vt 0.5415 0.9936
vt 0.5415 0.9790
vt 0.4875 0.9936
vt 0.4875 0.9790
vt 0.4335 0.9936
vt 0.4335 0.9790
vt 0.3794 0.9936
vt 0.3794 0.9790
vt 0.3254 0.9936
vt 0.3254 0.9790
vt 0.2714 0.9936
vt 0.2714 0.9790
vt 0.7035 0.8386
vt 0.6495 0.8386
vt 0.5955 0.8386
vt 0.5415 0.8386
vt 0.4875 0.8386
vt 0.4335 0.8386
vt 0.3794 0.8386
vt 0.3254 0.8386
vt 0.2714 0.8386
vt 0.7035 0.8235
vt 0.6495 0.8235
vt 0.5955 0.8235
vt 0.5415 0.8235
vt 0.4875 0.8235
vt 0.4335 0.8235
vt 0.3794 0.8235
vt 0.3254 0.8235
vt 0.2714 0.8235
vt 0.7035 0.8083
vt 0.6495 0.8083
vt 0.5955 0.8083
vt 0.5415 0.8083
vt 0.4875 0.8083
vt 0.4335 0.8083
vt 0.3794 0.8083
vt 0.3254 0.8083
vt 0.2714 0.8083
vt 0.7035 0.7454
vt 0.6495 0.7454
vt 0.5955 0.7454
vt 0.5415 0.7454
vt 0.4875 0.7454
vt 0.4335 0.7454
vt 0.3794 0.7454
vt 0.3254 0.7454
vt 0.2714 0.7454
vt 0.7035 0.6811
vt 0.6495 0.6811
vt 0.5955 0.6811
vt 0.5415 0.6811
vt 0.4875 0.6811
vt 0.4335 0.6811
vt 0.3794 0.6811
vt 0.3254 0.6811
vt 0.2714 0.6811
vt 0.7035 0.6654
vt 0.6495 0.6654
vt 0.5955 0.6654
vt 0.5415 0.6654
vt 0.4875 0.6654
vt 0.4335 0.6654
vt 0.3794 0.6654
vt 0.3254 0.6654
vt 0.2714 0.6654
vt 0.7035 0.6497
vt 0.6495 0.6497
vt 0.5955 0.6497
vt 0.5415 0.6497
vt 0.4875 0.6497
vt 0.4335 0.6497
vt 0.3794 0.6497
vt 0.3254 0.6497
vt 0.2714 0.6497
vt 0.7035 0.5281
vt 0.6495 0.5281
vt 0.5955 0.5281
vt 0.5415 0.5281
vt 0.4875 0.5281
vt 0.4335 0.5281
vt 0.3794 0.5281
vt 0.3254 0.5281
vt 0.2714 0.5281
vt 0.7035 0.5132
vt 0.6495 0.5132
vt 0.5955 0.5132
vt 0.5415 0.5132
vt 0.4875 0.5132
vt 0.4335 0.5132
vt 0.3794 0.5132
vt 0.3254 0.5132
vt 0.2714 0.5132
vt 0.7768 0.6733
vt 0.7333 0.7168
vt 0.7153 0.6733
vt 0.7768 0.7348
vt 0.8203 0.7168
vt 0.8383 0.6733
vt 0.8203 0.6298
vt 0.7768 0.6117
vt 0.7333 0.6298
vn -0.7032 0.1050 -0.7032
vn -0.9987 0.0519 -0.0000
vn -0.9945 0.1050 -0.0000
vn -0.7061 0.0519 -0.7062
vn -0.0000 0.1055 -0.9944
vn -0.0000 0.0522 -0.9986
vn 0.7032 0.1051 -0.7032
vn 0.7062 0.0519 -0.7062
vn 0.9945 0.1050 -0.0000
vn 0.9987 0.0519 -0.0000
vn 0.7032 0.1050 0.7032
vn 0.7062 0.0519 0.7061
vn -0.0000 0.1048 0.9945
vn 0.0000 0.0518 0.9987
vn -0.7032 0.1050 0.7032
vn -0.7062 0.0519 0.7062
vn -1.0000 -0.0037 0.0000
vn -0.7071 -0.0039 -0.7071
vn 0.0000 -0.0040 -1.0000
vn 0.7071 -0.0040 -0.7071
vn 1.0000 -0.0037 -0.0000
vn 0.7071 -0.0040 0.7071
vn 0.0000 -0.0037 1.0000
vn -0.7071 -0.0039 0.7071
vn -1.0000 -0.0074 0.0000
vn -0.7070 -0.0079 -0.7071
vn 0.0000 -0.0081 -1.0000
vn 0.7071 -0.0080 -0.7071
vn 1.0000 -0.0074 -0.0001
vn 0.7070 -0.0080 0.7071
vn 0.0001 -0.0074 1.0000
vn -0.7071 -0.0078 0.7071
vn -0.7071 0.0083 -0.7071
vn -1.0000 0.0039 -0.0000
vn -1.0000 0.0078 -0.0001
vn -0.7071 0.0042 -0.7071
vn 0.0000 0.0085 -1.0000
vn 0.0000 0.0042 -1.0000
vn 0.7070 0.0084 -0.7071
vn 0.7071 0.0042 -0.7071
vn 1.0000 0.0078 0.0000
vn 1.0000 0.0039 0.0000
vn 0.7071 0.0084 0.7071
vn 0.7071 0.0042 0.7071
vn -0.0000 0.0078 1.0000
vn -0.0000 0.0039 1.0000
vn -0.7071 0.0083 0.7071
vn -0.7071 0.0041 0.7071
vn -1.0000 0.0000 -0.0000
vn -0.7071 0.0000 -0.7071
vn 0.0000 0.0000 -1.0000
vn 0.7071 0.0000 -0.7071
vn 1.0000 -0.0000 -0.0000
vn 0.7071 -0.0000 0.7071
vn 0.0000 -0.0000 1.0000
vn -0.7071 -0.0000 0.7071
vn -1.0000 -0.0062 -0.0000
vn -0.7071 -0.0062 -0.7071
vn 0.0000 -0.0062 -1.0000
vn 0.7071 -0.0062 -0.7071
vn 1.0000 -0.0062 -0.0000
vn 0.7071 -0.0062 0.7071
vn 0.0000 -0.0062 1.0000
vn -0.7071 -0.0062 0.7071
vn -0.9999 -0.0124 -0.0000
vn -0.7070 -0.0125 -0.7071
vn 0.0000 -0.0124 -0.9999
vn 0.7070 -0.0125 -0.7071
vn 0.9999 -0.0124 -0.0000
vn 0.7070 -0.0125 0.7071
vn 0.0000 -0.0124 0.9999
vn -0.7070 -0.0124 0.7071
vn -0.7070 0.0120 -0.7071
vn -1.0000 0.0079 -0.0000
vn -0.9999 0.0120 -0.0000
vn -0.7071 0.0079 -0.7071
vn 0.0000 0.0120 -0.9999
vn 0.0000 0.0079 -1.0000
vn 0.7070 0.0120 -0.7071
vn 0.7071 0.0079 -0.7071
vn 0.9999 0.0120 -0.0000
vn 1.0000 0.0079 -0.0000
vn 0.7070 0.0120 0.7071
vn 0.7071 0.0079 0.7071
vn 0.0000 0.0120 0.9999
vn 0.0000 0.0079 1.0000
vn -0.7070 0.0120 0.7071
vn -0.7071 0.0079 0.7071
vn -0.9995 0.0319 -0.0000
vn -0.7067 0.0319 -0.7068
vn 0.0000 0.0319 -0.9995
vn 0.7068 0.0318 -0.7067
vn 0.9995 0.0319 -0.0000
vn 0.7068 0.0318 0.7067
vn 0.0000 0.0320 0.9995
vn -0.7068 0.0319 0.7067
vn -0.9982 0.0596 -0.0000
vn -0.7059 0.0595 -0.7059
vn 0.0000 0.0596 -0.9982
vn 0.7059 0.0594 -0.7059
vn 0.9982 0.0596 -0.0000
vn 0.7058 0.0594 0.7059
vn 0.0000 0.0597 0.9982
vn -0.7059 0.0595 0.7058
vn 0.0000 1.0000 -0.0000
usemtl happa5
s 1
f 3/1/1 4/2/2 5/3/3
f 6/4/4 4/2/2 3/1/1
f 7/5/5 6/4/4 3/1/1
f 8/6/6 6/4/4 7/5/5
f 9/7/7 8/6/6 7/5/5
f 10/8/8 8/6/6 9/7/7
f 11/9/9 10/8/8 9/7/7
f 12/10/10 10/8/8 11/9/9
f 13/11/11 12/10/10 11/9/9
f 14/12/12 12/10/10 13/11/11
f 15/13/13 14/12/12 13/11/11
f 16/14/14 14/12/12 15/13/13
f 17/15/15 16/14/14 15/13/13
f 18/16/16 16/14/14 17/15/15
f 5/17/3 18/16/16 17/15/15
f 4/18/2 18/16/16 5/17/3
f 6/4/4 19/19/17 4/2/2
f 20/20/18 19/19/17 6/4/4
f 8/6/6 20/20/18 6/4/4
f 21/21/19 20/20/18 8/6/6
f 10/8/8 21/21/19 8/6/6
f 22/22/20 21/21/19 10/8/8
f 12/10/10 22/22/20 10/8/8
f 23/23/21 22/22/20 12/10/10
f 14/12/12 23/23/21 12/10/10
f 24/24/22 23/23/21 14/12/12
f 16/14/14 24/24/22 14/12/12
f 25/25/23 24/24/22 16/14/14
f 18/16/16 25/25/23 16/14/14
f 26/26/24 25/25/23 18/16/16
f 4/18/2 26/26/24 18/16/16
f 19/27/17 26/26/24 4/18/2
f 20/20/18 27/28/25 19/19/17
f 28/29/26 27/28/25 20/20/18
f 21/21/19 28/29/26 20/20/18
f 29/30/27 28/29/26 21/21/19
f 22/22/20 29/30/27 21/21/19
f 30/31/28 29/30/27 22/22/20
f 23/23/21 30/31/28 22/22/20
f 31/32/29 30/31/28 23/23/21
f 24/24/22 31/32/29 23/23/21
f 32/33/30 31/32/29 24/24/22
f 25/25/23 32/33/30 24/24/22
f 33/34/31 32/33/30 25/25/23
f 26/26/24 33/34/31 25/25/23
f 34/35/32 33/34/31 26/26/24
f 19/27/17 34/35/32 26/26/24
f 27/36/25 34/35/32 19/27/17
f 28/29/33 35/37/34 27/28/35
f 36/38/36 35/37/34 28/29/33
f 29/30/37 36/38/36 28/29/33
f 37/39/38 36/38/36 29/30/37
f 30/31/39 37/39/38 29/30/37
f 38/40/40 37/39/38 30/31/39
f 31/32/41 38/40/40 30/31/39
f 39/41/42 38/40/40 31/32/41
f 32/33/43 39/41/42 31/32/41
f 40/42/44 39/41/42 32/33/43
f 33/34/45 40/42/44 32/33/43
f 41/43/46 40/42/44 33/34/45
f 34/35/47 41/43/46 33/34/45
f 42/44/48 41/43/46 34/35/47
f 27/36/35 42/44/48 34/35/47
f 35/45/34 42/44/48 27/36/35
f 36/38/36 43/46/49 35/37/34
f 44/47/50 43/46/49 36/38/36
f 37/39/38 44/47/50 36/38/36
f 45/48/51 44/47/50 37/39/38
f 38/40/40 45/48/51 37/39/38
f 46/49/52 45/48/51 38/40/40
f 39/41/42 46/49/52 38/40/40
f 47/50/53 46/49/52 39/41/42
f 40/42/44 47/50/53 39/41/42
f 48/51/54 47/50/53 40/42/44
f 41/43/46 48/51/54 40/42/44
f 49/52/55 48/51/54 41/43/46
f 42/44/48 49/52/55 41/43/46
f 50/53/56 49/52/55 42/44/48
f 35/45/34 50/53/56 42/44/48
f 43/54/49 50/53/56 35/45/34
f 44/47/50 51/55/57 43/46/49
f 52/56/58 51/55/57 44/47/50
f 45/48/51 52/56/58 44/47/50
f 53/57/59 52/56/58 45/48/51
f 46/49/52 53/57/59 45/48/51
f 54/58/60 53/57/59 46/49/52
f 47/50/53 54/58/60 46/49/52
f 55/59/61 54/58/60 47/50/53
f 48/51/54 55/59/61 47/50/53
f 56/60/62 55/59/61 48/51/54
f 49/52/55 56/60/62 48/51/54
f 57/61/63 56/60/62 49/52/55
f 50/53/56 57/61/63 49/52/55
f 58/62/64 57/61/63 50/53/56
f 43/54/49 58/62/64 50/53/56
f 51/63/57 58/62/64 43/54/49
f 52/56/58 59/64/65 51/55/57
f 60/65/66 59/64/65 52/56/58
f 53/57/59 60/65/66 52/56/58
f 61/66/67 60/65/66 53/57/59
f 54/58/60 61/66/67 53/57/59
f 62/67/68 61/66/67 54/58/60
f 55/59/61 62/67/68 54/58/60
f 63/68/69 62/67/68 55/59/61
f 56/60/62 63/68/69 55/59/61
f 64/69/70 63/68/69 56/60/62
f 57/61/63 64/69/70 56/60/62
f 65/70/71 64/69/70 57/61/63
f 58/62/64 65/70/71 57/61/63
f 66/71/72 65/70/71 58/62/64
f 51/63/57 66/71/72 58/62/64
f 59/72/65 66/71/72 51/63/57
f 60/65/73 67/73/74 59/64/75
f 68/74/76 67/73/74 60/65/73
f 61/66/77 68/74/76 60/65/73
f 69/75/78 68/74/76 61/66/77
f 62/67/79 69/75/78 61/66/77
f 70/76/80 69/75/78 62/67/79
f 63/68/81 70/76/80 62/67/79
f 71/77/82 70/76/80 63/68/81
f 64/69/83 71/77/82 63/68/81
f 72/78/84 71/77/82 64/69/83
f 65/70/85 72/78/84 64/69/83
f 73/79/86 72/78/84 65/70/85
f 66/71/87 73/79/86 65/70/85
f 74/80/88 73/79/86 66/71/87
f 59/72/75 74/80/88 66/71/87
f 67/81/74 74/80/88 59/72/75
f 68/74/76 75/82/89 67/73/74
f 76/83/90 75/82/89 68/74/76
f 69/75/78 76/83/90 68/74/76
f 77/84/91 76/83/90 69/75/78
f 70/76/80 77/84/91 69/75/78
f 78/85/92 77/84/91 70/76/80
f 71/77/82 78/85/92 70/76/80
f 79/86/93 78/85/92 71/77/82
f 72/78/84 79/86/93 71/77/82
f 80/87/94 79/86/93 72/78/84
f 73/79/86 80/87/94 72/78/84
f 81/88/95 80/87/94 73/79/86
f 74/80/88 81/88/95 73/79/86
f 82/89/96 81/88/95 74/80/88
f 67/81/74 82/89/96 74/80/88
f 75/90/89 82/89/96 67/81/74
f 76/83/90 83/91/97 75/82/89
f 84/92/98 83/91/97 76/83/90
f 77/84/91 84/92/98 76/83/90
f 85/93/99 84/92/98 77/84/91
f 78/85/92 85/93/99 77/84/91
f 86/94/100 85/93/99 78/85/92
f 79/86/93 86/94/100 78/85/92
f 87/95/101 86/94/100 79/86/93
f 80/87/94 87/95/101 79/86/93
f 88/96/102 87/95/101 80/87/94
f 81/88/95 88/96/102 80/87/94
f 89/97/103 88/96/102 81/88/95
f 82/89/96 89/97/103 81/88/95
f 90/98/104 89/97/103 82/89/96
f 75/90/89 90/98/104 82/89/96
f 83/99/97 90/98/104 75/90/89
f 91/100/105 17/101/105 15/102/105
f 5/103/105 17/101/105 91/100/105
f 3/104/105 5/103/105 91/100/105
f 91/100/105 7/105/105 3/104/105
f 9/106/105 7/105/105 91/100/105
f 11/107/105 9/106/105 91/100/105
f 91/100/105 13/108/105 11/107/105
f 15/102/105 13/108/105 91/100/105
