# Blender v2.78 (sub 0) OBJ File: ''
# www.blender.org
mtllib GreenHillRock.mtl
v 6.482510 11.460846 9.776730
v 9.476208 5.957797 5.793449
v 8.840509 11.460852 5.398356
v 12.505159 5.152292 9.219030
v 11.943708 6.939099 13.424278
v 14.625860 -0.841094 11.682756
v 14.057657 -0.841098 14.338060
v 10.421057 -0.035914 14.835283
v 8.135659 7.744605 14.545525
v -0.656740 11.460848 11.098523
v -10.605627 16.963902 8.975086
v -11.663441 15.915552 9.687012
v -6.105791 16.007793 11.250320
v -11.482101 16.963905 4.701705
v -6.159941 16.963905 4.668777
v -6.159941 16.963907 -3.281663
v -0.656740 16.963905 -3.281663
v -6.159941 16.963915 -7.818147
v -0.656740 16.963913 -7.816911
v -0.656740 15.633856 -8.259295
v 4.378759 15.540266 -7.280550
v 6.915709 14.447514 -7.276797
v 5.115560 15.320513 -3.737964
v 7.452860 14.096956 -3.737967
v 4.846310 11.460860 -9.128546
v 2.879958 11.460860 -10.113607
v 3.484607 5.957812 -14.766731
v -0.656742 5.957811 -13.862972
v 4.587557 -0.035891 -15.363890
v -0.656743 -0.035891 -16.825346
v 6.560206 -0.035892 -14.965038
v 4.767861 16.049789 9.296584
v 6.887211 15.949610 7.535886
v -0.602289 15.865749 11.053664
v -6.159941 11.460848 11.278832
v -11.663441 11.460850 9.718502
v 8.671158 -0.035916 15.849321
v -0.656742 -0.035914 17.210573
v 1.346359 7.744605 14.628151
v -6.159942 -0.035913 16.950884
v -6.159941 7.744606 13.841850
v -14.583643 -0.035911 15.975434
v -11.663441 7.744607 12.619530
v -11.663443 5.957812 -13.226081
v -6.159944 -0.035889 -17.416960
v -11.663445 -0.035889 -15.240614
v -6.159942 5.957814 -15.181922
v -11.663443 11.460863 -10.113605
v -6.159941 11.460862 -10.113607
v -11.663441 15.794075 -8.463457
v -6.159941 16.136209 -9.059831
v -6.105791 16.934650 9.931960
v -0.656739 16.963903 4.668777
v 9.526608 9.041210 -3.056540
v 9.719508 9.041206 -0.461068
v 8.193859 11.460858 -4.344733
v 10.030158 5.957806 -4.860908
v 7.184058 11.460858 -7.192020
v 9.505157 5.957808 -7.723812
v -0.941590 11.809013 -9.161688
v 10.989258 -0.035911 10.272890
v 14.175108 -0.899755 9.059724
v 10.466356 -0.035906 4.104754
v 6.572658 5.957808 -9.355511
v 4.886508 5.957809 -13.491447
v 8.563307 -0.035899 -9.187330
v 8.134760 14.526239 6.053415
v 8.375509 11.460854 0.544504
v 9.677208 5.957802 0.739371
v -0.602739 16.934649 9.931960
v -11.114442 16.963915 -7.469799
v 10.479406 -0.035899 -4.794311
v 11.087058 -0.035904 -1.796415
v 10.865957 5.957802 -2.338494
v 7.169809 14.564949 0.237897
v 5.444211 15.844307 -0.834413
v -11.442205 16.963907 -3.263528
v -13.721062 11.460860 -3.800231
v -12.529807 15.828333 -3.290835
v -16.509489 -0.035896 -4.306614
v -15.291349 6.618635 -3.938177
v -15.291349 7.247737 5.161664
v -13.721060 11.460854 4.644902
v -17.471403 -0.035903 5.975967
v -12.529807 15.880621 4.522120
vt 0.9354 0.0782
vt 0.9354 0.0782
vt 0.9354 0.0782
vt 0.9354 0.0782
vt 0.9354 0.0782
vt 0.9354 0.0782
vt 0.9354 0.0782
vt 0.9354 0.0782
vt 0.9354 0.0782
vt 0.9354 0.0782
vt 0.9354 0.0782
vt 0.9354 0.0782
vt 0.9354 0.0782
vt 0.9354 0.0782
vt 0.9354 0.0782
vt 0.9354 0.0782
vt 0.9354 0.0782
vt 0.9354 0.0782
vt 0.9354 0.0782
vt 0.9354 0.0782
vt 0.9354 0.0782
vt 0.9354 0.0782
vt 0.9354 0.0782
vt 0.9354 0.0782
vt 0.9354 0.0782
vt 0.9354 0.0782
vt 0.9354 0.0782
vt 0.9354 0.0782
vt 0.9354 0.0782
vt 0.9354 0.0782
vt 0.9354 0.0782
vt 0.9354 0.0782
vt 0.9354 0.0782
vt 0.9354 0.0782
vt 0.9354 0.0782
vt 0.9354 0.0782
vt 0.9354 0.0782
vt 0.9354 0.0782
vt 0.9354 0.0782
vt 0.9354 0.0782
vt 0.9354 0.0782
vt 0.9354 0.0782
vt 0.9354 0.0782
vt 0.9354 0.0782
vt 0.9354 0.0782
vt 0.9354 0.0782
vt 0.9354 0.0782
vt 0.9354 0.0782
vt 0.9354 0.0782
vt 0.9354 0.0782
vt 0.9354 0.0782
vt 0.9354 0.0782
vt 0.9354 0.0782
vt 0.9354 0.0782
vt 0.9354 0.0782
vt 0.9354 0.0782
vt 0.9354 0.0782
vt 0.9354 0.0782
vt 0.9354 0.0782
vt 0.9354 0.0782
vt 0.9354 0.0782
vt 0.9354 0.0782
vt 0.9354 0.0782
vt 0.9354 0.0782
vt 0.9354 0.0782
vt 0.9354 0.0782
vt 0.9354 0.0782
vt 0.9354 0.0782
vt 0.9354 0.0782
vt 0.9354 0.0782
vt 0.9354 0.0782
vt 0.9354 0.0782
vt 0.9354 0.0782
vt 0.9354 0.0782
vt 0.9354 0.0782
vt 0.9354 0.0782
vt 0.9354 0.0782
vt 0.9354 0.0782
vt 0.9354 0.0782
vt 0.9354 0.0782
vt 0.9354 0.0782
vt 0.9354 0.0782
vt 0.9354 0.0782
vt 0.9354 0.0782
vt 0.9354 0.0782
vn 0.5995 0.5763 0.5554
vn 0.9289 0.3227 -0.1820
vn 0.9574 0.1969 0.2110
vn 0.8365 0.4468 -0.3172
vn 0.6915 0.5396 0.4803
vn 0.7754 -0.6312 0.0208
vn 0.5489 -0.5825 0.5995
vn 0.2383 -0.3119 0.9197
vn 0.2034 0.5129 0.8340
vn 0.0568 0.3774 0.9243
vn -0.3092 0.8991 0.3098
vn -0.5043 0.4262 0.7510
vn -0.0909 0.4443 0.8912
vn -0.8524 0.5047 -0.1370
vn -0.3921 0.8524 -0.3459
vn -0.6036 0.4679 -0.6455
vn 0.0007 1.0000 0.0021
vn -0.4153 0.9085 0.0466
vn 0.0000 1.0000 0.0000
vn 0.1065 0.9942 -0.0177
vn 0.0079 0.9442 -0.3292
vn 0.1354 0.8101 -0.5704
vn 0.0933 0.3408 -0.9355
vn 0.3136 0.8078 -0.4991
vn 0.6846 0.5414 -0.4880
vn 0.7127 0.6874 -0.1396
vn 0.7962 0.6038 -0.0377
vn 0.5161 0.3813 -0.7670
vn 0.1270 0.5529 -0.8235
vn 0.2007 0.3692 -0.9074
vn 0.0336 0.5015 -0.8645
vn 0.1196 0.7974 -0.5915
vn 0.1652 0.4421 -0.8816
vn 0.6213 0.3652 -0.6933
vn 0.4184 0.6544 0.6298
vn 0.6411 0.6309 0.4370
vn 0.1235 0.4011 0.9077
vn -0.1191 0.3074 0.9441
vn -0.6951 0.2936 0.6563
vn 0.2450 -0.5881 0.7708
vn 0.0323 0.2876 0.9572
vn -0.0046 0.4927 0.8702
vn -0.0878 0.3574 0.9298
vn -0.1175 0.4969 0.8598
vn -0.5787 0.4777 0.6610
vn -0.5361 0.4990 0.6809
vn -0.6537 0.3164 -0.6875
vn -0.0866 0.3685 -0.9256
vn -0.6359 0.2459 -0.7315
vn -0.0245 0.4856 -0.8739
vn -0.5940 0.3945 -0.7011
vn 0.0582 0.4787 -0.8760
vn 0.0225 0.5646 -0.8250
vn -0.0238 0.9444 0.3281
vn 0.0663 0.9978 0.0022
vn 0.9156 0.3528 -0.1928
vn 0.9144 0.3087 0.2619
vn 0.8917 0.3246 -0.3153
vn 0.9461 0.1768 -0.2714
vn 0.8135 0.2420 -0.5289
vn 0.8390 0.1661 -0.5182
vn -0.0182 0.4196 -0.9075
vn -0.2321 -0.9726 0.0116
vn 0.6770 -0.6650 -0.3154
vn 0.9392 0.3367 -0.0677
vn 0.7272 0.2411 -0.6427
vn 0.7377 0.3582 -0.5723
vn 0.8661 0.1353 -0.4812
vn 0.8978 0.3841 0.2153
vn 0.9415 0.3192 0.1080
vn 0.9525 0.2094 0.2213
vn 0.0889 0.9202 0.3812
vn -0.8940 0.4009 0.2001
vn 0.9521 0.0681 -0.2981
vn 0.9973 0.0504 -0.0538
vn 0.9812 0.1881 -0.0432
vn 0.7762 0.5397 -0.3260
vn 0.4764 0.8736 -0.0993
vn -0.3997 0.9165 -0.0169
vn -0.9331 0.3345 0.1316
vn -0.9542 0.2395 -0.1794
vn -0.9522 0.2735 -0.1359
vn -0.9347 0.3105 0.1731
vn -0.9555 0.1992 -0.2176
vn -0.9326 0.3153 0.1757
usemtl iwa
s 1
f 1/1/1 2/2/2 3/3/3
f 4/4/4 2/2/2 1/1/1
f 5/5/5 4/4/4 1/1/1
f 6/6/6 4/4/4 5/5/5
f 7/7/7 6/6/6 5/5/5
f 8/8/8 6/6/6 7/7/7
f 5/5/5 8/8/8 7/7/7
f 9/9/9 8/8/8 5/5/5
f 1/1/1 9/9/9 5/5/5
f 10/10/10 9/9/9 1/1/1
f 11/11/11 12/12/12 13/13/13
f 79/14/14 71/15/15 50/16/16
f 15/17/17 14/18/18 11/11/11
f 16/19/19 14/18/18 15/17/17
f 17/20/20 16/19/19 15/17/17
f 18/21/21 16/19/19 17/20/20
f 19/22/22 18/21/21 17/20/20
f 20/23/23 18/21/21 19/22/22
f 21/24/24 20/23/23 19/22/22
f 22/25/25 23/26/26 24/27/27
f 21/24/24 23/26/26 22/25/25
f 25/28/28 21/24/24 22/25/25
f 26/29/29 21/24/24 25/28/28
f 27/30/30 26/29/29 25/28/28
f 28/31/31 26/29/29 27/30/30
f 29/32/32 28/31/31 27/30/30
f 30/33/33 28/31/31 29/32/32
f 31/34/34 30/33/33 29/32/32
f 32/35/35 3/3/3 33/36/36
f 1/1/1 3/3/3 32/35/35
f 34/37/37 1/1/1 32/35/35
f 10/10/10 1/1/1 34/37/37
f 13/13/13 10/10/10 34/37/37
f 35/38/38 10/10/10 13/13/13
f 12/12/12 35/38/38 13/13/13
f 36/39/39 35/38/38 12/12/12
f 37/40/40 8/8/8 9/9/9
f 38/41/41 8/8/8 37/40/40
f 39/42/42 38/41/41 37/40/40
f 40/43/43 38/41/41 39/42/42
f 41/44/44 40/43/43 39/42/42
f 42/45/45 40/43/43 41/44/44
f 43/46/46 42/45/45 41/44/44
f 44/47/47 45/48/48 46/49/49
f 47/50/50 45/48/48 44/47/47
f 48/51/51 47/50/50 44/47/47
f 49/52/52 47/50/50 48/51/51
f 50/16/16 49/52/52 48/51/51
f 51/53/53 49/52/52 50/16/16
f 52/54/54 11/11/11 13/13/13
f 15/17/17 11/11/11 52/54/54
f 53/55/55 15/17/17 52/54/54
f 17/20/20 15/17/17 53/55/55
f 33/36/36 17/20/20 53/55/55
f 54/56/56 24/27/27 55/57/57
f 56/58/58 24/27/27 54/56/56
f 57/59/59 56/58/58 54/56/56
f 58/60/60 56/58/58 57/59/59
f 59/61/61 58/60/60 57/59/59
f 26/29/29 20/23/23 21/24/24
f 60/62/62 20/23/23 26/29/29
f 28/31/31 60/62/62 26/29/29
f 49/52/52 60/62/62 28/31/31
f 47/50/50 49/52/52 28/31/31
f 61/63/63 6/6/6 8/8/8
f 62/64/64 6/6/6 61/63/63
f 63/65/65 62/64/64 61/63/63
f 4/4/4 62/64/64 63/65/65
f 2/2/2 4/4/4 63/65/65
f 64/66/66 25/28/28 59/61/61
f 65/67/67 25/28/28 64/66/66
f 66/68/68 65/67/67 64/66/66
f 31/34/34 65/67/67 66/68/68
f 3/3/3 67/69/69 33/36/36
f 68/70/70 67/69/69 3/3/3
f 69/71/71 68/70/70 3/3/3
f 70/72/72 52/54/54 34/37/37
f 53/55/55 52/54/54 70/72/72
f 33/36/36 53/55/55 70/72/72
f 85/73/73 36/39/39 12/12/12
f 18/21/21 50/16/16 71/15/15
f 16/19/19 18/21/21 71/15/15
f 57/59/59 66/68/68 59/61/61
f 72/74/74 66/68/68 57/59/59
f 73/75/75 72/74/74 57/59/59
f 65/67/67 27/30/30 25/28/28
f 29/32/32 27/30/30 65/67/67
f 31/34/34 29/32/32 65/67/67
f 74/76/76 55/57/57 69/71/71
f 54/56/56 55/57/57 74/76/76
f 57/59/59 54/56/56 74/76/76
f 41/44/44 36/39/39 43/46/46
f 35/38/38 36/39/39 41/44/44
f 10/10/10 35/38/38 41/44/44
f 39/42/42 10/10/10 41/44/44
f 9/9/9 10/10/10 39/42/42
f 37/40/40 9/9/9 39/42/42
f 75/77/77 55/57/57 76/78/78
f 68/70/70 55/57/57 75/77/77
f 51/53/53 18/21/21 20/23/23
f 50/16/16 18/21/21 51/53/53
f 77/79/79 16/19/19 71/15/15
f 14/18/18 16/19/19 77/79/79
f 21/24/24 17/20/20 76/78/78
f 19/22/22 17/20/20 21/24/24
f 76/78/78 24/27/27 23/26/26
f 55/57/57 24/27/27 76/78/78
f 58/60/60 24/27/27 56/58/58
f 22/25/25 24/27/27 58/60/60
f 58/60/60 25/28/28 22/25/25
f 59/61/61 25/28/28 58/60/60
f 60/62/62 51/53/53 20/23/23
f 49/52/52 51/53/53 60/62/62
f 45/48/48 28/31/31 30/33/33
f 47/50/50 28/31/31 45/48/48
f 63/65/65 74/76/76 69/71/71
f 73/75/75 74/76/76 63/65/65
f 2/2/2 69/71/71 3/3/3
f 63/65/65 69/71/71 2/2/2
f 33/36/36 67/69/69 75/77/77
f 76/78/78 33/36/36 75/77/77
f 69/71/71 55/57/57 68/70/70
f 70/72/72 34/37/37 32/35/35
f 34/37/37 52/54/54 13/13/13
f 23/26/26 21/24/24 76/78/78
f 33/36/36 76/78/78 17/20/20
f 70/72/72 32/35/35 33/36/36
f 67/69/69 68/70/70 75/77/77
f 66/68/68 64/66/66 59/61/61
f 57/59/59 74/76/76 73/75/75
f 6/6/6 62/64/64 4/4/4
f 43/46/46 84/80/80 42/45/45
f 81/81/81 48/51/51 44/47/47
f 78/82/82 50/16/16 48/51/51
f 77/79/79 85/73/73 14/18/18
f 81/81/81 83/83/83 78/82/82
f 80/84/84 44/47/47 46/49/49
f 82/85/85 36/39/39 83/83/83
f 83/83/83 79/14/14 78/82/82
f 82/85/85 80/84/84 84/80/80
f 85/73/73 11/11/11 14/18/18
f 79/14/14 77/79/79 71/15/15
f 85/73/73 83/83/83 36/39/39
f 43/46/46 82/85/85 84/80/80
f 81/81/81 78/82/82 48/51/51
f 78/82/82 79/14/14 50/16/16
f 77/79/79 79/14/14 85/73/73
f 81/81/81 82/85/85 83/83/83
f 80/84/84 81/81/81 44/47/47
f 82/85/85 43/46/46 36/39/39
f 83/83/83 85/73/73 79/14/14
f 82/85/85 81/81/81 80/84/84
f 85/73/73 12/12/12 11/11/11
