# Blender v2.79 (sub 0) OBJ File: ''
# www.blender.org
mtllib GreenHillRock.mtl
v 4.321673 7.640563 6.517821
v 6.317472 3.971864 3.862300
v 5.893673 7.640567 3.598905
v 8.336773 3.434860 6.146021
v 7.962472 4.626065 8.949520
v 9.750574 -0.560731 7.788505
v 9.371772 -0.560734 9.558707
v 6.947371 -0.023944 9.890189
v 5.423773 5.163069 9.697018
v -0.437827 7.640564 7.399017
v -7.070418 11.309267 5.983393
v -7.775627 10.610368 6.458010
v -4.070528 10.671862 7.500216
v -7.654735 11.309270 3.134472
v -4.106627 11.309270 3.112520
v -4.106627 11.309272 -2.187773
v -0.437827 11.309271 -2.187773
v -4.106627 11.309278 -5.212096
v -0.437827 11.309277 -5.211272
v -0.437827 10.422572 -5.506195
v 2.919173 10.360179 -4.853698
v 4.610473 9.631677 -4.851197
v 3.410373 10.213675 -2.491974
v 4.968574 9.397971 -2.491977
v 3.230874 7.640574 -6.085696
v 1.919972 7.640574 -6.742404
v 2.323071 3.971876 -9.844487
v -0.437828 3.971875 -9.241981
v 3.058371 -0.023926 -10.242594
v -0.437829 -0.023926 -11.216898
v 4.373471 -0.023926 -9.976692
v 3.178574 10.699859 6.197725
v 4.591474 10.633073 5.023926
v -0.401526 10.577166 7.369112
v -4.106627 7.640564 7.519223
v -7.775627 7.640566 6.479003
v 5.780772 -0.023946 10.566215
v -0.437828 -0.023945 11.473716
v 0.897573 5.163069 9.752102
v -4.106628 -0.023944 11.300590
v -4.106627 5.163069 9.227901
v -9.722429 -0.023942 10.650290
v -7.775627 5.163070 8.413021
v -7.775629 3.971876 -8.817387
v -4.106629 -0.023924 -11.611307
v -7.775630 -0.023924 -10.160410
v -4.106628 3.971878 -10.121281
v -7.775629 7.640576 -6.742402
v -4.106627 7.640576 -6.742404
v -7.775627 10.529385 -5.642303
v -4.106627 10.757474 -6.039886
v -4.070528 11.289766 6.621309
v -0.437826 11.309268 3.112520
v 6.351072 6.027474 -2.037693
v 6.479672 6.027471 -0.307378
v 5.462573 7.640573 -2.896488
v 6.686772 3.971871 -3.240605
v 4.789372 7.640574 -4.794679
v 6.336772 3.971873 -5.149208
v -0.627727 7.872677 -6.107790
v 7.326172 -0.023942 6.848594
v 9.450072 -0.599838 6.039816
v 6.977571 -0.023938 2.736503
v 4.381772 3.971873 -6.237007
v 3.257672 3.971874 -8.994298
v 5.708871 -0.023932 -6.124887
v 5.423173 9.684159 4.035612
v 5.583673 7.640569 0.363004
v 6.451472 3.971868 0.492915
v -0.401826 11.289765 6.621309
v -7.409628 11.309278 -4.979864
v 6.986271 -0.023932 -3.196208
v 7.391372 -0.023936 -1.197610
v 7.243972 3.971868 -1.558995
v 4.779873 9.709967 0.158600
v 3.629474 10.562872 -0.556274
v -7.628137 11.309272 -2.175683
v -9.147375 7.640574 -2.533486
v -8.353205 10.552222 -2.193888
v -11.006327 -0.023930 -2.871076
v -10.194233 4.412424 -2.625451
v -10.194233 4.831824 3.441110
v -9.147373 7.640569 3.096603
v -11.647602 -0.023936 3.983978
v -8.353205 10.587080 3.014748
vt 0.935400 0.078200
vt 0.935400 0.078200
vt 0.935400 0.078200
vt 0.935400 0.078200
vt 0.935400 0.078200
vt 0.935400 0.078200
vt 0.935400 0.078200
vt 0.935400 0.078200
vt 0.935400 0.078200
vt 0.935400 0.078200
vt 0.935400 0.078200
vt 0.935400 0.078200
vt 0.935400 0.078200
vt 0.935400 0.078200
vt 0.935400 0.078200
vt 0.935400 0.078200
vt 0.935400 0.078200
vt 0.935400 0.078200
vt 0.935400 0.078200
vt 0.935400 0.078200
vt 0.935400 0.078200
vt 0.935400 0.078200
vt 0.935400 0.078200
vt 0.935400 0.078200
vt 0.935400 0.078200
vt 0.935400 0.078200
vt 0.935400 0.078200
vt 0.935400 0.078200
vt 0.935400 0.078200
vt 0.935400 0.078200
vt 0.935400 0.078200
vt 0.935400 0.078200
vt 0.935400 0.078200
vt 0.935400 0.078200
vt 0.935400 0.078200
vt 0.935400 0.078200
vt 0.935400 0.078200
vt 0.935400 0.078200
vt 0.935400 0.078200
vt 0.935400 0.078200
vt 0.935400 0.078200
vt 0.935400 0.078200
vt 0.935400 0.078200
vt 0.935400 0.078200
vt 0.935400 0.078200
vt 0.935400 0.078200
vt 0.935400 0.078200
vt 0.935400 0.078200
vt 0.935400 0.078200
vt 0.935400 0.078200
vt 0.935400 0.078200
vt 0.935400 0.078200
vt 0.935400 0.078200
vt 0.935400 0.078200
vt 0.935400 0.078200
vt 0.935400 0.078200
vt 0.935400 0.078200
vt 0.935400 0.078200
vt 0.935400 0.078200
vt 0.935400 0.078200
vt 0.935400 0.078200
vt 0.935400 0.078200
vt 0.935400 0.078200
vt 0.935400 0.078200
vt 0.935400 0.078200
vt 0.935400 0.078200
vt 0.935400 0.078200
vt 0.935400 0.078200
vt 0.935400 0.078200
vt 0.935400 0.078200
vt 0.935400 0.078200
vt 0.935400 0.078200
vt 0.935400 0.078200
vt 0.935400 0.078200
vt 0.935400 0.078200
vt 0.935400 0.078200
vt 0.935400 0.078200
vt 0.935400 0.078200
vt 0.935400 0.078200
vt 0.935400 0.078200
vt 0.935400 0.078200
vt 0.935400 0.078200
vt 0.935400 0.078200
vt 0.935400 0.078200
vt 0.935400 0.078200
vn 0.5995 0.5763 0.5554
vn 0.9289 0.3227 -0.1820
vn 0.9574 0.1969 0.2110
vn 0.8365 0.4468 -0.3172
vn 0.6915 0.5396 0.4803
vn 0.7754 -0.6312 0.0208
vn 0.5489 -0.5825 0.5995
vn 0.2383 -0.3119 0.9197
vn 0.2034 0.5129 0.8340
vn 0.0568 0.3774 0.9243
vn -0.3092 0.8991 0.3098
vn -0.5043 0.4262 0.7510
vn -0.0909 0.4443 0.8912
vn -0.8524 0.5047 -0.1370
vn -0.3921 0.8524 -0.3459
vn -0.6036 0.4679 -0.6455
vn 0.0007 1.0000 0.0021
vn -0.4153 0.9085 0.0466
vn 0.0000 1.0000 0.0000
vn 0.1065 0.9942 -0.0177
vn 0.0079 0.9442 -0.3292
vn 0.1354 0.8101 -0.5704
vn 0.0933 0.3408 -0.9355
vn 0.3136 0.8078 -0.4991
vn 0.6846 0.5414 -0.4880
vn 0.7127 0.6875 -0.1397
vn 0.7962 0.6038 -0.0377
vn 0.5161 0.3813 -0.7670
vn 0.1270 0.5529 -0.8235
vn 0.2007 0.3692 -0.9074
vn 0.0336 0.5015 -0.8645
vn 0.1196 0.7974 -0.5915
vn 0.1652 0.4421 -0.8816
vn 0.6213 0.3652 -0.6933
vn 0.4184 0.6544 0.6298
vn 0.6411 0.6309 0.4370
vn 0.1235 0.4011 0.9077
vn -0.1191 0.3074 0.9441
vn -0.6951 0.2936 0.6563
vn 0.2450 -0.5881 0.7708
vn 0.0323 0.2876 0.9572
vn -0.0046 0.4927 0.8702
vn -0.0878 0.3574 0.9298
vn -0.1175 0.4969 0.8598
vn -0.5787 0.4777 0.6610
vn -0.5361 0.4990 0.6809
vn -0.6537 0.3164 -0.6875
vn -0.0866 0.3685 -0.9256
vn -0.6359 0.2459 -0.7315
vn -0.0245 0.4856 -0.8739
vn -0.5940 0.3945 -0.7011
vn 0.0582 0.4787 -0.8760
vn 0.0225 0.5646 -0.8250
vn -0.0238 0.9444 0.3281
vn 0.0663 0.9978 0.0022
vn 0.9156 0.3528 -0.1928
vn 0.9144 0.3087 0.2619
vn 0.8917 0.3246 -0.3153
vn 0.9461 0.1768 -0.2713
vn 0.8135 0.2420 -0.5289
vn 0.8390 0.1661 -0.5182
vn -0.0182 0.4196 -0.9075
vn -0.2321 -0.9726 0.0116
vn 0.6770 -0.6650 -0.3154
vn 0.9392 0.3367 -0.0677
vn 0.7272 0.2411 -0.6427
vn 0.7377 0.3582 -0.5723
vn 0.8661 0.1353 -0.4812
vn 0.8978 0.3841 0.2153
vn 0.9415 0.3192 0.1080
vn 0.9525 0.2094 0.2213
vn 0.0889 0.9202 0.3812
vn -0.8940 0.4009 0.2001
vn 0.9521 0.0681 -0.2981
vn 0.9973 0.0504 -0.0538
vn 0.9812 0.1881 -0.0432
vn 0.7762 0.5397 -0.3260
vn 0.4764 0.8736 -0.0993
vn -0.3997 0.9165 -0.0169
vn -0.9331 0.3345 0.1316
vn -0.9542 0.2395 -0.1794
vn -0.9522 0.2735 -0.1359
vn -0.9347 0.3105 0.1731
vn -0.9555 0.1992 -0.2176
vn -0.9326 0.3153 0.1757
usemtl iwa
s 1
f 1/1/1 2/2/2 3/3/3
f 4/4/4 2/2/2 1/1/1
f 5/5/5 4/4/4 1/1/1
f 6/6/6 4/4/4 5/5/5
f 7/7/7 6/6/6 5/5/5
f 8/8/8 6/6/6 7/7/7
f 5/5/5 8/8/8 7/7/7
f 9/9/9 8/8/8 5/5/5
f 1/1/1 9/9/9 5/5/5
f 10/10/10 9/9/9 1/1/1
f 11/11/11 12/12/12 13/13/13
f 79/14/14 71/15/15 50/16/16
f 15/17/17 14/18/18 11/11/11
f 16/19/19 14/18/18 15/17/17
f 17/20/20 16/19/19 15/17/17
f 18/21/21 16/19/19 17/20/20
f 19/22/22 18/21/21 17/20/20
f 20/23/23 18/21/21 19/22/22
f 21/24/24 20/23/23 19/22/22
f 22/25/25 23/26/26 24/27/27
f 21/24/24 23/26/26 22/25/25
f 25/28/28 21/24/24 22/25/25
f 26/29/29 21/24/24 25/28/28
f 27/30/30 26/29/29 25/28/28
f 28/31/31 26/29/29 27/30/30
f 29/32/32 28/31/31 27/30/30
f 30/33/33 28/31/31 29/32/32
f 31/34/34 30/33/33 29/32/32
f 32/35/35 3/3/3 33/36/36
f 1/1/1 3/3/3 32/35/35
f 34/37/37 1/1/1 32/35/35
f 10/10/10 1/1/1 34/37/37
f 13/13/13 10/10/10 34/37/37
f 35/38/38 10/10/10 13/13/13
f 12/12/12 35/38/38 13/13/13
f 36/39/39 35/38/38 12/12/12
f 37/40/40 8/8/8 9/9/9
f 38/41/41 8/8/8 37/40/40
f 39/42/42 38/41/41 37/40/40
f 40/43/43 38/41/41 39/42/42
f 41/44/44 40/43/43 39/42/42
f 42/45/45 40/43/43 41/44/44
f 43/46/46 42/45/45 41/44/44
f 44/47/47 45/48/48 46/49/49
f 47/50/50 45/48/48 44/47/47
f 48/51/51 47/50/50 44/47/47
f 49/52/52 47/50/50 48/51/51
f 50/16/16 49/52/52 48/51/51
f 51/53/53 49/52/52 50/16/16
f 52/54/54 11/11/11 13/13/13
f 15/17/17 11/11/11 52/54/54
f 53/55/55 15/17/17 52/54/54
f 17/20/20 15/17/17 53/55/55
f 33/36/36 17/20/20 53/55/55
f 54/56/56 24/27/27 55/57/57
f 56/58/58 24/27/27 54/56/56
f 57/59/59 56/58/58 54/56/56
f 58/60/60 56/58/58 57/59/59
f 59/61/61 58/60/60 57/59/59
f 26/29/29 20/23/23 21/24/24
f 60/62/62 20/23/23 26/29/29
f 28/31/31 60/62/62 26/29/29
f 49/52/52 60/62/62 28/31/31
f 47/50/50 49/52/52 28/31/31
f 61/63/63 6/6/6 8/8/8
f 62/64/64 6/6/6 61/63/63
f 63/65/65 62/64/64 61/63/63
f 4/4/4 62/64/64 63/65/65
f 2/2/2 4/4/4 63/65/65
f 64/66/66 25/28/28 59/61/61
f 65/67/67 25/28/28 64/66/66
f 66/68/68 65/67/67 64/66/66
f 31/34/34 65/67/67 66/68/68
f 3/3/3 67/69/69 33/36/36
f 68/70/70 67/69/69 3/3/3
f 69/71/71 68/70/70 3/3/3
f 70/72/72 52/54/54 34/37/37
f 53/55/55 52/54/54 70/72/72
f 33/36/36 53/55/55 70/72/72
f 85/73/73 36/39/39 12/12/12
f 18/21/21 50/16/16 71/15/15
f 16/19/19 18/21/21 71/15/15
f 57/59/59 66/68/68 59/61/61
f 72/74/74 66/68/68 57/59/59
f 73/75/75 72/74/74 57/59/59
f 65/67/67 27/30/30 25/28/28
f 29/32/32 27/30/30 65/67/67
f 31/34/34 29/32/32 65/67/67
f 74/76/76 55/57/57 69/71/71
f 54/56/56 55/57/57 74/76/76
f 57/59/59 54/56/56 74/76/76
f 41/44/44 36/39/39 43/46/46
f 35/38/38 36/39/39 41/44/44
f 10/10/10 35/38/38 41/44/44
f 39/42/42 10/10/10 41/44/44
f 9/9/9 10/10/10 39/42/42
f 37/40/40 9/9/9 39/42/42
f 75/77/77 55/57/57 76/78/78
f 68/70/70 55/57/57 75/77/77
f 51/53/53 18/21/21 20/23/23
f 50/16/16 18/21/21 51/53/53
f 77/79/79 16/19/19 71/15/15
f 14/18/18 16/19/19 77/79/79
f 21/24/24 17/20/20 76/78/78
f 19/22/22 17/20/20 21/24/24
f 76/78/78 24/27/27 23/26/26
f 55/57/57 24/27/27 76/78/78
f 58/60/60 24/27/27 56/58/58
f 22/25/25 24/27/27 58/60/60
f 58/60/60 25/28/28 22/25/25
f 59/61/61 25/28/28 58/60/60
f 60/62/62 51/53/53 20/23/23
f 49/52/52 51/53/53 60/62/62
f 45/48/48 28/31/31 30/33/33
f 47/50/50 28/31/31 45/48/48
f 63/65/65 74/76/76 69/71/71
f 73/75/75 74/76/76 63/65/65
f 2/2/2 69/71/71 3/3/3
f 63/65/65 69/71/71 2/2/2
f 33/36/36 67/69/69 75/77/77
f 76/78/78 33/36/36 75/77/77
f 69/71/71 55/57/57 68/70/70
f 70/72/72 34/37/37 32/35/35
f 34/37/37 52/54/54 13/13/13
f 23/26/26 21/24/24 76/78/78
f 33/36/36 76/78/78 17/20/20
f 70/72/72 32/35/35 33/36/36
f 67/69/69 68/70/70 75/77/77
f 66/68/68 64/66/66 59/61/61
f 57/59/59 74/76/76 73/75/75
f 6/6/6 62/64/64 4/4/4
f 43/46/46 84/80/80 42/45/45
f 81/81/81 48/51/51 44/47/47
f 78/82/82 50/16/16 48/51/51
f 77/79/79 85/73/73 14/18/18
f 81/81/81 83/83/83 78/82/82
f 80/84/84 44/47/47 46/49/49
f 82/85/85 36/39/39 83/83/83
f 83/83/83 79/14/14 78/82/82
f 82/85/85 80/84/84 84/80/80
f 85/73/73 11/11/11 14/18/18
f 79/14/14 77/79/79 71/15/15
f 85/73/73 83/83/83 36/39/39
f 43/46/46 82/85/85 84/80/80
f 81/81/81 78/82/82 48/51/51
f 78/82/82 79/14/14 50/16/16
f 77/79/79 79/14/14 85/73/73
f 81/81/81 82/85/85 83/83/83
f 80/84/84 81/81/81 44/47/47
f 82/85/85 43/46/46 36/39/39
f 83/83/83 85/73/73 79/14/14
f 82/85/85 81/81/81 80/84/84
f 85/73/73 12/12/12 11/11/11
