mtllib GreenHillSunflowerTop.mtl
v 1.200367 1.960779 -0.811125
v 0.940833 2.631382 -1.090396
v 0.934883 2.803247 -0.000383
v 0.945707 1.982243 -1.982706
v 1.20405 1.477177 -1.475995
v 1.206679 0.812178 -1.959784
v 1.408059 -0.000017 0.002189
v 1.207444 -0.000016 -2.088011
v 1.206679 -0.812292 -1.959785
v 0.950227 -0.000016 -2.803691
v 0.949271 -1.089952 -2.631783
v 0.945707 -1.982357 -1.982708
v 1.204049 -1.477291 -1.475996
v 1.200366 -1.960883 -0.811128
v 1.195899 -2.089159 0.001136
v 0.934883 -2.803555 -0.000387
v 1.191487 -1.960883 0.813315
v 0.928904 -2.631486 1.08955
v 0.923993 -1.982358 1.981872
v 1.1959 2.089044 0.001139
v 1.191487 1.960779 0.813318
v 0.928905 2.631382 1.089554
v 0.923993 1.982242 1.981874
v 1.187864 1.477176 1.478229
v 1.185235 0.812178 1.962018
v 0.920315 1.089847 2.630994
v 0.919473 -0.000017 2.802857
v 1.187863 -1.477292 1.478229
v 1.185235 -0.812293 1.962019
v 0.920315 -1.089952 2.630993
v 1.184398 -0.000017 2.090054
v 0.441947 -1.089952 2.628381
v 0.450363 -2.631486 1.086938
v 0.440099 -1.211484 2.921733
v 0.456266 -0.000017 -0.002968
v 0.441947 1.089847 2.628382
v 0.450363 2.631382 1.086943
v 0.462261 -2.631486 -1.092979
v 0.470851 -1.089952 -2.63442
v 0.470851 1.089848 -2.634418
v 0.949271 1.089848 -2.631783
v 0.940833 -2.631486 -1.0904
v 0.462262 2.631382 -1.092975
v 0.922881 -0.908424 2.19249
v 0.925785 -1.651893 1.651436
v 0.922042 -0.000017 2.335709
v 0.922881 0.908176 2.192491
v 0.925785 1.651778 1.651438
v 0.929789 2.192845 0.907906
v 0.934883 2.335982 -0.000384
v 0.939797 2.192845 -0.908694
v 0.943998 1.651778 -1.652279
v 0.946928 0.908177 -2.193146
v 0.947703 -0.000016 -2.336537
v 0.946928 -0.908423 -2.193148
v 0.943998 -1.651892 -1.652279
v 0.939797 -2.192959 -0.908696
v 0.934883 -2.33629 -0.000387
v 0.929788 -2.192959 0.907904
v 0.449605 -2.924822 1.208396
v 0.462893 -2.924821 -1.214542
v 0.472285 -1.211483 -2.927832
v 0.472285 1.211379 -2.927831
v 0.462893 2.924778 -1.214538
v 0.449606 2.924778 1.208401
v 0.440099 1.211378 2.921734
v 0.918864 -1.211484 2.924478
v 0.665096 -0.000022 5.534948
v 0.918864 1.211378 2.924478
v 0.674059 3.914977 3.913262
v 0.928249 2.924778 1.21117
v 0.695513 5.536644 -0.001607
v 0.941522 2.924778 -1.211807
v 0.717123 3.914983 -3.916643
v 0.950915 1.211379 -2.9251
v 0.726085 -0.000012 -5.538335
v 0.950915 -1.211483 -2.925102
v 0.674058 -3.915091 3.913256
v 0.928249 -2.924822 1.211165
v 0.717122 -3.915086 -3.916649
v 0.941522 -2.924821 -1.211811
v 0.695513 -5.536892 -0.001613
vt 0.8964 0.9476
vt 0.9093 0.9787
vt 0.8587 0.9867
vt 0.9507 0.9486
vt 0.9273 0.9252
vt 0.9497 0.8943
vt 0.8587 0.8566
vt 0.9557 0.8566
vt 0.9497 0.8189
vt 0.9888 0.8566
vt 0.9808 0.806
vt 0.9507 0.7646
vt 0.9273 0.7881
vt 0.8964 0.7656
vt 0.8587 0.7597
vt 0.8587 0.7265
vt 0.8211 0.7656
vt 0.8082 0.7345
vt 0.7668 0.7646
vt 0.8587 0.9536
vt 0.8211 0.9476
vt 0.8082 0.9787
vt 0.7668 0.9486
vt 0.7902 0.9252
vt 0.7677 0.8943
vt 0.7366 0.9072
vt 0.7287 0.8566
vt 0.7902 0.7881
vt 0.7677 0.8189
vt 0.7366 0.806
vt 0.7618 0.8566
vt 0.723 0.8004
vt 0.9093 0.7345
vt 0.9808 0.9072
vt 0.8246 0.0747
vn 0.9718 0.2199 -0.0857
vn 0.9417 0.3127 -0.1244
vn 0.9392 0.3432 0.0051
vn 0.9406 0.2427 -0.2376
vn 0.9728 0.1666 -0.1612
vn 0.9724 0.0911 -0.2146
vn 1.0000 0.0000 0.0055
vn 0.9731 0.0000 -0.2303
vn 0.9724 -0.0911 -0.2146
vn 0.9411 0.0000 -0.3382
vn 0.9427 -0.1295 -0.3076
vn 0.9406 -0.2427 -0.2376
vn 0.9728 -0.1666 -0.1612
vn 0.9718 -0.2199 -0.0857
vn 0.9718 -0.2355 0.0053
vn 0.9393 -0.3432 0.0051
vn 0.9708 -0.2199 0.0964
vn 0.9403 -0.3127 0.1347
vn 0.9379 -0.2428 0.2479
vn 0.9718 0.2356 0.0053
vn 0.9708 0.2199 0.0964
vn 0.9403 0.3127 0.1347
vn 0.9379 0.2428 0.2479
vn 0.9709 0.1666 0.1719
vn 0.9700 0.0911 0.2253
vn 0.9392 0.1296 0.3181
vn 0.9373 0.0000 0.3485
vn 0.9709 -0.1666 0.1719
vn 0.9700 -0.0911 0.2253
vn 0.9391 -0.1296 0.3181
vn 0.9706 0.0000 0.2409
vn -1.0000 0.0002 -0.0059
vn -1.0000 0.0002 -0.0056
vn -1.0000 0.0006 -0.0061
vn -1.0000 0.0000 -0.0055
vn -1.0000 -0.0002 -0.0059
vn -1.0000 -0.0002 -0.0055
vn -1.0000 0.0001 -0.0055
vn -1.0000 -0.0002 -0.0052
vn 0.9427 0.1295 -0.3076
vn 0.9417 -0.3126 -0.1244
vn -1.0000 -0.0001 -0.0054
vn 1.0000 -0.0000 0.0058
vn 0.9990 -0.0289 0.0344
vn 1.0000 0.0000 0.0054
vn 1.0000 -0.0001 0.0058
vn 1.0000 -0.0001 0.0055
vn 0.9989 -0.0000 0.0463
vn 1.0000 0.0002 0.0057
vn 1.0000 0.0001 0.0057
vn 0.9990 0.0289 0.0344
vn 1.0000 -0.0002 0.0055
vn 1.0000 -0.0002 0.0054
vn 0.9991 0.0409 0.0055
vn 1.0000 -0.0000 0.0056
vn 1.0000 0.0001 0.0053
vn 0.9993 0.0289 -0.0234
vn 1.0000 0.0000 0.0053
vn 0.9994 0.0000 -0.0354
vn 1.0000 -0.0001 0.0053
vn 0.9993 -0.0288 -0.0234
vn 1.0000 0.0001 0.0055
vn 0.9991 -0.0409 0.0055
vn 1.0000 0.0002 0.0054
vn -0.8900 -0.4230 0.1704
vn -0.8880 -0.4231 -0.1801
vn -0.8867 -0.1752 -0.4279
vn -0.8867 0.1752 -0.4279
vn -0.8880 0.4231 -0.1801
vn -0.8900 0.4230 0.1704
vn -0.8914 0.1751 0.4179
vn -0.8349 -0.2123 0.5078
vn 0.8867 -0.1752 0.4279
vn -0.0044 0.0000 1.0000
vn 0.8867 0.1752 0.4279
vn -0.0028 0.7071 0.7071
vn 0.8880 0.4231 0.1801
vn 0.0010 1.0000 0.0000
vn 0.8899 0.4230 -0.1704
vn 0.0050 0.7071 -0.7071
vn 0.8913 0.1752 -0.4181
vn 0.0066 0.0000 -1.0000
vn 0.8913 -0.1752 -0.4181
vn 0.9993 -0.0289 -0.0234
vn -0.0028 -0.7071 0.7071
vn 0.8880 -0.4231 0.1801
vn 0.0050 -0.7071 -0.7071
vn 0.8900 -0.4230 -0.1704
vn 0.0010 -1.0000 0.0000
vn 1.0000 -0.0002 0.0050
usemtl komonoA
f 1/1/1 2/2/2 3/3/3
f 4/4/4 2/2/2 1/1/1
f 5/5/5 4/4/4 1/1/1
f 6/6/6 4/4/4 5/5/5
f 7/7/7 6/6/6 5/5/5
f 8/8/8 6/6/6 7/7/7
f 9/9/9 8/8/8 7/7/7
f 10/10/10 8/8/8 9/9/9
f 11/11/11 10/10/10 9/9/9
f 9/9/9 12/12/12 11/11/11
f 13/13/13 12/12/12 9/9/9
f 7/7/7 13/13/13 9/9/9
f 14/14/14 13/13/13 7/7/7
f 15/15/15 14/14/14 7/7/7
f 16/16/16 14/14/14 15/15/15
f 17/17/17 16/16/16 15/15/15
f 18/18/18 16/16/16 17/17/17
f 19/19/19 18/18/18 17/17/17
f 1/1/1 7/7/7 5/5/5
f 20/20/20 7/7/7 1/1/1
f 3/3/3 20/20/20 1/1/1
f 21/21/21 20/20/20 3/3/3
f 22/22/22 21/21/21 3/3/3
f 23/23/23 21/21/21 22/22/22
f 21/21/21 7/7/7 20/20/20
f 24/24/24 7/7/7 21/21/21
f 23/23/23 24/24/24 21/21/21
f 25/25/25 24/24/24 23/23/23
f 26/26/26 25/25/25 23/23/23
f 27/27/27 25/25/25 26/26/26
f 7/7/7 17/17/17 15/15/15
f 28/28/28 17/17/17 7/7/7
f 29/29/29 28/28/28 7/7/7
f 19/19/19 28/28/28 29/29/29
f 30/30/30 19/19/19 29/29/29
f 29/29/29 27/27/27 30/30/30
f 31/31/31 27/27/27 29/29/29
f 7/7/7 31/31/31 29/29/29
f 25/25/25 31/31/31 7/7/7
f 24/24/24 25/25/25 7/7/7
f 32/30/32 33/18/33 34/32/34
f 35/7/35 33/18/33 32/30/32
f 36/26/36 35/7/35 32/30/32
f 37/22/37 35/7/35 36/26/36
f 35/7/35 38/33/38 33/18/33
f 39/11/35 38/33/38 35/7/35
f 40/34/39 39/11/35 35/7/35
f 6/6/6 41/34/40 4/4/4
f 10/10/10 41/34/40 6/6/6
f 8/8/8 10/10/10 6/6/6
f 14/14/14 12/12/12 13/13/13
f 42/33/41 12/12/12 14/14/14
f 16/16/16 42/33/41 14/14/14
f 35/7/35 43/2/42 40/34/39
f 37/22/37 43/2/42 35/7/35
f 19/19/19 17/17/17 28/28/28
f 27/27/27 31/31/31 25/25/25
f 44/35/43 19/35/44 45/35/45
f 30/35/46 19/35/44 44/35/43
f 46/35/47 30/35/46 44/35/43
f 27/35/48 30/35/46 46/35/47
f 47/35/49 27/35/48 46/35/47
f 26/35/50 27/35/48 47/35/49
f 48/35/7 26/35/50 47/35/49
f 23/35/51 26/35/50 48/35/7
f 49/35/52 23/35/51 48/35/7
f 22/35/53 23/35/51 49/35/52
f 50/35/7 22/35/53 49/35/52
f 3/35/54 22/35/53 50/35/7
f 51/35/55 3/35/54 50/35/7
f 2/35/7 3/35/54 51/35/55
f 52/35/56 2/35/7 51/35/55
f 4/35/57 2/35/7 52/35/56
f 53/35/58 4/35/57 52/35/56
f 41/35/45 4/35/57 53/35/58
f 54/35/45 41/35/45 53/35/58
f 10/35/59 41/35/45 54/35/45
f 55/35/45 10/35/59 54/35/45
f 11/35/60 10/35/59 55/35/45
f 56/35/53 11/35/60 55/35/45
f 12/35/61 11/35/60 56/35/53
f 57/35/62 12/35/61 56/35/53
f 42/35/62 12/35/61 57/35/62
f 58/35/7 42/35/62 57/35/62
f 16/35/63 42/35/62 58/35/7
f 59/35/64 16/35/63 58/35/7
f 18/35/64 16/35/63 59/35/64
f 38/35/38 60/35/65 33/35/33
f 61/35/66 60/35/65 38/35/38
f 39/35/35 61/35/66 38/35/38
f 62/35/67 61/35/66 39/35/35
f 40/35/39 62/35/67 39/35/35
f 63/35/68 62/35/67 40/35/39
f 43/35/42 63/35/68 40/35/39
f 64/35/69 63/35/68 43/35/42
f 37/35/37 64/35/69 43/35/42
f 65/35/70 64/35/69 37/35/37
f 36/35/36 65/35/70 37/35/37
f 66/35/71 65/35/70 36/35/36
f 32/35/32 66/35/71 36/35/36
f 34/35/72 66/35/71 32/35/32
f 27/35/48 67/35/73 30/35/58
f 68/35/74 67/35/73 27/35/48
f 69/35/75 68/35/74 27/35/48
f 66/35/71 68/35/74 69/35/75
f 70/35/76 66/35/71 69/35/75
f 65/35/70 66/35/71 70/35/76
f 71/35/77 65/35/70 70/35/76
f 72/35/78 65/35/70 71/35/77
f 3/35/54 72/35/78 71/35/77
f 73/35/79 72/35/78 3/35/54
f 2/35/47 73/35/79 3/35/54
f 4/35/57 73/35/79 2/35/47
f 74/35/80 64/35/69 73/35/79
f 63/35/68 64/35/69 74/35/80
f 75/35/81 63/35/68 74/35/80
f 76/35/82 63/35/68 75/35/81
f 10/35/59 76/35/82 75/35/81
f 77/35/83 76/35/82 10/35/59
f 11/35/55 77/35/83 10/35/59
f 12/35/84 77/35/83 11/35/55
f 60/35/65 34/35/72 33/35/33
f 78/35/85 34/35/72 60/35/65
f 79/35/86 78/35/85 60/35/65
f 19/35/44 78/35/85 79/35/86
f 18/35/7 19/35/44 79/35/86
f 45/35/45 19/35/44 18/35/64
f 59/35/64 45/35/45 18/35/64
f 80/35/87 62/35/67 77/35/83
f 61/35/66 62/35/67 80/35/87
f 81/35/88 61/35/66 80/35/87
f 82/35/89 61/35/66 81/35/88
f 16/35/63 82/35/89 81/35/88
f 79/35/86 16/35/63 18/35/7
f 82/35/89 16/35/63 79/35/86
f 60/35/65 82/35/89 79/35/86
f 61/35/66 82/35/89 60/35/65
f 23/35/51 70/35/76 69/35/75
f 71/35/77 70/35/76 23/35/51
f 22/35/7 71/35/77 23/35/51
f 3/35/54 71/35/77 22/35/7
f 34/35/72 68/35/74 66/35/71
f 67/35/73 68/35/74 34/35/72
f 78/35/85 67/35/73 34/35/72
f 19/35/44 67/35/73 78/35/85
f 4/35/57 74/35/80 73/35/79
f 75/35/81 74/35/80 4/35/57
f 41/35/55 75/35/81 4/35/57
f 10/35/59 75/35/81 41/35/55
f 12/35/84 80/35/87 77/35/83
f 81/35/88 80/35/87 12/35/84
f 42/35/62 81/35/88 12/35/84
f 16/35/63 81/35/88 42/35/62
f 26/35/90 69/35/75 27/35/48
f 23/35/51 69/35/75 26/35/90
f 72/35/78 64/35/69 65/35/70
f 73/35/79 64/35/69 72/35/78
f 76/35/82 62/35/67 63/35/68
f 77/35/83 62/35/67 76/35/82
f 30/35/58 67/35/73 19/35/44
