mtllib GreenHillTotemWings.mtl
v -4.369603 -0.134053 3.375673
v -2.780936 0.081014 3.375673
v -5.904802 -1.026051 3.375673
v 0.345867 13.793405 4.276607
v -0.387867 15.346139 6.09601
v -0.387867 13.793405 4.276607
v 0.345867 15.346139 6.09601
v -0.387868 13.793406 2.427206
v 0.345867 15.346141 2.427207
v 0.345866 13.793406 2.427206
v -0.387867 15.346141 2.427207
v 0.345866 13.793408 -4.212656
v -0.387867 15.346143 -6.032057
v -0.387868 13.793408 -4.212656
v 0.345867 15.346143 -6.032057
v -0.387868 13.793406 -2.36326
v 0.345867 15.346141 -2.36326
v 0.345866 13.793406 -2.363261
v -0.387868 15.346141 -2.363259
v 0.345866 12.292023 -2.636861
v -0.387868 13.564751 -4.456257
v -0.387868 12.292023 -2.636861
v 0.345866 13.564751 -4.456257
v -0.387868 12.292023 -2.36326
v 0.345866 13.564749 -2.363261
v 0.345866 12.292023 -2.36326
v -0.387868 13.564749 -2.36326
v 0.345866 12.292023 2.700806
v -0.387867 13.564746 4.520209
v -0.387868 12.292023 2.700806
v 0.345867 13.564746 4.520209
v -0.387868 12.292023 2.427206
v 0.345866 13.564749 2.427206
v 0.345866 12.292023 2.427206
v -0.387868 13.564749 2.427206
v -1.693468 16.074087 -1.662255
v -2.685333 15.684215 0.010078
v -2.386199 16.074087 0.010078
v -1.905001 15.684215 -1.873793
v -0.020935 16.074087 -2.354857
v -0.020935 15.684215 -2.654188
v 1.651467 16.074087 -1.662255
v 1.863 15.684215 -1.873793
v 2.344199 16.074087 0.010078
v 2.643333 15.684215 0.010078
v 1.651467 16.074087 1.682609
v 1.863 15.684215 1.894141
v -0.020934 16.074087 2.375409
v -0.020934 15.684215 2.674476
v -1.693468 16.074087 1.682609
v -1.905001 15.684215 1.894142
v -2.685333 11.182078 0.010076
v -1.905001 11.182078 -1.873794
v -0.020935 11.182078 -2.65419
v 1.862999 11.182078 -1.873794
v 2.643332 11.182078 0.010076
v 1.862999 11.182078 1.89414
v -0.020935 11.182078 2.674475
v -1.905001 11.182078 1.89414
v -2.430402 10.74935 0.010076
v -1.724601 10.74935 -1.693394
v -0.020935 10.74935 -2.398992
v 1.682532 10.74935 -1.693394
v 2.388399 10.74935 0.010076
v 1.682532 10.74935 1.71374
v -0.020935 10.74935 2.41954
v -1.724602 10.74935 1.71374
v -2.685334 10.338747 0.010076
v -1.905001 10.338746 -1.873794
v -0.020935 10.338747 -2.65419
v 1.862999 10.338746 -1.873794
v 2.643332 10.338745 0.010076
v 1.862999 10.338746 1.89414
v -0.020935 10.338745 2.674474
v -1.905001 10.338746 1.89414
v -2.685334 8.033683 0.010075
v -1.905002 8.033682 -1.873795
v -0.020936 8.033683 -2.654191
v 1.862999 8.033682 -1.873795
v 2.643332 8.033682 0.010075
v 1.862999 8.033682 1.894139
v -0.020935 8.033682 2.674473
v -1.905001 8.033682 1.894139
v -2.685335 5.70042 0.010074
v -1.905003 5.70042 -1.873796
v -0.020936 5.700421 -2.654192
v 1.862998 5.70042 -1.873796
v 2.643332 5.700419 0.010074
v 1.862998 5.700419 1.894138
v -0.020936 5.700419 2.674472
v -1.905002 5.700419 1.894138
v -2.447335 5.299888 0.010074
v -1.736667 5.299888 -1.705528
v -0.020936 5.299888 -2.416195
v 1.694664 5.299888 -1.705528
v 2.405331 5.299887 0.010074
v 1.694665 5.299886 1.725874
v -0.020936 5.299887 2.436471
v -1.736667 5.299887 1.725874
v -2.685335 4.884482 0.010074
v -1.905003 4.884483 -1.873796
v -0.020936 4.884483 -2.654192
v 1.862998 4.884483 -1.873796
v 2.643332 4.884481 0.010074
v 1.862998 4.884481 1.894138
v -0.020936 4.884482 2.674472
v -1.905002 4.884482 1.894138
v -2.685336 0.466219 0.010073
v -1.905003 0.466219 -1.873798
v -0.020937 0.466219 -2.654193
v 1.862997 0.466218 -1.873798
v 2.64333 0.466218 0.010073
v 1.862997 0.466218 1.894136
v -0.020937 0.466217 2.674471
v -1.905003 0.466218 1.894137
v -2.257603 -0.00658 0.010073
v -1.602536 -0.00658 -1.571328
v -0.020937 -0.00658 -2.226464
v 1.560464 -0.00658 -1.571328
v 2.215597 -0.006581 0.010073
v 1.560464 -0.006581 1.591671
v -0.020937 -0.006582 2.246802
v -1.602536 -0.00658 1.591671
v -0.020934 16.074087 0.010078
vt 0.5034 0.4431
vt 0.4491 0.4894
vt 0.5586 0.4431
vt 0.5586 0.4894
vt 0.5505 0.3983
vt 0.4962 0.4362
vt 0.5586 0.3983
vt 0.5586 0.4362
vt 0.6495 0.9936
vt 0.7035 0.979
vt 0.7035 0.9936
vt 0.6495 0.979
vt 0.5955 0.9936
vt 0.5955 0.979
vt 0.5415 0.9936
vt 0.5415 0.979
vt 0.4875 0.9936
vt 0.4875 0.979
vt 0.4335 0.9936
vt 0.4335 0.979
vt 0.3794 0.9936
vt 0.3794 0.979
vt 0.3254 0.9936
vt 0.3254 0.979
vt 0.2714 0.9936
vt 0.2714 0.979
vt 0.7035 0.8386
vt 0.6495 0.8386
vt 0.5955 0.8386
vt 0.5415 0.8386
vt 0.4875 0.8386
vt 0.4335 0.8386
vt 0.3794 0.8386
vt 0.3254 0.8386
vt 0.2714 0.8386
vt 0.7035 0.8235
vt 0.6495 0.8235
vt 0.5955 0.8235
vt 0.5415 0.8235
vt 0.4875 0.8235
vt 0.4335 0.8235
vt 0.3794 0.8235
vt 0.3254 0.8235
vt 0.2714 0.8235
vt 0.7035 0.8083
vt 0.6495 0.8083
vt 0.5955 0.8083
vt 0.5415 0.8083
vt 0.4875 0.8083
vt 0.4335 0.8083
vt 0.3794 0.8083
vt 0.3254 0.8083
vt 0.2714 0.8083
vt 0.7035 0.7454
vt 0.6495 0.7454
vt 0.5955 0.7454
vt 0.5415 0.7454
vt 0.4875 0.7454
vt 0.4335 0.7454
vt 0.3794 0.7454
vt 0.3254 0.7454
vt 0.2714 0.7454
vt 0.7035 0.6811
vt 0.6495 0.6811
vt 0.5955 0.6811
vt 0.5415 0.6811
vt 0.4875 0.6811
vt 0.4335 0.6811
vt 0.3794 0.6811
vt 0.3254 0.6811
vt 0.2714 0.6811
vt 0.7035 0.6654
vt 0.6495 0.6654
vt 0.5955 0.6654
vt 0.5415 0.6654
vt 0.4875 0.6654
vt 0.4335 0.6654
vt 0.3794 0.6654
vt 0.3254 0.6654
vt 0.2714 0.6654
vt 0.7035 0.6497
vt 0.6495 0.6497
vt 0.5955 0.6497
vt 0.5415 0.6497
vt 0.4875 0.6497
vt 0.4335 0.6497
vt 0.3794 0.6497
vt 0.3254 0.6497
vt 0.2714 0.6497
vt 0.7035 0.5281
vt 0.6495 0.5281
vt 0.5955 0.5281
vt 0.5415 0.5281
vt 0.4875 0.5281
vt 0.4335 0.5281
vt 0.3794 0.5281
vt 0.3254 0.5281
vt 0.2714 0.5281
vt 0.7035 0.5132
vt 0.6495 0.5132
vt 0.5955 0.5132
vt 0.5415 0.5132
vt 0.4875 0.5132
vt 0.4335 0.5132
vt 0.3794 0.5132
vt 0.3254 0.5132
vt 0.2714 0.5132
vt 0.7768 0.6733
vt 0.7333 0.7168
vt 0.7153 0.6733
vt 0.7768 0.7348
vt 0.8203 0.7168
vt 0.8383 0.6733
vt 0.8203 0.6298
vt 0.7768 0.6117
vt 0.7333 0.6298
vn 0.0000 -0.7607 0.6492
vn 0.0000 0.0000 -1.0000
vn 0.0000 -1.0000 0.0000
vn -1.0000 0.0000 0.0000
vn 0.0000 1.0000 0.0000
vn 1.0000 -0.0000 -0.0000
vn 0.0000 0.7606 0.6492
vn 0.0000 0.8194 0.5732
vn 0.0000 -0.8194 0.5732
vn -0.5610 0.6088 -0.5610
vn -0.9540 0.2998 -0.0000
vn -0.7934 0.6087 -0.0000
vn -0.6746 0.2998 -0.6746
vn -0.0000 0.6090 -0.7932
vn -0.0000 0.2999 -0.9540
vn 0.5610 0.6088 -0.5610
vn 0.6746 0.2998 -0.6746
vn 0.7934 0.6087 -0.0000
vn 0.9540 0.2998 -0.0000
vn 0.5610 0.6087 0.5610
vn 0.6746 0.2998 0.6746
vn -0.0000 0.6087 0.7934
vn 0.0000 0.2998 0.9540
vn -0.5610 0.6087 0.5610
vn -0.6746 0.2998 0.6746
vn -0.9687 -0.2481 -0.0000
vn -0.6850 -0.2482 -0.6850
vn 0.0000 -0.2483 -0.9687
vn 0.6850 -0.2483 -0.6850
vn 0.9687 -0.2481 -0.0000
vn 0.6850 -0.2483 0.6850
vn 0.0000 -0.2481 0.9687
vn -0.6850 -0.2482 0.6850
vn -0.8616 -0.5076 0.0000
vn -0.6091 -0.5079 -0.6092
vn 0.0000 -0.5080 -0.8614
vn 0.6091 -0.5079 -0.6091
vn 0.8616 -0.5076 -0.0001
vn 0.6091 -0.5079 0.6092
vn 0.0001 -0.5076 0.8616
vn -0.6092 -0.5079 0.6091
vn -0.6006 0.5277 -0.6006
vn -0.9661 0.2581 -0.0000
vn -0.8496 0.5275 -0.0001
vn -0.6831 0.2582 -0.6831
vn 0.0000 0.5279 -0.8493
vn 0.0000 0.2583 -0.9661
vn 0.6005 0.5278 -0.6006
vn 0.6831 0.2583 -0.6831
vn 0.8496 0.5275 0.0000
vn 0.9661 0.2581 0.0000
vn 0.6006 0.5278 0.6006
vn 0.6831 0.2583 0.6831
vn -0.0000 0.5275 0.8496
vn -0.0000 0.2581 0.9661
vn -0.6006 0.5277 0.6006
vn -0.6831 0.2582 0.6831
vn -0.7071 0.0000 -0.7071
vn 0.7071 0.0000 -0.7071
vn 0.7071 -0.0000 0.7071
vn 0.0000 -0.0000 1.0000
vn -0.7071 -0.0000 0.7071
vn -0.9683 -0.2497 -0.0000
vn -0.6847 -0.2497 -0.6847
vn 0.0000 -0.2497 -0.9683
vn 0.6847 -0.2497 -0.6847
vn 0.9683 -0.2497 -0.0000
vn 0.6847 -0.2497 0.6847
vn 0.0000 -0.2497 0.9683
vn -0.6847 -0.2497 0.6847
vn -0.8597 -0.5108 -0.0000
vn -0.6078 -0.5109 -0.6079
vn 0.0000 -0.5108 -0.8597
vn 0.6079 -0.5108 -0.6079
vn 0.8597 -0.5108 -0.0000
vn 0.6079 -0.5108 0.6079
vn 0.0000 -0.5108 0.8597
vn -0.6079 -0.5108 0.6079
vn -0.6135 0.4971 -0.6136
vn -0.9701 0.2429 -0.0000
vn -0.8677 0.4971 -0.0000
vn -0.6859 0.2429 -0.6859
vn 0.0000 0.4971 -0.8677
vn 0.0000 0.2429 -0.9701
vn 0.6135 0.4971 -0.6136
vn 0.6859 0.2429 -0.6859
vn 0.8677 0.4971 -0.0000
vn 0.9701 0.2429 -0.0000
vn 0.6135 0.4971 0.6135
vn 0.6859 0.2429 0.6859
vn 0.0000 0.4971 0.8677
vn 0.0000 0.2429 0.9701
vn -0.6135 0.4971 0.6136
vn -0.6859 0.2429 0.6859
vn -0.9429 -0.3330 -0.0000
vn -0.6667 -0.3330 -0.6667
vn 0.0000 -0.3330 -0.9429
vn 0.6667 -0.3331 -0.6667
vn 0.9429 -0.3330 -0.0000
vn 0.6667 -0.3331 0.6667
vn 0.0000 -0.3330 0.9429
vn -0.6667 -0.3330 0.6667
vn -0.7416 -0.6709 -0.0000
vn -0.5243 -0.6709 -0.5244
vn 0.0000 -0.6709 -0.7416
vn 0.5243 -0.6709 -0.5243
vn 0.7416 -0.6709 -0.0000
vn 0.5243 -0.6709 0.5244
vn 0.0000 -0.6708 0.7416
vn -0.5244 -0.6709 0.5243
usemtl happa5
f 4/1/1 5/2/1 6/1/1
f 7/2/1 5/2/1 4/1/1
f 8/3/2 9/4/2 10/3/2
f 11/4/2 9/4/2 8/3/2
f 8/3/3 4/1/3 6/1/3
f 10/3/3 4/1/3 8/3/3
f 11/4/4 6/1/4 5/2/4
f 8/3/4 6/1/4 11/4/4
f 9/4/5 5/2/5 7/2/5
f 11/4/5 5/2/5 9/4/5
f 10/3/6 7/2/6 4/1/6
f 9/4/6 7/2/6 10/3/6
f 12/1/7 13/2/7 14/1/7
f 15/2/7 13/2/7 12/1/7
f 16/3/2 17/4/2 18/3/2
f 19/4/2 17/4/2 16/3/2
f 16/3/5 12/1/5 14/1/5
f 18/3/5 12/1/5 16/3/5
f 19/4/6 14/1/6 13/2/6
f 16/3/6 14/1/6 19/4/6
f 17/4/3 13/2/3 15/2/3
f 19/4/3 13/2/3 17/4/3
f 18/3/4 15/2/4 12/1/4
f 17/4/4 15/2/4 18/3/4
f 20/5/8 21/6/8 22/5/8
f 23/6/8 21/6/8 20/5/8
f 24/7/2 25/8/2 26/7/2
f 27/8/2 25/8/2 24/7/2
f 24/7/5 20/5/5 22/5/5
f 26/7/5 20/5/5 24/7/5
f 27/8/6 22/5/6 21/6/6
f 24/7/6 22/5/6 27/8/6
f 25/8/3 21/6/3 23/6/3
f 27/8/3 21/6/3 25/8/3
f 26/7/4 23/6/4 20/5/4
f 25/8/4 23/6/4 26/7/4
f 28/5/9 29/6/9 30/5/9
f 31/6/9 29/6/9 28/5/9
f 32/7/2 33/8/2 34/7/2
f 35/8/2 33/8/2 32/7/2
f 32/7/3 28/5/3 30/5/3
f 34/7/3 28/5/3 32/7/3
f 35/8/4 30/5/4 29/6/4
f 32/7/4 30/5/4 35/8/4
f 33/8/5 29/6/5 31/6/5
f 35/8/5 29/6/5 33/8/5
f 34/7/6 31/6/6 28/5/6
f 33/8/6 31/6/6 34/7/6
f 36/9/10 37/10/11 38/11/12
f 39/12/13 37/10/11 36/9/10
f 40/13/14 39/12/13 36/9/10
f 41/14/15 39/12/13 40/13/14
f 42/15/16 41/14/15 40/13/14
f 43/16/17 41/14/15 42/15/16
f 44/17/18 43/16/17 42/15/16
f 45/18/19 43/16/17 44/17/18
f 46/19/20 45/18/19 44/17/18
f 47/20/21 45/18/19 46/19/20
f 48/21/22 47/20/21 46/19/20
f 49/22/23 47/20/21 48/21/22
f 50/23/24 49/22/23 48/21/22
f 51/24/25 49/22/23 50/23/24
f 38/25/12 51/24/25 50/23/24
f 37/26/11 51/24/25 38/25/12
f 39/12/13 52/27/26 37/10/11
f 53/28/27 52/27/26 39/12/13
f 41/14/15 53/28/27 39/12/13
f 54/29/28 53/28/27 41/14/15
f 43/16/17 54/29/28 41/14/15
f 55/30/29 54/29/28 43/16/17
f 45/18/19 55/30/29 43/16/17
f 56/31/30 55/30/29 45/18/19
f 47/20/21 56/31/30 45/18/19
f 57/32/31 56/31/30 47/20/21
f 49/22/23 57/32/31 47/20/21
f 58/33/32 57/32/31 49/22/23
f 51/24/25 58/33/32 49/22/23
f 59/34/33 58/33/32 51/24/25
f 37/26/11 59/34/33 51/24/25
f 52/35/26 59/34/33 37/26/11
f 53/28/27 60/36/34 52/27/26
f 61/37/35 60/36/34 53/28/27
f 54/29/28 61/37/35 53/28/27
f 62/38/36 61/37/35 54/29/28
f 55/30/29 62/38/36 54/29/28
f 63/39/37 62/38/36 55/30/29
f 56/31/30 63/39/37 55/30/29
f 64/40/38 63/39/37 56/31/30
f 57/32/31 64/40/38 56/31/30
f 65/41/39 64/40/38 57/32/31
f 58/33/32 65/41/39 57/32/31
f 66/42/40 65/41/39 58/33/32
f 59/34/33 66/42/40 58/33/32
f 67/43/41 66/42/40 59/34/33
f 52/35/26 67/43/41 59/34/33
f 60/44/34 67/43/41 52/35/26
f 61/37/42 68/45/43 60/36/44
f 69/46/45 68/45/43 61/37/42
f 62/38/46 69/46/45 61/37/42
f 70/47/47 69/46/45 62/38/46
f 63/39/48 70/47/47 62/38/46
f 71/48/49 70/47/47 63/39/48
f 64/40/50 71/48/49 63/39/48
f 72/49/51 71/48/49 64/40/50
f 65/41/52 72/49/51 64/40/50
f 73/50/53 72/49/51 65/41/52
f 66/42/54 73/50/53 65/41/52
f 74/51/55 73/50/53 66/42/54
f 67/43/56 74/51/55 66/42/54
f 75/52/57 74/51/55 67/43/56
f 60/44/44 75/52/57 67/43/56
f 68/53/43 75/52/57 60/44/44
f 69/46/45 76/54/4 68/45/43
f 77/55/58 76/54/4 69/46/45
f 70/47/47 77/55/58 69/46/45
f 78/56/2 77/55/58 70/47/47
f 71/48/49 78/56/2 70/47/47
f 79/57/59 78/56/2 71/48/49
f 72/49/51 79/57/59 71/48/49
f 80/58/6 79/57/59 72/49/51
f 73/50/53 80/58/6 72/49/51
f 81/59/60 80/58/6 73/50/53
f 74/51/55 81/59/60 73/50/53
f 82/60/61 81/59/60 74/51/55
f 75/52/57 82/60/61 74/51/55
f 83/61/62 82/60/61 75/52/57
f 68/53/43 83/61/62 75/52/57
f 76/62/4 83/61/62 68/53/43
f 77/55/58 84/63/63 76/54/4
f 85/64/64 84/63/63 77/55/58
f 78/56/2 85/64/64 77/55/58
f 86/65/65 85/64/64 78/56/2
f 79/57/59 86/65/65 78/56/2
f 87/66/66 86/65/65 79/57/59
f 80/58/6 87/66/66 79/57/59
f 88/67/67 87/66/66 80/58/6
f 81/59/60 88/67/67 80/58/6
f 89/68/68 88/67/67 81/59/60
f 82/60/61 89/68/68 81/59/60
f 90/69/69 89/68/68 82/60/61
f 83/61/62 90/69/69 82/60/61
f 91/70/70 90/69/69 83/61/62
f 76/62/4 91/70/70 83/61/62
f 84/71/63 91/70/70 76/62/4
f 85/64/64 92/72/71 84/63/63
f 93/73/72 92/72/71 85/64/64
f 86/65/65 93/73/72 85/64/64
f 94/74/73 93/73/72 86/65/65
f 87/66/66 94/74/73 86/65/65
f 95/75/74 94/74/73 87/66/66
f 88/67/67 95/75/74 87/66/66
f 96/76/75 95/75/74 88/67/67
f 89/68/68 96/76/75 88/67/67
f 97/77/76 96/76/75 89/68/68
f 90/69/69 97/77/76 89/68/68
f 98/78/77 97/77/76 90/69/69
f 91/70/70 98/78/77 90/69/69
f 99/79/78 98/78/77 91/70/70
f 84/71/63 99/79/78 91/70/70
f 92/80/71 99/79/78 84/71/63
f 93/73/79 100/81/80 92/72/81
f 101/82/82 100/81/80 93/73/79
f 94/74/83 101/82/82 93/73/79
f 102/83/84 101/82/82 94/74/83
f 95/75/85 102/83/84 94/74/83
f 103/84/86 102/83/84 95/75/85
f 96/76/87 103/84/86 95/75/85
f 104/85/88 103/84/86 96/76/87
f 97/77/89 104/85/88 96/76/87
f 105/86/90 104/85/88 97/77/89
f 98/78/91 105/86/90 97/77/89
f 106/87/92 105/86/90 98/78/91
f 99/79/93 106/87/92 98/78/91
f 107/88/94 106/87/92 99/79/93
f 92/80/81 107/88/94 99/79/93
f 100/89/80 107/88/94 92/80/81
f 101/82/82 108/90/95 100/81/80
f 109/91/96 108/90/95 101/82/82
f 102/83/84 109/91/96 101/82/82
f 110/92/97 109/91/96 102/83/84
f 103/84/86 110/92/97 102/83/84
f 111/93/98 110/92/97 103/84/86
f 104/85/88 111/93/98 103/84/86
f 112/94/99 111/93/98 104/85/88
f 105/86/90 112/94/99 104/85/88
f 113/95/100 112/94/99 105/86/90
f 106/87/92 113/95/100 105/86/90
f 114/96/101 113/95/100 106/87/92
f 107/88/94 114/96/101 106/87/92
f 115/97/102 114/96/101 107/88/94
f 100/89/80 115/97/102 107/88/94
f 108/98/95 115/97/102 100/89/80
f 109/91/96 116/99/103 108/90/95
f 117/100/104 116/99/103 109/91/96
f 110/92/97 117/100/104 109/91/96
f 118/101/105 117/100/104 110/92/97
f 111/93/98 118/101/105 110/92/97
f 119/102/106 118/101/105 111/93/98
f 112/94/99 119/102/106 111/93/98
f 120/103/107 119/102/106 112/94/99
f 113/95/100 120/103/107 112/94/99
f 121/104/108 120/103/107 113/95/100
f 114/96/101 121/104/108 113/95/100
f 122/105/109 121/104/108 114/96/101
f 115/97/102 122/105/109 114/96/101
f 123/106/110 122/105/109 115/97/102
f 108/98/95 123/106/110 115/97/102
f 116/107/103 123/106/110 108/98/95
f 124/108/5 50/109/5 48/110/5
f 38/111/5 50/109/5 124/108/5
f 36/112/5 38/111/5 124/108/5
f 124/108/5 40/113/5 36/112/5
f 42/114/5 40/113/5 124/108/5
f 44/115/5 42/114/5 124/108/5
f 124/108/5 46/116/5 44/115/5
f 48/110/5 46/116/5 124/108/5
