# Blender v2.79 (sub 0) OBJ File: ''
# www.blender.org
mtllib GreenHillTotemWings.mtl
v -4.369603 -0.134053 3.375673
v -2.780936 0.081014 3.375673
v -5.904802 -1.026051 3.375673
v 0.345867 13.793405 4.276607
v -0.387867 15.346139 6.096010
v -0.387867 13.793405 4.276607
v 0.345867 15.346139 6.096010
v -0.387868 13.793406 2.427206
v 0.345867 15.346141 2.427207
v 0.345866 13.793406 2.427206
v -0.387867 15.346141 2.427207
v 0.345866 13.793408 -4.212656
v -0.387867 15.346143 -6.032057
v -0.387868 13.793408 -4.212656
v 0.345867 15.346143 -6.032057
v -0.387868 13.793406 -2.363260
v 0.345867 15.346141 -2.363260
v 0.345866 13.793406 -2.363261
v -0.387868 15.346141 -2.363259
v 0.345866 12.292023 -2.636861
v -0.387868 13.564751 -4.456257
v -0.387868 12.292023 -2.636861
v 0.345866 13.564751 -4.456257
v -0.387868 12.292023 -2.363260
v 0.345866 13.564749 -2.363261
v 0.345866 12.292023 -2.363260
v -0.387868 13.564749 -2.363260
v 0.345866 12.292023 2.700806
v -0.387867 13.564746 4.520209
v -0.387868 12.292023 2.700806
v 0.345867 13.564746 4.520209
v -0.387868 12.292023 2.427206
v 0.345866 13.564749 2.427206
v 0.345866 12.292023 2.427206
v -0.387868 13.564749 2.427206
v -1.693468 16.074087 -1.662255
v -2.685333 15.684215 0.010078
v -2.386199 16.074087 0.010078
v -1.905001 15.684215 -1.873793
v -0.020935 16.074087 -2.354857
v -0.020935 15.684215 -2.654188
v 1.651467 16.074087 -1.662255
v 1.863000 15.684215 -1.873793
v 2.344199 16.074087 0.010078
v 2.643333 15.684215 0.010078
v 1.651467 16.074087 1.682609
v 1.863000 15.684215 1.894141
v -0.020934 16.074087 2.375409
v -0.020934 15.684215 2.674476
v -1.693468 16.074087 1.682609
v -1.905001 15.684215 1.894142
v -2.685333 11.182078 0.010076
v -1.905001 11.182078 -1.873794
v -0.020935 11.182078 -2.654190
v 1.862999 11.182078 -1.873794
v 2.643332 11.182078 0.010076
v 1.862999 11.182078 1.894140
v -0.020935 11.182078 2.674475
v -1.905001 11.182078 1.894140
v -2.430402 10.749350 0.010076
v -1.724601 10.749350 -1.693394
v -0.020935 10.749350 -2.398992
v 1.682532 10.749350 -1.693394
v 2.388399 10.749350 0.010076
v 1.682532 10.749350 1.713740
v -0.020935 10.749350 2.419540
v -1.724602 10.749350 1.713740
v -2.685334 10.338747 0.010076
v -1.905001 10.338746 -1.873794
v -0.020935 10.338747 -2.654190
v 1.862999 10.338746 -1.873794
v 2.643332 10.338745 0.010076
v 1.862999 10.338746 1.894140
v -0.020935 10.338745 2.674474
v -1.905001 10.338746 1.894140
v -2.685334 8.033683 0.010075
v -1.905002 8.033682 -1.873795
v -0.020936 8.033683 -2.654191
v 1.862999 8.033682 -1.873795
v 2.643332 8.033682 0.010075
v 1.862999 8.033682 1.894139
v -0.020935 8.033682 2.674473
v -1.905001 8.033682 1.894139
v -2.685335 5.700420 0.010074
v -1.905003 5.700420 -1.873796
v -0.020936 5.700421 -2.654192
v 1.862998 5.700420 -1.873796
v 2.643332 5.700419 0.010074
v 1.862998 5.700419 1.894138
v -0.020936 5.700419 2.674472
v -1.905002 5.700419 1.894138
v -2.447335 5.299888 0.010074
v -1.736667 5.299888 -1.705528
v -0.020936 5.299888 -2.416195
v 1.694664 5.299888 -1.705528
v 2.405331 5.299887 0.010074
v 1.694665 5.299886 1.725874
v -0.020936 5.299887 2.436471
v -1.736667 5.299887 1.725874
v -2.685335 4.884482 0.010074
v -1.905003 4.884483 -1.873796
v -0.020936 4.884483 -2.654192
v 1.862998 4.884483 -1.873796
v 2.643332 4.884481 0.010074
v 1.862998 4.884481 1.894138
v -0.020936 4.884482 2.674472
v -1.905002 4.884482 1.894138
v -2.685336 0.466219 0.010073
v -1.905003 0.466219 -1.873798
v -0.020937 0.466219 -2.654193
v 1.862997 0.466218 -1.873798
v 2.643330 0.466218 0.010073
v 1.862997 0.466218 1.894136
v -0.020937 0.466217 2.674471
v -1.905003 0.466218 1.894137
v -2.257603 -0.006580 0.010073
v -1.602536 -0.006580 -1.571328
v -0.020937 -0.006580 -2.226464
v 1.560464 -0.006580 -1.571328
v 2.215597 -0.006581 0.010073
v 1.560464 -0.006581 1.591671
v -0.020937 -0.006582 2.246802
v -1.602536 -0.006580 1.591671
v -0.020934 16.074087 0.010078
vt 0.503400 0.443100
vt 0.449100 0.489400
vt 0.503400 0.443100
vt 0.449100 0.489400
vt 0.558600 0.443100
vt 0.558600 0.489400
vt 0.558600 0.443100
vt 0.558600 0.489400
vt 0.503400 0.443100
vt 0.449100 0.489400
vt 0.503400 0.443100
vt 0.449100 0.489400
vt 0.558600 0.443100
vt 0.558600 0.489400
vt 0.558600 0.443100
vt 0.558600 0.489400
vt 0.550500 0.398300
vt 0.496200 0.436200
vt 0.550500 0.398300
vt 0.496200 0.436200
vt 0.558600 0.398300
vt 0.558600 0.436200
vt 0.558600 0.398300
vt 0.558600 0.436200
vt 0.550500 0.398300
vt 0.496200 0.436200
vt 0.550500 0.398300
vt 0.496200 0.436200
vt 0.558600 0.398300
vt 0.558600 0.436200
vt 0.558600 0.398300
vt 0.558600 0.436200
vt 0.649500 0.993600
vt 0.703500 0.979000
vt 0.703500 0.993600
vt 0.649500 0.979000
vt 0.595500 0.993600
vt 0.595500 0.979000
vt 0.541500 0.993600
vt 0.541500 0.979000
vt 0.487500 0.993600
vt 0.487500 0.979000
vt 0.433500 0.993600
vt 0.433500 0.979000
vt 0.379400 0.993600
vt 0.379400 0.979000
vt 0.325400 0.993600
vt 0.325400 0.979000
vt 0.271400 0.993600
vt 0.271400 0.979000
vt 0.703500 0.838600
vt 0.649500 0.838600
vt 0.595500 0.838600
vt 0.541500 0.838600
vt 0.487500 0.838600
vt 0.433500 0.838600
vt 0.379400 0.838600
vt 0.325400 0.838600
vt 0.271400 0.838600
vt 0.703500 0.823500
vt 0.649500 0.823500
vt 0.595500 0.823500
vt 0.541500 0.823500
vt 0.487500 0.823500
vt 0.433500 0.823500
vt 0.379400 0.823500
vt 0.325400 0.823500
vt 0.271400 0.823500
vt 0.703500 0.808300
vt 0.649500 0.808300
vt 0.595500 0.808300
vt 0.541500 0.808300
vt 0.487500 0.808300
vt 0.433500 0.808300
vt 0.379400 0.808300
vt 0.325400 0.808300
vt 0.271400 0.808300
vt 0.703500 0.745400
vt 0.649500 0.745400
vt 0.595500 0.745400
vt 0.541500 0.745400
vt 0.487500 0.745400
vt 0.433500 0.745400
vt 0.379400 0.745400
vt 0.325400 0.745400
vt 0.271400 0.745400
vt 0.703500 0.681100
vt 0.649500 0.681100
vt 0.595500 0.681100
vt 0.541500 0.681100
vt 0.487500 0.681100
vt 0.433500 0.681100
vt 0.379400 0.681100
vt 0.325400 0.681100
vt 0.271400 0.681100
vt 0.703500 0.665400
vt 0.649500 0.665400
vt 0.595500 0.665400
vt 0.541500 0.665400
vt 0.487500 0.665400
vt 0.433500 0.665400
vt 0.379400 0.665400
vt 0.325400 0.665400
vt 0.271400 0.665400
vt 0.703500 0.649700
vt 0.649500 0.649700
vt 0.595500 0.649700
vt 0.541500 0.649700
vt 0.487500 0.649700
vt 0.433500 0.649700
vt 0.379400 0.649700
vt 0.325400 0.649700
vt 0.271400 0.649700
vt 0.703500 0.528100
vt 0.649500 0.528100
vt 0.595500 0.528100
vt 0.541500 0.528100
vt 0.487500 0.528100
vt 0.433500 0.528100
vt 0.379400 0.528100
vt 0.325400 0.528100
vt 0.271400 0.528100
vt 0.703500 0.513200
vt 0.649500 0.513200
vt 0.595500 0.513200
vt 0.541500 0.513200
vt 0.487500 0.513200
vt 0.433500 0.513200
vt 0.379400 0.513200
vt 0.325400 0.513200
vt 0.271400 0.513200
vt 0.776800 0.673300
vt 0.733300 0.716800
vt 0.715300 0.673300
vt 0.776800 0.734800
vt 0.820300 0.716800
vt 0.838300 0.673300
vt 0.820300 0.629800
vt 0.776800 0.611700
vt 0.733300 0.629800
vn 0.0000 -0.7607 0.6492
vn 0.0000 0.0000 -1.0000
vn 0.0000 -1.0000 0.0000
vn -1.0000 0.0000 0.0000
vn 0.0000 1.0000 0.0000
vn 1.0000 -0.0000 -0.0000
vn 0.0000 0.7606 0.6492
vn 0.0000 0.8194 0.5732
vn 0.0000 -0.8194 0.5732
vn -0.5610 0.6088 -0.5610
vn -0.9540 0.2998 -0.0000
vn -0.7934 0.6087 -0.0000
vn -0.6746 0.2998 -0.6746
vn -0.0000 0.6090 -0.7932
vn -0.0000 0.2999 -0.9540
vn 0.5610 0.6088 -0.5610
vn 0.6746 0.2998 -0.6746
vn 0.7934 0.6087 -0.0000
vn 0.9540 0.2998 -0.0000
vn 0.5610 0.6087 0.5610
vn 0.6746 0.2998 0.6746
vn -0.0000 0.6087 0.7934
vn 0.0000 0.2998 0.9540
vn -0.5610 0.6087 0.5610
vn -0.6746 0.2998 0.6746
vn -0.9687 -0.2481 -0.0000
vn -0.6850 -0.2482 -0.6850
vn 0.0000 -0.2483 -0.9687
vn 0.6850 -0.2483 -0.6850
vn 0.9687 -0.2481 -0.0000
vn 0.6850 -0.2483 0.6850
vn 0.0000 -0.2481 0.9687
vn -0.6850 -0.2482 0.6850
vn -0.8616 -0.5076 0.0000
vn -0.6091 -0.5079 -0.6092
vn 0.0000 -0.5080 -0.8614
vn 0.6091 -0.5079 -0.6091
vn 0.8616 -0.5076 -0.0001
vn 0.6091 -0.5079 0.6092
vn 0.0001 -0.5076 0.8616
vn -0.6092 -0.5079 0.6091
vn -0.6006 0.5277 -0.6006
vn -0.9661 0.2581 -0.0000
vn -0.8496 0.5275 -0.0001
vn -0.6831 0.2582 -0.6831
vn 0.0000 0.5279 -0.8493
vn 0.0000 0.2583 -0.9661
vn 0.6005 0.5278 -0.6006
vn 0.6831 0.2583 -0.6831
vn 0.8496 0.5275 0.0000
vn 0.9661 0.2581 0.0000
vn 0.6006 0.5278 0.6006
vn 0.6831 0.2583 0.6831
vn -0.0000 0.5275 0.8496
vn -0.0000 0.2581 0.9661
vn -0.6006 0.5277 0.6006
vn -0.6831 0.2582 0.6831
vn -0.7071 0.0000 -0.7071
vn 0.7071 0.0000 -0.7071
vn 0.7071 -0.0000 0.7071
vn 0.0000 -0.0000 1.0000
vn -0.7071 -0.0000 0.7071
vn -0.9683 -0.2497 -0.0000
vn -0.6847 -0.2497 -0.6847
vn 0.0000 -0.2497 -0.9683
vn 0.6847 -0.2497 -0.6847
vn 0.9683 -0.2497 -0.0000
vn 0.6847 -0.2497 0.6847
vn 0.0000 -0.2497 0.9683
vn -0.6847 -0.2497 0.6847
vn -0.8597 -0.5108 -0.0000
vn -0.6078 -0.5109 -0.6079
vn 0.0000 -0.5108 -0.8597
vn 0.6079 -0.5108 -0.6079
vn 0.8597 -0.5108 -0.0000
vn 0.6079 -0.5108 0.6079
vn 0.0000 -0.5108 0.8597
vn -0.6079 -0.5108 0.6079
vn -0.6135 0.4971 -0.6136
vn -0.9701 0.2429 -0.0000
vn -0.8677 0.4971 -0.0000
vn -0.6859 0.2429 -0.6859
vn 0.0000 0.4971 -0.8677
vn 0.0000 0.2429 -0.9701
vn 0.6135 0.4971 -0.6136
vn 0.6859 0.2429 -0.6859
vn 0.8677 0.4971 -0.0000
vn 0.9701 0.2429 -0.0000
vn 0.6135 0.4971 0.6135
vn 0.6859 0.2429 0.6859
vn 0.0000 0.4971 0.8677
vn 0.0000 0.2429 0.9701
vn -0.6135 0.4971 0.6136
vn -0.6859 0.2429 0.6859
vn -0.9429 -0.3330 -0.0000
vn -0.6667 -0.3330 -0.6667
vn 0.0000 -0.3330 -0.9429
vn 0.6667 -0.3331 -0.6667
vn 0.9429 -0.3330 -0.0000
vn 0.6667 -0.3331 0.6667
vn 0.0000 -0.3330 0.9429
vn -0.6667 -0.3330 0.6667
vn -0.7416 -0.6709 -0.0000
vn -0.5243 -0.6709 -0.5244
vn 0.0000 -0.6709 -0.7416
vn 0.5243 -0.6709 -0.5243
vn 0.7416 -0.6709 -0.0000
vn 0.5243 -0.6709 0.5244
vn 0.0000 -0.6708 0.7416
vn -0.5244 -0.6709 0.5243
usemtl happa5
s 1
f 4/1/1 5/2/1 6/3/1
f 7/4/1 5/2/1 4/1/1
f 8/5/2 9/6/2 10/7/2
f 11/8/2 9/6/2 8/5/2
f 8/5/3 4/1/3 6/3/3
f 10/7/3 4/1/3 8/5/3
f 11/8/4 6/3/4 5/2/4
f 8/5/4 6/3/4 11/8/4
f 9/6/5 5/2/5 7/4/5
f 11/8/5 5/2/5 9/6/5
f 10/7/6 7/4/6 4/1/6
f 9/6/6 7/4/6 10/7/6
f 12/9/7 13/10/7 14/11/7
f 15/12/7 13/10/7 12/9/7
f 16/13/2 17/14/2 18/15/2
f 19/16/2 17/14/2 16/13/2
f 16/13/5 12/9/5 14/11/5
f 18/15/5 12/9/5 16/13/5
f 19/16/6 14/11/6 13/10/6
f 16/13/6 14/11/6 19/16/6
f 17/14/3 13/10/3 15/12/3
f 19/16/3 13/10/3 17/14/3
f 18/15/4 15/12/4 12/9/4
f 17/14/4 15/12/4 18/15/4
f 20/17/8 21/18/8 22/19/8
f 23/20/8 21/18/8 20/17/8
f 24/21/2 25/22/2 26/23/2
f 27/24/2 25/22/2 24/21/2
f 24/21/5 20/17/5 22/19/5
f 26/23/5 20/17/5 24/21/5
f 27/24/6 22/19/6 21/18/6
f 24/21/6 22/19/6 27/24/6
f 25/22/3 21/18/3 23/20/3
f 27/24/3 21/18/3 25/22/3
f 26/23/4 23/20/4 20/17/4
f 25/22/4 23/20/4 26/23/4
f 28/25/9 29/26/9 30/27/9
f 31/28/9 29/26/9 28/25/9
f 32/29/2 33/30/2 34/31/2
f 35/32/2 33/30/2 32/29/2
f 32/29/3 28/25/3 30/27/3
f 34/31/3 28/25/3 32/29/3
f 35/32/4 30/27/4 29/26/4
f 32/29/4 30/27/4 35/32/4
f 33/30/5 29/26/5 31/28/5
f 35/32/5 29/26/5 33/30/5
f 34/31/6 31/28/6 28/25/6
f 33/30/6 31/28/6 34/31/6
f 36/33/10 37/34/11 38/35/12
f 39/36/13 37/34/11 36/33/10
f 40/37/14 39/36/13 36/33/10
f 41/38/15 39/36/13 40/37/14
f 42/39/16 41/38/15 40/37/14
f 43/40/17 41/38/15 42/39/16
f 44/41/18 43/40/17 42/39/16
f 45/42/19 43/40/17 44/41/18
f 46/43/20 45/42/19 44/41/18
f 47/44/21 45/42/19 46/43/20
f 48/45/22 47/44/21 46/43/20
f 49/46/23 47/44/21 48/45/22
f 50/47/24 49/46/23 48/45/22
f 51/48/25 49/46/23 50/47/24
f 38/49/12 51/48/25 50/47/24
f 37/50/11 51/48/25 38/49/12
f 39/36/13 52/51/26 37/34/11
f 53/52/27 52/51/26 39/36/13
f 41/38/15 53/52/27 39/36/13
f 54/53/28 53/52/27 41/38/15
f 43/40/17 54/53/28 41/38/15
f 55/54/29 54/53/28 43/40/17
f 45/42/19 55/54/29 43/40/17
f 56/55/30 55/54/29 45/42/19
f 47/44/21 56/55/30 45/42/19
f 57/56/31 56/55/30 47/44/21
f 49/46/23 57/56/31 47/44/21
f 58/57/32 57/56/31 49/46/23
f 51/48/25 58/57/32 49/46/23
f 59/58/33 58/57/32 51/48/25
f 37/50/11 59/58/33 51/48/25
f 52/59/26 59/58/33 37/50/11
f 53/52/27 60/60/34 52/51/26
f 61/61/35 60/60/34 53/52/27
f 54/53/28 61/61/35 53/52/27
f 62/62/36 61/61/35 54/53/28
f 55/54/29 62/62/36 54/53/28
f 63/63/37 62/62/36 55/54/29
f 56/55/30 63/63/37 55/54/29
f 64/64/38 63/63/37 56/55/30
f 57/56/31 64/64/38 56/55/30
f 65/65/39 64/64/38 57/56/31
f 58/57/32 65/65/39 57/56/31
f 66/66/40 65/65/39 58/57/32
f 59/58/33 66/66/40 58/57/32
f 67/67/41 66/66/40 59/58/33
f 52/59/26 67/67/41 59/58/33
f 60/68/34 67/67/41 52/59/26
f 61/61/42 68/69/43 60/60/44
f 69/70/45 68/69/43 61/61/42
f 62/62/46 69/70/45 61/61/42
f 70/71/47 69/70/45 62/62/46
f 63/63/48 70/71/47 62/62/46
f 71/72/49 70/71/47 63/63/48
f 64/64/50 71/72/49 63/63/48
f 72/73/51 71/72/49 64/64/50
f 65/65/52 72/73/51 64/64/50
f 73/74/53 72/73/51 65/65/52
f 66/66/54 73/74/53 65/65/52
f 74/75/55 73/74/53 66/66/54
f 67/67/56 74/75/55 66/66/54
f 75/76/57 74/75/55 67/67/56
f 60/68/44 75/76/57 67/67/56
f 68/77/43 75/76/57 60/68/44
f 69/70/45 76/78/4 68/69/43
f 77/79/58 76/78/4 69/70/45
f 70/71/47 77/79/58 69/70/45
f 78/80/2 77/79/58 70/71/47
f 71/72/49 78/80/2 70/71/47
f 79/81/59 78/80/2 71/72/49
f 72/73/51 79/81/59 71/72/49
f 80/82/6 79/81/59 72/73/51
f 73/74/53 80/82/6 72/73/51
f 81/83/60 80/82/6 73/74/53
f 74/75/55 81/83/60 73/74/53
f 82/84/61 81/83/60 74/75/55
f 75/76/57 82/84/61 74/75/55
f 83/85/62 82/84/61 75/76/57
f 68/77/43 83/85/62 75/76/57
f 76/86/4 83/85/62 68/77/43
f 77/79/58 84/87/63 76/78/4
f 85/88/64 84/87/63 77/79/58
f 78/80/2 85/88/64 77/79/58
f 86/89/65 85/88/64 78/80/2
f 79/81/59 86/89/65 78/80/2
f 87/90/66 86/89/65 79/81/59
f 80/82/6 87/90/66 79/81/59
f 88/91/67 87/90/66 80/82/6
f 81/83/60 88/91/67 80/82/6
f 89/92/68 88/91/67 81/83/60
f 82/84/61 89/92/68 81/83/60
f 90/93/69 89/92/68 82/84/61
f 83/85/62 90/93/69 82/84/61
f 91/94/70 90/93/69 83/85/62
f 76/86/4 91/94/70 83/85/62
f 84/95/63 91/94/70 76/86/4
f 85/88/64 92/96/71 84/87/63
f 93/97/72 92/96/71 85/88/64
f 86/89/65 93/97/72 85/88/64
f 94/98/73 93/97/72 86/89/65
f 87/90/66 94/98/73 86/89/65
f 95/99/74 94/98/73 87/90/66
f 88/91/67 95/99/74 87/90/66
f 96/100/75 95/99/74 88/91/67
f 89/92/68 96/100/75 88/91/67
f 97/101/76 96/100/75 89/92/68
f 90/93/69 97/101/76 89/92/68
f 98/102/77 97/101/76 90/93/69
f 91/94/70 98/102/77 90/93/69
f 99/103/78 98/102/77 91/94/70
f 84/95/63 99/103/78 91/94/70
f 92/104/71 99/103/78 84/95/63
f 93/97/79 100/105/80 92/96/81
f 101/106/82 100/105/80 93/97/79
f 94/98/83 101/106/82 93/97/79
f 102/107/84 101/106/82 94/98/83
f 95/99/85 102/107/84 94/98/83
f 103/108/86 102/107/84 95/99/85
f 96/100/87 103/108/86 95/99/85
f 104/109/88 103/108/86 96/100/87
f 97/101/89 104/109/88 96/100/87
f 105/110/90 104/109/88 97/101/89
f 98/102/91 105/110/90 97/101/89
f 106/111/92 105/110/90 98/102/91
f 99/103/93 106/111/92 98/102/91
f 107/112/94 106/111/92 99/103/93
f 92/104/81 107/112/94 99/103/93
f 100/113/80 107/112/94 92/104/81
f 101/106/82 108/114/95 100/105/80
f 109/115/96 108/114/95 101/106/82
f 102/107/84 109/115/96 101/106/82
f 110/116/97 109/115/96 102/107/84
f 103/108/86 110/116/97 102/107/84
f 111/117/98 110/116/97 103/108/86
f 104/109/88 111/117/98 103/108/86
f 112/118/99 111/117/98 104/109/88
f 105/110/90 112/118/99 104/109/88
f 113/119/100 112/118/99 105/110/90
f 106/111/92 113/119/100 105/110/90
f 114/120/101 113/119/100 106/111/92
f 107/112/94 114/120/101 106/111/92
f 115/121/102 114/120/101 107/112/94
f 100/113/80 115/121/102 107/112/94
f 108/122/95 115/121/102 100/113/80
f 109/115/96 116/123/103 108/114/95
f 117/124/104 116/123/103 109/115/96
f 110/116/97 117/124/104 109/115/96
f 118/125/105 117/124/104 110/116/97
f 111/117/98 118/125/105 110/116/97
f 119/126/106 118/125/105 111/117/98
f 112/118/99 119/126/106 111/117/98
f 120/127/107 119/126/106 112/118/99
f 113/119/100 120/127/107 112/118/99
f 121/128/108 120/127/107 113/119/100
f 114/120/101 121/128/108 113/119/100
f 122/129/109 121/128/108 114/120/101
f 115/121/102 122/129/109 114/120/101
f 123/130/110 122/129/109 115/121/102
f 108/122/95 123/130/110 115/121/102
f 116/131/103 123/130/110 108/122/95
f 124/132/5 50/133/5 48/134/5
f 38/135/5 50/133/5 124/132/5
f 36/136/5 38/135/5 124/132/5
f 124/132/5 40/137/5 36/136/5
f 42/138/5 40/137/5 124/132/5
f 44/139/5 42/138/5 124/132/5
f 124/132/5 46/140/5 44/139/5
f 48/134/5 46/140/5 124/132/5
