mtllib GreenHillSunflower.mtl
v 2.55581 26.900198 -1.184237
v 2.16651 27.906103 -1.603145
v 2.157585 28.1639 0.031875
v 2.17382 26.932394 -2.941608
v 2.561335 26.174795 -2.181541
v 2.565278 25.177298 -2.907225
v 2.867349 23.959005 0.035734
v 2.566426 23.959005 -3.099565
v 2.565278 22.740591 -2.907226
v 2.1806 23.959005 -4.173085
v 2.179166 22.324102 -3.915223
v 2.17382 20.985495 -2.941609
v 2.561334 21.743093 -2.181542
v 2.555809 21.017706 -1.184239
v 2.549109 20.825293 0.034157
v 2.157585 19.753698 0.031872
v 2.542491 21.017706 1.252425
v 2.148616 20.011801 1.666777
v 2.141249 20.985495 3.00526
v 2.54911 27.092596 0.034159
v 2.542491 26.900198 1.252427
v 2.148617 27.906103 1.66678
v 2.141249 26.932394 3.005262
v 2.537056 26.174795 2.249794
v 2.533113 25.177298 2.975478
v 2.135732 25.593801 3.978942
v 2.13447 23.959005 4.236737
v 2.537055 21.743093 2.249794
v 2.533113 22.740591 2.975479
v 2.135732 22.324102 3.97894
v 2.531857 23.959005 3.167531
v 1.418181 22.324102 3.975023
v 1.430804 20.011801 1.66286
v 1.415408 22.141806 4.415051
v 1.439659 23.959005 0.027999
v 1.418181 25.593801 3.975023
v 1.430805 27.906103 1.662863
v 1.448652 20.011801 -1.607016
v 1.461536 22.324102 -3.919178
v 1.461537 25.593801 -3.919177
v 2.179167 25.593801 -3.915223
v 2.16651 20.011801 -1.603148
v 1.448653 27.906103 -1.607013
v 0.852089 6.208594 -5.273177
v 1.036966 8.020498 -3.5282
v 1.056971 6.208594 -7.152228
v 0.842805 7.080603 -3.529508
v 1.036966 4.396504 -3.528201
v 0.842805 5.336598 -3.529508
v 0.832926 6.208592 -1.785516
v 1.017168 6.208592 0.095684
v 1.000892 7.812992 3.042134
v 0.796816 9.624895 4.784896
v 0.806486 8.752901 3.041212
v 0.980887 9.624895 6.666162
v 0.81639 9.624897 1.297114
v 1.000892 11.436998 3.042136
v 1.020754 9.624897 -0.582099
v 0.806486 10.496799 3.041213
v 1.035829 11.657904 -3.326337
v 0.831925 13.46999 -1.583639
v 0.841658 12.597998 -3.327673
v 1.015792 13.46999 0.297605
v 0.851156 13.469992 -5.071291
v 1.035829 15.281807 -3.326337
v 1.055987 13.469992 -6.950651
v 0.841658 14.342003 -3.327673
v 1.915936 13.469992 -3.32169
v 1.91714 6.208592 -3.523547
v 1.881031 9.624895 3.046867
v 2.139582 22.596395 3.321186
v 2.143937 21.481192 2.509606
v 2.138323 23.959005 3.536014
v 2.139582 25.321295 3.321187
v 2.143938 26.436697 2.509607
v 2.149943 27.248297 1.39431
v 2.157585 27.463003 0.031874
v 2.164956 27.248297 -1.33059
v 2.171257 26.436697 -2.445967
v 2.175652 25.321295 -3.257269
v 2.176815 23.959005 -3.472354
v 2.175652 22.596395 -3.25727
v 2.171257 21.481192 -2.445967
v 2.164955 20.669592 -1.330592
v 2.157585 20.454596 0.031872
v 2.149942 20.669592 1.394308
v 1.429668 19.571798 1.845047
v 1.449599 19.571798 -1.78936
v 1.463688 22.141806 -4.359296
v 1.463688 25.776098 -4.359296
v 1.449599 28.346197 -1.789357
v 1.429669 28.346197 1.845051
v 1.415408 25.776098 4.415051
v 2.133556 22.141806 4.419168
v 1.752904 23.959002 8.334874
v 2.133556 25.776098 4.419168
v 1.766348 29.831499 5.902341
v 2.147634 28.346197 1.849204
v 1.79853 32.263996 0.030038
v 2.167543 28.346197 -1.785261
v 1.830944 29.831503 -5.842516
v 2.181633 25.776098 -4.3552
v 1.844387 23.959009 -8.275051
v 2.181633 22.141806 -4.355201
v 1.766347 18.086397 5.902337
v 2.147634 19.571798 1.8492
v 1.830943 18.086401 -5.84252
v 2.167543 19.571798 -1.785264
v 1.798529 15.653692 0.030034
v -0.62096 15.603598 -0.002665
v -0.306987 24.251898 -0.539821
v -0.306987 15.603598 -0.539824
v -0.620959 24.251898 -0.002662
v -0.31267 15.603598 0.538354
v -0.31267 24.251898 0.538356
v 0.309676 15.603598 0.541921
v 0.309676 24.251898 0.541923
v 0.624054 15.603598 0.004282
v 0.624055 24.251898 0.004284
v 0.315645 15.603598 -0.536365
v 0.315645 24.251898 -0.536363
v -0.62096 -0.1076 -0.00267
v -0.306988 -0.1076 -0.539829
v 0.315644 -0.1076 -0.53637
v 0.624053 -0.1076 0.004276
v 0.309675 -0.107601 0.541915
v -0.312671 -0.107601 0.538349
v 0.001434 24.251898 0.000854
v 0.001432 -0.1076 0.000846
vt -0.0914 2.2895
vt 0.8964 0.9476
vt 0.9093 0.9787
vt 0.8587 0.9867
vt 0.9507 0.9486
vt 0.9273 0.9252
vt 0.9497 0.8943
vt 0.8587 0.8566
vt 0.9557 0.8566
vt 0.9497 0.8189
vt 0.9888 0.8566
vt 0.9808 0.806
vt 0.9507 0.7646
vt 0.9273 0.7881
vt 0.8964 0.7656
vt 0.8587 0.7597
vt 0.8587 0.7265
vt 0.8211 0.7656
vt 0.8082 0.7345
vt 0.7668 0.7646
vt 0.8587 0.9536
vt 0.8211 0.9476
vt 0.8082 0.9787
vt 0.7668 0.9486
vt 0.7902 0.9252
vt 0.7677 0.8943
vt 0.7366 0.9072
vt 0.7287 0.8566
vt 0.7902 0.7881
vt 0.7677 0.8189
vt 0.7366 0.806
vt 0.7618 0.8566
vt 0.723 0.8004
vt 0.9093 0.7345
vt 0.9808 0.9072
vt 0.9968 0.5818
vt 0.8755 0.6424
vt 0.8755 0.5211
vt 0.7542 0.5818
vt 0.8788 0.5232
vt 0.9962 0.5818
vt 0.7615 0.5818
vt 0.8788 0.6405
vt 0.8763 0.5199
vt 0.7551 0.5805
vt 0.9975 0.5805
vt 0.8763 0.6411
vt 0.8763 0.5805
vt 0.8755 0.5818
vt 0.8788 0.5818
vn -1.0000 0.0000 -0.0055
vn -0.3925 0.6100 -0.6884
vn -0.4953 0.0000 -0.8687
vn -0.7924 0.6100 -0.0044
vn -0.5049 -0.0000 0.8632
vn -0.4001 0.6100 0.6840
vn 0.4951 -0.0000 0.8688
vn 0.3923 0.6100 0.6885
vn 1.0000 -0.0000 0.0054
vn 0.7924 0.6100 0.0042
vn 0.5046 0.0000 -0.8633
vn 0.3999 0.6100 -0.6841
vn -0.7924 -0.6100 -0.0044
vn -0.3925 -0.6100 -0.6884
vn 0.3999 -0.6100 -0.6841
vn 0.7924 -0.6100 0.0042
vn 0.3923 -0.6100 0.6885
vn -0.4001 -0.6100 0.6840
vn 0.0000 1.0000 0.0000
vn 0.0000 -1.0000 -0.0000
vn 1.0000 -0.0000 0.0058
vn 0.9990 -0.0289 0.0344
vn 1.0000 -0.0001 0.0058
vn 1.0000 -0.0001 0.0055
vn 0.9989 -0.0000 0.0463
vn 1.0000 0.0002 0.0057
vn 1.0000 0.0001 0.0057
vn 1.0000 0.0000 0.0055
vn 0.9990 0.0289 0.0344
vn 1.0000 -0.0002 0.0055
vn 1.0000 -0.0002 0.0054
vn 0.9991 0.0409 0.0055
vn 1.0000 -0.0000 0.0056
vn 1.0000 0.0001 0.0053
vn 0.9993 0.0289 -0.0234
vn 1.0000 0.0000 0.0053
vn 0.9994 0.0000 -0.0354
vn 1.0000 -0.0001 0.0053
vn 0.9993 -0.0288 -0.0234
vn 1.0000 0.0001 0.0055
vn 0.9991 -0.0409 0.0055
vn 1.0000 0.0002 0.0054
vn -1.0000 0.0001 -0.0055
vn -0.8900 -0.4230 0.1704
vn -1.0000 0.0002 -0.0056
vn -0.8880 -0.4231 -0.1801
vn -1.0000 -0.0001 -0.0056
vn -0.8865 -0.1753 -0.4282
vn -1.0000 -0.0002 -0.0052
vn -0.8867 0.1752 -0.4279
vn -1.0000 -0.0001 -0.0055
vn -0.8880 0.4231 -0.1801
vn -1.0000 -0.0002 -0.0055
vn -0.8900 0.4230 0.1704
vn -1.0000 -0.0002 -0.0059
vn -0.8914 0.1751 0.4179
vn -1.0000 0.0002 -0.0059
vn -0.8349 -0.2123 0.5078
vn 0.8867 -0.1752 0.4279
vn -0.0044 0.0000 1.0000
vn 0.8867 0.1752 0.4279
vn -0.0028 0.7071 0.7071
vn 0.8880 0.4231 0.1801
vn 0.0010 1.0000 0.0000
vn 0.8899 0.4230 -0.1704
vn 0.0050 0.7071 -0.7071
vn 0.8913 0.1752 -0.4181
vn 0.0066 0.0000 -1.0000
vn 0.8913 -0.1752 -0.4181
vn 0.9993 -0.0289 -0.0234
vn -0.0028 -0.7071 0.7071
vn 0.8880 -0.4231 0.1801
vn 0.0050 -0.7071 -0.7071
vn 0.8900 -0.4230 -0.1704
vn 0.0010 -1.0000 0.0000
vn 1.0000 -0.0002 0.0050
vn 0.9718 0.2199 -0.0857
vn 0.9417 0.3127 -0.1244
vn 0.9392 0.3432 0.0051
vn 0.9406 0.2427 -0.2376
vn 0.9728 0.1666 -0.1612
vn 0.9724 0.0911 -0.2146
vn 0.9731 0.0000 -0.2303
vn 0.9724 -0.0911 -0.2146
vn 0.9411 0.0000 -0.3382
vn 0.9427 -0.1295 -0.3076
vn 0.9406 -0.2427 -0.2376
vn 0.9728 -0.1666 -0.1612
vn 0.9718 -0.2199 -0.0857
vn 0.9718 -0.2355 0.0053
vn 0.9393 -0.3432 0.0051
vn 0.9708 -0.2199 0.0964
vn 0.9403 -0.3127 0.1347
vn 0.9379 -0.2428 0.2479
vn 0.9718 0.2356 0.0053
vn 0.9708 0.2199 0.0964
vn 0.9403 0.3127 0.1347
vn 0.9379 0.2428 0.2479
vn 0.9709 0.1666 0.1719
vn 0.9700 0.0911 0.2253
vn 0.9392 0.1296 0.3181
vn 0.9373 0.0000 0.3485
vn 0.9709 -0.1666 0.1719
vn 0.9700 -0.0911 0.2253
vn 0.9391 -0.1296 0.3181
vn 0.9706 0.0000 0.2409
vn -1.0000 0.0003 -0.0057
vn 0.9427 0.1295 -0.3076
vn 0.9417 -0.3126 -0.1244
vn -0.9738 0.2012 -0.1061
vn -0.9738 0.2014 -0.1060
vn -0.9737 0.2016 -0.1062
vn -0.9738 0.2013 -0.1059
vn -0.9738 -0.2013 -0.1058
vn -0.9737 -0.2016 -0.1062
vn -0.9749 0.2014 0.0952
vn -0.9748 0.2016 0.0955
vn -0.9749 0.2013 0.0951
vn -0.9749 -0.2012 0.0955
vn -0.9750 -0.2010 0.0952
vn -0.9748 -0.2015 0.0954
vn -0.9738 0.2012 -0.1059
vn -0.9738 0.2013 -0.1061
vn -0.9737 0.2015 -0.1062
vn -0.9737 0.2014 -0.1062
vn -0.9749 0.2010 0.0954
vn -0.9749 0.2011 0.0952
vn -0.9748 0.2015 0.0953
vn -0.9749 -0.2013 0.0952
vn -0.9749 -0.2013 0.0953
vn -0.9749 -0.2012 0.0952
vn -0.9737 0.2014 -0.1061
vn -0.9737 0.2015 -0.1061
vn -0.9738 0.2013 -0.1060
vn -0.9738 -0.2013 -0.1060
vn -0.9737 -0.2014 -0.1061
vn -0.9749 0.2014 0.0953
vn -0.9749 0.2013 0.0952
vn -0.9737 -0.2017 -0.1060
vn -0.9738 -0.2012 -0.1059
vn -0.9749 -0.2012 0.0951
vn -0.9748 -0.2016 0.0955
vn 0.8776 0.4269 0.2183
vn 0.8776 0.4269 0.2182
vn 0.8776 -0.4268 0.2182
vn 0.8799 -0.4269 -0.2086
vn 0.8799 0.4269 -0.2086
vn 0.8776 0.4268 0.2183
vn 0.8776 -0.4269 0.2183
vn 0.8799 0.4268 -0.2086
vn 0.8776 -0.4268 0.2183
vn 0.8800 -0.4268 -0.2085
vn 0.8799 0.4269 -0.2085
usemtl happa
f 110/1/1 111/1/2 112/1/3
f 113/1/4 111/1/2 110/1/1
f 114/1/5 113/1/4 110/1/1
f 115/1/6 113/1/4 114/1/5
f 116/1/7 115/1/6 114/1/5
f 117/1/8 115/1/6 116/1/7
f 118/1/9 117/1/8 116/1/7
f 119/1/10 117/1/8 118/1/9
f 120/1/11 119/1/10 118/1/9
f 121/1/12 119/1/10 120/1/11
f 112/1/3 121/1/12 120/1/11
f 111/1/2 121/1/12 112/1/3
f 112/1/3 122/1/13 110/1/1
f 123/1/14 122/1/13 112/1/3
f 120/1/11 123/1/14 112/1/3
f 124/1/15 123/1/14 120/1/11
f 118/1/9 124/1/15 120/1/11
f 125/1/16 124/1/15 118/1/9
f 116/1/7 125/1/16 118/1/9
f 126/1/17 125/1/16 116/1/7
f 114/1/5 126/1/17 116/1/7
f 127/1/18 126/1/17 114/1/5
f 110/1/1 127/1/18 114/1/5
f 122/1/13 127/1/18 110/1/1
f 128/1/19 111/1/2 113/1/4
f 121/1/12 111/1/2 128/1/19
f 119/1/10 121/1/12 128/1/19
f 128/1/19 117/1/8 119/1/10
f 115/1/6 117/1/8 128/1/19
f 113/1/4 115/1/6 128/1/19
f 129/1/20 122/1/13 123/1/14
f 127/1/18 122/1/13 129/1/20
f 126/1/17 127/1/18 129/1/20
f 124/1/15 129/1/20 123/1/14
f 125/1/16 129/1/20 124/1/15
f 125/1/16 126/1/17 129/1/20
f 71/1/21 19/1/22 72/1/9
f 30/1/23 19/1/22 71/1/21
f 73/1/24 30/1/23 71/1/21
f 27/1/25 30/1/23 73/1/24
f 74/1/26 27/1/25 73/1/24
f 26/1/27 27/1/25 74/1/26
f 75/1/28 26/1/27 74/1/26
f 23/1/29 26/1/27 75/1/28
f 76/1/30 23/1/29 75/1/28
f 22/1/31 23/1/29 76/1/30
f 77/1/28 22/1/31 76/1/30
f 3/1/32 22/1/31 77/1/28
f 78/1/33 3/1/32 77/1/28
f 2/1/28 3/1/32 78/1/33
f 79/1/34 2/1/28 78/1/33
f 4/1/35 2/1/28 79/1/34
f 80/1/36 4/1/35 79/1/34
f 41/1/9 4/1/35 80/1/36
f 81/1/9 41/1/9 80/1/36
f 10/1/37 41/1/9 81/1/9
f 82/1/9 10/1/37 81/1/9
f 11/1/38 10/1/37 82/1/9
f 83/1/31 11/1/38 82/1/9
f 12/1/39 11/1/38 83/1/31
f 84/1/40 12/1/39 83/1/31
f 42/1/40 12/1/39 84/1/40
f 85/1/28 42/1/40 84/1/40
f 16/1/41 42/1/40 85/1/28
f 86/1/42 16/1/41 85/1/28
f 18/1/42 16/1/41 86/1/42
f 38/1/43 87/1/44 33/1/45
f 88/1/46 87/1/44 38/1/43
f 39/1/47 88/1/46 38/1/43
f 89/1/48 88/1/46 39/1/47
f 40/1/49 89/1/48 39/1/47
f 90/1/50 89/1/48 40/1/49
f 43/1/51 90/1/50 40/1/49
f 91/1/52 90/1/50 43/1/51
f 37/1/53 91/1/52 43/1/51
f 92/1/54 91/1/52 37/1/53
f 36/1/55 92/1/54 37/1/53
f 93/1/56 92/1/54 36/1/55
f 32/1/57 93/1/56 36/1/55
f 34/1/58 93/1/56 32/1/57
f 27/1/25 94/1/59 30/1/36
f 95/1/60 94/1/59 27/1/25
f 96/1/61 95/1/60 27/1/25
f 93/1/56 95/1/60 96/1/61
f 97/1/62 93/1/56 96/1/61
f 92/1/54 93/1/56 97/1/62
f 98/1/63 92/1/54 97/1/62
f 99/1/64 92/1/54 98/1/63
f 3/1/32 99/1/64 98/1/63
f 100/1/65 99/1/64 3/1/32
f 2/1/24 100/1/65 3/1/32
f 4/1/35 100/1/65 2/1/24
f 101/1/66 91/1/52 100/1/65
f 90/1/50 91/1/52 101/1/66
f 102/1/67 90/1/50 101/1/66
f 103/1/68 90/1/50 102/1/67
f 10/1/37 103/1/68 102/1/67
f 104/1/69 103/1/68 10/1/37
f 11/1/33 104/1/69 10/1/37
f 12/1/70 104/1/69 11/1/33
f 87/1/44 34/1/58 33/1/45
f 105/1/71 34/1/58 87/1/44
f 106/1/72 105/1/71 87/1/44
f 19/1/22 105/1/71 106/1/72
f 18/1/28 19/1/22 106/1/72
f 72/1/9 19/1/22 18/1/42
f 86/1/42 72/1/9 18/1/42
f 107/1/73 89/1/48 104/1/69
f 88/1/46 89/1/48 107/1/73
f 108/1/74 88/1/46 107/1/73
f 109/1/75 88/1/46 108/1/74
f 16/1/41 109/1/75 108/1/74
f 106/1/72 16/1/41 18/1/28
f 109/1/75 16/1/41 106/1/72
f 87/1/44 109/1/75 106/1/72
f 88/1/46 109/1/75 87/1/44
f 23/1/29 97/1/62 96/1/61
f 98/1/63 97/1/62 23/1/29
f 22/1/28 98/1/63 23/1/29
f 3/1/32 98/1/63 22/1/28
f 34/1/58 95/1/60 93/1/56
f 94/1/59 95/1/60 34/1/58
f 105/1/71 94/1/59 34/1/58
f 19/1/22 94/1/59 105/1/71
f 4/1/35 101/1/66 100/1/65
f 102/1/67 101/1/66 4/1/35
f 41/1/33 102/1/67 4/1/35
f 10/1/37 102/1/67 41/1/33
f 12/1/70 107/1/73 104/1/69
f 108/1/74 107/1/73 12/1/70
f 42/1/40 108/1/74 12/1/70
f 16/1/41 108/1/74 42/1/40
f 26/1/76 96/1/61 27/1/25
f 23/1/29 96/1/61 26/1/76
f 99/1/64 91/1/52 92/1/54
f 100/1/65 91/1/52 99/1/64
f 103/1/68 89/1/48 90/1/50
f 104/1/69 89/1/48 103/1/68
f 30/1/36 94/1/59 19/1/22
f 1/2/77 2/3/78 3/4/79
f 4/5/80 2/3/78 1/2/77
f 5/6/81 4/5/80 1/2/77
f 6/7/82 4/5/80 5/6/81
f 7/8/28 6/7/82 5/6/81
f 8/9/83 6/7/82 7/8/28
f 9/10/84 8/9/83 7/8/28
f 10/11/85 8/9/83 9/10/84
f 11/12/86 10/11/85 9/10/84
f 9/10/84 12/13/87 11/12/86
f 13/14/88 12/13/87 9/10/84
f 7/8/28 13/14/88 9/10/84
f 14/15/89 13/14/88 7/8/28
f 15/16/90 14/15/89 7/8/28
f 16/17/91 14/15/89 15/16/90
f 17/18/92 16/17/91 15/16/90
f 18/19/93 16/17/91 17/18/92
f 19/20/94 18/19/93 17/18/92
f 1/2/77 7/8/28 5/6/81
f 20/21/95 7/8/28 1/2/77
f 3/4/79 20/21/95 1/2/77
f 21/22/96 20/21/95 3/4/79
f 22/23/97 21/22/96 3/4/79
f 23/24/98 21/22/96 22/23/97
f 21/22/96 7/8/28 20/21/95
f 24/25/99 7/8/28 21/22/96
f 23/24/98 24/25/99 21/22/96
f 25/26/100 24/25/99 23/24/98
f 26/27/101 25/26/100 23/24/98
f 27/28/102 25/26/100 26/27/101
f 7/8/28 17/18/92 15/16/90
f 28/29/103 17/18/92 7/8/28
f 29/30/104 28/29/103 7/8/28
f 19/20/94 28/29/103 29/30/104
f 30/31/105 19/20/94 29/30/104
f 29/30/104 27/28/102 30/31/105
f 31/32/106 27/28/102 29/30/104
f 7/8/28 31/32/106 29/30/104
f 25/26/100 31/32/106 7/8/28
f 24/25/99 25/26/100 7/8/28
f 32/31/57 33/19/45 34/33/107
f 35/8/1 33/19/45 32/31/57
f 36/27/55 35/8/1 32/31/57
f 37/23/53 35/8/1 36/27/55
f 35/8/1 38/34/43 33/19/45
f 39/12/47 38/34/43 35/8/1
f 40/35/49 39/12/47 35/8/1
f 6/7/82 41/35/108 4/5/80
f 10/11/85 41/35/108 6/7/82
f 8/9/83 10/11/85 6/7/82
f 14/15/89 12/13/87 13/14/88
f 42/34/109 12/13/87 14/15/89
f 16/17/91 42/34/109 14/15/89
f 35/8/1 43/3/51 40/35/49
f 37/23/53 43/3/51 35/8/1
f 44/36/110 45/37/111 46/36/112
f 47/37/113 45/37/111 44/36/110
f 44/36/114 48/38/114 49/38/114
f 46/36/115 48/38/115 44/36/115
f 45/37/116 50/39/117 51/39/117
f 47/37/118 50/39/118 45/37/118
f 52/40/119 53/41/120 54/40/121
f 55/41/121 53/41/120 52/40/119
f 56/42/122 57/43/123 58/42/124
f 59/43/125 57/43/123 56/42/122
f 57/43/126 53/41/127 55/41/127
f 59/43/128 53/41/128 57/43/128
f 60/44/129 61/45/130 62/44/131
f 63/45/130 61/45/130 60/44/129
f 64/46/132 65/47/111 66/46/133
f 67/47/134 65/47/111 64/46/132
f 64/46/135 60/44/135 62/44/135
f 66/46/136 60/44/136 64/46/136
f 65/47/137 61/45/137 63/45/137
f 67/47/138 61/45/138 65/47/138
f 56/42/139 52/40/139 54/40/139
f 58/42/140 52/40/140 56/42/140
f 48/38/129 50/39/121 49/38/141
f 51/39/142 50/39/121 48/38/129
f 68/48/143 65/47/143 63/45/143
f 69/49/144 45/37/144 51/39/144
f 48/38/145 69/49/145 51/39/145
f 46/36/146 69/49/146 48/38/146
f 45/37/147 69/49/147 46/36/147
f 70/50/148 57/43/148 55/41/148
f 52/40/149 70/50/149 55/41/149
f 58/42/146 70/50/146 52/40/146
f 57/43/150 70/50/150 58/42/150
f 60/44/151 68/48/151 63/45/151
f 66/46/152 68/48/152 60/44/152
f 65/47/153 68/48/153 66/46/153
f 19/20/94 17/18/92 28/29/103
f 27/28/102 31/32/106 25/26/100
