# Blender v2.78 (sub 0) OBJ File: ''
# www.blender.org
mtllib GreenHillTotemWings.mtl
v -6.554404 -0.201079 5.063510
v -4.171404 0.121522 5.063510
v -8.857203 -1.539076 5.063509
v 0.518800 20.690107 6.414907
v -0.581801 23.019209 9.144011
v -0.581801 20.690107 6.414907
v 0.518800 23.019209 9.144011
v -0.581802 20.690109 3.640806
v 0.518800 23.019211 3.640807
v 0.518799 20.690109 3.640806
v -0.581801 23.019211 3.640807
v 0.518799 20.690111 -6.318987
v -0.581801 23.019213 -9.048089
v -0.581802 20.690111 -6.318987
v 0.518800 23.019213 -9.048089
v -0.581802 20.690109 -3.544893
v 0.518800 23.019211 -3.544893
v 0.518799 20.690109 -3.544894
v -0.581802 23.019211 -3.544892
v 0.518799 18.438034 -3.955294
v -0.581802 20.347124 -6.684389
v -0.581802 18.438034 -3.955294
v 0.518799 20.347124 -6.684389
v -0.581802 18.438034 -3.544893
v 0.518799 20.347122 -3.544894
v 0.518799 18.438034 -3.544893
v -0.581802 20.347122 -3.544893
v 0.518799 18.438034 4.051206
v -0.581801 20.347120 6.780309
v -0.581802 18.438034 4.051206
v 0.518800 20.347120 6.780309
v -0.581802 18.438034 3.640806
v 0.518799 20.347122 3.640806
v 0.518799 18.438034 3.640806
v -0.581802 20.347122 3.640806
v -2.540202 24.111130 -2.493386
v -4.027999 23.526321 0.015113
v -3.579299 24.111130 0.015113
v -2.857501 23.526321 -2.810693
v -0.031402 24.111130 -3.532289
v -0.031402 23.526321 -3.981286
v 2.477201 24.111130 -2.493386
v 2.794500 23.526321 -2.810693
v 3.516299 24.111130 0.015113
v 3.964999 23.526321 0.015113
v 2.477201 24.111130 2.523910
v 2.794500 23.526321 2.841208
v -0.031401 24.111130 3.563109
v -0.031401 23.526321 4.011710
v -2.540202 24.111130 2.523910
v -2.857501 23.526321 2.841209
v -4.028000 16.773117 0.015112
v -2.857502 16.773117 -2.810694
v -0.031403 16.773117 -3.981287
v 2.794498 16.773117 -2.810694
v 3.964998 16.773117 0.015112
v 2.794499 16.773117 2.841207
v -0.031403 16.773117 4.011709
v -2.857502 16.773117 2.841208
v -3.645603 16.124023 0.015112
v -2.586902 16.124023 -2.540094
v -0.031403 16.124023 -3.598490
v 2.523798 16.124023 -2.540094
v 3.582598 16.124023 0.015112
v 2.523798 16.124023 2.570608
v -0.031403 16.124023 3.629308
v -2.586903 16.124023 2.570608
v -4.028001 15.508120 0.015112
v -2.857502 15.508119 -2.810694
v -0.031403 15.508120 -3.981287
v 2.794498 15.508119 -2.810694
v 3.964998 15.508118 0.015112
v 2.794499 15.508119 2.841207
v -0.031403 15.508118 4.011708
v -2.857502 15.508119 2.841208
v -4.028001 12.050524 0.015111
v -2.857503 12.050523 -2.810695
v -0.031404 12.050524 -3.981288
v 2.794498 12.050523 -2.810695
v 3.964997 12.050522 0.015111
v 2.794498 12.050523 2.841206
v -0.031403 12.050522 4.011708
v -2.857502 12.050523 2.841207
v -4.028002 8.550631 0.015110
v -2.857504 8.550630 -2.810696
v -0.031404 8.550631 -3.981289
v 2.794497 8.550630 -2.810696
v 3.964997 8.550629 0.015110
v 2.794497 8.550630 2.841205
v -0.031404 8.550629 4.011707
v -2.857503 8.550630 2.841205
v -3.671003 7.949831 0.015110
v -2.605001 7.949831 -2.558293
v -0.031404 7.949831 -3.624294
v 2.541996 7.949831 -2.558293
v 3.607996 7.949830 0.015110
v 2.541997 7.949830 2.588810
v -0.031404 7.949831 3.654705
v -2.605001 7.949831 2.588810
v -4.028002 7.326723 0.015110
v -2.857504 7.326724 -2.810696
v -0.031404 7.326724 -3.981289
v 2.794497 7.326723 -2.810696
v 3.964997 7.326722 0.015110
v 2.794497 7.326722 2.841205
v -0.031404 7.326723 4.011707
v -2.857503 7.326723 2.841206
v -4.028003 0.699328 0.015109
v -2.857505 0.699328 -2.810697
v -0.031405 0.699328 -3.981290
v 2.794496 0.699327 -2.810697
v 3.964995 0.699327 0.015109
v 2.794496 0.699327 2.841204
v -0.031405 0.699326 4.011706
v -2.857504 0.699328 2.841205
v -3.386405 -0.009870 0.015109
v -2.403804 -0.009870 -2.356992
v -0.031405 -0.009870 -3.339696
v 2.340696 -0.009871 -2.356992
v 3.323396 -0.009871 0.015109
v 2.340696 -0.009871 2.387507
v -0.031405 -0.009872 3.370203
v -2.403804 -0.009870 2.387507
v -0.031401 24.111130 0.015113
vt 0.5034 0.4431
vt 0.4491 0.4894
vt 0.5034 0.4431
vt 0.4491 0.4894
vt 0.5586 0.4431
vt 0.5586 0.4894
vt 0.5586 0.4431
vt 0.5586 0.4894
vt 0.5034 0.4431
vt 0.4491 0.4894
vt 0.5034 0.4431
vt 0.4491 0.4894
vt 0.5586 0.4431
vt 0.5586 0.4894
vt 0.5586 0.4431
vt 0.5586 0.4894
vt 0.5505 0.3983
vt 0.4962 0.4362
vt 0.5505 0.3983
vt 0.4962 0.4362
vt 0.5586 0.3983
vt 0.5586 0.4362
vt 0.5586 0.3983
vt 0.5586 0.4362
vt 0.5505 0.3983
vt 0.4962 0.4362
vt 0.5505 0.3983
vt 0.4962 0.4362
vt 0.5586 0.3983
vt 0.5586 0.4362
vt 0.5586 0.3983
vt 0.5586 0.4362
vt 0.6495 0.9936
vt 0.7035 0.9790
vt 0.7035 0.9936
vt 0.6495 0.9790
vt 0.5955 0.9936
vt 0.5955 0.9790
vt 0.5415 0.9936
vt 0.5415 0.9790
vt 0.4875 0.9936
vt 0.4875 0.9790
vt 0.4335 0.9936
vt 0.4335 0.9790
vt 0.3794 0.9936
vt 0.3794 0.9790
vt 0.3254 0.9936
vt 0.3254 0.9790
vt 0.2714 0.9936
vt 0.2714 0.9790
vt 0.7035 0.8386
vt 0.6495 0.8386
vt 0.5955 0.8386
vt 0.5415 0.8386
vt 0.4875 0.8386
vt 0.4335 0.8386
vt 0.3794 0.8386
vt 0.3254 0.8386
vt 0.2714 0.8386
vt 0.7035 0.8235
vt 0.6495 0.8235
vt 0.5955 0.8235
vt 0.5415 0.8235
vt 0.4875 0.8235
vt 0.4335 0.8235
vt 0.3794 0.8235
vt 0.3254 0.8235
vt 0.2714 0.8235
vt 0.7035 0.8083
vt 0.6495 0.8083
vt 0.5955 0.8083
vt 0.5415 0.8083
vt 0.4875 0.8083
vt 0.4335 0.8083
vt 0.3794 0.8083
vt 0.3254 0.8083
vt 0.2714 0.8083
vt 0.7035 0.7454
vt 0.6495 0.7454
vt 0.5955 0.7454
vt 0.5415 0.7454
vt 0.4875 0.7454
vt 0.4335 0.7454
vt 0.3794 0.7454
vt 0.3254 0.7454
vt 0.2714 0.7454
vt 0.7035 0.6811
vt 0.6495 0.6811
vt 0.5955 0.6811
vt 0.5415 0.6811
vt 0.4875 0.6811
vt 0.4335 0.6811
vt 0.3794 0.6811
vt 0.3254 0.6811
vt 0.2714 0.6811
vt 0.7035 0.6654
vt 0.6495 0.6654
vt 0.5955 0.6654
vt 0.5415 0.6654
vt 0.4875 0.6654
vt 0.4335 0.6654
vt 0.3794 0.6654
vt 0.3254 0.6654
vt 0.2714 0.6654
vt 0.7035 0.6497
vt 0.6495 0.6497
vt 0.5955 0.6497
vt 0.5415 0.6497
vt 0.4875 0.6497
vt 0.4335 0.6497
vt 0.3794 0.6497
vt 0.3254 0.6497
vt 0.2714 0.6497
vt 0.7035 0.5281
vt 0.6495 0.5281
vt 0.5955 0.5281
vt 0.5415 0.5281
vt 0.4875 0.5281
vt 0.4335 0.5281
vt 0.3794 0.5281
vt 0.3254 0.5281
vt 0.2714 0.5281
vt 0.7035 0.5132
vt 0.6495 0.5132
vt 0.5955 0.5132
vt 0.5415 0.5132
vt 0.4875 0.5132
vt 0.4335 0.5132
vt 0.3794 0.5132
vt 0.3254 0.5132
vt 0.2714 0.5132
vt 0.7768 0.6733
vt 0.7333 0.7168
vt 0.7153 0.6733
vt 0.7768 0.7348
vt 0.8203 0.7168
vt 0.8383 0.6733
vt 0.8203 0.6298
vt 0.7768 0.6117
vt 0.7333 0.6298
vn 0.0000 -0.7606 0.6492
vn 0.0000 0.0000 -1.0000
vn 0.0000 -1.0000 -0.0000
vn -1.0000 0.0000 0.0000
vn 0.0000 1.0000 0.0000
vn 1.0000 -0.0000 -0.0000
vn 0.0000 0.7606 0.6492
vn 0.0000 0.7607 0.6492
vn 0.0000 0.8194 0.5732
vn 0.0000 -0.8194 0.5732
vn -0.5610 0.6088 -0.5610
vn -0.9540 0.2998 -0.0000
vn -0.7934 0.6087 -0.0000
vn -0.6746 0.2998 -0.6746
vn -0.0000 0.6090 -0.7932
vn -0.0000 0.2999 -0.9540
vn 0.5610 0.6088 -0.5610
vn 0.6746 0.2998 -0.6746
vn 0.7934 0.6087 -0.0000
vn 0.9540 0.2998 -0.0000
vn 0.5610 0.6088 0.5610
vn 0.6746 0.2998 0.6746
vn -0.0000 0.6087 0.7934
vn 0.0000 0.2998 0.9540
vn -0.5610 0.6087 0.5610
vn -0.6746 0.2998 0.6746
vn -0.9687 -0.2481 -0.0000
vn -0.6850 -0.2482 -0.6850
vn 0.0000 -0.2483 -0.9687
vn 0.6850 -0.2483 -0.6850
vn 0.9687 -0.2481 -0.0000
vn 0.6850 -0.2483 0.6850
vn 0.0000 -0.2481 0.9687
vn -0.6850 -0.2482 0.6850
vn -0.8616 -0.5076 0.0000
vn -0.6091 -0.5079 -0.6092
vn 0.0000 -0.5080 -0.8614
vn 0.6091 -0.5079 -0.6091
vn 0.8616 -0.5076 -0.0001
vn 0.6091 -0.5079 0.6092
vn 0.0001 -0.5076 0.8616
vn -0.6092 -0.5079 0.6091
vn -0.6006 0.5277 -0.6006
vn -0.9661 0.2581 -0.0000
vn -0.8496 0.5275 -0.0001
vn -0.6831 0.2582 -0.6831
vn 0.0000 0.5279 -0.8493
vn 0.0000 0.2583 -0.9661
vn 0.6005 0.5278 -0.6006
vn 0.6831 0.2583 -0.6831
vn 0.8496 0.5275 0.0000
vn 0.9661 0.2581 0.0000
vn 0.6006 0.5278 0.6006
vn 0.6831 0.2583 0.6831
vn -0.0000 0.5275 0.8496
vn -0.0000 0.2581 0.9661
vn -0.6006 0.5277 0.6006
vn -0.6831 0.2582 0.6831
vn -0.7071 0.0000 -0.7071
vn 0.7071 -0.0000 -0.7071
vn 0.7071 -0.0000 0.7071
vn 0.0000 -0.0000 1.0000
vn -0.7071 -0.0000 0.7071
vn -0.9683 -0.2497 -0.0000
vn -0.6847 -0.2497 -0.6847
vn 0.0000 -0.2497 -0.9683
vn 0.6847 -0.2497 -0.6847
vn 0.9683 -0.2497 -0.0000
vn 0.6847 -0.2497 0.6847
vn 0.0000 -0.2497 0.9683
vn -0.6847 -0.2497 0.6847
vn -0.8597 -0.5108 -0.0000
vn -0.6078 -0.5109 -0.6079
vn 0.0000 -0.5108 -0.8597
vn 0.6079 -0.5108 -0.6079
vn 0.8597 -0.5108 -0.0000
vn 0.6079 -0.5108 0.6079
vn 0.0000 -0.5108 0.8597
vn -0.6079 -0.5108 0.6079
vn -0.6135 0.4971 -0.6136
vn -0.9701 0.2429 -0.0000
vn -0.8677 0.4971 -0.0000
vn -0.6859 0.2429 -0.6859
vn 0.0000 0.4971 -0.8677
vn 0.0000 0.2429 -0.9701
vn 0.6135 0.4971 -0.6136
vn 0.6859 0.2429 -0.6859
vn 0.8677 0.4971 -0.0000
vn 0.9701 0.2429 -0.0000
vn 0.6135 0.4971 0.6136
vn 0.6859 0.2429 0.6859
vn 0.0000 0.4971 0.8677
vn 0.0000 0.2429 0.9701
vn -0.6135 0.4971 0.6136
vn -0.6859 0.2429 0.6859
vn -0.9429 -0.3330 -0.0000
vn -0.6667 -0.3330 -0.6667
vn 0.0000 -0.3330 -0.9429
vn 0.6667 -0.3331 -0.6667
vn 0.9429 -0.3330 -0.0000
vn 0.6667 -0.3331 0.6667
vn 0.0000 -0.3330 0.9429
vn -0.6667 -0.3330 0.6667
vn -0.7416 -0.6709 -0.0000
vn -0.5243 -0.6709 -0.5244
vn 0.0000 -0.6709 -0.7416
vn 0.5243 -0.6709 -0.5243
vn 0.7416 -0.6709 -0.0000
vn 0.5243 -0.6709 0.5244
vn 0.0000 -0.6708 0.7416
vn -0.5244 -0.6709 0.5243
usemtl happa5
s 1
f 4/1/1 5/2/1 6/3/1
f 7/4/1 5/2/1 4/1/1
f 8/5/2 9/6/2 10/7/2
f 11/8/2 9/6/2 8/5/2
f 8/5/3 4/1/3 6/3/3
f 10/7/3 4/1/3 8/5/3
f 11/8/4 6/3/4 5/2/4
f 8/5/4 6/3/4 11/8/4
f 9/6/5 5/2/5 7/4/5
f 11/8/5 5/2/5 9/6/5
f 10/7/6 7/4/6 4/1/6
f 9/6/6 7/4/6 10/7/6
f 12/9/7 13/10/8 14/11/7
f 15/12/8 13/10/8 12/9/7
f 16/13/2 17/14/2 18/15/2
f 19/16/2 17/14/2 16/13/2
f 16/13/5 12/9/5 14/11/5
f 18/15/5 12/9/5 16/13/5
f 19/16/6 14/11/6 13/10/6
f 16/13/6 14/11/6 19/16/6
f 17/14/3 13/10/3 15/12/3
f 19/16/3 13/10/3 17/14/3
f 18/15/4 15/12/4 12/9/4
f 17/14/4 15/12/4 18/15/4
f 20/17/9 21/18/9 22/19/9
f 23/20/9 21/18/9 20/17/9
f 24/21/2 25/22/2 26/23/2
f 27/24/2 25/22/2 24/21/2
f 24/21/5 20/17/5 22/19/5
f 26/23/5 20/17/5 24/21/5
f 27/24/6 22/19/6 21/18/6
f 24/21/6 22/19/6 27/24/6
f 25/22/3 21/18/3 23/20/3
f 27/24/3 21/18/3 25/22/3
f 26/23/4 23/20/4 20/17/4
f 25/22/4 23/20/4 26/23/4
f 28/25/10 29/26/10 30/27/10
f 31/28/10 29/26/10 28/25/10
f 32/29/2 33/30/2 34/31/2
f 35/32/2 33/30/2 32/29/2
f 32/29/3 28/25/3 30/27/3
f 34/31/3 28/25/3 32/29/3
f 35/32/4 30/27/4 29/26/4
f 32/29/4 30/27/4 35/32/4
f 33/30/5 29/26/5 31/28/5
f 35/32/5 29/26/5 33/30/5
f 34/31/6 31/28/6 28/25/6
f 33/30/6 31/28/6 34/31/6
f 36/33/11 37/34/12 38/35/13
f 39/36/14 37/34/12 36/33/11
f 40/37/15 39/36/14 36/33/11
f 41/38/16 39/36/14 40/37/15
f 42/39/17 41/38/16 40/37/15
f 43/40/18 41/38/16 42/39/17
f 44/41/19 43/40/18 42/39/17
f 45/42/20 43/40/18 44/41/19
f 46/43/21 45/42/20 44/41/19
f 47/44/22 45/42/20 46/43/21
f 48/45/23 47/44/22 46/43/21
f 49/46/24 47/44/22 48/45/23
f 50/47/25 49/46/24 48/45/23
f 51/48/26 49/46/24 50/47/25
f 38/49/13 51/48/26 50/47/25
f 37/50/12 51/48/26 38/49/13
f 39/36/14 52/51/27 37/34/12
f 53/52/28 52/51/27 39/36/14
f 41/38/16 53/52/28 39/36/14
f 54/53/29 53/52/28 41/38/16
f 43/40/18 54/53/29 41/38/16
f 55/54/30 54/53/29 43/40/18
f 45/42/20 55/54/30 43/40/18
f 56/55/31 55/54/30 45/42/20
f 47/44/22 56/55/31 45/42/20
f 57/56/32 56/55/31 47/44/22
f 49/46/24 57/56/32 47/44/22
f 58/57/33 57/56/32 49/46/24
f 51/48/26 58/57/33 49/46/24
f 59/58/34 58/57/33 51/48/26
f 37/50/12 59/58/34 51/48/26
f 52/59/27 59/58/34 37/50/12
f 53/52/28 60/60/35 52/51/27
f 61/61/36 60/60/35 53/52/28
f 54/53/29 61/61/36 53/52/28
f 62/62/37 61/61/36 54/53/29
f 55/54/30 62/62/37 54/53/29
f 63/63/38 62/62/37 55/54/30
f 56/55/31 63/63/38 55/54/30
f 64/64/39 63/63/38 56/55/31
f 57/56/32 64/64/39 56/55/31
f 65/65/40 64/64/39 57/56/32
f 58/57/33 65/65/40 57/56/32
f 66/66/41 65/65/40 58/57/33
f 59/58/34 66/66/41 58/57/33
f 67/67/42 66/66/41 59/58/34
f 52/59/27 67/67/42 59/58/34
f 60/68/35 67/67/42 52/59/27
f 61/61/43 68/69/44 60/60/45
f 69/70/46 68/69/44 61/61/43
f 62/62/47 69/70/46 61/61/43
f 70/71/48 69/70/46 62/62/47
f 63/63/49 70/71/48 62/62/47
f 71/72/50 70/71/48 63/63/49
f 64/64/51 71/72/50 63/63/49
f 72/73/52 71/72/50 64/64/51
f 65/65/53 72/73/52 64/64/51
f 73/74/54 72/73/52 65/65/53
f 66/66/55 73/74/54 65/65/53
f 74/75/56 73/74/54 66/66/55
f 67/67/57 74/75/56 66/66/55
f 75/76/58 74/75/56 67/67/57
f 60/68/45 75/76/58 67/67/57
f 68/77/44 75/76/58 60/68/45
f 69/70/46 76/78/4 68/69/44
f 77/79/59 76/78/4 69/70/46
f 70/71/48 77/79/59 69/70/46
f 78/80/2 77/79/59 70/71/48
f 71/72/50 78/80/2 70/71/48
f 79/81/60 78/80/2 71/72/50
f 72/73/52 79/81/60 71/72/50
f 80/82/6 79/81/60 72/73/52
f 73/74/54 80/82/6 72/73/52
f 81/83/61 80/82/6 73/74/54
f 74/75/56 81/83/61 73/74/54
f 82/84/62 81/83/61 74/75/56
f 75/76/58 82/84/62 74/75/56
f 83/85/63 82/84/62 75/76/58
f 68/77/44 83/85/63 75/76/58
f 76/86/4 83/85/63 68/77/44
f 77/79/59 84/87/64 76/78/4
f 85/88/65 84/87/64 77/79/59
f 78/80/2 85/88/65 77/79/59
f 86/89/66 85/88/65 78/80/2
f 79/81/60 86/89/66 78/80/2
f 87/90/67 86/89/66 79/81/60
f 80/82/6 87/90/67 79/81/60
f 88/91/68 87/90/67 80/82/6
f 81/83/61 88/91/68 80/82/6
f 89/92/69 88/91/68 81/83/61
f 82/84/62 89/92/69 81/83/61
f 90/93/70 89/92/69 82/84/62
f 83/85/63 90/93/70 82/84/62
f 91/94/71 90/93/70 83/85/63
f 76/86/4 91/94/71 83/85/63
f 84/95/64 91/94/71 76/86/4
f 85/88/65 92/96/72 84/87/64
f 93/97/73 92/96/72 85/88/65
f 86/89/66 93/97/73 85/88/65
f 94/98/74 93/97/73 86/89/66
f 87/90/67 94/98/74 86/89/66
f 95/99/75 94/98/74 87/90/67
f 88/91/68 95/99/75 87/90/67
f 96/100/76 95/99/75 88/91/68
f 89/92/69 96/100/76 88/91/68
f 97/101/77 96/100/76 89/92/69
f 90/93/70 97/101/77 89/92/69
f 98/102/78 97/101/77 90/93/70
f 91/94/71 98/102/78 90/93/70
f 99/103/79 98/102/78 91/94/71
f 84/95/64 99/103/79 91/94/71
f 92/104/72 99/103/79 84/95/64
f 93/97/80 100/105/81 92/96/82
f 101/106/83 100/105/81 93/97/80
f 94/98/84 101/106/83 93/97/80
f 102/107/85 101/106/83 94/98/84
f 95/99/86 102/107/85 94/98/84
f 103/108/87 102/107/85 95/99/86
f 96/100/88 103/108/87 95/99/86
f 104/109/89 103/108/87 96/100/88
f 97/101/90 104/109/89 96/100/88
f 105/110/91 104/109/89 97/101/90
f 98/102/92 105/110/91 97/101/90
f 106/111/93 105/110/91 98/102/92
f 99/103/94 106/111/93 98/102/92
f 107/112/95 106/111/93 99/103/94
f 92/104/82 107/112/95 99/103/94
f 100/113/81 107/112/95 92/104/82
f 101/106/83 108/114/96 100/105/81
f 109/115/97 108/114/96 101/106/83
f 102/107/85 109/115/97 101/106/83
f 110/116/98 109/115/97 102/107/85
f 103/108/87 110/116/98 102/107/85
f 111/117/99 110/116/98 103/108/87
f 104/109/89 111/117/99 103/108/87
f 112/118/100 111/117/99 104/109/89
f 105/110/91 112/118/100 104/109/89
f 113/119/101 112/118/100 105/110/91
f 106/111/93 113/119/101 105/110/91
f 114/120/102 113/119/101 106/111/93
f 107/112/95 114/120/102 106/111/93
f 115/121/103 114/120/102 107/112/95
f 100/113/81 115/121/103 107/112/95
f 108/122/96 115/121/103 100/113/81
f 109/115/97 116/123/104 108/114/96
f 117/124/105 116/123/104 109/115/97
f 110/116/98 117/124/105 109/115/97
f 118/125/106 117/124/105 110/116/98
f 111/117/99 118/125/106 110/116/98
f 119/126/107 118/125/106 111/117/99
f 112/118/100 119/126/107 111/117/99
f 120/127/108 119/126/107 112/118/100
f 113/119/101 120/127/108 112/118/100
f 121/128/109 120/127/108 113/119/101
f 114/120/102 121/128/109 113/119/101
f 122/129/110 121/128/109 114/120/102
f 115/121/103 122/129/110 114/120/102
f 123/130/111 122/129/110 115/121/103
f 108/122/96 123/130/111 115/121/103
f 116/131/104 123/130/111 108/122/96
f 124/132/5 50/133/5 48/134/5
f 38/135/5 50/133/5 124/132/5
f 36/136/5 38/135/5 124/132/5
f 124/132/5 40/137/5 36/136/5
f 42/138/5 40/137/5 124/132/5
f 44/139/5 42/138/5 124/132/5
f 124/132/5 46/140/5 44/139/5
f 48/134/5 46/140/5 124/132/5
