# Blender v2.78 (sub 0) OBJ File: ''
# www.blender.org
mtllib GreenHillFallingPlatform.mtl
v 50.988289 -0.179746 51.349174
v 63.467422 -30.109468 40.754482
v 63.467422 -0.179744 40.754486
v 50.988289 -24.209480 51.349167
v -51.108208 -24.209480 51.349167
v -51.108208 -36.690281 40.754475
v -63.586830 -30.109468 40.754482
v 50.988289 -36.690266 -41.246010
v 50.988289 -24.209465 -51.840515
v 63.467422 -30.109455 -41.246006
v -51.108208 -24.209465 -51.840515
v -51.108208 -36.690266 -41.246010
v -63.586830 -30.109455 -41.246006
v 63.467422 -0.179730 -41.245995
v 50.988289 -0.179729 -51.840511
v -51.108208 -0.179729 -51.840511
v -63.586830 -0.179730 -41.245995
v -63.586830 -0.179744 40.754486
v -51.108208 -0.179746 51.349174
v 50.988289 -36.690281 40.754475
vt 1.7186 1.7757
vt 2.0368 0.5809
vt 2.0368 1.7757
vt 1.7186 0.8166
vt -0.8844 0.8166
vt -0.8844 0.3184
vt -1.2026 0.5809
vt 2.1863 0.5809
vt 2.1863 0.9970
vt 2.6024 0.8004
vt -1.2174 0.9970
vt -1.2174 0.5809
vt -1.6335 0.8004
vt 1.9227 1.7730
vt 2.3385 0.8297
vt 2.3385 1.7730
vt 1.9227 0.5982
vt -1.2961 0.5982
vt -0.7900 0.7483
vt -1.1601 1.7936
vt -1.1601 0.9542
vt -0.7900 1.7936
vt 2.0741 1.7936
vt -1.2026 1.7757
vt -0.8844 1.7757
vt 1.7186 0.3184
vt 1.5757 0.7255
vt -0.5149 0.4073
vt 1.5757 0.4073
vt -0.5149 0.7255
vt 1.5299 0.7787
vt -0.5607 0.4605
vt 1.5299 0.4605
vt -0.5607 0.7787
vt -1.2174 1.7982
vt 2.1863 1.7982
vt -1.2961 1.7730
vt 2.0741 0.7483
vt 1.8986 1.5100
vt -0.8443 -0.6931
vt -0.8443 1.5100
vt 1.8986 -0.6931
vt -0.9645 -0.2635
vt -1.3224 2.3928
vt -1.3224 0.0404
vt 1.9645 -0.2635
vt 2.3224 0.0404
vt 2.3224 2.3928
vt 1.9645 2.6967
vt -0.9645 2.6967
vn 0.3447 -0.0000 0.9387
vn 0.7906 -0.4701 0.3924
vn 0.9075 -0.0000 0.4200
vn 0.2859 -0.2906 0.9132
vn -0.2859 -0.2906 0.9132
vn -0.2858 -0.8007 0.5266
vn -0.7906 -0.4701 0.3924
vn 0.2858 -0.8007 -0.5266
vn 0.2859 -0.2906 -0.9132
vn 0.7906 -0.4701 -0.3924
vn -0.2859 -0.2906 -0.9132
vn -0.2858 -0.8007 -0.5266
vn -0.7906 -0.4701 -0.3924
vn 0.9075 0.0000 -0.4200
vn 0.3447 0.0000 -0.9387
vn -0.3447 0.0000 -0.9387
vn -0.9075 0.0000 -0.4200
vn -0.9075 -0.0000 0.4200
vn -0.3447 -0.0000 0.9387
vn 0.2858 -0.8007 0.5266
vn 0.0000 -1.0000 -0.0000
vn -0.0000 1.0000 0.0000
usemtl kabe02
s 1
f 1/1/1 2/2/2 3/3/3
f 4/4/4 2/2/2 1/1/1
f 5/5/5 4/4/4 1/1/1
f 6/6/6 4/4/4 5/5/5
f 7/7/7 6/6/6 5/5/5
f 8/8/8 9/9/9 10/10/10
f 11/11/11 9/9/9 8/8/8
f 12/12/12 11/11/11 8/8/8
f 13/13/13 11/11/11 12/12/12
f 14/14/14 9/15/9 15/16/15
f 10/17/10 9/15/9 14/14/14
f 2/18/2 10/17/10 14/14/14
f 13/19/13 16/20/16 11/21/11
f 17/22/17 16/20/16 13/19/13
f 18/23/18 17/22/17 13/19/13
f 5/5/5 18/24/18 7/7/7
f 19/25/19 18/24/18 5/5/5
f 1/1/1 19/25/19 5/5/5
f 4/4/4 20/26/20 2/2/2
f 6/6/6 20/26/20 4/4/4
f 20/27/20 10/28/10 2/29/2
f 8/30/8 10/28/10 20/27/20
f 7/31/7 12/32/12 6/33/6
f 13/34/13 12/32/12 7/31/7
f 9/9/9 16/35/16 15/36/15
f 11/11/11 16/35/16 9/9/9
f 3/37/3 2/18/2 14/14/14
f 13/19/13 7/38/7 18/23/18
f 8/39/21 6/40/21 12/41/21
f 20/42/21 6/40/21 8/39/21
usemtl jimenKusa02
f 19/43/22 17/44/22 18/45/22
f 1/46/22 17/44/22 19/43/22
f 3/47/22 17/44/22 1/46/22
f 14/48/22 17/44/22 3/47/22
f 15/49/22 17/44/22 14/48/22
f 16/50/22 17/44/22 15/49/22
