mtllib GreenHillTotem.mtl
v -4.369602 -0.134054 3.375673
v -2.780936 0.081013 3.375673
v -5.904801 -1.026052 3.375672
v -0.387868 13.564751 -4.456254
v 0.345866 13.564751 -4.456254
v 0.345866 13.564747 -2.363258
v 0.345866 12.292022 -2.363258
v -1.693468 16.074085 -1.662252
v -2.685333 15.684214 0.010081
v -2.386199 16.074085 0.010081
v -1.905001 15.684214 -1.87379
v -0.020935 16.074085 -2.354854
v -0.020935 15.684214 -2.654185
v 1.651467 16.074085 -1.662252
v 1.863 15.684214 -1.87379
v 2.344199 16.074085 0.010081
v 2.643332 15.684214 0.010081
v 1.651467 16.074085 1.682612
v 1.863 15.684214 1.894144
v -0.020934 16.074085 2.375411
v -0.020934 15.684214 2.674479
v -1.693468 16.074085 1.682612
v -1.905001 15.684214 1.894144
v -2.685333 11.182077 0.010078
v -1.905001 11.182077 -1.873792
v -0.020935 11.182077 -2.654187
v 1.862998 11.182077 -1.873792
v 2.643332 11.182077 0.010078
v 1.862999 11.182077 1.894142
v -0.020935 11.182077 2.674476
v -1.905001 11.182077 1.894142
v -2.430402 10.749349 0.010078
v -1.724601 10.749349 -1.693392
v -0.020935 10.749349 -2.398989
v 1.682532 10.749349 -1.693392
v 2.388398 10.749349 0.010078
v 1.682532 10.749349 1.713742
v -0.020935 10.749349 2.419542
v -1.724602 10.749349 1.713742
v -2.685334 10.338746 0.010078
v -1.905001 10.338745 -1.873792
v -0.020935 10.338746 -2.654187
v 1.862998 10.338745 -1.873792
v 2.643332 10.338744 0.010078
v 1.862999 10.338745 1.894141
v -0.020935 10.338744 2.674475
v -1.905001 10.338745 1.894142
v -2.685334 8.033682 0.010077
v -1.905002 8.033681 -1.873794
v -0.020936 8.033683 -2.654189
v 1.862998 8.033681 -1.873794
v 2.643331 8.033681 0.010077
v 1.862998 8.033681 1.89414
v -0.020935 8.03368 2.674474
v -1.905001 8.033681 1.89414
v -2.685334 5.70042 0.010075
v -1.905002 5.70042 -1.873795
v -0.020936 5.700422 -2.65419
v 1.862998 5.70042 -1.873795
v 2.643331 5.700419 0.010075
v 1.862998 5.700419 1.894138
v -0.020936 5.700418 2.674473
v -1.905002 5.700419 1.894138
v -2.447335 5.299887 0.010075
v -1.736667 5.299888 -1.705527
v -0.020936 5.299888 -2.416194
v 1.694664 5.299888 -1.705527
v 2.40533 5.299886 0.010075
v 1.694664 5.299886 1.725875
v -0.020936 5.299887 2.436471
v -1.736667 5.299887 1.725875
v -2.685334 4.884482 0.010075
v -1.905002 4.884483 -1.873796
v -0.020936 4.884483 -2.654191
v 1.862998 4.884483 -1.873796
v 2.643331 4.884481 0.010075
v 1.862998 4.88448 1.894138
v -0.020936 4.884481 2.674472
v -1.905002 4.884481 1.894139
v -2.685335 0.466219 0.010073
v -1.905003 0.466219 -1.873798
v -0.020937 0.46622 -2.654193
v 1.862997 0.466218 -1.873798
v 2.64333 0.466218 0.010073
v 1.862997 0.466218 1.894136
v -0.020937 0.466216 2.67447
v -1.905002 0.466218 1.894137
v -2.257603 -0.00658 0.010073
v -1.602536 -0.00658 -1.571328
v -0.020937 -0.006579 -2.226464
v 1.560464 -0.00658 -1.571328
v 2.215597 -0.006581 0.010073
v 1.560464 -0.006581 1.591671
v -0.020937 -0.006582 2.246802
v -1.602536 -0.00658 1.591671
v -0.020934 16.074085 0.010081
vt 0.6495 0.9936
vt 0.7035 0.979
vt 0.7035 0.9936
vt 0.6495 0.979
vt 0.5955 0.9936
vt 0.5955 0.979
vt 0.5415 0.9936
vt 0.5415 0.979
vt 0.4875 0.9936
vt 0.4875 0.979
vt 0.4335 0.9936
vt 0.4335 0.979
vt 0.3794 0.9936
vt 0.3794 0.979
vt 0.3254 0.9936
vt 0.3254 0.979
vt 0.2714 0.9936
vt 0.2714 0.979
vt 0.7035 0.8386
vt 0.6495 0.8386
vt 0.5955 0.8386
vt 0.5415 0.8386
vt 0.4875 0.8386
vt 0.4335 0.8386
vt 0.3794 0.8386
vt 0.3254 0.8386
vt 0.2714 0.8386
vt 0.7035 0.8235
vt 0.6495 0.8235
vt 0.5955 0.8235
vt 0.5415 0.8235
vt 0.4875 0.8235
vt 0.4335 0.8235
vt 0.3794 0.8235
vt 0.3254 0.8235
vt 0.2714 0.8235
vt 0.7035 0.8083
vt 0.6495 0.8083
vt 0.5955 0.8083
vt 0.5415 0.8083
vt 0.4875 0.8083
vt 0.4335 0.8083
vt 0.3794 0.8083
vt 0.3254 0.8083
vt 0.2714 0.8083
vt 0.7035 0.7454
vt 0.6495 0.7454
vt 0.5955 0.7454
vt 0.5415 0.7454
vt 0.4875 0.7454
vt 0.4335 0.7454
vt 0.3794 0.7454
vt 0.3254 0.7454
vt 0.2714 0.7454
vt 0.7035 0.6811
vt 0.6495 0.6811
vt 0.5955 0.6811
vt 0.5415 0.6811
vt 0.4875 0.6811
vt 0.4335 0.6811
vt 0.3794 0.6811
vt 0.3254 0.6811
vt 0.2714 0.6811
vt 0.7035 0.6654
vt 0.6495 0.6654
vt 0.5955 0.6654
vt 0.5415 0.6654
vt 0.4875 0.6654
vt 0.4335 0.6654
vt 0.3794 0.6654
vt 0.3254 0.6654
vt 0.2714 0.6654
vt 0.7035 0.6497
vt 0.6495 0.6497
vt 0.5955 0.6497
vt 0.5415 0.6497
vt 0.4875 0.6497
vt 0.4335 0.6497
vt 0.3794 0.6497
vt 0.3254 0.6497
vt 0.2714 0.6497
vt 0.7035 0.5281
vt 0.6495 0.5281
vt 0.5955 0.5281
vt 0.5415 0.5281
vt 0.4875 0.5281
vt 0.4335 0.5281
vt 0.3794 0.5281
vt 0.3254 0.5281
vt 0.2714 0.5281
vt 0.7035 0.5132
vt 0.6495 0.5132
vt 0.5955 0.5132
vt 0.5415 0.5132
vt 0.4875 0.5132
vt 0.4335 0.5132
vt 0.3794 0.5132
vt 0.3254 0.5132
vt 0.2714 0.5132
vt 0.7768 0.6733
vt 0.7333 0.7168
vt 0.7153 0.6733
vt 0.7768 0.7348
vt 0.8203 0.7168
vt 0.8383 0.6733
vt 0.8203 0.6298
vt 0.7768 0.6117
vt 0.7333 0.6298
vn -0.5610 0.6088 -0.5610
vn -0.9540 0.2998 -0.0000
vn -0.7934 0.6087 -0.0000
vn -0.6746 0.2998 -0.6746
vn -0.0000 0.6090 -0.7932
vn -0.0000 0.2999 -0.9540
vn 0.5610 0.6088 -0.5610
vn 0.6746 0.2998 -0.6746
vn 0.7934 0.6087 -0.0000
vn 0.9540 0.2998 -0.0000
vn 0.5610 0.6088 0.5610
vn 0.6746 0.2998 0.6746
vn -0.0000 0.6087 0.7934
vn 0.0000 0.2998 0.9540
vn -0.5610 0.6087 0.5610
vn -0.6746 0.2998 0.6746
vn -0.9687 -0.2481 -0.0000
vn -0.6850 -0.2482 -0.6850
vn 0.0000 -0.2483 -0.9687
vn 0.6850 -0.2483 -0.6850
vn 0.9687 -0.2481 -0.0000
vn 0.6850 -0.2483 0.6850
vn 0.0000 -0.2481 0.9687
vn -0.6850 -0.2482 0.6850
vn -0.8616 -0.5076 0.0000
vn -0.6091 -0.5079 -0.6092
vn 0.0000 -0.5080 -0.8614
vn 0.6091 -0.5079 -0.6091
vn 0.8616 -0.5076 -0.0001
vn 0.6091 -0.5079 0.6092
vn 0.0001 -0.5076 0.8616
vn -0.6092 -0.5079 0.6091
vn -0.6006 0.5277 -0.6006
vn -0.9661 0.2581 -0.0000
vn -0.8496 0.5275 -0.0001
vn -0.6831 0.2582 -0.6831
vn 0.0000 0.5279 -0.8493
vn 0.0000 0.2583 -0.9661
vn 0.6005 0.5278 -0.6006
vn 0.6831 0.2583 -0.6831
vn 0.8496 0.5275 0.0000
vn 0.9661 0.2581 0.0000
vn 0.6006 0.5278 0.6006
vn 0.6831 0.2583 0.6831
vn -0.0000 0.5275 0.8496
vn -0.0000 0.2581 0.9661
vn -0.6006 0.5277 0.6006
vn -0.6831 0.2582 0.6831
vn -1.0000 0.0000 -0.0000
vn -0.7071 0.0000 -0.7071
vn 0.0000 0.0000 -1.0000
vn 0.7071 0.0000 -0.7071
vn 1.0000 -0.0000 -0.0000
vn 0.7071 -0.0000 0.7071
vn 0.0000 -0.0000 1.0000
vn -0.7071 -0.0000 0.7071
vn -0.9683 -0.2497 -0.0000
vn -0.6847 -0.2497 -0.6847
vn 0.0000 -0.2497 -0.9683
vn 0.6847 -0.2497 -0.6847
vn 0.9683 -0.2497 -0.0000
vn 0.6847 -0.2497 0.6847
vn 0.0000 -0.2497 0.9683
vn -0.6847 -0.2497 0.6847
vn -0.8597 -0.5108 -0.0000
vn -0.6078 -0.5109 -0.6079
vn 0.0000 -0.5108 -0.8597
vn 0.6079 -0.5108 -0.6079
vn 0.8597 -0.5108 -0.0000
vn 0.6079 -0.5108 0.6079
vn 0.0000 -0.5108 0.8597
vn -0.6079 -0.5108 0.6079
vn -0.6135 0.4971 -0.6136
vn -0.9701 0.2429 -0.0000
vn -0.8677 0.4971 -0.0000
vn -0.6859 0.2429 -0.6859
vn 0.0000 0.4971 -0.8677
vn 0.0000 0.2429 -0.9701
vn 0.6135 0.4971 -0.6136
vn 0.6859 0.2429 -0.6859
vn 0.8677 0.4971 -0.0000
vn 0.9701 0.2429 -0.0000
vn 0.6135 0.4971 0.6135
vn 0.6859 0.2429 0.6859
vn 0.0000 0.4971 0.8677
vn 0.0000 0.2429 0.9701
vn -0.6135 0.4971 0.6136
vn -0.6859 0.2429 0.6859
vn -0.9429 -0.3330 -0.0000
vn -0.6667 -0.3330 -0.6667
vn 0.0000 -0.3330 -0.9429
vn 0.6667 -0.3331 -0.6667
vn 0.9429 -0.3330 -0.0000
vn 0.6667 -0.3331 0.6667
vn 0.0000 -0.3330 0.9429
vn -0.6667 -0.3330 0.6667
vn -0.7416 -0.6709 -0.0000
vn -0.5243 -0.6709 -0.5244
vn 0.0000 -0.6709 -0.7416
vn 0.5243 -0.6709 -0.5243
vn 0.7416 -0.6709 -0.0000
vn 0.5243 -0.6709 0.5244
vn 0.0000 -0.6708 0.7416
vn -0.5244 -0.6709 0.5243
vn 0.0000 1.0000 0.0000
usemtl happa5
f 8/1/1 9/2/2 10/3/3
f 11/4/4 9/2/2 8/1/1
f 12/5/5 11/4/4 8/1/1
f 13/6/6 11/4/4 12/5/5
f 14/7/7 13/6/6 12/5/5
f 15/8/8 13/6/6 14/7/7
f 16/9/9 15/8/8 14/7/7
f 17/10/10 15/8/8 16/9/9
f 18/11/11 17/10/10 16/9/9
f 19/12/12 17/10/10 18/11/11
f 20/13/13 19/12/12 18/11/11
f 21/14/14 19/12/12 20/13/13
f 22/15/15 21/14/14 20/13/13
f 23/16/16 21/14/14 22/15/15
f 10/17/3 23/16/16 22/15/15
f 9/18/2 23/16/16 10/17/3
f 11/4/4 24/19/17 9/2/2
f 25/20/18 24/19/17 11/4/4
f 13/6/6 25/20/18 11/4/4
f 26/21/19 25/20/18 13/6/6
f 15/8/8 26/21/19 13/6/6
f 27/22/20 26/21/19 15/8/8
f 17/10/10 27/22/20 15/8/8
f 28/23/21 27/22/20 17/10/10
f 19/12/12 28/23/21 17/10/10
f 29/24/22 28/23/21 19/12/12
f 21/14/14 29/24/22 19/12/12
f 30/25/23 29/24/22 21/14/14
f 23/16/16 30/25/23 21/14/14
f 31/26/24 30/25/23 23/16/16
f 9/18/2 31/26/24 23/16/16
f 24/27/17 31/26/24 9/18/2
f 25/20/18 32/28/25 24/19/17
f 33/29/26 32/28/25 25/20/18
f 26/21/19 33/29/26 25/20/18
f 34/30/27 33/29/26 26/21/19
f 27/22/20 34/30/27 26/21/19
f 35/31/28 34/30/27 27/22/20
f 28/23/21 35/31/28 27/22/20
f 36/32/29 35/31/28 28/23/21
f 29/24/22 36/32/29 28/23/21
f 37/33/30 36/32/29 29/24/22
f 30/25/23 37/33/30 29/24/22
f 38/34/31 37/33/30 30/25/23
f 31/26/24 38/34/31 30/25/23
f 39/35/32 38/34/31 31/26/24
f 24/27/17 39/35/32 31/26/24
f 32/36/25 39/35/32 24/27/17
f 33/29/33 40/37/34 32/28/35
f 41/38/36 40/37/34 33/29/33
f 34/30/37 41/38/36 33/29/33
f 42/39/38 41/38/36 34/30/37
f 35/31/39 42/39/38 34/30/37
f 43/40/40 42/39/38 35/31/39
f 36/32/41 43/40/40 35/31/39
f 44/41/42 43/40/40 36/32/41
f 37/33/43 44/41/42 36/32/41
f 45/42/44 44/41/42 37/33/43
f 38/34/45 45/42/44 37/33/43
f 46/43/46 45/42/44 38/34/45
f 39/35/47 46/43/46 38/34/45
f 47/44/48 46/43/46 39/35/47
f 32/36/35 47/44/48 39/35/47
f 40/45/34 47/44/48 32/36/35
f 41/38/36 48/46/49 40/37/34
f 49/47/50 48/46/49 41/38/36
f 42/39/38 49/47/50 41/38/36
f 50/48/51 49/47/50 42/39/38
f 43/40/40 50/48/51 42/39/38
f 51/49/52 50/48/51 43/40/40
f 44/41/42 51/49/52 43/40/40
f 52/50/53 51/49/52 44/41/42
f 45/42/44 52/50/53 44/41/42
f 53/51/54 52/50/53 45/42/44
f 46/43/46 53/51/54 45/42/44
f 54/52/55 53/51/54 46/43/46
f 47/44/48 54/52/55 46/43/46
f 55/53/56 54/52/55 47/44/48
f 40/45/34 55/53/56 47/44/48
f 48/54/49 55/53/56 40/45/34
f 49/47/50 56/55/57 48/46/49
f 57/56/58 56/55/57 49/47/50
f 50/48/51 57/56/58 49/47/50
f 58/57/59 57/56/58 50/48/51
f 51/49/52 58/57/59 50/48/51
f 59/58/60 58/57/59 51/49/52
f 52/50/53 59/58/60 51/49/52
f 60/59/61 59/58/60 52/50/53
f 53/51/54 60/59/61 52/50/53
f 61/60/62 60/59/61 53/51/54
f 54/52/55 61/60/62 53/51/54
f 62/61/63 61/60/62 54/52/55
f 55/53/56 62/61/63 54/52/55
f 63/62/64 62/61/63 55/53/56
f 48/54/49 63/62/64 55/53/56
f 56/63/57 63/62/64 48/54/49
f 57/56/58 64/64/65 56/55/57
f 65/65/66 64/64/65 57/56/58
f 58/57/59 65/65/66 57/56/58
f 66/66/67 65/65/66 58/57/59
f 59/58/60 66/66/67 58/57/59
f 67/67/68 66/66/67 59/58/60
f 60/59/61 67/67/68 59/58/60
f 68/68/69 67/67/68 60/59/61
f 61/60/62 68/68/69 60/59/61
f 69/69/70 68/68/69 61/60/62
f 62/61/63 69/69/70 61/60/62
f 70/70/71 69/69/70 62/61/63
f 63/62/64 70/70/71 62/61/63
f 71/71/72 70/70/71 63/62/64
f 56/63/57 71/71/72 63/62/64
f 64/72/65 71/71/72 56/63/57
f 65/65/73 72/73/74 64/64/75
f 73/74/76 72/73/74 65/65/73
f 66/66/77 73/74/76 65/65/73
f 74/75/78 73/74/76 66/66/77
f 67/67/79 74/75/78 66/66/77
f 75/76/80 74/75/78 67/67/79
f 68/68/81 75/76/80 67/67/79
f 76/77/82 75/76/80 68/68/81
f 69/69/83 76/77/82 68/68/81
f 77/78/84 76/77/82 69/69/83
f 70/70/85 77/78/84 69/69/83
f 78/79/86 77/78/84 70/70/85
f 71/71/87 78/79/86 70/70/85
f 79/80/88 78/79/86 71/71/87
f 64/72/75 79/80/88 71/71/87
f 72/81/74 79/80/88 64/72/75
f 73/74/76 80/82/89 72/73/74
f 81/83/90 80/82/89 73/74/76
f 74/75/78 81/83/90 73/74/76
f 82/84/91 81/83/90 74/75/78
f 75/76/80 82/84/91 74/75/78
f 83/85/92 82/84/91 75/76/80
f 76/77/82 83/85/92 75/76/80
f 84/86/93 83/85/92 76/77/82
f 77/78/84 84/86/93 76/77/82
f 85/87/94 84/86/93 77/78/84
f 78/79/86 85/87/94 77/78/84
f 86/88/95 85/87/94 78/79/86
f 79/80/88 86/88/95 78/79/86
f 87/89/96 86/88/95 79/80/88
f 72/81/74 87/89/96 79/80/88
f 80/90/89 87/89/96 72/81/74
f 81/83/90 88/91/97 80/82/89
f 89/92/98 88/91/97 81/83/90
f 82/84/91 89/92/98 81/83/90
f 90/93/99 89/92/98 82/84/91
f 83/85/92 90/93/99 82/84/91
f 91/94/100 90/93/99 83/85/92
f 84/86/93 91/94/100 83/85/92
f 92/95/101 91/94/100 84/86/93
f 85/87/94 92/95/101 84/86/93
f 93/96/102 92/95/101 85/87/94
f 86/88/95 93/96/102 85/87/94
f 94/97/103 93/96/102 86/88/95
f 87/89/96 94/97/103 86/88/95
f 95/98/104 94/97/103 87/89/96
f 80/90/89 95/98/104 87/89/96
f 88/99/97 95/98/104 80/90/89
f 96/100/105 22/101/105 20/102/105
f 10/103/105 22/101/105 96/100/105
f 8/104/105 10/103/105 96/100/105
f 96/100/105 12/105/105 8/104/105
f 14/106/105 12/105/105 96/100/105
f 16/107/105 14/106/105 96/100/105
f 96/100/105 18/108/105 16/107/105
f 20/102/105 18/108/105 96/100/105
