mtllib GreenHillGrass.mtl
v 0.528855 0.724521 -0.051329 0.611765 0.611765 0.611765
v 0.418522 0.872714 -0.012186 0.611765 0.611765 0.611765
v 0.000122 0.872714 0.406211 0.611765 0.611765 0.611765
v 0.039255 0.724521 -0.541116 0.611765 0.611765 0.611765
v 0.044989 0.609185 -0.621052 0.611765 0.611765 0.611765
v -0.608811 0.609185 0.032736 0.611765 0.611765 0.611765
v -0.484678 0.412916 -0.012185 0.611765 0.611765 0.611765
v 0.000122 0.412916 0.472413 0.611765 0.611765 0.611765
v 0.484656 0.412916 -0.012185 0.611765 0.611765 0.611765
v -0.045011 0.609185 0.596538 0.611765 0.611765 0.611765
v 0.608989 0.609185 -0.057331 0.611765 0.611765 0.611765
v -0.039078 0.724521 0.516541 0.611765 0.611765 0.611765
v -0.528877 0.724521 0.026938 0.611765 0.611765 0.611765
v -0.418344 0.872714 -0.012185 0.611765 0.611765 0.611765
v 0.000122 0.412916 -0.496785 0.611765 0.611765 0.611765
v 0.000122 0.872714 -0.430581 0.611765 0.611765 0.611765
v 0.831123 8.396314 -0.012183 1.000000 1.000000 1.000000
v 0.000123 8.396314 -1.645179 0.901961 0.901961 0.901961
v 0.000123 11.078319 -0.012182 0.901961 0.901961 0.901961
v 0.000123 8.396314 1.620691 0.749020 0.749020 0.749020
v 0.831123 8.396314 -0.012183 0.749020 0.749020 0.749020
v 0.000123 11.078319 -0.012182 0.749020 0.749020 0.749020
v 0.000123 8.396314 1.620691 0.749020 0.749020 0.749020
v -0.831144 8.396314 -0.012183 0.749020 0.749020 0.749020
v 0.000123 11.078319 -0.012182 0.749020 0.749020 0.749020
v 0.000123 8.396314 -1.645179 0.901961 0.901961 0.901961
v -0.831144 8.396314 -0.012183 1.000000 1.000000 1.000000
v 0.000123 11.078319 -0.012182 0.901961 0.901961 0.901961
v 0.000122 0.872714 0.406211 0.611765 0.611765 0.611765
v -0.418344 0.872714 -0.012185 0.611765 0.611765 0.611765
v 0.000123 8.396314 1.620691 0.658824 0.658824 0.658824
v -0.831144 8.396314 -0.012183 0.658824 0.658824 0.658824
v -0.831144 8.396314 -0.012183 1.000000 1.000000 1.000000
v 0.000123 8.396314 -1.645179 0.901961 0.901961 0.901961
v 0.000122 0.872714 -0.430581 0.611765 0.611765 0.611765
v -0.418344 0.872714 -0.012185 0.611765 0.611765 0.611765
v 0.000123 8.396314 -1.645179 0.901961 0.901961 0.901961
v 0.831123 8.396314 -0.012183 1.000000 1.000000 1.000000
v 0.000122 0.872714 -0.430581 0.611765 0.611765 0.611765
v 0.418522 0.872714 -0.012186 0.611765 0.611765 0.611765
v 0.831123 8.396314 -0.012183 0.658824 0.658824 0.658824
v 0.000123 8.396314 1.620691 0.658824 0.658824 0.658824
v 0.000122 0.872714 0.406211 0.611765 0.611765 0.611765
v 0.418522 0.872714 -0.012186 0.611765 0.611765 0.611765
v -0.528855 0.557675 -0.465364 0.611765 0.611765 0.611765
v -0.418522 0.637321 -0.596322 0.611765 0.611765 0.611765
v -0.000122 0.347223 -0.897816 0.611765 0.611765 0.611765
v -0.039255 0.897272 -0.112427 0.611765 0.611765 0.611765
v -0.044989 0.869586 0.025143 0.611765 0.611765 0.611765
v 0.608811 0.416277 -0.445972 0.611765 0.611765 0.611765
v 0.484678 0.305993 -0.277518 0.611765 0.611765 0.611765
v -0.000122 -0.030007 -0.626716 0.611765 0.611765 0.611765
v -0.484656 0.305993 -0.277518 0.611765 0.611765 0.611765
v 0.045012 0.025360 -0.852244 0.611765 0.611765 0.611765
v -0.608989 0.478726 -0.381070 0.611765 0.611765 0.611765
v 0.039078 0.163937 -0.874568 0.611765 0.611765 0.611765
v 0.528877 0.503407 -0.521763 0.611765 0.611765 0.611765
v 0.418344 0.637321 -0.596322 0.611765 0.611765 0.611765
v -0.000122 0.641994 0.071681 0.611765 0.611765 0.611765
v -0.000122 0.927419 -0.294829 0.611765 0.611765 0.611765
v -0.831121 6.058777 -5.812869 1.000000 1.000000 1.000000
v -0.000122 7.191028 -4.636142 0.901961 0.901961 0.901961
v -0.000121 7.991414 -7.672457 0.901961 0.901961 0.901961
v -0.000121 4.926612 -6.989506 0.749020 0.749020 0.749020
v -0.831121 6.058777 -5.812869 0.749020 0.749020 0.749020
v -0.000121 7.991414 -7.672457 0.749020 0.749020 0.749020
v -0.000121 4.926612 -6.989506 0.749020 0.749020 0.749020
v 0.831146 6.058777 -5.812869 0.749020 0.749020 0.749020
v -0.000121 7.991414 -7.672457 0.749020 0.749020 0.749020
v -0.000122 7.191028 -4.636142 0.901961 0.901961 0.901961
v 0.831146 6.058777 -5.812869 1.000000 1.000000 1.000000
v -0.000121 7.991414 -7.672457 0.901961 0.901961 0.901961
v -0.000122 0.347223 -0.897816 0.611765 0.611765 0.611765
v 0.418344 0.637321 -0.596322 0.611765 0.611765 0.611765
v -0.000121 4.926612 -6.989506 0.658824 0.658824 0.658824
v 0.831146 6.058777 -5.812869 0.658824 0.658824 0.658824
v 0.831146 6.058777 -5.812869 1.000000 1.000000 1.000000
v -0.000122 7.191028 -4.636142 0.901961 0.901961 0.901961
v -0.000122 0.927419 -0.294829 0.611765 0.611765 0.611765
v 0.418344 0.637321 -0.596322 0.611765 0.611765 0.611765
v -0.000122 7.191028 -4.636142 0.901961 0.901961 0.901961
v -0.831121 6.058777 -5.812869 1.000000 1.000000 1.000000
v -0.000122 0.927419 -0.294829 0.611765 0.611765 0.611765
v -0.418522 0.637321 -0.596322 0.611765 0.611765 0.611765
v -0.831121 6.058777 -5.812869 0.658824 0.658824 0.658824
v -0.000121 4.926612 -6.989506 0.658824 0.658824 0.658824
v -0.000122 0.347223 -0.897816 0.611765 0.611765 0.611765
v -0.418522 0.637321 -0.596322 0.611765 0.611765 0.611765
v -0.528855 0.690797 -0.224419 0.611765 0.611765 0.611765
v -0.418522 0.813457 -0.316333 0.611765 0.611765 0.611765
v -0.000122 0.656386 -0.704127 0.611765 0.611765 0.611765
v -0.039255 0.874669 0.229544 0.611765 0.611765 0.611765
v -0.044989 0.797778 0.346932 0.611765 0.611765 0.611765
v 0.608811 0.552338 -0.259037 0.611765 0.611765 0.611765
v 0.484678 0.387289 -0.143719 0.611765 0.611765 0.611765
v -0.000122 0.205365 -0.592874 0.611765 0.611765 0.611765
v -0.484656 0.387289 -0.143720 0.611765 0.611765 0.611765
v 0.045012 0.340680 -0.781601 0.611765 0.611765 0.611765
v -0.608989 0.586151 -0.175557 0.611765 0.611765 0.611765
v 0.039078 0.477612 -0.750754 0.611765 0.611765 0.611765
v 0.528877 0.661415 -0.296961 0.611765 0.611765 0.611765
v 0.418344 0.813456 -0.316333 0.611765 0.611765 0.611765
v -0.000122 0.569213 0.305435 0.611765 0.611765 0.611765
v -0.000122 0.970527 0.071460 0.611765 0.611765 0.611765
v -0.831122 7.786765 -3.140785 1.000000 1.000000 1.000000
v -0.000123 8.399811 -1.627230 0.901961 0.901961 0.901961
v -0.000122 10.272603 -4.147643 0.901961 0.901961 0.901961
v -0.000122 7.173765 -4.654227 0.749020 0.749020 0.749020
v -0.831122 7.786765 -3.140785 0.749020 0.749020 0.749020
v -0.000122 10.272603 -4.147643 0.749020 0.749020 0.749020
v -0.000122 7.173765 -4.654227 0.749020 0.749020 0.749020
v 0.831145 7.786765 -3.140785 0.749020 0.749020 0.749020
v -0.000122 10.272603 -4.147643 0.749020 0.749020 0.749020
v -0.000123 8.399811 -1.627230 0.901961 0.901961 0.901961
v 0.831145 7.786765 -3.140785 1.000000 1.000000 1.000000
v -0.000122 10.272603 -4.147643 0.901961 0.901961 0.901961
v -0.000122 0.656386 -0.704127 0.611765 0.611765 0.611765
v 0.418344 0.813456 -0.316333 0.611765 0.611765 0.611765
v -0.000122 7.173765 -4.654227 0.658824 0.658824 0.658824
v 0.831145 7.786765 -3.140785 0.658824 0.658824 0.658824
v 0.831145 7.786765 -3.140785 1.000000 1.000000 1.000000
v -0.000123 8.399811 -1.627230 0.901961 0.901961 0.901961
v -0.000122 0.970527 0.071460 0.611765 0.611765 0.611765
v 0.418344 0.813456 -0.316333 0.611765 0.611765 0.611765
v -0.000123 8.399811 -1.627230 0.901961 0.901961 0.901961
v -0.831122 7.786765 -3.140785 1.000000 1.000000 1.000000
v -0.000122 0.970527 0.071460 0.611765 0.611765 0.611765
v -0.418522 0.813457 -0.316333 0.611765 0.611765 0.611765
v -0.831122 7.786765 -3.140785 0.658824 0.658824 0.658824
v -0.000122 7.173765 -4.654227 0.658824 0.658824 0.658824
v -0.000122 0.656386 -0.704127 0.611765 0.611765 0.611765
v -0.418522 0.813457 -0.316333 0.611765 0.611765 0.611765
v 0.528855 0.557606 0.465447 0.611765 0.611765 0.611765
v 0.418522 0.637233 0.596416 0.611765 0.611765 0.611765
v 0.000122 0.347090 0.897867 0.611765 0.611765 0.611765
v 0.039255 0.897255 0.112560 0.611765 0.611765 0.611765
v 0.044989 0.869589 -0.025014 0.611765 0.611765 0.611765
v -0.608811 0.416211 0.446034 0.611765 0.611765 0.611765
v -0.484678 0.305952 0.277563 0.611765 0.611765 0.611765
v 0.000122 -0.030100 0.626712 0.611765 0.611765 0.611765
v 0.484656 0.305952 0.277563 0.611765 0.611765 0.611765
v -0.045011 0.025234 0.852248 0.611765 0.611765 0.611765
v 0.608989 0.478669 0.381141 0.611765 0.611765 0.611765
v -0.039078 0.163808 0.874593 0.611765 0.611765 0.611765
v -0.528877 0.503330 0.521838 0.611765 0.611765 0.611765
v -0.418344 0.637233 0.596417 0.611765 0.611765 0.611765
v 0.000122 0.642005 -0.071586 0.611765 0.611765 0.611765
v 0.000122 0.927375 0.294966 0.611765 0.611765 0.611765
v 0.831123 6.057917 5.813766 1.000000 1.000000 1.000000
v 0.000123 7.190341 4.637207 0.901961 0.901961 0.901961
v 0.000123 7.990277 7.673641 0.901961 0.901961 0.901961
v 0.000123 4.925578 6.990236 0.749020 0.749020 0.749020
v 0.831123 6.057917 5.813766 0.749020 0.749020 0.749020
v 0.000123 7.990277 7.673641 0.749020 0.749020 0.749020
v 0.000123 4.925578 6.990236 0.749020 0.749020 0.749020
v -0.831144 6.057917 5.813766 0.749020 0.749020 0.749020
v 0.000123 7.990277 7.673641 0.749020 0.749020 0.749020
v 0.000123 7.190341 4.637207 0.901961 0.901961 0.901961
v -0.831144 6.057917 5.813766 1.000000 1.000000 1.000000
v 0.000123 7.990277 7.673641 0.901961 0.901961 0.901961
v 0.000122 0.347090 0.897867 0.611765 0.611765 0.611765
v -0.418344 0.637233 0.596417 0.611765 0.611765 0.611765
v 0.000123 4.925578 6.990236 0.658824 0.658824 0.658824
v -0.831144 6.057917 5.813766 0.658824 0.658824 0.658824
v -0.831144 6.057917 5.813766 1.000000 1.000000 1.000000
v 0.000123 7.190341 4.637207 0.901961 0.901961 0.901961
v 0.000122 0.927375 0.294966 0.611765 0.611765 0.611765
v -0.418344 0.637233 0.596417 0.611765 0.611765 0.611765
v 0.000123 7.190341 4.637207 0.901961 0.901961 0.901961
v 0.831123 6.057917 5.813766 1.000000 1.000000 1.000000
v 0.000122 0.927375 0.294966 0.611765 0.611765 0.611765
v 0.418522 0.637233 0.596416 0.611765 0.611765 0.611765
v 0.831123 6.057917 5.813766 0.658824 0.658824 0.658824
v 0.000123 4.925578 6.990236 0.658824 0.658824 0.658824
v 0.000122 0.347090 0.897867 0.611765 0.611765 0.611765
v 0.418522 0.637233 0.596416 0.611765 0.611765 0.611765
v 0.528855 0.691099 0.223489 0.611765 0.611765 0.611765
v 0.418522 0.813882 0.315237 0.611765 0.611765 0.611765
v 0.000122 0.657333 0.703243 0.611765 0.611765 0.611765
v 0.039255 0.874359 -0.230721 0.611765 0.611765 0.611765
v 0.044989 0.797310 -0.348005 0.611765 0.611765 0.611765
v -0.608811 0.552686 0.258293 0.611765 0.611765 0.611765
v -0.484678 0.387482 0.143198 0.611765 0.611765 0.611765
v 0.000122 0.206163 0.592597 0.611765 0.611765 0.611765
v 0.484656 0.387482 0.143198 0.611765 0.611765 0.611765
v -0.045011 0.341732 0.781142 0.611765 0.611765 0.611765
v 0.608989 0.586386 0.174768 0.611765 0.611765 0.611765
v -0.039078 0.478622 0.750111 0.611765 0.611765 0.611765
v -0.528877 0.661814 0.296071 0.611765 0.611765 0.611765
v -0.418344 0.813881 0.315238 0.611765 0.611765 0.611765
v 0.000122 0.568802 -0.306201 0.611765 0.611765 0.611765
v 0.000122 0.970430 -0.072767 0.611765 0.611765 0.611765
v 0.831123 7.790986 3.130299 1.000000 1.000000 1.000000
v 0.000123 8.401994 1.615920 0.901961 0.901961 0.901961
v 0.000123 10.278176 4.133810 0.901961 0.901961 0.901961
v 0.000123 7.180023 4.644565 0.749020 0.749020 0.749020
v 0.831123 7.790986 3.130299 0.749020 0.749020 0.749020
v 0.000123 10.278176 4.133810 0.749020 0.749020 0.749020
v 0.000123 7.180023 4.644565 0.749020 0.749020 0.749020
v -0.831144 7.790986 3.130299 0.749020 0.749020 0.749020
v 0.000123 10.278176 4.133810 0.749020 0.749020 0.749020
v 0.000123 8.401994 1.615920 0.901961 0.901961 0.901961
v -0.831144 7.790986 3.130299 1.000000 1.000000 1.000000
v 0.000123 10.278176 4.133810 0.901961 0.901961 0.901961
v 0.000122 0.657333 0.703243 0.611765 0.611765 0.611765
v -0.418344 0.813881 0.315238 0.611765 0.611765 0.611765
v 0.000123 7.180023 4.644565 0.658824 0.658824 0.658824
v -0.831144 7.790986 3.130299 0.658824 0.658824 0.658824
v -0.831144 7.790986 3.130299 1.000000 1.000000 1.000000
v 0.000123 8.401994 1.615920 0.901961 0.901961 0.901961
v 0.000122 0.970430 -0.072767 0.611765 0.611765 0.611765
v -0.418344 0.813881 0.315238 0.611765 0.611765 0.611765
v 0.000123 8.401994 1.615920 0.901961 0.901961 0.901961
v 0.831123 7.790986 3.130299 1.000000 1.000000 1.000000
v 0.000122 0.970430 -0.072767 0.611765 0.611765 0.611765
v 0.418522 0.813882 0.315237 0.611765 0.611765 0.611765
v 0.831123 7.790986 3.130299 0.658824 0.658824 0.658824
v 0.000123 7.180023 4.644565 0.658824 0.658824 0.658824
v 0.000122 0.657333 0.703243 0.611765 0.611765 0.611765
v 0.418522 0.813882 0.315237 0.611765 0.611765 0.611765
vt 0.306200 0.312200
vt 0.307300 0.307900
vt 0.319500 0.307900
vt 0.291900 0.312200
vt 0.289500 0.315600
vt 0.308600 0.315600
vt 0.307300 0.321300
vt 0.321500 0.321300
vt 0.325100 0.315600
vt 0.306000 0.315600
vt 0.322800 0.312200
vt 0.308500 0.312200
vt 0.293200 0.321300
vt 0.295100 0.307900
vt 0.307300 0.088100
vt 0.259600 0.088100
vt 0.307300 0.009800
vt 0.355000 0.088100
vn 0.812372 0.583087 -0.003418
vn 0.811335 0.570788 0.126102
vn 0.126225 0.570696 0.811365
vn 0.004151 0.582842 -0.812555
vn 0.038850 0.013215 -0.999146
vn -0.999146 0.013276 0.039003
vn -0.630146 -0.771935 -0.083743
vn 0.084231 -0.771813 0.630207
vn 0.629902 -0.772088 0.084262
vn -0.039277 0.013398 0.999115
vn 0.999115 0.013520 -0.039369
vn -0.003540 0.582812 0.812586
vn -0.812525 0.582873 0.003876
vn -0.810846 0.571520 -0.125889
vn -0.083651 -0.772149 -0.629871
vn -0.125889 0.571520 -0.810846
vn 0.859066 0.266152 -0.437147
vn 0.859066 0.266152 0.437178
vn -0.858974 0.266213 0.437300
vn -0.859004 0.266243 -0.437269
vn -0.881680 -0.071474 0.466353
vn -0.736930 -0.043886 0.674490
vn -0.888760 -0.073031 0.452437
vn -0.706504 -0.038759 0.706626
vn -0.890103 -0.048830 -0.453108
vn -0.882351 -0.052400 -0.467605
vn -0.734947 -0.104526 -0.669973
vn -0.702475 -0.113407 -0.702597
vn 0.888852 -0.073000 -0.452315
vn 0.881741 -0.071444 -0.466231
vn 0.736991 -0.043886 -0.674429
vn 0.706565 -0.038728 -0.706565
vn 0.890133 -0.048799 0.453017
vn 0.882412 -0.052370 0.467513
vn 0.735008 -0.104495 0.669912
vn 0.702536 -0.113407 0.702536
vn -0.812372 0.422559 -0.401807
vn -0.811335 0.323862 -0.486648
vn -0.126225 -0.151311 -0.980377
vn -0.004151 0.983398 0.181371
vn -0.038850 0.702292 0.710807
vn 0.999146 -0.017457 -0.037324
vn 0.630146 -0.498184 0.595569
vn -0.084231 -0.993133 0.080996
vn -0.629902 -0.614765 0.474593
vn 0.039277 -0.683065 -0.729270
vn -0.999115 0.037049 0.018983
vn 0.003540 -0.143437 -0.989624
vn 0.812525 0.417310 -0.406964
vn 0.810846 0.499130 -0.305521
vn 0.083651 -0.119663 0.989257
vn 0.125889 0.974059 0.187994
vn -0.859066 0.494919 0.130436
vn -0.859066 -0.111301 -0.499588
vn 0.858974 -0.111332 -0.499710
vn 0.859004 0.495041 0.130467
vn 0.881680 -0.374859 -0.286477
vn 0.736930 -0.499313 -0.455580
vn 0.888760 -0.366344 -0.275399
vn 0.706504 -0.517869 -0.482315
vn 0.890103 0.278970 0.360363
vn 0.882351 0.286447 0.373272
vn 0.734947 0.389203 0.555254
vn 0.702475 0.405408 0.584918
vn -0.888852 0.260994 0.376568
vn -0.881741 0.271767 0.385510
vn -0.736991 0.435987 0.516434
vn -0.706565 0.461989 0.535997
vn -0.890133 -0.349254 -0.292581
vn -0.882412 -0.361888 -0.300546
vn -0.735008 -0.539811 -0.410260
vn -0.702536 -0.568834 -0.427595
vn -0.812372 0.541734 -0.215705
vn -0.811335 0.481704 -0.331187
vn -0.126225 0.224342 -0.966277
vn -0.004151 0.845271 0.534288
vn -0.038850 0.387341 0.921079
vn 0.999146 -0.002289 -0.041139
vn 0.630146 -0.684011 0.367412
vn -0.084231 -0.951964 -0.294351
vn -0.629902 -0.747246 0.211737
vn 0.039277 -0.362651 -0.931089
vn -0.999115 0.027314 0.031404
vn 0.003540 0.235115 -0.971954
vn 0.812525 0.538774 -0.222419
vn 0.810846 0.576983 -0.097842
vn 0.083651 -0.479202 0.873684
vn 0.125889 0.834132 0.536973
vn -0.859066 0.410810 0.305246
vn -0.859066 0.082553 -0.505142
vn 0.858974 0.082583 -0.505264
vn 0.859004 0.410901 0.305338
vn 0.881680 -0.241310 -0.405408
vn 0.736930 -0.293893 -0.608661
vn 0.888760 -0.237556 -0.391949
vn 0.706504 -0.301187 -0.640370
vn 0.890103 0.124821 0.438276
vn 0.882351 0.126957 0.453078
vn 0.734947 0.154607 0.660237
vn 0.702475 0.158605 0.693777
vn -0.888852 0.102115 0.446638
vn -0.881741 0.108768 0.458937
vn -0.736991 0.212500 0.641591
vn -0.706565 0.229316 0.669424
vn -0.890133 -0.215308 -0.401532
vn -0.882412 -0.224067 -0.413648
vn -0.735008 -0.348369 -0.581683
vn -0.702536 -0.368847 -0.608570
vn 0.812372 0.422498 0.401898
vn 0.811335 0.323771 0.486709
vn 0.126225 -0.151463 0.980346
vn 0.004151 0.983428 -0.181219
vn 0.038850 0.702384 -0.710685
vn -0.999146 -0.017457 0.037324
vn -0.630146 -0.498093 -0.595630
vn 0.084231 -0.993133 -0.081149
vn 0.629902 -0.614704 -0.474685
vn -0.039277 -0.683187 0.729148
vn 0.999115 0.037049 -0.018983
vn -0.003540 -0.143590 0.989624
vn -0.812525 0.417249 0.407025
vn -0.810846 0.499069 0.305612
vn -0.083651 -0.119510 -0.989288
vn -0.125889 0.974090 -0.187841
vn 0.859066 0.494919 -0.130375
vn 0.859066 -0.111393 0.499557
vn -0.858974 -0.111423 0.499680
vn -0.859004 0.495041 -0.130406
vn -0.881680 -0.374889 0.286447
vn -0.736930 -0.499374 0.455519
vn -0.888760 -0.366375 0.275338
vn -0.706504 -0.517930 0.482223
vn -0.890103 0.279000 -0.360302
vn -0.882351 0.286477 -0.373241
vn -0.734947 0.389294 -0.555193
vn -0.702475 0.405499 -0.584857
vn 0.888852 0.261055 -0.376507
vn 0.881741 0.271828 -0.385449
vn 0.736991 0.436048 -0.516373
vn 0.706565 0.462050 -0.535936
vn 0.890133 -0.349315 0.292520
vn 0.882412 -0.361950 0.300485
vn 0.735008 -0.539872 0.410199
vn 0.702536 -0.568896 0.427534
vn 0.812372 0.542039 0.214972
vn 0.811335 0.482131 0.330515
vn 0.126225 0.225654 0.965972
vn 0.004151 0.844539 -0.535447
vn 0.038850 0.386090 -0.921628
vn -0.999146 -0.002258 0.041139
vn -0.630146 -0.684530 -0.366497
vn 0.084231 -0.951567 0.295633
vn 0.629902 -0.747520 -0.210730
vn -0.039277 -0.361400 0.931578
vn 0.999115 0.027253 -0.031465
vn -0.003540 0.236427 0.971618
vn -0.812525 0.539079 0.221686
vn -0.810846 0.577105 0.097079
vn -0.083651 -0.480392 -0.873043
vn -0.125889 0.833399 -0.538102
vn 0.859066 0.410413 -0.305795
vn 0.859066 0.083254 0.505020
vn -0.858974 0.083254 0.505142
vn -0.859004 0.410504 -0.305887
vn -0.881680 -0.240761 0.405744
vn -0.736930 -0.293100 0.609058
vn -0.888760 -0.237007 0.392254
vn -0.706504 -0.300333 0.640797
vn -0.890103 0.124241 -0.438459
vn -0.882351 0.126347 -0.453230
vn -0.734947 0.153722 -0.660421
vn -0.702475 0.157689 -0.693991
vn 0.888852 0.101505 -0.446760
vn 0.881741 0.108158 -0.459090
vn 0.736991 0.211615 -0.641865
vn 0.706565 0.228431 -0.669729
vn 0.890133 -0.214759 0.401837
vn 0.882412 -0.223518 0.413953
vn 0.735008 -0.347575 0.582141
vn 0.702536 -0.368023 0.609058
usemtl happa5
f 1/1/1 2/2/2 3/3/3
f 4/4/4 2/2/2 1/1/1
f 5/5/5 4/4/4 1/1/1
f 6/6/6 4/4/4 5/5/5
f 7/7/7 6/6/6 5/5/5
f 8/8/8 6/6/6 7/7/7
f 9/7/9 8/8/8 7/7/7
f 10/9/10 8/8/8 9/7/9
f 11/10/11 10/9/10 9/7/9
f 12/11/12 10/9/10 11/10/11
f 1/1/1 12/11/12 11/10/11
f 3/3/3 12/11/12 1/1/1
f 10/9/10 6/6/6 8/8/8
f 13/12/13 6/6/6 10/9/10
f 12/11/12 13/12/13 10/9/10
f 14/2/14 13/12/13 12/11/12
f 3/3/3 14/2/14 12/11/12
f 11/10/11 5/5/5 1/1/1
f 15/13/15 5/5/5 11/10/11
f 9/7/9 15/13/15 11/10/11
f 7/7/7 15/13/15 9/7/9
f 16/14/16 13/12/13 14/2/14
f 4/4/4 13/12/13 16/14/16
f 2/2/2 4/4/4 16/14/16
f 6/6/6 13/12/13 4/4/4
f 15/13/15 7/7/7 5/5/5
f 17/15/17 18/16/17 19/17/17
f 20/18/18 21/15/18 22/17/18
f 25/17/19 24/15/19 23/18/19
f 26/16/20 27/15/20 28/17/20
f 32/15/21 29/3/22 31/18/23
f 30/2/24 29/3/22 32/15/21
f 33/15/25 34/16/26 36/2/27
f 36/2/27 34/16/26 35/14/28
f 37/16/29 38/15/30 39/14/31
f 39/14/31 38/15/30 40/2/32
f 41/15/33 42/18/34 44/2/35
f 44/2/35 42/18/34 43/3/36
f 45/1/37 46/2/38 47/3/39
f 48/4/40 46/2/38 45/1/37
f 49/5/41 48/4/40 45/1/37
f 50/6/42 48/4/40 49/5/41
f 51/7/43 50/6/42 49/5/41
f 52/8/44 50/6/42 51/7/43
f 53/7/45 52/8/44 51/7/43
f 54/9/46 52/8/44 53/7/45
f 55/10/47 54/9/46 53/7/45
f 56/11/48 54/9/46 55/10/47
f 45/1/37 56/11/48 55/10/47
f 47/3/39 56/11/48 45/1/37
f 54/9/46 50/6/42 52/8/44
f 57/12/49 50/6/42 54/9/46
f 56/11/48 57/12/49 54/9/46
f 58/2/50 57/12/49 56/11/48
f 47/3/39 58/2/50 56/11/48
f 55/10/47 49/5/41 45/1/37
f 59/13/51 49/5/41 55/10/47
f 53/7/45 59/13/51 55/10/47
f 51/7/43 59/13/51 53/7/45
f 60/14/52 57/12/49 58/2/50
f 48/4/40 57/12/49 60/14/52
f 46/2/38 48/4/40 60/14/52
f 50/6/42 57/12/49 48/4/40
f 59/13/51 51/7/43 49/5/41
f 61/15/53 62/16/53 63/17/53
f 64/18/54 65/15/54 66/17/54
f 69/17/55 68/15/55 67/18/55
f 70/16/56 71/15/56 72/17/56
f 76/15/57 73/3/58 75/18/59
f 74/2/60 73/3/58 76/15/57
f 77/15/61 78/16/62 80/2/63
f 80/2/63 78/16/62 79/14/64
f 81/16/65 82/15/66 83/14/67
f 83/14/67 82/15/66 84/2/68
f 85/15/69 86/18/70 88/2/71
f 88/2/71 86/18/70 87/3/72
f 89/1/73 90/2/74 91/3/75
f 92/4/76 90/2/74 89/1/73
f 93/5/77 92/4/76 89/1/73
f 94/6/78 92/4/76 93/5/77
f 95/7/79 94/6/78 93/5/77
f 96/8/80 94/6/78 95/7/79
f 97/7/81 96/8/80 95/7/79
f 98/9/82 96/8/80 97/7/81
f 99/10/83 98/9/82 97/7/81
f 100/11/84 98/9/82 99/10/83
f 89/1/73 100/11/84 99/10/83
f 91/3/75 100/11/84 89/1/73
f 98/9/82 94/6/78 96/8/80
f 101/12/85 94/6/78 98/9/82
f 100/11/84 101/12/85 98/9/82
f 102/2/86 101/12/85 100/11/84
f 91/3/75 102/2/86 100/11/84
f 99/10/83 93/5/77 89/1/73
f 103/13/87 93/5/77 99/10/83
f 97/7/81 103/13/87 99/10/83
f 95/7/79 103/13/87 97/7/81
f 104/14/88 101/12/85 102/2/86
f 92/4/76 101/12/85 104/14/88
f 90/2/74 92/4/76 104/14/88
f 94/6/78 101/12/85 92/4/76
f 103/13/87 95/7/79 93/5/77
f 105/15/89 106/16/89 107/17/89
f 108/18/90 109/15/90 110/17/90
f 113/17/91 112/15/91 111/18/91
f 114/16/92 115/15/92 116/17/92
f 120/15/93 117/3/94 119/18/95
f 118/2/96 117/3/94 120/15/93
f 121/15/97 122/16/98 124/2/99
f 124/2/99 122/16/98 123/14/100
f 125/16/101 126/15/102 127/14/103
f 127/14/103 126/15/102 128/2/104
f 129/15/105 130/18/106 132/2/107
f 132/2/107 130/18/106 131/3/108
f 133/1/109 134/2/110 135/3/111
f 136/4/112 134/2/110 133/1/109
f 137/5/113 136/4/112 133/1/109
f 138/6/114 136/4/112 137/5/113
f 139/7/115 138/6/114 137/5/113
f 140/8/116 138/6/114 139/7/115
f 141/7/117 140/8/116 139/7/115
f 142/9/118 140/8/116 141/7/117
f 143/10/119 142/9/118 141/7/117
f 144/11/120 142/9/118 143/10/119
f 133/1/109 144/11/120 143/10/119
f 135/3/111 144/11/120 133/1/109
f 142/9/118 138/6/114 140/8/116
f 145/12/121 138/6/114 142/9/118
f 144/11/120 145/12/121 142/9/118
f 146/2/122 145/12/121 144/11/120
f 135/3/111 146/2/122 144/11/120
f 143/10/119 137/5/113 133/1/109
f 147/13/123 137/5/113 143/10/119
f 141/7/117 147/13/123 143/10/119
f 139/7/115 147/13/123 141/7/117
f 148/14/124 145/12/121 146/2/122
f 136/4/112 145/12/121 148/14/124
f 134/2/110 136/4/112 148/14/124
f 138/6/114 145/12/121 136/4/112
f 147/13/123 139/7/115 137/5/113
f 149/15/125 150/16/125 151/17/125
f 152/18/126 153/15/126 154/17/126
f 157/17/127 156/15/127 155/18/127
f 158/16/128 159/15/128 160/17/128
f 164/15/129 161/3/130 163/18/131
f 162/2/132 161/3/130 164/15/129
f 165/15/133 166/16/134 168/2/135
f 168/2/135 166/16/134 167/14/136
f 169/16/137 170/15/138 171/14/139
f 171/14/139 170/15/138 172/2/140
f 173/15/141 174/18/142 176/2/143
f 176/2/143 174/18/142 175/3/144
f 177/1/145 178/2/146 179/3/147
f 180/4/148 178/2/146 177/1/145
f 181/5/149 180/4/148 177/1/145
f 182/6/150 180/4/148 181/5/149
f 183/7/151 182/6/150 181/5/149
f 184/8/152 182/6/150 183/7/151
f 185/7/153 184/8/152 183/7/151
f 186/9/154 184/8/152 185/7/153
f 187/10/155 186/9/154 185/7/153
f 188/11/156 186/9/154 187/10/155
f 177/1/145 188/11/156 187/10/155
f 179/3/147 188/11/156 177/1/145
f 186/9/154 182/6/150 184/8/152
f 189/12/157 182/6/150 186/9/154
f 188/11/156 189/12/157 186/9/154
f 190/2/158 189/12/157 188/11/156
f 179/3/147 190/2/158 188/11/156
f 187/10/155 181/5/149 177/1/145
f 191/13/159 181/5/149 187/10/155
f 185/7/153 191/13/159 187/10/155
f 183/7/151 191/13/159 185/7/153
f 192/14/160 189/12/157 190/2/158
f 180/4/148 189/12/157 192/14/160
f 178/2/146 180/4/148 192/14/160
f 182/6/150 189/12/157 180/4/148
f 191/13/159 183/7/151 181/5/149
f 193/15/161 194/16/161 195/17/161
f 196/18/162 197/15/162 198/17/162
f 201/17/163 200/15/163 199/18/163
f 202/16/164 203/15/164 204/17/164
f 208/15/165 205/3/166 207/18/167
f 206/2/168 205/3/166 208/15/165
f 209/15/169 210/16/170 212/2/171
f 212/2/171 210/16/170 211/14/172
f 213/16/173 214/15/174 215/14/175
f 215/14/175 214/15/174 216/2/176
f 217/15/177 218/18/178 220/2/179
f 220/2/179 218/18/178 219/3/180
