# Blender v2.79 (sub 0) OBJ File: 'MetalHarborGiantRocket.blend'
# www.blender.org
mtllib GiantRocket.mtl
o OBJ_962900_MDL_962864_SA2B_mirrorboth3__mirrorh4__transparent
v 39.303162 281.112701 -28.820889
v 39.303162 354.116882 -28.820875
v 48.667633 354.116882 0.000013
v 48.667633 281.112701 0.000000
v 39.303162 354.116882 28.820902
v 39.303162 281.112701 28.820889
v 14.786621 354.116882 46.633190
v 14.786621 281.112701 46.633179
v -15.517517 354.116882 46.633190
v -15.517517 281.112701 46.633179
v -40.034058 354.116882 28.820902
v -40.034058 281.112701 28.820889
v -49.398529 354.116882 0.000013
v -49.398529 281.112701 0.000000
v -40.034058 354.116882 -28.820875
v -40.034058 281.112701 -28.820889
v -15.517517 354.116882 -46.633167
v -15.517517 281.112701 -46.633179
v 14.786621 354.116882 -46.633167
v 14.786621 281.112701 -46.633179
v -0.365448 864.100220 0.000102
v 27.132294 855.131226 0.000100
v 21.880676 855.131226 -16.162668
v 21.880676 855.131226 16.162870
v 8.131836 855.131226 26.152027
v -8.862732 855.131226 26.152027
v 8.131836 855.131226 -26.151825
v -8.862732 855.131226 -26.151825
v -22.611572 855.131226 -16.162668
v -27.863190 855.131226 0.000100
v -22.611572 855.131226 16.162870
v -35.448975 834.427979 25.489773
v -13.766205 834.427979 41.243214
v 13.035309 834.427979 41.243214
v 34.718079 834.427979 25.489773
v 43.000183 834.427979 0.000097
v 34.718079 834.427979 -25.489578
v 13.035309 834.427979 -41.243023
v -13.766205 834.427979 -41.243023
v -35.448975 834.427979 -25.489578
v -43.731079 834.427979 0.000097
v -14.381592 368.560852 -43.137142
v 13.650696 368.560852 -43.137142
v 36.329254 368.560852 -26.660233
v 44.991669 368.560852 0.000015
v 13.650696 368.560822 43.137173
v -14.381592 368.560822 43.137173
v -37.060150 368.560822 26.660263
v -45.722565 368.560852 0.000015
v -37.060150 368.560852 -26.660233
v 36.329254 368.560822 26.660263
v -14.381592 464.847290 43.137188
v 13.650696 464.847290 43.137188
v 36.329254 464.847290 26.660280
v 44.991669 464.847290 0.000032
v 36.329254 464.847290 -26.660215
v 13.650696 464.847290 -43.137127
v -14.381592 464.847290 -43.137127
v -37.060150 464.847290 -26.660215
v -45.722565 464.847290 0.000032
v -37.060150 464.847290 26.660280
v -15.593536 803.166992 46.867363
v -40.233063 803.166992 28.965607
v -49.644501 803.166992 0.000091
v -40.233063 803.166992 -28.965424
v -15.593536 803.166992 -46.867180
v 14.862640 803.166992 -46.867180
v 39.502258 803.166992 -28.965424
v 48.913696 803.166992 0.000091
v 39.502258 803.166992 28.965607
v 14.862640 803.166992 46.867363
v 48.913696 483.775665 0.000035
v 39.502258 483.775665 -28.965479
v 14.862640 483.775696 -46.867237
v -15.593536 483.775635 46.867306
v 14.862640 483.775635 46.867306
v -15.593536 483.775696 -46.867237
v -40.233063 483.775665 -28.965479
v 39.502258 483.775665 28.965551
v -49.644501 483.775665 0.000035
v -40.233063 483.775665 28.965551
v 39.502258 643.471313 28.965578
v 14.862640 643.471313 46.867336
v -15.593536 643.471313 46.867336
v -40.233063 643.471313 28.965578
v -49.644501 643.471313 0.000063
v -40.233063 643.471313 -28.965452
v -15.593536 643.471313 -46.867207
v 14.862640 643.471313 -46.867207
v 39.502258 643.471313 -28.965452
v 48.913696 643.471313 0.000063
v -65.708160 293.358582 -27.065870
v -65.708160 293.358582 27.065874
v -0.365448 84.176239 -0.000034
v -27.431305 293.358582 -65.342705
v 26.700409 293.358582 -65.342705
v 26.700409 293.358582 65.342705
v 64.977264 293.358582 27.065874
v -27.431305 293.358582 65.342705
v 64.977264 293.358582 -27.065870
v 73.223175 274.244324 30.481394
v 30.115967 274.244324 73.588615
v 73.223175 274.244324 -30.481398
v 30.115967 274.244324 -73.588615
v -30.846863 274.244324 73.588615
v -30.846863 274.244324 -73.588615
v -73.954071 274.244324 -30.481398
v -73.954071 274.244324 30.481394
v 73.223175 0.830200 -30.481445
v 73.223175 0.830200 30.481346
v 30.115967 0.830200 73.588570
v 30.115967 0.830200 -73.588661
v -30.846863 0.830200 -73.588661
v -30.846863 0.830200 73.588570
v -73.954071 0.830200 -30.481445
v -73.954071 0.830200 30.481346
v 46.785980 662.770996 19.464901
v 46.785980 624.131165 19.464893
v 53.110504 624.131165 0.000060
v 53.110504 662.770996 0.000067
v 46.785980 624.131165 -19.464775
v 46.785980 662.770996 -19.464767
v 45.882477 752.671753 -22.245491
v 45.882477 795.515869 -22.245483
v 53.110504 795.515869 0.000090
v 53.110504 752.671753 0.000082
v 45.882477 795.515869 22.245663
v 45.882477 752.671753 22.245655
v 46.785980 709.858521 19.464909
v 46.785980 671.218628 19.464903
v 53.110504 671.218628 0.000068
v 53.110504 709.858521 0.000075
v 46.785980 671.218628 -19.464766
v 46.785980 709.858521 -19.464760
v 46.785980 615.683594 19.464893
v 46.785980 577.043701 19.464886
v 53.110504 577.043701 0.000052
v 53.110504 615.683594 0.000058
v 46.785980 577.043701 -19.464783
v 46.785980 615.683594 -19.464775
vt 0.949020 -1.000000
vt 0.078431 -1.000000
vt 0.078431 -0.396078
vt 0.949020 -0.396078
vt 0.078431 -1.000000
vt 0.949020 -1.000000
vt 0.078431 -0.396078
vt 0.949020 -0.396078
vt 0.078431 -1.000000
vt 0.949020 -1.000000
vt 0.078431 -0.396078
vt 0.949020 -0.396078
vt 0.078431 -1.000000
vt 0.949020 -1.000000
vt 0.078431 -0.396078
vt 0.949020 -0.396078
vt 0.078431 -1.000000
vt 0.949020 -1.000000
vt 0.078431 -0.396078
vt 0.949020 -0.396078
vt 0.988235 -1.000000
vt 0.988235 -0.074510
vt 0.015686 -0.074510
vt 0.015686 -1.000000
vt 0.988235 -0.074510
vt 0.988235 -1.000000
vt 0.015686 -0.074510
vt 0.015686 -1.000000
vt 0.988235 -1.000000
vt 0.988235 -0.074510
vt 0.015686 -0.074510
vt 0.015686 -1.000000
vt 0.988235 -0.074510
vt 0.988235 -1.000000
vt 0.015686 -0.074510
vt 0.015686 -1.000000
vt 0.988235 -0.074510
vt 0.988235 -1.000000
vt 0.015686 -0.074510
vt 0.015686 -1.000000
vt 0.015686 -0.074510
vt 0.988235 -1.000000
vt 0.988235 -0.074510
vt 0.015686 -1.000000
vt 0.015686 -0.074510
vt 0.988235 -1.000000
vt 0.988235 -0.074510
vt 0.015686 -1.000000
vt 0.000000 0.000000
vt 0.000000 -1.000000
vt 0.400000 -1.000000
vt 0.400000 0.000000
vt 0.803922 -1.000000
vt 0.803922 0.000000
vt 1.203922 -1.000000
vt 1.203922 0.000000
vt 1.607843 -1.000000
vt 1.607843 0.000000
vt 2.007843 -1.000000
vt 2.007843 0.000000
vt 2.407843 -1.000000
vt 2.407843 0.000000
vt 2.811765 -1.000000
vt 2.811765 0.000000
vt 3.211765 -1.000000
vt 3.211765 0.000000
vt 3.615686 -1.000000
vt 3.615686 0.000000
vt 4.015687 -1.000000
vt 4.015687 0.000000
vt 0.517647 0.000000
vt 0.517647 -0.498039
vt 0.768628 -0.498039
vt 0.768628 0.000000
vt 1.003922 -0.498039
vt 1.003922 0.000000
vt 1.003922 -1.000000
vt 1.003922 -0.498039
vt 0.768628 -0.498039
vt 0.768628 -1.000000
vt 0.533333 -0.498039
vt 0.533333 -1.000000
vt 0.000000 0.000000
vt 0.000000 -0.498039
vt 0.250980 -0.498039
vt 0.250980 0.000000
vt 0.501961 -0.498039
vt 0.501961 0.000000
vt 0.000000 -0.498039
vt 0.000000 -1.000000
vt 0.250980 -1.000000
vt 0.250980 -0.498039
vt 0.501961 -1.000000
vt 0.501961 -0.498039
vt 0.000000 -0.027451
vt 0.000000 -1.000000
vt 1.003922 -1.000000
vt 1.003922 -0.027451
vt 2.007843 -1.000000
vt 2.007843 -0.027451
vt 3.011765 -1.000000
vt 3.011765 -0.027451
vt 4.015687 -1.000000
vt 4.015687 -0.027451
vt 5.019608 -1.000000
vt 5.019608 -0.027451
vt 6.023530 -1.000000
vt 6.023530 -0.027451
vt 7.027452 -1.000000
vt 7.027452 -0.027451
vt 8.031373 -1.000000
vt 8.031373 -0.027451
vt 9.035295 -1.000000
vt 9.035295 -0.027451
vt 10.039216 -1.000000
vt 10.039216 -0.027451
vt 0.752941 -0.498039
vt 0.752941 -0.988235
vt 0.992157 -0.988235
vt 0.513726 -0.988235
vt 0.752941 -0.988235
vt 0.992157 -0.988235
vt 0.513726 -0.988235
vt 0.752941 -0.988235
vt 0.992157 -0.988235
vt 0.513726 -0.988235
vt 0.752941 -0.988235
vt 0.992157 -0.988235
vt 0.513726 -0.988235
vt 0.752941 -0.988235
vt 0.513726 -0.988235
vt 0.992157 -0.988235
vt 5.019608 -1.000000
vt 5.019608 -0.184314
vt 4.517647 -0.184314
vt 4.517647 -1.000000
vt 4.015687 -0.184314
vt 4.015687 -1.000000
vt 3.513726 -0.184314
vt 3.513726 -1.000000
vt 3.011765 -0.184314
vt 3.011765 -1.000000
vt 2.509804 -0.184314
vt 2.509804 -1.000000
vt 2.007843 -0.184314
vt 2.007843 -1.000000
vt 1.505883 -0.184314
vt 1.505883 -1.000000
vt 1.003922 -0.184314
vt 1.003922 -1.000000
vt 0.501961 -0.184314
vt 0.501961 -1.000000
vt 0.000000 -0.184314
vt 0.000000 -1.000000
vt 0.000000 -0.196078
vt 1.003922 -1.000000
vt 1.003922 -0.196078
vt 0.000000 -1.000000
vt 0.000000 -0.196078
vt 1.003922 -1.000000
vt 1.003922 -0.196078
vt 0.000000 -1.000000
vt 0.000000 -0.196078
vt 1.003922 -1.000000
vt 1.003922 -0.196078
vt 0.000000 -1.000000
vt 0.000000 -0.196078
vt 1.003922 -1.000000
vt 1.003922 -0.196078
vt 0.000000 -1.000000
vt 0.000000 -0.196078
vt 1.003922 -1.000000
vt 1.003922 -0.196078
vt 0.000000 -1.000000
vt 0.000000 -0.196078
vt 1.003922 -1.000000
vt 1.003922 -0.196078
vt 0.000000 -1.000000
vt 0.000000 -0.196078
vt 1.003922 -1.000000
vt 1.003922 -0.196078
vt 0.000000 -1.000000
vt 0.000000 -0.196078
vt 1.003922 -1.000000
vt 1.003922 -0.196078
vt 0.000000 -1.000000
vt 0.000000 -0.196078
vt 1.003922 -1.000000
vt 1.003922 -0.196078
vt 0.000000 -1.000000
vt 0.000000 -0.196078
vt 1.003922 -1.000000
vt 1.003922 -0.196078
vt 0.000000 -1.000000
vt 1.305882 -0.913726
vt 1.505882 0.941177
vt 1.305882 0.941177
vt 1.103922 -0.913726
vt 1.103922 0.941177
vt 0.903922 -0.913726
vt 0.903922 0.941177
vt 0.701961 -0.913726
vt 0.701961 0.941177
vt 0.501961 -0.913726
vt 0.501961 0.941177
vt 1.305882 -0.913726
vt 1.505882 0.941177
vt 1.305882 0.941177
vt 1.103922 -0.913726
vt 1.103922 0.941177
vt 0.903922 -0.913726
vt 0.903922 0.941177
vt 0.701961 -0.913726
vt 0.701961 0.941177
vt 0.501961 -0.913726
vt 0.501961 0.941177
vt 0.501961 0.941177
vt 0.701961 0.941177
vt 0.903922 0.941177
vt 1.103922 0.941177
vt 1.305882 0.941177
vt 1.505882 -0.913726
vt 1.505882 0.941177
vt 0.501961 0.941177
vt 0.701961 0.941177
vt 0.903922 0.941177
vt 1.103922 0.941177
vt 1.305882 0.941177
vt 1.505882 -0.913726
vt 1.305882 -0.913726
vt 1.505882 0.941177
vt 1.305882 0.941177
vt 1.505882 -0.913726
vt 0.000000 0.000000
vt 1.003922 -1.000000
vt 0.000000 -1.000000
vt 1.003922 0.000000
vt 0.000000 0.000000
vt 1.003922 -1.000000
vt 0.000000 -1.000000
vt 1.003922 0.000000
vt 0.000000 0.000000
vt 1.003922 -1.000000
vt 0.000000 -1.000000
vt 1.003922 0.000000
vt 0.000000 0.000000
vt 1.003922 -1.000000
vt 0.000000 -1.000000
vt 1.003922 0.000000
vt 0.000000 0.000000
vt 1.003922 -1.000000
vt 0.000000 -1.000000
vt 1.003922 0.000000
vt 0.000000 0.000000
vt 1.003922 -1.000000
vt 0.000000 -1.000000
vt 1.003922 0.000000
vt 0.000000 0.000000
vt 1.003922 -1.000000
vt 0.000000 -1.000000
vt 1.003922 0.000000
vt 0.000000 0.000000
vt 1.003922 -1.000000
vt 0.000000 -1.000000
vt 1.003922 0.000000
vt 0.000000 2.007843
vt 2.007843 -1.000000
vt 2.007843 2.007843
vt 0.000000 -1.000000
vt 0.000000 2.007843
vt 2.007843 -1.000000
vt 2.007843 2.007843
vt 0.000000 -1.000000
vt 0.000000 2.007843
vt 2.007843 -1.000000
vt 2.007843 2.007843
vt 0.000000 -1.000000
vt 0.000000 2.007843
vt 2.007843 -1.000000
vt 2.007843 2.007843
vt 0.000000 -1.000000
vt 0.000000 2.007843
vt 2.007843 -1.000000
vt 2.007843 2.007843
vt 0.000000 -1.000000
vt 0.000000 2.007843
vt 2.007843 -1.000000
vt 2.007843 2.007843
vt 0.000000 -1.000000
vt 0.000000 2.007843
vt 2.007843 -1.000000
vt 2.007843 2.007843
vt 0.000000 -1.000000
vt 0.000000 2.007843
vt 2.007843 -1.000000
vt 2.007843 2.007843
vt 0.000000 -1.000000
vt 0.623529 2.007843
vt 0.043137 2.007843
vt 0.321569 -1.000000
vt 0.043137 2.007843
vt 0.623529 2.007843
vt 0.043137 2.007843
vt 0.623529 2.007843
vt 0.623529 2.007843
vt 0.043137 2.007843
vn 0.8090 0.0000 -0.5878
vn 0.8030 0.1214 -0.5834
vn 0.9926 0.1214 -0.0000
vn 1.0000 -0.0000 -0.0000
vn 0.8030 0.1214 0.5834
vn 0.8090 -0.0000 0.5878
vn 0.3067 0.1214 0.9440
vn 0.3090 -0.0000 0.9511
vn -0.3067 0.1214 0.9440
vn -0.3090 -0.0000 0.9511
vn -0.8030 0.1214 0.5834
vn -0.8090 -0.0000 0.5878
vn -0.9926 0.1214 0.0000
vn -1.0000 0.0000 -0.0000
vn -0.8030 0.1214 -0.5834
vn -0.8090 0.0000 -0.5878
vn -0.3067 0.1214 -0.9440
vn -0.3090 0.0000 -0.9511
vn 0.3067 0.1214 -0.9440
vn 0.3090 0.0000 -0.9511
vn -0.3065 0.1274 -0.9433
vn 0.3065 0.1274 -0.9433
vn 0.8024 0.1274 -0.5830
vn 0.9919 0.1274 -0.0000
vn 0.3065 0.1274 0.9433
vn -0.3065 0.1274 0.9433
vn -0.8024 0.1274 0.5830
vn -0.9919 0.1274 0.0000
vn -0.8024 0.1274 -0.5830
vn 0.8024 0.1274 0.5830
vn -0.3073 -0.1041 0.9459
vn 0.3073 -0.1041 0.9459
vn 0.8046 -0.1041 0.5846
vn 0.9946 -0.1041 0.0000
vn 0.8046 -0.1041 -0.5846
vn 0.3073 -0.1041 -0.9459
vn -0.3073 -0.1041 -0.9459
vn -0.8046 -0.1041 -0.5846
vn -0.9946 -0.1041 -0.0000
vn -0.8046 -0.1041 0.5846
vn 0.9511 0.0000 0.3090
vn 0.9511 0.0000 -0.3090
vn -0.4972 0.7889 0.3612
vn -0.7442 0.3921 0.5407
vn -0.2843 0.3921 0.8749
vn -0.1899 0.7889 0.5844
vn 0.2843 0.3921 0.8749
vn 0.1899 0.7889 0.5844
vn 0.7442 0.3921 0.5407
vn 0.4972 0.7889 0.3612
vn 0.9199 0.3921 0.0000
vn 0.6145 0.7889 0.0000
vn 0.7442 0.3921 -0.5407
vn 0.4972 0.7889 -0.3612
vn 0.2843 0.3921 -0.8749
vn 0.1899 0.7889 -0.5844
vn -0.2843 0.3921 -0.8749
vn -0.1899 0.7889 -0.5844
vn -0.7442 0.3921 -0.5407
vn -0.4972 0.7889 -0.3612
vn -0.9199 0.3921 -0.0000
vn -0.6145 0.7889 -0.0000
vn -0.0000 1.0000 0.0000
vn -0.3077 0.0917 0.9471
vn -0.8056 0.0917 0.5853
vn -0.9958 0.0917 -0.0000
vn -0.8056 0.0917 -0.5853
vn -0.3077 0.0917 -0.9471
vn 0.3077 0.0917 -0.9471
vn 0.8056 0.0917 -0.5853
vn 0.9958 0.0917 0.0000
vn 0.8056 0.0917 0.5853
vn 0.3077 0.0917 0.9471
vn 0.9950 -0.1000 0.0000
vn 0.8050 -0.1000 -0.5848
vn 0.3075 -0.1000 -0.9463
vn -0.3075 -0.1000 0.9463
vn 0.3075 -0.1000 0.9463
vn -0.3075 -0.1000 -0.9463
vn -0.8050 -0.1000 -0.5848
vn 0.8050 -0.1000 0.5848
vn -0.9950 -0.1000 -0.0000
vn -0.8050 -0.1000 0.5848
vn 0.0652 0.9853 0.1576
vn 0.9040 0.2063 0.3745
vn 0.1576 0.9853 0.0652
vn 0.3745 0.2063 0.9040
vn 0.9040 0.2063 -0.3745
vn 0.1576 0.9853 -0.0652
vn 0.3745 0.2063 -0.9040
vn 0.0652 0.9853 -0.1576
vn -0.0652 0.9853 0.1576
vn -0.3745 0.2063 0.9040
vn -0.3745 0.2063 -0.9040
vn -0.0652 0.9853 -0.1576
vn -0.9040 0.2063 -0.3745
vn -0.1576 0.9853 -0.0652
vn -0.1576 0.9853 0.0652
vn -0.9040 0.2063 0.3745
vn 0.9239 0.0000 -0.3827
vn 0.9239 -0.0000 0.3827
vn 0.3827 -0.0000 0.9239
vn 0.3827 0.0000 -0.9239
vn -0.3827 0.0000 -0.9239
vn -0.3827 -0.0000 0.9239
vn -0.9239 0.0000 -0.3827
vn -0.9239 -0.0000 0.3827
vn -0.1576 0.9854 -0.0652
vn -0.1575 0.9854 0.0653
vn -0.0652 0.9854 -0.1576
vn 0.0653 0.9854 -0.1575
vn 0.0652 0.9854 0.1576
vn 0.1576 0.9854 0.0652
vn -0.0653 0.9854 0.1575
vn 0.1575 0.9854 -0.0653
usemtl miu128_mh001
s 1
f 1/1/1 2/2/2 3/3/3
f 1/1/1 3/3/3 4/4/4
f 4/4/4 3/3/3 5/5/5
f 4/4/4 5/5/5 6/6/6
f 6/6/6 5/5/5 7/7/7
f 6/6/6 7/7/7 8/8/8
f 8/8/8 7/7/7 9/9/9
f 8/8/8 9/9/9 10/10/10
f 10/10/10 9/9/9 11/11/11
f 10/10/10 11/11/11 12/12/12
f 12/12/12 11/11/11 13/13/13
f 12/12/12 13/13/13 14/14/14
f 14/14/14 13/13/13 15/15/15
f 14/14/14 15/15/15 16/16/16
f 16/16/16 15/15/15 17/17/17
f 16/16/16 17/17/17 18/18/18
f 18/18/18 17/17/17 19/19/19
f 18/18/18 19/19/19 20/20/20
f 20/20/20 19/19/19 2/2/2
f 2/2/2 1/1/1 20/20/20
usemtl pr64_19
f 17/21/17 42/22/21 43/23/22
f 17/21/17 43/23/22 19/24/19
f 19/24/19 43/23/22 44/25/23
f 19/24/19 44/25/23 2/26/2
f 2/26/2 44/25/23 45/27/24
f 2/26/2 45/27/24 3/28/3
f 7/29/7 46/30/25 47/31/26
f 7/29/7 47/31/26 9/32/9
f 9/32/9 47/31/26 48/33/27
f 9/32/9 48/33/27 11/34/11
f 11/34/11 48/33/27 49/35/28
f 11/34/11 49/35/28 13/36/13
f 13/36/13 49/35/28 50/37/29
f 13/36/13 50/37/29 15/38/15
f 15/38/15 50/37/29 42/39/21
f 15/38/15 42/39/21 17/40/17
f 46/41/25 5/42/5 51/43/30
f 5/42/5 46/41/25 7/44/7
f 51/45/30 3/46/3 45/47/24
f 3/46/3 51/45/30 5/48/5
usemtl miu256_mh001
f 52/49/31 47/50/26 46/51/25
f 52/49/31 46/51/25 53/52/32
f 53/52/32 46/51/25 51/53/30
f 53/52/32 51/53/30 54/54/33
f 54/54/33 51/53/30 45/55/24
f 54/54/33 45/55/24 55/56/34
f 55/56/34 45/55/24 44/57/23
f 55/56/34 44/57/23 56/58/35
f 56/58/35 44/57/23 43/59/22
f 56/58/35 43/59/22 57/60/36
f 57/60/36 43/59/22 42/61/21
f 57/60/36 42/61/21 58/62/37
f 58/62/37 42/61/21 50/63/29
f 58/62/37 50/63/29 59/64/38
f 59/64/38 50/63/29 49/65/28
f 59/64/38 49/65/28 60/66/39
f 60/66/39 49/65/28 48/67/27
f 60/66/39 48/67/27 61/68/40
f 61/68/40 48/67/27 47/69/26
f 61/68/40 47/69/26 52/70/31
usemtl miu64_mh008
f 117/71/41 118/72/41 119/73/4
f 117/71/41 119/73/4 120/74/4
f 120/74/4 119/73/4 121/75/42
f 120/74/4 121/75/42 122/76/42
f 123/77/42 124/78/42 125/79/4
f 123/77/42 125/79/4 126/80/4
f 126/80/4 125/79/4 127/81/41
f 126/80/4 127/81/41 128/82/41
f 129/83/41 130/84/41 131/85/4
f 129/83/41 131/85/4 132/86/4
f 132/86/4 131/85/4 133/87/42
f 132/86/4 133/87/42 134/88/42
f 135/89/41 136/90/41 137/91/4
f 135/89/41 137/91/4 138/92/4
f 138/92/4 137/91/4 139/93/42
f 138/92/4 139/93/42 140/94/42
usemtl miu32_mh001
f 31/95/43 32/96/44 33/97/45
f 31/95/43 33/97/45 26/98/46
f 26/98/46 33/97/45 34/99/47
f 26/98/46 34/99/47 25/100/48
f 25/100/48 34/99/47 35/101/49
f 25/100/48 35/101/49 24/102/50
f 24/102/50 35/101/49 36/103/51
f 24/102/50 36/103/51 22/104/52
f 22/104/52 36/103/51 37/105/53
f 22/104/52 37/105/53 23/106/54
f 23/106/54 37/105/53 38/107/55
f 23/106/54 38/107/55 27/108/56
f 27/108/56 38/107/55 39/109/57
f 27/108/56 39/109/57 28/110/58
f 28/110/58 39/109/57 40/111/59
f 28/110/58 40/111/59 29/112/60
f 29/112/60 40/111/59 41/113/61
f 29/112/60 41/113/61 30/114/62
f 30/114/62 41/113/61 32/115/44
f 30/114/62 32/115/44 31/116/43
usemtl miu64_mh007
f 21/117/63 22/118/52 23/119/54
f 22/118/52 21/117/63 24/120/50
f 21/117/63 25/121/48 24/122/50
f 25/121/48 21/117/63 26/123/46
f 21/117/63 27/124/56 28/125/58
f 27/124/56 21/117/63 23/126/54
f 21/117/63 29/127/60 30/128/62
f 29/127/60 21/117/63 28/129/58
f 31/130/43 21/117/63 30/131/62
f 21/117/63 31/130/43 26/132/46
usemtl miu64_mh002
f 62/133/64 33/134/45 32/135/44
f 62/133/64 32/135/44 63/136/65
f 63/136/65 32/135/44 41/137/61
f 63/136/65 41/137/61 64/138/66
f 64/138/66 41/137/61 40/139/59
f 64/138/66 40/139/59 65/140/67
f 65/140/67 40/139/59 39/141/57
f 65/140/67 39/141/57 66/142/68
f 66/142/68 39/141/57 38/143/55
f 66/142/68 38/143/55 67/144/69
f 67/144/69 38/143/55 37/145/53
f 67/144/69 37/145/53 68/146/70
f 68/146/70 37/145/53 36/147/51
f 68/146/70 36/147/51 69/148/71
f 69/148/71 36/147/51 35/149/49
f 69/148/71 35/149/49 70/150/72
f 70/150/72 35/149/49 34/151/47
f 70/150/72 34/151/47 71/152/73
f 71/152/73 34/151/47 33/153/45
f 71/152/73 33/153/45 62/154/64
f 72/155/74 56/156/35 73/157/75
f 56/156/35 72/155/74 55/158/34
f 73/159/75 57/160/36 74/161/76
f 57/160/36 73/159/75 56/162/35
f 75/163/77 53/164/32 76/165/78
f 53/164/32 75/163/77 52/166/31
f 74/167/76 58/168/37 77/169/79
f 58/168/37 74/167/76 57/170/36
f 77/171/79 59/172/38 78/173/80
f 59/172/38 77/171/79 58/174/37
f 79/175/81 55/176/34 72/177/74
f 55/176/34 79/175/81 54/178/33
f 78/179/80 60/180/39 80/181/82
f 60/180/39 78/179/80 59/182/38
f 76/183/78 54/184/33 79/185/81
f 54/184/33 76/183/78 53/186/32
f 80/187/82 61/188/40 81/189/83
f 61/188/40 80/187/82 60/190/39
f 81/191/83 52/192/31 75/193/77
f 52/192/31 81/191/83 61/194/40
usemtl miu256_mh002
f 82/195/6 69/196/71 70/197/72
f 82/195/6 70/197/72 83/198/8
f 83/198/8 70/197/72 71/199/73
f 83/198/8 71/199/73 84/200/10
f 84/200/10 71/199/73 62/201/64
f 84/200/10 62/201/64 85/202/12
f 85/202/12 62/201/64 63/203/65
f 85/202/12 63/203/65 86/204/14
f 86/204/14 63/203/65 64/205/66
f 87/206/16 64/207/66 65/208/67
f 87/206/16 65/208/67 88/209/18
f 88/209/18 65/208/67 66/210/68
f 88/209/18 66/210/68 89/211/20
f 89/211/20 66/210/68 67/212/69
f 89/211/20 67/212/69 90/213/1
f 90/213/1 67/212/69 68/214/70
f 90/213/1 68/214/70 91/215/4
f 91/215/4 68/214/70 69/216/71
f 85/202/12 80/217/82 81/218/83
f 85/202/12 81/218/83 84/200/10
f 84/200/10 81/218/83 75/219/77
f 84/200/10 75/219/77 83/198/8
f 83/198/8 75/219/77 76/220/78
f 83/198/8 76/220/78 82/195/6
f 82/195/6 76/220/78 79/221/81
f 82/195/6 79/221/81 91/222/4
f 91/222/4 79/221/81 72/223/74
f 90/213/1 72/224/74 73/225/75
f 90/213/1 73/225/75 89/211/20
f 89/211/20 73/225/75 74/226/76
f 89/211/20 74/226/76 88/209/18
f 88/209/18 74/226/76 77/227/79
f 88/209/18 77/227/79 87/206/16
f 87/206/16 77/227/79 78/228/80
f 69/196/71 82/195/6 91/222/4
f 64/207/66 87/206/16 86/229/14
f 80/217/82 85/202/12 86/204/14
f 72/224/74 90/213/1 91/215/4
f 86/230/14 78/231/80 80/232/82
f 78/231/80 86/230/14 87/233/16
usemtl pr128_6
f 97/234/84 101/235/85 98/236/86
f 101/235/85 97/234/84 102/237/87
f 98/238/86 103/239/88 100/240/89
f 103/239/88 98/238/86 101/241/85
f 100/242/89 104/243/90 96/244/91
f 104/243/90 100/242/89 103/245/88
f 99/246/92 102/247/87 97/248/84
f 102/247/87 99/246/92 105/249/93
f 96/250/91 106/251/94 95/252/95
f 106/251/94 96/250/91 104/253/90
f 95/254/95 107/255/96 92/256/97
f 107/255/96 95/254/95 106/257/94
f 93/258/98 105/259/93 99/260/92
f 105/259/93 93/258/98 108/261/99
f 92/262/97 108/263/99 93/264/98
f 108/263/99 92/262/97 107/265/96
usemtl pr128_27
f 101/266/85 109/267/100 103/268/88
f 109/267/100 101/266/85 110/269/101
f 102/270/87 110/271/101 101/272/85
f 110/271/101 102/270/87 111/273/102
f 103/274/88 112/275/103 104/276/90
f 112/275/103 103/274/88 109/277/100
f 104/278/90 113/279/104 106/280/94
f 113/279/104 104/278/90 112/281/103
f 105/282/93 111/283/102 102/284/87
f 111/283/102 105/282/93 114/285/105
f 106/286/94 115/287/106 107/288/96
f 115/287/106 106/286/94 113/289/104
f 107/290/96 116/291/107 108/292/99
f 116/291/107 107/290/96 115/293/106
f 108/294/99 114/295/105 105/296/93
f 114/295/105 108/294/99 116/297/107
usemtl pr128_14
f 92/298/108 93/299/109 94/300/63
f 92/298/108 94/300/63 95/301/110
f 95/301/110 94/300/63 96/302/111
f 97/303/112 98/304/113 94/300/63
f 97/303/112 94/300/63 99/305/114
f 99/305/114 94/300/63 93/299/109
f 94/300/63 100/306/115 96/302/111
f 100/306/115 94/300/63 98/304/113
