# Blender v2.79 (sub 0) OBJ File: ''
# www.blender.org
o OBJ_1034228_MDL_1034188_SA1
v 21.247900 23.827480 150.592300
v 21.247900 23.827578 0.008833
v 14.521113 23.827480 150.592300
v 14.521113 23.827578 0.008833
v 14.521113 13.176737 150.592300
v 14.521113 13.176832 0.008829
v -14.628291 13.176737 150.592300
v -14.628291 13.176832 0.008829
v -14.628291 23.827480 150.592300
v -14.628291 23.827578 0.008833
v -21.355078 23.827480 150.592300
v -21.355078 23.827578 0.008833
v -14.628291 23.827383 301.175781
v -21.355078 23.827383 301.175781
v -14.628291 13.176642 301.175781
v -22.476210 13.176642 301.175781
v 14.521113 13.176642 301.175781
v 22.369030 13.176642 301.175781
v 14.521113 23.827383 301.175781
v 21.247900 23.827383 301.175781
v 22.369030 13.176832 0.008829
v -22.476210 13.176832 0.008829
vt 0.000000 0.000000
vt 0.000000 0.000000
vt 0.000000 0.000000
vt 0.000000 0.000000
vt 0.000000 0.000000
vt 0.000000 0.000000
vt 0.000000 0.000000
vt 0.000000 0.000000
vt 0.000000 0.000000
vt 0.000000 0.000000
vt 0.000000 0.000000
vt 0.000000 0.000000
vt 0.000000 0.000000
vt 0.000000 0.000000
vt 0.000000 0.000000
vt 0.000000 0.000000
vt 0.000000 0.000000
vt 0.000000 0.000000
vt 0.000000 0.000000
vt 0.000000 0.000000
vt 0.000000 0.000000
vt 0.000000 0.000000
vn 0.0000 1.0000 0.0000
vn -0.0000 0.6839 -0.7296
vn -0.7071 0.7071 0.0000
vn -0.5774 0.5774 -0.5773
vn 0.7071 0.7071 0.0000
vn 0.5774 0.5774 -0.5773
vn 0.5774 0.5774 -0.5774
vn 0.5774 0.5773 0.5774
vn -0.0000 0.6839 0.7296
vn 0.5774 0.5774 0.5774
vn 0.0000 0.0000 1.0000
vn -0.5773 0.5774 0.5774
vn -0.5774 0.5774 0.5774
vn 0.0000 0.0000 -1.0000
vn 0.9945 0.1047 0.0000
vn -0.9945 0.1047 0.0000
s 1
f 1/1/1 2/2/2 3/3/3
f 3/3/3 2/2/2 4/4/4
f 3/3/3 4/4/4 5/5/3
f 5/5/3 4/4/4 6/6/4
f 5/5/3 6/6/4 7/7/5
f 7/7/5 6/6/4 8/8/6
f 7/7/5 8/8/6 9/9/5
f 9/9/5 8/8/6 10/10/7
f 9/9/5 10/10/7 11/11/1
f 11/11/1 10/10/7 12/12/2
f 13/13/8 14/14/9 15/15/10
f 15/15/10 14/14/9 16/16/11
f 17/17/12 18/18/11 19/19/13
f 19/19/13 18/18/11 20/20/9
f 4/4/4 2/2/2 6/6/4
f 6/6/4 2/2/2 21/21/14
f 10/10/7 8/8/6 12/12/2
f 12/12/2 8/8/6 22/22/14
f 20/20/9 1/1/1 19/19/13
f 19/19/13 1/1/1 3/3/3
f 19/19/13 3/3/3 17/17/12
f 17/17/12 3/3/3 5/5/3
f 17/17/12 5/5/3 15/15/10
f 15/15/10 5/5/3 7/7/5
f 15/15/10 7/7/5 13/13/8
f 13/13/8 7/7/5 9/9/5
f 13/13/8 9/9/5 14/14/9
f 14/14/9 9/9/5 11/11/1
f 20/20/15 21/21/15 2/2/15
f 14/14/16 22/22/16 16/16/16
f 20/20/15 18/18/15 21/21/15
f 14/14/16 12/12/16 22/22/16
