# Blender v2.79 (sub 0) OBJ File: ''
# www.blender.org
mtllib PathDiagonal.mtl
o PathDiagonal
v 15.798343 161.108047 237.978592
v 15.431177 161.108047 231.919846
v 15.751177 168.969543 232.054688
v 15.754005 19.140501 8.402048
v 15.754005 9.959708 8.402043
v 15.616135 11.072127 1.682244
v 15.798343 168.969543 237.978592
v 15.616135 18.933611 1.682247
v -15.450264 161.108047 237.978592
v -15.419960 168.969543 232.054688
v -15.739962 161.108047 231.919800
v -15.494603 19.140501 8.402036
v -15.494603 9.959709 8.402031
v -15.632472 11.072130 1.682220
v -15.450264 168.969543 237.978592
v -15.632472 18.933611 1.682223
v -18.766314 11.152626 8.376655
v -18.766314 5.726100 0.062808
v -18.766314 5.726096 8.411514
v 18.644491 155.913025 232.059692
v 18.644491 161.339539 240.564362
v 18.644491 155.913025 240.564362
v 18.644489 5.726099 0.060990
v 18.644489 11.152623 8.640901
v 18.644489 5.726095 8.657413
v -18.766310 161.339539 240.566193
v -18.766310 155.913025 231.962433
v -18.766310 155.913025 240.566193
v -18.766314 11.152628 0.062810
v 18.644491 161.339539 232.030350
v 18.644489 11.152626 0.060992
v -18.766310 161.339539 231.955109
v -8.959780 155.913025 231.986282
v 8.952643 5.726096 8.536305
v 8.952646 155.913025 232.011993
v -8.959785 5.726096 8.473905
v -17.838976 161.339539 228.936691
v 17.931044 161.339539 228.922043
v -18.203426 11.152623 10.958331
v 18.272797 11.152621 10.976704
v 13.457501 161.334290 239.821320
v 13.457501 170.385788 239.821320
v 13.457501 170.385788 237.113205
v 17.888403 170.385788 237.113205
v 17.888401 161.334290 232.628693
v 17.888403 170.385788 239.821320
v 17.888403 161.334290 239.821320
v 13.457497 161.334290 232.628693
v -17.800819 161.334290 239.821320
v -17.800819 170.385788 239.821320
v -17.800819 170.385788 237.113205
v -13.369914 170.385788 237.113205
v -13.369918 161.334290 232.628693
v -13.369914 170.385788 239.821320
v -13.369914 161.334290 239.821320
v -17.800819 161.334290 232.628693
v 17.801258 11.147307 0.628204
v 17.801258 20.198828 0.628208
v 17.801258 20.198828 3.336326
v 17.801258 11.147304 7.820829
v 13.370354 20.198828 3.336326
v 13.370354 20.198828 0.628208
v 13.370354 11.147307 0.628204
v 13.370354 11.147304 7.820829
v -13.457072 11.147307 0.628179
v -13.457072 20.198830 0.628184
v -13.457072 20.198830 3.336301
v -13.457072 11.147304 7.820818
v -17.887976 20.198830 3.336301
v -17.887976 20.198830 0.628184
v -17.887976 11.147307 0.628179
v -17.887976 11.147304 7.820818
v 17.931044 155.913025 228.896347
v -18.209814 5.726096 11.057413
v -17.838976 155.913025 228.942184
v 18.287781 5.726095 10.941836
v -14.549959 169.871689 232.075363
v -15.491447 168.834564 237.928055
v -15.491447 168.834564 232.075363
v -16.432930 169.871689 232.075363
v -14.549959 169.871689 237.928055
v -15.962191 19.166170 2.997836
v -16.432934 19.684723 5.701536
v -16.432934 19.684725 2.997836
v -16.432934 19.684723 8.405233
v -15.491447 18.647587 8.405233
v -14.549959 19.684725 2.997836
v -15.491447 19.684725 2.997836
v -14.549959 19.684723 5.701536
v -15.491447 18.647587 5.701535
v -15.491447 18.647589 2.997836
v -14.549959 19.684723 8.405233
v -16.432930 169.871689 237.928055
v 16.697676 169.871643 232.075394
v 15.756183 168.834518 237.928055
v 15.756183 168.834518 232.075394
v 14.814696 169.871643 232.075394
v 16.697676 169.871643 237.928055
v 15.285443 19.166189 2.997836
v 14.814702 19.684769 5.701561
v 14.814702 19.684771 2.997836
v 14.814702 19.684769 8.405233
v 15.756186 18.647633 8.405233
v 16.697678 19.684771 2.997836
v 15.756186 19.684771 2.997836
v 16.697678 19.684769 5.701561
v 15.756186 18.647633 5.701560
v 15.756186 18.647635 2.997836
v 16.697678 19.684769 8.405233
v 14.814696 169.871643 237.928055
v 9.052559 5.726096 10.998710
v 9.059608 155.913025 228.918381
v -8.442596 155.913025 228.929352
v -8.631549 5.726096 11.028056
vt -8.732283 0.375000
vt -9.000000 0.000000
vt -8.732283 0.000000
vt -8.732283 0.000000
vt -9.000000 0.375000
vt 1.000000 0.187500
vt 0.892097 0.375000
vt 1.000000 0.375000
vt 0.742637 0.375000
vt 0.742637 0.000000
vt 1.000000 0.375000
vt 1.000000 0.187500
vt 0.892097 0.375000
vt 0.892097 0.000000
vt 1.000000 0.000000
vt 0.892097 0.000000
vt 1.000000 0.000000
vt 0.742637 0.000000
vt 0.742637 0.375000
vt -9.000000 0.375000
vt -9.000000 0.000000
vt -8.732283 0.375000
vt -8.732283 0.375000
vt -9.000000 0.000000
vt -8.732283 0.000000
vt -8.732283 0.000000
vt -9.000000 0.375000
vt 1.000000 0.187500
vt 0.892097 0.375000
vt 1.000000 0.375000
vt 0.742638 0.375000
vt 0.742638 0.000000
vt 1.000000 0.375000
vt 1.000000 0.187500
vt 0.892097 0.375000
vt 0.892097 0.000000
vt 1.000000 0.000000
vt 0.892097 0.000000
vt 1.000000 0.000000
vt 0.742638 0.000000
vt 0.742638 0.375000
vt -9.000000 0.375000
vt -9.000000 0.000000
vt -8.732283 0.375000
vt 1.000009 0.000094
vt 1.000000 1.000000
vt 0.638991 0.999983
vt 0.125000 1.000000
vt 0.771875 1.000000
vt 0.771875 0.000000
vt 0.638991 0.999983
vt 1.000001 1.000001
vt 1.000009 0.000094
vt 0.125000 0.000000
vt 0.125000 1.000000
vt 0.771875 1.000000
vt 0.000000 0.000000
vt 0.000000 1.000000
vt 1.000000 1.000000
vt 0.375161 -0.000073
vt 0.125000 0.000000
vt 0.375161 -0.000073
vt 0.771875 0.000000
vt 1.000000 0.000000
vt 1.000009 0.000094
vt 1.000000 1.000000
vt 0.638991 0.999983
vt 0.125000 1.000000
vt 0.771875 1.000000
vt 0.771875 0.000000
vt 0.638991 0.999983
vt 1.000001 1.000001
vt 1.000009 0.000094
vt 0.125000 0.000000
vt 0.125000 1.000000
vt 0.771875 1.000000
vt 1.000000 0.000000
vt 0.000000 0.000000
vt 0.000000 1.000000
vt 0.375161 -0.000073
vt 0.125000 0.000000
vt 0.375161 -0.000073
vt 0.771875 0.000000
vt 1.000000 1.000000
vt 1.000009 0.000094
vt 1.000000 1.000000
vt 0.638991 0.999983
vt 0.125000 0.000000
vt 0.125000 1.000000
vt 0.771875 1.000000
vt 0.638991 0.999983
vt 1.000001 1.000001
vt 1.000009 0.000094
vt 0.125000 0.000000
vt 0.125000 1.000000
vt 0.771875 1.000000
vt 1.000000 0.000000
vt 0.000000 0.000000
vt 0.000000 1.000000
vt 0.375161 -0.000073
vt 0.771875 0.000000
vt 0.375161 -0.000073
vt 0.771875 0.000000
vt 1.000000 1.000000
vt 1.000009 0.000094
vt 1.000000 1.000000
vt 0.638991 0.999983
vt 0.125000 0.000000
vt 0.125000 1.000000
vt 0.771875 1.000000
vt 0.638991 0.999983
vt 1.000001 1.000001
vt 1.000009 0.000094
vt 0.125000 0.000000
vt 0.125000 1.000000
vt 0.771875 1.000000
vt 1.000000 0.000000
vt 0.000000 0.000000
vt 0.000000 1.000000
vt 0.375161 -0.000073
vt 0.771875 0.000000
vt 0.375161 -0.000073
vt 0.771875 0.000000
vt 1.000000 1.000000
vt 0.855143 -0.000183
vt 0.999978 0.999943
vt 1.000099 0.000058
vt 0.136574 0.999947
vt -0.000071 0.000089
vt 0.136550 0.000035
vt 6.851859 -0.015632
vt -6.007787 0.999967
vt -5.842090 -0.000380
vt -6.007796 -0.000017
vt -5.843755 1.000004
vt 0.853733 -0.003051
vt 7.000246 0.985266
vt 6.999884 -0.015875
vt 0.855357 0.999916
vt 0.000007 1.000084
vt 6.851614 0.984382
vt 0.853751 0.996906
vt 1.000111 0.999977
vt 0.000050 -0.000011
vt 1.000134 0.000013
vt 0.000099 0.000028
vt 1.000000 1.000391
vt 0.999951 0.000003
vt 0.000001 0.000032
vt 0.999979 1.000016
vt 1.000074 0.000081
vt 1.000111 0.999977
vt 0.000050 -0.000011
vt 1.000134 0.000013
vt 0.000050 0.999989
vt -0.000013 0.999987
vt 0.000094 0.999939
vt 0.000050 0.999989
vt 2.497612 0.258795
vt -3.460549 0.742118
vt -3.460218 0.258713
vt 2.611148 0.251676
vt 2.498243 0.752031
vt -3.573116 0.258586
vt -3.433630 0.738817
vt 2.497519 0.239154
vt 2.497354 0.719440
vt -3.547221 0.279456
vt -3.547143 0.786060
vt 2.609750 0.264389
vt 2.609407 0.769658
vt 2.611305 0.761569
vt -3.573805 0.767135
vt -3.433944 0.248762
vt 0.000000 0.000000
vt 3.003984 0.000122
vt 2.233301 0.812484
vt 3.004062 0.812547
vt 0.000220 -0.000024
vt 3.003674 0.000251
vt 0.000000 0.000000
vt 3.004062 0.812547
vt 0.000077 0.812425
vt 3.003674 0.000251
vt 3.004062 0.812547
vt 2.209151 0.804611
vt 3.004062 0.812547
vt 1.502225 0.812421
vt 0.000388 0.812296
vt 0.000077 0.812425
vt 3.003674 0.000251
vt 0.000077 0.812425
vt 0.751074 0.812455
vt 15.146392 0.000388
vt -0.006557 3.030308
vt -0.001256 -0.007487
vt 15.141091 3.034245
vt -9.635637 -0.580293
vt -9.019468 -0.821255
vt -9.238425 0.611711
vt 9.982136 0.293390
vt 10.231046 -0.821254
vt 10.690289 -0.097692
vt -9.690289 0.487136
vt 10.477146 0.856772
vt -9.635637 -0.580293
vt -9.238425 0.611711
vt -9.019468 -0.821255
vt 9.982136 0.293390
vt 10.231046 -0.821254
vt 10.690289 -0.097692
vt -9.690289 0.487136
vt 10.477146 0.856772
vt -0.000078 1.001496
vt 1.992656 0.797653
vt 1.991711 1.001656
vt 0.000324 0.799149
vt 1.991711 1.001656
vt -0.000078 1.001496
vt 0.000324 0.799149
vt 1.992656 0.797653
vt 0.607071 0.943823
vt 0.842627 0.977732
vt 0.594688 0.977629
vt 0.835890 -0.876966
vt 0.602357 -0.842822
vt 0.587295 -0.876943
vt 0.842751 0.943873
vt 0.842831 -0.842916
vt 0.000000 0.000000
vt 0.000000 1.000000
vt 1.000000 0.000000
vt 0.000000 0.000000
vt 0.000000 1.000000
vt 1.000000 0.000000
vt 0.000000 0.000000
vt 0.000000 1.000000
vt 1.000000 0.000000
vt 0.000000 0.000000
vt 0.000000 1.000000
vt 1.000000 0.000000
vn 0.7404 -0.6721 0.0000
vn 0.0000 1.0000 0.0000
vn -0.7404 -0.6721 -0.0000
vn -0.6749 -0.6126 0.4114
vn -0.7127 -0.6470 0.2712
vn -0.7287 -0.6615 0.1773
vn 0.0000 0.9566 -0.2914
vn 0.0000 0.8302 -0.5575
vn 0.7196 -0.6532 0.2354
vn 0.6749 -0.6126 0.4114
vn 0.7231 -0.6564 0.2153
vn 0.0000 0.9568 -0.2907
vn 0.7196 -0.6533 0.2354
vn -1.0000 0.0000 0.0000
vn 0.0000 0.4439 -0.8961
vn 1.0000 0.0000 -0.0000
vn 0.0000 0.0000 1.0000
vn 0.0000 -1.0000 -0.0000
vn 0.0000 0.4439 0.8961
vn 0.0000 0.0000 -1.0000
vn 0.9750 0.0015 -0.2224
vn 0.9752 -0.0018 -0.2214
vn 0.9755 -0.0012 -0.2200
vn -0.9993 0.0034 0.0361
vn -0.9777 -0.0001 0.2098
vn -0.9919 0.0035 0.1269
vn -1.0000 0.0012 0.0009
vn 0.9878 -0.0001 0.1556
vn 0.9878 0.0022 0.1557
vn 0.9880 0.0005 0.1543
vn 0.9978 0.0037 0.0656
vn 1.0000 0.0001 0.0039
vn 0.9989 0.0025 0.0471
vn -0.9559 -0.0003 -0.2936
vn -0.9559 -0.0004 -0.2936
vn -0.9560 -0.0004 -0.2935
vn 0.9747 0.0011 -0.2237
vn -0.9779 0.0063 0.2090
vn -0.9770 0.0014 0.2130
vn -0.9777 -0.0001 0.2100
vn -1.0000 0.0000 0.0023
vn -1.0000 0.0000 0.0017
vn 0.9878 -0.0000 0.1558
vn 1.0000 -0.0000 0.0016
vn -0.9559 -0.0003 -0.2937
vn 0.0015 -0.9549 0.2968
vn 0.0016 -0.8242 0.5663
vn 0.0009 -0.8234 0.5675
vn 0.0017 -0.9594 0.2820
vn 0.0008 -0.8234 0.5675
vn 0.0015 -0.8694 0.4941
vn 0.0007 -0.9549 0.2970
vn 0.0005 -0.8231 0.5679
vn 0.0002 0.8233 -0.5675
vn -0.0002 0.8237 -0.5670
vn -0.0002 0.8234 -0.5674
vn 0.0001 0.9630 -0.2695
vn 0.0001 0.9606 -0.2778
vn 0.0003 0.8235 -0.5674
vn 0.9974 -0.0396 -0.0604
vn 0.9991 -0.0405 -0.0094
vn 0.9991 -0.0405 -0.0084
vn 1.0000 -0.0000 -0.0078
vn 1.0000 0.0000 0.0014
vn 0.9999 0.0000 -0.0115
vn 0.9998 -0.0000 -0.0205
vn 1.0000 0.0000 -0.0080
vn 0.9988 -0.0411 0.0276
vn 0.9991 -0.0406 -0.0083
vn 0.9991 -0.0406 -0.0093
vn -0.9981 0.0398 0.0477
vn -0.9992 0.0406 0.0033
vn -0.9992 0.0406 0.0042
vn -1.0000 0.0000 -0.0011
vn -0.9998 -0.0000 0.0205
vn -1.0000 0.0000 -0.0051
vn -0.9988 0.0411 -0.0272
usemtl None_miu64_mh003.png
s 1
f 77/1/1 78/2/1 79/3/1
f 80/4/2 81/5/2 77/1/2
f 82/6/3 83/7/3 84/8/3
f 79/3/4 85/9/5 86/10/6
f 87/11/2 88/12/2 89/13/2
f 89/13/1 86/10/1 90/14/1
f 87/11/1 90/14/1 91/15/1
f 89/13/2 88/12/2 83/16/2
f 88/12/2 84/17/2 83/16/2
f 89/13/2 85/18/7 92/19/7
f 93/20/3 79/3/3 78/2/3
f 90/14/3 83/7/3 82/6/3
f 90/14/3 82/6/3 91/15/3
f 85/9/5 90/14/3 86/10/6
f 85/18/7 77/1/8 92/19/7
f 92/19/9 79/3/10 86/10/11
f 77/1/1 81/5/1 78/2/1
f 80/4/2 93/21/2 81/5/2
f 79/3/4 80/22/4 85/9/4
f 89/13/1 92/19/9 86/10/11
f 87/11/1 89/13/1 90/14/1
f 89/13/2 83/16/2 85/18/7
f 93/20/3 80/22/3 79/3/3
f 85/9/3 83/7/3 90/14/3
f 85/18/7 80/4/8 77/1/8
f 92/19/9 77/1/10 79/3/10
f 94/23/1 95/24/1 96/25/1
f 97/26/2 98/27/2 94/23/2
f 99/28/3 100/29/3 101/30/3
f 96/25/4 102/31/5 103/32/6
f 104/33/2 105/34/2 106/35/2
f 106/35/1 103/32/1 107/36/1
f 104/33/1 107/36/1 108/37/1
f 106/35/2 105/34/2 100/38/2
f 105/34/2 101/39/2 100/38/2
f 106/35/2 102/40/7 109/41/12
f 110/42/3 96/25/3 95/24/3
f 107/36/3 100/29/3 99/28/3
f 107/36/3 99/28/3 108/37/3
f 102/31/5 107/36/3 103/32/6
f 109/41/8 97/26/8 94/23/8
f 109/41/13 96/25/10 103/32/11
f 94/23/1 98/27/1 95/24/1
f 97/26/2 110/43/2 98/27/2
f 96/25/4 97/44/4 102/31/4
f 106/35/1 109/41/13 103/32/11
f 104/33/1 106/35/1 107/36/1
f 106/35/2 100/38/2 102/40/7
f 110/42/3 97/44/3 96/25/3
f 102/31/3 100/29/3 107/36/3
f 109/41/12 102/40/7 97/26/8
f 109/41/13 94/23/10 96/25/10
usemtl None_pr128_8.png
f 41/45/14 42/46/14 43/47/14
f 43/48/15 44/49/15 45/50/15
f 44/51/16 46/52/16 47/53/16
f 47/54/17 46/55/17 42/56/17
f 45/57/18 47/58/18 41/59/18
f 41/45/14 43/47/14 48/60/14
f 43/48/15 45/50/15 48/61/15
f 44/51/16 47/53/16 45/62/16
f 47/54/17 42/56/17 41/63/17
f 45/57/18 41/59/18 48/64/18
f 49/65/14 50/66/14 51/67/14
f 51/68/15 52/69/15 53/70/15
f 52/71/16 54/72/16 55/73/16
f 55/74/17 54/75/17 50/76/17
f 56/77/18 53/78/18 55/79/18
f 49/65/14 51/67/14 56/80/14
f 51/68/15 53/70/15 56/81/15
f 52/71/16 55/73/16 53/82/16
f 55/74/17 50/76/17 49/83/17
f 56/77/18 55/79/18 49/84/18
f 57/85/16 58/86/16 59/87/16
f 60/88/19 59/89/19 61/90/19
f 61/91/14 62/92/14 63/93/14
f 63/94/20 62/95/20 58/96/20
f 60/97/18 64/98/18 63/99/18
f 57/85/16 59/87/16 60/100/16
f 60/88/19 61/90/19 64/101/19
f 61/91/14 63/93/14 64/102/14
f 63/94/20 58/96/20 57/103/20
f 60/97/18 63/99/18 57/104/18
f 65/105/16 66/106/16 67/107/16
f 68/108/19 67/109/19 69/110/19
f 69/111/14 70/112/14 71/113/14
f 71/114/20 70/115/20 66/116/20
f 68/117/18 72/118/18 71/119/18
f 65/105/16 67/107/16 68/120/16
f 68/108/19 69/110/19 72/121/19
f 69/111/14 71/113/14 72/122/14
f 71/114/20 66/116/20 65/123/20
f 68/117/18 71/119/18 65/124/18
usemtl None_pr64_15.png
f 73/125/21 30/126/22 20/127/23
f 39/128/24 19/129/25 74/130/26
f 75/131/27 39/128/24 74/130/26
f 24/132/28 76/133/29 25/134/30
f 40/135/31 73/136/32 76/133/33
f 32/137/34 75/131/35 27/138/36
f 73/125/21 38/139/37 30/126/22
f 39/128/38 17/140/39 19/129/40
f 75/131/41 37/141/42 39/128/42
f 24/132/43 40/135/31 76/133/33
f 40/135/31 38/142/44 73/136/32
f 32/137/34 37/141/45 75/131/35
usemtl None_pr32_3.png
f 17/143/14 18/144/14 19/145/14
f 20/146/16 21/147/16 22/148/16
f 23/149/16 24/150/16 25/151/16
f 26/152/14 27/153/14 28/154/14
f 17/143/14 29/155/14 18/144/14
f 20/146/16 30/156/16 21/147/16
f 23/149/16 31/157/16 24/150/16
f 26/152/14 32/158/14 27/153/14
usemtl None_pr128_22.png
f 111/159/46 73/160/47 112/161/48
f 34/162/18 76/163/49 111/159/46
f 73/160/18 35/164/18 112/161/18
f 74/165/50 113/166/50 75/167/50
f 36/168/18 74/165/18 19/169/18
f 75/167/18 33/170/18 27/171/18
f 111/159/46 76/163/49 73/160/47
f 34/162/18 25/172/18 76/163/49
f 73/160/18 20/173/18 35/164/18
f 74/165/51 114/174/52 113/166/53
f 36/168/18 114/174/52 74/165/51
f 75/167/18 113/166/18 33/170/18
usemtl None_miu64_mh002.png
f 22/175/18 28/176/18 33/177/18
f 30/178/2 26/179/2 21/180/2
f 31/181/2 17/182/2 24/183/2
f 23/184/18 25/185/18 34/186/18
f 28/176/18 27/187/18 33/177/18
f 33/177/18 35/188/18 22/175/18
f 35/188/18 20/189/18 22/175/18
f 30/178/2 32/190/2 26/179/2
f 31/181/2 29/191/2 17/182/2
f 19/192/18 18/144/18 36/193/18
f 18/144/18 23/184/18 36/193/18
f 36/193/18 23/184/18 34/186/18
usemtl None_miu64_mh006.png
f 40/194/54 37/195/55 38/196/56
f 40/194/57 39/197/58 37/195/59
usemtl None_miu64_ig007.png
f 1/198/60 2/199/61 3/200/62
f 4/201/63 2/199/64 5/202/65
f 6/203/66 4/201/63 5/202/65
f 1/198/67 3/200/67 7/204/67
f 4/201/68 3/200/69 2/199/70
f 6/203/66 8/205/66 4/201/63
f 9/206/71 10/207/72 11/208/73
f 12/209/74 13/210/74 11/208/74
f 14/211/75 13/210/75 12/209/75
f 9/206/76 15/212/76 10/207/76
f 12/209/77 11/208/73 10/207/72
f 14/211/75 12/209/75 16/213/75
usemtl None_miu128_mh001.png
f 37/214/2 30/215/2 38/216/2
f 24/217/2 39/218/58 40/219/57
f 37/214/2 32/220/2 30/215/2
f 24/217/2 17/221/2 39/218/58
usemtl None
f 113/222/18 35/223/18 33/224/18
f 34/225/18 114/226/52 36/227/18
f 114/226/52 112/228/48 113/222/53
f 113/222/18 112/228/18 35/223/18
f 34/225/18 111/229/46 114/226/52
f 114/226/52 111/229/46 112/228/48
usemtl None_pr32_1.png
f 61/230/2 59/231/2 58/86/2
f 61/230/2 58/86/2 62/232/2
f 52/233/2 51/234/2 50/66/2
f 52/233/2 50/66/2 54/235/2
f 69/236/2 67/237/2 66/106/2
f 69/236/2 66/106/2 70/238/2
f 44/239/2 43/240/2 42/46/2
f 44/239/2 42/46/2 46/241/2
