mtllib PathFlatSmall.mtl
v -17.616339 22.982218 78.725548
v -18.258760 13.374616 78.083130
v -17.616339 13.374616 78.725548
v -18.258760 22.982218 78.083130
v -17.616339 13.374616 77.440712
v -17.616339 22.982218 77.440712
v -16.973917 13.374616 78.083130
v -16.973917 22.982218 78.083130
v 17.474209 22.982218 78.725548
v 16.831787 13.374616 78.083130
v 17.474209 13.374616 78.725548
v 16.831787 22.982218 78.083130
v 17.474209 13.374616 77.440712
v 17.474209 22.982218 77.440712
v 18.116631 13.374616 78.083130
v 18.116631 22.982218 78.083130
v 17.474209 22.982237 28.790590
v 16.831787 13.374631 28.148165
v 17.474209 13.374631 28.790586
v 16.831787 22.982237 28.148169
v 17.474209 13.374631 27.505743
v 17.474209 22.982237 27.505747
v 18.116631 13.374631 28.148165
v 18.116631 22.982237 28.148169
v 19.803413 23.667414 102.315277
v 14.829290 23.667414 102.315285
v 14.829292 23.667414 105.219498
v 19.803415 23.667414 105.219490
v 14.829292 13.506192 105.219482
v 14.829289 13.506194 97.506027
v 19.803415 13.506192 105.219475
v 19.803413 13.506194 97.506027
v -15.287110 23.667414 102.315277
v -20.261234 23.667414 102.315285
v -20.261232 23.667414 105.219498
v -15.287109 23.667414 105.219490
v -20.261232 13.506192 105.219482
v -20.261236 13.506194 97.506027
v -15.287109 13.506192 105.219475
v -15.287111 13.506194 97.506027
v 18.478699 23.090347 3.147431
v 17.421791 21.926035 103.189171
v 17.421791 21.926069 3.147431
v 16.364876 23.090347 3.147431
v 18.478699 23.090313 103.189171
v 16.364876 23.090313 103.189171
v -17.616339 22.982225 53.794357
v -18.258760 13.374623 53.151936
v -17.616339 13.374623 53.794357
v -18.258760 22.982225 53.151936
v -17.616339 13.374623 52.509514
v -17.616339 22.982229 52.509514
v -16.973917 13.374623 53.151936
v -16.973917 22.982225 53.151936
v -15.384956 13.506245 0.606121
v -15.384956 23.667461 3.510331
v -15.384956 23.667461 0.606125
v -15.384956 13.506243 8.319569
v -20.359077 23.667461 3.510331
v -20.359077 13.506245 0.606121
v -20.359077 23.667461 0.606125
v -20.359077 13.506243 8.319569
v 17.474209 22.982225 53.794357
v 16.831787 13.374623 53.151936
v 17.474209 13.374623 53.794357
v 16.831787 22.982225 53.151936
v 17.474209 13.374623 52.509514
v 17.474209 22.982229 52.509514
v 18.116631 13.374623 53.151936
v 18.116631 22.982225 53.151936
v -20.304070 13.512209 93.546989
v 20.652191 13.512207 96.866844
v 19.851257 13.512209 93.531990
v 20.652191 13.512236 9.201962
v -20.713188 13.512236 11.683926
v 20.234894 13.512236 11.703724
v -21.345139 13.512207 96.784012
v -21.345139 13.512236 8.914722
v 19.851257 7.420402 93.504982
v 20.652191 7.420400 96.897537
v -21.345139 7.420430 8.954041
v -20.720364 7.420428 11.789942
v -20.304070 7.420402 93.552216
v 20.251732 7.420428 11.665705
v 20.652191 7.420430 9.218157
v -21.345139 7.420400 96.790794
v 20.652191 7.420398 106.017349
v -21.345139 7.420398 106.017349
v -10.336319 7.420400 96.817482
v -21.345139 13.512205 106.017349
v 20.652191 13.512205 106.017349
v 20.652191 13.512239 0.000813
v 20.652191 7.420432 0.000811
v 9.772125 7.420430 9.086107
v 9.772125 7.420400 96.844162
v -21.345139 13.512239 0.000813
v -21.345139 7.420432 0.000811
v -10.336319 7.420430 9.020075
v -9.755749 7.420402 93.540398
v -9.967854 7.420428 11.758875
v 9.884285 7.420428 11.727823
v 9.892197 7.420402 93.528595
v 19.705582 13.506245 0.606121
v 19.705582 23.667461 3.510331
v 19.705582 23.667461 0.606125
v 19.705582 13.506243 8.319569
v 14.731461 23.667461 3.510331
v 14.731461 13.506245 0.606121
v 14.731461 23.667461 0.606125
v 14.731461 13.506243 8.319569
v -16.611835 23.090347 3.147416
v -17.668751 21.926035 103.189186
v -17.668751 21.926069 3.147416
v -18.725662 23.090347 3.147416
v -16.611835 23.090313 103.189186
v -18.725662 23.090313 103.189186
v -17.616339 22.982237 28.790590
v -18.258760 13.374631 28.148165
v -17.616339 13.374631 28.790586
v -18.258760 22.982237 28.148169
v -17.616339 13.374631 27.505743
v -17.616339 22.982237 27.505747
v -16.973917 13.374631 28.148165
v -16.973917 22.982237 28.148169
vt 0.458333 0.958333
vt 0.541667 0.104167
vt 0.458333 0.104167
vt 0.458333 0.958333
vt 0.541668 0.104166
vt 0.458333 0.104167
vt 0.541668 0.958333
vt 0.458333 0.104167
vt 0.458333 0.958333
vt 0.541667 0.104167
vt 0.541667 0.958333
vt 0.541667 0.958333
vt 0.458333 0.958333
vt 0.541667 0.104167
vt 0.458333 0.104167
vt 0.458333 0.958333
vt 0.541668 0.104166
vt 0.458333 0.104167
vt 0.541668 0.958333
vt 0.458333 0.104167
vt 0.458333 0.958333
vt 0.541667 0.104167
vt 0.541667 0.958333
vt 0.541667 0.958333
vt 0.458333 0.958333
vt 0.541667 0.104167
vt 0.458333 0.104167
vt 0.458333 0.958333
vt 0.541668 0.104166
vt 0.458333 0.104167
vt 0.541668 0.958333
vt 0.458333 0.104167
vt 0.458333 0.958333
vt 0.541667 0.104167
vt 0.541667 0.958333
vt 0.541667 0.958333
vt 0.000000 0.000000
vt 0.000000 1.000000
vt 1.000001 1.000001
vt 1.000000 0.000000
vt 1.000009 0.000094
vt 0.638991 0.999983
vt 0.125000 0.000000
vt 0.125000 1.000000
vt 0.771875 1.000000
vt 0.638991 0.999983
vt 1.000001 1.000001
vt 1.000009 0.000094
vt 0.125000 0.000000
vt 0.125000 1.000000
vt 0.771875 1.000000
vt 1.000000 0.000000
vt 0.000000 0.000000
vt 0.000000 1.000000
vt 0.375161 -0.000073
vt 0.771875 0.000000
vt 0.375161 -0.000073
vt 0.771875 0.000000
vt 1.000000 1.000000
vt 1.000009 0.000094
vt 1.000001 1.000001
vt 0.638991 0.999983
vt 0.125000 0.000000
vt 0.125000 1.000000
vt 0.771875 1.000000
vt 0.638991 0.999983
vt 1.000001 1.000001
vt 1.000009 0.000094
vt 0.125000 0.000000
vt 0.125000 1.000000
vt 0.771875 1.000000
vt 1.000000 0.000000
vt 0.000000 0.000000
vt 0.000000 1.000000
vt 0.375161 -0.000073
vt 0.771875 0.000000
vt 0.375161 -0.000073
vt 0.771875 0.000000
vt 1.000000 1.000000
vt 0.000000 0.000000
vt 0.000000 1.000000
vt 1.000000 0.000000
vt 1.000000 0.375000
vt -3.000000 0.000000
vt 1.000000 0.000000
vt 1.000000 0.000000
vt -3.000000 0.375000
vt -3.000000 0.375000
vt -3.000000 0.000000
vt 1.000000 0.375000
vt 0.458333 0.958333
vt 0.541667 0.104167
vt 0.458333 0.104167
vt 0.458333 0.958333
vt 0.541668 0.104166
vt 0.458333 0.104167
vt 0.541668 0.958333
vt 0.458333 0.104167
vt 0.458333 0.958333
vt 0.541667 0.104167
vt 0.541667 0.958333
vt 0.541667 0.958333
vt 1.000009 0.000094
vt 0.638991 0.999983
vt 1.000001 1.000001
vt 0.125000 0.000000
vt 0.771875 1.000000
vt 0.125000 1.000000
vt 0.638991 0.999983
vt 1.000009 0.000094
vt 1.000001 1.000001
vt 0.125000 0.000000
vt 0.771875 1.000000
vt 0.125000 1.000000
vt 1.000000 0.000000
vt 0.000000 1.000000
vt 0.000000 0.000000
vt 0.375161 -0.000073
vt 0.771875 0.000000
vt 0.375161 -0.000073
vt 0.771875 0.000000
vt 1.000000 1.000000
vt 0.000000 0.000000
vt 0.000000 1.000000
vt 1.000000 0.000000
vt 0.458333 0.958333
vt 0.541667 0.104167
vt 0.458333 0.104167
vt 0.458333 0.958333
vt 0.541668 0.104166
vt 0.458333 0.104167
vt 0.541668 0.958333
vt 0.458333 0.104167
vt 0.458333 0.958333
vt 0.541667 0.104167
vt 0.541667 0.958333
vt 0.541667 0.958333
vt -0.000078 1.001496
vt 1.992656 0.797653
vt 1.991711 1.001656
vt 0.000324 0.799149
vt 1.991711 1.001656
vt -0.000078 1.001496
vt 0.000324 0.799149
vt 1.992656 0.797653
vt 0.607071 0.943823
vt 0.842627 0.977732
vt 0.594688 0.977629
vt 0.835890 -0.876966
vt 0.602357 -0.842822
vt 0.587295 -0.876943
vt 0.842831 -0.842916
vt 0.842751 0.943873
vt 2.497612 0.258795
vt -3.460549 0.742118
vt -3.460218 0.258713
vt 2.611148 0.251676
vt 2.498243 0.752031
vt -3.573116 0.258586
vt -3.433944 0.248762
vt 2.497354 0.719440
vt -3.433630 0.738817
vt -3.547221 0.279456
vt -3.547143 0.786060
vt 2.609750 0.264389
vt 2.609407 0.769658
vt 2.611305 0.761569
vt -3.573805 0.767135
vt 2.497519 0.239154
vt 0.855143 -0.000183
vt 0.999978 0.999943
vt 1.000099 0.000058
vt 0.136574 0.999947
vt -0.000071 0.000089
vt 0.136550 0.000035
vt 6.851614 0.984382
vt 6.851859 -0.015632
vt -6.007787 0.999967
vt -5.842090 -0.000380
vt -6.007796 -0.000017
vt -5.843755 1.000004
vt 0.853733 -0.003051
vt 7.000246 0.985266
vt 6.999884 -0.015875
vt 0.855357 0.999916
vt 0.000007 1.000084
vt 0.853751 0.996906
vt 6.011963 0.000388
vt -0.006557 3.030308
vt -0.001256 -0.007487
vt 6.006662 3.034245
vt 0.000000 0.000000
vt 3.003984 0.000122
vt 2.233301 0.812484
vt 3.004062 0.812547
vt 0.000220 -0.000024
vt 3.003674 0.000251
vt 0.000000 0.000000
vt 3.004062 0.812547
vt 0.000077 0.812425
vt 3.003674 0.000251
vt 3.004062 0.812547
vt 2.209151 0.804611
vt 3.004062 0.812547
vt 1.502225 0.812421
vt 0.000388 0.812296
vt 0.000077 0.812425
vt 3.003674 0.000251
vt 0.000077 0.812425
vt 0.000000 0.000000
vt 0.751074 0.812455
vt 1.000111 0.999977
vt 1.000134 0.000013
vt 0.000099 0.000028
vt 1.000000 1.000391
vt 0.999951 0.000003
vt 0.000001 0.000032
vt 0.999979 1.000016
vt 1.000074 0.000081
vt 1.000111 0.999977
vt 0.000050 -0.000011
vt 1.000134 0.000013
vt 0.000050 0.999989
vt -0.000013 0.999987
vt 0.000094 0.999939
vt 0.000050 0.999989
vt 0.000000 0.000000
vt 1.000001 1.000001
vt 0.000000 1.000000
vt 1.000000 0.000000
vt 1.000009 0.000094
vt 0.638991 0.999983
vt 0.125000 0.000000
vt 0.771875 1.000000
vt 0.125000 1.000000
vt 0.638991 0.999983
vt 1.000009 0.000094
vt 1.000001 1.000001
vt 0.125000 0.000000
vt 0.771875 1.000000
vt 0.125000 1.000000
vt 1.000000 0.000000
vt 0.000000 1.000000
vt 0.000000 0.000000
vt 0.375161 -0.000073
vt 0.771875 0.000000
vt 0.375161 -0.000073
vt 0.771875 0.000000
vt 1.000000 1.000000
vt 1.000000 0.375000
vt -3.000197 0.000000
vt 1.000000 0.000000
vt 1.000000 0.000000
vt -3.000197 0.375000
vt -3.000197 0.375000
vt -3.000197 0.000000
vt 1.000000 0.375000
vt 0.458333 0.958333
vt 0.541667 0.104167
vt 0.458333 0.104167
vt 0.458333 0.958333
vt 0.541668 0.104166
vt 0.458333 0.104167
vt 0.541668 0.958333
vt 0.458333 0.104167
vt 0.458333 0.958333
vt 0.541667 0.104167
vt 0.541667 0.958333
vt 0.541667 0.958333
vn -0.7071 0.0000 0.7071
vn -0.7071 0.0000 -0.7071
vn 0.7071 0.0000 -0.7071
vn 0.7071 0.0000 0.7071
vn -0.7071 0.0000 0.7071
vn -0.7071 0.0000 -0.7071
vn 0.7071 0.0000 -0.7071
vn 0.7071 0.0000 0.7071
vn -0.7071 -0.0000 0.7071
vn -0.7071 0.0000 -0.7071
vn 0.7071 0.0000 -0.7071
vn 0.7071 -0.0000 0.7071
vn 0.0000 1.0000 0.0000
vn -1.0000 0.0000 0.0000
vn -0.0000 0.4278 -0.9039
vn 1.0000 0.0000 -0.0000
vn 0.0000 -0.0000 1.0000
vn -0.0000 -1.0000 -0.0000
vn -1.0000 0.0000 0.0000
vn -0.0000 0.4278 -0.9039
vn 1.0000 0.0000 -0.0000
vn 0.0000 -0.0000 1.0000
vn -0.0000 -1.0000 -0.0000
vn 0.0000 1.0000 0.0000
vn 0.7404 -0.6721 -0.0000
vn 0.0000 1.0000 0.0000
vn -0.7404 -0.6721 -0.0000
vn -0.7071 0.0000 0.7071
vn -0.7071 0.0000 -0.7071
vn 0.7071 0.0000 -0.7071
vn 0.7071 0.0000 0.7071
vn -1.0000 0.0000 0.0000
vn 0.0000 -0.4278 -0.9039
vn 1.0000 -0.0000 0.0000
vn 0.0000 -0.0000 1.0000
vn 0.0000 1.0000 0.0000
vn 0.0000 -1.0000 0.0000
vn -0.7071 0.0000 0.7071
vn -0.7071 0.0000 -0.7071
vn 0.7071 0.0000 -0.7071
vn 0.7071 0.0000 0.7071
vn -0.0000 1.0000 0.0000
vn -0.0000 -1.0000 -0.0000
vn 0.9725 0.0006 -0.2330
vn 0.9731 -0.0010 -0.2304
vn 0.9732 -0.0012 -0.2298
vn -0.9763 0.0043 0.2164
vn -0.9752 0.0020 0.2212
vn -0.9766 0.0049 0.2151
vn -1.0000 0.0009 0.0050
vn -1.0000 0.0003 0.0051
vn -1.0000 0.0000 0.0051
vn 0.9868 0.0007 0.1622
vn 0.9865 0.0014 0.1639
vn 0.9869 0.0004 0.1615
vn 1.0000 0.0007 0.0048
vn 1.0000 0.0019 0.0048
vn 1.0000 0.0027 0.0049
vn -0.9520 -0.0003 -0.3061
vn -0.9520 -0.0003 -0.3060
vn 0.9723 0.0010 -0.2335
vn -0.9749 0.0014 0.2225
vn -1.0000 0.0013 0.0050
vn 0.9864 0.0017 0.1645
vn 1.0000 -0.0000 0.0047
vn -0.9520 -0.0003 -0.3062
vn -1.0000 0.0000 0.0000
vn 1.0000 0.0000 0.0000
vn 0.0000 -1.0000 0.0000
vn -1.0000 -0.0000 0.0000
vn 0.0000 -0.4278 -0.9039
vn 1.0000 0.0000 0.0000
vn 0.0000 -0.0000 1.0000
vn 0.0000 1.0000 0.0000
vn 0.7404 -0.6721 -0.0000
vn 0.0000 1.0000 0.0000
vn -0.7404 -0.6721 -0.0000
vn -0.7071 -0.0000 0.7071
vn -0.7071 0.0000 -0.7071
vn 0.7071 0.0000 -0.7071
vn 0.7071 -0.0000 0.7071
usemtl None_miu256_mh001.png
f 99/146/43 95/147/43 89/148/43
f 94/149/43 100/150/43 98/151/43
f 101/152/43 99/146/43 100/150/43
f 99/146/43 102/153/43 95/147/43
f 94/149/43 101/152/43 100/150/43
f 101/152/43 102/153/43 99/146/43
usemtl None_pr32_3.png
f 78/212/67 97/210/67 81/213/67
f 80/214/68 91/215/68 87/216/68
f 93/217/68 74/218/68 85/219/68
f 90/220/67 86/221/67 88/222/67
f 78/212/67 96/223/67 97/210/67
f 80/214/68 72/224/68 91/215/68
f 93/217/68 92/225/68 74/218/68
f 90/220/67 77/226/67 86/221/67
usemtl None_miu64_mh002.png
f 87/192/43 88/193/43 89/194/43
f 72/195/42 90/196/42 91/197/42
f 92/198/42 78/199/42 74/200/42
f 93/201/43 85/202/43 94/203/43
f 88/193/43 86/204/43 89/194/43
f 89/194/43 95/205/43 87/192/43
f 95/205/43 80/206/43 87/192/43
f 72/195/42 77/207/42 90/196/42
f 92/198/42 96/208/42 78/199/42
f 81/209/43 97/210/43 98/211/43
f 97/210/43 93/201/43 98/211/43
f 98/211/43 93/201/43 94/203/43
usemtl None_miu128_mh001.png
f 1/1/1 2/2/1 3/3/1
f 4/4/2 5/5/2 2/6/2
f 6/7/3 7/8/3 5/5/3
f 8/9/4 3/10/4 7/8/4
f 1/1/1 4/11/1 2/2/1
f 4/4/2 6/7/2 5/5/2
f 6/7/3 8/9/3 7/8/3
f 8/9/4 1/12/4 3/10/4
f 9/13/5 10/14/5 11/15/5
f 12/16/6 13/17/6 10/18/6
f 14/19/7 15/20/7 13/17/7
f 16/21/8 11/22/8 15/20/8
f 9/13/5 12/23/5 10/14/5
f 12/16/6 14/19/6 13/17/6
f 14/19/7 16/21/7 15/20/7
f 16/21/8 9/24/8 11/22/8
f 17/25/9 18/26/9 19/27/9
f 20/28/10 21/29/10 18/30/10
f 22/31/11 23/32/11 21/29/11
f 24/33/12 19/34/12 23/32/12
f 17/25/9 20/35/9 18/26/9
f 20/28/10 22/31/10 21/29/10
f 22/31/11 24/33/11 23/32/11
f 24/33/12 17/36/12 19/34/12
f 47/91/28 48/92/28 49/93/28
f 50/94/29 51/95/29 48/96/29
f 52/97/30 53/98/30 51/95/30
f 54/99/31 49/100/31 53/98/31
f 47/91/28 50/101/28 48/92/28
f 50/94/29 52/97/29 51/95/29
f 52/97/30 54/99/30 53/98/30
f 54/99/31 47/102/31 49/100/31
f 63/126/38 64/127/38 65/128/38
f 66/129/39 67/130/39 64/131/39
f 68/132/40 69/133/40 67/130/40
f 70/134/41 65/135/41 69/133/41
f 63/126/38 66/136/38 64/127/38
f 66/129/39 68/132/39 67/130/39
f 68/132/40 70/134/40 69/133/40
f 70/134/41 63/137/41 65/135/41
f 71/138/42 72/139/42 73/140/42
f 74/141/42 75/142/42 76/143/42
f 71/138/42 77/144/42 72/139/42
f 74/141/42 78/145/42 75/142/42
f 117/258/78 118/259/78 119/260/78
f 120/261/79 121/262/79 118/263/79
f 122/264/80 123/265/80 121/262/80
f 124/266/81 119/267/81 123/265/81
f 117/258/78 120/268/78 118/259/78
f 120/261/79 122/264/79 121/262/79
f 122/264/80 124/266/80 123/265/80
f 124/266/81 117/269/81 119/267/81
usemtl None_pr128_8.png
f 29/41/14 27/39/14 26/42/14
f 30/43/15 26/44/15 25/45/15
f 25/46/16 28/47/16 31/48/16
f 31/49/17 28/50/17 27/51/17
f 30/52/18 32/53/18 31/54/18
f 29/41/14 26/42/14 30/55/14
f 30/43/15 25/45/15 32/56/15
f 25/46/16 31/48/16 32/57/16
f 31/49/17 27/51/17 29/58/17
f 30/52/18 31/54/18 29/59/18
f 37/60/19 35/61/19 34/62/19
f 38/63/20 34/64/20 33/65/20
f 33/66/21 36/67/21 39/68/21
f 39/69/22 36/70/22 35/71/22
f 38/72/23 40/73/23 39/74/23
f 37/60/19 34/62/19 38/75/19
f 38/63/20 33/65/20 40/76/20
f 33/66/21 39/68/21 40/77/21
f 39/69/22 35/71/22 37/78/22
f 38/72/23 39/74/23 37/79/23
f 55/103/32 56/104/32 57/105/32
f 58/106/33 59/107/33 56/108/33
f 59/109/34 60/110/34 61/111/34
f 60/112/35 57/113/35 61/114/35
f 58/115/36 60/116/36 62/117/36
f 55/103/32 58/118/32 56/104/32
f 58/106/33 62/119/33 59/107/33
f 59/109/34 62/120/34 60/110/34
f 60/112/35 55/121/35 57/113/35
f 58/115/36 55/122/36 60/116/36
f 103/231/70 104/232/70 105/228/70
f 106/233/71 107/234/71 104/235/71
f 107/236/72 108/237/72 109/238/72
f 108/239/73 105/240/73 109/241/73
f 106/242/74 108/243/74 110/244/74
f 103/231/70 106/245/70 104/232/70
f 106/233/71 110/246/71 107/234/71
f 107/236/72 110/247/72 108/237/72
f 108/239/73 103/248/73 105/240/73
f 106/242/74 103/249/74 108/243/74
usemtl None_pr64_15.png
f 79/170/44 72/171/45 80/172/46
f 75/173/47 81/174/48 82/175/49
f 71/176/50 82/175/51 83/177/52
f 74/178/53 84/179/54 85/180/55
f 76/181/56 79/182/57 84/179/58
f 77/183/59 83/177/59 86/184/60
f 79/170/44 73/185/61 72/171/45
f 75/173/47 78/186/62 81/174/48
f 71/176/50 75/173/63 82/175/51
f 74/178/53 76/181/64 84/179/54
f 76/181/56 73/187/65 79/182/57
f 77/183/59 71/176/66 83/177/59
usemtl None_pr128_22.png
f 101/154/43 79/155/43 102/156/43
f 94/157/43 84/158/43 101/154/43
f 79/155/43 95/159/43 102/156/43
f 100/160/43 83/161/43 82/162/43
f 98/163/43 82/162/43 81/164/43
f 83/161/43 89/165/43 86/166/43
f 101/154/43 84/158/43 79/155/43
f 94/157/43 85/167/43 84/158/43
f 79/155/43 80/168/43 95/159/43
f 100/160/43 99/169/43 83/161/43
f 98/163/43 100/160/43 82/162/43
f 83/161/43 99/169/43 89/165/43
usemtl None
f 41/83/25 42/84/25 43/85/25
f 44/86/26 45/87/26 41/83/26
f 46/88/27 43/85/27 42/84/27
f 41/83/25 45/87/25 42/84/25
f 44/86/26 46/89/26 45/87/26
f 46/88/27 44/90/27 43/85/27
f 111/250/75 112/251/75 113/252/75
f 114/253/76 115/254/76 111/250/76
f 116/255/77 113/252/77 112/251/77
f 111/250/75 115/254/75 112/251/75
f 114/253/76 116/256/76 115/254/76
f 116/255/77 114/257/77 113/252/77
usemtl None_miu64_mh006.png
f 76/188/42 71/189/42 73/190/42
f 76/188/42 75/191/42 71/189/42
usemtl None_pr32_1.png
f 25/37/13 26/38/13 27/39/13
f 25/37/13 27/39/13 28/40/13
f 33/80/24 34/81/24 35/61/24
f 33/80/24 35/61/24 36/82/24
f 59/123/37 57/105/37 56/124/37
f 59/123/37 61/125/37 57/105/37
f 107/227/69 105/228/69 104/229/69
f 107/227/69 109/230/69 105/228/69
