# Blender v2.79 (sub 0) OBJ File: ''
# www.blender.org
o OBJ_1034228_MDL_1034188_SA1
v -11.904376 19.892736 -0.067870
v -17.285807 19.892736 -0.067870
v -17.285807 19.892637 10.814590
v 11.415148 19.892736 -0.067870
v 11.415148 19.892637 10.814590
v 16.796576 19.892637 10.814590
v 11.616891 161.432938 241.204025
v 11.616891 161.432999 229.144806
v -11.702633 161.432999 229.144806
v -11.904376 19.892637 10.814590
v -17.084063 169.953568 229.144806
v 11.415148 11.372144 -0.067878
v -17.239883 11.372144 -0.067878
v -11.904376 11.372144 -0.067878
v -11.904376 11.372047 10.814587
v -11.702633 169.953568 229.144806
v -17.084063 169.953522 241.204025
v -17.980968 161.432938 241.204025
v -11.702633 161.432938 241.204025
v 16.998320 169.953522 241.204025
v 17.895224 161.433044 229.184280
v 16.998320 169.953568 229.144806
v 11.616891 169.953568 229.144806
v 11.616891 169.953522 241.204025
v 16.796576 19.892736 -0.067870
v 17.693480 11.372144 -0.067878
v -11.702633 169.953522 241.204025
v 11.415148 11.372047 10.814587
v -17.980968 161.433044 229.135574
v -17.258139 11.397987 10.809345
v 17.895224 161.432938 241.204025
v 17.693480 11.372142 10.817982
vt 0.000000 0.000000
vt 0.000000 0.000000
vt 0.000000 0.000000
vt 0.000000 0.000000
vt 0.000000 0.000000
vt 0.000000 0.000000
vt 0.000000 0.000000
vt 0.000000 0.000000
vt 0.000000 0.000000
vt 0.000000 0.000000
vt 0.000000 0.000000
vt 0.000000 0.000000
vt 0.000000 0.000000
vt 0.000000 0.000000
vt 0.000000 0.000000
vt 0.000000 0.000000
vt 0.000000 0.000000
vt 0.000000 0.000000
vt 0.000000 0.000000
vt 0.000000 0.000000
vt 0.000000 0.000000
vt 0.000000 0.000000
vt 0.000000 0.000000
vt 0.000000 0.000000
vt 0.000000 0.000000
vt 0.000000 0.000000
vt 0.000000 0.000000
vt 0.000000 0.000000
vt 0.000000 0.000000
vt 0.000000 0.000000
vt 0.000000 0.000000
vt 0.000000 0.000000
vn 0.0000 1.0000 0.0000
vn 0.0000 0.8241 -0.5664
vn -1.0000 0.0000 0.0005
vn -0.6324 0.4475 -0.6324
vn -0.9413 0.0000 -0.3376
vn 0.0000 0.0000 -1.0000
vn 1.0000 -0.0000 -0.0005
vn 1.0000 0.0000 -0.0004
vn 1.0000 -0.0000 0.0000
vn 0.0000 0.0000 1.0000
vn 0.2544 0.6755 0.6921
vn 0.9933 0.1043 -0.0503
vn 0.8087 0.5878 -0.0227
vn -0.7071 0.0000 0.7071
vn -0.5774 0.5773 0.5774
vn -1.0000 0.0000 0.0004
vn -0.9920 0.1045 -0.0709
vn 0.7818 0.6236 0.0000
vn 0.9945 0.1047 0.0000
vn 0.6143 0.6824 -0.3962
vn -0.9945 0.1047 0.0000
vn -1.0000 -0.0032 -0.0017
vn -1.0000 -0.0033 -0.0006
vn -1.0000 -0.0036 0.0001
vn 0.9932 0.1045 -0.0513
vn -1.0000 -0.0033 -0.0011
vn 0.9941 0.1046 -0.0278
vn -1.0000 -0.0054 -0.0017
s 1
f 1/1/1 2/2/1 3/3/1
f 4/4/1 5/5/1 6/6/1
f 7/7/1 8/8/1 9/9/1
f 10/10/2 3/3/2 11/11/2
f 5/5/3 4/4/4 12/12/5
f 13/13/6 2/2/6 1/1/6
f 12/12/1 14/14/1 15/15/1
f 10/10/7 15/15/8 14/14/9
f 10/10/7 16/16/8 9/9/7
f 17/17/10 18/18/10 19/19/10
f 20/20/11 21/21/12 22/22/13
f 23/23/2 22/22/2 6/6/2
f 7/7/14 20/20/11 24/24/15
f 8/8/3 23/23/16 5/5/3
f 12/12/6 25/25/6 26/26/6
f 8/8/3 7/7/14 24/24/15
f 23/23/1 24/24/15 20/20/11
f 17/17/1 27/27/1 16/16/1
f 27/27/9 19/19/9 9/9/7
f 28/28/2 15/15/2 9/9/2
f 29/29/17 11/11/17 3/3/17
f 6/6/18 26/26/19 25/25/20
f 18/18/21 17/17/21 11/11/21
f 30/30/22 3/3/23 2/2/24
f 6/6/25 22/22/13 21/21/12
f 1/1/1 3/3/1 10/10/1
f 4/4/4 6/6/18 25/25/20
f 7/7/1 9/9/1 19/19/1
f 10/10/2 11/11/2 16/16/2
f 5/5/3 12/12/5 28/28/16
f 13/13/6 1/1/6 14/14/6
f 12/12/1 15/15/1 28/28/1
f 10/10/7 14/14/9 1/1/9
f 10/10/7 9/9/7 15/15/8
f 17/17/10 19/19/10 27/27/10
f 20/20/19 31/31/19 21/21/19
f 23/23/2 6/6/2 5/5/2
f 7/7/14 31/31/10 20/20/11
f 8/8/3 5/5/3 28/28/16
f 12/12/5 4/4/4 25/25/20
f 8/8/3 24/24/15 23/23/16
f 23/23/1 20/20/11 22/22/13
f 17/17/1 16/16/1 11/11/1
f 27/27/9 9/9/7 16/16/8
f 28/28/2 9/9/2 8/8/2
f 29/29/26 3/3/23 30/30/22
f 6/6/25 32/32/27 26/26/19
f 18/18/21 11/11/21 29/29/21
f 30/30/22 2/2/24 13/13/28
f 6/6/25 21/21/12 32/32/27
