# Blender v2.79 (sub 0) OBJ File: ''
# www.blender.org
mtllib PathDiagonal.mtl
o PathDiagonal
v -17.838976 160.739548 228.936691
v 18.644491 160.739548 232.030350
v 17.931044 160.739548 228.922043
v 18.644489 11.152623 8.640900
v -18.203426 11.152624 10.958330
v 18.272797 11.152622 10.976703
v -18.766310 160.739548 231.955109
v -18.766314 11.152626 8.376654
v -0.123227 7.663084 120.571754
v -0.127898 7.594799 120.567093
v -0.123227 7.594799 120.571754
v -0.127898 7.663084 120.567093
v -0.123227 7.594799 120.562431
v -0.123227 7.663084 120.562431
v -0.118558 7.594799 120.567093
v -0.118558 7.663084 120.567093
v 17.931044 155.313034 228.896347
v 18.644491 155.313034 232.059692
v -18.766314 5.726096 8.411514
v -18.209814 5.726096 11.057413
v -17.838976 155.313034 228.942184
v 18.287781 5.726095 10.941836
v 18.644489 5.726095 8.657413
v -18.766310 155.313034 231.962433
v -18.766314 5.726100 0.062808
v 18.644491 160.739548 240.564362
v 18.644491 155.313034 240.564362
v 18.644489 5.726099 0.060990
v -18.766310 160.739548 240.566193
v -18.766310 155.313034 240.566193
v -18.766314 11.152628 0.062810
v 18.644489 11.152626 0.060992
v -8.959780 155.313034 231.986282
v 8.952643 5.726096 8.536305
v 8.952646 155.313034 232.011993
v -8.959785 5.726096 8.473905
v 13.370354 20.198828 3.336325
v 17.801258 20.198828 3.336325
v 17.801258 20.198828 0.628207
v 13.370354 20.198828 0.628207
v -13.369914 169.785797 237.113205
v -17.800819 169.785797 237.113205
v -17.800819 169.785797 239.821320
v -13.369914 169.785797 239.821320
v -17.887976 20.198830 3.336300
v -13.457072 20.198830 3.336300
v -13.457072 20.198830 0.628183
v -17.887976 20.198830 0.628183
v 17.888403 169.785797 237.113205
v 13.457501 169.785797 237.113205
v 13.457501 169.785797 239.821320
v 17.888403 169.785797 239.821320
v -8.442596 155.313034 228.929352
v -8.631549 5.726096 11.028056
v 9.059608 155.313034 228.918381
v 9.052559 5.726096 10.998710
v -14.549959 169.271698 232.075363
v -15.491447 168.234573 237.928055
v -15.491447 168.234573 232.075363
v -16.432930 169.271698 232.075363
v -14.549959 169.271698 237.928055
v -15.962191 19.166170 2.997835
v -16.432934 19.684723 5.701535
v -16.432934 19.684725 2.997835
v -16.432934 19.684723 8.405232
v -15.491447 18.647587 8.405232
v -14.549959 19.684725 2.997835
v -15.491447 19.684725 2.997835
v -14.549959 19.684723 5.701535
v -15.491447 18.647587 5.701534
v -15.491447 18.647589 2.997835
v -14.549959 19.684723 8.405232
v -16.432930 169.271698 237.928055
v 16.697676 169.271652 232.075394
v 15.756183 168.234528 237.928055
v 15.756183 168.234528 232.075394
v 14.814696 169.271652 232.075394
v 16.697676 169.271652 237.928055
v 15.285443 19.166189 2.997835
v 14.814702 19.684769 5.701560
v 14.814702 19.684771 2.997835
v 14.814702 19.684769 8.405232
v 15.756186 18.647633 8.405232
v 16.697678 19.684771 2.997835
v 15.756186 19.684771 2.997835
v 16.697678 19.684769 5.701560
v 15.756186 18.647633 5.701559
v 15.756186 18.647635 2.997835
v 16.697678 19.684769 8.405232
v 14.814696 169.271652 237.928055
v 15.798343 160.508057 237.978592
v 15.431177 160.508057 231.919846
v 15.751177 168.369553 232.054688
v 15.754005 19.140501 8.402047
v 15.754005 9.959708 8.402043
v 15.616135 11.072127 1.682244
v 15.798343 168.369553 237.978592
v 15.616135 18.933611 1.682246
v -15.450264 160.508057 237.978592
v -15.419960 168.369553 232.054688
v -15.739962 160.508057 231.919800
v -15.494603 19.140501 8.402035
v -15.494603 9.959709 8.402031
v -15.632472 11.072130 1.682220
v -15.450264 168.369553 237.978592
v -15.632472 18.933611 1.682222
v 13.457501 160.734299 239.821320
v 17.888401 160.734299 232.628693
v 17.888403 160.734299 239.821320
v 13.457497 160.734299 232.628693
v -17.800819 160.734299 239.821320
v -13.369918 160.734299 232.628693
v -13.369914 160.734299 239.821320
v -17.800819 160.734299 232.628693
v 17.801258 11.147307 0.628204
v 17.801258 11.147304 7.820829
v 13.370354 11.147307 0.628204
v 13.370354 11.147304 7.820829
v -13.457072 11.147307 0.628179
v -13.457072 11.147304 7.820818
v -17.887976 11.147307 0.628179
v -17.887976 11.147304 7.820818
vt 1.000009 0.000094
vt 1.000000 1.000000
vt 0.638991 0.999983
vt 0.125000 1.000000
vt 0.771875 1.000000
vt 0.771875 0.000000
vt 0.638991 0.999983
vt 1.000001 1.000001
vt 1.000009 0.000094
vt 0.125000 0.000000
vt 0.125000 1.000000
vt 0.771875 1.000000
vt 0.000000 0.000000
vt 0.000000 1.000000
vt 1.000000 1.000000
vt 0.375161 -0.000073
vt 0.125000 0.000000
vt 0.375161 -0.000073
vt 0.771875 0.000000
vt 1.000000 0.000000
vt 1.000009 0.000094
vt 1.000000 1.000000
vt 0.638991 0.999983
vt 0.125000 1.000000
vt 0.771875 1.000000
vt 0.771875 0.000000
vt 0.638991 0.999983
vt 1.000001 1.000001
vt 1.000009 0.000094
vt 0.125000 0.000000
vt 0.125000 1.000000
vt 0.771875 1.000000
vt 1.000000 0.000000
vt 0.000000 0.000000
vt 0.000000 1.000000
vt 0.375161 -0.000073
vt 0.125000 0.000000
vt 0.375161 -0.000073
vt 0.771875 0.000000
vt 1.000000 1.000000
vt 1.000009 0.000094
vt 1.000000 1.000000
vt 0.638991 0.999983
vt 0.125000 0.000000
vt 0.125000 1.000000
vt 0.771875 1.000000
vt 0.638991 0.999983
vt 1.000001 1.000001
vt 1.000009 0.000094
vt 0.125000 0.000000
vt 0.125000 1.000000
vt 0.771875 1.000000
vt 1.000000 0.000000
vt 0.000000 0.000000
vt 0.000000 1.000000
vt 0.375161 -0.000073
vt 0.771875 0.000000
vt 0.375161 -0.000073
vt 0.771875 0.000000
vt 1.000000 1.000000
vt 1.000009 0.000094
vt 1.000000 1.000000
vt 0.638991 0.999983
vt 0.125000 0.000000
vt 0.125000 1.000000
vt 0.771875 1.000000
vt 0.638991 0.999983
vt 1.000001 1.000001
vt 1.000009 0.000094
vt 0.125000 0.000000
vt 0.125000 1.000000
vt 0.771875 1.000000
vt 1.000000 0.000000
vt 0.000000 0.000000
vt 0.000000 1.000000
vt 0.375161 -0.000073
vt 0.771875 0.000000
vt 0.375161 -0.000073
vt 0.771875 0.000000
vt 1.000000 1.000000
vt 0.607071 0.943823
vt 0.842627 0.977732
vt 0.594688 0.977629
vt 0.835890 -0.876966
vt 0.602357 -0.842822
vt 0.587295 -0.876943
vt 0.842751 0.943873
vt 0.842831 -0.842916
vt -9.635637 -0.580293
vt -9.019468 -0.821255
vt -9.238425 0.611711
vt 9.982136 0.293390
vt 10.231046 -0.821254
vt 10.690289 -0.097692
vt -9.690289 0.487136
vt 10.477146 0.856772
vt -9.635637 -0.580293
vt -9.238425 0.611711
vt -9.019468 -0.821255
vt 9.982136 0.293390
vt 10.231046 -0.821254
vt 10.690289 -0.097692
vt -9.690289 0.487136
vt 10.477146 0.856772
vt 2.497612 0.258795
vt -3.460549 0.742118
vt -3.460218 0.258713
vt 2.611148 0.251676
vt 2.498243 0.752031
vt -3.573116 0.258586
vt -3.433630 0.738817
vt 2.497519 0.239154
vt 2.497354 0.719440
vt -3.547221 0.279456
vt -3.547143 0.786060
vt 2.609750 0.264389
vt 2.609407 0.769658
vt 2.611305 0.761569
vt -3.573805 0.767135
vt -3.433944 0.248762
vt 1.000111 0.999977
vt 0.000050 -0.000011
vt 1.000134 0.000013
vt 0.000099 0.000028
vt 1.000000 1.000391
vt 0.999951 0.000003
vt 0.000001 0.000032
vt 0.999979 1.000016
vt 1.000074 0.000081
vt 1.000111 0.999977
vt 0.000050 -0.000011
vt 1.000134 0.000013
vt 0.000050 0.999989
vt -0.000013 0.999987
vt 0.000094 0.999939
vt 0.000050 0.999989
vt -8.732283 0.375000
vt -9.000000 0.000000
vt -8.732283 0.000000
vt -8.732283 0.000000
vt -9.000000 0.375000
vt 1.000000 0.187500
vt 0.892097 0.375000
vt 1.000000 0.375000
vt 0.742637 0.375000
vt 0.742637 0.000000
vt 1.000000 0.375000
vt 1.000000 0.187500
vt 0.892097 0.375000
vt 0.892097 0.000000
vt 1.000000 0.000000
vt 0.892097 0.000000
vt 1.000000 0.000000
vt 0.742637 0.000000
vt 0.742637 0.375000
vt -9.000000 0.375000
vt -9.000000 0.000000
vt -8.732283 0.375000
vt -8.732283 0.375000
vt -9.000000 0.000000
vt -8.732283 0.000000
vt -8.732283 0.000000
vt -9.000000 0.375000
vt 1.000000 0.187500
vt 0.892097 0.375000
vt 1.000000 0.375000
vt 0.742638 0.375000
vt 0.742638 0.000000
vt 1.000000 0.375000
vt 1.000000 0.187500
vt 0.892097 0.375000
vt 0.892097 0.000000
vt 1.000000 0.000000
vt 0.892097 0.000000
vt 1.000000 0.000000
vt 0.742638 0.000000
vt 0.742638 0.375000
vt -9.000000 0.375000
vt -9.000000 0.000000
vt -8.732283 0.375000
vt 15.146392 0.000388
vt -0.006557 3.030308
vt -0.001256 -0.007487
vt 15.141091 3.034245
vt 0.000000 0.000000
vt 0.000000 1.000000
vt 1.000000 0.000000
vt 0.000000 0.000000
vt 0.000000 1.000000
vt 1.000000 0.000000
vt 0.000000 0.000000
vt 0.000000 1.000000
vt 1.000000 0.000000
vt 0.000000 0.000000
vt 0.000000 1.000000
vt 1.000000 0.000000
vt 0.000000 0.000000
vt 3.003984 0.000122
vt 2.233301 0.812484
vt 3.004062 0.812547
vt 0.000220 -0.000024
vt 3.003674 0.000251
vt 0.000000 0.000000
vt 3.004062 0.812547
vt 0.000077 0.812425
vt 3.003674 0.000251
vt 3.004062 0.812547
vt 2.209151 0.804611
vt 3.004062 0.812547
vt 1.502225 0.812421
vt 0.000388 0.812296
vt 0.000077 0.812425
vt 3.003674 0.000251
vt 0.000077 0.812425
vt 0.751074 0.812455
vt 0.855143 -0.000183
vt 0.999978 0.999943
vt 1.000099 0.000058
vt 0.136574 0.999947
vt -0.000071 0.000089
vt 0.136550 0.000035
vt 6.851859 -0.015632
vt -6.007787 0.999967
vt -5.842090 -0.000380
vt -6.007796 -0.000017
vt -5.843755 1.000004
vt 0.853733 -0.003051
vt 7.000246 0.985266
vt 6.999884 -0.015875
vt 0.855357 0.999916
vt 0.000007 1.000084
vt 6.851614 0.984382
vt 0.853751 0.996906
vt -0.000078 1.001496
vt 1.992656 0.797653
vt 1.991711 1.001656
vt 0.000324 0.799149
vt 1.991711 1.001656
vt -0.000078 1.001496
vt 0.000324 0.799149
vt 1.992656 0.797653
vt 0.458333 0.958333
vt 0.541667 0.104167
vt 0.458333 0.104167
vt 0.458333 0.958333
vt 0.541668 0.104166
vt 0.458333 0.104167
vt 0.541668 0.958333
vt 0.458333 0.104167
vt 0.458333 0.958333
vt 0.541667 0.104167
vt 0.541667 0.958333
vt 0.541667 0.958333
vn -1.0000 0.0000 0.0000
vn 0.0000 0.4439 -0.8961
vn 1.0000 0.0000 -0.0000
vn 0.0000 0.0000 1.0000
vn 0.0000 -1.0000 0.0000
vn 0.0000 0.4439 0.8961
vn 0.0000 0.0000 -1.0000
vn 0.0007 -0.9551 0.2962
vn 0.0009 -0.8244 0.5659
vn 0.0005 -0.8241 0.5665
vn 0.0015 -0.9552 0.2959
vn 0.9974 -0.0396 -0.0604
vn 0.9991 -0.0405 -0.0094
vn 0.9991 -0.0405 -0.0084
vn 1.0000 0.0000 -0.0078
vn 1.0000 0.0000 0.0014
vn 0.9999 0.0000 -0.0115
vn 0.9998 -0.0000 -0.0205
vn 1.0000 0.0000 -0.0080
vn 0.9988 -0.0411 0.0275
vn -0.9981 0.0398 0.0477
vn -0.9992 0.0406 0.0034
vn -0.9992 0.0406 0.0043
vn -1.0000 0.0000 -0.0011
vn -0.9998 -0.0000 0.0205
vn -1.0000 0.0000 -0.0051
vn -0.9988 0.0411 -0.0271
vn 0.0016 -0.8253 0.5647
vn 0.0017 -0.9597 0.2811
vn 0.0008 -0.8244 0.5660
vn 0.0015 -0.8702 0.4927
vn 0.7404 -0.6721 0.0000
vn 0.0000 1.0000 0.0000
vn -0.7404 -0.6721 -0.0000
vn -0.6753 -0.6130 0.4100
vn -0.7129 -0.6471 0.2702
vn -0.7288 -0.6615 0.1768
vn 0.0000 0.9569 -0.2905
vn 0.0000 0.8312 -0.5559
vn 0.7198 -0.6534 0.2345
vn 0.6753 -0.6131 0.4100
vn 0.7232 -0.6565 0.2147
vn -0.6753 -0.6131 0.4100
vn 0.0000 0.9571 -0.2898
vn -0.7404 -0.6722 -0.0000
vn 0.0002 0.8244 -0.5660
vn -0.0002 0.8248 -0.5655
vn -0.0002 0.8245 -0.5659
vn 0.0001 0.9632 -0.2687
vn 0.0001 0.9609 -0.2770
vn 0.0003 0.8245 -0.5658
vn 0.9750 0.0015 -0.2224
vn 0.9752 -0.0018 -0.2214
vn 0.9755 -0.0012 -0.2200
vn -0.9993 0.0034 0.0362
vn -0.9777 -0.0001 0.2098
vn -0.9919 0.0035 0.1268
vn -1.0000 0.0009 0.0011
vn 0.9878 -0.0001 0.1556
vn 0.9878 0.0022 0.1557
vn 0.9880 0.0005 0.1543
vn 0.9978 0.0037 0.0656
vn 1.0000 0.0001 0.0039
vn 0.9989 0.0028 0.0467
vn -0.9559 -0.0003 -0.2936
vn -0.9559 -0.0004 -0.2936
vn -0.9560 -0.0004 -0.2935
vn 0.9747 0.0011 -0.2237
vn -0.9779 0.0063 0.2090
vn -0.9770 0.0014 0.2130
vn -0.9777 -0.0001 0.2099
vn -1.0000 0.0000 0.0025
vn -1.0000 0.0000 0.0017
vn 0.9878 -0.0000 0.1558
vn 1.0000 -0.0000 0.0016
vn -0.9559 -0.0003 -0.2937
vn -0.7057 -0.0000 0.7085
vn -0.7067 0.0000 0.7075
vn -0.7079 -0.0000 -0.7063
vn -0.7067 0.0000 -0.7075
vn 0.7067 0.0000 -0.7075
vn 0.7080 0.0000 -0.7062
vn 0.7058 0.0000 0.7085
vn 0.7058 0.0000 0.7084
vn 0.7054 -0.0000 0.7088
vn -0.7053 0.0000 0.7089
vn -0.7080 0.0000 -0.7062
vn 0.7067 0.0000 0.7075
usemtl None_pr128_8.png
s 1
f 107/1/1 51/2/1 50/3/1
f 50/4/2 49/5/2 108/6/2
f 49/7/3 52/8/3 109/9/3
f 109/10/4 52/11/4 51/12/4
f 108/13/5 109/14/5 107/15/5
f 107/1/1 50/3/1 110/16/1
f 50/4/2 108/6/2 110/17/2
f 49/7/3 109/9/3 108/18/3
f 109/10/4 51/12/4 107/19/4
f 108/13/5 107/15/5 110/20/5
f 111/21/1 43/22/1 42/23/1
f 42/24/2 41/25/2 112/26/2
f 41/27/3 44/28/3 113/29/3
f 113/30/4 44/31/4 43/32/4
f 114/33/5 112/34/5 113/35/5
f 111/21/1 42/23/1 114/36/1
f 42/24/2 112/26/2 114/37/2
f 41/27/3 113/29/3 112/38/3
f 113/30/4 43/32/4 111/39/4
f 114/33/5 113/35/5 111/40/5
f 115/41/3 39/42/3 38/43/3
f 116/44/6 38/45/6 37/46/6
f 37/47/1 40/48/1 117/49/1
f 117/50/7 40/51/7 39/52/7
f 116/53/5 118/54/5 117/55/5
f 115/41/3 38/43/3 116/56/3
f 116/44/6 37/46/6 118/57/6
f 37/47/1 117/49/1 118/58/1
f 117/50/7 39/52/7 115/59/7
f 116/53/5 117/55/5 115/60/5
f 119/61/3 47/62/3 46/63/3
f 120/64/6 46/65/6 45/66/6
f 45/67/1 48/68/1 121/69/1
f 121/70/7 48/71/7 47/72/7
f 120/73/5 122/74/5 121/75/5
f 119/61/3 46/63/3 120/76/3
f 120/64/6 45/66/6 122/77/6
f 45/67/1 121/69/1 122/78/1
f 121/70/7 47/72/7 119/79/7
f 120/73/5 121/75/5 119/80/5
usemtl None
f 53/81/5 35/82/5 33/83/5
f 34/84/5 54/85/8 36/86/5
f 54/85/8 55/87/9 53/81/10
f 53/81/5 55/87/5 35/82/5
f 34/84/5 56/88/11 54/85/8
f 54/85/8 56/88/11 55/87/9
usemtl None_miu64_ig007.png
f 91/89/12 92/90/13 93/91/14
f 94/92/15 92/90/16 95/93/17
f 96/94/18 94/92/15 95/93/17
f 91/89/19 93/91/19 97/95/19
f 94/92/20 93/91/14 92/90/13
f 96/94/18 98/96/18 94/92/15
f 99/97/21 100/98/22 101/99/23
f 102/100/24 103/101/24 101/99/24
f 104/102/25 103/101/25 102/100/25
f 99/97/26 105/103/26 100/98/26
f 102/100/27 101/99/23 100/98/22
f 104/102/25 102/100/25 106/104/25
usemtl None_pr128_22.png
f 56/105/11 17/106/28 55/107/9
f 34/108/5 22/109/29 56/105/11
f 17/106/5 35/110/5 55/107/5
f 20/111/30 53/112/30 21/113/30
f 36/114/5 20/111/5 19/115/5
f 21/113/5 33/116/5 24/117/5
f 56/105/11 22/109/29 17/106/28
f 34/108/5 23/118/5 22/109/29
f 17/106/5 18/119/5 35/110/5
f 20/111/31 54/120/8 53/112/10
f 36/114/5 54/120/8 20/111/31
f 21/113/5 53/112/5 33/116/5
usemtl None_pr32_3.png
f 8/121/1 25/122/1 19/123/1
f 18/124/3 26/125/3 27/126/3
f 28/127/3 4/128/3 23/129/3
f 29/130/1 24/131/1 30/132/1
f 8/121/1 31/133/1 25/122/1
f 18/124/3 2/134/3 26/125/3
f 28/127/3 32/135/3 4/128/3
f 29/130/1 7/136/1 24/131/1
usemtl None_miu64_mh003.png
f 57/137/32 58/138/32 59/139/32
f 60/140/33 61/141/33 57/137/33
f 62/142/34 63/143/34 64/144/34
f 59/139/35 65/145/36 66/146/37
f 67/147/33 68/148/33 69/149/33
f 69/149/32 66/146/32 70/150/32
f 67/147/32 70/150/32 71/151/32
f 69/149/33 68/148/33 63/152/33
f 68/148/33 64/153/33 63/152/33
f 69/149/33 65/154/38 72/155/38
f 73/156/34 59/139/34 58/138/34
f 70/150/34 63/143/34 62/142/34
f 70/150/34 62/142/34 71/151/34
f 65/145/36 70/150/34 66/146/37
f 65/154/38 57/137/39 72/155/38
f 72/155/40 59/139/41 66/146/42
f 57/137/32 61/141/32 58/138/32
f 60/140/33 73/157/33 61/141/33
f 59/139/43 60/158/43 65/145/43
f 69/149/32 72/155/40 66/146/42
f 67/147/32 69/149/32 70/150/32
f 69/149/33 63/152/33 65/154/38
f 73/156/34 60/158/34 59/139/34
f 65/145/34 63/143/34 70/150/34
f 65/154/38 60/140/39 57/137/39
f 72/155/40 57/137/41 59/139/41
f 74/159/32 75/160/32 76/161/32
f 77/162/33 78/163/33 74/159/33
f 79/164/34 80/165/34 81/166/34
f 76/161/35 82/167/36 83/168/37
f 84/169/33 85/170/33 86/171/33
f 86/171/32 83/168/32 87/172/32
f 84/169/32 87/172/32 88/173/32
f 86/171/33 85/170/33 80/174/33
f 85/170/33 81/175/33 80/174/33
f 86/171/33 82/176/38 89/177/44
f 90/178/34 76/161/34 75/160/34
f 87/172/34 80/165/34 79/164/34
f 87/172/34 79/164/34 88/173/45
f 82/167/36 87/172/34 83/168/37
f 89/177/39 77/162/39 74/159/39
f 89/177/40 76/161/41 83/168/42
f 74/159/32 78/163/32 75/160/32
f 77/162/33 90/179/33 78/163/33
f 76/161/35 77/180/35 82/167/35
f 86/171/32 89/177/40 83/168/42
f 84/169/32 86/171/32 87/172/32
f 86/171/33 80/174/33 82/176/38
f 90/178/34 77/180/34 76/161/34
f 82/167/34 80/165/34 87/172/34
f 89/177/44 82/176/38 77/162/39
f 89/177/40 74/159/41 76/161/41
usemtl None_miu64_mh006.png
f 6/181/46 1/182/47 3/183/48
f 6/181/49 5/184/50 1/182/51
usemtl None_pr32_1.png
f 37/185/33 38/186/33 39/42/33
f 37/185/33 39/42/33 40/187/33
f 41/188/33 42/189/33 43/22/33
f 41/188/33 43/22/33 44/190/33
f 45/191/33 46/192/33 47/62/33
f 45/191/33 47/62/33 48/193/33
f 49/194/33 50/195/33 51/2/33
f 49/194/33 51/2/33 52/196/33
usemtl None_miu64_mh002.png
f 27/197/5 30/198/5 33/199/5
f 2/200/33 29/201/33 26/202/33
f 32/203/33 8/204/33 4/205/33
f 28/206/5 23/207/5 34/208/5
f 30/198/5 24/209/5 33/199/5
f 33/199/5 35/210/5 27/197/5
f 35/210/5 18/211/5 27/197/5
f 2/200/33 7/212/33 29/201/33
f 32/203/33 31/213/33 8/204/33
f 19/214/5 25/122/5 36/215/5
f 25/122/5 28/206/5 36/215/5
f 36/215/5 28/206/5 34/208/5
usemtl None_pr64_15.png
f 17/216/52 2/217/53 18/218/54
f 5/219/55 19/220/56 20/221/57
f 21/222/58 5/219/55 20/221/57
f 4/223/59 22/224/60 23/225/61
f 6/226/62 17/227/63 22/224/64
f 7/228/65 21/222/66 24/229/67
f 17/216/52 3/230/68 2/217/53
f 5/219/69 8/231/70 19/220/71
f 21/222/72 1/232/73 5/219/73
f 4/223/74 6/226/62 22/224/64
f 6/226/62 3/233/75 17/227/63
f 7/228/65 1/232/76 21/222/66
usemtl None_miu128_mh001.png
f 1/234/33 2/235/33 3/236/33
f 4/237/33 5/238/50 6/239/49
f 1/234/33 7/240/33 2/235/33
f 4/237/33 8/241/33 5/238/50
f 9/242/77 10/243/77 11/244/78
f 12/245/79 13/246/80 10/247/80
f 14/248/81 15/249/82 13/246/82
f 16/250/83 11/251/84 15/249/85
f 9/242/77 12/252/86 10/243/77
f 12/245/79 14/248/87 13/246/80
f 14/248/81 16/250/81 15/249/82
f 16/250/83 9/253/88 11/251/84
