mtllib RocketBase.mtl
v 105.470062 0.755758 -0.000855
v 100.738670 0.027119 -58.168938
v 91.338280 0.755767 -52.741627
v 116.324577 0.027109 -0.000977
v -91.362457 0.755767 -52.741383
v -116.349358 0.027109 -0.000244
v -105.494606 0.755758 -0.000244
v -100.762962 0.027119 -58.168697
v -52.753223 0.755773 -91.350609
v -58.180664 0.027126 -100.750999
v 58.156242 0.027126 -100.751244
v 52.728924 0.755773 -91.350853
v -52.753716 0.755743 91.349632
v -0.012333 0.027090 116.336418
v -0.012333 0.755741 105.481781
v -58.181030 0.027093 100.750023
v 58.156116 0.027093 100.750023
v 52.728802 0.755743 91.349632
v -0.012211 0.027128 -116.337265
v -0.012211 0.755775 -105.482643
v -91.362701 0.755749 52.740891
v -100.762962 0.027100 58.168209
v 100.738541 0.027100 58.167839
v 91.338280 0.755749 52.740402
v 6.553444 -0.000140 107.140930
v -1.696639 0.919253 85.514091
v 1.671973 0.919253 85.514091
v -6.577988 -0.000140 107.140930
v 1.672095 0.919281 -85.515076
v -6.577867 -0.000105 -107.141792
v -1.696517 0.919281 -85.515076
v 6.553566 -0.000105 -107.141792
v 85.502495 0.919267 1.683451
v 107.129211 -0.000121 -6.566510
v 107.129211 -0.000123 6.564800
v 85.502495 0.919268 -1.685161
v -107.153877 -0.000121 -6.565899
v -85.527039 0.919267 1.684062
v -107.153877 -0.000123 6.565411
v -85.527039 0.919268 -1.684672
v -73.228050 0.919275 -44.216297
v -96.082253 0.244112 -47.884941
v -74.912354 0.919274 -41.299019
v -89.516716 0.244114 -59.256966
v -96.082253 0.244096 47.884457
v -73.228172 0.919260 44.215809
v -74.912476 0.919261 41.298405
v -89.516716 0.244094 59.256481
v -44.228508 0.919255 73.215111
v -47.897278 0.244088 96.069298
v -41.311226 0.919255 74.899414
v -59.269180 0.244089 89.503777
v 44.203720 0.919255 73.215233
v 47.872486 0.244088 96.069298
v 59.244389 0.244089 89.503654
v 41.286438 0.919255 74.899536
v 73.203506 0.919260 44.215324
v 96.057709 0.244096 47.883965
v 74.887810 0.919261 41.298038
v 89.492172 0.244094 59.256111
v 73.203629 0.919275 -44.216541
v 96.058067 0.244112 -47.885185
v 89.492294 0.244114 -59.257210
v 74.888054 0.919274 -41.299263
v 47.872608 0.244120 -96.070526
v 44.203842 0.919279 -73.216331
v 59.244514 0.244119 -89.504875
v 41.286560 0.919280 -74.900635
v -47.896908 0.244120 -96.070282
v -44.228264 0.919279 -73.216080
v -41.310982 0.919280 -74.900391
v -59.268936 0.244119 -89.504753
v 91.479439 21.067196 4.086030
v 97.360283 -2.280958 46.116497
v 107.473686 -2.280952 8.371708
v 81.365906 21.067188 41.830944
v 81.265656 21.067204 -42.206924
v 107.373192 -2.280949 -8.748426
v 97.259666 -2.280943 -46.492977
v 91.378944 21.067196 -4.462742
v 4.074914 21.067211 -91.492142
v 46.105019 -2.280935 -97.372864
v 8.360474 -2.280933 -107.486389
v 41.819340 21.067209 -81.378609
v -42.218651 21.067209 -81.277992
v -8.759539 -2.280933 -107.385887
v -46.504456 -2.280935 -97.272240
v -4.473979 21.067211 -91.391640
v -91.504105 21.067196 -4.087244
v -97.384712 -2.280943 -46.117477
v -107.498482 -2.280949 -8.372929
v -81.390335 21.067204 -41.831795
v -81.289955 21.067188 42.206196
v -107.397980 -2.280952 8.747205
v -97.284332 -2.280958 46.491875
v -91.403610 21.067196 4.461527
v -4.099337 21.067181 91.491165
v -46.129688 -2.280967 97.371765
v -8.384895 -2.280968 107.485542
v -41.844131 21.067183 81.377396
v 42.194107 21.067060 81.277130
v 8.735117 -2.280968 107.385040
v 46.479908 -2.280966 97.271271
v 4.449557 21.067059 91.390785
v 77.709480 -17.813620 40.851101
v 87.822884 -17.813614 3.106310
v 87.722504 -17.813614 -3.482913
v 77.609100 -17.813606 -41.227219
v 40.839504 -17.813601 -77.722054
v 3.094956 -17.813599 -87.835587
v -3.494266 -17.813601 -87.735085
v -41.238937 -17.813601 -77.621437
v -77.733658 -17.813608 -40.852085
v -87.847672 -17.813614 -3.107537
v -87.747055 -17.813614 3.481808
v -77.633522 -17.813622 41.226475
v -40.864170 -17.813627 77.720955
v -3.119501 -17.813629 87.834732
v 3.469722 -17.813627 87.734230
v 41.214516 -17.813627 77.620575
v 47.963829 0.750495 77.287331
v 77.275848 0.750499 47.975548
v -47.988369 0.750520 -77.288193
v -77.300278 0.750515 -47.976528
v -77.300278 0.750499 47.975918
v -47.988739 0.750495 77.287331
v 77.275978 0.750515 -47.976650
v 47.963947 0.750520 -77.288429
vt 0.000000 -1.000000
vt 0.482353 0.000000
vt 0.003922 0.000000
vt 0.482353 -1.000000
vt 0.482353 0.000000
vt 0.000000 -1.000000
vt 0.003922 0.000000
vt 0.482353 -1.000000
vt 0.482353 0.000000
vt 0.000000 -1.000000
vt 0.482353 -1.000000
vt 0.003922 0.000000
vt 0.482353 -1.000000
vt 0.003922 0.000000
vt 0.000000 -1.000000
vt 0.482353 0.000000
vt 0.482353 0.000000
vt 0.000000 -1.000000
vt 0.003922 0.000000
vt 0.482353 -1.000000
vt 0.482353 -1.000000
vt 0.003922 0.000000
vt 0.482353 0.000000
vt 0.000000 -1.000000
vt 0.482353 0.000000
vt 0.000000 -1.000000
vt 0.003922 0.000000
vt 0.482353 -1.000000
vt 0.003922 0.000000
vt 0.482353 -1.000000
vt 0.000000 -1.000000
vt 0.482353 0.000000
vt 0.482353 0.000000
vt 0.000000 -1.000000
vt 0.003922 0.000000
vt 0.482353 -1.000000
vt 0.003922 0.000000
vt 0.482353 -1.000000
vt 0.000000 -1.000000
vt 0.482353 0.000000
vt 0.000000 -1.000000
vt 0.482353 0.000000
vt 0.482353 -1.000000
vt 0.003922 0.000000
vt 0.482353 -1.000000
vt 0.003922 0.000000
vt 0.482353 0.000000
vt 0.000000 -1.000000
vt 1.003539 -0.001796
vt -0.000383 1.001284
vt 1.003539 1.001284
vt -0.000383 -0.001796
vt 1.003539 -0.001796
vt -0.000383 1.001284
vt 1.003539 1.001284
vt -0.000383 -0.001796
vt 1.003539 -0.001796
vt -0.000383 1.001284
vt 1.003539 1.001284
vt -0.000383 -0.001796
vt 1.003539 -0.001796
vt -0.000383 1.001284
vt 1.003539 1.001284
vt -0.000383 -0.001796
vt 1.003539 -0.001796
vt -0.000383 1.001284
vt 1.003539 1.001284
vt -0.000383 -0.001796
vt 1.003539 -0.001796
vt -0.000383 1.001284
vt 1.003539 1.001284
vt -0.000383 -0.001796
vt 1.003539 -0.001796
vt -0.000383 1.001284
vt 1.003539 1.001284
vt -0.000383 -0.001796
vt 1.003539 -0.001796
vt -0.000383 1.001284
vt 1.003539 1.001284
vt -0.000383 -0.001796
vt 1.003922 -1.000000
vt 0.000000 -0.074510
vt 1.003922 -0.074510
vt 0.000000 -1.000000
vt 0.000000 -0.074510
vt 1.003922 -1.000000
vt 1.003922 -0.074510
vt 0.000000 -1.000000
vt 0.000000 -0.074510
vt 1.003922 -1.000000
vt 1.003922 -0.074510
vt 0.000000 -1.000000
vt 0.000000 -0.074510
vt 1.003922 -1.000000
vt 1.003922 -0.074510
vt 0.000000 -1.000000
vt 0.501965 1.000032
vt 0.000004 1.000032
vt 0.000004 0.000032
vt 0.000004 1.000032
vt 0.501965 1.000032
vt 0.000004 0.000032
vt 0.998070 -0.003125
vt -0.005852 -1.003125
vt -0.005852 -0.003125
vt 0.998070 -1.003125
vt 0.501965 1.000032
vt 0.000004 1.000032
vt 0.000004 0.000032
vt 0.000004 1.000032
vt 0.501965 1.000032
vt 0.000004 0.000032
vt 0.998070 -0.003125
vt -0.005852 -1.003125
vt -0.005852 -0.003125
vt 0.998070 -1.003125
vt 0.501965 1.000032
vt 0.000004 1.000032
vt 0.000004 0.000032
vt 0.000004 1.000032
vt 0.501965 1.000032
vt 0.000004 0.000032
vt 0.998070 -0.003125
vt -0.005852 -1.003125
vt -0.005852 -0.003125
vt 0.998070 -1.003125
vt 0.501965 1.000032
vt 0.000004 1.000032
vt 0.000004 0.000032
vt 0.000004 1.000032
vt 0.501965 1.000032
vt 0.000004 0.000032
vt 0.998070 -0.003125
vt -0.005852 -1.003125
vt -0.005852 -0.003125
vt 0.998070 -1.003125
vt 0.501965 1.000032
vt 0.000004 1.000032
vt 0.000004 0.000032
vt 0.000004 1.000032
vt 0.501965 1.000032
vt 0.000004 0.000032
vt 0.998070 -0.003125
vt -0.005852 -1.003125
vt -0.005852 -0.003125
vt 0.998070 -1.003125
vt 0.501965 1.000032
vt 0.000004 1.000032
vt 0.000004 0.000032
vt 0.000004 1.000032
vt 0.501965 1.000032
vt 0.000004 0.000032
vt 0.998070 -0.003125
vt -0.005852 -1.003125
vt -0.005852 -0.003125
vt 0.998070 -1.003125
vt 0.501965 1.000032
vt 0.000004 1.000032
vt 0.000004 0.000032
vt 0.000004 1.000032
vt 0.501965 1.000032
vt 0.000004 0.000032
vt 0.998070 -0.003125
vt -0.005852 -1.003125
vt -0.005852 -0.003125
vt 0.998070 -1.003125
vt 0.501965 1.000032
vt 0.000004 1.000032
vt 0.000004 0.000032
vt 0.000004 1.000032
vt 0.501965 1.000032
vt 0.000004 0.000032
vt 0.998070 -0.003125
vt -0.005852 -1.003125
vt -0.005852 -0.003125
vt 0.998070 -1.003125
vt 0.000000 0.000000
vt 2.007843 -1.000000
vt 2.007843 0.000000
vt 0.000000 -1.000000
vt 0.000000 0.000000
vt 2.007843 -1.000000
vt 2.007843 0.000000
vt 0.000000 -1.000000
vt 0.000000 0.000000
vt 2.007843 -1.000000
vt 2.007843 0.000000
vt 0.000000 -1.000000
vt 0.000000 0.000000
vt 2.007843 -1.000000
vt 2.007843 0.000000
vt 0.000000 -1.000000
vt 0.000000 0.000000
vt 2.007843 -1.000000
vt 2.007843 0.000000
vt 0.000000 -1.000000
vt 0.000000 0.000000
vt 2.007843 -1.000000
vt 2.007843 0.000000
vt 0.000000 -1.000000
vt 0.000000 0.000000
vt 2.007843 -1.000000
vt 2.007843 0.000000
vt 0.000000 -1.000000
vt 0.000000 0.000000
vt 2.007843 -1.000000
vt 2.007843 0.000000
vt 0.000000 -1.000000
vt 0.000000 0.000000
vt 2.007843 -1.000000
vt 2.007843 0.000000
vt 0.000000 -1.000000
vt 0.000000 0.000000
vt 2.007843 -1.000000
vt 2.007843 0.000000
vt 0.000000 -1.000000
vt 0.000000 0.000000
vt 2.007843 -1.000000
vt 2.007843 0.000000
vt 0.000000 -1.000000
vt 0.000000 0.000000
vt 2.007843 -1.000000
vt 2.007843 0.000000
vt 0.000000 -1.000000
vn 0.0000 -0.9991 -0.0425
vn 0.0000 0.9991 -0.0425
vn -0.0425 -0.9991 -0.0000
vn 0.0425 -0.9991 -0.0000
vn -0.0270 0.9995 -0.0156
vn -0.0191 -0.9977 0.0654
vn -0.0270 0.9995 0.0156
vn -0.0191 -0.9977 -0.0654
vn -0.0156 0.9995 0.0270
vn 0.0654 -0.9977 0.0191
vn 0.0156 0.9995 0.0270
vn 0.0188 0.9995 0.0241
vn 0.0270 0.9995 0.0156
vn 0.0241 0.9995 0.0187
vn 0.0270 0.9995 -0.0156
vn 0.0191 -0.9977 0.0654
vn 0.0156 0.9995 -0.0270
vn -0.0654 -0.9977 -0.0191
vn -0.0156 0.9995 -0.0270
vn 0.0654 -0.9977 -0.0191
vn -0.0670 0.8102 -0.5824
vn 0.3659 0.4045 0.8382
vn 0.7359 0.4045 -0.5429
vn -0.3489 0.8102 0.4710
vn -0.3492 0.8102 -0.4709
vn 0.7359 0.4045 0.5429
vn 0.3659 0.4045 -0.8382
vn -0.0670 0.8102 0.5824
vn -0.5824 0.8102 0.0670
vn 0.8382 0.4045 -0.3659
vn -0.5429 0.4045 -0.7359
vn 0.4710 0.8102 0.3489
vn -0.4709 0.8102 0.3492
vn 0.5429 0.4045 -0.7359
vn -0.8382 0.4045 -0.3659
vn 0.5823 0.8102 0.0667
vn 0.0670 0.8102 0.5824
vn -0.3659 0.4045 -0.8382
vn -0.7359 0.4045 0.5429
vn 0.3492 0.8102 -0.4709
vn 0.3492 0.8102 0.4709
vn -0.7359 0.4045 -0.5429
vn -0.3659 0.4045 0.8382
vn 0.0670 0.8102 -0.5824
vn 0.5824 0.8102 -0.0670
vn -0.8382 0.4045 0.3659
vn 0.5429 0.4045 0.7359
vn -0.4709 0.8102 -0.3492
vn 0.4709 0.8102 -0.3492
vn -0.5429 0.4045 0.7359
vn 0.8382 0.4045 0.3659
vn -0.5824 0.8102 -0.0670
vn 0.0241 0.9995 0.0188
vn 0.0215 0.9995 0.0215
vn 0.0215 -0.9995 0.0215
vn -0.0190 -0.9977 0.0654
vn 0.0654 -0.9977 -0.0190
vn 0.0215 -0.9995 -0.0215
vn 0.0654 -0.9977 0.0190
vn -0.0190 -0.9977 -0.0654
vn -0.0215 -0.9995 0.0215
vn -0.0654 -0.9977 -0.0190
vn 0.0190 -0.9977 0.0654
vn -0.9718 0.0859 0.2195
vn -0.7319 0.0859 -0.6760
vn -0.7319 0.0859 0.6760
vn -0.9718 0.0859 -0.2194
vn 0.2194 0.0859 0.9718
vn -0.6760 0.0859 0.7319
vn 0.6760 0.0859 0.7319
vn -0.2194 0.0859 0.9718
vn 0.9718 0.0859 -0.2194
vn 0.7319 0.0859 0.6760
vn 0.7319 0.0859 -0.6760
vn 0.9718 0.0859 0.2195
vn -0.2194 0.0859 -0.9718
vn 0.6760 0.0859 -0.7319
vn -0.6760 0.0859 -0.7319
vn 0.2194 0.0859 -0.9718
vn 0.0670 0.9978 0.0000
vn 0.0580 0.9978 -0.0335
vn -0.0580 0.9978 -0.0335
vn -0.0670 0.9978 0.0000
vn -0.0335 0.9978 -0.0580
vn 0.0335 0.9978 -0.0580
vn -0.0335 0.9978 0.0580
vn 0.0000 0.9978 0.0670
vn 0.0335 0.9978 0.0580
vn -0.0000 0.9978 -0.0670
vn -0.0580 0.9978 0.0335
vn 0.0580 0.9978 0.0335
usemtl pr128_17
f 1/177/80 2/178/81 3/179/81
f 2/178/81 1/177/80 4/180/80
f 5/181/82 6/182/83 7/183/83
f 6/182/83 5/181/82 8/184/82
f 9/185/84 8/186/82 5/187/82
f 8/186/82 9/185/84 10/188/84
f 3/189/81 11/190/85 12/191/85
f 11/190/85 3/189/81 2/192/81
f 13/193/86 14/194/87 15/195/87
f 14/194/87 13/193/86 16/196/86
f 15/197/87 17/198/88 18/199/88
f 17/198/88 15/197/87 14/200/87
f 12/201/85 19/202/89 20/203/89
f 19/202/89 12/201/85 11/204/85
f 20/205/89 10/206/84 9/207/84
f 10/206/84 20/205/89 19/208/89
f 21/209/90 16/210/86 13/211/86
f 16/210/86 21/209/90 22/212/90
f 18/213/88 23/214/91 24/215/91
f 23/214/91 18/213/88 17/216/88
f 7/217/83 22/218/90 21/219/90
f 22/218/90 7/217/83 6/220/83
f 24/221/91 4/222/80 1/223/80
f 4/222/80 24/221/91 23/224/91
usemtl miu64_mh005
f 25/1/1 26/2/1 27/3/1
f 26/2/1 25/1/1 28/4/1
f 29/5/2 30/6/2 31/7/2
f 30/6/2 29/5/2 32/8/2
f 33/9/3 34/10/3 35/11/3
f 34/10/3 33/9/3 36/12/3
f 37/13/4 38/14/4 39/15/4
f 38/14/4 37/13/4 40/16/4
f 41/17/5 42/18/5 43/19/5
f 42/18/5 41/17/5 44/20/6
f 45/21/7 46/22/7 47/23/7
f 46/22/7 45/21/7 48/24/8
f 49/25/9 50/26/9 51/27/9
f 50/26/9 49/25/9 52/28/10
f 53/29/11 54/30/11 55/31/12
f 54/30/11 53/29/11 56/32/11
f 57/33/13 58/34/13 59/35/13
f 58/34/13 57/33/13 60/36/14
f 61/37/15 62/38/15 63/39/16
f 62/38/15 61/37/15 64/40/15
f 65/41/17 66/42/17 67/43/18
f 66/42/17 65/41/17 68/44/17
f 69/45/19 70/46/19 71/47/19
f 70/46/19 69/45/19 72/48/20
usemtl miu64_mh001
f 73/49/21 74/50/22 75/51/23
f 74/50/22 73/49/21 76/52/24
f 77/53/25 78/54/26 79/55/27
f 78/54/26 77/53/25 80/56/28
f 81/57/29 82/58/30 83/59/31
f 82/58/30 81/57/29 84/60/32
f 85/61/33 86/62/34 87/63/35
f 86/62/34 85/61/33 88/64/36
f 89/65/37 90/66/38 91/67/39
f 90/66/38 89/65/37 92/68/40
f 93/69/41 94/70/42 95/71/43
f 94/70/42 93/69/41 96/72/44
f 97/73/45 98/74/46 99/75/47
f 98/74/46 97/73/45 100/76/48
f 101/77/49 102/78/50 103/79/51
f 102/78/50 101/77/49 104/80/52
usemtl pr128_15
f 74/97/22 76/98/24 105/99/64
f 73/100/21 75/101/23 106/102/65
f 73/103/21 105/104/64 76/105/24
f 105/104/64 73/103/21 106/106/65
f 78/107/26 80/108/28 107/109/66
f 77/110/25 79/111/27 108/112/67
f 77/113/25 107/114/66 80/115/28
f 107/114/66 77/113/25 108/116/67
f 82/117/30 84/118/32 109/119/68
f 81/120/29 83/121/31 110/122/69
f 81/123/29 109/124/68 84/125/32
f 109/124/68 81/123/29 110/126/69
f 86/127/34 88/128/36 111/129/70
f 85/130/33 87/131/35 112/132/71
f 85/133/33 111/134/70 88/135/36
f 111/134/70 85/133/33 112/136/71
f 90/137/38 92/138/40 113/139/72
f 89/140/37 91/141/39 114/142/73
f 89/143/37 113/144/72 92/145/40
f 113/144/72 89/143/37 114/146/73
f 94/147/42 96/148/44 115/149/74
f 93/150/41 95/151/43 116/152/75
f 93/153/41 115/154/74 96/155/44
f 115/154/74 93/153/41 116/156/75
f 98/157/46 100/158/48 117/159/76
f 97/160/45 99/161/47 118/162/77
f 97/163/45 117/164/76 100/165/48
f 117/164/76 97/163/45 118/166/77
f 102/167/50 104/168/52 119/169/78
f 101/170/49 103/171/51 120/172/79
f 101/173/49 119/174/78 104/175/52
f 119/174/78 101/173/49 120/176/79
usemtl pr128_14
f 60/81/53 121/82/54 55/83/12
f 121/82/54 60/81/53 122/84/54
f 123/85/55 44/86/56 72/87/57
f 44/86/56 123/85/55 124/88/55
f 125/89/58 52/90/59 48/91/60
f 52/90/59 125/89/58 126/92/58
f 127/93/61 67/94/62 63/95/63
f 67/94/62 127/93/61 128/96/61
