mtllib Tank.mtl
v -30.141876 92.087288 -31.752649
v -30.141876 73.770378 31.745928
v -30.141876 92.087273 31.745932
v -30.141876 73.770393 -31.752653
v 33.356709 73.770378 31.745928
v 33.356709 92.087273 31.745932
v 33.356709 73.770393 -31.752653
v 33.356709 92.087288 -31.752649
v -29.836594 51.790092 31.440643
v -26.565561 48.737289 -28.176344
v -26.565561 48.737282 28.169611
v -29.836594 51.790100 -31.447376
v 29.780516 48.737289 -28.176344
v 33.051430 51.790100 -31.447376
v 29.780516 48.737282 28.169611
v 33.051430 51.790092 31.440643
v -29.941002 75.724174 31.545053
v -23.748545 -109.276505 31.545025
v -23.748545 75.724174 31.545053
v -29.941002 -109.276505 31.545025
v -29.941002 75.724174 25.352720
v -29.941002 -109.276505 25.352692
v 33.155956 75.724174 31.545053
v 33.155956 -109.276505 25.352692
v 33.155956 75.724174 25.352720
v 33.155956 -109.276505 31.545025
v 26.963501 75.724174 31.545053
v 26.963501 -109.276505 31.545025
v 33.155956 75.724190 -31.551779
v 26.963501 -109.276489 -31.551807
v 26.963501 75.724190 -31.551779
v 33.155956 -109.276489 -31.551807
v 33.155956 75.724190 -25.359446
v 33.155956 -109.276489 -25.359474
v -29.941002 75.724190 -31.551779
v -29.941002 -109.276489 -25.359474
v -29.941002 75.724190 -25.359446
v -29.941002 -109.276489 -31.551807
v -23.748545 75.724190 -31.551779
v -23.748545 -109.276489 -31.551807
v -17.084736 159.249237 -45.130325
v -43.519440 159.249237 -18.695377
v 1.607416 159.249237 -0.003348
v 20.299690 159.249237 -45.130207
v 46.734394 159.249237 -18.695499
v 46.734394 159.249237 18.688683
v 20.299690 159.249237 45.123627
v -17.084856 159.249237 45.123508
v -43.519562 159.249237 18.688805
v -43.519562 85.859535 18.688791
v -43.519440 85.859535 -18.695391
v -17.084736 85.859543 -45.130337
v 20.299690 85.859543 -45.130219
v 46.734394 85.859535 -18.695513
v 46.734394 85.859535 18.688669
v 20.299690 85.859528 45.123615
v -17.084856 85.859528 45.123497
v 28.759289 48.771721 -31.203150
v -25.544334 76.788773 -31.203144
v -26.576551 74.575356 -31.203146
v 29.791386 50.985256 -31.203150
v 29.791386 74.575356 -31.142092
v -26.576551 50.985256 -31.142096
v -25.544334 48.771721 -31.142096
v 28.759289 76.788773 -31.142090
v -25.544334 48.771713 31.196417
v 28.759289 76.788757 31.196423
v 29.791386 74.575340 31.196421
v -26.576551 50.985249 31.196417
v -26.576551 74.575340 31.135366
v 29.791386 50.985249 31.135363
v 28.759289 48.771713 31.135363
v -25.544334 76.788757 31.135368
v -29.592369 48.771721 -27.155239
v -29.592369 76.788757 27.148512
v -29.592369 74.575340 28.180607
v -29.592369 50.985256 -28.187336
v -29.531313 50.985249 28.180603
v -29.531313 74.575356 -28.187332
v -29.531313 48.771713 27.148506
v -29.531313 76.788773 -27.155233
v 32.807201 48.771713 27.148506
v 32.807201 76.788773 -27.155233
v 32.807201 74.575356 -28.187332
v 32.807201 50.985249 28.180603
v 32.746147 50.985256 -28.187336
v 32.746147 74.575340 28.180607
v 32.746147 48.771721 -27.155239
v 32.746147 76.788757 27.148512
v -29.836594 23.215733 31.440639
v -29.836594 23.215744 -31.447380
v 33.051430 23.215733 31.440639
v 33.051430 23.215744 -31.447380
v 45.801086 -1.598486 -80.979698
v 45.936115 -1.598486 -80.494553
v 45.745617 -1.598486 -80.956841
v 45.991589 -1.598486 -80.517410
v 46.182087 -1.598486 -80.055122
v 46.317116 -1.598486 -79.569977
v 46.126614 -1.598486 -80.032265
v 46.372585 -1.598486 -79.592834
v 25.399771 -1.598485 -83.773270
v 25.222128 -1.598485 -84.244484
v 25.452993 -1.598485 -83.800972
v 25.168905 -1.598485 -84.216782
v 24.938042 -1.598485 -84.660294
v 24.760397 -1.598485 -85.131500
v 24.991262 -1.598485 -84.687996
v 24.707176 -1.598485 -85.103798
v 81.045006 -3.297982 -103.800011
v 81.820000 -3.297982 -104.540001
v 81.820000 -3.297982 -103.800011
v 81.045006 -3.297982 -104.540001
v 38.795002 -3.297983 -98.349998
v 38.645000 -3.297983 -97.709999
v 38.645000 -3.297983 -98.500000
v 38.245003 -3.297983 -97.709999
v 38.245003 -3.297983 -98.500000
v 38.005001 -3.297983 -97.950005
v 38.005001 -3.297983 -98.349998
v 38.795002 -3.297983 -97.950005
v 80.855003 -3.297982 -103.615005
v 80.894981 -3.297982 -102.954994
v 80.854980 -3.297982 -103.004997
v 80.129982 -3.297982 -102.954994
v 80.170006 -3.297982 -103.004997
v 80.130020 -3.297982 -103.665001
v 80.170013 -3.297982 -103.615005
v 80.895012 -3.297982 -103.665001
vt 2.000130 -0.000142
vt 0.000482 0.999933
vt 2.000170 0.999803
vt 0.000064 -0.000037
vt 1.999813 -0.000173
vt 0.000043 0.999963
vt 2.000231 0.999859
vt 0.000003 -0.000043
vt 1.999813 -0.000173
vt 0.000043 0.999963
vt 2.000231 0.999859
vt 0.000003 -0.000043
vt 1.999813 -0.000173
vt 0.000043 0.999963
vt 2.000231 0.999859
vt 0.000003 -0.000043
vt -0.219452 1.301419
vt 0.377224 1.276292
vt 0.377224 1.301419
vt -0.219451 1.276292
vt -0.219452 1.401929
vt 0.377224 1.376803
vt 0.377223 1.401931
vt 0.360706 1.371489
vt -0.235970 1.396616
vt -0.235970 1.371489
vt 0.365152 1.207351
vt -0.231524 1.232477
vt -0.231523 1.207351
vt 0.365152 1.232479
vt -0.219452 1.326546
vt 0.377223 1.301419
vt 0.377224 1.326547
vt -0.219452 1.301419
vt -0.219452 1.376803
vt 0.377225 1.351675
vt 0.377224 1.376801
vt 0.360707 1.346361
vt -0.235970 1.371489
vt -0.235969 1.346361
vt -0.235970 1.252952
vt 0.336650 1.270978
vt -0.230833 1.270978
vt 0.353167 1.276291
vt -0.219452 1.258265
vt 0.348031 1.258265
vt -0.214316 1.258265
vt 0.348031 1.240239
vt 0.353167 1.258265
vt -0.219452 1.240239
vt -0.219451 1.326547
vt 0.377224 1.351674
vt -0.219452 1.351675
vt 0.377225 1.326547
vt -0.000019 0.999824
vt 1.990144 -0.002644
vt 2.000229 1.000065
vt 0.000005 0.000012
vt 1.990144 -0.002644
vt -0.000019 0.999824
vt 0.000005 0.000012
vt 2.000229 1.000065
vt 2.000229 1.000065
vt 2.000164 -0.000031
vt -0.000019 0.999824
vt 0.000005 0.000012
vt 0.000022 0.999829
vt 1.000091 0.999941
vt 0.464340 -0.000045
vt 1.000091 0.999941
vt 0.000022 0.999832
vt 1.000091 0.999941
vt 0.000022 0.999832
vt 1.000091 0.999941
vt 0.000022 0.999832
vt 0.999970 0.000033
vt 0.999991 1.000007
vt 0.000024 1.000009
vt -0.001663 -0.002643
vt 0.999991 1.000007
vt 0.999970 0.000033
vt -0.001663 -0.002643
vt 0.000024 1.000009
vt 0.999970 0.000033
vt 0.999991 1.000007
vt 0.000024 1.000009
vt -0.001663 -0.002643
vt 0.999970 0.000033
vt 0.999991 1.000007
vt 0.999970 0.000033
vt 0.999991 1.000007
vt 0.000024 1.000009
vt -0.000138 -0.000020
vt 0.999970 0.000033
vt 0.999991 1.000007
vt 0.000024 1.000009
vt -0.000138 -0.000020
vt 0.000024 1.000009
vt -0.001663 -0.002643
vt 0.999970 0.000033
vt 0.999991 1.000007
vt 0.000024 1.000009
vt -0.001663 -0.002643
vt 0.999970 0.000033
vt 0.999991 1.000007
vt 0.318232 -0.606705
vt 0.173945 1.219434
vt 0.173945 -0.506509
vt 0.318232 1.319630
vt 0.758127 -0.473566
vt 0.659680 1.352577
vt 0.659680 -0.373370
vt 0.758127 1.452768
vt 0.416679 -0.606705
vt 0.318232 1.219435
vt 0.318232 -0.506509
vt 0.416679 1.319630
vt 0.561232 1.452768
vt 0.659680 -0.373370
vt 0.659680 1.352577
vt 0.561232 -0.473566
vt 3.440759 0.996954
vt 3.931572 -13.666808
vt 3.931572 0.996952
vt 3.440759 -13.666808
vt 2.949945 0.996954
vt 2.949945 -13.666808
vt 2.456097 0.996960
vt 2.946910 -13.666808
vt 2.946910 0.996960
vt 2.456097 -13.666808
vt 1.965285 0.996964
vt 1.965285 -13.666808
vt 1.471436 0.996960
vt 1.962249 -13.666808
vt 1.962249 0.996960
vt 1.471436 -13.666808
vt 0.980624 0.996964
vt 0.980624 -13.666808
vt 0.486776 0.996960
vt 0.977589 -13.666808
vt 0.977589 0.996960
vt 0.486776 -13.666808
vt -0.004037 0.996964
vt -0.004037 -13.666808
vt 0.000000 -1.000000
vt 3.345098 0.000000
vt 0.000000 0.000000
vt 3.345098 -1.000000
vt 6.694118 -1.000000
vt 10.039216 0.000000
vt 6.694118 0.000000
vt 10.039216 -1.000000
vt 0.000000 -1.000000
vt 3.345098 0.000000
vt 0.000000 0.000000
vt 3.345098 -1.000000
vt 6.694118 -1.000000
vt 10.039216 0.000000
vt 6.694118 0.000000
vt 10.039216 -1.000000
vt 2.007843 0.000000
vt 0.000000 -1.000000
vt 2.007843 -1.000000
vt 0.000000 0.000000
vt 1.247059 -0.996078
vt 2.007843 0.333333
vt 0.776471 -1.000000
vt 1.376471 1.003922
vt 0.145098 -0.329412
vt 0.623529 1.000000
vt 0.000000 0.321569
vt 1.870588 -0.321569
vt 0.000000 0.000000
vt 1.000000 0.000000
vt 1.000000 1.000000
vt 0.000000 0.000000
vt 1.000000 1.000000
vt 1.000000 0.000000
vt 1.000000 1.000000
vt 0.000000 0.000000
vt 1.000000 1.000000
vt 1.000000 0.000000
vt 1.000000 1.000000
vt 0.000000 0.000000
vt 1.000000 0.000000
vt 1.000000 1.000000
vt 0.000000 0.000000
vt 1.000000 0.000000
vt 0.000000 0.000000
vt 1.000000 0.000000
vt 1.000000 1.000000
vn 0.7071 0.0000 -0.7071
vn 0.4889 -0.7224 0.4889
vn 0.4889 -0.7224 -0.4889
vn 0.7071 -0.0000 0.7071
vn -0.7071 -0.0000 -0.7071
vn -0.4889 -0.7224 -0.4889
vn -0.7071 -0.0000 0.7071
vn -0.4889 -0.7224 0.4889
vn 0.0000 -0.0000 1.0000
vn 0.0000 0.0000 -1.0000
vn 1.0000 0.0000 0.0000
vn -1.0000 -0.0000 0.0000
vn -0.2971 0.6303 -0.7173
vn -0.7173 0.6303 -0.2971
vn 0.0000 1.0000 0.0000
vn 0.2971 0.6303 -0.7173
vn 0.7173 0.6303 -0.2971
vn 0.7173 0.6303 0.2971
vn 0.2971 0.6303 0.7173
vn -0.2971 0.6303 0.7173
vn -0.7173 0.6303 0.2971
vn -0.9239 -0.0000 0.3827
vn -0.9239 0.0000 -0.3827
vn -0.3827 0.0000 -0.9239
vn 0.3827 0.0000 -0.9239
vn 0.9239 0.0000 -0.3827
vn 0.9239 -0.0000 0.3827
vn 0.3827 -0.0000 0.9239
vn -0.3827 -0.0000 0.9239
vn -0.3895 -0.8346 -0.3895
vn -0.3895 -0.8346 0.3895
vn 0.3895 -0.8346 -0.3895
vn 0.3895 -0.8346 0.3895
vn -0.0000 -1.0000 0.0000
vn -0.0000 -1.0000 0.0000
vn 0.0000 -1.0000 0.0000
vn 0.0000 -1.0000 0.0000
vn 0.0000 -1.0000 0.0000
usemtl pr64_18
f 94/146/34 95/147/34 96/148/34
f 95/147/34 94/146/34 97/149/34
f 98/150/34 99/151/34 100/152/34
f 99/151/34 98/150/34 101/153/34
f 102/154/35 103/155/35 104/156/35
f 103/155/35 102/154/35 105/157/35
f 106/158/35 107/159/35 108/160/35
f 107/159/35 106/158/35 109/161/35
usemtl wire_228153184.001_pr128_27_-_Copy.png
f 1/55/5 2/56/7 3/57/7
f 2/56/7 1/55/5 4/58/5
f 3/59/7 5/60/4 6/61/4
f 5/60/4 3/59/7 2/62/7
f 6/61/4 7/63/1 8/64/1
f 7/63/1 6/61/4 5/60/4
f 8/64/1 4/65/5 1/66/5
f 4/65/5 8/64/1 7/63/1
usemtl pr128_29
f 122/174/38 123/175/38 124/176/38
f 124/177/38 123/175/38 125/178/38
f 124/177/38 125/179/38 126/180/38
f 126/181/38 125/179/38 127/182/38
f 126/181/38 127/183/38 128/184/38
f 123/185/38 122/186/38 129/187/38
f 129/188/38 128/189/38 127/182/38
f 128/190/38 129/191/38 122/192/38
usemtl wire_228153184.001_pr128_7.png
f 9/106/3 10/107/30 11/108/31
f 10/107/30 9/106/3 12/109/2
f 12/110/2 13/111/32 10/112/30
f 13/111/32 12/110/2 14/113/8
f 14/114/8 15/115/33 13/116/32
f 15/115/33 14/114/8 16/117/6
f 16/118/6 11/119/31 15/120/33
f 11/119/31 16/118/6 9/121/3
f 17/122/7 18/123/9 19/124/9
f 18/123/9 17/122/7 20/125/7
f 21/126/12 20/125/7 17/122/7
f 20/125/7 21/126/12 22/127/12
f 23/128/4 24/129/11 25/130/11
f 24/129/11 23/128/4 26/131/4
f 27/132/9 26/131/4 23/128/4
f 26/131/4 27/132/9 28/133/9
f 29/134/1 30/135/10 31/136/10
f 30/135/10 29/134/1 32/137/1
f 33/138/11 32/137/1 29/134/1
f 32/137/1 33/138/11 34/139/11
f 35/140/5 36/141/12 37/142/12
f 36/141/12 35/140/5 38/143/5
f 39/144/10 38/143/5 35/140/5
f 38/143/5 39/144/10 40/145/10
usemtl wire_228153184.001
f 41/67/13 42/68/14 43/69/15
f 41/67/13 43/69/15 44/70/16
f 44/70/16 43/69/15 45/71/17
f 46/72/18 45/71/17 43/69/15
f 46/72/18 43/69/15 47/73/19
f 47/73/19 43/69/15 48/74/20
f 43/69/15 49/75/21 48/74/20
f 49/75/21 43/69/15 42/68/14
usemtl pr_2kage32
f 110/162/36 111/163/36 112/164/36
f 111/163/36 110/162/36 113/165/36
f 114/166/37 115/167/37 116/168/37
f 116/168/37 115/167/37 117/169/37
f 116/168/37 117/169/37 118/170/37
f 118/170/37 117/169/37 119/171/37
f 118/170/37 119/171/37 120/172/37
f 115/167/37 114/166/37 121/173/37
usemtl wire_228153184.001_pr32_2.png
f 58/17/9 59/18/9 60/19/9
f 59/18/9 58/17/9 61/20/9
f 62/21/9 63/22/9 64/23/9
f 63/24/9 62/25/9 65/26/9
f 66/27/10 67/28/10 68/29/10
f 67/28/10 66/27/10 69/30/10
f 70/31/10 71/32/10 72/33/10
f 71/32/10 70/31/10 73/34/10
f 74/35/11 75/36/11 76/37/11
f 75/38/11 74/39/11 77/40/11
f 78/41/12 79/42/12 80/43/12
f 79/44/12 78/45/12 81/46/12
f 82/47/12 83/48/12 84/49/12
f 83/48/12 82/47/12 85/50/12
f 86/51/11 87/52/11 88/53/11
f 87/52/11 86/51/11 89/54/11
usemtl wire_228153184.001_pr128_34_-_Copy.png
f 50/76/22 49/77/21 42/78/14
f 50/76/22 42/78/14 51/79/23
f 51/80/23 42/81/14 41/82/13
f 51/80/23 41/82/13 52/83/24
f 52/83/24 41/82/13 44/84/16
f 52/83/24 44/84/16 53/85/25
f 53/86/25 44/87/16 45/88/17
f 53/86/25 45/88/17 54/89/26
f 54/90/26 45/91/17 46/92/18
f 54/90/26 46/92/18 55/93/27
f 55/94/27 46/95/18 47/96/19
f 55/94/27 47/96/19 56/97/28
f 56/98/28 47/99/19 48/100/20
f 56/98/28 48/100/20 57/101/29
f 57/102/29 48/103/20 49/104/21
f 57/102/29 49/104/21 50/105/22
usemtl wire_228153184.001_pr128_6.png
f 90/1/1 12/2/2 9/3/3
f 12/2/2 90/1/1 91/4/4
f 92/5/5 9/6/3 16/7/6
f 9/6/3 92/5/5 90/8/1
f 93/9/7 16/10/6 14/11/8
f 16/10/6 93/9/7 92/12/5
f 91/13/4 14/14/8 12/15/2
f 14/14/8 91/13/4 93/16/7
