mtllib Tank.mtl
v -24.113501 73.669830 -25.402117
v -24.113501 59.016304 25.396744
v -24.113501 73.669823 25.396749
v -24.113501 59.016315 -25.402121
v 26.685368 59.016304 25.396744
v 26.685368 73.669823 25.396749
v 26.685368 59.016315 -25.402121
v 26.685368 73.669830 -25.402117
v -23.869276 41.432076 25.152517
v -21.252449 38.989834 -22.541073
v -21.252449 38.989826 22.535690
v -23.869276 41.432079 -25.157900
v 23.824413 38.989834 -22.541073
v 26.441145 41.432079 -25.157900
v 23.824413 38.989826 22.535690
v 26.441145 41.432076 25.152517
v -23.952803 60.579342 25.236046
v -18.998837 -87.421204 25.236017
v -18.998837 60.579342 25.236046
v -23.952803 -87.421204 25.236017
v -23.952803 60.579342 20.282179
v -23.952803 -87.421204 20.282150
v 26.524765 60.579342 25.236046
v 26.524765 -87.421204 20.282150
v 26.524765 60.579342 20.282179
v 26.524765 -87.421204 25.236017
v 21.570801 60.579342 25.236046
v 21.570801 -87.421204 25.236017
v 26.524765 60.579353 -25.241421
v 21.570801 -87.421196 -25.241449
v 21.570801 60.579353 -25.241421
v 26.524765 -87.421196 -25.241449
v 26.524765 60.579353 -20.287556
v 26.524765 -87.421196 -20.287584
v -23.952803 60.579353 -25.241421
v -23.952803 -87.421196 -20.287584
v -23.952803 60.579353 -20.287556
v -23.952803 -87.421196 -25.241449
v -18.998837 60.579353 -25.241421
v -18.998837 -87.421196 -25.241449
v -13.667789 127.399391 -36.104256
v -34.815552 127.399391 -14.956296
v 1.285933 127.399391 -0.002673
v 16.239752 127.399391 -36.104164
v 37.387516 127.399391 -14.956394
v 37.387516 127.399391 14.950952
v 16.239752 127.399391 36.098907
v -13.667885 127.399391 36.098812
v -34.815651 127.399391 14.951050
v 23.007431 39.017376 -24.962519
v -20.435469 61.431019 -24.962513
v -21.261242 59.660286 -24.962515
v 23.833109 40.788204 -24.962519
v 23.833109 59.660286 -24.913671
v -21.261242 40.788204 -24.913675
v -20.435469 39.017376 -24.913675
v 23.007431 61.431019 -24.913670
v -20.435469 39.017372 24.957136
v 23.007431 61.431007 24.957140
v 23.833109 59.660275 24.957138
v -21.261242 40.788200 24.957136
v -21.261242 59.660275 24.908295
v 23.833109 40.788200 24.908293
v 23.007431 39.017372 24.908293
v -20.435469 61.431007 24.908297
v -23.673895 39.017376 -21.724190
v -23.673895 61.431007 21.718811
v -23.673895 59.660275 22.544487
v -23.673895 40.788204 -22.549868
v -23.625051 40.788200 22.544485
v -23.625051 59.660286 -22.549864
v -23.625051 39.017372 21.718807
v -23.625051 61.431019 -21.724186
v 26.245762 39.017372 21.718807
v 26.245762 61.431019 -21.724186
v 26.245762 59.660286 -22.549864
v 26.245762 40.788200 22.544485
v 26.196918 40.788204 -22.549868
v 26.196918 59.660275 22.544487
v 26.196918 39.017376 -21.724190
v 26.196918 61.431007 21.718811
v -34.815651 68.687630 14.951036
v -34.815552 68.687630 -14.956310
v -13.667789 68.687637 -36.104267
v 16.239752 68.687637 -36.104172
v 37.387516 68.687630 -14.956408
v 37.387516 68.687630 14.950938
v 16.239752 68.687622 36.098896
v -13.667885 68.687622 36.098801
v -23.869276 18.572584 25.152512
v -23.869276 18.572598 -25.157904
v 26.441145 18.572584 25.152512
v 26.441145 18.572598 -25.157904
vt 0.000022 0.999829
vt 1.000091 0.999941
vt 0.464340 -0.000045
vt 1.000091 0.999941
vt 0.000022 0.999832
vt 1.000091 0.999941
vt 0.000022 0.999832
vt 1.000091 0.999941
vt 0.000022 0.999832
vt 0.999970 0.000033
vt 0.999991 1.000007
vt 0.000024 1.000009
vt -0.001663 -0.002643
vt 0.999991 1.000007
vt 0.999970 0.000033
vt -0.001663 -0.002643
vt 0.000024 1.000009
vt 0.999970 0.000033
vt 0.999991 1.000007
vt 0.000024 1.000009
vt -0.001663 -0.002643
vt 0.999970 0.000033
vt 0.999991 1.000007
vt 0.999970 0.000033
vt 0.999991 1.000007
vt 0.000024 1.000009
vt -0.000138 -0.000020
vt 0.999970 0.000033
vt 0.999991 1.000007
vt 0.000024 1.000009
vt -0.000138 -0.000020
vt 0.000024 1.000009
vt -0.001663 -0.002643
vt 0.999970 0.000033
vt 0.999991 1.000007
vt 0.000024 1.000009
vt -0.001663 -0.002643
vt 0.999970 0.000033
vt 0.999991 1.000007
vt -0.000019 0.999824
vt 1.990144 -0.002644
vt 2.000229 1.000065
vt 0.000005 0.000012
vt 1.990144 -0.002644
vt -0.000019 0.999824
vt 0.000005 0.000012
vt 2.000229 1.000065
vt 2.000229 1.000065
vt 2.000164 -0.000031
vt -0.000019 0.999824
vt 0.000005 0.000012
vt 0.318232 -0.606705
vt 0.173945 1.219434
vt 0.173945 -0.506509
vt 0.318232 1.319630
vt 0.758127 -0.473566
vt 0.659680 1.352577
vt 0.659680 -0.373370
vt 0.758127 1.452768
vt 0.416679 -0.606705
vt 0.318232 1.219435
vt 0.318232 -0.506509
vt 0.416679 1.319630
vt 0.561232 1.452768
vt 0.659680 -0.373370
vt 0.659680 1.352577
vt 0.561232 -0.473566
vt 3.440759 0.996954
vt 3.931572 -13.666808
vt 3.931572 0.996952
vt 3.440759 -13.666808
vt 2.949945 0.996954
vt 2.949945 -13.666808
vt 2.456097 0.996960
vt 2.946910 -13.666808
vt 2.946910 0.996960
vt 2.456097 -13.666808
vt 1.965285 0.996964
vt 1.965285 -13.666808
vt 1.471436 0.996960
vt 1.962249 -13.666808
vt 1.962249 0.996960
vt 1.471436 -13.666808
vt 0.980624 0.996964
vt 0.980624 -13.666808
vt 0.486776 0.996960
vt 0.977589 -13.666808
vt 0.977589 0.996960
vt 0.486776 -13.666808
vt -0.004037 0.996964
vt -0.004037 -13.666808
vt -0.219452 1.301419
vt 0.377224 1.276292
vt 0.377224 1.301419
vt -0.219451 1.276292
vt -0.219452 1.401929
vt 0.377224 1.376803
vt 0.377223 1.401931
vt 0.360706 1.371489
vt -0.235970 1.396616
vt -0.235970 1.371489
vt 0.365152 1.207351
vt -0.231524 1.232477
vt -0.231523 1.207351
vt 0.365152 1.232479
vt -0.219452 1.326546
vt 0.377223 1.301419
vt 0.377224 1.326547
vt -0.219452 1.301419
vt -0.219452 1.376803
vt 0.377225 1.351675
vt 0.377224 1.376801
vt 0.360707 1.346361
vt -0.235970 1.371489
vt -0.235969 1.346361
vt -0.235970 1.252952
vt 0.336650 1.270978
vt -0.230833 1.270978
vt 0.353167 1.276291
vt -0.219452 1.258265
vt 0.348031 1.258265
vt -0.214316 1.258265
vt 0.348031 1.240239
vt 0.353167 1.258265
vt -0.219452 1.240239
vt -0.219451 1.326547
vt 0.377224 1.351674
vt -0.219452 1.351675
vt 0.377225 1.326547
vt 2.000130 -0.000142
vt 0.000482 0.999933
vt 2.000170 0.999803
vt 0.000064 -0.000037
vt 1.999813 -0.000173
vt 0.000043 0.999963
vt 2.000231 0.999859
vt 0.000003 -0.000043
vt 1.999813 -0.000173
vt 0.000043 0.999963
vt 2.000231 0.999859
vt 0.000003 -0.000043
vt 1.999813 -0.000173
vt 0.000043 0.999963
vt 2.000231 0.999859
vt 0.000003 -0.000043
vn -0.2971 0.6303 -0.7173
vn -0.7173 0.6303 -0.2971
vn 0.0000 1.0000 0.0000
vn 0.2971 0.6303 -0.7173
vn 0.7173 0.6303 -0.2971
vn 0.7173 0.6303 0.2971
vn 0.2971 0.6303 0.7173
vn -0.2971 0.6303 0.7173
vn -0.7173 0.6303 0.2971
vn -0.9239 -0.0000 0.3827
vn -0.9239 0.0000 -0.3827
vn -0.3827 0.0000 -0.9239
vn 0.3827 0.0000 -0.9239
vn 0.9239 0.0000 -0.3827
vn 0.9239 -0.0000 0.3827
vn 0.3827 -0.0000 0.9239
vn -0.3827 -0.0000 0.9239
vn -0.7071 0.0000 -0.7071
vn -0.7071 -0.0000 0.7071
vn 0.7071 -0.0000 0.7071
vn 0.7071 0.0000 -0.7071
vn 0.4889 -0.7224 -0.4889
vn -0.3895 -0.8346 -0.3895
vn -0.3895 -0.8346 0.3895
vn 0.4889 -0.7224 0.4889
vn 0.3895 -0.8346 -0.3895
vn -0.4889 -0.7224 0.4889
vn 0.3895 -0.8346 0.3895
vn -0.4889 -0.7224 -0.4889
vn 0.0000 -0.0000 1.0000
vn -1.0000 -0.0000 0.0000
vn 1.0000 0.0000 0.0000
vn 0.0000 0.0000 -1.0000
usemtl wire_228153184.001_pr128_27_-_Copy.png
f 1/40/18 2/41/19 3/42/19
f 2/41/19 1/40/18 4/43/18
f 3/44/19 5/45/20 6/46/20
f 5/45/20 3/44/19 2/47/19
f 6/46/20 7/48/21 8/49/21
f 7/48/21 6/46/20 5/45/20
f 8/49/21 4/50/18 1/51/18
f 4/50/18 8/49/21 7/48/21
usemtl wire_228153184.001_pr128_7.png
f 9/52/22 10/53/23 11/54/24
f 10/53/23 9/52/22 12/55/25
f 12/56/25 13/57/26 10/58/23
f 13/57/26 12/56/25 14/59/27
f 14/60/27 15/61/28 13/62/26
f 15/61/28 14/60/27 16/63/29
f 16/64/29 11/65/24 15/66/28
f 11/65/24 16/64/29 9/67/22
f 17/68/19 18/69/30 19/70/30
f 18/69/30 17/68/19 20/71/19
f 21/72/31 20/71/19 17/68/19
f 20/71/19 21/72/31 22/73/31
f 23/74/20 24/75/32 25/76/32
f 24/75/32 23/74/20 26/77/20
f 27/78/30 26/77/20 23/74/20
f 26/77/20 27/78/30 28/79/30
f 29/80/21 30/81/33 31/82/33
f 30/81/33 29/80/21 32/83/21
f 33/84/32 32/83/21 29/80/21
f 32/83/21 33/84/32 34/85/32
f 35/86/18 36/87/31 37/88/31
f 36/87/31 35/86/18 38/89/18
f 39/90/33 38/89/18 35/86/18
f 38/89/18 39/90/33 40/91/33
usemtl wire_228153184.001
f 41/1/1 42/2/2 43/3/3
f 41/1/1 43/3/3 44/4/4
f 44/4/4 43/3/3 45/5/5
f 46/6/6 45/5/5 43/3/3
f 46/6/6 43/3/3 47/7/7
f 47/7/7 43/3/3 48/8/8
f 43/3/3 49/9/9 48/8/8
f 49/9/9 43/3/3 42/2/2
usemtl wire_228153184.001_pr128_34_-_Copy.png
f 82/10/10 49/11/9 42/12/2
f 82/10/10 42/12/2 83/13/11
f 83/14/11 42/15/2 41/16/1
f 83/14/11 41/16/1 84/17/12
f 84/17/12 41/16/1 44/18/4
f 84/17/12 44/18/4 85/19/13
f 85/20/13 44/21/4 45/22/5
f 85/20/13 45/22/5 86/23/14
f 86/24/14 45/25/5 46/26/6
f 86/24/14 46/26/6 87/27/15
f 87/28/15 46/29/6 47/30/7
f 87/28/15 47/30/7 88/31/16
f 88/32/16 47/33/7 48/34/8
f 88/32/16 48/34/8 89/35/17
f 89/36/17 48/37/8 49/38/9
f 89/36/17 49/38/9 82/39/10
usemtl wire_228153184.001_pr32_2.png
f 50/92/30 51/93/30 52/94/30
f 51/93/30 50/92/30 53/95/30
f 54/96/30 55/97/30 56/98/30
f 55/99/30 54/100/30 57/101/30
f 58/102/33 59/103/33 60/104/33
f 59/103/33 58/102/33 61/105/33
f 62/106/33 63/107/33 64/108/33
f 63/107/33 62/106/33 65/109/33
f 66/110/32 67/111/32 68/112/32
f 67/113/32 66/114/32 69/115/32
f 70/116/31 71/117/31 72/118/31
f 71/119/31 70/120/31 73/121/31
f 74/122/31 75/123/31 76/124/31
f 75/123/31 74/122/31 77/125/31
f 78/126/32 79/127/32 80/128/32
f 79/127/32 78/126/32 81/129/32
usemtl wire_228153184.001_pr128_6.png
f 90/130/21 12/131/25 9/132/22
f 12/131/25 90/130/21 91/133/20
f 92/134/18 9/135/22 16/136/29
f 9/135/22 92/134/18 90/137/21
f 93/138/19 16/139/29 14/140/27
f 16/139/29 93/138/19 92/141/18
f 91/142/20 14/143/27 12/144/25
f 14/143/27 91/142/20 93/145/19
