mtllib airspring.mtl
g object_004B5C3C
v 0 9.999999E-07 -4.677012
v 0 -9.999999E-07 4.677012
v 6.344998 9.999999E-07 -3.034125
v 6.344998 -9.999999E-07 3.034125
v 3.172499 5.507922 -3.034125
v 3.172499 5.507921 3.034125
v -3.1725 5.507922 -3.034125
v -3.1725 5.507919 3.034125
v -6.344998 0 -3.034125
v -6.344998 -2E-06 3.034125
v -3.172499 -5.507921 -3.034125
v -3.172499 -5.507923 3.034125
v 3.172501 -5.507919 -3.034125
v 3.172501 -5.507922 3.034125
vn 0 0 -1
vn 0 0 1
vn 0.846642 0 -0.532162
vn 0.846642 0 0.532162
vn 0.42367 0.733043 -0.532119
vn 0.42367 0.733043 0.532119
vn -0.423671 0.733043 -0.532119
vn -0.423671 0.733043 0.532119
vn -0.846642 0 -0.532162
vn -0.846642 0 0.532162
vn -0.42367 -0.733043 -0.532119
vn -0.42367 -0.733044 0.532119
vn 0.423671 -0.733043 -0.532119
vn 0.423671 -0.733043 0.532119
usemtl object_004B5C3C_material_7
vt 0.01176471 -0.9843137
vt 0.9843137 -0.9843137
vt 0.5137255 -0.1686275
vt 0.9843137 -0.9843137
vt 0.01176471 -0.9843137
vt 0.5137255 -0.1686275
vt 0.9843137 -0.9843137
vt 0.01176471 -0.9843137
vt 0.5137255 -0.1686275
vt 0.9843137 -0.9843137
vt 0.01176471 -0.9843137
vt 0.5137255 -0.1686275
vt 0.9843137 -0.9843137
vt 0.9843137 -0.9843137
vt 0.01176471 -0.9843137
vt 0.5137255 -0.1686275
vt 0.9843137 -0.9843137
vt 0.01176471 -0.9843137
vt 0.5137255 -0.1686275
vt 0.9843137 -0.9843137
vt 0.01176471 -0.9843137
vt 0.01176471 -0.9843137
vt 0.9843137 -0.9843137
vt 0.5137255 -0.1686275
vt 0.01176471 -0.9843137
vt 0.9843137 -0.9843137
f 9/1/9 7/2/7 1/3/1
# processed UV strips this poly: 3
f 8/4/8 10/5/10 2/6/2
# processed UV strips this poly: 6
f 10/7/10 12/8/12 2/9/2
# processed UV strips this poly: 9
f 13/10/13 11/11/11 1/12/1
f 1/12/1 11/11/11 9/13/9
# processed UV strips this poly: 13
f 12/14/12 14/15/14 2/16/2
# processed UV strips this poly: 16
f 3/18/3 13/17/13 1/19/1
f 3/18/3 1/19/1 5/20/5
f 5/20/5 1/19/1 7/21/7
# processed UV strips this poly: 21
f 14/22/14 4/23/4 2/24/2
f 2/24/2 4/23/4 6/25/6
f 2/24/2 6/25/6 8/26/8
# processed UV strips this poly: 26
usemtl object_004B5C3C_material_7
vt 5.996078 1
vt 8 -1
vt 8 1
vt 9.996078 -1
vt 9.996078 1
vt 12 -1
vt 12 1
vt 2 -1
vt 2 1
vt 3.996078 -1
vt 3.996078 1
vt 6 -1
vt 5.996078 1
vt 8 -1
f 9/27/9 8/28/8 7/29/7
f 7/29/7 8/28/8 6/30/6
f 7/29/7 6/30/6 5/31/5
f 5/31/5 6/30/6 4/32/4
f 5/31/5 4/32/4 3/33/3
f 3/33/3 4/32/4 14/34/14
f 3/33/3 14/34/14 13/35/13
f 13/35/13 14/34/14 12/36/12
f 13/35/13 12/36/12 11/37/11
f 11/37/11 12/36/12 10/38/10
f 11/37/11 10/38/10 9/39/9
f 9/39/9 10/38/10 8/40/8
# processed UV strips this poly: 14

g object_004B5924
v 3.53018 5.42568 0
v 3.53018 6.492336 0
v 2.539699 5.669011 -2.539699
v 2.539699 6.735667 -2.539699
v 0 5.912342 -3.530181
v 0 6.978998 -3.530181
v -2.539699 6.155673 -2.539699
v -2.539699 7.22233 -2.539699
v -3.53018 7.465661 0
v -3.53018 6.399004 0
v -2.539699 6.642335 2.539699
v -2.539699 7.708992 2.539699
v 0 7.952322 3.530181
v 0 6.885666 3.530181
v 2.539699 7.128998 2.539699
v 2.539699 8.195654 2.539699
v 3.53018 7.37233 0
v 3.53018 8.438985 0
v 2.539699 7.615661 -2.539699
v 2.539699 8.682316 -2.539699
v 0 7.858992 -3.530181
v 0 8.925647 -3.530181
v -2.539699 8.102323 -2.539699
v -2.539699 9.168979 -2.539699
v -3.53018 9.412311 0
v -3.53018 8.345654 0
v -2.539699 8.588985 2.539699
v -2.539699 9.655641 2.539699
v 0 9.898973 3.530181
v 0 8.832316 3.530181
v 2.539699 5.182349 2.539699
v 2.539699 10.0419 2.539699
vn 0.999756 0 0.022098
vn 0.99718 0 -0.07505
vn 0.72447 0 -0.689306
vn 0.689306 0 -0.72447
vn 0.022098 0 -0.999756
vn -0.022098 0 -0.999756
vn -0.689306 0 -0.72447
vn -0.72447 0 -0.689306
vn -0.999756 0 0.022098
vn -0.999756 0 -0.022098
vn -0.72447 0 0.689306
vn -0.689306 0 0.72447
vn 0.022098 0 0.999756
vn -0.022098 0 0.999756
vn 0.689306 0 0.72447
vn 0.72447 0 0.689306
vn 0.999756 0 0.022098
vn 0.999756 0 -0.022098
vn 0.72447 0 -0.689306
vn 0.689306 0 -0.72447
vn 0.022098 0 -0.999756
vn -0.022098 0 -0.999756
vn -0.689306 0 -0.72447
vn -0.72447 0 -0.689306
vn -0.999756 0 0.022098
vn -0.999756 0 -0.022098
vn -0.72447 0 0.689306
vn -0.689306 0 0.72447
vn 0.017759 0 0.999842
vn -0.07007 0 0.997542
vn 0.931655 0 0.363345
vn 0.363345 0 0.931655
usemtl object_004B5C3C_material_25
vt 0.8588235 0
vt 0.4980392 -0.2470588
vt 0.4980392 -0.02745098
vt 0.1372549 -0.2980392
vt 0.1372549 -0.07843138
vt 0 -0.3490196
vt 0 -0.1294118
vt 0.1372549 -0.3960784
vt 0.1372549 -0.1764706
vt 0.4980392 -0.4470588
vt 0.4980392 -0.227451
vt 0.8588235 -0.4980392
vt 0.8588235 -0.2784314
vt 1 -0.5490196
vt 1 -0.3294118
vt 0.8588235 -0.5960785
vt 0.8588235 -0.3764706
vt 0.4980392 -0.6470588
vt 0.4980392 -0.427451
vt 0.1372549 -0.6980392
vt 0.1372549 -0.4784314
vt 0 -0.7490196
vt 0 -0.5294118
vt 0.1372549 -0.7960784
vt 0.1372549 -0.5764706
vt 0.4980392 -0.8470588
vt 0.4980392 -0.627451
vt 0.8588235 -0.8980392
vt 0.8588235 -0.6784314
vt 1 -0.9490196
vt 1 -0.7294118
vt 0.8588235 -1
f 44/42/44 46/41/46 43/43/43
f 44/42/44 43/43/43 41/44/41
f 41/44/41 43/43/43 42/45/42
f 41/44/41 42/45/42 40/46/40
f 40/46/40 42/45/42 39/47/39
f 40/46/40 39/47/39 37/48/37
f 37/48/37 39/47/39 38/49/38
f 37/48/37 38/49/38 35/50/35
f 35/50/35 38/49/38 36/51/36
f 35/50/35 36/51/36 33/52/33
f 33/52/33 36/51/36 34/53/34
f 33/52/33 34/53/34 31/54/31
f 31/54/31 34/53/34 32/55/32
f 31/54/31 32/55/32 29/56/29
f 29/56/29 32/55/32 30/57/30
f 29/56/29 30/57/30 28/58/28
f 28/58/28 30/57/30 27/59/27
f 28/58/28 27/59/27 25/60/25
f 25/60/25 27/59/27 26/61/26
f 25/60/25 26/61/26 24/62/24
f 24/62/24 26/61/26 23/63/23
f 24/62/24 23/63/23 21/64/21
f 21/64/21 23/63/23 22/65/22
f 21/64/21 22/65/22 19/66/19
f 19/66/19 22/65/22 20/67/20
f 19/66/19 20/67/20 17/68/17
f 17/68/17 20/67/20 18/69/18
f 17/68/17 18/69/18 15/70/15
f 15/70/15 18/69/18 16/71/16
f 15/70/15 16/71/16 45/72/45
# processed UV strips this poly: 32

g object_004B54C4
v 0 14.83219 0
v 8.669918 13.60637 0
v 6.13056 13.60637 -6.13056
v 6.13056 13.60637 6.13056
v 0 13.60637 -8.669915
v 0 13.60637 8.669915
v -6.13056 13.60637 -6.13056
v -6.13056 13.60637 6.13056
v -8.669915 13.60637 0
v 10.89 9.902479 0
v 7.7004 9.902479 -7.700389
v 9.999999E-07 9.902479 -10.89
v -7.700398 9.902479 -7.700389
v -10.89 9.902479 0
v -7.700398 9.902479 7.700389
v 9.999999E-07 9.902479 10.89
v 7.7004 9.902479 7.700389
v 9.999999E-07 9.902479 0
vn 0.030073 0.999537 0.004596
vn 0.614508 0.788872 -0.007794
vn 0.437333 0.777067 -0.452665
vn 0.452666 0.777067 0.437334
vn 0.00388 0.797496 -0.603312
vn 0.023756 0.795241 0.605828
vn -0.43837 0.797613 -0.414301
vn -0.414301 0.797613 0.43837
vn -0.594527 0.803984 0.012149
vn 0.907652 -0.419724 0
vn 0.641807 -0.419724 -0.641806
vn 0 -0.419725 -0.907651
vn -0.641807 -0.419724 -0.641806
vn -0.907651 -0.419724 0
vn -0.641807 -0.419724 0.641806
vn 0 -0.419725 0.907651
vn 0.641807 -0.419725 0.641806
vn 0 -1 0
usemtl object_004B5C3C_material_8
vt 0 -0.4980392
vt 0.1254902 -0.145098
vt 0.4980392 -0.4980392
vt 0.4980392 0
vt 0.9960784 -0.4980392
vt 0.8509804 -0.145098
vt 0 -0.4980392
vt 0.145098 -0.8509804
vt 0.4980392 -0.4980392
vt 0.4980392 -0.9960784
vt 0.9960784 -0.4980392
vt 0.8509804 -0.8509804
f 55/73/55 54/74/54 47/75/47
f 47/75/47 54/74/54 52/76/52
f 47/75/47 52/76/52 48/77/48
f 48/77/48 52/76/52 50/78/50
# processed UV strips this poly: 6
f 53/80/53 55/79/55 47/81/47
f 53/80/53 47/81/47 51/82/51
f 51/82/51 47/81/47 48/83/48
f 51/82/51 48/83/48 49/84/49
# processed UV strips this poly: 12
usemtl object_004B5C3C_material_9
vt 5 -1
vt 4 0
vt 4 -1
vt 3 0
vt 3 -1
vt 2 0
vt 2 -1
vt 1 0
vt 1 -1
vt 0 0
vt 0 -1
vt 7 0
vt 7 -1
vt 6 0
vt 6 -1
vt 5 0
vt 5 -1
vt 4 0
f 56/85/56 50/86/50 63/87/63
f 63/87/63 50/86/50 52/88/52
f 63/87/63 52/88/52 62/89/62
f 62/89/62 52/88/52 54/90/54
f 62/89/62 54/90/54 61/91/61
f 61/91/61 54/90/54 55/92/55
f 61/91/61 55/92/55 60/93/60
f 60/93/60 55/92/55 53/94/53
f 60/93/60 53/94/53 59/95/59
f 59/95/59 53/94/53 51/96/51
f 59/95/59 51/96/51 58/97/58
f 58/97/58 51/96/51 49/98/49
f 58/97/58 49/98/49 57/99/57
f 57/99/57 49/98/49 48/100/48
f 57/99/57 48/100/48 56/101/56
f 56/101/56 48/100/48 50/102/50
# processed UV strips this poly: 18
usemtl object_004B5C3C_material_10
vt 0.9215686 -0.01176471
vt 0.07450981 -0.01176471
vt 0.4823529 -0.9843137
vt 0.9215686 -0.01176471
vt 0.07450981 -0.01176471
vt 0.4823529 -0.9843137
vt 0.4823529 -0.9843137
vt 0.9215686 -0.01176471
vt 0.07450981 -0.01176471
vt 0.4823529 -0.9843137
vt 0.9215686 -0.01176471
vt 0.07450981 -0.01176471
vt 0.4823529 -0.9843137
vt 0.9215686 -0.01176471
vt 0.07450981 -0.01176471
vt 0.4823529 -0.9843137
vt 0.9215686 -0.01176471
vt 0.07450981 -0.01176471
vt 0.4823529 -0.9843137
vt 0.9215686 -0.01176471
vt 0.07450981 -0.01176471
vt 0.4823529 -0.9843137
vt 0.9215686 -0.01176471
vt 0.07450981 -0.01176471
f 56/103/56 63/104/63 64/105/64
# processed UV strips this poly: 3
f 62/106/62 61/107/61 64/108/64
# processed UV strips this poly: 6
f 64/109/64 61/110/61 60/111/60
# processed UV strips this poly: 9
f 64/112/64 60/113/60 59/114/59
# processed UV strips this poly: 12
f 64/115/64 59/116/59 58/117/58
# processed UV strips this poly: 15
f 64/118/64 58/119/58 57/120/57
# processed UV strips this poly: 18
f 64/121/64 57/122/57 56/123/56
# processed UV strips this poly: 21
f 64/124/64 63/125/63 62/126/62
# processed UV strips this poly: 24

