# Blender v2.79 (sub 0) OBJ File: ''
# www.blender.org
mtllib Spring.mtl
v 1.074473 -3.493750 3.493749
v 1.074473 -4.940946 -0.000001
v 1.852111 0.000000 0.000000
v 1.074473 -3.493749 -3.493750
v 1.074473 4.940946 0.000001
v 1.074473 3.493749 3.493750
v 1.074473 -0.000001 4.940946
v 1.074473 0.000001 -4.940946
v 1.074473 3.493750 -3.493749
v -0.005818 0.000001 -4.940946
v -0.005818 -3.493749 -3.493750
v -0.005818 -4.940946 -0.000001
v -0.005818 -3.493750 3.493749
v -0.005818 -0.000001 4.940946
v -0.005818 3.493749 3.493750
v -0.005818 4.940946 0.000001
v -0.005818 3.493750 -3.493749
v 3.464919 -0.000000 2.531236
v 4.332280 -1.821083 1.821083
v 4.229758 -0.000000 2.531236
v 3.290516 1.821083 1.821083
v 4.055226 1.821083 1.821083
v 3.115984 2.531236 0.000000
v 3.880823 2.531236 0.000000
v 2.941451 1.821083 -1.821083
v 3.706291 1.821083 -1.821083
v 2.767048 0.000000 -2.531236
v 3.531888 0.000000 -2.531236
v 2.592645 -1.821083 -1.821083
v 3.357355 -1.821083 -1.821083
v 2.418113 -2.531236 -0.000000
v 3.182952 -2.531236 -0.000000
v 2.243581 -1.821083 1.821083
v 3.008420 -1.821083 1.821083
v 2.069178 -0.000000 2.531236
v 2.833888 -0.000000 2.531236
v 1.894645 1.821083 1.821083
v 2.659485 1.821083 1.821083
v 1.720113 2.531236 0.000000
v 2.485082 2.531236 0.000000
v 1.545710 1.821083 -1.821083
v 2.310549 1.821083 -1.821083
v 1.371178 0.000000 -2.531236
v 2.136017 0.000000 -2.531236
v 1.196775 -1.821083 -1.821083
v 1.961614 -1.821083 -1.821083
v 1.022242 -2.531236 -0.000000
v 1.787082 -2.531236 -0.000000
v 0.847710 -1.821083 1.821083
v 6.888080 6.216582 0.000001
v 6.888080 4.395886 4.395888
v 7.767076 0.000000 0.000000
v 6.888080 -0.000001 6.216582
v 6.888080 -6.216582 -0.000001
v 6.888080 -4.395888 4.395886
v 6.888080 4.395888 -4.395886
v 6.888080 0.000001 -6.216582
v 6.888080 -4.395886 -4.395888
v 4.232344 -7.808447 -0.000001
v 4.232344 -5.521428 5.521426
v 4.232344 -0.000001 7.808447
v 4.232344 5.521426 5.521428
v 4.232344 7.808576 0.000001
v 4.232344 5.521428 -5.521426
v 4.232344 0.000001 -7.808447
v 4.232344 -5.521426 -5.521428
v 4.232344 0.000000 0.000000
vt 5.000000 -1.000000
vt 4.000000 0.000000
vt 4.000000 -1.000000
vt 3.000000 0.000000
vt 3.000000 -1.000000
vt 2.000000 0.000000
vt 2.000000 -1.000000
vt 1.000000 0.000000
vt 1.000000 -1.000000
vt 0.000000 0.000000
vt 0.000000 -1.000000
vt 7.000000 0.000000
vt 7.000000 -1.000000
vt 6.000000 0.000000
vt 6.000000 -1.000000
vt 5.000000 0.000000
vt 0.000000 -0.498000
vt 0.145100 -0.145100
vt 0.498000 -0.498000
vt 0.498000 0.000000
vt 0.996100 -0.498000
vt 0.851000 -0.145100
vt 0.145100 -0.851000
vt 0.498000 -0.996100
vt 0.851000 -0.851000
vt 0.851000 -0.121600
vt 0.996100 -0.419600
vt 0.498000 -0.419600
vt 0.851000 -0.717600
vt 0.000000 -0.419600
vt 0.145100 -0.121600
vt 0.498000 0.000000
vt 0.498000 -0.843100
vt 0.145100 -0.717600
vt 8.000000 -1.000000
vt 8.000000 -0.733300
vt 7.000000 -0.733300
vt 7.000000 -1.000000
vt 6.000000 -0.733300
vt 6.000000 -1.000000
vt 5.000000 -0.733300
vt 5.000000 -1.000000
vt 3.980400 -0.733300
vt 4.000000 -1.000000
vt 3.000000 -0.733300
vt 3.000000 -1.000000
vt 2.000000 -0.733300
vt 2.000000 -1.000000
vt 1.000000 -0.733300
vt 1.000000 -1.000000
vt 0.000000 -0.733300
vt 0.000000 -1.000000
vt 0.498000 -0.247100
vt 0.858800 0.000000
vt 0.498000 -0.027500
vt 0.137300 -0.298000
vt 0.137300 -0.078400
vt 0.000000 -0.349000
vt 0.000000 -0.129400
vt 0.137300 -0.396100
vt 0.137300 -0.176500
vt 0.498000 -0.447100
vt 0.498000 -0.227500
vt 0.858800 -0.498000
vt 0.858800 -0.278400
vt 1.000000 -0.549000
vt 1.000000 -0.329400
vt 0.858800 -0.596100
vt 0.858800 -0.376500
vt 0.498000 -0.647100
vt 0.498000 -0.427500
vt 0.137300 -0.698000
vt 0.137300 -0.478400
vt 0.000000 -0.749000
vt 0.000000 -0.529400
vt 0.137300 -0.796100
vt 0.137300 -0.576500
vt 0.498000 -0.847100
vt 0.498000 -0.627500
vt 0.858800 -0.898000
vt 0.858800 -0.678400
vt 1.000000 -0.949000
vt 1.000000 -0.729400
vt 0.858800 -1.000000
vt 0.921600 -0.011800
vt 0.074500 -0.011800
vt 0.482400 -0.984300
vt 0.921600 -0.011800
vt 0.074500 -0.011800
vt 0.921600 -0.011800
vt 0.074500 -0.011800
vt 0.921600 -0.011800
vt 0.074500 -0.011800
vt 0.921600 -0.011800
vt 0.074500 -0.011800
vt 0.921600 -0.011800
vt 0.074500 -0.011800
vt 0.921600 -0.011800
vt 0.074500 -0.011800
vt 0.921600 -0.011800
vt 0.074500 -0.011800
vn 0.5141 -0.8577 -0.0000
vn 0.8183 -0.4065 0.4065
vn 0.5141 -0.6065 0.6065
vn 0.7911 -0.0082 0.6116
vn 0.5141 -0.0000 0.8577
vn 0.7857 0.4375 0.4374
vn 0.5141 0.6065 0.6065
vn 0.7857 0.6186 0.0000
vn 0.5141 0.8577 0.0000
vn 0.7857 0.4374 -0.4375
vn 0.5141 0.6065 -0.6065
vn 0.7911 -0.0082 -0.6116
vn 0.5141 0.0000 -0.8577
vn 0.8183 -0.4065 -0.4065
vn 0.5141 -0.6065 -0.6065
vn 0.7966 -0.6045 -0.0000
vn 0.9998 -0.0201 0.0000
vn 0.9878 -0.1099 0.1099
vn 0.9878 -0.1555 -0.0000
vn 1.0000 -0.0000 0.0000
vn 0.9878 -0.1099 -0.1099
vn 0.9878 0.1555 0.0000
vn 0.9878 0.1099 0.1099
vn 0.9878 -0.0000 0.1555
vn 0.9878 0.0000 -0.1555
vn 0.9878 0.1099 -0.1099
vn 0.0000 0.0000 -1.0000
vn 0.0000 -0.7071 -0.7071
vn 0.0000 -1.0000 -0.0000
vn 0.0000 -0.7071 0.7071
vn 0.0000 -0.0000 1.0000
vn 0.0000 0.7071 0.7071
vn 0.0000 1.0000 0.0000
vn 0.0000 0.7071 -0.7071
vn 0.0000 0.0701 0.9975
vn 0.0000 -0.3633 0.9317
vn 0.0000 -0.0178 0.9998
vn 0.0000 0.7245 0.6893
vn 0.0000 0.6893 0.7245
vn 0.0000 0.9998 -0.0221
vn 0.0000 0.9998 0.0221
vn 0.0000 0.6893 -0.7245
vn 0.0000 0.7245 -0.6893
vn 0.0000 -0.0221 -0.9998
vn 0.0000 0.0221 -0.9998
vn 0.0000 -0.7245 -0.6893
vn 0.0000 -0.6893 -0.7245
vn 0.0000 -0.9998 0.0221
vn 0.0000 -0.9998 -0.0221
vn 0.0000 -0.6893 0.7245
vn 0.0000 -0.7245 0.6893
vn 0.0000 0.0221 0.9998
vn 0.0000 -0.0221 0.9998
vn 0.0000 -0.9972 -0.0750
vn 0.0000 -0.9317 0.3633
vn -1.0000 0.0000 0.0000
usemtl object_004B67C8_material_9
s 1
f 59/1/1 55/2/2 60/3/3
f 60/3/3 55/2/2 53/4/4
f 60/3/3 53/4/4 61/5/5
f 61/5/5 53/4/4 51/6/6
f 61/5/5 51/6/6 62/7/7
f 62/7/7 51/6/6 50/8/8
f 62/7/7 50/8/8 63/9/9
f 63/9/9 50/8/8 56/10/10
f 63/9/9 56/10/10 64/11/11
f 64/11/11 56/10/10 57/12/12
f 64/11/11 57/12/12 65/13/13
f 65/13/13 57/12/12 58/14/14
f 65/13/13 58/14/14 66/15/15
f 66/15/15 58/14/14 54/16/16
f 66/15/15 54/16/16 59/1/1
f 59/1/1 54/16/16 55/2/2
usemtl object_004B67C8_material_8
f 50/17/8 51/18/6 52/19/17
f 52/19/17 51/18/6 53/20/4
f 52/19/17 53/20/4 54/21/16
f 54/21/16 53/20/4 55/22/2
f 56/23/10 50/17/8 52/19/17
f 56/23/10 52/19/17 57/24/12
f 57/24/12 52/19/17 54/21/16
f 57/24/12 54/21/16 58/25/14
usemtl object_004B67C8_material_7
f 1/26/18 2/27/19 3/28/20
f 3/28/20 2/27/19 4/29/21
f 5/30/22 6/31/23 3/28/20
f 3/28/20 6/31/23 7/32/24
f 3/28/20 7/32/24 1/26/18
f 4/29/21 8/33/25 3/28/20
f 3/28/20 8/33/25 9/34/26
f 3/28/20 9/34/26 5/30/22
f 10/35/27 8/36/27 4/37/28
f 10/35/27 4/37/28 11/38/28
f 11/38/28 4/37/28 2/39/29
f 11/38/28 2/39/29 12/40/29
f 12/40/29 2/39/29 1/41/30
f 12/40/29 1/41/30 13/42/30
f 13/42/30 1/41/30 7/43/31
f 13/42/30 7/43/31 14/44/31
f 14/44/31 7/43/31 6/45/32
f 14/44/31 6/45/32 15/46/32
f 15/46/32 6/45/32 5/47/33
f 15/46/32 5/47/33 16/48/33
f 16/48/33 5/47/33 9/49/34
f 16/48/33 9/49/34 17/50/34
f 17/50/34 9/49/34 8/51/27
f 17/50/34 8/51/27 10/52/27
usemtl object_004B67C8_material_25
f 18/53/35 19/54/36 20/55/37
f 18/53/35 20/55/37 21/56/38
f 21/56/38 20/55/37 22/57/39
f 21/56/38 22/57/39 23/58/40
f 23/58/40 22/57/39 24/59/41
f 23/58/40 24/59/41 25/60/42
f 25/60/42 24/59/41 26/61/43
f 25/60/42 26/61/43 27/62/44
f 27/62/44 26/61/43 28/63/45
f 27/62/44 28/63/45 29/64/46
f 29/64/46 28/63/45 30/65/47
f 29/64/46 30/65/47 31/66/48
f 31/66/48 30/65/47 32/67/49
f 31/66/48 32/67/49 33/68/50
f 33/68/50 32/67/49 34/69/51
f 33/68/50 34/69/51 35/70/52
f 35/70/52 34/69/51 36/71/53
f 35/70/52 36/71/53 37/72/38
f 37/72/38 36/71/53 38/73/39
f 37/72/38 38/73/39 39/74/40
f 39/74/40 38/73/39 40/75/41
f 39/74/40 40/75/41 41/76/42
f 41/76/42 40/75/41 42/77/43
f 41/76/42 42/77/43 43/78/44
f 43/78/44 42/77/43 44/79/45
f 43/78/44 44/79/45 45/80/46
f 45/80/46 44/79/45 46/81/47
f 45/80/46 46/81/47 47/82/48
f 47/82/48 46/81/47 48/83/54
f 47/82/48 48/83/54 49/84/55
usemtl object_004B67C8_material_10
f 59/85/56 60/86/56 67/87/56
f 61/88/56 62/89/56 67/87/56
f 67/87/56 62/90/56 63/91/56
f 67/87/56 63/92/56 64/93/56
f 67/87/56 64/94/56 65/95/56
f 67/87/56 65/96/56 66/97/56
f 67/87/56 66/98/56 59/99/56
f 67/87/56 60/100/56 61/101/56
