# Blender v2.79 (sub 0) OBJ File: ''
# www.blender.org
mtllib TripleSpring.mtl
v 0.000035 4.370541 -22.750004
v 11.659973 4.370527 22.750004
v 0.000037 4.370533 22.750004
v 11.659971 4.370535 -22.750004
v 0.000033 0.000018 -22.750004
v 0.000035 0.000010 22.750004
v 11.659968 0.000012 -22.750004
v 11.659970 0.000004 22.750004
v 12.310909 4.574611 -22.261494
v 11.605453 4.346025 -23.667997
v 13.526137 3.237117 -21.824997
v 2.401559 10.295786 -22.261492
v 0.635643 10.679449 21.824999
v 0.635641 10.679457 -21.824995
v 2.401561 10.295778 22.261496
v 11.605454 4.346017 23.667997
v 2.556328 9.570540 23.667999
v 12.310911 4.574603 22.261494
v 2.556325 9.570548 -23.667995
v 13.526139 3.237109 21.824997
v 7.186375 0.242645 -0.016970
v 7.649887 6.483561 3.875033
v 10.077401 5.082035 -0.016969
v 4.758865 1.644167 3.875032
v 0.785845 3.937998 -2.384414
v 7.621931 6.499701 -3.885518
v 3.676858 8.777404 -2.384413
v 4.730911 1.660308 -3.885519
v 3.694135 8.767430 2.411873
v 0.803122 3.928021 2.411873
v 7.186375 0.242647 -14.816971
v 7.649886 6.483563 -10.924967
v 10.077400 5.082037 -14.816970
v 4.758865 1.644170 -10.924968
v 0.785844 3.938000 -17.184414
v 7.621931 6.499703 -18.685518
v 3.676858 8.777407 -17.184412
v 4.730910 1.660310 -18.685520
v 3.694135 8.767432 -12.388127
v 0.803121 3.928024 -12.388127
v 7.186376 0.242643 14.683032
v 7.649887 6.483558 18.575037
v 10.077402 5.082033 14.683033
v 4.758866 1.644165 18.575035
v 0.785845 3.937995 12.315589
v 7.621932 6.499698 10.814485
v 3.676859 8.777402 12.315589
v 4.730912 1.660305 10.814484
v 3.694136 8.767427 17.111877
v 0.803122 3.928019 17.111876
v 11.474092 5.985775 20.406370
v 11.474092 5.985777 9.275622
v 12.310910 4.574605 7.420498
v 4.042079 10.276656 9.275624
v 2.401560 10.295781 7.420500
v 4.042080 10.276655 20.406370
v 12.310909 4.574608 -7.420497
v 4.042078 10.276659 -5.565371
v 2.401559 10.295783 -7.420496
v 4.042079 10.276657 5.565375
v 11.474092 5.985778 5.565373
v 11.474092 5.985780 -5.565372
v 4.042079 10.276661 -20.406366
v 4.042078 10.276660 -9.275620
v 11.474092 5.985780 -9.275622
v 11.474091 5.985782 -20.406366
v 8.123892 8.764813 14.840997
v 8.123891 8.764816 0.000001
v 8.123891 8.764819 -14.840995
v -0.965271 9.521942 22.500002
v 1.163854 8.292690 24.400009
v 11.195036 2.501176 24.400007
v 13.324164 1.271924 22.500000
v 13.324162 1.271932 -22.500000
v 1.163852 8.292698 -24.400005
v -0.965273 9.521950 -22.499998
v 11.195033 2.501184 -24.400007
vt 1.505883 0.000000
vt 0.501961 0.000000
vt 0.501961 0.501961
vt 1.505883 0.501961
vt 4.015687 0.000000
vt 0.000000 0.000000
vt 0.000000 0.501961
vt 4.015687 0.501961
vt 0.000000 0.000000
vt 0.000000 0.501961
vt 4.015687 0.501961
vt 4.015687 0.000000
vt 2.196079 0.000000
vt 0.815686 0.000000
vt 0.815686 0.501961
vt 2.196079 0.501961
vt 2.196079 0.000000
vt 0.815686 0.000000
vt 0.815686 0.501961
vt 2.196079 0.501961
vt 0.627451 0.250980
vt 0.745098 0.070588
vt 0.505882 0.070588
vt 0.745098 0.250980
vt 0.745098 0.070588
vt 0.505882 0.070588
vt 0.505882 0.250980
vt 0.745098 0.250980
vt 0.745098 0.070588
vt 0.505882 0.070588
vt 0.505882 0.250980
vt 0.627451 0.250980
vt 0.745098 0.070588
vt 0.505882 0.070588
vt 0.745098 0.250980
vt 0.745098 0.070588
vt 0.505882 0.070588
vt 0.505882 0.250980
vt 0.627451 0.250980
vt 0.745098 0.070588
vt 0.505882 0.070588
vt 0.745098 0.250980
vt 0.745098 0.070588
vt 0.505882 0.070588
vt 0.505882 0.250980
vt 0.627451 0.250980
vt 0.745098 0.070588
vt 0.505882 0.070588
vt 0.000000 0.247059
vt 0.000000 0.533333
vt 0.250980 0.533333
vt 0.250980 0.247059
vt 0.000000 0.247059
vt 0.000000 0.533333
vt 0.250980 0.533333
vt 0.250980 0.247059
vt 0.000000 0.247059
vt 0.000000 0.533333
vt 0.250980 0.533333
vt 0.250980 0.247059
vt 0.000000 0.247059
vt 0.000000 0.533333
vt 0.250980 0.533333
vt 0.250980 0.247059
vt 0.000000 0.247059
vt 0.000000 0.533333
vt 0.250980 0.533333
vt 0.250980 0.247059
vt 0.000000 0.247059
vt 0.000000 0.533333
vt 0.250980 0.533333
vt 0.250980 0.247059
vt 0.000000 0.247059
vt 0.000000 0.533333
vt 0.250980 0.533333
vt 0.250980 0.247059
vt 0.000000 0.247059
vt 0.000000 0.533333
vt 0.250980 0.533333
vt 0.250980 0.247059
vt 0.000000 0.247059
vt 0.000000 0.533333
vt 0.250980 0.533333
vt 0.250980 0.247059
vt 0.000000 0.247059
vt 0.000000 0.533333
vt 0.250980 0.533333
vt 0.250980 0.247059
vt 0.000000 0.247059
vt 0.000000 0.533333
vt 0.250980 0.533333
vt 0.250980 0.247059
vt 0.000000 0.247059
vt 0.000000 0.533333
vt 0.250980 0.533333
vt 0.250980 0.247059
vt 0.000000 0.247059
vt 0.000000 0.533333
vt 0.250980 0.533333
vt 0.250980 0.247059
vt 0.000000 0.247059
vt 0.000000 0.533333
vt 0.250980 0.533333
vt 0.250980 0.247059
vt 0.000000 0.247059
vt 0.000000 0.533333
vt 0.250980 0.533333
vt 0.250980 0.247059
vt 0.996256 0.991603
vt 0.996256 0.000022
vt 0.869750 0.118623
vt 0.126526 0.118623
vt 0.000020 0.000022
vt 0.118618 0.880909
vt 0.000020 0.991603
vt 0.877658 0.880909
vt 0.000020 0.000022
vt 0.000020 0.991603
vt 0.118618 0.880909
vt 0.877658 0.880909
vt 0.996256 0.991603
vt 0.869750 0.118623
vt 0.996256 0.000022
vt 0.126526 0.118623
vt 0.000020 0.000022
vt 0.000020 0.991603
vt 0.118618 0.880909
vt 0.877658 0.880909
vt 0.996256 0.991603
vt 0.869750 0.118623
vt 0.996256 0.000022
vt 0.126526 0.118623
vt 0.498139 0.466516
vt 0.498139 0.466516
vt 0.498139 0.466516
vt 0.584314 0.831373
vt 0.047059 0.831373
vt 0.000000 0.501961
vt 0.525490 0.501961
vt 2.486275 0.501961
vt 3.011765 0.501961
vt 2.964706 0.831373
vt 0.000000 0.501961
vt 0.584314 0.831373
vt 0.047059 0.831373
vt 2.486275 0.501961
vt 3.011765 0.501961
vt 2.964706 0.831373
vt 2.427451 0.831373
vt 5.019608 0.501961
vt 4.941177 0.831373
vt 0.078431 0.831373
vt 0.000000 0.501961
vt 5.019608 0.501961
vt 4.941177 0.831373
vt 0.078431 0.831373
vt 0.000000 0.501961
vt 2.427451 0.831373
vt 0.525490 0.501961
vn 0.0000 1.0000 0.0000
vn -1.0000 0.0000 0.0000
vn 1.0000 -0.0000 -0.0000
vn 0.0000 0.0000 -1.0000
vn 0.0000 0.0000 1.0000
vn 0.6787 0.6758 -0.2875
vn 0.9201 0.2958 -0.2568
vn 0.5197 0.4921 -0.6984
vn 0.2459 0.9257 -0.2875
vn -0.2048 0.9425 -0.2641
vn -0.2039 0.9447 0.2568
vn 0.2459 0.9257 0.2875
vn 0.1663 0.6962 0.6984
vn 0.5243 0.4866 0.6988
vn 0.6787 0.6758 0.2875
vn 0.1593 0.6974 -0.6988
vn 0.9187 0.2939 0.2641
vn 0.6966 -0.4162 0.5844
vn -0.2687 0.1605 -0.9498
vn 0.6924 -0.4137 -0.5911
vn -0.2619 0.1565 0.9523
vn -0.8585 0.5128 0.0042
vn 0.6705 0.7227 0.1674
vn 0.6705 0.7227 -0.1674
vn 0.6851 0.7285 0.0000
vn 0.2906 0.9421 -0.1674
vn 0.2884 0.9575 -0.0000
vn 0.2906 0.9421 0.1674
vn 0.5000 0.8660 0.0000
vn -0.4299 0.8095 0.3998
vn -0.0510 0.5376 0.8416
vn 0.5020 0.2301 0.8337
vn 0.9134 0.0450 0.4045
vn 0.9160 0.0325 -0.3998
vn -0.0517 0.5498 -0.8337
vn -0.4177 0.8136 -0.4045
vn 0.4911 0.2247 -0.8416
usemtl Mesh_1279.rip
s 1
f 1/1/1 3/2/1 2/3/1
f 2/3/1 4/4/1 1/1/1
usemtl Mesh_1278.rip
f 5/5/2 6/6/2 3/7/2
f 3/7/2 1/8/2 5/5/2
f 7/9/3 4/10/3 2/11/3
f 2/11/3 8/12/3 7/9/3
f 7/13/4 5/14/4 1/15/4
f 1/15/4 4/16/4 7/13/4
f 6/17/5 8/18/5 2/19/5
f 2/19/5 3/20/5 6/17/5
usemtl Mesh_1277.rip_Tex_0133_0.dds
f 9/21/6 11/22/7 10/23/8
f 12/24/9 14/25/10 13/26/11
f 13/26/11 15/27/12 12/24/9
f 15/28/12 17/29/13 16/30/14
f 16/30/14 18/31/15 15/28/12
f 12/32/9 19/33/16 14/34/10
f 18/35/15 20/36/17 11/37/7
f 11/37/7 9/38/6 18/35/15
f 18/39/15 16/40/14 20/41/17
f 9/42/6 10/43/8 19/44/16
f 19/44/16 12/45/9 9/42/6
f 15/46/12 13/47/11 17/48/13
f 21/49/18 23/50/18 22/51/18
f 22/51/18 24/52/18 21/49/18
f 25/53/19 27/54/19 26/55/19
f 26/55/19 28/56/19 25/53/19
f 28/57/20 26/58/20 23/59/20
f 23/59/20 21/60/20 28/57/20
f 24/61/21 22/62/21 29/63/21
f 29/63/21 30/64/21 24/61/21
f 30/65/22 29/66/22 27/67/22
f 27/67/22 25/68/22 30/65/22
f 31/69/18 33/70/18 32/71/18
f 32/71/18 34/72/18 31/69/18
f 35/73/19 37/74/19 36/75/19
f 36/75/19 38/76/19 35/73/19
f 38/77/20 36/78/20 33/79/20
f 33/79/20 31/80/20 38/77/20
f 34/81/21 32/82/21 39/83/21
f 39/83/21 40/84/21 34/81/21
f 40/85/22 39/86/22 37/87/22
f 37/87/22 35/88/22 40/85/22
f 41/89/18 43/90/18 42/91/18
f 42/91/18 44/92/18 41/89/18
f 45/93/19 47/94/19 46/95/19
f 46/95/19 48/96/19 45/93/19
f 48/97/20 46/98/20 43/99/20
f 43/99/20 41/100/20 48/97/20
f 44/101/21 42/102/21 49/103/21
f 49/103/21 50/104/21 44/101/21
f 50/105/22 49/106/22 47/107/22
f 47/107/22 45/108/22 50/105/22
usemtl Mesh_1277.rip
f 15/109/12 18/110/15 51/111/23
f 51/111/23 18/110/15 52/112/24
f 18/110/15 53/113/25 52/112/24
f 52/112/24 53/113/25 54/114/26
f 53/113/25 55/115/27 54/114/26
f 54/114/26 55/115/27 56/116/28
f 55/115/27 15/109/12 56/116/28
f 56/116/28 15/109/12 51/111/23
f 57/117/25 59/118/27 58/119/26
f 58/119/26 59/118/27 60/120/28
f 59/118/27 55/121/27 60/120/28
f 60/120/28 55/121/27 61/122/23
f 55/121/27 53/123/25 61/122/23
f 61/122/23 53/123/25 62/124/24
f 53/123/25 57/117/25 62/124/24
f 62/124/24 57/117/25 58/119/26
f 9/125/6 12/126/9 63/127/26
f 63/127/26 12/126/9 64/128/28
f 12/126/9 59/129/27 64/128/28
f 64/128/28 59/129/27 65/130/23
f 59/129/27 57/131/25 65/130/23
f 65/130/23 57/131/25 66/132/24
f 57/131/25 9/125/6 66/132/24
f 66/132/24 9/125/6 63/127/26
f 51/111/23 67/133/29 56/116/28
f 56/116/28 67/133/29 54/114/26
f 67/133/29 52/112/24 54/114/26
f 62/124/24 68/134/29 61/122/23
f 61/122/23 68/134/29 60/120/28
f 68/134/29 58/119/26 60/120/28
f 65/130/23 69/135/29 64/128/28
f 64/128/28 69/135/29 63/127/26
f 69/135/29 66/132/24 63/127/26
f 65/130/23 66/132/24 69/135/29
f 51/111/23 52/112/24 67/133/29
f 58/119/26 68/134/29 62/124/24
usemtl Mesh_1282.rip
f 17/136/13 13/137/11 70/138/30
f 17/136/13 70/138/30 71/139/31
f 72/140/32 73/141/33 20/142/17
f 74/143/34 10/144/8 11/145/7
f 75/146/35 76/147/36 14/148/10
f 75/146/35 14/148/10 19/149/16
f 74/150/34 11/151/7 20/152/17
f 20/152/17 73/153/33 74/150/34
f 70/154/30 13/155/11 14/156/10
f 14/156/10 76/157/36 70/154/30
f 71/139/31 72/140/32 17/136/13
f 17/136/13 72/140/32 16/158/14
f 72/140/32 20/142/17 16/158/14
f 19/149/16 10/144/8 75/146/35
f 75/146/35 10/144/8 77/159/37
f 10/144/8 74/143/34 77/159/37
