# Blender v2.79 (sub 0) OBJ File: 'pulleytop.blend'
# www.blender.org
o Cube
v 11.495325 -3.105867 11.517282
v 11.495325 3.105867 11.517282
v 11.495325 -3.105867 -11.517282
v 11.495325 3.105867 -11.517282
v -11.495325 -3.105867 11.517282
v -11.495325 3.105867 11.517282
v -11.495325 -3.105867 -11.517282
v -11.495325 3.105867 -11.517282
vn 1.0000 0.0000 0.0000
vn 0.0000 0.0000 -1.0000
vn -1.0000 0.0000 0.0000
vn 0.0000 0.0000 1.0000
vn 0.0000 -1.0000 0.0000
vn 0.0000 1.0000 0.0000
s off
f 2//1 1//1 3//1
f 4//2 3//2 7//2
f 8//3 7//3 5//3
f 6//4 5//4 1//4
f 7//5 3//5 1//5
f 4//6 8//6 6//6
f 2//1 3//1 4//1
f 4//2 7//2 8//2
f 8//3 5//3 6//3
f 6//4 1//4 2//4
f 7//5 1//5 5//5
f 4//6 6//6 2//6
