mtllib RisingPlatformMediumCombined.mtl
v 75.000000 199.999969 75.000061 1.000000 1.000000 1.000000
v 75.000000 200.000031 -74.999939 1.000000 1.000000 1.000000
v 50.000000 199.999969 50.000069 1.000000 1.000000 1.000000
v 50.000000 200.000031 -49.999931 1.000000 1.000000 1.000000
v -75.000000 200.000031 -74.999939 1.000000 1.000000 1.000000
v -75.000000 199.999969 75.000061 1.000000 1.000000 1.000000
v -50.000000 199.999969 50.000069 1.000000 1.000000 1.000000
v 25.000000 200.000000 25.000065 1.000000 1.000000 1.000000
v 25.000000 200.000000 -24.999935 1.000000 1.000000 1.000000
v -50.000000 200.000031 -49.999931 1.000000 1.000000 1.000000
v -25.000000 200.000000 -24.999935 1.000000 1.000000 1.000000
v -25.000000 200.000000 25.000065 1.000000 1.000000 1.000000
v 0.000000 -70.000015 24.999977 0.600000 0.800000 0.800000
v 0.000000 104.999985 25.000034 0.349020 0.466667 0.541176
v 25.000000 -70.000000 -0.000022 0.600000 0.800000 0.800000
v 25.000000 105.000000 0.000034 0.349020 0.466667 0.541176
v 0.000003 105.000015 -24.999966 0.349020 0.466667 0.541176
v -25.000000 105.000000 0.000034 0.349020 0.466667 0.541176
v -25.000000 -70.000000 -0.000022 0.600000 0.800000 0.800000
v 0.000001 -69.999985 -25.000023 0.600000 0.800000 0.800000
v -30.000000 140.000000 30.000046 0.447059 0.600000 0.701961
v -30.000000 140.000000 -29.999954 0.447059 0.600000 0.701961
v -36.000000 155.000000 -35.999947 0.329412 0.439216 0.513726
v 36.000000 155.000000 -35.999947 0.329412 0.439216 0.513726
v 36.000000 155.000000 36.000053 0.329412 0.439216 0.513726
v -36.000000 155.000000 36.000053 0.329412 0.439216 0.513726
v 12.500000 184.999969 75.000061 1.000000 1.000000 1.000000
v -12.500000 184.999969 75.000061 0.447059 0.600000 0.701961
v -15.000000 154.999969 72.500046 0.447059 0.600000 0.701961
v -5.000000 152.499969 82.500046 0.447059 0.600000 0.701961
v 5.000000 152.499969 82.500046 0.447059 0.600000 0.701961
v 72.500000 190.000000 -14.999938 0.447059 0.600000 0.701961
v 75.000000 185.000000 -12.499938 0.447059 0.600000 0.701961
v 72.500000 170.000000 15.000055 1.000000 1.000000 1.000000
v 75.000000 185.000000 12.500062 0.447059 0.600000 0.701961
v -82.500000 152.500000 5.000050 0.447059 0.600000 0.694118
v -75.000000 185.000000 12.500062 0.447059 0.600000 0.694118
v -72.500000 155.000000 15.000050 0.447059 0.600000 0.694118
v -12.500000 185.000031 -74.999939 0.447059 0.600000 0.694118
v -75.000000 185.000000 -12.499938 0.447059 0.600000 0.694118
v -72.500000 155.000000 -14.999950 0.447059 0.600000 0.694118
v -72.500000 190.000000 -14.999938 0.447059 0.600000 0.694118
v 15.000000 190.000031 -72.499939 0.447059 0.600000 0.694118
v 12.500000 185.000031 -74.999939 0.447059 0.600000 0.694118
v -5.000000 152.500031 -82.499954 0.447059 0.600000 0.694118
v -72.500000 190.000000 15.000062 0.447059 0.600000 0.694118
v 82.500000 152.500000 -4.999950 0.313726 0.403922 0.411765
v 82.500000 152.500000 5.000050 0.313726 0.403922 0.411765
v -30.000000 105.000015 -29.999966 0.447059 0.600000 0.701961
v -30.000000 104.999985 30.000034 0.447059 0.600000 0.701961
v 30.000000 140.000000 30.000046 0.447059 0.600000 0.701961
v 30.000000 104.999985 30.000034 0.447059 0.600000 0.701961
v 30.000000 140.000000 -29.999954 0.447059 0.600000 0.701961
v 30.000000 105.000015 -29.999966 0.447059 0.600000 0.701961
v -15.000000 189.999969 72.500061 0.447059 0.600000 0.701961
v -75.000000 200.000031 -74.999939 0.447059 0.600000 0.694118
v 72.500000 190.000031 -72.499939 0.447059 0.600000 0.694118
v 72.500000 190.000000 15.000062 0.447059 0.600000 0.701961
v 75.000000 200.000031 -74.999939 0.447059 0.600000 0.694118
v -75.000000 199.999969 75.000061 0.447059 0.600000 0.694118
v -72.500000 189.999969 72.500061 0.447059 0.600000 0.694118
v 75.000000 199.999969 75.000061 0.447059 0.600000 0.701961
v 15.000000 154.999969 72.500046 1.000000 1.000000 1.000000
v 72.500000 155.000000 15.000050 1.000000 1.000000 1.000000
v -82.500000 152.500000 -4.999950 0.447059 0.600000 0.694118
v -15.000000 155.000031 -72.499954 0.447059 0.600000 0.694118
v 5.000000 152.500031 -82.499954 0.447059 0.600000 0.694118
v -72.500000 154.999969 72.500046 1.000000 1.000000 1.000000
v -72.500000 155.000031 -72.499954 0.447059 0.600000 0.694118
v 72.500000 154.999969 72.500046 1.000000 1.000000 1.000000
v -72.500000 169.999969 72.500061 1.000000 1.000000 1.000000
v 72.500000 155.000000 -14.999950 0.447059 0.600000 0.701961
v 72.500000 155.000000 -21.780291 1.000000 1.000000 1.000000
v -15.000000 190.000031 -72.499939 0.447059 0.600000 0.694118
v 72.500000 170.000000 -20.880651 0.447059 0.600000 0.701961
v 72.500000 170.000031 -72.499939 0.447059 0.600000 0.694118
v 72.500000 155.000031 -72.499954 0.447059 0.600000 0.694118
v 15.000000 169.999969 72.500061 0.447059 0.600000 0.701961
v 15.000000 189.999969 72.500061 0.447059 0.600000 0.701961
v -21.521790 154.999969 72.500046 1.000000 1.000000 1.000000
v 72.500000 169.999969 72.500061 1.000000 1.000000 1.000000
v 72.500000 189.999969 72.500061 0.447059 0.600000 0.701961
v 15.000000 155.000031 -72.499954 0.447059 0.600000 0.694118
v -72.500000 190.000031 -72.499939 0.447059 0.600000 0.694118
v -20.121740 169.999969 72.500061 1.000000 1.000000 1.000000
v -0.000001 -70.000015 24.999977 0.600000 0.800000 0.800000
v -0.000001 -150.000000 24.999950 0.474510 0.600000 0.600000
v 25.000000 -70.000000 -0.000023 0.600000 0.800000 0.800000
v 25.000000 -150.000000 -0.000049 0.474510 0.600000 0.600000
v 0.000000 -69.999985 -25.000023 0.600000 0.800000 0.800000
v -0.000001 -150.000000 -25.000050 0.474510 0.600000 0.600000
v -25.000000 -150.000000 -0.000048 0.474510 0.600000 0.600000
v -25.000000 115.633286 0.000016 1.000000 1.000000 1.000000
v -30.000000 152.246658 30.000095 1.000000 1.000000 1.000000
v -30.000000 152.246658 -29.999905 1.000000 1.000000 1.000000
v -30.000000 105.000031 -29.999931 1.000000 1.000000 1.000000
v -30.000000 104.999969 30.000069 1.000000 1.000000 1.000000
v 30.000000 152.246658 30.000095 1.000000 1.000000 1.000000
v 30.000000 104.999969 30.000069 1.000000 1.000000 1.000000
v 30.000000 152.246658 -29.999905 1.000000 1.000000 1.000000
v 30.000000 105.000031 -29.999931 1.000000 1.000000 1.000000
v -0.000001 115.633255 25.000015 1.000000 1.000000 1.000000
v -0.000001 -150.000000 24.999901 1.000000 1.000000 1.000000
v 25.000000 115.633286 0.000015 1.000000 1.000000 1.000000
v 25.000000 -150.000000 -0.000097 1.000000 1.000000 1.000000
v 0.000000 115.633316 -24.999985 1.000000 1.000000 1.000000
v -0.000001 -150.000000 -25.000099 1.000000 1.000000 1.000000
v -25.000000 -150.000000 -0.000096 1.000000 1.000000 1.000000
v 12.500000 184.999939 75.000122 1.000000 1.000000 1.000000
v -12.500000 184.999939 75.000122 1.000000 1.000000 1.000000
v -15.000000 152.498322 72.500092 1.000000 1.000000 1.000000
v -5.000000 152.499939 82.500092 1.000000 1.000000 1.000000
v 5.000000 152.499939 82.500092 1.000000 1.000000 1.000000
v 75.000000 185.000000 -12.499876 1.000000 1.000000 1.000000
v 72.500000 170.000000 15.000111 1.000000 1.000000 1.000000
v 75.000000 185.000000 12.500124 1.000000 1.000000 1.000000
v -82.500000 152.500000 5.000100 1.000000 1.000000 1.000000
v -75.000000 185.000000 12.500124 1.000000 1.000000 1.000000
v -72.500000 152.498383 15.000100 1.000000 1.000000 1.000000
v -12.500000 185.000061 -74.999878 1.000000 1.000000 1.000000
v -75.000000 185.000000 -12.499876 1.000000 1.000000 1.000000
v -72.500000 152.498383 -14.999900 1.000000 1.000000 1.000000
v 12.500000 185.000061 -74.999878 1.000000 1.000000 1.000000
v -5.000000 152.500061 -82.499908 1.000000 1.000000 1.000000
v 82.500000 152.500000 -4.999900 1.000000 1.000000 1.000000
v 82.500000 152.500000 5.000100 1.000000 1.000000 1.000000
v 15.000000 152.498322 72.500092 1.000000 1.000000 1.000000
v 72.500000 152.498383 15.000100 1.000000 1.000000 1.000000
v -82.500000 152.500000 -4.999900 1.000000 1.000000 1.000000
v -15.000000 152.498444 -72.499908 1.000000 1.000000 1.000000
v 5.000000 152.500061 -82.499908 1.000000 1.000000 1.000000
v 72.500000 152.498383 -14.999900 1.000000 1.000000 1.000000
v 15.000000 169.999939 72.500122 1.000000 1.000000 1.000000
v 15.000000 152.498444 -72.499908 1.000000 1.000000 1.000000
v 75.848343 199.999954 75.848465 1.000000 1.000000 1.000000
v 75.848343 200.000046 -75.848221 1.000000 1.000000 1.000000
v -75.848343 200.000046 -75.848221 1.000000 1.000000 1.000000
v -75.848343 199.999954 75.848465 1.000000 1.000000 1.000000
v 75.848343 149.560272 75.848450 1.000000 1.000000 1.000000
v 75.848343 149.560364 -75.848236 1.000000 1.000000 1.000000
v -75.848343 149.560364 -75.848236 1.000000 1.000000 1.000000
v -75.848343 149.560272 75.848450 1.000000 1.000000 1.000000
vt 0.517400 3.999900
vt 0.517400 2.999900
vt 0.189300 3.656200
vt 0.189300 3.343700
vt -1.999900 1.000000
vt 1.999900 1.000000
vt -1.999900 4.999900
vt 1.999900 4.999900
vt 1.079900 3.495100
vt -0.061200 3.495100
vt 0.999900 3.744500
vt 0.000000 3.744500
vt 0.833800 3.003900
vt 0.958500 3.425700
vt 0.667500 3.003900
vt 0.542900 3.425700
vt 0.499900 3.003900
vt 0.999900 3.003900
vt 0.999900 3.233700
vt 0.999900 3.496000
vt 0.458600 3.425800
vt 0.499900 3.496000
vt 0.000000 3.229600
vt 0.166900 3.003900
vt 0.041900 3.425800
vt 0.000000 3.496000
vt 0.000000 3.003900
vt 0.543700 3.425700
vt 0.958700 3.425700
vt 0.834200 3.003900
vt 0.668200 3.003900
vt 0.333600 3.003900
vt -0.637400 -0.497500
vt 2.149500 -0.497500
vt -0.172900 -0.002500
vt 1.685000 -0.002500
vt 0.999900 3.213900
vt 0.000000 3.199200
vt 0.999900 3.199200
vt 0.110500 3.199200
vt 0.125900 3.003900
vt 0.903000 3.213900
vt 0.000000 3.213900
vt 0.878900 3.003900
vt -1.629100 -0.984300
vt 2.370800 -0.984300
vt -0.629100 0.000100
vt 1.370800 0.000100
vt 1.999900 -0.999900
vt 0.000000 -0.999900
vt 0.000000 1.000000
vt 1.999900 3.996000
vt 0.799900 3.996000
vt 1.999900 3.800700
vt -0.999900 3.800700
vt -0.999900 3.996000
vt 0.200000 3.996000
vt 0.199900 3.996000
vt -1.000000 3.800700
vt 0.773400 3.660100
vt 0.773400 2.999900
vt 0.226500 3.660100
vt 0.226500 2.999900
vt 0.000000 3.988200
vt 0.999900 3.988200
vt 0.000000 3.660100
vt 0.999900 3.660100
vt -0.999900 -0.999900
vt -0.999900 4.999900
vt 0.000000 4.999900
vt 0.999900 -0.999900
vt 0.999900 4.999900
vt -1.999900 -0.999900
vt -0.999900 1.000000
vt 0.999900 1.000000
vt 0.000000 0.000000
vn -0.412732 -0.259682 0.873012
vn 0.412732 -0.259682 0.873012
vn -0.272713 -0.666951 0.693381
vn 0.272713 -0.666951 0.693381
vn 0.873012 -0.259651 0.412732
vn 0.873012 -0.259651 -0.412732
vn 0.693381 -0.666951 0.272713
vn 0.693381 -0.666951 -0.272713
vn -0.873012 -0.259651 -0.412732
vn -0.873012 -0.259651 0.412732
vn -0.693381 -0.666951 -0.272713
vn -0.693381 -0.666951 0.272713
vn 0.412732 -0.259651 -0.873012
vn -0.412732 -0.259651 -0.873012
vn 0.272713 -0.666951 -0.693381
vn -0.272713 -0.666951 -0.693381
vn -0.577349 -0.577349 0.577349
vn -0.577349 -0.577349 -0.577349
vn 0.577349 -0.577349 0.577349
vn 0.577349 -0.577349 -0.577349
vn -0.615436 -0.492355 0.615436
vn -0.615436 -0.492355 -0.615436
vn -0.677053 -0.288369 0.677053
vn -0.677053 -0.288369 -0.677053
vn 0.615436 -0.492355 -0.615436
vn 0.677053 -0.288369 -0.677053
vn 0.615436 -0.492355 0.615436
vn 0.677053 -0.288369 0.677053
vn 0.357830 0.212622 0.909238
vn -0.357830 0.212622 0.909238
vn 0.382672 0.000000 0.923856
vn 0.071291 -0.040529 0.996612
vn 0.909238 0.212622 -0.357830
vn 0.996612 -0.040529 -0.071291
vn 0.923856 0.000000 0.382672
vn 0.909238 0.212622 0.357830
vn 0.996612 -0.040529 0.071291
vn -0.909238 0.212622 0.357830
vn -0.357830 0.212622 -0.909238
vn -0.071291 -0.040529 -0.996612
vn -0.909238 0.212622 -0.357830
vn -0.996612 -0.040529 -0.071291
vn 0.357830 0.212622 -0.909238
vn 0.071291 -0.040529 -0.996612
vn -0.996612 -0.040529 0.071291
vn -0.071291 -0.040529 0.996612
vn 0.000000 1.000000 0.000000
vn 0.000000 0.999969 0.000000
vn -0.707083 0.000000 0.707083
vn 0.707083 0.000000 0.707083
vn 1.000000 0.000000 0.000000
vn -0.695090 -0.183386 -0.695090
vn 0.707083 0.000000 -0.707083
vn 0.695090 -0.183386 0.695090
vn -0.695090 -0.183386 0.695090
vn 0.000000 0.000000 1.000000
vn 0.695090 -0.183386 -0.695090
vn -0.666646 -0.333323 0.666646
vn -0.666646 -0.333323 -0.666646
vn 0.666646 -0.333323 -0.666646
vn 0.666646 -0.333323 0.666646
vn -1.000000 0.000000 0.000000
vn 0.000000 0.000000 -1.000000
vn -0.577349 0.577349 -0.577349
vn -0.577349 0.577349 0.577349
vn 0.577349 0.577349 -0.577349
vn 0.577349 0.577349 0.577349
vn 0.261269 -0.574908 0.775353
vn 0.218299 0.171300 0.960692
vn -0.261299 -0.574908 0.775353
vn -0.179418 0.181707 0.966826
vn -0.622913 -0.473128 0.622974
vn 0.632405 -0.447218 0.632466
vn 0.775353 -0.574908 0.261269
vn 0.960692 0.171300 0.218299
vn -0.966826 0.181707 0.179418
vn -0.775353 -0.574908 0.261269
vn -0.622974 -0.473128 0.622913
vn 0.179418 0.181707 -0.966826
vn 0.622913 -0.473128 -0.622974
vn 0.261299 -0.574908 -0.775353
vn -0.179418 0.181707 -0.966826
vn -0.261299 -0.574908 -0.775353
vn -0.622913 -0.473128 -0.622974
vn -0.966826 0.181707 -0.179418
vn -0.622974 -0.473128 -0.622913
vn -0.775353 -0.574908 -0.261299
vn 0.632466 -0.447218 0.632405
vn 0.966826 0.181707 -0.179418
vn 0.775353 -0.574908 -0.261299
vn 0.622974 -0.473128 -0.622913
vn -0.707083 0.000000 -0.707083
usemtl unnamed.4
f 29/1/1 63/2/2 30/3/3
f 63/2/2 31/4/4 30/3/3
f 64/1/5 72/2/6 48/3/7
f 72/2/6 47/4/8 48/3/7
f 41/1/9 38/2/10 65/3/11
f 36/4/12 65/3/11 38/2/10
f 83/1/13 66/2/14 67/3/15
f 45/4/16 67/3/15 66/2/14
f 68/5/17 69/6/18 70/7/19
f 69/6/18 77/8/20 70/7/19
usemtl unnamed.003
f 26/9/21 23/10/22 21/11/23
f 22/12/24 21/11/23 23/10/22
f 23/9/22 24/10/25 22/11/24
f 24/10/25 53/12/26 22/11/24
f 24/9/25 25/10/27 53/11/26
f 51/12/28 53/11/26 25/10/27
f 25/9/27 26/10/21 51/11/28
f 21/12/23 51/11/28 26/10/21
f 31/13/4 27/14/29 30/15/3
f 28/16/30 29/17/1 30/15/3
f 63/18/2 78/19/31 31/13/4
f 78/19/31 79/20/32 27/14/29
f 33/21/33 72/17/6 32/22/34
f 34/23/35 48/24/7 35/25/36
f 58/26/37 34/23/35 35/25/36
f 37/25/38 36/24/12 38/27/10
f 39/28/39 66/17/14 74/22/40
f 40/21/41 42/22/42 41/17/9
f 44/29/43 83/18/13 67/30/15
f 44/29/43 43/20/44 83/18/13
f 39/28/39 45/31/16 66/17/14
f 40/21/41 41/17/9 65/32/11
f 37/25/38 38/27/10 46/26/45
f 28/16/30 55/22/46 29/17/1
f 31/13/4 78/19/31 27/14/29
f 34/23/35 64/27/5 48/24/7
f 33/21/33 47/32/8 72/17/6
f 48/24/7 47/32/8 35/25/36
f 79/20/32 55/22/46 27/14/29
f 27/14/29 55/22/46 28/16/30
f 35/25/36 47/32/8 33/21/33
f 32/22/34 58/26/37 33/21/33
f 33/21/33 58/26/37 35/25/36
f 37/25/38 40/21/41 36/24/12
f 36/24/12 40/21/41 65/32/11
f 39/28/39 44/29/43 45/31/16
f 45/31/16 44/29/43 67/30/15
f 46/26/45 42/22/42 37/25/38
f 40/21/41 37/25/38 42/22/42
f 74/22/40 43/20/44 39/28/39
f 39/28/39 43/20/44 44/29/43
f 30/15/3 27/14/29 28/16/30
usemtl unnamed.5
f 6/33/47 1/34/48 7/35/47
f 1/34/48 3/36/47 7/35/47
f 1/33/48 2/34/48 3/35/47
f 2/34/48 4/36/47 3/35/47
f 2/33/48 5/34/47 4/35/47
f 5/34/47 10/36/47 4/35/47
f 5/33/47 6/34/47 10/35/47
f 6/34/47 7/36/47 10/35/47
f 38/27/10 68/18/17 71/37/49
f 63/27/2 70/18/19 78/38/31
f 70/18/19 81/39/50 78/38/31
f 75/40/51 72/27/6 73/41/51
f 66/27/14 84/20/52 74/26/40
f 75/40/51 73/41/51 76/39/53
f 73/41/51 77/18/20 76/39/53
f 78/38/31 81/39/50 79/26/32
f 81/39/50 82/20/54 79/26/32
f 55/20/46 61/26/55 85/42/56
f 71/43/49 85/42/56 61/26/55
f 55/20/46 85/42/56 29/18/1
f 80/44/56 29/18/1 85/42/56
f 81/38/50 34/39/35 82/26/54
f 34/39/35 58/20/37 82/26/54
f 70/27/19 64/18/5 81/38/50
f 64/18/5 34/39/35 81/38/50
f 83/18/13 43/20/44 76/38/53
f 43/20/44 57/26/57 76/38/53
f 84/26/52 41/18/9 42/20/42
f 83/18/13 76/38/53 77/27/20
f 69/18/18 84/20/52 66/27/14
f 69/27/18 41/18/9 84/26/52
f 38/27/10 71/37/49 46/26/45
f 71/37/49 61/20/55 46/26/45
f 85/42/56 71/43/49 80/44/56
f 68/27/17 80/44/56 71/43/49
f 32/26/34 75/40/51 57/20/57
f 75/40/51 76/39/53 57/20/57
f 75/40/51 32/26/34 72/27/6
usemtl unnamed.006
f 3/45/47 4/46/47 8/47/47
f 9/48/47 8/47/47 4/46/47
f 4/46/47 10/45/47 9/48/47
f 11/47/47 9/48/47 10/45/47
f 10/45/47 7/46/47 11/47/47
f 12/48/47 11/47/47 7/46/47
f 3/45/47 8/47/47 7/46/47
f 8/47/47 12/48/47 7/46/47
usemtl unnamed.008
f 11/49/47 12/6/47 9/50/47
f 12/6/47 8/51/47 9/50/47
usemtl unnamed.3
f 61/52/55 55/53/46 60/54/58
f 56/55/59 59/54/60 84/56/52
f 84/56/52 59/54/60 74/57/40
f 74/57/40 59/54/60 43/53/44
f 59/54/60 57/52/57 43/53/44
f 62/54/61 58/53/37 59/55/60
f 58/53/37 32/58/34 59/55/60
f 60/55/58 56/54/59 61/56/55
f 61/56/55 56/54/59 46/57/45
f 46/57/45 56/54/59 42/53/42
f 84/52/52 42/53/42 56/54/59
f 60/54/58 55/53/46 62/59/61
f 55/53/46 79/57/32 62/59/61
f 62/59/61 79/57/32 82/56/54
f 82/52/54 58/53/37 62/54/61
f 59/55/60 32/58/34 57/56/57
usemtl unnamed.009
f 49/60/18 54/61/20 50/62/17
f 54/61/20 52/63/19 50/62/17
f 22/64/24 53/65/26 49/66/18
f 53/65/26 54/67/20 49/66/18
f 22/65/24 49/67/18 21/64/23
f 49/67/18 50/66/17 21/64/23
f 21/65/23 50/67/17 51/64/28
f 50/67/17 52/66/19 51/64/28
f 51/65/28 52/67/19 53/64/26
f 52/67/19 54/66/20 53/64/26
usemtl unnamed.010
f 19/68/62 13/50/56 18/69/62
f 13/50/56 14/70/56 18/69/62
f 13/50/56 15/71/51 14/70/56
f 15/71/51 16/72/51 14/70/56
f 15/71/51 20/49/63 16/72/51
f 20/49/63 17/8/63 16/72/51
f 18/69/62 17/7/63 19/68/62
f 17/7/63 20/73/63 19/68/62
f 86/51/56 19/74/62 87/50/56
f 19/74/62 92/68/62 87/50/56
f 86/51/56 87/50/56 88/75/51
f 87/50/56 89/71/51 88/75/51
f 89/71/51 91/49/63 88/75/51
f 91/49/63 90/6/63 88/75/51
f 90/5/63 91/73/63 19/74/62
f 91/73/63 92/68/62 19/74/62
usemtl unnamed.007
f 137/76/64 138/76/65 136/76/66
f 138/76/65 135/76/67 136/76/66
f 135/76/67 140/76/20 136/76/66
f 138/76/65 139/76/19 135/76/67
f 138/76/65 141/76/18 142/76/17
f 136/76/66 141/76/18 137/76/64
f 141/76/18 139/76/19 142/76/17
f 135/76/67 139/76/19 140/76/20
f 138/76/65 142/76/17 139/76/19
f 138/76/65 137/76/64 141/76/18
f 136/76/66 140/76/20 141/76/18
f 141/76/18 140/76/20 139/76/19
usemtl unnamed.1
f 113/76/68 109/76/69 112/76/70
f 110/76/71 111/76/72 112/76/70
f 127/76/73 133/76/50 113/76/68
f 115/76/50 126/76/74 116/76/75
f 118/76/76 117/76/77 119/76/78
f 123/76/79 134/76/80 131/76/81
f 120/76/82 124/76/83 130/76/84
f 121/76/85 122/76/86 129/76/87
f 113/76/68 133/76/50 109/76/69
f 115/76/50 128/76/88 126/76/74
f 114/76/89 125/76/90 132/76/91
f 126/76/74 125/76/90 116/76/75
f 116/76/75 125/76/90 114/76/89
f 118/76/76 121/76/85 117/76/77
f 117/76/77 121/76/85 129/76/87
f 120/76/82 123/76/79 124/76/83
f 124/76/83 123/76/79 131/76/81
f 112/76/70 109/76/69 110/76/71
f 127/76/73 112/76/70 111/76/72
f 119/76/78 129/76/87 122/76/86
f 131/76/81 130/76/84 124/76/83
f 132/76/91 126/76/74 128/76/88
f 127/76/73 113/76/68 112/76/70
f 119/76/78 117/76/77 129/76/87
f 131/76/81 134/76/80 130/76/84
f 132/76/91 125/76/90 126/76/74
usemtl unnamed.2
f 96/76/18 101/76/20 97/76/17
f 101/76/20 99/76/19 97/76/17
f 95/76/92 100/76/53 96/76/18
f 100/76/53 101/76/20 96/76/18
f 95/76/92 96/76/18 94/76/49
f 96/76/18 97/76/17 94/76/49
f 94/76/49 97/76/17 98/76/50
f 97/76/17 99/76/19 98/76/50
f 98/76/50 99/76/19 100/76/53
f 99/76/19 101/76/20 100/76/53
usemtl unnamed.0
f 102/76/56 93/76/62 103/76/56
f 93/76/62 108/76/62 103/76/56
f 102/76/56 103/76/56 104/76/51
f 103/76/56 105/76/51 104/76/51
f 105/76/51 107/76/63 104/76/51
f 107/76/63 106/76/63 104/76/51
f 106/76/63 107/76/63 93/76/62
f 107/76/63 108/76/62 93/76/62
