mtllib RisingPlatformSmall.mtl
v -24.999899 199.999893 24.999908
v 24.999899 199.999893 24.999908
v -24.999899 199.999893 -24.999889
v 24.999899 199.999893 -24.999889
v 14.9999 199.999893 -14.999891
v -14.9999 199.999893 -14.999891
v 14.9999 199.999893 14.999908
v -14.9999 199.999893 14.999908
v 9.9999 99.999901 22.499903
v 22.499899 99.999901 -9.999895
v -24.999899 199.999893 24.999908 0.447059 0.6 0.698039
v 24.999899 199.999893 24.999908 0.447059 0.6 0.698039
v -24.999899 199.999893 -24.999889 0.447059 0.6 0.698039
v 24.999899 199.999893 -24.999889 0.447059 0.6 0.698039
v -22.499899 189.999893 -22.499891 0.447059 0.6 0.698039
v 22.499899 189.999893 -22.499891 0.447059 0.6 0.698039
v 22.499899 189.999893 22.499907 0.447059 0.6 0.698039
v -22.499899 189.999893 22.499907 0.447059 0.6 0.698039
v 22.499899 169.999893 22.499907
v 22.499899 169.999893 -22.499891 0.447059 0.6 0.698039
v -22.499899 169.999893 22.499907 0.447059 0.6 0.698039
v -22.499899 109.999901 22.499905 0.447059 0.6 0.698039
v 22.499899 109.999901 -22.499893 0.447059 0.6 0.698039
v -22.499899 109.999901 -22.499893 0.447059 0.6 0.698039
v 22.499899 109.999901 22.499905
v 24.999899 82.499901 24.999903
v 22.499899 99.999901 9.999905
v 9.9999 99.999901 -22.499895 0.447059 0.6 0.698039
v -22.499899 99.999901 -9.999895 0.447059 0.6 0.698039
v -24.999899 82.499901 24.999903
v -24.999899 82.499901 -24.999895 0.447059 0.6 0.698039
v 24.999899 82.499901 -24.999895
v -9.9999 99.999901 -22.499895 0.447059 0.6 0.698039
v -22.499899 99.999901 9.999905 0.447059 0.6 0.698039
v -9.9999 99.999901 22.499903
v 0 99.999901 17.499903 0.447059 0.6 0.698039
v 17.499899 99.999901 0.000004 0.447059 0.6 0.698039
v 0 99.999901 -17.499895 0.447059 0.6 0.698039
v -17.499899 99.999901 0.000004 0.447059 0.6 0.698039
v 0 -259.999908 17.499887 0 0.235294 0.4
v 17.499899 -259.999908 -0.000011 0.023529 0.152941 0.4
v 0 -259.999908 -17.49991 0.003922 0.192157 0.329412
v -17.499899 -259.999908 -0.000011 0.023529 0.152941 0.4
v 0 48.999897 17.499901
v -17.499899 14.9999 0.000001 0.447059 0.6 0.698039
v 17.499899 31.999899 0.000001 0.447059 0.6 0.698039
v 0 -69.999901 -17.499903 0.447059 0.6 0.698039
v -17.499899 -69.999901 -0.000003
v 0 -69.999901 17.499895
v 17.499899 -69.999901 -0.000003 0.447059 0.6 0.698039
v 17.499899 -106.099899 -0.000005 0.368627 0.513726 0.643137
v 0 -123.200005 17.499893 0.282353 0.517647 0.647059
v -17.499899 -106.099998 -0.000005 0.407843 0.556863 0.678431
vt -0.0484 0.3249
vt 1.0442 0.3249
vt 0.1691 0.4962
vt 0.8266 0.4962
vt 0 0.9999
vt 0 0
vt 0.9999 0.9999
vt 0.9999 0
vt 0.9999 1.7851
vt 0 1.7851
vt 0.9999 1.996
vt 0 1.996
vt 0.0002 1.5555
vt 2.0002 1.5555
vt 0.5558 1
vt 1.4447 1
vt 2.0002 2.4444
vt 0.0002 2.4444
vt 1.4447 3
vt 0.5558 3
vt 0.8106 1.8102
vt -0.2933 1.529
vt 0.8106 1.1835
vt 0.8437 3.9624
vt 0.8437 5.9999
vt 0 4.4718
vt 0 5.9999
vt 1.7265 1
vt 1.7265 5.9999
vt -1.7265 1
vt -0.8671 1
vt -0.8671 3.4531
vt 0 1
vt -0.8671 5.9999
vt -1.7265 5.9999
vt 0.8437 1
vt -0.8671 0.145
vt 0 -0.2599
vt 0.8437 0.145
vt -1.7265 -3.4999
vt -0.8671 -3.4999
vt 0 -3.4999
vt 0.8437 -3.4999
vt 1.7265 -3.4999
vt 0.7382 1.2968
vt 0.2617 1.2968
vt 0.6054 1.164
vt 0.3945 1.164
vt 0.7734 1
vt 0.2148 1
vt 0.5039 1.9999
vt 0.0039 1.9999
vt 0.5039 1.7734
vt 0.0039 1.7734
vt 0.5039 1.0039
vt 0.0039 1.0039
vn 0 1 0
vn 0.666646 -0.333323 0.666646
vn -0.666646 -0.333323 0.666646
vn 0.69509 -0.183386 0.69509
vn -0.69509 -0.183386 0.69509
vn -0.666646 -0.333323 -0.666646
vn -0.69509 -0.183386 -0.69509
vn 0.666646 -0.333323 -0.666646
vn 0.69509 -0.183386 -0.69509
vn -0.740013 -0.649312 -0.175207
vn 0.740013 -0.649312 -0.175207
vn 0.175207 -0.649312 0.740013
vn -0.175207 -0.649312 0.740013
vn 0.740013 -0.649312 0.175207
vn -0.740013 -0.649312 0.175207
vn -0.175207 -0.649312 -0.740013
vn 0.175207 -0.649312 -0.740013
vn 0.306528 -0.901151 0.306528
vn 0.306528 -0.901151 -0.306528
vn -0.306528 -0.901151 -0.306528
vn -0.306528 -0.901151 0.306528
vn 1 0 0
vn 0 0 1
vn 0 0 -1
vn -1 0 0
vn -0.706595 0.037233 -0.706595
vn 0.706595 0.037233 -0.706595
vn -0.706595 0.037233 0.706595
vn 0.706595 0.037233 0.706595
vn 0.707083 0 -0.707083
vn 0.707083 0 0.707083
vn -0.707083 0 0.707083
usemtl unnamed.005
f 2/1/1 4/2/1 7/3/1
f 4/2/1 5/4/1 7/3/1
f 4/2/1 3/1/1 5/4/1
f 3/1/1 6/3/1 5/4/1
f 3/1/1 1/2/1 6/3/1
f 1/2/1 8/4/1 6/3/1
f 1/2/1 2/1/1 8/4/1
f 2/1/1 7/3/1 8/4/1
usemtl unnamed.0
f 12/9/2 11/10/3 17/11/4
f 17/11/4 11/10/3 18/12/5
f 11/9/3 13/10/6 18/11/5
f 13/10/6 15/12/7 18/11/5
f 14/9/8 12/10/2 16/11/9
f 16/11/9 12/10/2 17/12/4
f 14/10/8 16/12/9 13/9/6
f 13/9/6 16/12/9 15/11/7
usemtl unnamed.1
f 34/13/10 27/14/11 35/15/12
f 27/14/11 9/16/13 35/15/12
f 10/17/14 27/14/11 29/18/15
f 27/14/11 34/13/10 29/18/15
f 10/17/14 29/18/15 28/19/16
f 29/18/15 33/20/17 28/19/16
usemtl unnamed.4
f 16/51/9 17/52/4 20/53/30
f 17/52/4 19/54/31 20/53/30
f 17/51/4 18/52/5 19/53/31
f 18/52/5 21/54/32 19/53/31
f 15/52/7 21/53/32 18/51/5
f 20/53/30 19/54/31 23/55/27
f 19/54/31 25/56/29 23/55/27
f 16/52/9 20/54/30 15/51/7
f 15/51/7 20/54/30 24/55/26
f 20/54/30 23/56/27 24/55/26
f 19/53/31 21/54/32 25/55/29
f 21/54/32 22/56/28 25/55/29
f 15/52/7 24/56/26 21/53/32
f 24/56/26 22/55/28 21/53/32
usemtl unnamed.006
f 7/5/1 5/6/1 8/7/1
f 5/6/1 6/8/1 8/7/1
usemtl unnamed.2
f 27/21/11 26/22/18 9/23/13
f 32/22/19 10/23/14 28/21/16
f 33/23/17 29/21/15 31/22/20
f 34/23/10 35/21/12 30/22/21
f 46/24/22 37/25/22 44/26/23
f 37/25/22 36/27/23 44/26/23
f 47/28/24 38/29/24 46/24/22
f 46/24/22 38/29/24 37/25/22
f 47/30/24 48/31/25 45/32/25
f 44/26/23 45/32/25 49/33/23
f 48/31/25 49/33/23 45/32/25
f 45/32/25 44/26/23 39/34/25
f 44/26/23 36/27/23 39/34/25
f 47/30/24 45/32/25 38/35/24
f 45/32/25 39/34/25 38/35/24
f 44/26/23 49/33/23 46/24/22
f 50/36/22 46/24/22 49/33/23
f 50/36/22 47/28/24 46/24/22
f 48/31/25 47/30/24 53/37/25
f 52/38/23 49/33/23 53/37/25
f 49/33/23 48/31/25 53/37/25
f 52/38/23 51/39/22 49/33/23
f 50/36/22 49/33/23 51/39/22
f 47/28/24 50/36/22 51/39/22
f 47/30/24 42/40/24 53/37/25
f 42/40/24 43/41/25 53/37/25
f 53/37/25 43/41/25 52/38/23
f 43/41/25 40/42/23 52/38/23
f 51/39/22 52/38/23 41/43/22
f 41/43/22 52/38/23 40/42/23
f 47/28/24 51/39/22 42/44/24
f 42/44/24 51/39/22 41/43/22
usemtl unnamed.3
f 24/45/26 23/46/27 33/47/17
f 23/46/27 28/48/16 33/47/17
f 22/45/28 34/47/10 30/49/21
f 28/48/16 23/46/27 32/50/19
f 24/45/26 33/47/17 31/49/20
f 31/50/20 29/48/15 24/46/26
f 30/50/21 35/48/12 22/46/28
f 25/45/29 9/47/13 26/49/18
f 26/50/18 27/48/11 25/46/29
f 23/45/27 10/47/14 32/49/19
f 25/45/29 22/46/28 9/47/13
f 22/46/28 35/48/12 9/47/13
f 23/45/27 25/46/29 10/47/14
f 25/46/29 27/48/11 10/47/14
f 22/45/28 24/46/26 34/47/10
f 24/46/26 29/48/15 34/47/10
