# Blender v2.79 (sub 0) OBJ File: ''
# www.blender.org
mtllib WoodBox.mtl
v 10.000000 19.999996 10.000003
v 10.000000 20.000000 -9.999997
v -10.000000 19.999996 10.000003
v -10.000000 -0.000004 10.000000
v -10.000000 20.000000 -9.999997
v 10.000000 -0.000004 10.000000
v 10.000000 -0.000000 -10.000000
v -10.000000 -0.000000 -10.000000
vt 1.000000 0.000000
vt 1.000000 0.995931
vt 0.000000 0.995931
vt 0.000000 0.000000
vt 1.000000 0.000000
vt 1.000000 0.995931
vt 0.000000 0.995931
vt 0.000000 0.000000
vt 1.000000 0.000000
vt 1.000000 0.995931
vt 0.000000 0.995931
vt 0.000000 0.000000
vt 1.000000 0.000000
vt 1.000000 0.995931
vt 0.000000 0.995931
vt 0.000000 0.000000
vt 0.000000 0.000000
vt 1.000000 0.000000
vt 1.000000 1.000000
vt 0.000000 1.000000
vt 1.000000 1.000000
vt 0.000000 1.000000
vn -1.0000 0.0000 0.0000
vn 0.0000 -0.0000 1.0000
vn 1.0000 0.0000 0.0000
vn 0.0000 0.0000 -1.0000
vn 0.0000 1.0000 0.0000
vn 0.0000 -1.0000 -0.0000
usemtl Mesh_0342.rip
s off
f 4/1/1 3/2/1 5/3/1
f 5/3/1 8/4/1 4/1/1
f 6/5/2 1/6/2 3/7/2
f 3/7/2 4/8/2 6/5/2
f 7/9/3 2/10/3 1/11/3
f 1/11/3 6/12/3 7/9/3
f 8/13/4 5/14/4 2/15/4
f 2/15/4 7/16/4 8/13/4
usemtl Mesh_0341.rip
f 3/17/5 1/18/5 2/19/5
f 2/19/5 5/20/5 3/17/5
f 4/8/6 7/21/6 6/5/6
f 7/21/6 4/8/6 8/22/6
