mtllib ItemBalloon.mtl
v 20.864008 -10.913799 -0.000004
v 14.753069 -10.913794 -14.753073
v 24.091669 1.132043 0
v 17.035379 1.132049 -17.035379
v 20.864008 13.177865 0.000004
v 14.753068 13.177871 -14.753064
v 0 -10.913792 -20.864012
v 0 1.132051 -24.091669
v -14.753069 -10.913794 -14.753073
v -17.035379 1.132049 -17.035379
v 0 13.177873 -20.864
v -14.753067 13.177871 -14.753063
v -20.864008 -10.913799 -0.000004
v -24.091669 1.132043 0
v -14.753069 -10.913805 14.753065
v -17.035379 1.132037 17.035379
v -20.864002 13.177865 0.000004
v -14.753067 13.177859 14.753071
v 0 -10.913807 20.864004
v 0 1.132035 24.091669
v 14.753069 -10.913805 14.753065
v 17.035379 1.132037 17.035379
v 0 13.177857 20.864006
v 14.753067 13.177859 14.753071
v 0 24.500994 0.000008
v 12.045835 21.996071 0.000008
v 8.51769 21.996075 -8.517682
v 8.51769 -19.731966 -8.517695
v 0 -25.594299 -0.000008
v 0 -19.731966 -12.04584
v -8.51769 -19.731966 -8.517695
v 0 21.996075 -12.045827
v -8.51769 21.996075 -8.517682
v -12.045835 -19.73197 -0.000006
v -8.51769 -19.731974 8.517684
v -12.045835 21.996071 0.000008
v -8.51769 21.996067 8.517698
v 0 -19.731974 12.045829
v 8.51769 -19.731974 8.517684
v 0 21.996067 12.045842
v 8.51769 21.996067 8.517698
v 12.045835 -19.73197 -0.000006
v 0.087083 -25.169523 -0.000008
v -0.478317 -32.461903 3.871773
v -4.613354 -30.762188 3.871775
v 1.589201 -33.311764 -0.000012
v -6.680874 -29.912327 -0.00001
v -4.613355 -30.762188 -3.871797
v -0.478319 -32.461903 -3.871797
v -0.55819 -26.789381 -0.000009
vt 1.000388 0.015686
vt 0.695381 0.015686
vt 1.000388 0.258824
vt 0.695381 0.258824
vt 1.000388 0.494118
vt 0.695381 0.494118
vt 0.488898 0.171232
vt 0.453603 0.230056
vt 0.524192 0.230056
vt 0.532035 0.312409
vt 0.44576 0.312409
vt 0.457525 0.226134
vt 0.488898 0.147703
vt 0.488898 0.226134
vt 0.52027 0.226134
vt 0.488898 0.324173
vt 0.532035 0.324173
vt 0.44576 0.324173
vt 0.258824 0.560784
vt 0.309804 0.74902
vt 0.372549 0.560784
vn 0.880306 -0.47438 0
vn 0.622456 -0.47438 -0.622456
vn 1 0 0
vn 0.707083 0 -0.707083
vn 0.880306 0.47438 0
vn 0.622456 0.47438 -0.622456
vn 0 -0.47438 -0.880306
vn 0 0 -1
vn -0.622456 -0.47438 -0.622456
vn -0.707083 0 -0.707083
vn 0 0.47438 -0.880306
vn -0.622456 0.47438 -0.622456
vn -0.880306 -0.47438 0
vn -1 0 0
vn -0.622456 -0.47438 0.622456
vn -0.707083 0 0.707083
vn -0.880306 0.47438 0
vn -0.622456 0.47438 0.622456
vn 0 -0.47438 0.880306
vn 0 0 1
vn 0.622456 -0.47438 0.622456
vn 0.707083 0 0.707083
vn 0 0.47438 0.880306
vn 0.622456 0.47438 0.622456
vn 0 1 0
vn 0.526566 0.850093 0
vn 0.372356 0.850093 -0.372356
vn 0.428694 -0.795221 -0.428694
vn 0 -1 0
vn 0 -0.795251 -0.60625
vn -0.428694 -0.795221 -0.428694
vn 0 0.850093 -0.526566
vn -0.372356 0.850093 -0.372356
vn -0.60625 -0.795251 0
vn -0.428694 -0.795251 0.428694
vn -0.526566 0.850093 0
vn -0.372356 0.850093 0.372356
vn 0 -0.795251 0.60625
vn 0.428694 -0.795251 0.428694
vn 0 0.850093 0.526566
vn 0.372356 0.850093 0.372356
vn 0.60625 -0.795251 0
vn -0.594867 -0.340465 -0.728141
vn -0.378765 -0.925474 0
vn -0.983398 -0.181402 0
vn -0.594867 -0.340465 0.728141
vn 0.183752 -0.65923 -0.729118
vn 0.183752 -0.65923 0.729118
vn 0.57387 -0.818934 0
vn -0.598437 -0.457381 -0.657735
vn -0.380718 -0.92468 0
vn -0.949828 -0.312693 0
vn -0.598437 -0.457381 0.657735
vn 0.103641 -0.746422 -0.657338
vn 0.103641 -0.746422 0.657338
vn 0.45436 -0.890805 0
usemtl Balloon
f 1/1/1 2/2/2 3/3/3
f 2/2/2 4/4/4 3/3/3
f 3/3/3 4/4/4 5/5/5
f 4/4/4 6/6/6 5/5/5
f 2/2/2 7/1/7 4/4/4
f 4/4/4 7/1/7 8/3/8
f 7/1/7 9/2/9 8/3/8
f 8/3/8 9/2/9 10/4/10
f 4/4/4 8/3/8 6/6/6
f 6/6/6 8/3/8 11/5/11
f 8/3/8 10/4/10 11/5/11
f 11/5/11 10/4/10 12/6/12
f 9/2/9 13/1/13 10/4/10
f 10/4/10 13/1/13 14/3/14
f 13/1/13 15/2/15 14/3/14
f 14/3/14 15/2/15 16/4/16
f 10/4/10 14/3/14 12/6/12
f 12/6/12 14/3/14 17/5/17
f 14/3/14 16/4/16 17/5/17
f 17/5/17 16/4/16 18/6/18
f 15/2/15 19/1/19 16/4/16
f 16/4/16 19/1/19 20/3/20
f 19/1/19 21/2/21 20/3/20
f 20/3/20 21/2/21 22/4/22
f 16/4/16 20/3/20 18/6/18
f 18/6/18 20/3/20 23/5/23
f 20/3/20 22/4/22 23/5/23
f 23/5/23 22/4/22 24/6/24
f 5/5/5 24/6/24 3/3/3
f 24/6/24 22/4/22 3/3/3
f 3/3/3 22/4/22 1/1/1
f 22/4/22 21/2/21 1/1/1
f 25/7/25 26/8/26 27/9/27
f 27/9/27 26/8/26 6/10/6
f 26/8/26 5/11/5 6/10/6
f 28/12/28 29/13/29 30/14/30
f 29/13/29 31/15/31 30/14/30
f 30/14/30 31/15/31 7/16/7
f 31/15/31 9/17/9 7/16/7
f 28/12/28 30/14/30 2/18/2
f 30/14/30 7/16/7 2/18/2
f 25/7/25 27/8/27 32/9/32
f 32/9/32 27/8/27 11/10/11
f 27/8/27 6/11/6 11/10/11
f 25/7/25 32/8/32 33/9/33
f 33/9/33 32/8/32 12/10/12
f 32/8/32 11/11/11 12/10/12
f 31/12/31 29/13/29 34/14/34
f 29/13/29 35/15/35 34/14/34
f 34/14/34 35/15/35 13/16/13
f 35/15/35 15/17/15 13/16/13
f 31/12/31 34/14/34 9/18/9
f 34/14/34 13/16/13 9/18/9
f 25/7/25 33/8/33 36/9/36
f 36/9/36 33/8/33 17/10/17
f 33/8/33 12/11/12 17/10/17
f 25/7/25 36/8/36 37/9/37
f 37/9/37 36/8/36 18/10/18
f 36/8/36 17/11/17 18/10/18
f 35/12/35 29/13/29 38/14/38
f 29/13/29 39/15/39 38/14/38
f 38/14/38 39/15/39 19/16/19
f 39/15/39 21/17/21 19/16/19
f 35/12/35 38/14/38 15/18/15
f 38/14/38 19/16/19 15/18/15
f 25/7/25 37/8/37 40/9/40
f 40/9/40 37/8/37 23/10/23
f 37/8/37 18/11/18 23/10/23
f 25/7/25 40/8/40 41/9/41
f 41/9/41 40/8/40 24/10/24
f 40/8/40 23/11/23 24/10/24
f 39/12/39 29/13/29 42/14/42
f 29/13/29 28/15/28 42/14/42
f 42/14/42 28/15/28 1/16/1
f 28/15/28 2/17/2 1/16/1
f 39/12/39 42/14/42 21/18/21
f 42/14/42 1/16/1 21/18/21
f 25/7/25 41/8/41 26/9/26
f 26/9/26 41/8/41 5/10/5
f 41/8/41 24/11/24 5/10/5
f 44/19/43 43/20/44 46/21/45
f 46/19/45 43/20/44 49/21/46
f 45/19/47 43/20/44 44/21/43
f 49/19/46 43/20/44 48/21/48
f 47/19/49 43/20/44 45/21/47
f 48/19/48 43/20/44 47/21/49
f 44/19/50 50/20/51 46/21/52
f 46/19/52 50/20/51 49/21/53
f 45/19/54 50/20/51 44/21/50
f 49/19/53 50/20/51 48/21/55
f 47/19/56 50/20/51 45/21/54
f 48/19/55 50/20/51 47/21/56
