# Blender v2.79 (sub 0) OBJ File: ''
# www.blender.org
mtllib Vine.mtl
v 0.511533 -0.000002 -1.000000
v 0.000000 -0.707104 -0.707107
v 0.000000 0.000003 -1.000000
v 0.511533 -0.707109 -0.707107
v 0.000000 -0.999998 -0.000000
v 0.511533 -1.000002 -0.000000
v 0.000000 -0.707105 0.707106
v 0.511533 -0.000003 1.000000
v 0.000000 0.000002 1.000000
v 0.511533 0.707104 0.707107
v 0.000000 0.707109 0.707107
v 0.000000 1.000002 0.000000
v 0.767299 -0.750002 -0.000000
v 0.511533 0.999998 0.000000
v 0.000000 0.707109 -0.707106
v 0.511533 0.707105 -0.707106
v 0.767299 0.530328 0.530330
v 0.895183 0.562498 0.000000
v 0.767299 0.749998 0.000000
v 0.767299 -0.000002 0.750000
v 0.767299 -0.000002 -0.750000
v 0.767299 -0.530332 -0.530330
v 0.767299 -0.530333 0.530330
v 0.511533 -0.707109 0.707106
v 0.767299 0.530328 -0.530330
v 0.895183 -0.000002 -0.562500
v 0.959124 -0.298313 -0.298311
v 0.895183 -0.397750 -0.397748
v 0.895183 -0.397750 0.397747
v 0.895183 -0.000002 0.562500
v 0.895183 -0.562502 -0.000000
v 0.895183 0.397746 -0.397747
v 0.895183 0.397745 0.397748
v 0.959124 0.421873 0.000000
v 0.989353 0.223731 -0.223733
v 0.959124 0.298309 -0.298310
v 0.959124 -0.000002 -0.421875
v 0.959124 -0.000002 0.421875
v 0.959124 -0.421877 -0.000000
v 0.959124 0.298308 0.298311
v 0.959124 -0.298313 0.298310
v 0.989353 -0.223735 -0.223733
v 0.998799 -0.150826 -0.000000
v 0.989353 -0.316408 -0.000000
v 0.989353 -0.000002 0.316406
v 0.989353 0.223731 0.223733
v 0.989353 -0.223735 0.223733
v 0.989353 -0.000002 -0.316406
v 0.989353 0.316404 0.000000
v 0.998799 -0.000002 -0.150824
v 0.998799 0.106647 -0.106649
v 0.999999 -0.000002 -0.000000
v 0.998799 0.106647 0.106649
v 0.998799 -0.106651 0.106649
v 0.998799 -0.106651 -0.106649
v 0.998799 0.150822 0.000000
v 0.998799 -0.000002 0.150824
vt 0.490379 0.269328
vt 0.419402 10.500000
vt 0.490379 10.500000
vt 0.419402 0.269327
vt 0.248047 10.500000
vt 0.248047 0.269328
vt 0.076692 10.500000
vt 0.005714 0.269328
vt 0.005714 10.500000
vt 0.076692 0.269329
vt 0.076692 10.500000
vt 0.248047 10.500000
vt 0.248047 -4.846008
vt 0.248047 0.269328
vt 0.419402 10.500000
vt 0.419402 0.269327
vt 0.119531 -4.846008
vt 0.248047 -7.403676
vt 0.248047 -4.846008
vt 0.066298 -4.846008
vt 0.429796 -4.846008
vt 0.376563 -4.846008
vt 0.119531 -4.846008
vt 0.076692 0.269329
vt 0.376563 -4.846008
vt 0.384359 -7.403676
vt 0.320337 -8.682513
vt 0.344434 -7.403676
vt 0.151660 -7.403676
vt 0.111735 -7.403676
vt 0.248047 -7.403676
vt 0.344434 -7.403676
vt 0.151660 -7.403676
vt 0.248047 -8.682513
vt 0.302265 -9.287096
vt 0.320337 -8.682513
vt 0.350281 -8.682513
vt 0.145813 -8.682513
vt 0.248047 -8.682513
vt 0.175756 -8.682513
vt 0.175756 -8.682513
vt 0.302265 -9.287096
vt 0.248047 -9.476016
vt 0.248047 -9.287096
vt 0.171372 -9.287096
vt 0.193829 -9.287096
vt 0.193829 -9.287096
vt 0.324722 -9.287096
vt 0.248047 -9.287096
vt 0.284597 -9.476016
vt 0.273892 -9.476016
vt 0.248047 -9.500000
vt 0.222202 -9.476016
vt 0.222202 -9.476016
vt 0.273892 -9.476016
vt 0.248047 -9.476016
vt 0.211497 -9.476016
vn 0.3486 -0.0000 -0.9373
vn -0.0000 -0.7071 -0.7071
vn -0.0000 0.0000 -1.0000
vn 0.3486 -0.6628 -0.6628
vn -0.0000 -1.0000 -0.0000
vn 0.3486 -0.9373 -0.0000
vn -0.0000 -0.7071 0.7071
vn 0.3486 -0.0000 0.9373
vn -0.0000 0.0000 1.0000
vn 0.3486 0.6628 0.6628
vn 0.0000 0.7071 0.7071
vn 0.0000 1.0000 0.0000
vn 0.7544 -0.6564 -0.0000
vn 0.3486 0.9373 0.0000
vn 0.0000 0.7071 -0.7071
vn 0.3486 0.6628 -0.6628
vn 0.7544 0.4641 0.4641
vn 0.8623 0.5063 0.0000
vn 0.7544 0.6564 0.0000
vn 0.7544 -0.0000 0.6564
vn 0.7544 0.0000 -0.6564
vn 0.7544 -0.4641 -0.4641
vn 0.7544 -0.4641 0.4641
vn 0.3486 -0.6628 0.6628
vn 0.7544 0.4641 -0.4641
vn 0.8623 0.0000 -0.5063
vn 0.9323 -0.2557 -0.2557
vn 0.8623 -0.3580 -0.3580
vn 0.8623 -0.3580 0.3580
vn 0.8623 -0.0000 0.5063
vn 0.8623 -0.5063 -0.0000
vn 0.8623 0.3580 -0.3580
vn 0.8623 0.3580 0.3580
vn 0.9323 0.3616 0.0000
vn 0.9810 0.1371 -0.1371
vn 0.9323 0.2557 -0.2557
vn 0.9323 0.0000 -0.3616
vn 0.9323 -0.0000 0.3616
vn 0.9323 -0.3616 -0.0000
vn 0.9323 0.2557 0.2557
vn 0.9323 -0.2557 0.2557
vn 0.9810 -0.1371 -0.1371
vn 0.9993 -0.0386 -0.0000
vn 0.9810 -0.1939 -0.0000
vn 0.9810 0.0000 0.1939
vn 0.9810 0.1371 0.1371
vn 0.9810 -0.1371 0.1371
vn 0.9810 0.0000 -0.1939
vn 0.9810 0.1939 0.0000
vn 0.9993 -0.0000 -0.0386
vn 0.9993 0.0273 -0.0273
vn 1.0000 -0.0000 0.0000
vn 0.9993 0.0273 0.0273
vn 0.9993 -0.0273 0.0273
vn 0.9993 -0.0273 -0.0273
vn 0.9993 0.0386 0.0000
vn 0.9993 -0.0000 0.0386
usemtl Vine.png
s 1
f 1/1/1 2/2/2 3/3/3
f 4/4/4 5/5/5 2/2/2
f 6/6/6 7/7/7 5/5/5
f 7/7/7 8/8/8 9/9/9
f 9/9/9 10/10/10 11/11/11
f 10/10/10 12/12/12 11/11/11
f 4/4/4 13/13/13 6/6/6
f 14/14/14 15/15/15 12/12/12
f 16/16/16 3/3/3 15/15/15
f 17/17/17 18/18/18 19/19/19
f 10/10/10 20/20/20 17/17/17
f 16/16/16 21/21/21 1/1/1
f 1/1/1 22/22/22 4/4/4
f 6/6/6 23/23/23 24/24/24
f 10/10/10 19/19/19 14/14/14
f 8/8/8 23/23/23 20/20/20
f 14/14/14 25/25/25 16/16/16
f 26/26/26 27/27/27 28/28/28
f 20/20/20 29/29/29 30/30/30
f 22/22/22 31/31/31 13/13/13
f 19/19/19 32/32/32 25/25/25
f 17/17/17 30/30/30 33/33/33
f 13/13/13 29/29/29 23/23/23
f 21/21/21 28/28/28 22/22/22
f 25/25/25 26/26/26 21/21/21
f 34/34/34 35/35/35 36/36/36
f 32/32/32 37/37/37 26/26/26
f 33/33/33 34/34/34 18/18/18
f 29/29/29 38/38/38 30/30/30
f 28/28/28 39/39/39 31/31/31
f 18/18/18 36/36/36 32/32/32
f 33/33/33 38/38/38 40/40/40
f 31/31/31 41/41/41 29/29/29
f 42/42/42 43/43/43 44/44/44
f 40/40/40 45/45/45 46/46/46
f 39/39/39 47/47/47 41/41/41
f 37/37/37 42/42/42 27/27/27
f 36/36/36 48/48/48 37/37/37
f 40/40/40 49/49/49 34/34/34
f 38/38/38 47/47/47 45/45/45
f 27/27/27 44/44/44 39/39/39
f 50/50/50 51/51/51 52/52/52
f 49/49/49 51/51/51 35/35/35
f 45/45/45 53/53/53 46/46/46
f 47/47/47 43/43/43 54/54/54
f 48/48/48 55/55/55 42/42/42
f 48/48/48 51/51/51 50/50/50
f 49/49/49 53/53/53 56/56/56
f 45/45/45 54/54/54 57/57/57
f 56/56/56 53/53/53 52/52/52
f 57/57/57 54/54/54 52/52/52
f 43/43/43 55/55/55 52/52/52
f 51/51/51 56/56/56 52/52/52
f 53/53/53 57/57/57 52/52/52
f 54/54/54 43/43/43 52/52/52
f 55/55/55 50/50/50 52/52/52
f 1/1/1 4/4/4 2/2/2
f 4/4/4 6/6/6 5/5/5
f 6/6/6 24/24/24 7/7/7
f 7/7/7 24/24/24 8/8/8
f 9/9/9 8/8/8 10/10/10
f 10/10/10 14/14/14 12/12/12
f 4/4/4 22/22/22 13/13/13
f 14/14/14 16/16/16 15/15/15
f 16/16/16 1/1/1 3/3/3
f 17/17/17 33/33/33 18/18/18
f 10/10/10 8/8/8 20/20/20
f 16/16/16 25/25/25 21/21/21
f 1/1/1 21/21/21 22/22/22
f 6/6/6 13/13/13 23/23/23
f 10/10/10 17/17/17 19/19/19
f 8/8/8 24/24/24 23/23/23
f 14/14/14 19/19/19 25/25/25
f 26/26/26 37/37/37 27/27/27
f 20/20/20 23/23/23 29/29/29
f 22/22/22 28/28/28 31/31/31
f 19/19/19 18/18/18 32/32/32
f 17/17/17 20/20/20 30/30/30
f 13/13/13 31/31/31 29/29/29
f 21/21/21 26/26/26 28/28/28
f 25/25/25 32/32/32 26/26/26
f 34/34/34 49/49/49 35/35/35
f 32/32/32 36/36/36 37/37/37
f 33/33/33 40/40/40 34/34/34
f 29/29/29 41/41/41 38/38/38
f 28/28/28 27/27/27 39/39/39
f 18/18/18 34/34/34 36/36/36
f 33/33/33 30/30/30 38/38/38
f 31/31/31 39/39/39 41/41/41
f 42/42/42 55/55/55 43/43/43
f 40/40/40 38/38/38 45/45/45
f 39/39/39 44/44/44 47/47/47
f 37/37/37 48/48/48 42/42/42
f 36/36/36 35/35/35 48/48/48
f 40/40/40 46/46/46 49/49/49
f 38/38/38 41/41/41 47/47/47
f 27/27/27 42/42/42 44/44/44
f 49/49/49 56/56/56 51/51/51
f 45/45/45 57/57/57 53/53/53
f 47/47/47 44/44/44 43/43/43
f 48/48/48 50/50/50 55/55/55
f 48/48/48 35/35/35 51/51/51
f 49/49/49 46/46/46 53/53/53
f 45/45/45 47/47/47 54/54/54
