mtllib ChunkSeafloor.mtl
v 60191.082 -373.36053 -114863.13 0.38 0.51 0.73
v -60077.02 -373.36053 -114863.13 0.38 0.51 0.73
v 60191.082 -373.37772 55303.695 0.38 0.51 0.73
v -60077.02 -373.37772 55303.695 0.38 0.51 0.73
v 57.03125 -373.36053 -114863.13 1 1 1
v 57.03125 -373.37772 55303.695 1 1 1
vt 0.4807 -18.6562
vt 14.2005 20.168
vt 0.4807 20.168
vt -13.2391 20.168
vt -13.2391 -18.6562
vt 14.2005 -18.6562
vn 0 1 0
usemtl k1_umi02.png
f 6/1/1 1/2/1 5/3/1
f 2/4/1 4/5/1 6/1/1
f 6/1/1 3/6/1 1/2/1
f 5/3/1 2/4/1 6/1/1
