mtllib Flag.mtl
v 81.814095 83.661659 -2.121311 1.000000 1.000000 1.000000
v 121.229004 85.922264 -8.866137 1.000000 1.000000 1.000000
v 121.229004 105.233002 -8.866131 1.000000 1.000000 1.000000
v 40.854748 81.401070 4.740373 1.000000 1.000000 1.000000
v 20.728359 80.270775 1.559386 1.000000 1.000000 1.000000
v 20.728359 110.884499 1.559396 1.000000 1.000000 1.000000
v 1.838478 79.140480 0.000026 1.000000 1.000000 1.000000
v 81.814095 107.493599 -2.121304 1.000000 1.000000 1.000000
v 40.854748 109.754196 4.740383 1.000000 1.000000 1.000000
v 59.984589 82.531364 4.408579 1.000000 1.000000 1.000000
v 59.984589 108.623894 4.408587 1.000000 1.000000 1.000000
v 1.838478 112.014793 0.000036 1.000000 1.000000 1.000000
v 81.814095 83.661659 -2.121363 1.000000 1.000000 1.000000
v 121.229004 85.922264 -8.866188 1.000000 1.000000 1.000000
v 121.229004 105.233002 -8.866182 1.000000 1.000000 1.000000
v 40.854748 81.401070 4.740323 1.000000 1.000000 1.000000
v 20.728359 80.270775 1.559335 1.000000 1.000000 1.000000
v 20.728359 110.884499 1.559345 1.000000 1.000000 1.000000
v 1.838478 79.140480 -0.000025 1.000000 1.000000 1.000000
v 81.814095 107.493599 -2.121355 1.000000 1.000000 1.000000
v 40.854748 109.754196 4.740332 1.000000 1.000000 1.000000
v 59.984589 82.531364 4.408528 1.000000 1.000000 1.000000
v 59.984589 108.623894 4.408536 1.000000 1.000000 1.000000
v 1.838478 112.014793 -0.000015 1.000000 1.000000 1.000000
vt 0.665300 0.536500
vt 0.996000 0.554700
vt 0.665300 0.740900
vt 0.996000 0.722700
vt 0.334600 0.518300
vt 0.499900 0.527400
vt 0.334600 0.759200
vt 0.499900 0.750100
vt 0.169200 0.509200
vt 0.169200 0.768300
vt 0.003900 0.500100
vt 0.003900 0.777400
vn 0.230018 0.000000 0.973174
vn 0.168645 0.000000 0.985656
vn -0.072817 0.000000 0.997345
vn 0.148686 0.000000 0.988861
vn -0.072817 0.000000 0.997314
vn -0.117893 0.000000 0.993011
vn -0.082247 0.000000 0.996582
vn -0.230018 0.000000 -0.973174
vn -0.168645 0.000000 -0.985656
vn 0.072817 0.000000 -0.997314
vn -0.148686 0.000000 -0.988861
vn 0.117893 0.000000 -0.993011
vn 0.082247 0.000000 -0.996582
usemtl unnamed.0
f 1/1/1 2/2/2 8/3/1
f 2/2/2 3/4/2 8/3/1
f 4/5/3 10/6/4 9/7/5
f 10/6/4 1/1/1 11/8/4
f 1/1/1 8/3/1 11/8/4
f 5/9/6 4/5/3 6/10/6
f 4/5/3 9/7/5 6/10/6
f 7/11/7 5/9/6 12/12/7
f 5/9/6 6/10/6 12/12/7
f 9/7/5 10/6/4 11/8/4
f 13/1/8 20/3/8 14/2/9
f 14/2/9 20/3/8 15/4/9
f 16/5/10 21/7/10 22/6/11
f 22/6/11 23/8/11 13/1/8
f 13/1/8 23/8/11 20/3/8
f 17/9/12 18/10/12 16/5/10
f 16/5/10 18/10/12 21/7/10
f 19/11/13 24/12/13 17/9/12
f 17/9/12 24/12/13 18/10/12
f 21/7/10 23/8/11 22/6/11
