mtllib Flag2.mtl
v 81.814095 83.661659 6.803681 1.000000 1.000000 1.000000
v 121.229004 85.922264 -0.070492 1.000000 1.000000 1.000000
v 121.229004 105.233002 -0.070486 1.000000 1.000000 1.000000
v 40.854748 81.401070 1.765376 1.000000 1.000000 1.000000
v 20.728359 80.270775 -2.321046 1.000000 1.000000 1.000000
v 20.728359 110.884499 -2.321036 1.000000 1.000000 1.000000
v 1.838478 79.140480 0.000026 1.000000 1.000000 1.000000
v 81.814095 107.493599 6.803689 1.000000 1.000000 1.000000
v 40.854748 109.754196 1.765385 1.000000 1.000000 1.000000
v 60.113937 82.531364 8.030316 1.000000 1.000000 1.000000
v 60.113937 108.623894 8.030325 1.000000 1.000000 1.000000
v 1.838478 112.014793 0.000036 1.000000 1.000000 1.000000
v 81.814095 83.661659 6.803630 1.000000 1.000000 1.000000
v 121.229004 85.922264 -0.070544 1.000000 1.000000 1.000000
v 121.229004 105.233002 -0.070538 1.000000 1.000000 1.000000
v 40.854748 81.401070 1.765325 1.000000 1.000000 1.000000
v 20.728359 80.270775 -2.321097 1.000000 1.000000 1.000000
v 20.728359 110.884499 -2.321087 1.000000 1.000000 1.000000
v 1.838478 79.140480 -0.000025 1.000000 1.000000 1.000000
v 81.814095 107.493599 6.803638 1.000000 1.000000 1.000000
v 40.854748 109.754196 1.765335 1.000000 1.000000 1.000000
v 60.113937 82.531364 8.030265 1.000000 1.000000 1.000000
v 60.113937 108.623894 8.030273 1.000000 1.000000 1.000000
v 1.838478 112.014793 -0.000015 1.000000 1.000000 1.000000
v 60.113937 82.531364 8.030316
v 60.113937 108.623894 8.030325
v 60.113937 82.531364 8.030265
v 60.113937 108.623894 8.030273
vt 0.665300 0.536500
vt 0.996000 0.554700
vt 0.665300 0.740900
vt 0.996000 0.722700
vt 0.334600 0.518300
vt 0.499900 0.527400
vt 0.334600 0.759200
vt 0.499900 0.750100
vt 0.169200 0.509200
vt 0.169200 0.768300
vt 0.003900 0.500100
vt 0.003900 0.777400
vn 0.112308 0.000000 0.993652
vn 0.171789 0.000000 0.985107
vn -0.252602 0.000000 0.967559
vn -0.135014 0.000000 0.990814
vn -0.033082 0.000000 0.999451
vn 0.121952 0.000000 0.992523
vn -0.112308 0.000000 -0.993652
vn -0.171789 0.000000 -0.985107
vn 0.252602 0.000000 -0.967559
vn 0.135014 0.000000 -0.990814
vn 0.033082 0.000000 -0.999451
vn -0.121952 0.000000 -0.992523
usemtl unnamed.0
f 1/1/1 2/2/2 8/3/1
f 2/2/2 3/4/2 8/3/1
f 4/5/3 10/6/4 9/7/3
f 10/6/4 1/1/1 11/8/4
f 1/1/1 8/3/1 11/8/4
f 5/9/5 4/5/3 6/10/5
f 4/5/3 9/7/3 6/10/5
f 7/11/6 5/9/5 12/12/6
f 5/9/5 6/10/5 12/12/6
f 9/7/3 10/6/4 11/8/4
f 13/1/7 20/3/7 14/2/8
f 14/2/8 20/3/7 15/4/8
f 16/5/9 21/7/9 22/6/10
f 22/6/10 23/8/10 13/1/7
f 13/1/7 23/8/10 20/3/7
f 17/9/11 18/10/11 16/5/9
f 16/5/9 18/10/11 21/7/9
f 19/11/12 24/12/12 17/9/11
f 17/9/11 24/12/12 18/10/11
f 21/7/9 23/8/10 22/6/10
