mtllib Flag.mtl
v 81.814095 83.661659 -0.030191 1.000000 1.000000 1.000000
v 121.229004 85.922264 -3.014450 1.000000 1.000000 1.000000
v 121.229004 105.233002 -3.014444 1.000000 1.000000 1.000000
v 40.854748 81.401070 -2.106433 1.000000 1.000000 1.000000
v 20.728359 80.270775 0.093446 1.000000 1.000000 1.000000
v 20.728359 110.884499 0.093456 1.000000 1.000000 1.000000
v 1.838478 79.140480 0.000026 1.000000 1.000000 1.000000
v 81.814095 107.493599 -0.030183 1.000000 1.000000 1.000000
v 40.854748 109.754196 -2.106424 1.000000 1.000000 1.000000
v 60.113937 82.531364 0.700612 1.000000 1.000000 1.000000
v 60.113937 108.623894 0.700620 1.000000 1.000000 1.000000
v 1.838478 112.014793 0.000036 1.000000 1.000000 1.000000
v 81.814095 83.661659 -0.030242 1.000000 1.000000 1.000000
v 121.229004 85.922264 -3.014501 1.000000 1.000000 1.000000
v 121.229004 105.233002 -3.014495 1.000000 1.000000 1.000000
v 40.854748 81.401070 -2.106483 1.000000 1.000000 1.000000
v 20.728359 80.270775 0.093395 1.000000 1.000000 1.000000
v 20.728359 110.884499 0.093404 1.000000 1.000000 1.000000
v 1.838478 79.140480 -0.000025 1.000000 1.000000 1.000000
v 81.814095 107.493599 -0.030234 1.000000 1.000000 1.000000
v 40.854748 109.754196 -2.106474 1.000000 1.000000 1.000000
v 60.113937 82.531364 0.700560 1.000000 1.000000 1.000000
v 60.113937 108.623894 0.700568 1.000000 1.000000 1.000000
v 1.838478 112.014793 -0.000015 1.000000 1.000000 1.000000
v 60.113937 82.531364 0.700612
v 60.113937 108.623894 0.700620
v 60.113937 82.531364 0.700560
v 60.113937 108.623894 0.700568
vt 0.665300 0.536500
vt 0.996000 0.554700
vt 0.665300 0.740900
vt 0.996000 0.722700
vt 0.334600 0.518300
vt 0.499900 0.527400
vt 0.334600 0.759200
vt 0.499900 0.750100
vt 0.169200 0.509200
vt 0.169200 0.768300
vt 0.003900 0.500100
vt 0.003900 0.777400
vn 0.053835 0.000000 0.998535
vn 0.075472 0.000000 0.997131
vn -0.013306 0.000000 0.999908
vn -0.058626 0.000000 0.998260
vn 0.049837 0.000000 0.998749
vn -0.004944 0.000000 0.999969
vn -0.053835 0.000000 -0.998535
vn -0.075472 0.000000 -0.997131
vn 0.013306 0.000000 -0.999908
vn 0.058596 0.000000 -0.998260
vn 0.058626 0.000000 -0.998260
vn -0.049837 0.000000 -0.998749
vn 0.004944 0.000000 -0.999969
usemtl unnamed.0
f 1/1/1 2/2/2 8/3/1
f 2/2/2 3/4/2 8/3/1
f 4/5/3 10/6/4 9/7/3
f 10/6/4 1/1/1 11/8/4
f 1/1/1 8/3/1 11/8/4
f 5/9/5 4/5/3 6/10/5
f 4/5/3 9/7/3 6/10/5
f 7/11/6 5/9/5 12/12/6
f 5/9/5 6/10/5 12/12/6
f 9/7/3 10/6/4 11/8/4
f 13/1/7 20/3/7 14/2/8
f 14/2/8 20/3/7 15/4/8
f 16/5/9 21/7/9 22/6/10
f 22/6/10 23/8/11 13/1/7
f 13/1/7 23/8/11 20/3/7
f 17/9/12 18/10/12 16/5/9
f 16/5/9 18/10/12 21/7/9
f 19/11/13 24/12/13 17/9/12
f 17/9/12 24/12/13 18/10/12
f 21/7/9 23/8/11 22/6/10
