# Blender v2.79 (sub 0) OBJ File: ''
# www.blender.org
mtllib LimbShoeLeft.mtl
v -0.356371 -1.846574 0.396561
v -0.175429 -1.188064 0.479389
v -1.207556 -1.051717 0.800466
v -1.186599 0.491753 0.782649
v -1.197362 -0.299194 0.832500
v -0.048139 -0.656875 0.520237
v -0.359624 -1.828344 -0.425534
v -1.206376 -1.040569 -0.940503
v -0.176285 -1.164106 -0.522776
v -1.185364 0.510523 -0.873014
v -0.054779 -0.676898 -0.559114
v -1.196074 -0.283349 -0.984880
v 0.088339 0.086182 0.468424
v -1.196710 -1.798973 -0.789727
v -1.206539 -3.226230 -0.071135
v -1.205051 -3.227639 0.096346
v -1.187906 -1.812622 0.679653
v -0.049748 0.726025 -0.014793
v 0.088392 0.133433 -0.514564
v -1.178956 1.020808 -0.001124
vt 0.000000 0.000000
vt 0.000000 0.000000
vt 0.000000 0.000000
vt 0.000000 0.000000
vt 0.000000 0.000000
vt 0.000000 0.000000
vt 0.000000 0.000000
vt 0.000000 0.000000
vt 0.000000 0.000000
vt 0.000000 0.000000
vt 0.000000 0.000000
vt 0.000000 0.000000
vt 0.000000 0.000000
vt 0.000000 0.000000
vt 0.000000 0.000000
vt 0.000000 0.000000
vt 0.000000 0.000000
vt 0.000000 0.000000
vt 0.000000 0.000000
vt 0.000000 0.000000
vn 0.7460 -0.3896 0.5401
vn 0.7633 -0.2836 0.5805
vn 0.2945 -0.1631 0.9416
vn 0.2955 0.4577 0.8386
vn 0.2782 0.0566 0.9589
vn 0.7939 -0.0955 0.6005
vn 0.7586 -0.3994 -0.5148
vn 0.3688 -0.1974 -0.9083
vn 0.7711 -0.2954 -0.5640
vn 0.3368 0.4844 -0.8074
vn 0.8098 -0.0842 -0.5806
vn 0.3840 0.1238 -0.9150
vn 0.7902 0.1693 0.5890
vn 0.3735 -0.2884 -0.8817
vn 0.8045 -0.5471 -0.2312
vn 0.8062 -0.5453 0.2295
vn 0.3033 -0.2467 0.9204
vn 0.6361 0.7713 0.0247
vn 0.7923 0.1896 -0.5799
vn 0.2528 0.9670 0.0327
vn 0.7653 -0.2088 0.6089
vn 0.7305 -0.2263 0.6444
vn 0.2703 -0.0707 0.9602
vn 0.7903 -0.2172 -0.5729
vn 0.3501 -0.0841 -0.9329
vn 0.7591 -0.2346 -0.6073
vn 0.2914 -0.0446 0.9556
vn 0.3690 -0.0594 -0.9275
vn -0.9999 0.0136 -0.0006
vn -0.9999 0.0098 0.0063
vn -0.9999 0.0099 0.0061
vn -0.9999 0.0091 0.0076
vn -0.9999 -0.0129 -0.0008
vn -0.9999 0.0084 0.0090
vn -0.9996 -0.0267 0.0057
usemtl 250_21_21
s 1
f 1/1/1 2/2/2 3/3/3
f 4/4/4 5/5/5 6/6/6
f 7/7/7 8/8/8 9/9/9
f 10/10/10 11/11/11 12/12/12
f 7/7/7 9/9/9 2/2/2
f 13/13/13 6/6/6 11/11/11
f 14/14/14 7/7/7 15/15/15
f 1/1/1 16/16/16 15/15/15
f 17/17/17 16/16/16 1/1/1
f 10/10/10 18/18/18 19/19/19
f 18/18/18 4/4/4 13/13/13
f 13/13/13 19/19/19 18/18/18
f 17/17/17 1/1/1 3/3/3
f 13/13/13 4/4/4 6/6/6
f 14/14/14 8/8/8 7/7/7
f 19/19/19 11/11/11 10/10/10
f 1/1/1 7/7/7 2/2/2
f 19/19/19 13/13/13 11/11/11
f 7/7/7 1/1/1 15/15/15
f 20/20/20 18/18/18 10/10/10
f 20/20/20 4/4/4 18/18/18
usemtl 250_251_254.004
f 2/2/21 6/6/22 5/5/23
f 9/9/24 12/12/25 11/11/26
f 9/9/24 11/11/26 6/6/22
f 3/3/27 2/2/21 5/5/23
f 8/8/28 12/12/25 9/9/24
f 2/2/21 9/9/24 6/6/22
usemtl 170_21_21
f 8/8/29 5/5/29 12/12/29
f 17/17/30 14/14/31 15/15/32
f 20/20/29 10/10/29 4/4/29
f 14/14/33 3/3/33 8/8/33
f 4/4/29 12/12/29 5/5/29
f 3/3/29 5/5/29 8/8/29
f 16/16/34 17/17/30 15/15/32
f 17/17/35 3/3/35 14/14/35
f 10/10/29 12/12/29 4/4/29
