# Blender v2.79 (sub 0) OBJ File: ''
# www.blender.org
mtllib LimbHandRight.mtl
v -0.341878 0.022936 0.528540
v -0.329071 0.020691 -0.506614
v -0.350388 -0.474593 0.591646
v 0.328805 0.010474 -0.498453
v -0.336698 -0.536774 -0.589761
v 0.315999 0.012719 0.536701
v 0.336748 -1.257524 -0.671116
v 0.224855 -1.071591 0.719838
v -0.556617 -0.566375 0.466555
v -0.546103 -0.636646 -0.468996
v -0.604496 -1.200404 0.635211
v -0.592617 -1.357987 -0.519577
v -0.220965 -0.177747 -0.393827
v -0.021943 -0.292134 -0.273411
v 0.010500 -0.139141 -0.615770
v 0.196586 -1.158708 -0.599061
v -0.251175 -1.153422 -0.595056
v -0.019453 -1.095807 -0.813426
v -0.031656 -0.958267 -0.332169
v 0.208633 -0.265589 -0.431134
vt 0.000000 0.000000
vt 0.000000 0.000000
vt 0.000000 0.000000
vt 0.000000 0.000000
vt 0.000000 0.000000
vt 0.000000 0.000000
vt 0.000000 0.000000
vt 0.000000 0.000000
vt 0.000000 0.000000
vt 0.000000 0.000000
vt 0.000000 0.000000
vt 0.000000 0.000000
vt 0.000000 0.000000
vt 0.000000 0.000000
vt 0.000000 0.000000
vt 0.000000 0.000000
vt 0.000000 0.000000
vt 0.000000 0.000000
vt 0.000000 0.000000
vt 0.000000 0.000000
vn -0.9998 0.0155 -0.0124
vn 0.0146 0.1473 -0.9890
vn 0.0203 0.1405 -0.9899
vn -0.1656 -0.0388 -0.9854
vn 0.9999 0.0046 0.0124
vn 0.9980 -0.0346 0.0535
vn 0.9981 -0.0335 0.0524
vn -0.0096 0.1673 0.9859
vn -0.0343 0.1548 0.9873
vn -0.0790 0.1253 0.9890
vn -0.7799 0.6243 -0.0439
vn -0.8104 0.5834 -0.0540
vn -0.9975 0.0687 -0.0177
vn 0.0156 0.9999 -0.0020
vn -0.4471 0.8919 -0.0681
vn -0.1688 0.0798 -0.9824
vn -0.2843 -0.0936 -0.9542
vn -0.1150 0.0589 -0.9916
vn 0.1386 -0.9811 0.1353
vn 0.1324 -0.9813 0.1394
vn 0.1345 -0.9813 0.1380
vn -0.5810 0.2499 0.7746
vn -0.2297 0.1382 0.9634
vn -0.2079 0.1508 0.9665
vn 0.9937 -0.0685 0.0891
vn -0.9977 0.0657 -0.0192
vn -0.3790 0.9239 -0.0530
vn 0.1292 -0.9815 0.1416
vn -0.0707 0.6622 0.7460
vn 0.0852 0.3350 0.9384
vn 0.0770 0.8013 -0.5933
vn 0.7591 -0.6509 -0.0051
vn -0.7739 -0.6328 -0.0268
vn -0.0025 -0.3659 -0.9307
vn 0.0598 -0.3584 0.9316
vn -0.7166 -0.1195 0.6871
vn 0.8780 0.4344 0.2009
vn -0.6968 0.1655 -0.6979
vn -0.5440 -0.0659 0.8365
usemtl 250_251_254.002
s 1
f 1/1/1 2/2/1 3/3/1
f 2/2/2 4/4/3 5/5/4
f 4/4/5 6/6/6 7/7/7
f 6/6/8 1/1/9 8/8/10
f 9/9/11 10/10/12 11/11/13
f 6/6/14 4/4/14 1/1/14
f 10/10/12 9/9/11 5/5/15
f 12/12/16 10/10/17 7/7/18
f 11/11/19 12/12/20 8/8/21
f 9/9/22 11/11/23 3/3/24
f 2/2/1 5/5/1 3/3/1
f 4/4/3 7/7/18 5/5/4
f 6/6/6 8/8/25 7/7/7
f 1/1/9 3/3/24 8/8/10
f 10/10/12 12/12/26 11/11/13
f 4/4/14 2/2/14 1/1/14
f 9/9/11 3/3/27 5/5/15
f 10/10/17 5/5/4 7/7/18
f 12/12/20 7/7/28 8/8/21
f 11/11/23 8/8/10 3/3/24
f 13/13/29 14/14/30 15/15/31
f 16/16/32 17/17/33 18/18/34
f 18/18/34 17/17/33 15/15/31
f 17/17/33 19/19/35 13/13/36
f 19/19/35 16/16/32 14/14/30
f 16/16/32 18/18/34 20/20/37
f 16/16/32 19/19/35 17/17/33
f 14/14/30 20/20/37 15/15/31
f 17/17/33 13/13/38 15/15/31
f 19/19/39 14/14/30 13/13/29
f 16/16/32 20/20/37 14/14/30
f 18/18/34 15/15/31 20/20/37
