# Blender v2.79 (sub 0) OBJ File: ''
# www.blender.org
mtllib LimbShin.mtl
v -0.174423 -0.064432 0.001981
v -0.174720 -0.811896 0.001682
v 0.001061 -0.064174 0.179220
v 0.000767 -0.811458 0.177780
v 0.177165 -0.064545 0.002128
v 0.176866 -0.812037 0.002292
v 0.001679 -0.056512 -0.175383
v 0.001377 -0.812474 -0.173806
v -0.174429 0.074814 -0.003088
v 0.001055 0.076667 0.177956
v 0.177160 0.074834 -0.001919
v 0.001676 0.069396 -0.173979
v 0.001676 0.069396 -0.173979
v -0.174429 0.074814 -0.003088
v 0.177160 0.074834 -0.001919
v 0.001055 0.076667 0.177956
v 0.453980 -0.812016 0.006435
v 0.000516 -0.810483 0.454901
v -0.451836 -0.811668 -0.001242
v 0.001628 -0.813203 -0.450924
v -0.451836 -0.811668 -0.001242
v -0.451411 -1.204887 0.001664
v -0.000643 -1.201144 0.453543
v 0.000516 -0.810483 0.454901
v 0.453980 -0.812016 0.006435
v 0.454762 -1.201029 0.005804
v 0.003990 -1.207944 -0.450859
v 0.001628 -0.813203 -0.450924
v -0.000643 -1.201144 0.453543
v 0.003990 -1.207944 -0.450859
v 0.454762 -1.201029 0.005804
v -0.451411 -1.204887 0.001664
vt 0.000000 0.000000
vt 0.000000 0.000000
vt 0.000000 0.000000
vt 0.000000 0.000000
vt 0.000000 0.000000
vt 0.000000 0.000000
vt 0.000000 0.000000
vt 0.000000 0.000000
vt 0.000000 0.000000
vt 0.000000 0.000000
vt 0.000000 0.000000
vt 0.000000 0.000000
vt 0.000000 0.000000
vt 0.000000 0.000000
vt 0.000000 0.000000
vt 0.000000 0.000000
vt 0.000000 0.000000
vt 0.000000 0.000000
vt 0.000000 0.000000
vt 0.000000 0.000000
vt 0.000000 0.000000
vt 0.000000 0.000000
vt 0.000000 0.000000
vt 0.000000 0.000000
vt 0.000000 0.000000
vt 0.000000 0.000000
vt 0.000000 0.000000
vt 0.000000 0.000000
vt 0.000000 0.000000
vt 0.000000 0.000000
vt 0.000000 0.000000
vt 0.000000 0.000000
vn -1.0000 -0.0022 0.0052
vn -1.0000 -0.0002 -0.0035
vn 0.0005 0.0054 1.0000
vn -0.0013 -0.0011 1.0000
vn 1.0000 0.0026 0.0056
vn 1.0000 -0.0011 0.0009
vn 0.0043 0.0011 -1.0000
vn 0.0012 -0.0011 -1.0000
vn -0.9998 0.0065 -0.0163
vn 0.0011 0.0134 0.9999
vn 0.9999 -0.0035 -0.0111
vn 0.0082 0.0047 -1.0000
vn 0.0000 0.9995 -0.0316
vn 0.0000 0.9998 -0.0208
vn 0.0000 0.9998 -0.0207
vn -0.0000 0.9999 -0.0102
vn -0.0004 -1.0000 0.0030
vn -1.0000 -0.0019 -0.0049
vn -1.0000 -0.0011 -0.0023
vn -0.0081 -0.0011 1.0000
vn -0.0037 -0.0035 1.0000
vn 1.0000 0.0012 0.0089
vn 1.0000 0.0020 0.0034
vn 0.0056 -0.0009 -1.0000
vn 0.0020 -0.0002 -1.0000
vn 0.0042 -1.0000 0.0075
vn 0.0077 -0.9999 0.0076
vn 0.0008 -1.0000 0.0075
usemtl 21_128_224
s 1
f 1/1/1 2/2/2 3/3/3
f 3/3/3 4/4/4 5/5/5
f 5/5/5 6/6/6 7/7/7
f 7/7/7 8/8/8 1/1/1
f 3/3/3 2/2/2 4/4/4
f 5/5/5 4/4/4 6/6/6
f 7/7/7 6/6/6 8/8/8
f 1/1/1 8/8/8 2/2/2
f 9/9/9 1/1/1 10/10/10
f 10/10/10 3/3/3 11/11/11
f 11/11/11 5/5/5 12/12/12
f 12/12/12 7/7/7 9/9/9
f 3/3/3 10/10/10 1/1/1
f 5/5/5 11/11/11 3/3/3
f 7/7/7 12/12/12 5/5/5
f 1/1/1 9/9/9 7/7/7
f 13/13/13 14/14/14 15/15/15
f 15/15/15 14/14/14 16/16/16
usemtl 250_251_254.003
f 17/17/17 18/18/17 19/19/17
f 20/20/17 17/17/17 19/19/17
f 21/21/18 22/22/19 23/23/20
f 24/24/21 23/23/20 25/25/22
f 25/25/22 26/26/23 27/27/24
f 28/28/25 27/27/24 21/21/18
f 29/29/26 30/30/26 31/31/27
f 25/25/22 23/23/20 26/26/23
f 21/21/18 27/27/24 22/22/19
f 32/32/28 30/30/26 29/29/26
f 24/24/21 21/21/18 23/23/20
f 28/28/25 25/25/22 27/27/24
