# Blender v2.79 (sub 0) OBJ File: ''
# www.blender.org
mtllib LimbBody.mtl
v 0.061068 1.246736 0.005110
v -0.031367 0.604554 -1.197280
v -0.857057 0.679334 -0.833302
v 0.790764 0.619150 -0.847883
v 0.951394 -0.278737 -0.938004
v 0.684077 -0.857095 -0.674812
v 0.002010 -0.273814 -1.334793
v 1.096421 0.659144 0.065454
v 1.340781 -0.278798 0.012761
v 0.966215 -0.857023 0.012377
v -1.339528 0.565215 0.002718
v -1.133604 0.964250 0.002810
v -0.871437 -0.268251 -0.976035
v -0.689636 -0.848491 -0.679339
v -1.344397 -0.263742 0.003916
v -0.002440 -0.853788 -0.961447
v -1.298153 0.496769 0.002954
v -2.013593 2.161119 -0.001834
v -0.991202 0.629062 -0.189789
v -0.976285 -0.846555 0.005979
v 0.945155 -0.275957 0.960942
v 0.784035 0.612456 0.868354
v -0.033393 0.559508 1.219307
v 0.679567 -0.855086 0.697695
v -0.006817 -0.269880 1.351467
v -0.862561 0.681786 0.841551
v -0.694147 -0.846481 0.693168
v -0.877887 -0.265376 0.986962
v -0.008819 -0.850946 0.979801
v -0.992474 0.629629 0.197321
v -0.007120 -1.247223 0.009750
v -0.976285 -0.846555 0.005979
v -0.689636 -0.848491 -0.679339
v -0.002440 -0.853788 -0.961447
v 0.684077 -0.857095 -0.674812
v 0.966215 -0.857023 0.012377
v -0.694147 -0.846481 0.693168
v -0.008819 -0.850946 0.979801
v 0.679567 -0.855086 0.697695
vt 0.000000 0.000000
vt 0.000000 0.000000
vt 0.000000 0.000000
vt 0.000000 0.000000
vt 0.000000 0.000000
vt 0.000000 0.000000
vt 0.000000 0.000000
vt 0.000000 0.000000
vt 0.000000 0.000000
vt 0.000000 0.000000
vt 0.000000 0.000000
vt 0.000000 0.000000
vt 0.000000 0.000000
vt 0.000000 0.000000
vt 0.000000 0.000000
vt 0.000000 0.000000
vt 0.000000 0.000000
vt 0.000000 0.000000
vt 0.000000 0.000000
vt 0.000000 0.000000
vt 0.000000 0.000000
vt 0.000000 0.000000
vt 0.000000 0.000000
vt 0.000000 0.000000
vt 0.000000 0.000000
vt 0.000000 0.000000
vt 0.000000 0.000000
vt 0.000000 0.000000
vt 0.000000 0.000000
vt 0.000000 0.000000
vt 0.000000 0.000000
vt 0.000000 0.000000
vt 0.000000 0.000000
vt 0.000000 0.000000
vt 0.000000 0.000000
vt 0.000000 0.000000
vt 0.000000 0.000000
vt 0.000000 0.000000
vt 0.000000 0.000000
vn 0.1015 0.9948 0.0052
vn -0.0010 0.5212 -0.8535
vn -0.5427 0.5217 -0.6583
vn 0.6015 0.5387 -0.5899
vn 0.7096 -0.1670 -0.6845
vn 0.5940 -0.5442 -0.5925
vn 0.0054 -0.1893 -0.9819
vn 0.8204 0.5713 0.0259
vn 0.9893 -0.1458 -0.0034
vn 0.8391 -0.5440 0.0036
vn -0.9734 0.2289 -0.0035
vn -0.6237 0.7817 -0.0031
vn -0.6518 -0.1975 -0.7323
vn -0.6128 -0.5150 -0.5994
vn -0.9693 -0.2459 -0.0028
vn -0.0006 -0.5414 -0.8408
vn -0.9187 -0.3949 -0.0024
vn -0.5032 0.8641 -0.0029
vn 0.4173 0.3797 -0.8256
vn -0.8455 -0.5340 -0.0020
vn 0.7008 -0.1701 0.6928
vn 0.5766 0.5446 0.6090
vn -0.0032 0.5048 0.8633
vn 0.5901 -0.5425 0.5979
vn -0.0014 -0.1869 0.9824
vn -0.5377 0.5279 0.6573
vn -0.6167 -0.5133 0.5968
vn -0.6566 -0.1953 0.7285
vn -0.0061 -0.5389 0.8423
vn 0.4118 0.3822 0.8272
vn -0.0057 -1.0000 0.0014
vn -0.3821 -0.9241 0.0001
vn -0.2715 -0.9249 -0.2663
vn -0.0047 -0.9268 -0.3755
vn 0.2625 -0.9281 -0.2639
vn 0.3721 -0.9282 0.0026
vn -0.2732 -0.9241 0.2672
vn -0.0072 -0.9257 0.3782
vn 0.2607 -0.9274 0.2684
usemtl 216_60_74.016
s 1
f 1/1/1 2/2/2 3/3/3
f 4/4/4 5/5/5 2/2/2
f 5/5/5 6/6/6 7/7/7
f 4/4/4 8/8/8 5/5/5
f 9/9/9 10/10/10 5/5/5
f 3/3/3 11/11/11 12/12/12
f 13/13/13 14/14/14 15/15/15
f 2/2/2 7/7/7 3/3/3
f 7/7/7 16/16/16 13/13/13
f 3/3/3 13/13/13 11/11/11
f 17/17/17 18/18/18 19/19/19
f 7/7/7 2/2/2 5/5/5
f 16/16/16 7/7/7 6/6/6
f 9/9/9 5/5/5 8/8/8
f 6/6/6 5/5/5 10/10/10
f 20/20/20 15/15/15 14/14/14
f 13/13/13 3/3/3 7/7/7
f 14/14/14 13/13/13 16/16/16
f 15/15/15 11/11/11 13/13/13
f 21/21/21 22/22/22 23/23/23
f 24/24/24 21/21/21 25/25/25
f 8/8/8 22/22/22 21/21/21
f 10/10/10 9/9/9 21/21/21
f 11/11/11 26/26/26 12/12/12
f 27/27/27 28/28/28 15/15/15
f 25/25/25 23/23/23 26/26/26
f 29/29/29 25/25/25 28/28/28
f 28/28/28 26/26/26 11/11/11
f 18/18/18 17/17/17 30/30/30
f 23/23/23 25/25/25 21/21/21
f 25/25/25 29/29/29 24/24/24
f 21/21/21 9/9/9 8/8/8
f 21/21/21 24/24/24 10/10/10
f 15/15/15 20/20/20 27/27/27
f 26/26/26 28/28/28 25/25/25
f 28/28/28 27/27/27 29/29/29
f 11/11/11 15/15/15 28/28/28
f 18/18/18 30/30/30 19/19/19
f 3/3/3 12/12/12 1/1/1
f 26/26/26 1/1/1 12/12/12
f 26/26/26 23/23/23 1/1/1
f 23/23/23 22/22/22 1/1/1
f 22/22/22 8/8/8 1/1/1
f 8/8/8 4/4/4 1/1/1
f 2/2/2 1/1/1 4/4/4
usemtl 245_184_140.016
f 31/31/31 32/32/32 33/33/33
f 33/33/33 34/34/34 31/31/31
f 31/31/31 34/34/34 35/35/35
f 36/36/36 31/31/31 35/35/35
f 32/32/32 31/31/31 37/37/37
f 38/38/38 37/37/37 31/31/31
f 38/38/38 31/31/31 39/39/39
f 31/31/31 36/36/36 39/39/39
