mtllib Block.mtl
v -21.85 -0.000004 21.85
v -23.75 1.999996 21.85
v -21.85 0.000004 -21.85
v -23.750002 2.000004 -21.85
v -21.85 1.999996 23.75
v 21.85 1.999996 23.75
v 21.85 -0.000004 21.85
v 23.75 1.999996 21.85
v 23.75 2.000004 -21.85
v 21.85 0.000004 -21.85
v 21.85 2.000004 -23.75
v -21.849998 2.000004 -23.75
v 23 17.33333 25.000002
v -23 17.333328 25.000002
v 21.849998 14.777774 23.750002
v -21.85 14.777772 23.750002
v 25 17.333328 23.000002
v 23.75 14.777772 21.850002
v 25 17.333338 -22.999998
v 23.75 14.777781 -21.849998
v 23 17.333336 -24.999998
v 21.85 14.77778 -23.749998
v -23 17.333338 -24.999998
v -21.849998 14.777781 -23.749998
v -25 17.333336 -22.999998
v -23.75 14.77778 -21.849997
v -25 17.33333 23.000002
v -23.75 14.777774 21.850002
v 23 47.999996 25.000008
v -23 47.999996 25.000008
v 23 48.000004 -24.999992
v -23 48.000004 -24.999992
v 25 48.000004 -22.999992
v 25 47.999996 23.000008
v -25 47.999996 23.000008
v -25 48.000004 -22.999992
v 23 49.999996 23.000008
v 23 50.000004 -22.999992
v -23 49.999996 23.000008
v -23 50.000004 -22.999992
v 15.333334 49.999996 15.333343
v -15.333332 49.999996 15.333341
v 15.333334 50.000004 -15.333325
v -15.333332 50.000004 -15.333323
v 0 50 0.000008
v -16.66556 50.800003 -16.665552
v 16.66556 50.799995 16.665567
v -16.66556 50.799995 16.665567
v 16.66556 50.800003 -16.665552
v -22.5 50.300003 -22.499992
v 22.5 50.299995 22.500008
v -22.5 50.299995 22.500008
v 22.5 50.300003 -22.499992
vt 0 1
vt 0.9999 1
vt 0 1.9999
vt 0.9999 1.9999
vt 0.9999 2
vt 0.4999 1.5
vt 1.9999 -0.3867
vt 2.0399 -0.5039
vt 2.9999 -0.3867
vt 2.96 -0.5039
vt 1.96 -0.5039
vt 1.0399 -0.5039
vt 0.9999 -0.3867
vt 0.9599 -0.5039
vt 0.04 -0.5039
vt 0 -0.3867
vt 3.96 -0.5039
vt 3.9999 -0.3867
vt 3.0399 -0.5039
vt 4.0399 -0.5039
vt 1.0399 0.004
vt 1.96 0.004
vt 1.0399 -0.0807
vt 1.96 -0.0807
vt 0.9599 0.004
vt 0.9599 -0.0807
vt 0.04 0.004
vt 0.04 -0.0807
vt 3.96 0.004
vt 4.0399 0.004
vt 3.96 -0.0807
vt 4.0399 -0.0807
vt 3.0399 0.004
vt 3.0399 -0.0807
vt 2.96 0.004
vt 2.96 -0.0807
vt 2.0399 0.004
vt 2.0399 -0.0807
vt 1.0399 0.6563
vt 1.96 0.6563
vt 3.96 0.6563
vt 3.0399 0.6563
vt 0.04 0.6563
vt 0.9599 0.6563
vt 2.0399 0.6563
vt 2.96 0.6563
vt 0.9999 0.7501
vt 0 0.7501
vt 1.9999 0.7501
vt 2.9999 0.7501
vt 4.0399 0.6563
vt 3.9999 0.7501
vt 1.1999 1
vt 1.7999 1
vt 0.1999 1
vt 0.8 1
vt 3.7999 1
vt 3.2 1
vt 2.7999 1
vt 2.2 1
vn 0 1 0
vn -0.724999 -0.688749 0
vn -0.724999 -0.68875 0
vn 0 -0.688749 0.725
vn 0.724999 -0.688749 0
vn 0 -0.688749 -0.724999
vn -0.586967 -0.557619 0.586967
vn 0.586967 -0.557619 0.586967
vn 0.586967 -0.557619 -0.586967
vn -0.586967 -0.557619 -0.586968
vn 0 -0.439385 0.898299
vn 0.589054 -0.553199 0.589055
vn 0.898299 -0.439385 0
vn 0.589055 -0.553199 -0.589054
vn 0 -0.439385 -0.898299
vn -0.589054 -0.553199 -0.589055
vn -0.898299 -0.439385 0
vn -0.589055 -0.553199 0.589054
vn 0.707107 0 0.707107
vn 0.707106 0 0.707107
vn 1 0 0
vn 0.707107 0 -0.707107
vn 0 0 -1
vn -0.707107 0 -0.707107
vn -0.707106 0 -0.707108
vn -1 0 0
vn -0.707107 0 0.707107
vn 0 0 1
vn 0.707107 0.707107 0
vn 0 0.707107 0.707107
vn -0.707107 0.707107 0
vn 0 0.707107 -0.707107
vn 0.57735 0.57735 0.57735
vn -0.57735 0.57735 0.57735
vn 0.57735 0.57735 -0.57735
vn -0.57735 0.57735 -0.57735
vn 0 -1 0
usemtl mat3
f 43/5/1 44/3/1 45/6/1
f 45/6/1 44/3/1 42/1/1
f 41/2/1 45/6/1 42/1/1
f 43/5/1 45/6/1 41/2/1
usemtl mat2
f 48/1/1 47/2/1 46/3/1
f 47/2/1 49/4/1 46/3/1
usemtl mat1
f 52/1/1 51/2/1 50/3/1
f 51/2/1 53/4/1 50/3/1
usemtl Material_1
f 1/7/2 2/8/2 3/9/2
f 2/8/3 4/10/3 3/9/3
f 5/11/4 1/7/4 6/12/4
f 1/7/4 7/13/4 6/12/4
f 8/14/5 7/13/5 9/15/5
f 7/13/5 10/16/5 9/15/5
f 11/17/6 10/18/6 12/19/6
f 10/18/6 3/9/6 12/19/6
f 5/11/7 2/8/7 1/7/7
f 7/13/8 8/14/8 6/12/8
f 11/17/9 9/20/9 10/18/9
f 3/9/10 4/10/10 12/19/10
f 13/21/11 14/22/11 15/23/11
f 16/24/11 15/23/11 14/22/11
f 17/25/12 13/21/12 18/26/12
f 15/23/12 18/26/12 13/21/12
f 19/27/13 17/25/13 20/28/13
f 20/28/13 17/25/13 18/26/13
f 21/29/14 19/30/14 22/31/14
f 19/30/14 20/32/14 22/31/14
f 23/33/15 21/29/15 24/34/15
f 22/31/15 24/34/15 21/29/15
f 25/35/16 23/33/16 26/36/16
f 23/33/16 24/34/16 26/36/16
f 27/37/17 25/35/17 28/38/17
f 25/35/17 26/36/17 28/38/17
f 14/22/18 27/37/18 16/24/18
f 28/38/18 16/24/18 27/37/18
f 6/12/19 8/14/19 15/23/19
f 8/14/20 18/26/20 15/23/20
f 9/15/21 20/28/21 8/14/21
f 20/28/21 18/26/21 8/14/21
f 22/31/22 20/32/22 11/17/22
f 20/32/22 9/20/22 11/17/22
f 11/17/23 12/19/23 22/31/23
f 12/19/23 24/34/23 22/31/23
f 26/36/24 24/34/24 4/10/24
f 24/34/25 12/19/25 4/10/25
f 28/38/26 26/36/26 2/8/26
f 26/36/26 4/10/26 2/8/26
f 2/8/27 5/11/27 28/38/27
f 5/11/27 16/24/27 28/38/27
f 6/12/28 15/23/28 5/11/28
f 15/23/28 16/24/28 5/11/28
f 13/21/28 29/39/28 30/40/28
f 21/29/23 23/33/23 31/41/23
f 23/33/23 32/42/23 31/41/23
f 19/27/21 33/43/21 17/25/21
f 33/43/21 34/44/21 17/25/21
f 35/45/26 36/46/26 27/37/26
f 36/46/26 25/35/26 27/37/26
f 27/37/27 14/22/27 35/45/27
f 14/22/27 30/40/27 35/45/27
f 13/21/19 17/25/19 29/39/19
f 17/25/19 34/44/19 29/39/19
f 37/47/29 34/44/29 38/48/29
f 34/44/29 33/43/29 38/48/29
f 37/47/30 39/49/30 29/39/30
f 29/39/30 39/49/30 30/40/30
f 35/45/31 39/49/31 36/46/31
f 39/49/31 40/50/31 36/46/31
f 31/41/22 33/51/22 21/29/22
f 33/51/22 19/30/22 21/29/22
f 38/52/32 31/41/32 40/50/32
f 31/41/32 32/42/32 40/50/32
f 36/46/24 32/42/24 25/35/24
f 32/42/24 23/33/24 25/35/24
f 29/39/33 34/44/33 37/47/33
f 39/49/34 35/45/34 30/40/34
f 38/52/35 33/51/35 31/41/35
f 32/42/36 36/46/36 40/50/36
f 37/47/1 41/53/1 39/49/1
f 41/53/1 42/54/1 39/49/1
f 38/48/1 43/55/1 37/47/1
f 43/55/1 41/56/1 37/47/1
f 38/52/1 40/50/1 43/57/1
f 40/50/1 44/58/1 43/57/1
f 40/50/1 39/49/1 44/59/1
f 42/60/1 44/59/1 39/49/1
f 13/21/28 30/40/28 14/22/28
f 3/3/37 10/4/37 1/1/37
f 10/4/37 7/2/37 1/1/37
