mtllib BlockCollision.mtl
v -25.000000 -7.000000 25.000000
v -25.000000 50.000000 25.000000
v -25.000000 -7.000000 -25.000000
v -25.000000 50.000000 -25.000000
v 25.000000 -7.000000 25.000000
v 25.000000 50.000000 25.000000
v 25.000000 -7.000000 -25.000000
v 25.000000 50.000000 -25.000000
vt 1.000000 0.000000
vt 0.000000 1.000000
vt 0.000000 0.000000
vt 1.000000 1.000000
vn -1.000000 0.000000 0.000000
vn 0.000000 0.000000 -1.000000
vn 1.000000 -0.000000 0.000000
vn 0.000000 -0.000000 1.000000
vn 0.000000 -1.000000 0.000000
vn 0.000000 1.000000 -0.000000
usemtl None
f 2/1/1 3/2/1 1/3/1
f 4/1/2 7/2/2 3/3/2
f 8/1/3 5/2/3 7/3/3
f 6/1/4 1/2/4 5/3/4
f 7/1/5 1/2/5 3/3/5
f 4/1/6 6/2/6 8/3/6
f 2/1/1 4/4/1 3/2/1
f 4/1/2 8/4/2 7/2/2
f 8/1/3 6/4/3 5/2/3
f 6/1/4 2/4/4 1/2/4
f 7/1/5 5/4/5 1/2/5
f 4/1/6 2/4/6 6/2/6
