mtllib BreakableBlock.mtl
v -23.750000 1.999996 21.850000 0.447059 0.600000 0.698039
v -21.850000 0.000004 -21.850000 0.196078 0.266667 0.329412
v -23.750000 2.000004 -21.850000 0.517647 0.690196 0.768627
v 23.750000 1.999996 21.850000 1.000000 1.000000 1.000000
v 21.850000 2.000004 -23.750000 0.447059 0.600000 0.698039
v 21.850000 0.000004 -21.850000 0.196078 0.266667 0.329412
v -21.850000 2.000004 -23.750000 0.278431 0.447059 0.521569
v 23.750000 2.000004 -21.850000 1.000000 1.000000 1.000000
v 23.000000 17.333326 25.000002 0.894118 0.941176 0.992157
v -23.000000 17.333326 25.000002 1.000000 1.000000 1.000000
v 21.850000 14.777776 23.750002 0.760784 0.850980 0.909804
v 23.750000 14.777776 21.850002 1.000000 1.000000 1.000000
v 25.000000 17.333334 -22.999998 1.000000 1.000000 1.000000
v 23.000000 17.333334 -24.999998 0.447059 0.600000 0.698039
v 21.850000 14.777783 -23.749998 0.294118 0.435294 0.572549
v 23.750000 14.777783 -21.849998 1.000000 1.000000 1.000000
v -23.000000 17.333334 -24.999998 0.278431 0.447059 0.521569
v -21.850000 14.777783 -23.749998 0.239216 0.352941 0.462745
v -25.000000 17.333334 -22.999998 0.447059 0.600000 0.698039
v -23.750000 14.777783 -21.849998 0.313726 0.466667 0.607843
v -25.000000 17.333326 23.000002 0.447059 0.600000 0.698039
v -23.750000 14.777776 21.850002 0.313726 0.466667 0.607843
v 21.850000 1.999996 23.750000 0.760784 0.850980 0.909804
v -21.850000 1.999996 23.750000 1.000000 1.000000 1.000000
v -21.850000 14.777776 23.750002 1.000000 1.000000 1.000000
v 23.000000 47.999996 25.000008 0.760784 0.850980 0.909804
v -23.000000 47.999996 25.000008 0.854902 0.909804 0.960784
v 23.000000 48.000004 -24.999992 0.447059 0.600000 0.698039
v -23.000000 48.000004 -24.999992 0.309804 0.407843 0.509804
v 25.000000 17.333326 23.000002 1.000000 1.000000 1.000000
v 25.000000 47.999996 23.000008 1.000000 1.000000 1.000000
v -25.000000 47.999996 23.000008 0.447059 0.600000 0.698039
v -25.000000 48.000004 -22.999992 0.447059 0.600000 0.698039
v 23.000000 49.999996 23.000008 1.000000 1.000000 1.000000
v -23.000000 49.999996 23.000008 1.000000 1.000000 1.000000
v -23.000000 50.000004 -22.999992 1.000000 1.000000 1.000000
v 25.000000 48.000004 -22.999992 1.000000 1.000000 1.000000
v 23.000000 50.000004 -22.999992 1.000000 1.000000 1.000000
v -15.333329 50.000004 -15.333321 1.000000 1.000000 1.000000
v -21.850000 -0.000004 21.850000 0.196078 0.266667 0.329412
v 21.850000 -0.000004 21.850000 0.196078 0.266667 0.329412
v -22.500000 50.299995 22.500008 1.000000 1.000000 1.000000
v 22.500000 50.299995 22.500008 1.000000 1.000000 1.000000
v -22.500000 50.300003 -22.499992 1.000000 1.000000 1.000000
v 22.500000 50.300003 -22.499992 1.000000 1.000000 1.000000
v -16.665560 50.799995 16.665567 1.000000 1.000000 1.000000
v 16.665560 50.799995 16.665567 1.000000 1.000000 1.000000
v -16.665560 50.800003 -16.665552 1.000000 1.000000 1.000000
v 16.665560 50.800003 -16.665552 1.000000 1.000000 1.000000
v 15.333329 50.000004 -15.333321 1.000000 1.000000 1.000000
v 0.000000 50.000000 0.000008 0.301961 0.498039 0.462745
v -15.333329 49.999996 15.333338 1.000000 1.000000 1.000000
v 15.333329 49.999996 15.333338 1.000000 1.000000 1.000000
vt 1.999900 -0.386700
vt 2.039900 -0.503900
vt 2.999900 -0.386700
vt 2.960000 -0.503900
vt 1.960000 -0.503900
vt 1.039900 -0.503900
vt 0.999900 -0.386700
vt 0.959900 -0.503900
vt 0.040000 -0.503900
vt 0.000000 -0.386700
vt 3.960000 -0.503900
vt 3.999900 -0.386700
vt 3.039900 -0.503900
vt 4.039900 -0.503900
vt 1.039900 0.004000
vt 1.960000 0.004000
vt 1.039900 -0.080700
vt 1.960000 -0.080700
vt 0.959900 0.004000
vt 0.959900 -0.080700
vt 0.040000 0.004000
vt 0.040000 -0.080700
vt 3.960000 0.004000
vt 4.039900 0.004000
vt 3.960000 -0.080700
vt 4.039900 -0.080700
vt 3.039900 0.004000
vt 3.039900 -0.080700
vt 2.960000 0.004000
vt 2.960000 -0.080700
vt 2.039900 0.004000
vt 2.039900 -0.080700
vt 1.039900 0.656300
vt 1.960000 0.656300
vt 3.960000 0.656300
vt 3.039900 0.656300
vt 0.040000 0.656300
vt 0.959900 0.656300
vt 2.039900 0.656300
vt 2.960000 0.656300
vt 0.999900 0.750100
vt 0.000000 0.750100
vt 1.999900 0.750100
vt 2.999900 0.750100
vt 4.039900 0.656300
vt 3.999900 0.750100
vt 1.199900 1.000000
vt 1.799900 1.000000
vt 0.199900 1.000000
vt 0.800000 1.000000
vt 3.799900 1.000000
vt 3.200000 1.000000
vt 2.799900 1.000000
vt 2.200000 1.000000
vt 0.000000 1.999900
vt 0.999900 1.999900
vt 0.000000 1.000000
vt 0.999900 1.000000
vt 0.999900 2.000000
vt 0.499900 1.500000
vn -0.350475 -0.868496 0.350475
vn -0.878994 -0.331156 0.343028
vn -0.350475 -0.868496 -0.350475
vn -0.878994 -0.331156 -0.343028
vn -0.343028 -0.331156 0.878994
vn 0.343028 -0.331156 0.878994
vn 0.350475 -0.868496 0.350475
vn 0.878994 -0.331156 0.343028
vn 0.878994 -0.331156 -0.343028
vn 0.350475 -0.868496 -0.350475
vn 0.343028 -0.331156 -0.878994
vn -0.343028 -0.331156 -0.878994
vn 0.384289 -0.261757 0.885311
vn -0.384289 -0.261757 0.885311
vn 0.340922 -0.289560 0.894375
vn -0.340922 -0.289560 0.894375
vn 0.885311 -0.261757 0.384289
vn 0.894375 -0.289560 0.340922
vn 0.885311 -0.261757 -0.384289
vn 0.894375 -0.289560 -0.340922
vn 0.384289 -0.261757 -0.885311
vn 0.340922 -0.289560 -0.894375
vn -0.384289 -0.261757 -0.885311
vn -0.340922 -0.289560 -0.894375
vn -0.885311 -0.261757 -0.384289
vn -0.894375 -0.289560 -0.340922
vn -0.885311 -0.261757 0.384289
vn -0.894375 -0.289560 0.340922
vn 0.341563 0.341563 0.875576
vn -0.341563 0.341563 0.875576
vn 0.341563 0.341563 -0.875576
vn -0.341563 0.341563 -0.875576
vn 0.875576 0.341563 -0.341563
vn 0.875576 0.341563 0.341563
vn -0.875576 0.341563 0.341563
vn -0.875576 0.341563 -0.341563
vn 0.341563 0.875576 0.341563
vn 0.341563 0.875576 -0.341563
vn -0.341563 0.875576 0.341563
vn -0.341563 0.875576 -0.341563
vn 0.000000 1.000000 0.000000
vn 0.000000 0.999969 0.000000
usemtl unnamed.0
f 40/1/1 1/2/2 2/3/3
f 1/2/2 3/4/4 2/3/3
f 24/5/5 40/1/1 23/6/6
f 40/1/1 41/7/7 23/6/6
f 4/8/8 41/7/7 8/9/9
f 41/7/7 6/10/10 8/9/9
f 5/11/11 6/12/10 7/13/12
f 6/12/10 2/3/3 7/13/12
f 24/5/5 1/2/2 40/1/1
f 41/7/7 4/8/8 23/6/6
f 5/11/11 8/14/9 6/12/10
f 2/3/3 3/4/4 7/13/12
f 9/15/13 10/16/14 11/17/15
f 25/18/16 11/17/15 10/16/14
f 30/19/17 9/15/13 12/20/18
f 11/17/15 12/20/18 9/15/13
f 13/21/19 30/19/17 16/22/20
f 16/22/20 30/19/17 12/20/18
f 14/23/21 13/24/19 15/25/22
f 13/24/19 16/26/20 15/25/22
f 17/27/23 14/23/21 18/28/24
f 15/25/22 18/28/24 14/23/21
f 19/29/25 17/27/23 20/30/26
f 17/27/23 18/28/24 20/30/26
f 21/31/27 19/29/25 22/32/28
f 19/29/25 20/30/26 22/32/28
f 10/16/14 21/31/27 25/18/16
f 22/32/28 25/18/16 21/31/27
f 23/6/6 4/8/8 11/17/15
f 4/8/8 12/20/18 11/17/15
f 8/9/9 16/22/20 4/8/8
f 16/22/20 12/20/18 4/8/8
f 15/25/22 16/26/20 5/11/11
f 16/26/20 8/14/9 5/11/11
f 5/11/11 7/13/12 15/25/22
f 7/13/12 18/28/24 15/25/22
f 20/30/26 18/28/24 3/4/4
f 18/28/24 7/13/12 3/4/4
f 22/32/28 20/30/26 1/2/2
f 20/30/26 3/4/4 1/2/2
f 1/2/2 24/5/5 22/32/28
f 24/5/5 25/18/16 22/32/28
f 23/6/6 11/17/15 24/5/5
f 11/17/15 25/18/16 24/5/5
usemtl unnamed.1
f 9/15/13 26/33/29 27/34/30
f 14/23/21 17/27/23 28/35/31
f 17/27/23 29/36/32 28/35/31
f 13/21/19 37/37/33 30/19/17
f 37/37/33 31/38/34 30/19/17
f 32/39/35 33/40/36 21/31/27
f 33/40/36 19/29/25 21/31/27
f 21/31/27 10/16/14 32/39/35
f 10/16/14 27/34/30 32/39/35
f 9/15/13 30/19/17 26/33/29
f 30/19/17 31/38/34 26/33/29
f 34/41/37 31/38/34 38/42/38
f 31/38/34 37/37/33 38/42/38
f 34/41/37 35/43/39 26/33/29
f 26/33/29 35/43/39 27/34/30
f 32/39/35 35/43/39 33/40/36
f 35/43/39 36/44/40 33/40/36
f 28/35/31 37/45/33 14/23/21
f 37/45/33 13/24/19 14/23/21
f 38/46/38 28/35/31 36/44/40
f 28/35/31 29/36/32 36/44/40
f 33/40/36 29/36/32 19/29/25
f 29/36/32 17/27/23 19/29/25
f 26/33/29 31/38/34 34/41/37
f 35/43/39 32/39/35 27/34/30
f 38/46/38 37/45/33 28/35/31
f 29/36/32 33/40/36 36/44/40
f 34/41/37 53/47/41 35/43/39
f 53/47/41 52/48/41 35/43/39
f 38/42/38 50/49/42 34/41/37
f 50/49/42 53/50/41 34/41/37
f 38/46/38 36/44/40 50/51/42
f 36/44/40 39/52/41 50/51/42
f 36/44/40 35/43/39 39/53/41
f 52/54/41 39/53/41 35/43/39
f 9/15/13 27/34/30 10/16/14
usemtl unnamed.2
f 2/55/3 6/56/10 40/57/1
f 6/56/10 41/58/7 40/57/1
usemtl unnamed.3
f 42/57/41 43/58/41 44/55/41
f 43/58/41 45/56/41 44/55/41
usemtl unnamed.4
f 46/57/41 47/58/41 48/55/41
f 47/58/41 49/56/41 48/55/41
usemtl unnamed.5
f 50/59/41 39/55/41 51/60/41
f 51/60/41 39/55/41 52/57/41
f 53/58/41 51/60/41 52/57/41
f 50/59/41 51/60/41 53/58/41
