mtllib Block.mtl
v 4.005556 -13.999999 -4.750002
v -0.85 -16 -2.850003
v -0.849998 -13.999999 -4.750002
v -2.750002 -14 -2.850002
v 10.777777 1.333335 -6
v 8.861112 -1.222222 -4.75
v -2 1.333335 -6
v -0.849998 -1.222221 -4.75
v -4 1.333333 -4
v -2.75 -1.222224 -2.849998
v -4 1.33333 11.333335
v -2.75 -1.222226 11.716669
v -2.750002 -14.000001 4.43333
v -2 21.777781 -5.999997
v -4 21.777775 -3.999996
vt 0.7301 1.9759
vt 0.979 1.0685
vt 0.9962 1.2839
vt 0.0018 1.7347
vt 0.2083 1.9916
vt 0.0081 2.002
vt 0.3486 1.0284
vt 0.3147 1.1189
vt 0.5791 1.9866
vt 3.1422 -0.5039
vt 2.9999 -0.3867
vt 3.0399 -0.5039
vt 2.96 -0.5039
vt 3.2955 0.004
vt 3.2444 -0.0807
vt 3.0399 0.004
vt 3.0399 -0.0807
vt 2.96 0.004
vt 2.96 -0.0807
vt 2.6533 0.004
vt 2.6533 -0.0807
vt 2.8066 -0.5039
vt 3.0399 0.4389
vt 2.96 0.4389
vn 0.624694 0.468522 0.624696
vn 0.469823 -0.81229 0.345617
vn 0.737662 -0.24563 0.628904
vn 0.734994 0.437247 0.518265
vn 0.776443 -0.312071 0.547492
vn 0.770244 -0.292693 0.566617
vn 0.68721 0.429506 0.58589
vn 0 -0.688749 -0.725
vn -0.586967 -0.557619 -0.586968
vn 0 -0.439385 -0.898299
vn -0.589054 -0.553199 -0.589055
vn 0 0 -1
vn -0.707107 0 -0.707107
vn -0.707106 0 -0.707107
vn -0.898299 -0.439385 0
vn -1 0 0
vn -0.724999 -0.68875 0
usemtl mat4
f 11/1/1 14/2/1 15/3/1
f 1/4/2 13/5/2 2/6/2
f 5/7/3 11/1/3 6/8/3
f 12/9/4 6/8/4 11/1/4
f 12/9/5 13/5/5 6/8/5
f 1/4/6 6/8/6 13/5/6
f 11/1/7 5/7/7 14/2/7
usemtl Material_1
f 1/10/8 2/11/8 3/12/8
f 2/11/9 4/13/9 3/12/9
f 5/14/10 6/15/10 7/16/10
f 6/15/10 8/17/10 7/16/10
f 9/18/11 7/16/11 10/19/11
f 7/16/11 8/17/11 10/19/11
f 6/15/12 1/10/12 8/17/12
f 1/10/12 3/12/12 8/17/12
f 10/19/13 8/17/13 4/13/13
f 8/17/14 3/12/14 4/13/14
f 9/18/15 10/19/15 11/20/15
f 12/21/15 11/20/15 10/19/15
f 12/21/16 10/19/16 13/22/16
f 13/22/16 10/19/16 4/13/16
f 2/11/17 13/22/17 4/13/17
f 5/14/12 7/16/12 14/23/12
f 15/24/13 14/23/13 9/18/13
f 14/23/13 7/16/13 9/18/13
f 11/20/16 15/24/16 9/18/16
