mtllib Block.mtl
v 4 -2.666667 5
v -11.333332 -2.666667 5
v 2.849998 -5.222222 3.749999
v -11.716667 -5.222223 3.749999
v 6 -2.666668 3
v 4.75 -5.222225 1.849999
v 6 -2.666666 -12.333335
v 4.75 -5.222222 -12.716669
v 2.85 -18 3.749997
v 4.75 -18 1.849997
v 6 28 3.000005
v 4 28 5.000005
vt -0.0367 2.9917
vt -0.0783 2.8716
vt 0.6582 2.995
vt 0.1496 2.0033
vt 0.2789 1.9999
vt 0.9464 2.0206
vt 0.7736 2.98
vt 0.9818 2.1796
vt 1.0399 1.0039
vt 1.3466 1.0039
vt 1.0399 0.9193
vt 1.3466 0.9193
vt 0.9599 1.0039
vt 0.9599 0.9193
vt 0.6533 1.0039
vt 0.6533 0.9193
vt 1.0399 0.4961
vt 0.9599 0.4961
vt 0.9599 1.6562
vt 1.0399 1.6562
vn -0.666667 0.333333 -0.666667
vn -0.550515 -0.627587 -0.550515
vn -0.644359 0.411829 -0.644359
vn 0 -0.439385 0.898299
vn 0.589054 -0.553199 0.589055
vn 0.589054 -0.5532 0.589055
vn 0.898299 -0.439385 0
vn 0.707107 0 0.707107
vn 0.707106 0 0.707107
vn 1 0 0
vn 0 0 1
usemtl mat4
f 12/1/1 11/2/1 2/3/1
f 7/4/1 2/3/1 11/2/1
f 8/5/2 10/6/2 4/7/2
f 10/6/2 9/8/2 4/7/2
f 2/3/3 7/4/3 4/7/3
f 8/5/3 4/7/3 7/4/3
usemtl Material_1
f 1/9/4 2/10/4 3/11/4
f 4/12/4 3/11/4 2/10/4
f 5/13/5 1/9/5 6/14/5
f 3/11/6 6/14/6 1/9/6
f 5/13/7 6/14/7 7/15/7
f 8/16/7 7/15/7 6/14/7
f 9/17/8 10/18/8 3/11/8
f 10/18/9 6/14/9 3/11/9
f 10/18/10 8/16/10 6/14/10
f 9/17/11 3/11/11 4/12/11
f 7/15/10 11/19/10 5/13/10
f 1/9/8 5/13/8 12/20/8
f 5/13/8 11/19/8 12/20/8
f 1/9/11 12/20/11 2/10/11
