mtllib Block.mtl
v 11.283333 -5.222223 3.749999
v -9.904547 -5.222223 3.749999
v 2.013638 -18 3.749997
v -5.209504 -18 3.749997
v -10.636364 -2.666669 5
v 11.666668 -2.666667 5
v -2.272727 19.636364 5.000003
v 3.809917 18.115704 5.000003
v 0.418446 0.057854 -10.600052
vt 0.5525 2.5423
vt 0.1436 2.9729
vt 0.0221 2.837
vt 0.801 2.9274
vt 0.9407 2.1946
vt 0.7798 1.9978
vt 0.0131 2.3709
vt 0.0125 2.2324
vt 0.9034 2.8204
vt 1.3466 0.9193
vt 1.7927 0.9193
vt 1.5418 0.4961
vt 1.6938 0.4961
vt 1.7927 1.0039
vt 1.3466 1.0039
vt 1.6254 1.4783
vt 1.5038 1.4459
vn 0 -0.622148 -0.7829
vn 0.623179 -0.452088 -0.638173
vn 0.157136 0.628545 -0.761734
vn -0.732194 -0.269036 -0.625709
vn -0.802117 0.300794 -0.515879
vn -0.818791 0.045453 -0.572289
vn 0.797589 0.301528 -0.52243
vn 0.814113 0.152019 -0.560456
vn 0 0 1
vn 0 -0.439386 0.898299
vn 0 -0.439385 0.898299
usemtl mat4
f 9/1/1 3/2/1 4/3/1
f 9/1/2 1/4/2 3/2/2
f 8/5/3 9/1/3 7/6/3
f 9/1/4 4/3/4 2/7/4
f 9/1/5 5/8/5 7/6/5
f 9/1/6 2/7/6 5/8/6
f 8/5/7 6/9/7 9/1/7
f 9/1/8 6/9/8 1/4/8
usemtl Material_1
f 1/10/9 2/11/9 3/12/9
f 3/12/9 2/11/9 4/13/9
f 5/14/10 2/11/10 6/15/10
f 2/11/11 1/10/11 6/15/11
f 7/16/9 5/14/9 8/17/9
f 6/15/9 8/17/9 5/14/9
