mtllib Pieces.mtl
v -5 3 -2
v -3 3.000001 -4
v -5 -7.222225 -2.000001
v -3 -7.22222 -4.000001
v -3 5 -1.999999
v -3 5 3.111114
v 4.666668 4.999999 5.666669
v -5 3 3.111111
v 7.222224 3.000001 -4
v 7.222221 5 -1.999999
vt 0.1277 1.9966
vt -0.2163 1.006
vt -0.332 1.3
vt 0.8041 1.9864
vt 0.9776 1.9301
vt 1.0016 1.1123
vt 0.8927 0.9974
vt 2.96 0.6563
vt 3.0399 0.6563
vt 2.96 0.4389
vt 3.0399 0.4389
vt 2.9999 0.7501
vt 2.8888 0.7501
vt 2.7999 1
vt 2.8577 0.6563
vt 3.2444 0.6563
vt 3.2222 0.7501
vt 3.2 1
vn 0.904535 -0.30151 0.301511
vn -0.301511 0.30151 0.904534
vn 0.4993 -0.708097 0.499298
vn -0.142463 -0.442652 0.885304
vn 0.67084 -0.67084 0.316143
vn -0.707107 0 -0.707107
vn -0.57735 0.57735 -0.57735
vn 0 1 0
vn -0.707107 0.707107 0
vn -1 0 0
vn 0 0 -1
vn 0 0.707107 -0.707107
usemtl mat4
f 7/1/1 9/2/1 10/3/1
f 7/1/2 6/4/2 8/5/2
f 7/1/3 3/6/3 4/7/3
f 7/1/4 8/5/4 3/6/4
f 7/1/5 4/7/5 9/2/5
usemtl Material_1
f 1/8/6 2/9/6 3/10/6
f 2/9/6 4/11/6 3/10/6
f 2/9/7 1/8/7 5/12/7
f 6/13/8 7/14/8 5/12/8
f 8/15/9 6/13/9 1/8/9
f 6/13/9 5/12/9 1/8/9
f 3/10/10 8/15/10 1/8/10
f 9/16/11 4/11/11 2/9/11
f 9/16/12 2/9/12 10/17/12
f 10/17/12 2/9/12 5/12/12
f 7/18/8 10/17/8 5/12/8
