mtllib Block.mtl
v 5 -15.296298 -3.000002
v -10.333332 6 -2.999999
v 5 6 -2.999999
v 7 5.999999 6.666669
v 7 6 -0.999999
v 5 7.999999 6.666669
v 5 8 -0.999999
v 7 -15.296297 -1.000003
v -10.333335 8 -0.999999
v -2.666666 7.999999 6.666667
vt 0.0412 1.6926
vt 0.0293 1
vt -0.0453 1.0838
vt 0.5509 1.9746
vt 0.272 1.9836
vt 0.7464 1
vt 0.9917 1.318
vt 3.96 0.2033
vt 3.6533 0.6563
vt 3.96 0.6563
vt 0.1933 0.6563
vt 0.04 0.6563
vt 0.1666 0.7501
vt 0 0.7501
vt 4.0399 0.6563
vt 4.0399 0.2033
vt 3.9999 0.7501
vt 3.6666 0.7501
vt 0.1999 1
vt 3.7999 1
vt 0.04 0.2033
vn 0 0 1
vn -0.57735 -0.577351 0.57735
vn -0.625784 -0.465607 0.625784
vn -0.644706 -0.464188 0.607358
vn -0.069909 -0.337891 0.938585
vn 0 0 -1
vn 0.707107 0.707107 0
vn 0.707107 0 -0.707107
vn 0 0.707107 -0.707107
vn 0.57735 0.57735 -0.57735
vn 0 1 0
vn 1 0 0
usemtl mat4
f 10/1/1 4/2/1 6/3/1
f 2/4/2 10/1/2 9/5/2
f 8/6/3 10/1/3 1/7/3
f 1/7/4 10/1/4 2/4/4
f 8/6/5 4/2/5 10/1/5
usemtl Material_1
f 1/8/6 2/9/6 3/10/6
f 4/11/7 5/12/7 6/13/7
f 6/13/7 5/12/7 7/14/7
f 3/10/8 5/15/8 1/8/8
f 5/15/8 8/16/8 1/8/8
f 7/17/9 3/10/9 9/18/9
f 3/10/9 2/9/9 9/18/9
f 7/17/10 5/15/10 3/10/10
f 7/14/11 10/19/11 6/13/11
f 7/17/11 9/18/11 10/20/11
f 8/21/12 5/12/12 4/11/12
