mtllib NeonSign.mtl
v 43.193974 3.061609 10.800003 1.000000 1.000000 1.000000
v 43.193974 89.329956 10.800042 1.000000 1.000000 1.000000
v -43.193974 3.061611 10.800003 1.000000 1.000000 1.000000
v -43.193974 89.329964 10.800042 1.000000 1.000000 1.000000
v -43.193974 89.329964 -10.799957 1.000000 1.000000 1.000000
v 43.193974 89.329964 -10.799957 1.000000 1.000000 1.000000
v -43.193974 3.061628 -10.799997 1.000000 1.000000 1.000000
v 43.193974 3.061624 -10.799997 1.000000 1.000000 1.000000
v 0.000000 89.329964 -10.799957 1.000000 1.000000 1.000000
v -43.193974 46.195793 -10.799977 1.000000 1.000000 1.000000
v 43.193974 46.195786 10.800021 1.000000 1.000000 1.000000
v 0.000000 3.061626 -10.799997 1.000000 1.000000 1.000000
v 0.000000 3.061610 10.800003 1.000000 1.000000 1.000000
v 43.193974 46.195793 -10.799977 1.000000 1.000000 1.000000
v -43.193974 46.195789 10.800021 1.000000 1.000000 1.000000
v 0.000000 89.329956 10.800042 1.000000 1.000000 1.000000
v 0.000000 46.195786 10.800021 1.000000 1.000000 1.000000
v 0.000000 46.195793 -10.799977 1.000000 1.000000 1.000000
v 46.193977 27.061625 -9.999986 0.682353 0.537255 0.486275
v 46.193977 27.061607 10.000014 0.682353 0.537255 0.486275
v 46.193977 65.329964 -9.999969 0.149020 0.149020 0.247059
v 46.193977 65.329956 10.000031 0.149020 0.149020 0.247059
v 19.134174 92.389763 -9.999953 0.364706 0.364706 0.486275
v 19.134174 92.389763 10.000047 0.364706 0.364706 0.486275
v -19.134169 92.389763 -9.999953 0.364706 0.364706 0.486275
v -19.134171 92.389763 10.000047 0.364706 0.364706 0.486275
v -46.193977 65.329964 -9.999969 0.149020 0.149020 0.247059
v -46.193977 65.329964 10.000031 0.149020 0.149020 0.247059
v -46.193977 27.061628 -9.999986 0.682353 0.537255 0.486275
v -46.193977 27.061611 10.000014 0.682353 0.537255 0.486275
v -19.134174 0.001819 -10.000000 0.549020 0.458824 0.486275
v -19.134174 0.001807 10.000000 0.549020 0.458824 0.486275
v 19.134171 0.001819 -10.000000 0.549020 0.458824 0.486275
v 19.134169 0.001807 10.000000 0.549020 0.458824 0.486275
v 9.567084 23.098808 -9.999989 0.184314 0.192157 0.313726
v 19.134171 0.001819 -10.000000 0.509804 0.458824 0.486275
v -9.567087 23.098808 -9.999989 0.184314 0.192157 0.313726
v -19.134174 0.001819 -10.000000 0.509804 0.458824 0.486275
v -23.096989 36.628708 -9.999983 0.184314 0.192157 0.313726
v -46.193977 27.061628 -9.999986 0.447059 0.411765 0.486275
v -23.096989 55.762875 -9.999971 0.184314 0.192157 0.313726
v -46.193977 65.329964 -9.999969 0.364706 0.364706 0.486275
v -9.567084 69.292778 -9.999966 0.184314 0.192157 0.313726
v -19.134169 92.389763 -9.999953 0.258824 0.266667 0.392157
v 9.567087 69.292778 -9.999966 0.184314 0.192157 0.313726
v 19.134174 92.389763 -9.999953 0.258824 0.266667 0.392157
v 23.096989 55.762875 -9.999971 0.184314 0.192157 0.313726
v 46.193977 65.329964 -9.999969 0.364706 0.364706 0.486275
v 23.096989 36.628708 -9.999983 0.184314 0.192157 0.313726
v 46.193977 27.061625 -9.999986 0.447059 0.411765 0.486275
v -23.096989 55.762875 10.000029 0.184314 0.192157 0.313726
v -46.193977 65.329964 10.000031 0.364706 0.364706 0.486275
v -23.096989 36.628700 10.000017 0.184314 0.192157 0.313726
v -46.193977 27.061611 10.000014 0.447059 0.411765 0.486275
v -9.567088 23.098789 10.000011 0.184314 0.192157 0.313726
v -19.134174 0.001807 10.000000 0.509804 0.458824 0.486275
v 9.567084 23.098789 10.000011 0.184314 0.192157 0.313726
v 19.134169 0.001807 10.000000 0.509804 0.458824 0.486275
v 23.096989 36.628700 10.000017 0.184314 0.192157 0.313726
v 46.193977 27.061607 10.000014 0.447059 0.411765 0.486275
v 23.096989 55.762871 10.000029 0.184314 0.192157 0.313726
v 46.193977 65.329956 10.000031 0.364706 0.364706 0.486275
v 9.567084 69.292770 10.000034 0.184314 0.192157 0.313726
v 19.134174 92.389763 10.000047 0.258824 0.266667 0.392157
v -9.567084 69.292770 10.000034 0.184314 0.192157 0.313726
v -19.134171 92.389763 10.000047 0.258824 0.266667 0.392157
vt 8.031373 0.000000
vt 8.031373 1.000000
vt 7.027452 1.000000
vt 7.027452 0.000000
vt 6.023530 1.000000
vt 6.023530 0.000000
vt 5.019608 1.000000
vt 5.019608 0.000000
vt 4.015687 1.000000
vt 4.015687 0.000000
vt 3.011765 1.000000
vt 3.011765 0.000000
vt 2.007843 1.000000
vt 2.007843 0.000000
vt 1.003922 1.000000
vt 1.003922 0.000000
vt 0.000000 1.000000
vt 0.000000 0.000000
vt 0.990494 0.000000
vt 0.018676 0.500000
vt 0.990494 0.500000
vt 0.990494 1.000000
vt 0.018676 0.000000
vt 0.018676 1.000000
vt 0.329412 0.188235
vt 0.082353 0.372549
vt 0.674510 0.188235
vt 0.082353 0.631373
vt 0.329412 0.815686
vt 0.921569 0.631373
vt 0.921569 0.372549
vt 0.674510 0.815686
vn 0.923856 -0.382672 0.000000
vn 0.923856 0.382672 0.000000
vn 0.382672 0.923856 0.000000
vn -0.382672 0.923856 0.000000
vn -0.923856 0.382672 0.000000
vn -0.923856 -0.382672 0.000000
vn -0.382672 -0.923856 0.000000
vn 0.382672 -0.923856 0.000000
vn 0.000000 0.000000 -1.000000
vn 0.000000 0.000000 1.000000
usemtl attach_006B9394_material_1
f 20/1/1 19/2/1 21/3/2
f 20/1/1 21/3/2 22/4/2
f 22/4/2 21/3/2 23/5/3
f 22/4/2 23/5/3 24/6/3
f 24/6/3 23/5/3 25/7/4
f 24/6/3 25/7/4 26/8/4
f 26/8/4 25/7/4 27/9/5
f 26/8/4 27/9/5 28/10/5
f 28/10/5 27/9/5 29/11/6
f 28/10/5 29/11/6 30/12/6
f 30/12/6 29/11/6 31/13/7
f 30/12/6 31/13/7 32/14/7
f 32/14/7 31/13/7 33/15/8
f 32/14/7 33/15/8 34/16/8
f 34/16/8 33/15/8 19/17/1
f 34/16/8 19/17/1 20/18/1
f 35/2/9 36/1/9 37/3/9
f 37/3/9 36/1/9 38/4/9
f 37/3/9 38/4/9 39/5/9
f 39/5/9 38/4/9 40/6/9
f 39/5/9 40/6/9 41/7/9
f 41/7/9 40/6/9 42/8/9
f 41/7/9 42/8/9 43/9/9
f 43/9/9 42/8/9 44/10/9
f 43/9/9 44/10/9 45/11/9
f 45/11/9 44/10/9 46/12/9
f 45/11/9 46/12/9 47/13/9
f 47/13/9 46/12/9 48/14/9
f 47/13/9 48/14/9 49/15/9
f 49/15/9 48/14/9 50/16/9
f 49/15/9 50/16/9 35/17/9
f 35/17/9 50/16/9 36/18/9
f 51/2/10 52/1/10 53/3/10
f 53/3/10 52/1/10 54/4/10
f 53/3/10 54/4/10 55/5/10
f 55/5/10 54/4/10 56/6/10
f 55/5/10 56/6/10 57/7/10
f 57/7/10 56/6/10 58/8/10
f 57/7/10 58/8/10 59/9/10
f 59/9/10 58/8/10 60/10/10
f 59/9/10 60/10/10 61/11/10
f 61/11/10 60/10/10 62/12/10
f 61/11/10 62/12/10 63/13/10
f 63/13/10 62/12/10 64/14/10
f 63/13/10 64/14/10 65/15/10
f 65/15/10 64/14/10 66/16/10
f 65/15/10 66/16/10 51/17/10
f 51/17/10 66/16/10 52/18/10
usemtl attach_006B9394_material_0
f 12/19/9 10/20/9 18/21/9
f 16/22/10 15/20/10 17/21/10
f 17/21/10 1/23/10 11/20/10
f 16/22/10 11/20/10 2/24/10
f 17/21/10 3/23/10 13/19/10
f 18/21/9 5/24/9 9/22/9
f 14/20/9 9/22/9 6/24/9
f 8/23/9 18/21/9 14/20/9
f 12/19/9 7/23/9 10/20/9
f 16/22/10 4/24/10 15/20/10
f 17/21/10 13/19/10 1/23/10
f 16/22/10 17/21/10 11/20/10
f 17/21/10 15/20/10 3/23/10
f 18/21/9 10/20/9 5/24/9
f 14/20/9 18/21/9 9/22/9
f 8/23/9 12/19/9 18/21/9
usemtl attach_006B9394_material_0_kd_pc_mon2.png
f 37/25/9 39/26/9 35/27/9
f 57/27/10 53/26/10 55/25/10
f 41/28/9 43/29/9 47/30/9
f 41/28/9 47/30/9 39/26/9
f 39/26/9 47/30/9 49/31/9
f 39/26/9 49/31/9 35/27/9
f 43/29/9 45/32/9 47/30/9
f 63/32/10 65/29/10 51/28/10
f 63/32/10 51/28/10 61/30/10
f 61/30/10 51/28/10 53/26/10
f 61/30/10 53/26/10 59/31/10
f 59/31/10 53/26/10 57/27/10
