mtllib Materials.mtl
v 0.001654 -1.444396 -0.006584
v 0.713573 -1.032838 0.707191
v 1.009438 -1.030621 -0.005582
v -0.000794 -1.035212 1.002208
v -0.713595 -1.035770 0.706364
v -1.008636 -1.036534 -0.006751
v -0.712773 -1.034319 -0.719524
v 0.000370 -1.033159 -1.014543
v 0.714396 -1.031386 -0.718698
v 1.371802 2.579459 -0.789720
v -0.735857 1.452291 -0.004060
v -0.667849 1.209409 -0.890325
v 1.370893 2.577857 0.784162
v -0.668873 1.207604 0.881786
v 0.983260 0.479521 -0.990462
v 0.622495 1.289423 -0.936849
v -0.022994 1.416562 -1.058633
v -0.001075 -0.429661 -1.400925
v 0.986357 -0.427575 -0.991384
v -0.002950 0.477426 -1.400002
v 1.013906 1.223643 -0.003284
v 1.391675 0.479170 -0.003824
v 1.393558 -0.426696 -0.004745
v -1.004868 0.975812 -0.004700
v -1.399190 0.472837 -0.005440
v -0.989637 0.474496 -0.991605
v -1.396093 -0.434259 -0.006362
v -0.987762 -0.432590 -0.992528
v 0.621418 1.287522 0.929961
v 0.982121 0.477512 0.982341
v -0.024463 1.413969 1.051258
v -0.990774 0.472488 0.981198
v -0.988900 -0.434599 0.980276
v -0.004561 0.474585 1.390738
v -0.002686 -0.432503 1.389815
v 0.985219 -0.429584 0.981419
v -1.865604 2.366339 -0.003577
v -0.976713 0.643744 -0.206105
v -0.976902 0.643353 0.194262
v -1.293899 0.503165 -0.006289
vt 0.000000 0.000000
vn 0.630787 0.752800 -0.187964
vn -0.624043 0.540117 -0.564623
vn -0.662954 0.748619 0.000397
vn -0.624592 0.539079 0.564989
vn 0.630665 0.752647 0.189123
vn 0.002564 -0.999969 -0.001007
vn 0.681936 -0.731376 -0.000336
vn 0.482162 -0.732963 0.479812
vn 0.001099 -0.734611 0.678457
vn -0.479202 -0.735313 0.479202
vn -0.677908 -0.735130 -0.001129
vn -0.478652 -0.734336 -0.481246
vn 0.001831 -0.733238 -0.679922
vn 0.482742 -0.731986 -0.480728
vn 0.706259 0.188055 -0.682485
vn -0.145116 0.415509 -0.897916
vn 0.534043 0.057466 -0.843471
vn 0.000916 -0.263436 -0.964660
vn 0.005127 0.163610 -0.986511
vn 0.683340 -0.261635 -0.681570
vn 0.922056 0.386975 0.000793
vn 0.975066 0.221809 0.000763
vn 0.965270 -0.261208 0.000275
vn -0.851222 0.524766 0.000031
vn -0.953093 0.302652 -0.000214
vn -0.717582 0.209571 -0.664174
vn -0.963683 -0.267006 -0.000824
vn -0.681143 -0.265633 -0.682241
vn 0.532945 0.056398 0.844234
vn -0.146031 0.414289 0.898343
vn 0.705405 0.186651 0.683767
vn -0.718345 0.208228 0.663747
vn -0.681936 -0.267037 0.680898
vn 0.004059 0.161596 0.986816
vn -0.000092 -0.265358 0.964141
vn 0.682516 -0.262978 0.681875
vn -0.404675 0.914426 0.001251
vn 0.405805 0.308115 0.860439
vn 0.406079 0.310587 -0.859401
vn -0.955992 -0.293313 -0.001190
usemtl 21_87_203
f 10/1/1 12/1/2 11/1/3
f 11/1/3 14/1/4 13/1/5
usemtl 252_193_150
f 1/1/6 3/1/7 2/1/8
f 2/1/8 4/1/9 1/1/6
f 1/1/6 4/1/9 5/1/10
f 6/1/11 1/1/6 5/1/10
f 6/1/11 7/1/12 1/1/6
f 8/1/13 1/1/6 7/1/12
f 8/1/13 9/1/14 1/1/6
f 1/1/6 9/1/14 3/1/7
usemtl 21_128_224
f 15/1/15 17/1/16 16/1/17
f 18/1/18 20/1/19 19/1/20
f 8/1/13 18/1/18 9/1/14
f 11/1/3 21/1/21 10/1/1
f 15/1/15 21/1/21 22/1/22
f 19/1/20 15/1/15 23/1/23
f 9/1/14 19/1/20 3/1/7
f 11/1/3 12/1/2 24/1/24
f 25/1/25 24/1/24 26/1/26
f 27/1/27 25/1/25 28/1/28
f 6/1/11 27/1/27 7/1/12
f 26/1/26 12/1/2 20/1/19
f 28/1/28 26/1/26 18/1/18
f 7/1/12 28/1/28 8/1/13
f 17/1/16 12/1/2 10/1/1
f 21/1/21 15/1/15 16/1/17
f 17/1/16 15/1/15 20/1/19
f 21/1/21 16/1/17 10/1/1
f 17/1/16 10/1/1 16/1/17
f 29/1/29 31/1/30 30/1/31
f 13/1/5 21/1/21 11/1/3
f 22/1/22 21/1/21 30/1/31
f 24/1/24 14/1/4 11/1/3
f 14/1/4 24/1/24 32/1/32
f 32/1/32 25/1/25 33/1/33
f 33/1/33 27/1/27 5/1/10
f 31/1/30 14/1/4 34/1/34
f 34/1/34 32/1/32 35/1/35
f 13/1/5 14/1/4 31/1/30
f 29/1/29 30/1/31 21/1/21
f 34/1/34 30/1/31 31/1/30
f 13/1/5 29/1/29 21/1/21
f 29/1/29 13/1/5 31/1/30
f 3/1/7 23/1/23 36/1/36
f 23/1/23 22/1/22 30/1/31
f 30/1/31 34/1/34 35/1/35
f 36/1/36 35/1/35 4/1/9
f 4/1/9 35/1/35 33/1/33
f 19/1/20 20/1/19 15/1/15
f 9/1/14 18/1/18 19/1/20
f 23/1/23 15/1/15 22/1/22
f 3/1/7 19/1/20 23/1/23
f 26/1/26 24/1/24 12/1/2
f 28/1/28 25/1/25 26/1/26
f 7/1/12 27/1/27 28/1/28
f 20/1/19 12/1/2 17/1/16
f 18/1/18 26/1/26 20/1/19
f 8/1/13 28/1/28 18/1/18
f 32/1/32 24/1/24 25/1/25
f 33/1/33 25/1/25 27/1/27
f 5/1/10 27/1/27 6/1/11
f 34/1/34 14/1/4 32/1/32
f 35/1/35 32/1/32 33/1/33
f 3/1/7 36/1/36 2/1/8
f 23/1/23 30/1/31 36/1/36
f 30/1/31 35/1/35 36/1/36
f 36/1/36 4/1/9 2/1/8
f 4/1/9 33/1/33 5/1/10
f 37/1/37 39/1/38 38/1/39
f 37/1/37 38/1/39 40/1/40
f 37/1/37 40/1/40 39/1/38
