mtllib Materials.mtl
v 0.723284 -0.669483 -1.584958
v 1.152956 -0.705450 -1.527694
v 1.267861 0.003428 -1.976700
v 0.302021 -0.750981 -0.959908
v 0.715254 0.011121 -1.751269
v 0.223727 -0.008621 -1.143089
v 0.783143 0.494320 -1.929391
v 0.069746 -0.875315 0.008309
v 0.007240 0.000220 0.010317
v 0.242625 0.554257 -1.125073
v 0.870851 -1.279268 -1.028502
v 0.490790 -1.362984 -0.573342
v 0.915834 -1.179608 -1.002674
v 1.237689 -1.757902 0.002185
v 1.049569 -1.882578 -0.104355
v 0.915141 -1.901212 0.003091
v 0.369147 -1.507939 0.005914
v 1.168313 -1.869446 0.002216
v 5.473183 -0.509980 -2.754993
v 3.934875 0.000687 -2.348325
v 4.510976 -0.973594 -1.281870
v 1.164327 -0.711666 1.536906
v 0.735092 -0.675937 1.597503
v 1.282571 -0.004613 1.987918
v 0.309202 -0.754905 0.975271
v 0.728306 0.003987 1.766629
v 0.232280 -0.013296 1.162038
v 0.797523 0.486459 1.946199
v 0.251051 0.549650 1.146166
v 0.878517 -1.283458 1.037498
v 0.495088 -1.365333 0.584835
v 0.923308 -1.183693 1.011741
v 1.050364 -1.883012 0.109611
v 3.952271 -0.008821 2.339725
v 5.493546 -0.521111 2.732890
v 4.520426 -0.978760 1.265079
v 1.575150 -1.754713 0.000939
v 1.740116 -1.319006 -1.036319
v 2.248928 -0.380907 -2.018911
v 2.098423 -0.760957 -1.735758
v 3.381702 -0.897616 -1.624003
v 3.128645 -1.481622 -0.988284
v 1.747817 -1.323215 1.038702
v 2.111311 -0.768002 1.737720
v 2.263919 -0.389102 2.021287
v 3.393726 -0.904187 1.615889
v 3.135949 -1.485614 0.979702
v 1.651995 -1.786795 0.582547
v 1.359766 -1.693805 0.574301
v 1.403257 -1.601766 0.649691
v 1.664585 -1.589374 0.723949
v 1.660917 -1.707907 0.443648
v 1.401340 -1.663738 0.503144
v 2.236385 -1.792907 0.583493
v 1.939956 -1.812353 0.583910
v 1.955931 -1.586150 0.738594
v 2.246197 -1.589513 0.725124
v 2.242530 -1.708046 0.444823
v 1.951915 -1.715958 0.431628
v 2.574888 -1.724700 0.582564
v 2.488497 -1.616202 0.656590
v 2.486579 -1.678173 0.510043
v 1.671515 -1.790471 -0.580490
v 1.371628 -1.725873 -0.555418
v 1.400702 -1.599572 -0.629271
v 1.658350 -1.580983 -0.704630
v 1.653781 -1.695236 -0.425296
v 1.400084 -1.662941 -0.483333
v 2.241874 -1.770563 -0.595642
v 1.962791 -1.794545 -0.594306
v 1.947489 -1.574491 -0.720714
v 2.238595 -1.580381 -0.709196
v 2.237224 -1.701725 -0.444324
v 1.946196 -1.707227 -0.415023
v 2.544943 -1.692613 -0.589210
v 2.455472 -1.605814 -0.652617
v 2.460012 -1.667094 -0.496182
v 1.383172 -2.426210 0.000288
v 1.181100 -2.443950 -0.203491
v 1.329384 -2.762203 -0.000194
v 0.971006 -2.435010 0.001800
v 1.182618 -2.444780 0.205488
v 3.586663 3.182397 0.003487
v 4.869306 2.674047 -1.448687
v 7.247115 5.558001 0.000425
v 1.880768 2.414747 -2.155159
v 4.293648 5.954615 -2.991606
v 2.826221 2.843879 -1.097482
v 2.935403 5.461010 0.016228
v 1.231427 2.500876 0.010845
v 0.987147 3.234040 -0.869297
v 0.384634 2.028096 -0.989788
v 1.490047 4.727827 -2.089847
v 4.880036 2.668180 1.444029
v 4.315938 5.942429 3.015878
v 1.896821 2.405971 2.171604
v 2.834408 2.839405 1.108688
v 0.993695 3.230460 0.895744
v 0.392083 2.024024 1.017734
v 1.505705 4.719266 2.129982
v 5.744494 2.142404 -0.006629
v 5.381046 0.175800 -0.009270
v 4.876479 0.611360 -1.342861
v 3.461218 -1.592790 -0.883986
v 4.426464 -1.279818 -0.008680
v 3.767246 -1.002975 -1.647322
v 3.475035 -0.966527 -1.705162
v 3.191057 -1.630602 -0.977862
v 3.711429 1.413020 -2.612396
v 1.899237 1.364968 -2.409487
v 2.032078 0.384575 -2.363516
v 4.420669 3.171964 -1.780442
v 0.104603 1.124731 0.012236
v 0.973359 2.132143 -2.044215
v 3.441149 2.777860 -2.725386
v 2.000350 2.724017 -1.178701
v 1.705791 -1.874755 0.000209
v 2.272058 -1.945163 -0.002035
v 0.403302 1.715971 0.012326
v 2.656755 -0.288599 -2.098597
v 2.998446 -1.942454 -0.004725
v 4.886395 0.605939 1.329785
v 3.467734 -1.596352 0.872488
v 3.779429 -1.009633 1.635917
v 3.487656 -0.973425 1.696073
v 2.672327 -0.297112 2.098316
v 3.198278 -1.634549 0.968212
v 3.730810 1.402425 2.611175
v 2.049644 0.374973 2.370595
v 1.917162 1.355169 2.421527
v 4.433886 3.164741 1.781122
v 0.990841 2.122586 2.068165
v 3.461397 2.766791 2.731703
v 2.009160 2.719202 1.195547
vt 0.000000 0.000000
vn 0.328440 0.944487 0.000031
vn 0.643818 0.765160 0.000519
vn 0.577105 0.344218 -0.740532
vn -0.119846 0.333201 -0.935179
vn -0.242012 0.963408 -0.115024
vn 0.286935 0.908567 -0.303537
vn 0.096866 0.995270 0.003571
vn -0.563280 0.826228 0.003784
vn -0.376110 0.693899 0.613971
vn -0.941771 0.316477 -0.113376
vn 0.063601 0.952910 -0.296426
vn 0.582171 0.340556 0.738273
vn 0.289010 0.906400 0.307993
vn -0.240699 0.962828 0.122379
vn -0.110935 0.328104 0.938078
vn -0.940977 0.315531 0.122379
vn -0.380261 0.697714 -0.607074
vn 0.065737 0.950377 0.304025
vn -0.433821 -0.471480 -0.767754
vn -0.273080 -0.331126 -0.903195
vn -0.060488 -0.628590 -0.775353
vn -0.825709 -0.360546 -0.433760
vn -0.603107 -0.203223 -0.771325
vn -0.901089 -0.084475 -0.425275
vn -0.596851 -0.075961 -0.798700
vn -0.959624 -0.281167 0.002991
vn -0.999969 0.001190 0.003693
vn -0.922056 0.085208 -0.377483
vn 0.173009 -0.752892 -0.634968
vn -0.645772 -0.640370 -0.415784
vn 0.583209 -0.695242 -0.420057
vn 0.500015 -0.865993 -0.003601
vn 0.092624 -0.492721 -0.865230
vn -0.724235 -0.689535 0.001282
vn -0.763573 -0.645680 0.001495
vn 0.965087 -0.261788 -0.004089
vn 0.679006 -0.245003 -0.692038
vn 0.610126 -0.729728 -0.308573
vn 0.149052 -0.235969 -0.960234
vn -0.054750 -0.631733 0.773217
vn -0.266366 -0.334788 0.903836
vn -0.428114 -0.474624 0.769036
vn -0.597369 -0.206336 0.774926
vn -0.822474 -0.362316 0.438398
vn -0.590869 -0.079318 0.802820
vn -0.897916 -0.086215 0.431593
vn -0.919309 0.083407 0.384564
vn 0.177679 -0.755455 0.630604
vn -0.642689 -0.642048 0.417951
vn 0.586291 -0.696921 0.412885
vn 0.099033 -0.496231 0.862514
vn 0.156194 -0.239875 0.958129
vn 0.612384 -0.730949 0.301065
vn 0.684103 -0.247780 0.685965
vn 0.993774 0.111301 -0.003449
vn 0.005341 -0.190527 -0.981658
vn 0.356151 -0.934385 -0.003204
vn -0.920682 -0.390240 0.002625
vn 0.012635 -0.194494 0.980804
vn -0.184851 -0.961577 0.202826
vn -0.201392 -0.561907 0.802301
vn -0.300699 -0.914182 0.271645
vn -0.115024 -0.568712 0.814417
vn -0.140873 -0.856563 -0.496414
vn -0.255287 -0.828089 -0.499069
vn 0.139439 -0.971129 0.193426
vn 0.001312 -0.566027 0.824366
vn -0.012329 -0.980682 0.195105
vn 0.079684 -0.560259 0.824427
vn 0.141270 -0.845851 -0.514298
vn -0.005676 -0.848720 -0.528764
vn 0.226264 -0.931547 0.284616
vn 0.199438 -0.438917 0.876095
vn 0.169317 -0.766137 -0.619953
vn -0.136082 -0.959410 -0.246864
vn -0.290017 -0.935972 -0.199530
vn -0.187353 -0.484176 -0.854640
vn -0.121738 -0.508896 -0.852138
vn -0.108951 -0.839198 0.532762
vn -0.244606 -0.680502 0.690664
vn 0.158879 -0.943144 -0.291879
vn 0.026124 -0.954894 -0.295755
vn -0.003632 -0.501480 -0.865139
vn 0.081912 -0.506211 -0.858486
vn 0.145726 -0.896176 0.419050
vn 0.021027 -0.889828 0.455763
vn 0.250526 -0.907285 -0.337657
vn 0.173772 -0.457778 -0.871883
vn 0.220130 -0.876186 0.428694
vn -0.215522 -0.976470 -0.001160
vn -0.124943 -0.828455 -0.545915
vn -0.119083 -0.516373 -0.848018
vn -0.503647 -0.771477 -0.388714
vn -0.106845 -0.657277 -0.745994
vn -0.445021 -0.532029 -0.720328
vn -0.120884 -0.830653 0.543443
vn -0.101321 -0.660298 0.744102
vn -0.500748 -0.773064 0.389325
vn -0.112766 -0.519822 0.846767
vn -0.439680 -0.534928 0.721427
vn 0.958922 -0.283547 -0.004364
vn 0.897732 0.048128 -0.437880
vn 0.965453 -0.260506 -0.004089
vn 0.295969 -0.895840 -0.331370
vn 0.636586 -0.771172 -0.003906
vn 0.203833 -0.703299 -0.680990
vn -0.204932 -0.701621 -0.682424
vn -0.135105 -0.827967 -0.544237
vn 0.329417 -0.033876 -0.943541
vn -0.212531 -0.240120 -0.947172
vn -0.222297 0.049501 -0.973693
vn 0.901761 0.418806 0.106632
vn -0.980773 0.195013 0.003998
vn -0.607959 0.104862 -0.786981
vn 0.144810 -0.064852 -0.987304
vn 0.332713 0.935697 0.117100
vn -0.522874 -0.852382 0.000183
vn -0.094516 -0.995514 -0.001648
vn -0.817255 0.576189 0.004364
vn -0.060823 -0.484512 -0.872646
vn 0.150365 -0.988617 -0.002533
vn 0.900937 0.046358 0.431379
vn 0.298410 -0.897183 0.325510
vn 0.208869 -0.706076 0.676595
vn -0.199866 -0.704367 0.681082
vn -0.054353 -0.488052 0.871090
vn -0.131077 -0.830164 0.541856
vn 0.336406 -0.037690 0.940947
vn -0.205512 -0.243934 0.947752
vn -0.214850 0.045412 0.975585
vn 0.900418 0.420301 -0.112156
vn -0.600818 0.100101 0.793054
vn 0.152593 -0.070772 0.985748
vn 0.331370 0.936338 -0.115757
usemtl 21_87_203
f 83/1/1 85/1/2 84/1/3
f 86/1/4 88/1/5 87/1/6
f 89/1/7 88/1/5 90/1/8
f 91/1/9 92/1/10 90/1/8
f 93/1/11 92/1/10 91/1/9
f 94/1/12 85/1/2 83/1/1
f 95/1/13 97/1/14 96/1/15
f 90/1/8 97/1/14 89/1/7
f 90/1/8 99/1/16 98/1/17
f 98/1/17 99/1/16 100/1/18
usemtl 252_193_150
f 1/1/19 3/1/20 2/1/21
f 4/1/22 5/1/23 1/1/19
f 6/1/24 7/1/25 5/1/23
f 8/1/26 6/1/24 4/1/22
f 9/1/27 10/1/28 6/1/24
f 11/1/29 1/1/19 2/1/21
f 11/1/29 4/1/22 1/1/19
f 12/1/30 8/1/26 4/1/22
f 11/1/29 2/1/21 13/1/31
f 14/1/32 11/1/29 13/1/31
f 15/1/33 12/1/30 11/1/29
f 16/1/34 17/1/35 12/1/30
f 7/1/25 3/1/20 5/1/23
f 15/1/33 11/1/29 18/1/36
f 19/1/37 21/1/38 20/1/39
f 5/1/23 3/1/20 1/1/19
f 6/1/24 5/1/23 4/1/22
f 10/1/28 7/1/25 6/1/24
f 9/1/27 6/1/24 8/1/26
f 12/1/30 4/1/22 11/1/29
f 17/1/35 8/1/26 12/1/30
f 18/1/36 11/1/29 14/1/32
f 16/1/34 12/1/30 15/1/33
f 22/1/40 24/1/41 23/1/42
f 23/1/42 26/1/43 25/1/44
f 26/1/43 28/1/45 27/1/46
f 25/1/44 27/1/46 8/1/26
f 27/1/46 29/1/47 9/1/27
f 22/1/40 23/1/42 30/1/48
f 23/1/42 25/1/44 30/1/48
f 25/1/44 8/1/26 31/1/49
f 32/1/50 22/1/40 30/1/48
f 32/1/50 30/1/48 14/1/32
f 30/1/48 31/1/49 33/1/51
f 31/1/49 17/1/35 16/1/34
f 26/1/43 24/1/41 28/1/45
f 18/1/36 30/1/48 33/1/51
f 34/1/52 36/1/53 35/1/54
f 23/1/42 24/1/41 26/1/43
f 25/1/44 26/1/43 27/1/46
f 27/1/46 28/1/45 29/1/47
f 8/1/26 27/1/46 9/1/27
f 30/1/48 25/1/44 31/1/49
f 31/1/49 8/1/26 17/1/35
f 14/1/32 30/1/48 18/1/36
f 33/1/51 31/1/49 16/1/34
usemtl 56_56_56
f 78/1/55 15/1/33 18/1/36
f 79/1/56 16/1/34 15/1/33
f 80/1/57 79/1/56 78/1/55
f 80/1/57 81/1/58 79/1/56
f 79/1/56 15/1/33 78/1/55
f 81/1/58 16/1/34 79/1/56
f 18/1/36 33/1/51 78/1/55
f 33/1/51 16/1/34 82/1/59
f 78/1/55 82/1/59 80/1/57
f 82/1/59 81/1/58 80/1/57
f 78/1/55 33/1/51 82/1/59
f 82/1/59 16/1/34 81/1/58
usemtl 43_43_43
f 48/1/60 50/1/61 49/1/62
f 50/1/61 48/1/60 51/1/63
f 52/1/64 49/1/62 53/1/65
f 49/1/62 52/1/64 48/1/60
f 54/1/66 56/1/67 55/1/68
f 56/1/67 54/1/66 57/1/69
f 58/1/70 55/1/68 59/1/71
f 55/1/68 58/1/70 54/1/66
f 60/1/72 57/1/69 54/1/66
f 57/1/69 60/1/72 61/1/73
f 62/1/74 54/1/66 58/1/70
f 54/1/66 62/1/74 60/1/72
f 55/1/68 51/1/63 48/1/60
f 51/1/63 55/1/68 56/1/67
f 59/1/71 48/1/60 52/1/64
f 48/1/60 59/1/71 55/1/68
f 63/1/75 64/1/76 65/1/77
f 65/1/77 66/1/78 63/1/75
f 67/1/79 68/1/80 64/1/76
f 64/1/76 63/1/75 67/1/79
f 69/1/81 70/1/82 71/1/83
f 71/1/83 72/1/84 69/1/81
f 73/1/85 74/1/86 70/1/82
f 70/1/82 69/1/81 73/1/85
f 75/1/87 69/1/81 72/1/84
f 72/1/84 76/1/88 75/1/87
f 77/1/89 73/1/85 69/1/81
f 69/1/81 75/1/87 77/1/89
f 70/1/82 63/1/75 66/1/78
f 66/1/78 71/1/83 70/1/82
f 74/1/86 67/1/79 63/1/75
f 63/1/75 70/1/82 74/1/86
usemtl 250_251_254
f 13/1/31 37/1/90 14/1/32
f 37/1/90 13/1/31 38/1/91
f 39/1/92 41/1/93 40/1/94
f 2/1/21 39/1/92 40/1/94
f 38/1/91 41/1/93 42/1/95
f 13/1/31 2/1/21 38/1/91
f 42/1/95 37/1/90 38/1/91
f 40/1/94 41/1/93 38/1/91
f 40/1/94 38/1/91 2/1/21
f 37/1/90 32/1/50 14/1/32
f 32/1/50 37/1/90 43/1/96
f 44/1/97 46/1/98 45/1/99
f 44/1/97 45/1/99 22/1/40
f 47/1/100 46/1/98 43/1/96
f 43/1/96 22/1/40 32/1/50
f 43/1/96 37/1/90 47/1/100
f 43/1/96 46/1/98 44/1/97
f 22/1/40 43/1/96 44/1/97
usemtl 21_128_224
f 85/1/2 101/1/101 84/1/3
f 21/1/38 103/1/102 102/1/103
f 104/1/104 21/1/38 105/1/105
f 106/1/106 21/1/38 104/1/104
f 107/1/107 20/1/39 106/1/106
f 42/1/95 107/1/107 108/1/108
f 39/1/92 107/1/107 41/1/93
f 109/1/109 103/1/102 20/1/39
f 109/1/109 111/1/110 110/1/111
f 111/1/110 109/1/109 20/1/39
f 3/1/20 110/1/111 111/1/110
f 110/1/111 3/1/20 7/1/25
f 3/1/20 39/1/92 2/1/21
f 84/1/3 102/1/103 103/1/102
f 112/1/112 103/1/102 109/1/109
f 92/1/10 7/1/25 10/1/28
f 92/1/10 10/1/28 113/1/113
f 114/1/114 86/1/4 110/1/111
f 87/1/6 112/1/112 115/1/115
f 87/1/6 115/1/115 86/1/4
f 88/1/5 84/1/3 112/1/112
f 88/1/5 112/1/112 87/1/6
f 116/1/116 88/1/5 86/1/4
f 89/1/7 83/1/1 88/1/5
f 19/1/37 20/1/39 103/1/102
f 19/1/37 103/1/102 21/1/38
f 117/1/117 37/1/90 42/1/95
f 104/1/104 117/1/117 108/1/108
f 117/1/117 104/1/104 118/1/118
f 83/1/1 84/1/3 88/1/5
f 113/1/113 10/1/28 9/1/27
f 92/1/10 113/1/113 119/1/119
f 93/1/11 114/1/114 92/1/10
f 93/1/11 86/1/4 114/1/114
f 20/1/39 21/1/38 106/1/106
f 90/1/8 92/1/10 119/1/119
f 90/1/8 88/1/5 116/1/116
f 7/1/25 114/1/114 110/1/111
f 105/1/105 21/1/38 102/1/103
f 41/1/93 107/1/107 42/1/95
f 101/1/101 102/1/103 84/1/3
f 84/1/3 103/1/102 112/1/112
f 112/1/112 109/1/109 115/1/115
f 114/1/114 7/1/25 92/1/10
f 108/1/108 117/1/117 42/1/95
f 109/1/109 86/1/4 115/1/115
f 86/1/4 109/1/109 110/1/111
f 86/1/4 93/1/11 116/1/116
f 116/1/116 93/1/11 91/1/9
f 116/1/116 91/1/9 90/1/8
f 120/1/120 111/1/110 20/1/39
f 111/1/110 120/1/120 39/1/92
f 3/1/20 111/1/110 39/1/92
f 104/1/104 107/1/107 106/1/106
f 107/1/107 104/1/104 108/1/108
f 121/1/121 118/1/118 104/1/104
f 121/1/121 104/1/104 105/1/105
f 94/1/12 101/1/101 85/1/2
f 102/1/103 122/1/122 36/1/53
f 105/1/105 36/1/53 123/1/123
f 123/1/123 36/1/53 124/1/124
f 125/1/125 126/1/126 45/1/99
f 126/1/126 125/1/125 34/1/52
f 127/1/127 125/1/125 47/1/100
f 46/1/98 125/1/125 45/1/99
f 34/1/52 122/1/122 128/1/128
f 128/1/128 129/1/129 34/1/52
f 129/1/129 128/1/128 130/1/130
f 129/1/129 130/1/130 24/1/41
f 28/1/45 24/1/41 130/1/130
f 22/1/40 45/1/99 24/1/41
f 122/1/122 102/1/103 94/1/12
f 128/1/128 122/1/122 131/1/131
f 29/1/47 28/1/45 99/1/16
f 113/1/113 29/1/47 99/1/16
f 130/1/130 96/1/15 132/1/132
f 133/1/133 131/1/131 95/1/13
f 96/1/15 133/1/133 95/1/13
f 131/1/131 94/1/12 97/1/14
f 95/1/13 131/1/131 97/1/14
f 96/1/15 97/1/14 134/1/134
f 97/1/14 83/1/1 89/1/7
f 122/1/122 34/1/52 35/1/54
f 36/1/53 122/1/122 35/1/54
f 47/1/100 37/1/90 117/1/117
f 123/1/123 117/1/117 118/1/118
f 117/1/117 123/1/123 127/1/127
f 97/1/14 94/1/12 83/1/1
f 9/1/27 29/1/47 113/1/113
f 119/1/119 113/1/113 99/1/16
f 99/1/16 132/1/132 100/1/18
f 132/1/132 96/1/15 100/1/18
f 124/1/124 36/1/53 34/1/52
f 119/1/119 99/1/16 90/1/8
f 134/1/134 97/1/14 90/1/8
f 130/1/130 132/1/132 28/1/45
f 102/1/103 36/1/53 105/1/105
f 47/1/100 125/1/125 46/1/98
f 94/1/12 102/1/103 101/1/101
f 131/1/131 122/1/122 94/1/12
f 133/1/133 128/1/128 131/1/131
f 99/1/16 28/1/45 132/1/132
f 47/1/100 117/1/117 127/1/127
f 128/1/128 96/1/15 130/1/130
f 96/1/15 128/1/128 133/1/133
f 134/1/134 100/1/18 96/1/15
f 98/1/17 100/1/18 134/1/134
f 90/1/8 98/1/17 134/1/134
f 126/1/126 129/1/129 45/1/99
f 129/1/129 126/1/126 34/1/52
f 45/1/99 129/1/129 24/1/41
f 123/1/123 125/1/125 127/1/127
f 125/1/125 123/1/123 124/1/124
f 123/1/123 118/1/118 121/1/121
f 105/1/105 123/1/123 121/1/121
f 120/1/120 107/1/107 39/1/92
f 107/1/107 120/1/120 20/1/39
f 124/1/124 34/1/52 125/1/125
