# Blender v2.79 (sub 0) OBJ File: ''
# www.blender.org
v 752.413147 3895.680908 120.831169
v 29.999901 3895.680908 120.831169
v 752.413147 3878.483887 105.876564
v 29.999901 3878.483887 105.876564
v 752.413147 3860.597900 90.829552
v 29.999901 3860.597900 90.829552
v 29.999901 3843.085938 76.271553
v 752.413147 3843.085938 76.271553
v 29.999901 3826.988037 62.553944
v 752.413147 3826.988037 62.553944
v 29.999901 3812.784912 48.664944
v 752.413147 3812.784912 48.664944
v 29.999901 3800.436035 32.687637
v 752.413147 3800.436035 32.687637
v 752.413147 3788.896973 14.630134
v 29.999901 3788.896973 14.630134
v 752.413147 3777.155029 -4.628169
v 29.999901 3777.155029 -4.628169
v 29.999901 3764.534912 -23.860271
v 752.413147 3764.534912 -23.860271
v 752.413147 3750.172119 -41.671078
v 29.999901 3750.172119 -41.671078
v 29.999901 3734.452881 -58.550388
v 752.413147 3734.452881 -58.550388
v 29.999901 3717.600098 -74.978996
v 752.413147 3717.600098 -74.978996
v 29.999901 3698.990967 -89.284195
v 752.413147 3698.990967 -89.284195
v 752.413147 3678.648926 -99.868896
v 29.999901 3678.648926 -99.868896
v 752.413147 3657.211914 -106.972107
v 29.999901 3657.211914 -106.972107
v 752.413147 3635.509033 -112.199608
v 29.999901 3635.509033 -112.199608
v 29.999901 3613.648926 -116.156723
v 752.413147 3613.648926 -116.156723
v 29.999901 3591.622070 -119.290825
v 752.413147 3591.622070 -119.290825
v 752.413147 3569.508057 -121.968544
v 29.999901 3569.508057 -121.968544
v 752.413147 3547.384033 -123.982834
v 29.999901 3547.384033 -123.982834
v 752.413147 3524.798096 -124.863220
v 29.999901 3524.798096 -124.863220
v 29.999901 3501.606934 -125.441559
v 752.413147 3501.606934 -125.441559
v 29.999901 3478.345947 -125.930641
v 752.413147 3478.345947 -125.930641
v 29.999901 3455.580078 -128.069641
v 752.413147 3455.580078 -128.069641
v 29.999901 3433.933105 -132.946686
v 752.413147 3433.933105 -132.946686
v 29.999901 3414.053955 -141.818695
v 752.413147 3414.053955 -141.818695
v 29.999901 3395.726074 -155.718399
v 752.413147 3395.726074 -155.718399
v 752.413147 3378.283936 -171.368408
v 29.999901 3378.283936 -171.368408
v 29.999901 3360.954102 -186.680695
v 752.413147 3360.954102 -186.680695
v 29.999901 3342.830078 -199.619705
v 752.413147 3342.830078 -199.619705
v 29.999901 3323.877930 -210.414825
v 752.413147 3323.877930 -210.414825
v 752.413147 3304.799072 -220.776535
v 29.999901 3304.799072 -220.776535
v 752.413147 3285.642090 -230.938126
v 29.999901 3285.642090 -230.938126
v 29.999901 3266.427002 -241.059326
v 752.413147 3266.427002 -241.059326
v 752.413147 3247.205078 -251.262039
v 29.999901 3247.205078 -251.262039
v 752.413147 3228.044922 -261.658661
v 29.999901 3228.044922 -261.658661
v 29.999901 3209.033936 -272.359253
v 752.413147 3209.033936 -272.359253
v 752.413147 3190.272949 -283.503052
v 29.999901 3190.272949 -283.503052
v 752.413147 3171.694092 -294.962372
v 29.999901 3171.694092 -294.962372
v 29.999901 3153.147949 -306.489258
v 752.413147 3153.147949 -306.489258
v 29.999901 3134.629883 -318.057770
v 752.413147 3134.629883 -318.057770
v 752.413147 3116.158936 -329.683350
v 29.999901 3116.158936 -329.683350
v 753.577271 3097.757080 -341.396576
v 31.164028 3097.757080 -341.396576
v 755.746582 3079.439941 -353.228210
v 33.333302 3079.439941 -353.228210
v 36.666599 3061.233887 -365.209412
v 759.079895 3061.233887 -365.209412
v 762.413147 3043.175049 -377.380035
v 39.999901 3043.175049 -377.380035
v 43.333302 3022.980713 -389.783722
v 765.746582 3022.980713 -389.783722
v 769.455750 3004.708008 -398.454620
v 47.042500 3004.708008 -398.454620
v 50.169498 2983.913086 -407.208221
v 772.582764 2983.913086 -407.208221
v 775.070374 2962.904053 -416.274628
v 52.657101 2962.904053 -416.274628
v 54.396099 2941.625977 -425.905029
v 776.809387 2941.625977 -425.905029
v 777.636963 2920.027100 -436.412933
v 55.223701 2920.027100 -436.412933
v 774.627197 2899.593018 -449.409882
v 52.213902 2899.593018 -449.409882
v 48.303600 2879.662109 -464.046173
v 770.716858 2879.662109 -464.046173
v 43.340698 2860.498047 -480.499695
v 765.753967 2860.498047 -480.499695
v 759.571472 2842.474121 -498.981598
v 37.158199 2842.474121 -498.981598
v 30.073799 2826.520020 -519.310303
v 752.487061 2826.520020 -519.310303
v 744.983582 2813.127930 -540.734436
v 22.570299 2813.127930 -540.734436
v 737.108582 2802.080078 -562.711731
v 14.695300 2802.080078 -562.711731
v 6.470000 2793.141113 -584.820618
v 728.883240 2793.141113 -584.820618
v 720.324097 2786.054932 -607.050354
v -2.089200 2786.054932 -607.050354
v 711.522461 2780.742920 -629.562561
v -10.890800 2780.742920 -629.562561
v -19.865900 2777.288086 -652.296753
v 702.547363 2777.288086 -652.296753
v -28.955500 2775.864014 -675.230774
v 693.457764 2775.864014 -675.230774
v 684.451782 2776.712891 -698.535645
v -37.961498 2776.712891 -698.535645
v 675.938049 2780.242920 -722.341431
v -46.475201 2780.242920 -722.341431
v -53.801102 2786.899902 -746.529419
v 668.612183 2786.899902 -746.529419
v -59.287300 2798.792480 -771.158142
v 663.125977 2798.792480 -771.158142
v -59.680302 2816.641602 -795.793152
v 662.732971 2816.641602 -795.793152
v 671.113892 2836.765381 -819.064941
v -51.299400 2836.765381 -819.064941
v 688.627869 2853.691406 -839.899048
v -33.785400 2853.691406 -839.899048
v 711.636169 2862.932373 -858.444519
v -10.777100 2862.932373 -858.444519
v 734.479980 2863.687500 -876.705200
v 12.066700 2863.687500 -876.705200
v 752.477356 2858.979492 -896.534241
v 30.064100 2858.979492 -896.534241
v 41.979301 2853.057373 -917.855347
v 764.392578 2853.057373 -917.855347
v 771.936890 2847.948486 -940.117737
v 49.523602 2847.948486 -940.117737
v 776.692871 2843.998535 -962.760742
v 54.279598 2843.998535 -962.760742
v 779.750854 2840.781494 -985.562012
v 57.337601 2840.781494 -985.562012
v 59.247799 2837.493408 -1008.593994
v 781.661072 2837.493408 -1008.593994
v 782.413147 2833.159424 -1031.987061
v 59.999901 2833.159424 -1031.987061
vn 0.0000 0.7151 -0.6990
vn 0.0000 0.6549 -0.7557
vn 0.0000 0.5376 -0.8432
vn 0.0000 0.3893 -0.9211
vn 0.0000 0.2746 -0.9616
vn 0.0000 0.2062 -0.9785
vn 0.0000 0.1595 -0.9872
vn 0.0000 0.1305 -0.9914
vn 0.0000 0.1054 -0.9944
vn 0.0000 0.1055 -0.9944
vn 0.0000 0.0648 -0.9979
vn 0.0000 0.0319 -0.9995
vn 0.0000 0.0230 -0.9997
vn 0.0000 0.0573 -0.9984
vn 0.0000 0.1570 -0.9876
vn 0.0000 0.3152 -0.9490
vn 0.0000 0.5092 -0.8606
vn 0.0000 0.6366 -0.7712
vn 0.0000 0.6650 -0.7469
vn 0.0000 0.6650 -0.7468
vn 0.0000 0.6224 -0.7827
vn 0.0000 0.5387 -0.8425
vn 0.0000 0.4861 -0.8739
vn 0.0000 0.4729 -0.8811
vn 0.0000 0.4673 -0.8841
vn 0.0000 0.4674 -0.8840
vn 0.0000 0.4837 -0.8752
vn 0.0000 0.5006 -0.8657
vn 0.0000 0.5178 -0.8555
vn 0.0000 0.5179 -0.8555
vn 0.0000 0.5264 -0.8502
vn 0.0000 0.5288 -0.8487
vn 0.0000 0.5289 -0.8487
vn 0.0000 0.5312 -0.8472
vn 0.0000 0.5348 -0.8450
vn 0.0000 0.5349 -0.8449
vn 0.0000 0.5396 -0.8419
vn 0.0000 0.5399 -0.8417
vn 0.0000 0.5459 -0.8379
vn 0.0000 0.5464 -0.8375
vn 0.0000 0.5539 -0.8326
vn 0.0000 0.5547 -0.8320
vn 0.0000 0.5429 -0.8398
vn 0.0000 0.4816 -0.8764
vn 0.0000 0.4720 -0.8816
vn 0.0000 0.4105 -0.9119
vn 0.0000 0.4064 -0.9137
vn 0.0000 0.3918 -0.9201
vn 0.0000 0.3924 -0.9198
vn 0.0000 0.4038 -0.9148
vn 0.0000 0.4048 -0.9144
vn 0.0000 0.4245 -0.9054
vn 0.0000 0.4254 -0.9050
vn 0.0000 0.4892 -0.8722
vn 0.0000 0.5621 -0.8271
vn 0.0000 0.5670 -0.8237
vn 0.0000 0.6187 -0.7856
vn 0.0000 0.6254 -0.7803
vn 0.0000 0.6799 -0.7333
vn 0.0000 0.6887 -0.7251
vn 0.0000 0.7466 -0.6652
vn 0.0000 0.7580 -0.6523
vn 0.0000 0.8130 -0.5823
vn 0.0000 0.8238 -0.5668
vn 0.0000 0.8672 -0.4979
vn 0.0000 0.8759 -0.4824
vn 0.0000 0.9075 -0.4200
vn 0.0000 0.9144 -0.4048
vn 0.0000 0.9378 -0.3473
vn 0.0000 0.9433 -0.3318
vn 0.0000 0.9613 -0.2753
vn 0.0000 0.9660 -0.2585
vn 0.0000 0.9799 -0.1994
vn 0.0000 0.9835 -0.1808
vn 0.0000 0.9932 -0.1167
vn 0.0000 0.9954 -0.0957
vn 0.0000 0.9997 -0.0244
vn 0.0000 1.0000 -0.0011
vn 0.0000 0.9968 0.0793
vn 0.0000 0.9946 0.1042
vn 0.0000 0.9808 0.1948
vn 0.0000 0.9759 0.2184
vn 0.0000 0.9409 0.3388
vn 0.0000 0.9310 0.3649
vn 0.0000 0.8614 0.5079
vn 0.0000 0.8552 0.5182
vn 0.0000 0.7818 0.6235
vn 0.0000 0.7862 0.6180
vn 0.0000 0.7634 0.6459
vn 0.0000 0.7688 0.6395
vn 0.0000 0.8101 0.5863
vn 0.0000 0.8647 0.5024
vn 0.0000 0.9318 0.3629
vn 0.0000 0.9907 0.1361
vn 0.0000 0.9996 -0.0285
vn 0.0000 0.9854 -0.1702
vn 0.0000 0.9701 -0.2427
vn 0.0000 0.9664 -0.2570
vn 0.0000 0.9680 -0.2511
vn 0.0000 0.9708 -0.2397
vn 0.0000 0.9794 -0.2020
vn 0.0000 0.9811 -0.1934
vn 0.0000 0.9875 -0.1575
vn 0.0000 0.9881 -0.1541
vn 0.0000 0.9901 -0.1405
vn 0.0000 0.9901 -0.1406
vn 0.0000 0.9869 -0.1611
vn 0.0000 0.9867 -0.1625
vn 0.0000 0.9833 -0.1822
vn 0.0000 0.6562 -0.7546
vn 0.0000 0.6500 -0.7599
vn 0.0000 0.6415 -0.7671
vn 0.0000 0.6439 -0.7651
vn 0.0000 0.6743 -0.7385
vn 0.0000 0.7470 -0.6649
vn 0.0000 0.7470 -0.6648
vn 0.0000 0.8177 -0.5756
vn 0.0000 0.8178 -0.5756
vn 0.0000 0.8483 -0.5296
vn 0.0000 0.8483 -0.5295
vn 0.0000 0.8450 -0.5347
vn 0.0000 0.8451 -0.5347
vn 0.0000 0.8082 -0.5889
vn 0.0000 0.7556 -0.6550
vn 0.0000 0.4864 -0.8737
s 1
f 24//1 25//2 23//1
f 26//2 27//3 25//2
f 28//3 30//4 27//3
f 29//4 32//5 30//4
f 31//5 34//6 32//5
f 33//6 35//7 34//6
f 36//7 37//8 35//7
f 38//8 40//9 37//8
f 39//10 42//11 40//9
f 41//11 44//12 42//11
f 43//12 45//13 44//12
f 46//13 47//14 45//13
f 48//14 49//15 47//14
f 50//15 51//16 49//15
f 52//16 53//17 51//16
f 54//17 55//18 53//17
f 56//18 58//19 55//18
f 57//20 59//21 58//19
f 60//21 61//22 59//21
f 62//22 63//23 61//22
f 64//23 66//24 63//23
f 65//24 68//25 66//24
f 67//25 69//26 68//25
f 70//26 72//24 69//26
f 71//24 74//27 72//24
f 73//27 75//28 74//27
f 76//28 78//29 75//28
f 77//30 80//31 78//29
f 79//31 81//32 80//31
f 82//33 83//34 81//32
f 84//34 86//35 83//34
f 85//36 88//37 86//35
f 87//38 90//39 88//37
f 89//40 91//41 90//39
f 92//42 94//43 91//41
f 93//37 95//44 94//43
f 96//45 98//46 95//44
f 97//47 99//48 98//46
f 100//49 102//50 99//48
f 101//51 103//52 102//50
f 104//53 106//54 103//52
f 106//54 107//55 108//56
f 108//56 110//57 109//58
f 109//58 112//59 111//60
f 111//60 113//61 114//62
f 114//62 116//63 115//64
f 115//64 117//65 118//66
f 118//66 119//67 120//68
f 120//68 122//69 121//70
f 121//70 123//71 124//72
f 124//72 125//73 126//74
f 126//74 128//75 127//76
f 127//76 130//77 129//78
f 129//78 131//79 132//80
f 132//80 133//81 134//82
f 134//82 136//83 135//84
f 135//84 138//85 137//86
f 137//86 140//87 139//88
f 140//87 142//89 139//88
f 141//90 144//91 142//89
f 143//92 146//93 144//91
f 145//94 148//95 146//93
f 147//96 150//97 148//95
f 149//98 151//99 150//97
f 152//100 154//101 151//99
f 153//102 156//103 154//101
f 155//104 158//105 156//103
f 157//106 159//107 158//105
f 160//108 162//109 159//107
f 1//110 4//111 2//110
f 3//111 6//112 4//111
f 5//112 7//113 6//112
f 8//113 9//114 7//113
f 10//114 11//115 9//114
f 12//116 13//117 11//115
f 14//118 16//119 13//117
f 15//120 18//121 16//119
f 17//122 19//123 18//121
f 20//123 22//124 19//123
f 21//124 23//1 22//124
f 24//1 26//2 25//2
f 26//2 28//3 27//3
f 28//3 29//4 30//4
f 29//4 31//5 32//5
f 31//5 33//6 34//6
f 33//6 36//7 35//7
f 36//7 38//8 37//8
f 38//8 39//10 40//9
f 39//10 41//11 42//11
f 41//11 43//12 44//12
f 43//12 46//13 45//13
f 46//13 48//14 47//14
f 48//14 50//15 49//15
f 50//15 52//16 51//16
f 52//16 54//17 53//17
f 54//17 56//18 55//18
f 56//18 57//20 58//19
f 57//20 60//21 59//21
f 60//21 62//22 61//22
f 62//22 64//23 63//23
f 64//23 65//24 66//24
f 65//24 67//25 68//25
f 67//25 70//26 69//26
f 70//26 71//24 72//24
f 71//24 73//27 74//27
f 73//27 76//28 75//28
f 76//28 77//30 78//29
f 77//30 79//31 80//31
f 79//31 82//33 81//32
f 82//33 84//34 83//34
f 84//34 85//36 86//35
f 85//36 87//38 88//37
f 87//38 89//40 90//39
f 89//40 92//42 91//41
f 92//42 93//37 94//43
f 93//37 96//45 95//44
f 96//45 97//47 98//46
f 97//47 100//49 99//48
f 100//49 101//51 102//50
f 101//51 104//53 103//52
f 104//53 105//125 106//54
f 106//54 105//125 107//55
f 108//56 107//55 110//57
f 109//58 110//57 112//59
f 111//60 112//59 113//61
f 114//62 113//61 116//63
f 115//64 116//63 117//65
f 118//66 117//65 119//67
f 120//68 119//67 122//69
f 121//70 122//69 123//71
f 124//72 123//71 125//73
f 126//74 125//73 128//75
f 127//76 128//75 130//77
f 129//78 130//77 131//79
f 132//80 131//79 133//81
f 134//82 133//81 136//83
f 135//84 136//83 138//85
f 137//86 138//85 140//87
f 140//87 141//90 142//89
f 141//90 143//92 144//91
f 143//92 145//94 146//93
f 145//94 147//96 148//95
f 147//96 149//98 150//97
f 149//98 152//100 151//99
f 152//100 153//102 154//101
f 153//102 155//104 156//103
f 155//104 157//106 158//105
f 157//106 160//108 159//107
f 160//108 161//109 162//109
f 1//110 3//111 4//111
f 3//111 5//112 6//112
f 5//112 8//113 7//113
f 8//113 10//114 9//114
f 10//114 12//116 11//115
f 12//116 14//118 13//117
f 14//118 15//120 16//119
f 15//120 17//122 18//121
f 17//122 20//123 19//123
f 20//123 21//124 22//124
f 21//124 24//1 23//1
