# Blender v2.79 (sub 0) OBJ File: ''
# www.blender.org
mtllib Box.mtl
v 10.000000 17.499998 7.500003 0.466667 0.494118 0.227451
v 10.000000 20.000002 -9.999997 0.776471 0.749020 0.694118
v 10.000000 17.500002 -7.499997 0.337255 0.356863 0.137255
v 10.000000 2.500001 -7.500000 0.403922 0.447059 0.211765
v 7.500000 2.500002 -10.000000 0.658824 0.686275 0.513726
v -10.000000 2.500001 -7.500000 0.666667 0.721569 0.513726
v -10.000000 2.499999 7.500000 0.666667 0.721569 0.513726
v 7.500000 2.499998 10.000000 0.403922 0.447059 0.211765
v -10.000000 -0.000002 10.000000 0.666667 0.721569 0.513726
v -10.000000 19.999998 10.000003 0.776471 0.749020 0.694118
v -7.500000 20.000002 -7.499997 0.776471 0.749020 0.694118
v 10.000000 19.999998 10.000003 0.776471 0.749020 0.694118
v 10.000000 -0.000002 10.000000 0.403922 0.447059 0.211765
v -7.500000 17.499998 10.000003 0.337255 0.356863 0.137255
v 10.000000 2.499999 7.500000 0.403922 0.447059 0.211765
v 7.500000 17.500002 -9.999997 0.658824 0.686275 0.513726
v 10.000000 0.000002 -10.000000 0.674510 0.756863 0.529412
v -10.000000 0.000002 -10.000000 0.666667 0.721569 0.513726
v 7.500000 19.999998 7.500003 0.776471 0.749020 0.694118
v -7.500000 19.999998 7.500003 0.776471 0.749020 0.694118
v -10.000000 20.000002 -9.999997 0.776471 0.749020 0.694118
v 7.500000 20.000002 -7.499997 0.776471 0.749020 0.694118
v -10.000000 17.499998 7.500003 0.666667 0.721569 0.513726
v -10.000000 17.500002 -7.499997 0.556863 0.600000 0.337255
v 7.500000 17.499998 10.000003 0.466667 0.494118 0.227451
v -7.500000 2.499998 10.000000 0.403922 0.447059 0.211765
v -7.500000 17.500002 -9.999997 0.658824 0.686275 0.513726
v -7.500000 2.500002 -10.000000 0.658824 0.686275 0.513726
vt 0.000000 2.003922
vt 2.007843 2.003922
vt 0.000000 0.000000
vt 2.007843 0.000000
vt 0.000000 0.023529
vt 0.188235 0.321569
vt 2.007843 0.023529
vt 1.819608 0.321569
vt 1.003922 1.000000
vt 0.000000 1.000000
vt 1.003922 0.000000
vn 0.000000 1.000000 0.000000
vn 1.000000 0.000000 0.000000
vn 0.000000 0.000000 -1.000000
vn -1.000000 -0.000000 0.000000
vn 0.000000 -0.000000 1.000000
usemtl Mesh_0400.rip
s off
f 20/1/1 19/2/1 11/3/1
f 19/2/1 22/4/1 11/3/1
usemtl Mesh_0401.rip
f 13/5/2 15/6/2 12/7/2
f 15/6/2 1/8/2 12/7/2
f 2/5/2 3/6/2 17/7/2
f 3/6/2 4/8/2 17/7/2
f 17/5/3 5/6/3 2/7/3
f 5/6/3 16/8/3 2/7/3
f 21/5/3 27/6/3 18/7/3
f 27/6/3 28/8/3 18/7/3
f 18/5/4 6/6/4 21/7/4
f 6/6/4 24/8/4 21/7/4
f 10/5/4 23/6/4 9/7/4
f 23/6/4 7/8/4 9/7/4
f 12/5/5 25/6/5 13/7/5
f 25/6/5 8/8/5 13/7/5
f 9/5/5 26/6/5 10/7/5
f 26/6/5 14/8/5 10/7/5
f 10/5/1 20/6/1 21/7/1
f 20/6/1 11/8/1 21/7/1
f 2/5/1 22/6/1 12/7/1
f 22/6/1 19/8/1 12/7/1
f 13/5/5 8/6/5 9/7/5
f 8/6/5 26/8/5 9/7/5
f 10/5/5 14/6/5 12/7/5
f 14/6/5 25/8/5 12/7/5
f 12/5/2 1/6/2 2/7/2
f 1/6/2 3/8/2 2/7/2
f 17/5/2 4/6/2 13/7/2
f 4/6/2 15/8/2 13/7/2
f 2/5/3 16/6/3 21/7/3
f 16/6/3 27/8/3 21/7/3
f 18/5/3 28/6/3 17/7/3
f 28/6/3 5/8/3 17/7/3
f 21/5/4 24/6/4 10/7/4
f 24/6/4 23/8/4 10/7/4
f 9/5/4 7/6/4 18/7/4
f 7/6/4 6/8/4 18/7/4
f 12/5/1 19/6/1 10/7/1
f 19/6/1 20/8/1 10/7/1
f 21/5/1 11/6/1 2/7/1
f 11/6/1 22/8/1 2/7/1
usemtl Mesh_0399.rip
f 23/9/4 24/10/4 7/11/4
f 24/10/4 6/3/4 7/11/4
f 25/11/5 14/3/5 8/9/5
f 14/3/5 26/10/5 8/9/5
f 3/9/2 1/10/2 4/11/2
f 1/10/2 15/3/2 4/11/2
f 27/11/3 16/3/3 28/9/3
f 16/3/3 5/10/3 28/9/3

