# Blender v2.79 (sub 0) OBJ File: ''
# www.blender.org
mtllib Pot.mtl
v -3.111900 19.242554 -5.324234 0.337255 0.286275 0.266667
v 0.000000 19.242556 -6.069627 0.337255 0.286275 0.266667
v 3.111900 19.242554 -5.324234 0.337255 0.286275 0.266667
v 5.321348 19.242554 -3.034812 0.337255 0.286275 0.266667
v 6.223801 19.242554 0.000003 0.337255 0.286275 0.266667
v 5.321349 19.242554 3.034818 0.337255 0.286275 0.266667
v 3.111902 19.242554 5.324240 0.337255 0.286275 0.266667
v 0.000000 19.242554 0.000003 0.686275 0.619608 0.356863
v 0.000001 19.242552 6.069634 0.337255 0.286275 0.266667
v -3.111900 19.242554 5.324241 0.337255 0.286275 0.266667
v -5.321348 19.242554 3.034819 0.337255 0.286275 0.266667
v -6.223801 19.242554 0.000004 0.337255 0.286275 0.266667
v -5.321348 19.242554 -3.034811 0.337255 0.286275 0.266667
v 4.550001 15.300358 7.880836 1.000000 1.000000 1.000000
v 0.000000 19.967104 5.517848 1.000000 1.000000 1.000000
v 5.658001 19.967104 0.000003 0.227451 0.329412 0.329412
v 4.837589 19.967104 -2.758919 0.227451 0.329412 0.329412
v 7.193281 18.214901 -4.102396 1.000000 1.000000 1.000000
v -4.206596 18.214899 7.197196 1.000000 1.000000 1.000000
v 0.000002 18.214899 8.204801 1.000000 1.000000 1.000000
v 2.962500 0.000001 -5.131201 0.549020 0.694118 0.694118
v -0.000001 0.000001 -5.849566 0.549020 0.694118 0.694118
v -3.831501 2.135334 -6.636351 0.466667 0.568627 0.576471
v -2.962502 0.000001 -5.131200 0.549020 0.694118 0.694118
v -5.065875 0.000000 -2.924783 0.549020 0.694118 0.694118
v -6.551862 2.135334 -3.782718 0.466667 0.568627 0.576471
v -5.924999 -0.000000 0.000001 0.549020 0.694118 0.694118
v -5.065875 -0.000000 2.924785 0.549020 0.694118 0.694118
v 0.000000 15.300361 -8.984143 0.466667 0.568627 0.576471
v -0.000001 2.135334 -7.565437 0.341176 0.447059 0.454902
v -4.549999 15.300358 7.880837 0.227451 0.329412 0.329412
v -6.551860 2.135332 3.782721 0.341176 0.447059 0.454902
v -9.099998 15.300359 0.000003 0.466667 0.568627 0.576471
v 2.829000 19.967104 -4.840213 1.000000 1.000000 1.000000
v 8.413197 18.214901 0.000003 1.000000 1.000000 1.000000
v 7.193282 18.214901 4.102401 1.000000 1.000000 1.000000
v 4.206600 18.214899 7.197194 1.000000 1.000000 1.000000
v -7.780496 15.300358 4.492076 0.466667 0.568627 0.576471
v -2.829002 19.967104 4.840220 1.000000 1.000000 1.000000
v -7.193280 18.214901 4.102404 1.000000 1.000000 1.000000
v -4.837590 19.967104 2.758926 1.000000 1.000000 1.000000
v -8.413197 18.214901 0.000004 1.000000 1.000000 1.000000
v -7.193282 18.214901 -4.102395 1.000000 1.000000 1.000000
v -0.000001 19.967104 -5.517841 1.000000 1.000000 1.000000
v -4.206600 18.214903 -7.197188 1.000000 1.000000 1.000000
v -0.000001 18.214903 -8.204795 1.000000 1.000000 1.000000
v 4.206598 18.214903 -7.197189 1.000000 1.000000 1.000000
v 9.100000 15.300359 0.000002 1.000000 1.000000 1.000000
v 6.551861 2.135334 -3.782719 0.341176 0.447059 0.454902
v 7.662998 2.135333 0.000000 0.466667 0.568627 0.576471
v 5.065874 0.000000 -2.924783 0.549020 0.694118 0.694118
v -3.831497 2.135332 6.636353 0.227451 0.329412 0.329412
v 0.000000 -0.000001 5.849567 0.549020 0.694118 0.694118
v -2.962502 -0.000001 5.131202 0.549020 0.694118 0.694118
v 3.831501 2.135332 6.636352 0.466667 0.568627 0.576471
v 3.831499 2.135334 -6.636352 0.227451 0.329412 0.329412
v 7.780498 15.300360 -4.492072 0.611765 0.666667 0.666667
v 4.549999 15.300360 -7.880832 0.227451 0.329412 0.329412
v 5.924999 0.000000 0.000000 0.549020 0.694118 0.694118
v 6.551862 2.135332 3.782719 0.466667 0.568627 0.576471
v 4.837590 19.967104 2.758925 0.227451 0.329412 0.329412
v -7.662998 2.135333 0.000001 0.466667 0.568627 0.576471
v -4.837590 19.967104 -2.758918 0.227451 0.329412 0.329412
v -5.658001 19.967104 0.000004 0.227451 0.329412 0.329412
v 2.829002 19.967104 4.840219 0.227451 0.329412 0.329412
v 5.065875 -0.000000 2.924783 0.549020 0.694118 0.694118
v -2.829002 19.967104 -4.840213 0.227451 0.329412 0.329412
v -4.549999 15.300360 -7.880831 0.466667 0.568627 0.576471
v 0.000001 15.300357 8.984150 0.611765 0.666667 0.666667
v 0.000002 2.135332 7.565440 0.341176 0.447059 0.454902
v 2.962502 -0.000001 5.131200 0.549020 0.694118 0.694118
v -7.780496 15.300360 -4.492070 0.466667 0.568627 0.576471
v 7.780499 15.300358 4.492075 1.000000 1.000000 1.000000
vt 1.000000 1.000000
vt 0.788235 1.000000
vt 1.000000 0.635294
vt 0.788235 0.635294
vt 0.576471 1.000000
vt 0.576471 0.635294
vt 0.576471 0.101961
vt 0.576471 0.003922
vt 0.788235 0.101961
vt 0.788235 0.003922
vt 1.000000 0.101961
vt 1.000000 0.003922
vt 0.415686 0.666667
vt 1.003922 1.000000
vt 0.658824 0.407843
vt 1.003922 0.325490
vt 1.349020 0.407843
vt 1.592157 0.666667
vt 1.690196 1.000000
vt 1.592157 1.337255
vt 1.349020 1.596078
vt 1.003922 1.678431
vt 0.658824 1.596078
vt 0.415686 1.337255
vt 0.317647 1.000000
vn 0.336650 0.734977 0.588549
vn 0.000275 0.730766 0.682607
vn 0.483871 0.248604 0.839045
vn 0.000122 0.249550 0.968352
vn -0.336070 0.735527 0.588214
vn -0.483810 0.248024 0.839259
vn 0.678182 0.734855 0.000336
vn 0.536607 0.843806 0.000000
vn 0.589892 0.730552 -0.343913
vn 0.468978 0.839900 -0.273049
vn 0.336070 0.735527 -0.588214
vn 0.268532 0.841548 -0.468642
vn -0.268532 0.841548 0.468642
vn 0.000000 0.837611 0.546220
vn 0.268532 0.841548 0.468642
vn 0.387768 -0.631245 -0.671651
vn 0.000000 -0.626362 -0.779504
vn 0.464766 -0.368664 -0.805017
vn 0.000000 -0.367992 -0.929807
vn -0.387768 -0.631245 -0.671651
vn -0.464766 -0.368664 -0.805017
vn -0.675069 -0.626362 -0.389752
vn -0.805231 -0.367992 -0.464888
vn -0.775567 -0.631245 0.000000
vn -0.929533 -0.368664 0.000000
vn -0.675069 -0.626362 0.389752
vn -0.805231 -0.367992 0.464888
vn -0.387768 -0.631245 0.671651
vn -0.464766 -0.368664 0.805017
vn -0.483871 0.248604 -0.839045
vn -0.000122 0.249550 -0.968352
vn 0.483810 0.248024 -0.839259
vn -0.839076 0.246345 0.484970
vn -0.969390 0.245491 -0.000153
vn 0.969390 0.245491 0.000153
vn 0.839076 0.246345 -0.484970
vn 0.468978 0.839900 0.273049
vn 0.590289 0.729942 0.344462
vn -0.678182 0.734855 -0.000336
vn -0.589892 0.730552 0.343913
vn -0.468978 0.839900 0.273049
vn -0.536607 0.843806 0.000000
vn -0.468978 0.839900 -0.273049
vn -0.590289 0.729942 -0.344462
vn -0.268532 0.841548 -0.468642
vn -0.336650 0.734977 -0.588549
vn -0.000275 0.730766 -0.682607
vn 0.000000 0.837611 -0.546220
vn 0.929533 -0.368664 0.000000
vn 0.805231 -0.367992 -0.464888
vn 0.675069 -0.626362 -0.389752
vn 0.775567 -0.631245 0.000000
vn 0.000000 -0.367992 0.929807
vn 0.000000 -0.626362 0.779504
vn 0.387768 -0.631245 0.671651
vn 0.464766 -0.368664 0.805017
vn 0.805231 -0.367992 0.464888
vn 0.838862 0.246956 0.485031
vn -0.838862 0.246956 -0.485031
vn 0.675069 -0.626362 0.389752
vn 0.000000 1.000000 0.000000
vn 0.000000 0.999969 0.000000
usemtl Mesh_0486.rip
s 1
f 65/1/1 15/2/2 14/3/3
f 14/3/3 15/2/2 69/4/4
f 15/2/2 39/5/5 69/4/4
f 69/4/4 39/5/5 31/6/6
f 16/7/7 35/8/8 17/9/9
f 35/8/8 18/10/10 17/9/9
f 17/9/9 18/10/10 34/11/11
f 18/10/10 47/12/12 34/11/11
f 39/7/5 19/8/13 15/9/2
f 19/8/13 20/10/14 15/9/2
f 15/9/2 20/10/14 65/11/1
f 20/10/14 37/12/15 65/11/1
f 21/8/16 22/10/17 56/7/18
f 56/7/18 22/10/17 30/9/19
f 22/10/17 24/12/20 30/9/19
f 30/9/19 24/12/20 23/11/21
f 24/8/20 25/10/22 23/7/21
f 23/7/21 25/10/22 26/9/23
f 25/10/22 27/12/24 26/9/23
f 26/9/23 27/12/24 62/11/25
f 27/8/24 28/10/26 62/7/25
f 62/7/25 28/10/26 32/9/27
f 28/10/26 54/12/28 32/9/27
f 32/9/27 54/12/28 52/11/29
f 68/3/30 29/4/31 23/11/21
f 23/11/21 29/4/31 30/9/19
f 29/4/31 58/6/32 30/9/19
f 30/9/19 58/6/32 56/7/18
f 31/3/6 38/4/33 52/11/29
f 52/11/29 38/4/33 32/9/27
f 38/4/33 33/6/34 32/9/27
f 32/9/27 33/6/34 62/7/25
f 48/6/35 57/4/36 16/5/7
f 16/5/7 57/4/36 17/2/9
f 57/4/36 58/3/32 17/2/9
f 17/2/9 58/3/32 34/1/11
f 35/12/8 16/11/7 36/10/37
f 16/11/7 61/9/38 36/10/37
f 36/10/37 61/9/38 37/8/15
f 61/9/38 65/7/1 37/8/15
f 33/6/34 38/4/33 64/5/39
f 64/5/39 38/4/33 41/2/40
f 38/4/33 31/3/6 41/2/40
f 41/2/40 31/3/6 39/1/5
f 19/12/13 39/11/5 40/10/41
f 39/11/5 41/9/40 40/10/41
f 40/10/41 41/9/40 42/8/42
f 41/9/40 64/7/39 42/8/42
f 42/12/42 64/11/39 43/10/43
f 64/11/39 63/9/44 43/10/43
f 43/10/43 63/9/44 45/8/45
f 63/9/44 67/7/46 45/8/45
f 58/6/32 29/4/31 34/5/11
f 34/5/11 29/4/31 44/2/47
f 29/4/31 68/3/30 44/2/47
f 44/2/47 68/3/30 67/1/46
f 45/12/45 67/11/46 46/10/48
f 67/11/46 44/9/47 46/10/48
f 46/10/48 44/9/47 47/8/12
f 44/9/47 34/7/11 47/8/12
f 48/6/35 50/7/49 49/9/50
f 49/9/50 50/7/49 51/10/51
f 50/7/49 59/8/52 51/10/51
f 31/6/6 52/7/29 70/9/53
f 70/9/53 52/7/29 53/10/54
f 52/7/29 54/8/28 53/10/54
f 71/12/55 55/11/56 70/9/53
f 70/9/53 55/11/56 69/4/4
f 55/11/56 14/3/3 69/4/4
f 21/12/16 56/11/18 49/9/50
f 49/9/50 56/11/18 57/4/36
f 56/11/18 58/3/32 57/4/36
f 59/12/52 50/11/49 60/9/57
f 60/9/57 50/11/49 73/4/58
f 50/11/49 48/3/35 73/4/58
f 73/4/58 48/3/35 61/2/38
f 48/3/35 16/1/7 61/2/38
f 62/11/25 33/3/34 72/4/59
f 72/4/59 33/3/34 63/2/44
f 33/3/34 64/1/39 63/2/44
f 65/5/1 14/6/3 73/4/58
f 73/4/58 14/6/3 60/9/57
f 14/6/3 55/7/56 60/9/57
f 60/9/57 55/7/56 66/10/60
f 55/7/56 71/8/55 66/10/60
f 67/5/46 68/6/30 72/4/59
f 72/4/59 68/6/30 26/9/23
f 68/6/30 23/7/21 26/9/23
f 49/9/50 57/4/36 48/6/35
f 70/9/53 69/4/4 31/6/6
f 70/9/53 53/10/54 71/12/55
f 49/9/50 51/10/51 21/12/16
f 60/9/57 66/10/60 59/12/52
f 72/4/59 26/9/23 62/11/25
f 73/4/58 61/2/38 65/5/1
f 72/4/59 63/2/44 67/5/46
usemtl Mesh_0488.rip
f 13/13/61 8/14/61 1/15/61
f 1/15/61 8/14/61 2/16/61
f 8/14/61 3/17/61 2/16/61
f 3/17/61 8/14/61 4/18/62
f 4/18/62 8/14/61 5/19/61
f 8/14/61 6/20/62 5/19/61
f 6/20/62 8/14/61 7/21/61
f 7/21/61 8/14/61 9/22/61
f 8/14/61 10/23/61 9/22/61
f 10/23/61 8/14/61 11/24/62
f 11/24/62 8/14/61 12/25/61
f 8/14/61 13/13/61 12/25/61

