# Blender v2.79 (sub 0) OBJ File: ''
# www.blender.org
mtllib PotCollision.mtl
v 4.550001 19.968283 7.880836
v 0.000000 19.968287 -8.984144
v -4.549999 19.968283 7.880837
v -9.099998 19.968285 0.000003
v -7.780496 19.968285 4.492076
v 9.100000 19.968285 0.000002
v 7.780499 -0.000951 4.492075
v -7.780496 -0.000949 -4.492070
v 0.000001 -0.000951 8.984150
v -4.549999 -0.000949 -7.880831
v 4.549999 -0.000949 -7.880832
v 7.780498 -0.000949 -4.492072
v 7.780498 19.968285 -4.492072
v 4.549999 19.968287 -7.880832
v 9.100000 -0.000950 0.000002
v -7.780496 -0.000951 4.492076
v -9.099998 -0.000950 0.000003
v -4.549999 -0.000951 7.880837
v -4.549999 19.968287 -7.880831
v 0.000001 19.968283 8.984149
v 0.000000 -0.000948 -8.984143
v 4.550001 -0.000951 7.880836
v -7.780496 19.968285 -4.492070
v 7.780499 19.968285 4.492075
vt 0.576471 0.635294
vt 0.788235 0.635294
vt 0.576471 0.635294
vt 0.788235 0.635294
vt 1.000000 0.635294
vt 0.788235 0.635294
vt 1.000000 0.635294
vt 1.000000 0.635294
vt 0.576471 0.635294
vt 0.788235 0.635294
vt 0.576471 0.635294
vt 0.576471 0.635294
vt 0.788235 0.635294
vt 0.576471 0.635294
vt 0.576471 0.635294
vt 0.576471 0.635294
vt 0.788235 0.635294
vt 1.000000 0.635294
vt 0.576471 0.635294
vt 0.788235 0.635294
vt 0.788235 0.635294
vt 0.788235 0.635294
vt 1.000000 0.635294
vt 0.788235 0.635294
vt 0.788235 0.635294
vt 1.000000 0.635294
vt 0.576471 0.635294
vt 0.576471 0.635294
vt 1.000000 0.635294
vt 1.000000 0.635294
vt 0.788235 0.635294
vt 1.000000 0.635294
vt 0.576471 0.635294
vt 1.000000 0.635294
vt 1.000000 0.635294
vt 1.000000 0.635294
vn -0.7238 0.0000 -0.6900
vn -0.9595 0.0000 -0.2818
vn 0.9595 -0.0000 0.2818
vn -0.2357 0.0000 0.9718
vn 0.2357 0.0000 -0.9718
vn 0.7238 0.0000 0.6900
vn -0.2357 -0.0000 -0.9718
vn 0.9595 0.0000 -0.2818
vn -0.7238 0.0000 0.6900
vn 0.0000 1.0000 0.0000
vn 0.2357 0.0000 0.9718
vn -0.9595 0.0000 0.2818
vn 0.7238 0.0000 -0.6900
usemtl Mesh_0486.rip
s 1
f 10/1/1 23/2/1 19/3/1
f 8/4/2 4/5/2 23/2/2
f 24/6/3 15/7/3 6/8/3
f 18/9/4 20/10/4 3/11/4
f 11/12/5 2/13/5 14/14/5
f 22/15/6 24/6/6 1/16/6
f 21/17/7 19/18/7 2/13/7
f 6/19/8 12/20/8 13/21/8
f 16/22/9 3/23/9 5/24/9
f 24/6/10 23/2/10 5/24/10
f 9/25/11 1/26/11 20/10/11
f 17/27/12 5/24/12 4/28/12
f 12/20/13 14/29/13 13/21/13
f 14/14/10 2/13/10 13/21/10
f 13/21/10 24/6/10 6/19/10
f 24/6/10 20/10/10 1/16/10
f 13/21/10 2/13/10 23/2/10
f 20/10/10 5/24/10 3/11/10
f 5/24/10 23/2/10 4/28/10
f 23/2/10 2/13/10 19/3/10
f 13/21/10 23/2/10 24/6/10
f 20/10/10 24/6/10 5/24/10
f 10/1/1 8/4/1 23/2/1
f 8/4/2 17/30/2 4/5/2
f 24/6/3 7/31/3 15/7/3
f 18/9/4 9/25/4 20/10/4
f 11/12/5 21/17/5 2/13/5
f 22/15/6 7/31/6 24/6/6
f 21/17/7 10/32/7 19/18/7
f 6/19/8 15/33/8 12/20/8
f 16/22/9 18/34/9 3/23/9
f 9/25/11 22/35/11 1/26/11
f 17/27/12 16/22/12 5/24/12
f 12/20/13 11/36/13 14/29/13
