mtllib DelfinoPlazaPass2.mtl
v -480.00006 36.120018 -96 1 1 1
v -480.00006 36.12002 -120.00001 1 1 1
v 60.000008 36.120018 -96 1 1 1
v 60.000008 36.12002 -120.00001 1 1 1
v 180.00002 84.120026 -95.99999 1 1 1
v 180.00002 84.12003 -120 1 1 1
v -420.00003 69.78229 24.000013 1 1 1
v -480.00006 69.78229 24.000013 1 1 1
v -420.00003 84.12002 -47.99999 1 1 1
v -480.00006 84.12002 -47.99999 1 1 1
v -480.00006 84.120026 -95.99999 1 1 1
v 60.000008 84.120026 -95.99999 1 1 1
v 60.000008 84.12 24.000015 1 1 1
v -420.00003 84.120026 -95.99999 1 1 1
v -420.00003 84.12 24.000015 1 1 1
v -480.00006 36.12002 -120.00001 1 1 1
v -480.00006 36.120018 -96 1 1 1
v -528.00006 36.12002 -120.00001 1 1 1
v -528.00006 36.12001 -47.999996 1 1 1
v 180.00002 84.12001 -3.629579 1 1 1
v 180.00002 84.120026 -95.99999 1 1 1
v 123.604805 18.120037 -215.56442 1 1 1
v 180.00002 18.120037 -215.56442 1 1 1
v 123.604805 18.120022 -120.000015 1 1 1
v 180.00002 18.120022 -120.000015 1 1 1
v 75.60277 18.120022 -120.000015 1 1 1
v 123.604805 18.120028 -150.33241 1 1 1
v 76.331055 18.120028 -150.0048 1 1 1
v 74.99929 18.120028 -149.8464 1 1 1
v 75.20749 18.120022 -120.000015 1 1 1
v 17.883842 18.120028 -150.00002 1 1 1
v 17.184963 18.120022 -120.000015 1 1 1
v 16.379522 18.120028 -148.97281 1 1 1
v 16.379522 18.120022 -120.000015 1 1 1
v -6.609444 18.120028 -148.81561 1 1 1
v -7.300465 18.120022 -120.000015 1 1 1
v -8.105882 18.120028 -150.00002 1 1 1
v -8.105882 18.120022 -120.000015 1 1 1
v -66.97621 18.120028 -149.1372 1 1 1
v -66.97621 18.120022 -120.000015 1 1 1
v -66.97621 18.120028 -150.01921 1 1 1
v -135.59521 18.120028 -151.11362 1 1 1
v -135.59521 18.120022 -120.000015 1 1 1
v -480.00006 36.12001 -47.999996 1 1 1
vt -0.9206 0
vt 2.7951 -0.16509998
vt 2.7951 0
vt -0.9206 -0.16509998
vt -1.7463 0
vt -1.7463 -0.16509998
vt 2.3822 0.33029997
vt 2.7951 0.8257
vt 2.3822 0.8257
vt 2.7951 0.33029997
vt 2.3822 0
vt -0.9206 0.8257
vt 3.1253 -0.16509998
vt 3.1253 0.33029997
vt -1.7463 0.6356
vt -1.3584 0.4167
vt -1.75 -0.24699998
vt -1.3584 -0.24699998
vt -1.75 0.4167
vt -1.3584 0.20599997
vt -1.025 0.4167
vt -1.0301 0.2083
vt -0.6242 0.2083
vt -1.0223 0.4167
vt -1.0208 0.2094
vt -0.6193 0.4167
vt -0.4541 0.2166
vt -0.6137 0.4167
vt -0.6137 0.2155
vt -0.4493 0.4167
vt -0.0349 0.21430004
vt -0.4437 0.4167
vt -0.4437 0.2083
vt -0.0349 0.4167
vt 0.4416 0.20060003
vt -0.0349 0.20819998
vt 0.4416 0.4167
vn 0 1 0
usemtl A_tamari05.png
f 3/1/1 2/2/1 1/3/1
f 3/1/1 4/4/1 2/2/1
f 5/5/1 4/4/1 3/1/1
f 5/5/1 6/6/1 4/4/1
f 9/7/1 8/8/1 7/9/1
f 9/7/1 10/10/1 8/8/1
f 11/3/1 10/10/1 9/7/1
f 14/11/1 13/12/1 12/1/1
f 14/11/1 15/9/1 13/12/1
f 18/13/1 17/3/1 16/2/1
f 18/13/1 19/14/1 17/3/1
f 21/5/1 13/12/1 20/15/1
f 21/5/1 12/1/1 13/12/1
f 24/16/1 23/17/1 22/18/1
f 24/16/1 25/19/1 23/17/1
f 27/20/1 26/21/1 24/16/1
f 27/20/1 28/22/1 26/21/1
f 31/23/1 30/24/1 29/25/1
f 31/23/1 32/26/1 30/24/1
f 35/27/1 34/28/1 33/29/1
f 35/27/1 36/30/1 34/28/1
f 39/31/1 38/32/1 37/33/1
f 39/31/1 40/34/1 38/32/1
f 42/35/1 40/34/1 41/36/1
f 42/35/1 43/37/1 40/34/1
f 14/11/1 11/3/1 9/7/1
f 19/14/1 44/10/1 17/3/1
