mtllib DelfinoPlazaPass3.mtl
v -480.00006 36.240025 -120.00001 1 1 1
v -480.00006 36.24002 -96 1 1 1
v -528.00006 36.240025 -120.00001 1 1 1
v -528.00006 36.240013 -47.999996 1 1 1
v 180.00002 84.240005 -3.629578 1 1 1
v 60.000008 84.24 24.000015 1 1 1
v 180.00002 84.24002 -95.99999 1 1 1
v 60.000008 84.24002 -95.99999 1 1 1
v -420.00003 84.24002 -95.99999 1 1 1
v -420.00003 84.24 24.000015 1 1 1
v -480.00006 84.24001 -47.99999 1 1 1
v -420.00003 84.24001 -47.99999 1 1 1
v -480.00006 69.90228 24.000013 1 1 1
v -420.00003 69.90228 24.000013 1 1 1
v -420.00003 84.24001 -47.99999 1 1 1
v -480.00006 84.24002 -95.99999 1 1 1
v -480.00006 84.24001 -47.99999 1 1 1
v -480.00006 36.24002 -96 1 1 1
v -480.00006 36.240025 -120.00001 1 1 1
v 60.000008 36.24002 -96 1 1 1
v 60.000008 36.240025 -120.00001 1 1 1
v 180.00002 84.24003 -120 1 1 1
v 180.00002 84.24002 -95.99999 1 1 1
v 60.000008 36.240025 -120.00001 1 1 1
v 60.000008 36.24002 -96 1 1 1
v -66.97621 18.240026 -150.01921 1 1 1
v -66.97621 18.24002 -120.000015 1 1 1
v -135.59521 18.240026 -151.11362 1 1 1
v -135.59521 18.24002 -120.000015 1 1 1
v -8.105882 18.240026 -150.00002 1 1 1
v -8.105882 18.24002 -120.000015 1 1 1
v -66.97621 18.240026 -149.1372 1 1 1
v 16.379522 18.240026 -148.97281 1 1 1
v 16.379522 18.24002 -120.000015 1 1 1
v -6.609444 18.240026 -148.81561 1 1 1
v -7.300465 18.24002 -120.000015 1 1 1
v 74.99929 18.240026 -149.8464 1 1 1
v 75.20749 18.24002 -120.000015 1 1 1
v 17.883842 18.240026 -150.00002 1 1 1
v 17.184963 18.24002 -120.000015 1 1 1
v 123.604805 18.24002 -120.000015 1 1 1
v 75.60277 18.24002 -120.000015 1 1 1
v 123.604805 18.240026 -150.33241 1 1 1
v 76.331055 18.240026 -150.0048 1 1 1
v 123.604805 18.240036 -215.56442 1 1 1
v 180.00002 18.240036 -215.56442 1 1 1
v 180.00002 18.24002 -120.000015 1 1 1
v -480.00006 36.240013 -47.999996 1 1 1
vt 3.1667 0.4167
vt 2.8333 0.5833
vt 2.8333 0.4167
vt 3.1667 0.9167
vt -1.75 0.5833
vt -0.9167 1.4167
vt -1.75 1.2248
vt -0.9167 0.5833
vt 2.4167 0.5833
vt 2.4167 1.4167
vt 2.8333 1.4167
vt 2.4167 0.9167
vt 2.8333 0.9167
vt -0.9167 0.4167
vt -1.75 0.4167
vt 0.4416 0.20060003
vt -0.0349 0.4167
vt -0.0349 0.20819998
vt 0.4416 0.4167
vt -0.0349 0.21430004
vt -0.4437 0.4167
vt -0.4437 0.2083
vt -0.4541 0.2166
vt -0.6137 0.4167
vt -0.6137 0.2155
vt -0.4493 0.4167
vt -0.6242 0.2083
vt -1.0223 0.4167
vt -1.0208 0.2094
vt -0.6193 0.4167
vt -1.3584 0.20599997
vt -1.025 0.4167
vt -1.3584 0.4167
vt -1.0301 0.2083
vt -1.75 -0.24699998
vt -1.3584 -0.24699998
vn 0 1 0
usemtl A_tamatekari06.png
f 3/1/1 2/2/1 1/3/1
f 3/1/1 4/4/1 2/2/1
f 7/5/1 6/6/1 5/7/1
f 7/5/1 8/8/1 6/6/1
f 9/9/1 6/6/1 8/8/1
f 9/9/1 10/10/1 6/6/1
f 13/11/1 12/12/1 11/13/1
f 13/11/1 14/10/1 12/12/1
f 16/2/1 15/12/1 9/9/1
f 16/2/1 17/13/1 15/12/1
f 20/8/1 19/3/1 18/2/1
f 20/8/1 21/14/1 19/3/1
f 24/14/1 23/5/1 22/15/1
f 24/14/1 25/8/1 23/5/1
f 28/16/1 27/17/1 26/18/1
f 28/16/1 29/19/1 27/17/1
f 32/20/1 31/21/1 30/22/1
f 32/20/1 27/17/1 31/21/1
f 35/23/1 34/24/1 33/25/1
f 35/23/1 36/26/1 34/24/1
f 39/27/1 38/28/1 37/29/1
f 39/27/1 40/30/1 38/28/1
f 43/31/1 42/32/1 41/33/1
f 43/31/1 44/34/1 42/32/1
f 41/33/1 46/35/1 45/36/1
f 41/33/1 47/15/1 46/35/1
f 4/4/1 48/13/1 2/2/1
