mtllib Flower2.mtl
v -25.000000 0.299996 25.000000 1.000000 1.000000 1.000000
v 25.000000 0.299996 25.000000 1.000000 1.000000 1.000000
v -25.000000 0.300004 -25.000000 1.000000 1.000000 1.000000
v 25.000000 0.300004 -25.000000 1.000000 1.000000 1.000000
v -18.517290 0.799997 18.517290 1.000000 1.000000 1.000000
v 18.517290 0.799997 18.517290 1.000000 1.000000 1.000000
v -18.517290 0.800003 -18.517290 1.000000 1.000000 1.000000
v 18.517290 0.800003 -18.517290 1.000000 1.000000 1.000000
vt 0.000000 0.000100
vt 0.999900 0.000100
vt 0.000000 1.000000
vt 0.999900 1.000000
vn 0.000000 1.000000 0.000000
usemtl unnamed.0
f 1/1/1 2/2/1 3/3/1
f 2/2/1 4/4/1 3/3/1
usemtl unnamed.1
f 5/1/1 6/2/1 7/3/1
f 6/2/1 8/4/1 7/3/1
