mtllib Pass1.mtl
v 0.000000 0.000000 0.000000 1.000000 1.000000 1.000000
v 0.000010 15.249994 15.250006 1.000000 1.000000 1.000000
v 0.000010 15.250000 0.000004 1.000000 1.000000 1.000000
v 0.000009 15.250006 -15.249994 1.000000 1.000000 1.000000
v -0.000001 0.000004 -15.250000 1.000000 1.000000 1.000000
v -0.000010 -15.249994 -15.250006 1.000000 1.000000 1.000000
v -0.000010 -15.250000 -0.000004 1.000000 1.000000 1.000000
v -0.000009 -15.250006 15.249994 1.000000 1.000000 1.000000
v 0.000001 -0.000004 15.250000 1.000000 1.000000 1.000000
v -3.866101 11.585169 -11.585158 1.000000 1.000000 1.000000
v 0.000007 13.657251 -5.657011 1.000000 1.000000 1.000000
v -3.866098 15.136749 -6.269840 1.000000 1.000000 1.000000
v 0.000008 14.782501 0.000006 1.000000 1.000000 1.000000
v -3.866097 16.383894 0.000008 1.000000 1.000000 1.000000
v 0.000008 13.657247 5.657025 1.000000 1.000000 1.000000
v -3.866100 11.585157 11.585167 1.000000 1.000000 1.000000
v -3.866103 6.269837 15.136744 1.000000 1.000000 1.000000
v -3.866113 -11.585165 11.585153 1.000000 1.000000 1.000000
v -3.866116 -15.136743 6.269833 1.000000 1.000000 1.000000
v -0.000009 -13.657243 -5.657028 1.000000 1.000000 1.000000
v -3.866117 -15.136733 -6.269854 1.000000 1.000000 1.000000
v -0.000005 -5.657005 -13.657252 1.000000 1.000000 1.000000
v -3.866108 0.000008 -16.383894 1.000000 1.000000 1.000000
v 3.866113 11.585165 -11.585158 1.000000 1.000000 1.000000
v 5.467505 7.749343 -18.708557 1.000000 1.000000 1.000000
v 3.866106 0.000004 -16.383894 1.000000 1.000000 1.000000
v 3.866102 -6.269833 -15.136744 1.000000 1.000000 1.000000
v 5.467495 -7.749326 -18.708567 1.000000 1.000000 1.000000
v 3.866099 -11.585151 -11.585167 1.000000 1.000000 1.000000
v 5.467492 -14.318902 -14.318923 1.000000 1.000000 1.000000
v 5.467489 -18.708570 7.749325 1.000000 1.000000 1.000000
v 5.467493 -14.318924 14.318902 1.000000 1.000000 1.000000
v 5.467506 7.749327 18.708565 1.000000 1.000000 1.000000
v 3.866114 11.585153 11.585167 1.000000 1.000000 1.000000
v 3.866116 15.136738 6.269850 1.000000 1.000000 1.000000
v 3.866116 16.383890 0.000008 1.000000 1.000000 1.000000
v 3.866115 15.136744 -6.269840 1.000000 1.000000 1.000000
v 3.866121 22.280367 9.228845 1.000000 1.000000 1.000000
v 5.467512 18.708549 7.749347 1.000000 1.000000 1.000000
v 5.467510 14.318902 14.318918 1.000000 1.000000 1.000000
v 3.866113 9.228820 22.280382 1.000000 1.000000 1.000000
v 3.866108 -0.000018 24.116104 1.000000 1.000000 1.000000
v 5.467501 -0.000015 20.249998 1.000000 1.000000 1.000000
v 5.467497 -7.749353 18.708553 1.000000 1.000000 1.000000
v 5.467487 -20.250002 -0.000015 1.000000 1.000000 1.000000
v 3.866093 -22.280369 -9.228850 1.000000 1.000000 1.000000
v 5.467488 -18.708555 -7.749355 1.000000 1.000000 1.000000
v 3.866096 -17.052650 -17.052671 1.000000 1.000000 1.000000
v 3.866106 0.000006 -24.116108 1.000000 1.000000 1.000000
v 5.467499 0.000003 -20.250000 1.000000 1.000000 1.000000
v 3.866116 17.052668 -17.052658 1.000000 1.000000 1.000000
v 5.467509 14.318917 -14.318908 1.000000 1.000000 1.000000
v 5.467511 18.708561 -7.749333 1.000000 1.000000 1.000000
v 3.866122 24.116102 0.000011 1.000000 1.000000 1.000000
v 5.467513 20.249996 0.000009 1.000000 1.000000 1.000000
v -5.467492 14.318908 14.318918 1.000000 1.000000 1.000000
v -5.467495 7.749333 18.708565 1.000000 1.000000 1.000000
v -3.866106 -0.000008 16.383890 1.000000 1.000000 1.000000
v -5.467499 -0.000009 20.249998 1.000000 1.000000 1.000000
v -3.866110 -6.269849 15.136738 1.000000 1.000000 1.000000
v -5.467505 -7.749347 18.708553 1.000000 1.000000 1.000000
v -3.866117 -16.383886 -0.000012 1.000000 1.000000 1.000000
v -5.467513 -20.249994 -0.000015 1.000000 1.000000 1.000000
v -3.866114 -11.585148 -11.585167 1.000000 1.000000 1.000000
v -5.467510 -14.318896 -14.318923 1.000000 1.000000 1.000000
v -3.866111 -6.269830 -15.136744 1.000000 1.000000 1.000000
v -5.467506 -7.749320 -18.708567 1.000000 1.000000 1.000000
v -5.467501 0.000009 -20.250000 1.000000 1.000000 1.000000
v -3.866104 6.269850 -15.136742 1.000000 1.000000 1.000000
v -5.467493 14.318923 -14.318908 1.000000 1.000000 1.000000
v -5.467487 20.250004 0.000009 1.000000 1.000000 1.000000
v -3.866097 15.136742 6.269850 1.000000 1.000000 1.000000
v 3.866117 17.052652 17.052668 1.000000 1.000000 1.000000
v 0.000012 18.185005 18.185026 1.000000 1.000000 1.000000
v 0.000016 25.717499 0.000011 1.000000 1.000000 1.000000
v 3.866120 22.280382 -9.228825 1.000000 1.000000 1.000000
v 0.000010 18.185028 -18.185009 1.000000 1.000000 1.000000
v 3.866111 9.228842 -22.280375 1.000000 1.000000 1.000000
v 3.866100 -9.228815 -22.280382 1.000000 1.000000 1.000000
v -0.000007 -9.841640 -23.759872 1.000000 1.000000 1.000000
v -0.000012 -18.184998 -18.185026 1.000000 1.000000 1.000000
v -0.000015 -23.759857 -9.841675 1.000000 1.000000 1.000000
v 3.866092 -24.116106 -0.000018 1.000000 1.000000 1.000000
v -0.000016 -25.717493 -0.000017 1.000000 1.000000 1.000000
v 3.866094 -22.280384 9.228817 1.000000 1.000000 1.000000
v 3.866097 -17.052671 17.052650 1.000000 1.000000 1.000000
v 3.866102 -9.228849 22.280369 1.000000 1.000000 1.000000
v 0.000001 -0.000014 25.717495 1.000000 1.000000 1.000000
v 3.866111 6.269833 15.136744 1.000000 1.000000 1.000000
v 0.000006 10.452801 10.452812 1.000000 1.000000 1.000000
v 0.000005 10.452812 -10.452803 1.000000 1.000000 1.000000
v 0.000003 5.657025 -13.657247 1.000000 1.000000 1.000000
v 3.866110 6.269847 -15.136742 1.000000 1.000000 1.000000
v -0.000001 0.000004 -14.782501 1.000000 1.000000 1.000000
v -0.000007 -10.452795 -10.452814 1.000000 1.000000 1.000000
v 3.866097 -15.136737 -6.269854 1.000000 1.000000 1.000000
v -0.000009 -14.782498 -0.000011 1.000000 1.000000 1.000000
v 3.866097 -16.383890 -0.000012 1.000000 1.000000 1.000000
v -0.000008 -13.657252 5.657007 1.000000 1.000000 1.000000
v 3.866098 -15.136744 6.269833 1.000000 1.000000 1.000000
v -0.000006 -10.452812 10.452797 1.000000 1.000000 1.000000
v 3.866100 -11.585169 11.585153 1.000000 1.000000 1.000000
v -0.000004 -5.657026 13.657244 1.000000 1.000000 1.000000
v 3.866103 -6.269855 15.136738 1.000000 1.000000 1.000000
v 0.000001 -0.000008 14.782499 1.000000 1.000000 1.000000
v 3.866108 -0.000012 16.383890 1.000000 1.000000 1.000000
v 0.000004 5.657009 13.657252 1.000000 1.000000 1.000000
v -3.866100 9.228824 22.280382 1.000000 1.000000 1.000000
v -5.467509 -14.318918 14.318902 1.000000 1.000000 1.000000
v -3.866116 -17.052668 17.052650 1.000000 1.000000 1.000000
v -5.467511 -18.708563 7.749325 1.000000 1.000000 1.000000
v -5.467512 -18.708548 -7.749354 1.000000 1.000000 1.000000
v -3.866107 0.000010 -24.116108 1.000000 1.000000 1.000000
v -5.467497 7.749349 -18.708557 1.000000 1.000000 1.000000
v -3.866102 9.228846 -22.280375 1.000000 1.000000 1.000000
v -3.866096 17.052671 -17.052658 1.000000 1.000000 1.000000
v -5.467489 18.708569 -7.749332 1.000000 1.000000 1.000000
v -5.467488 18.708557 7.749348 1.000000 1.000000 1.000000
v -3.866092 22.280371 9.228845 1.000000 1.000000 1.000000
v -3.866095 17.052656 17.052668 1.000000 1.000000 1.000000
v -3.866121 -24.116102 -0.000018 1.000000 1.000000 1.000000
v -3.866119 -22.280380 9.228817 1.000000 1.000000 1.000000
v -0.000010 -18.185026 18.185001 1.000000 1.000000 1.000000
v -0.000005 -9.841673 23.759861 1.000000 1.000000 1.000000
v -3.866111 -9.228846 22.280369 1.000000 1.000000 1.000000
v -3.866105 -0.000012 24.116104 1.000000 1.000000 1.000000
v 0.000007 9.841648 23.759874 1.000000 1.000000 1.000000
v 0.000015 23.759865 9.841672 1.000000 1.000000 1.000000
v -3.866091 24.116106 0.000011 1.000000 1.000000 1.000000
v 0.000014 23.759876 -9.841652 1.000000 1.000000 1.000000
v -3.866093 22.280386 -9.228825 1.000000 1.000000 1.000000
v 0.000005 9.841671 -23.759869 1.000000 1.000000 1.000000
v -0.000001 0.000008 -25.717501 1.000000 1.000000 1.000000
v -3.866113 -9.228811 -22.280382 1.000000 1.000000 1.000000
v -3.866117 -17.052647 -17.052671 1.000000 1.000000 1.000000
v -3.866120 -22.280365 -9.228850 1.000000 1.000000 1.000000
v -0.000014 -23.759872 9.841643 1.000000 1.000000 1.000000
vt 0.146448 0.725239
vt 0.500001 0.765524
vt 0.146448 0.794289
vt 0.500001 0.787402
vt 0.146448 0.818536
vt 0.500001 0.703224
vt 0.500001 0.609984
vt 0.146448 0.621898
vt 0.500000 0.500000
vt 0.146448 0.500000
vt 0.500000 0.390016
vt 0.146447 0.378102
vt 0.500000 0.296776
vt 0.146447 0.274761
vt 0.499999 0.234475
vt 0.146447 0.205711
vt 0.499999 0.212598
vt 0.146446 0.181464
vt 0.499999 0.234476
vt 0.146446 0.205711
vt 0.499999 0.296777
vt 0.146447 0.500000
vt 0.500000 0.609984
vt 1.000000 0.893701
vt 0.853554 0.794289
vt 1.000000 0.863732
vt 0.853553 0.725239
vt 1.000000 0.778389
vt 0.853553 0.621898
vt 0.999999 0.650663
vt 0.853552 0.500000
vt 0.999999 0.500000
vt 0.853552 0.378102
vt 0.999999 0.349337
vt 0.853552 0.274761
vt 0.999998 0.221612
vt 0.853552 0.205711
vt 0.999998 0.136268
vt 0.853552 0.181464
vt 0.999998 0.106299
vt 0.999999 0.221611
vt 0.853552 0.378101
vt 0.853553 0.500000
vt 1.000000 0.650663
vt 1.000000 0.778388
vt 0.853554 0.818536
vt 0.853554 0.933175
vt 0.853554 0.831538
vt 0.853553 0.679427
vt 0.853552 0.320573
vt 0.853552 0.168462
vt 0.853551 0.066824
vt 0.853551 0.031134
vt 0.853551 0.066825
vt 0.853554 0.933176
vt 0.853554 0.968866
vt 0.000002 0.893701
vt 0.000002 0.863732
vt 0.000002 0.778388
vt 0.000002 0.650663
vt 0.000001 0.500000
vt 0.000001 0.349337
vt 0.000000 0.221611
vt 0.000000 0.136268
vt 0.000000 0.106299
vt 0.000000 0.221612
vt 0.000001 0.349338
vt 0.000001 0.650663
vt 0.000002 0.778389
vt 0.500001 0.691342
vt 0.500001 0.853553
vt 0.500001 0.961940
vt 0.500002 1.000000
vt 0.500001 0.853554
vt 0.499999 0.308659
vt 0.499999 0.146447
vt 0.499999 0.038060
vt 0.499999 0.000000
vt 0.499999 0.146446
vt 0.500000 0.308658
vt 0.146448 0.679427
vt 0.146447 0.320573
vt 0.146447 0.168462
vt 0.146446 0.066824
vt 0.146446 0.031134
vt 0.146446 0.066825
vt 0.146446 0.168462
vt 0.146448 0.831538
vt 0.146449 0.933176
vt 0.146449 0.968866
vt 0.146449 0.933175
vt 0.501961 0.941177
vt 0.011765 -3.137255
vt 0.992157 -4.960784
vn -0.731712 -0.481948 0.481948
vn 0.000000 -0.923856 0.382672
vn -0.731712 -0.629688 0.260811
vn 0.000000 -1.000000 0.000000
vn -0.731712 -0.681600 0.000000
vn 0.000000 -0.923856 -0.382672
vn -0.731712 -0.629688 -0.260811
vn 0.000000 -0.707083 -0.707083
vn -0.731712 -0.481948 -0.481948
vn 0.000000 -0.382672 -0.923856
vn -0.731712 -0.260811 -0.629688
vn 0.000000 0.000000 -1.000000
vn -0.731712 0.000000 -0.681600
vn 0.000000 0.382672 -0.923856
vn -0.731712 0.260811 -0.629688
vn 0.000000 0.707083 -0.707083
vn -0.731712 0.481948 -0.481948
vn 0.000000 0.923856 -0.382672
vn -0.731712 0.629719 -0.260811
vn 0.000000 1.000000 0.000000
vn -0.731712 0.681600 0.000000
vn 0.000000 0.923856 0.382672
vn -0.731712 0.629688 0.260811
vn 0.000000 0.707083 0.707083
vn -0.731712 0.481948 0.481948
vn 0.000000 0.382672 0.923856
vn -0.731712 0.260811 0.629688
vn 0.000000 0.000000 1.000000
vn -0.731712 0.000000 0.681600
vn 0.000000 -0.382672 0.923856
vn -0.731712 -0.260811 0.629688
vn 0.000000 -0.707083 0.707083
vn 0.998840 0.047731 0.000000
vn 0.731712 -0.629688 0.260811
vn 0.998840 0.044099 -0.018250
vn 0.731712 -0.481948 0.481948
vn 0.998840 0.033753 -0.033753
vn 0.731712 -0.260811 0.629688
vn 0.998840 0.018250 -0.044099
vn 0.731712 0.000000 0.681600
vn 0.998840 0.000000 -0.047731
vn 0.731712 0.260811 0.629688
vn 0.998840 -0.018250 -0.044099
vn 0.731712 0.481948 0.481948
vn 0.998840 -0.033753 -0.033753
vn 0.731712 0.629688 0.260811
vn 0.998840 -0.044099 -0.018250
vn 0.731712 0.681600 0.000000
vn 0.998840 -0.047731 0.000000
vn 0.731712 0.629688 -0.260811
vn 0.998840 -0.044099 0.018250
vn 0.731712 0.481948 -0.481948
vn 0.998840 -0.033753 0.033753
vn 0.731712 0.260811 -0.629688
vn 0.998840 -0.018250 0.044099
vn 0.731712 0.000000 -0.681600
vn 0.998840 0.000000 0.047731
vn 0.731712 -0.260811 -0.629688
vn 0.998840 0.018250 0.044099
vn 0.731712 -0.481948 -0.481948
vn 0.998840 0.033753 0.033753
vn 0.731712 -0.629688 -0.260811
vn 0.998840 0.044099 0.018250
vn 0.731712 -0.681600 0.000000
vn 0.684042 0.673910 0.279122
vn 0.684042 0.515763 0.515763
vn 0.684042 0.279122 0.673910
vn 0.684042 0.000000 0.729423
vn 0.684042 -0.279122 0.673910
vn 0.684042 -0.515763 0.515763
vn 0.684042 -0.673910 0.279122
vn 0.684042 -0.729423 0.000000
vn 0.684042 -0.673910 -0.279122
vn 0.684042 -0.515763 -0.515763
vn 0.684042 -0.279122 -0.673910
vn 0.684042 0.000000 -0.729423
vn 0.684042 0.279122 -0.673910
vn 0.684042 0.515763 -0.515763
vn 0.684042 0.673910 -0.279122
vn 0.684042 0.729423 0.000000
vn -0.998840 0.047731 0.000000
vn -0.998840 0.044099 0.018250
vn -0.998840 0.033753 0.033753
vn -0.998840 0.018250 0.044099
vn -0.998840 0.000000 0.047731
vn -0.998840 -0.018250 0.044099
vn -0.998840 -0.033753 0.033753
vn -0.998840 -0.044099 0.018250
vn -0.998840 -0.047731 0.000000
vn -0.998840 -0.044099 -0.018250
vn -0.998840 -0.033753 -0.033753
vn -0.998840 -0.018250 -0.044099
vn -0.998840 0.000000 -0.047731
vn -0.998840 0.018250 -0.044099
vn -0.998840 0.033753 -0.033753
vn -0.998840 0.044099 -0.018250
vn 0.000000 -0.999969 0.000000
vn -0.684042 0.279122 0.673910
vn -0.684042 0.000000 0.729423
vn -0.684042 -0.279122 0.673910
vn -0.684042 -0.515763 0.515763
vn -0.684042 -0.673910 0.279122
vn -0.684042 -0.729423 0.000000
vn -0.684042 -0.673910 -0.279122
vn -0.684042 -0.515763 -0.515763
vn -0.684042 -0.279122 -0.673910
vn -0.684042 0.000000 -0.729423
vn -0.684042 0.279122 -0.673910
vn -0.684042 0.515763 -0.515763
vn -0.684042 0.673910 -0.279122
vn -0.684042 0.729423 0.000000
vn -0.684042 0.673910 0.279122
vn -0.684042 0.515763 0.515763
vn 1.000000 0.000000 0.000000
vn 0.999969 0.000000 0.000000
usemtl Mesh_0149.rip
f 10/1/1 11/2/2 12/3/3
f 11/2/2 13/4/4 12/3/3
f 12/3/3 13/4/4 14/5/5
f 13/4/4 15/2/6 14/5/5
f 14/5/5 15/2/6 72/3/7
f 15/2/6 90/6/8 72/3/7
f 72/3/7 90/6/8 16/1/9
f 90/6/8 107/7/10 16/1/9
f 16/1/9 107/7/10 17/8/11
f 107/7/10 105/9/12 17/8/11
f 17/8/11 105/9/12 58/10/13
f 105/9/12 103/11/14 58/10/13
f 58/10/13 103/11/14 60/12/15
f 103/11/14 101/13/16 60/12/15
f 60/12/15 101/13/16 18/14/17
f 101/13/16 99/15/18 18/14/17
f 18/14/17 99/15/18 19/16/19
f 99/15/18 97/17/20 19/16/19
f 19/16/19 97/17/20 62/18/21
f 97/17/20 20/19/22 62/18/21
f 62/18/21 20/19/22 21/20/23
f 20/19/22 95/21/24 21/20/23
f 21/20/23 95/21/24 64/14/25
f 95/21/24 22/11/26 64/14/25
f 64/14/25 22/11/26 66/12/27
f 22/11/26 94/9/28 66/12/27
f 66/12/27 94/9/28 23/22/29
f 94/9/28 92/23/30 23/22/29
f 23/22/29 92/23/30 69/8/31
f 92/23/30 91/6/32 69/8/31
f 69/8/31 91/6/32 10/1/1
f 91/6/32 11/2/2 10/1/1
f 55/24/33 37/25/34 53/26/35
f 37/25/34 24/27/36 53/26/35
f 53/26/35 24/27/36 52/28/37
f 24/27/36 93/29/38 52/28/37
f 52/28/37 93/29/38 25/30/39
f 93/29/38 26/31/40 25/30/39
f 25/30/39 26/31/40 50/32/41
f 26/31/40 27/33/42 50/32/41
f 50/32/41 27/33/42 28/34/43
f 27/33/42 29/35/44 28/34/43
f 28/34/43 29/35/44 30/36/45
f 29/35/44 96/37/46 30/36/45
f 30/36/45 96/37/46 47/38/47
f 96/37/46 98/39/48 47/38/47
f 47/38/47 98/39/48 45/40/49
f 98/39/48 100/37/50 45/40/49
f 45/40/49 100/37/50 31/38/51
f 100/37/50 102/35/52 31/38/51
f 31/38/51 102/35/52 32/41/53
f 102/35/52 104/42/54 32/41/53
f 32/41/53 104/42/54 44/34/55
f 104/42/54 106/43/56 44/34/55
f 44/34/55 106/43/56 43/32/57
f 106/43/56 89/29/58 43/32/57
f 43/32/57 89/29/58 33/44/59
f 89/29/58 34/27/60 33/44/59
f 33/44/59 34/27/60 40/45/61
f 34/27/60 35/25/62 40/45/61
f 40/45/61 35/25/62 39/26/63
f 35/25/62 36/46/64 39/26/63
f 39/26/63 36/46/64 55/24/33
f 36/46/64 37/25/34 55/24/33
f 55/24/33 38/47/65 39/26/63
f 38/47/65 73/48/66 39/26/63
f 39/26/63 73/48/66 40/45/61
f 73/48/66 41/49/67 40/45/61
f 40/45/61 41/49/67 33/44/59
f 41/49/67 42/43/68 33/44/59
f 33/44/59 42/43/68 43/32/57
f 42/43/68 87/50/69 43/32/57
f 43/32/57 87/50/69 44/34/55
f 87/50/69 86/51/70 44/34/55
f 44/34/55 86/51/70 32/41/53
f 86/51/70 85/52/71 32/41/53
f 32/41/53 85/52/71 31/38/51
f 85/52/71 83/53/72 31/38/51
f 31/38/51 83/53/72 45/40/49
f 83/53/72 46/54/73 45/40/49
f 45/40/49 46/54/73 47/38/47
f 46/54/73 48/51/74 47/38/47
f 47/38/47 48/51/74 30/36/45
f 48/51/74 79/50/75 30/36/45
f 30/36/45 79/50/75 28/34/43
f 79/50/75 49/31/76 28/34/43
f 28/34/43 49/31/76 50/32/41
f 49/31/76 78/49/77 50/32/41
f 50/32/41 78/49/77 25/30/39
f 78/49/77 51/48/78 25/30/39
f 25/30/39 51/48/78 52/28/37
f 51/48/78 76/55/79 52/28/37
f 52/28/37 76/55/79 53/26/35
f 76/55/79 54/56/80 53/26/35
f 53/26/35 54/56/80 55/24/33
f 54/56/80 38/47/65 55/24/33
f 71/57/81 72/3/7 118/58/82
f 72/3/7 16/1/9 118/58/82
f 118/58/82 16/1/9 56/59/83
f 16/1/9 17/8/11 56/59/83
f 56/59/83 17/8/11 57/60/84
f 17/8/11 58/10/13 57/60/84
f 57/60/84 58/10/13 59/61/85
f 58/10/13 60/12/15 59/61/85
f 59/61/85 60/12/15 61/62/86
f 60/12/15 18/14/17 61/62/86
f 61/62/86 18/14/17 109/63/87
f 18/14/17 19/16/19 109/63/87
f 109/63/87 19/16/19 111/64/88
f 19/16/19 62/18/21 111/64/88
f 111/64/88 62/18/21 63/65/89
f 62/18/21 21/20/23 63/65/89
f 63/65/89 21/20/23 112/64/90
f 21/20/23 64/14/25 112/64/90
f 112/64/90 64/14/25 65/66/91
f 64/14/25 66/12/27 65/66/91
f 65/66/91 66/12/27 67/67/92
f 66/12/27 23/22/29 67/67/92
f 67/67/92 23/22/29 68/61/93
f 23/22/29 69/8/31 68/61/93
f 68/61/93 69/8/31 114/68/94
f 69/8/31 10/1/1 114/68/94
f 114/68/94 10/1/1 70/69/95
f 10/1/1 12/3/3 70/69/95
f 70/69/95 12/3/3 117/58/96
f 12/3/3 14/5/5 117/58/96
f 117/58/96 14/5/5 71/57/81
f 14/5/5 72/3/7 71/57/81
f 127/70/26 73/48/66 74/71/24
f 73/48/66 38/47/65 74/71/24
f 74/71/24 38/47/65 128/72/22
f 38/47/65 54/56/80 128/72/22
f 128/72/22 54/56/80 75/73/20
f 54/56/80 76/55/79 75/73/20
f 75/73/20 76/55/79 130/72/18
f 76/55/79 51/48/78 130/72/18
f 130/72/18 51/48/78 77/74/16
f 51/48/78 78/49/77 77/74/16
f 77/74/16 78/49/77 132/70/14
f 78/49/77 49/31/76 132/70/14
f 132/70/14 49/31/76 133/9/12
f 49/31/76 79/50/75 133/9/12
f 133/9/12 79/50/75 80/75/10
f 79/50/75 48/51/74 80/75/10
f 80/75/10 48/51/74 81/76/8
f 48/51/74 46/54/73 81/76/8
f 81/76/8 46/54/73 82/77/6
f 46/54/73 83/53/72 82/77/6
f 82/77/6 83/53/72 84/78/97
f 83/53/72 85/52/71 84/78/97
f 84/78/97 85/52/71 137/77/2
f 85/52/71 86/51/70 137/77/2
f 137/77/2 86/51/70 123/79/32
f 86/51/70 87/50/69 123/79/32
f 123/79/32 87/50/69 124/80/30
f 87/50/69 42/43/68 124/80/30
f 124/80/30 42/43/68 88/9/28
f 42/43/68 41/49/67 88/9/28
f 88/9/28 41/49/67 127/70/26
f 41/49/67 73/48/66 127/70/26
f 89/29/58 90/6/8 34/27/60
f 90/6/8 15/2/6 34/27/60
f 34/27/60 15/2/6 35/25/62
f 15/2/6 13/4/4 35/25/62
f 35/25/62 13/4/4 36/46/64
f 13/4/4 11/2/2 36/46/64
f 36/46/64 11/2/2 37/25/34
f 11/2/2 91/6/32 37/25/34
f 37/25/34 91/6/32 24/27/36
f 91/6/32 92/23/30 24/27/36
f 24/27/36 92/23/30 93/29/38
f 92/23/30 94/9/28 93/29/38
f 93/29/38 94/9/28 26/31/40
f 94/9/28 22/11/26 26/31/40
f 26/31/40 22/11/26 27/33/42
f 22/11/26 95/21/24 27/33/42
f 27/33/42 95/21/24 29/35/44
f 95/21/24 20/19/22 29/35/44
f 29/35/44 20/19/22 96/37/46
f 20/19/22 97/17/20 96/37/46
f 96/37/46 97/17/20 98/39/48
f 97/17/20 99/15/18 98/39/48
f 98/39/48 99/15/18 100/37/50
f 99/15/18 101/13/16 100/37/50
f 100/37/50 101/13/16 102/35/52
f 101/13/16 103/11/14 102/35/52
f 102/35/52 103/11/14 104/42/54
f 103/11/14 105/9/12 104/42/54
f 104/42/54 105/9/12 106/43/56
f 105/9/12 107/7/10 106/43/56
f 106/43/56 107/7/10 89/29/58
f 107/7/10 90/6/8 89/29/58
f 108/81/98 59/61/85 126/10/99
f 59/61/85 61/62/86 126/10/99
f 126/10/99 61/62/86 125/82/100
f 61/62/86 109/63/87 125/82/100
f 125/82/100 109/63/87 110/83/101
f 109/63/87 111/64/88 110/83/101
f 110/83/101 111/64/88 122/84/102
f 111/64/88 63/65/89 122/84/102
f 122/84/102 63/65/89 121/85/103
f 63/65/89 112/64/90 121/85/103
f 121/85/103 112/64/90 136/86/104
f 112/64/90 65/66/91 136/86/104
f 136/86/104 65/66/91 135/87/105
f 65/66/91 67/67/92 135/87/105
f 135/87/105 67/67/92 134/82/106
f 67/67/92 68/61/93 134/82/106
f 134/82/106 68/61/93 113/22/107
f 68/61/93 114/68/94 113/22/107
f 113/22/107 114/68/94 115/81/108
f 114/68/94 70/69/95 115/81/108
f 115/81/108 70/69/95 116/88/109
f 70/69/95 117/58/96 116/88/109
f 116/88/109 117/58/96 131/89/110
f 117/58/96 71/57/81 131/89/110
f 131/89/110 71/57/81 129/90/111
f 71/57/81 118/58/82 129/90/111
f 129/90/111 118/58/82 119/91/112
f 118/58/82 56/59/83 119/91/112
f 119/91/112 56/59/83 120/88/113
f 56/59/83 57/60/84 120/88/113
f 120/88/113 57/60/84 108/81/98
f 57/60/84 59/61/85 108/81/98
f 121/85/103 137/77/2 122/84/102
f 137/77/2 123/79/32 122/84/102
f 122/84/102 123/79/32 110/83/101
f 123/79/32 124/80/30 110/83/101
f 110/83/101 124/80/30 125/82/100
f 124/80/30 88/9/28 125/82/100
f 125/82/100 88/9/28 126/10/99
f 88/9/28 127/70/26 126/10/99
f 126/10/99 127/70/26 108/81/98
f 127/70/26 74/71/24 108/81/98
f 108/81/98 74/71/24 120/88/113
f 74/71/24 128/72/22 120/88/113
f 120/88/113 128/72/22 119/91/112
f 128/72/22 75/73/20 119/91/112
f 119/91/112 75/73/20 129/90/111
f 75/73/20 130/72/18 129/90/111
f 129/90/111 130/72/18 131/89/110
f 130/72/18 77/74/16 131/89/110
f 131/89/110 77/74/16 116/88/109
f 77/74/16 132/70/14 116/88/109
f 116/88/109 132/70/14 115/81/108
f 132/70/14 133/9/12 115/81/108
f 115/81/108 133/9/12 113/22/107
f 133/9/12 80/75/10 113/22/107
f 113/22/107 80/75/10 134/82/106
f 80/75/10 81/76/8 134/82/106
f 134/82/106 81/76/8 135/87/105
f 81/76/8 82/77/6 135/87/105
f 135/87/105 82/77/6 136/86/104
f 82/77/6 84/78/97 136/86/104
f 136/86/104 84/78/97 121/85/103
f 84/78/97 137/77/2 121/85/103
usemtl Mesh_0150.rip
f 1/92/114 7/93/114 6/94/114
f 1/92/114 3/93/114 2/94/114
f 3/93/114 1/92/114 4/94/115
f 4/94/115 1/92/114 5/93/114
f 1/92/114 6/94/114 5/93/114
f 7/93/114 1/92/114 8/94/115
f 8/94/115 1/92/114 9/93/114
f 1/92/114 2/94/114 9/93/114
