mtllib SkyClouds.mtl
v -3880.749023 2179.897217 -1028.465698
v -4005.316162 2179.896973 -240.609299
v -4005.315674 2684.046631 -240.609207
v -3880.748535 2684.046631 -1028.465576
v -2555.905029 2801.045898 -3144.159180
v -2555.905518 2325.895996 -3144.159180
v -1903.199341 2325.895264 -3587.593750
v -1903.198853 2801.045166 -3587.593750
v -3848.152588 2143.747314 -1144.407715
v -3737.501465 1873.597290 -1482.860107
v -3848.152832 1873.597412 -1144.407715
v -3737.501221 2143.747070 -1482.860107
v -527.536072 1939.744019 -4035.102051
v -147.720200 1669.593872 -4064.602051
v -527.536316 1669.594116 -4035.102051
v -147.719925 1939.743774 -4064.602051
v -1924.082764 1996.637085 -3543.576416
v -1620.048950 1996.636841 -3699.410156
v -1924.082520 2266.786621 -3543.576172
v -1620.048706 2266.786133 -3699.409912
v -1028.465332 2179.895264 3880.749756
v -240.609009 2179.895264 4005.316650
v -240.609009 2684.044922 4005.316650
v -1028.465332 2684.044922 3880.749756
v -3144.159180 2801.044434 2555.906250
v -3144.159180 2325.894531 2555.906738
v -3587.593994 2325.894287 1903.200562
v -3587.593994 2801.044189 1903.200195
v -1144.407471 2143.745361 3848.153076
v -1482.859863 1873.595581 3737.502197
v -1144.407471 1873.595581 3848.153320
v -1482.859863 2143.745605 3737.501953
v -4035.102295 1939.743286 527.537170
v -4064.602295 1669.593140 147.721283
v -4035.102295 1669.593384 527.537354
v -4064.602295 1939.743042 147.721115
v -3543.576416 1996.635620 1924.083984
v -3699.410156 1996.635498 1620.050171
v -3543.576416 2266.785400 1924.083740
v -3699.410156 2266.785156 1620.049927
v 3880.750000 2179.894775 1028.464600
v 4005.316650 2179.895020 240.608215
v 4005.316406 2684.044922 240.608307
v 3880.749756 2684.044434 1028.464722
v 2555.906982 2801.043701 3144.158936
v 2555.907227 2325.893799 3144.158936
v 1903.201538 2325.893555 3587.593750
v 1903.201294 2801.043457 3587.593750
v 3848.153564 2143.744873 1144.406738
v 3737.502686 1873.594971 1482.859131
v 3848.153809 1873.595093 1144.406738
v 3737.502441 2143.744873 1482.859131
v 527.538269 1939.742554 4035.102295
v 147.722305 1669.592407 4064.602539
v 527.538391 1669.592651 4035.102295
v 147.722153 1939.742310 4064.602539
v 1924.084839 1996.635010 3543.575928
v 1620.051147 1996.634888 3699.409912
v 1924.084595 2266.784668 3543.576172
v 1620.050903 2266.784424 3699.410156
v 1028.464111 2179.894775 -3880.750000
v 240.607697 2179.894775 -4005.316650
v 240.607697 2684.044678 -4005.316406
v 1028.464111 2684.044434 -3880.749756
v 3144.158447 2801.043945 -2555.907227
v 3144.158447 2325.894043 -2555.907227
v 3587.593262 2325.893799 -1903.201660
v 3587.593262 2801.043701 -1903.201294
v 1144.406250 2143.744873 -3848.153809
v 1482.858643 1873.594971 -3737.502686
v 1144.406250 1873.595093 -3848.153809
v 1482.858643 2143.744629 -3737.502686
v 4035.102051 1939.743286 -527.538330
v 4064.602295 1669.593018 -147.722366
v 4035.102051 1669.593384 -527.538513
v 4064.602295 1939.742920 -147.722229
v 3543.575684 1996.635498 -1924.084717
v 3699.409668 1996.635254 -1620.051025
v 3543.575684 2266.784912 -1924.084717
v 3699.409668 2266.784912 -1620.051025
v -350.680023 2597.043701 -4052.139893
v -350.680634 2004.893799 -4052.140137
v -927.737976 2597.044434 -3962.278076
v -927.738647 2004.894409 -3962.278320
v -1484.708496 2597.045166 -3786.618164
v -1484.709106 2004.894897 -3786.618408
v -3766.410156 2413.896973 -1407.818481
v -3766.409668 3006.046631 -1407.818359
v -3506.306885 2413.896729 -1987.010620
v -3506.306396 3006.046387 -1987.010498
v -3161.362305 2413.896484 -2517.177490
v -3161.361816 3006.046387 -2517.177490
v -2555.905518 2231.746094 -3144.159180
v -2555.906006 1639.595947 -3144.159180
v -3031.604980 2231.746582 -2672.034668
v -3031.605469 1639.596436 -2672.034668
v -3424.043457 2231.746826 -2125.636475
v -3424.043945 1639.596680 -2125.636475
v -4052.140137 2597.042969 350.681488
v -4052.140137 2004.893066 350.681885
v -3962.278320 2597.043213 927.739502
v -3962.278320 2004.893433 927.739807
v -3786.618408 2597.043701 1484.709839
v -3786.618408 2004.893799 1484.710327
v -1407.818237 2413.895264 3766.411133
v -1407.818237 3006.044678 3766.410889
v -1987.010376 2413.895020 3506.307861
v -1987.010376 3006.044922 3506.307617
v -2517.177490 2413.895020 3161.363525
v -2517.177490 3006.044434 3161.363281
v -3144.158936 2231.744629 2555.906494
v -3144.158936 1639.594482 2555.906982
v -2672.034424 2231.744873 3031.605713
v -2672.034424 1639.594727 3031.606201
v -2125.636230 2231.745117 3424.044189
v -2125.636230 1639.594849 3424.044678
v 350.682556 2597.042236 4052.140625
v 350.682892 2004.892456 4052.140381
v 927.740540 2597.042480 3962.278564
v 927.740845 2004.892700 3962.278320
v 1484.710938 2597.042725 3786.618408
v 1484.711304 2004.893066 3786.618164
v 3766.411621 2413.894775 1407.817505
v 3766.411133 3006.044189 1407.817627
v 3506.308594 2413.894531 1987.009766
v 3506.308105 3006.044189 1987.009888
v 3161.364258 2413.894043 2517.177246
v 3161.363770 3006.043945 2517.177246
v 2555.907227 2231.743896 3144.158447
v 2555.907715 1639.593750 3144.158447
v 3031.606689 2231.744141 2672.033936
v 3031.607178 1639.593994 2672.033936
v 3424.044922 2231.744629 2125.635498
v 3424.045410 1639.594360 2125.635498
v 4052.140137 2597.042969 -350.682678
v 4052.140137 2004.892944 -350.682983
v 3962.278076 2597.043213 -927.740662
v 3962.278076 2004.893188 -927.740967
v 3786.617920 2597.043457 -1484.711060
v 3786.617920 2004.893555 -1484.711182
v 1407.817017 2413.894775 -3766.411377
v 1407.817017 3006.044434 -3766.411133
v 1987.009277 2413.894531 -3506.308350
v 1987.009277 3006.043945 -3506.308105
v 2517.176514 2413.894287 -3161.364014
v 2517.176514 3006.043945 -3161.363770
v 3144.158203 2231.744141 -2555.907471
v 3144.158203 1639.593994 -2555.907715
v 2672.033447 2231.744385 -3031.606689
v 2672.033447 1639.594238 -3031.606934
v 2125.635010 2231.744629 -3424.044922
v 2125.635010 1639.594482 -3424.045166
vt 0.000000 0.000000
vt 1.003922 -0.560784
vt 0.000000 -0.560784
vt 1.003922 0.000000
vt 0.000000 -0.631373
vt 1.003922 -0.960784
vt 0.000000 -0.960784
vt 1.003922 -0.631373
vt 0.752941 -0.396078
vt 1.003922 -0.584314
vt 0.752941 -0.584314
vt 1.003922 -0.396078
vt 0.752941 -0.396078
vt 1.003922 -0.584314
vt 0.752941 -0.584314
vt 1.003922 -0.396078
vt 0.752941 -0.396078
vt 1.003922 -0.584314
vt 0.752941 -0.584314
vt 1.003922 -0.396078
vt 0.000000 0.000000
vt 1.003922 -0.560784
vt 0.000000 -0.560784
vt 1.003922 0.000000
vt 0.000000 -0.631373
vt 1.003922 -0.960784
vt 0.000000 -0.960784
vt 1.003922 -0.631373
vt 0.752941 -0.396078
vt 1.003922 -0.584314
vt 0.752941 -0.584314
vt 1.003922 -0.396078
vt 0.752941 -0.396078
vt 1.003922 -0.584314
vt 0.752941 -0.584314
vt 1.003922 -0.396078
vt 0.752941 -0.396078
vt 1.003922 -0.584314
vt 0.752941 -0.584314
vt 1.003922 -0.396078
vt 0.000000 0.000000
vt 1.003922 -0.560784
vt 0.000000 -0.560784
vt 1.003922 0.000000
vt 0.000000 -0.631373
vt 1.003922 -0.960784
vt 0.000000 -0.960784
vt 1.003922 -0.631373
vt 0.752941 -0.396078
vt 1.003922 -0.584314
vt 0.752941 -0.584314
vt 1.003922 -0.396078
vt 0.752941 -0.396078
vt 1.003922 -0.584314
vt 0.752941 -0.584314
vt 1.003922 -0.396078
vt 0.752941 -0.396078
vt 1.003922 -0.584314
vt 0.752941 -0.584314
vt 1.003922 -0.396078
vt 0.000000 0.000000
vt 1.003922 -0.560784
vt 0.000000 -0.560784
vt 1.003922 0.000000
vt 0.000000 -0.631373
vt 1.003922 -0.960784
vt 0.000000 -0.960784
vt 1.003922 -0.631373
vt 0.752941 -0.396078
vt 1.003922 -0.584314
vt 0.752941 -0.584314
vt 1.003922 -0.396078
vt 0.752941 -0.396078
vt 1.003922 -0.584314
vt 0.752941 -0.584314
vt 1.003922 -0.396078
vt 0.752941 -0.396078
vt 1.003922 -0.584314
vt 0.752941 -0.584314
vt 1.003922 -0.396078
vt 1.003922 0.000000
vt 1.003922 -0.584314
vt 0.501961 0.000000
vt 0.501961 -0.584314
vt 0.000000 0.000000
vt 0.000000 -0.584314
vt 0.000000 -0.592157
vt 0.000000 0.000000
vt 0.501961 -0.592157
vt 0.501961 0.000000
vt 1.003922 -0.592157
vt 1.003922 0.000000
vt 1.003922 -0.623529
vt 1.003922 -0.976471
vt 0.501961 -0.623529
vt 0.501961 -0.976471
vt 0.000000 -0.623529
vt 0.000000 -0.976471
vt 1.003922 0.000000
vt 1.003922 -0.584314
vt 0.501961 0.000000
vt 0.501961 -0.584314
vt 0.000000 0.000000
vt 0.000000 -0.584314
vt 0.000000 -0.592157
vt 0.000000 0.000000
vt 0.501961 -0.592157
vt 0.501961 0.000000
vt 1.003922 -0.592157
vt 1.003922 0.000000
vt 1.003922 -0.623529
vt 1.003922 -0.976471
vt 0.501961 -0.623529
vt 0.501961 -0.976471
vt 0.000000 -0.623529
vt 0.000000 -0.976471
vt 1.003922 0.000000
vt 1.003922 -0.584314
vt 0.501961 0.000000
vt 0.501961 -0.584314
vt 0.000000 0.000000
vt 0.000000 -0.584314
vt 0.000000 -0.592157
vt 0.000000 0.000000
vt 0.501961 -0.592157
vt 0.501961 0.000000
vt 1.003922 -0.592157
vt 1.003922 0.000000
vt 1.003922 -0.623529
vt 1.003922 -0.976471
vt 0.501961 -0.623529
vt 0.501961 -0.976471
vt 0.000000 -0.623529
vt 0.000000 -0.976471
vt 1.003922 0.000000
vt 1.003922 -0.584314
vt 0.501961 0.000000
vt 0.501961 -0.584314
vt 0.000000 0.000000
vt 0.000000 -0.584314
vt 0.000000 -0.592157
vt 0.000000 0.000000
vt 0.501961 -0.592157
vt 0.501961 0.000000
vt 1.003922 -0.592157
vt 1.003922 0.000000
vt 1.003922 -0.623529
vt 1.003922 -0.976471
vt 0.501961 -0.623529
vt 0.501961 -0.976471
vt 0.000000 -0.623529
vt 0.000000 -0.976471
vn -0.9877 0.0000 -0.1562
vn -0.5620 0.0000 -0.8272
vn -0.9505 0.0000 -0.3107
vn -0.0774 0.0000 -0.9970
vn -0.4561 0.0000 -0.8899
vn -0.1562 0.0000 0.9877
vn -0.8272 0.0000 0.5620
vn -0.3107 0.0000 0.9505
vn -0.9970 0.0000 0.0774
vn -0.8899 0.0000 0.4561
vn 0.9877 0.0000 0.1562
vn 0.5620 0.0000 0.8272
vn 0.9505 0.0000 0.3107
vn 0.0774 0.0000 0.9970
vn 0.4561 -0.0000 0.8899
vn 0.1562 0.0000 -0.9877
vn 0.8272 0.0000 -0.5620
vn 0.3107 0.0000 -0.9505
vn 0.9970 0.0000 -0.0774
vn 0.8899 0.0000 -0.4561
vn -0.1539 0.0000 -0.9881
vn -0.2280 0.0000 -0.9737
vn -0.3008 0.0000 -0.9537
vn -0.9122 0.0000 -0.4097
vn -0.8778 0.0000 -0.4789
vn -0.8382 0.0000 -0.5454
vn -0.7044 0.0000 -0.7098
vn -0.7610 0.0000 -0.6488
vn -0.8122 0.0000 -0.5834
vn -0.9881 0.0000 0.1539
vn -0.9737 0.0000 0.2280
vn -0.9537 0.0000 0.3008
vn -0.4097 0.0000 0.9122
vn -0.4789 0.0000 0.8778
vn -0.5454 0.0000 0.8382
vn -0.7098 0.0000 0.7044
vn -0.6488 0.0000 0.7610
vn -0.5834 0.0000 0.8122
vn 0.1539 -0.0000 0.9881
vn 0.2280 -0.0000 0.9737
vn 0.3008 -0.0000 0.9537
vn 0.9122 0.0000 0.4097
vn 0.8778 0.0000 0.4789
vn 0.8382 0.0000 0.5454
vn 0.7044 0.0000 0.7098
vn 0.7610 0.0000 0.6488
vn 0.8122 0.0000 0.5834
vn 0.9881 0.0000 -0.1539
vn 0.9737 0.0000 -0.2280
vn 0.9537 0.0000 -0.3008
vn 0.4097 0.0000 -0.9122
vn 0.4789 0.0000 -0.8778
vn 0.5454 0.0000 -0.8382
vn 0.7098 0.0000 -0.7044
vn 0.6488 0.0000 -0.7610
vn 0.5834 0.0000 -0.8122
usemtl Mesh_0114.rip
f 3/1/1 1/2/1 2/3/1
f 1/2/1 3/1/1 4/4/1
f 5/5/2 7/6/2 6/7/2
f 7/6/2 5/5/2 8/8/2
f 9/9/3 10/10/3 11/11/3
f 10/10/3 9/9/3 12/12/3
f 13/13/4 14/14/4 15/15/4
f 14/14/4 13/13/4 16/16/4
f 19/17/5 18/18/5 17/19/5
f 18/18/5 19/17/5 20/20/5
f 23/21/6 21/22/6 22/23/6
f 21/22/6 23/21/6 24/24/6
f 25/25/7 27/26/7 26/27/7
f 27/26/7 25/25/7 28/28/7
f 29/29/8 30/30/8 31/31/8
f 30/30/8 29/29/8 32/32/8
f 33/33/9 34/34/9 35/35/9
f 34/34/9 33/33/9 36/36/9
f 39/37/10 38/38/10 37/39/10
f 38/38/10 39/37/10 40/40/10
f 43/41/11 41/42/11 42/43/11
f 41/42/11 43/41/11 44/44/11
f 45/45/12 47/46/12 46/47/12
f 47/46/12 45/45/12 48/48/12
f 49/49/13 50/50/13 51/51/13
f 50/50/13 49/49/13 52/52/13
f 53/53/14 54/54/14 55/55/14
f 54/54/14 53/53/14 56/56/14
f 59/57/15 58/58/15 57/59/15
f 58/58/15 59/57/15 60/60/15
f 63/61/16 61/62/16 62/63/16
f 61/62/16 63/61/16 64/64/16
f 65/65/17 67/66/17 66/67/17
f 67/66/17 65/65/17 68/68/17
f 69/69/18 70/70/18 71/71/18
f 70/70/18 69/69/18 72/72/18
f 73/73/19 74/74/19 75/75/19
f 74/74/19 73/73/19 76/76/19
f 79/77/20 78/78/20 77/79/20
f 78/78/20 79/77/20 80/80/20
f 81/81/21 82/82/21 83/83/22
f 82/82/21 84/84/22 83/83/22
f 83/83/22 84/84/22 85/85/23
f 84/84/22 86/86/23 85/85/23
f 87/87/24 88/88/24 89/89/25
f 88/88/24 90/90/25 89/89/25
f 89/89/25 90/90/25 91/91/26
f 90/90/25 92/92/26 91/91/26
f 93/93/27 94/94/27 95/95/28
f 94/94/27 96/96/28 95/95/28
f 95/95/28 96/96/28 97/97/29
f 96/96/28 98/98/29 97/97/29
f 99/99/30 100/100/30 101/101/31
f 100/100/30 102/102/31 101/101/31
f 101/101/31 102/102/31 103/103/32
f 102/102/31 104/104/32 103/103/32
f 105/105/33 106/106/33 107/107/34
f 106/106/33 108/108/34 107/107/34
f 107/107/34 108/108/34 109/109/35
f 108/108/34 110/110/35 109/109/35
f 111/111/36 112/112/36 113/113/37
f 112/112/36 114/114/37 113/113/37
f 113/113/37 114/114/37 115/115/38
f 114/114/37 116/116/38 115/115/38
f 117/117/39 118/118/39 119/119/40
f 118/118/39 120/120/40 119/119/40
f 119/119/40 120/120/40 121/121/41
f 120/120/40 122/122/41 121/121/41
f 123/123/42 124/124/42 125/125/43
f 124/124/42 126/126/43 125/125/43
f 125/125/43 126/126/43 127/127/44
f 126/126/43 128/128/44 127/127/44
f 129/129/45 130/130/45 131/131/46
f 130/130/45 132/132/46 131/131/46
f 131/131/46 132/132/46 133/133/47
f 132/132/46 134/134/47 133/133/47
f 135/135/48 136/136/48 137/137/49
f 136/136/48 138/138/49 137/137/49
f 137/137/49 138/138/49 139/139/50
f 138/138/49 140/140/50 139/139/50
f 141/141/51 142/142/51 143/143/52
f 142/142/51 144/144/52 143/143/52
f 143/143/52 144/144/52 145/145/53
f 144/144/52 146/146/53 145/145/53
f 147/147/54 148/148/54 149/149/55
f 148/148/54 150/150/55 149/149/55
f 149/149/55 150/150/55 151/151/56
f 150/150/55 152/152/56 151/151/56
