# Blender v2.79 (sub 0) OBJ File: ''
# www.blender.org
mtllib Emerald.mtl
v -1.497499 0.122341 -1.497499
v 0.000000 -1.865347 -1.093699
v -1.093699 -1.865347 -0.000000
v 0.000000 -3.857109 -0.000002
v -1.497499 0.122341 1.497499
v 0.000000 1.134215 -2.094018
v -0.973680 2.330897 -0.973680
v 0.000000 2.630154 -1.470124
v 0.000000 3.904739 0.000002
v -2.094018 1.134215 0.000000
v -1.470123 2.630154 0.000000
v 1.093699 -1.865347 -0.000000
v 1.497499 0.122341 -1.497499
v -0.973680 2.330897 0.973680
v 0.000000 -1.865347 1.093699
v 0.000000 1.134215 2.094018
v 0.000000 2.630154 1.470124
v 1.497499 0.122341 1.497499
v 0.973680 2.330897 0.973680
v 2.094018 1.134215 0.000000
v 1.470123 2.630154 0.000000
v 0.973680 2.330897 -0.973680
vt 0.443443 0.002002
vt 0.443443 0.248999
vt 0.224224 0.248999
vt 0.887888 0.248999
vt 0.887888 0.002002
vt 0.668669 0.248999
vt 0.221221 0.998999
vt 0.002002 0.998999
vt 0.221221 0.752002
vt 0.443443 0.498999
vt 0.224224 0.498999
vt 0.443443 0.252002
vt 0.887888 0.998999
vt 0.887888 0.877002
vt 0.668669 0.998999
vt 0.221221 0.252002
vt 0.002002 0.498999
vt 0.221221 0.498999
vt 0.887888 0.627002
vt 0.887888 0.873999
vt 0.779780 0.873999
vt 0.665666 0.498999
vt 0.446446 0.498999
vt 0.665666 0.252002
vt 0.665666 0.998999
vt 0.665666 0.877002
vt 0.446446 0.998999
vt 0.443443 0.502002
vt 0.224224 0.748999
vt 0.443443 0.748999
vt 0.887888 0.623999
vt 0.887888 0.502002
vt 0.668669 0.623999
vt 0.221221 0.248999
vt 0.002002 0.248999
vt 0.221221 0.002002
vt 0.221221 0.748999
vt 0.002002 0.748999
vt 0.221221 0.502002
vt 0.665666 0.248999
vt 0.446446 0.248999
vt 0.665666 0.002002
vt 0.443443 0.752002
vt 0.224224 0.998999
vt 0.443443 0.998999
vt 0.446446 0.873999
vt 0.665666 0.873999
vt 0.665666 0.752002
vt 0.667668 0.247998
vt 0.886887 0.001001
vt 0.667668 0.001001
vt 0.776777 0.627002
vt 0.776777 0.873999
vt 0.668669 0.873999
vt 0.665666 0.748999
vt 0.446446 0.748999
vt 0.665666 0.502002
vt 0.998999 0.248999
vt 0.890891 0.248999
vt 0.998999 0.002002
vt 0.887888 0.252002
vt 0.668669 0.498999
vt 0.887888 0.498999
vt 0.223223 0.001001
vt 0.442442 0.001001
vt 0.223223 0.247998
vt 0.001001 0.747998
vt 0.220220 0.501001
vt 0.001001 0.501001
vt 0.445445 0.497998
vt 0.664665 0.251001
vt 0.445445 0.251001
vt 0.001001 0.997998
vt 0.220220 0.751001
vt 0.001001 0.751001
vt 0.445445 0.872998
vt 0.445445 0.751001
vt 0.664665 0.751001
vt 0.997998 0.001001
vt 0.889890 0.001001
vt 0.889890 0.247998
vt 0.667668 0.497998
vt 0.886887 0.251001
vt 0.667668 0.251001
vt 0.442442 0.751001
vt 0.223223 0.997998
vt 0.223223 0.751001
vt 0.001001 0.247998
vt 0.220220 0.001001
vt 0.001001 0.001001
vt 0.667668 0.622998
vt 0.667668 0.501001
vt 0.886887 0.501001
vt 0.445445 0.747998
vt 0.664665 0.501001
vt 0.445445 0.501001
vt 0.223223 0.501001
vt 0.442442 0.501001
vt 0.223223 0.747998
vt 0.775776 0.626001
vt 0.667668 0.626001
vt 0.667668 0.872998
vt 0.445445 0.247998
vt 0.445445 0.001001
vt 0.664665 0.001001
vt 0.664665 0.876001
vt 0.445445 0.997998
vt 0.445445 0.876001
vt 0.223223 0.497998
vt 0.442442 0.251001
vt 0.223223 0.251001
vt 0.886887 0.626001
vt 0.778779 0.626001
vt 0.778779 0.872998
vt 0.001001 0.251001
vt 0.220220 0.251001
vt 0.001001 0.497998
vt 0.667668 0.997998
vt 0.667668 0.876001
vt 0.886887 0.876001
vn -0.5857 -0.5603 -0.5857
vn -0.6592 -0.3620 -0.6592
vn -0.8131 -0.4465 0.3734
vn -0.5261 0.3124 -0.7909
vn -0.4927 0.6575 -0.5700
vn -0.9361 -0.3122 -0.1620
vn -0.7953 0.3317 -0.5074
vn 0.8131 -0.4465 -0.3734
vn -0.5700 0.6575 0.4927
vn -0.1620 -0.3122 0.9361
vn -0.5074 0.3317 0.7953
vn -0.7045 0.0863 0.7045
vn 0.3734 -0.4465 0.8131
vn 0.5261 0.3124 0.7909
vn 0.9361 -0.3122 0.1620
vn 0.7953 0.3317 0.5074
vn 0.4692 0.7482 0.4692
vn 0.5074 0.3317 -0.7953
vn 0.7909 0.3124 -0.5261
vn 0.5700 0.6575 -0.4927
vn 0.1620 -0.3122 -0.9361
vn -0.1620 -0.3122 -0.9361
vn 0.8131 -0.4465 0.3734
vn -0.3734 -0.4465 0.8131
vn 0.3734 -0.4465 -0.8131
vn 0.5074 0.3317 0.7953
vn -0.5700 0.6575 -0.4927
vn -0.5984 0.5328 0.5984
vn -0.9361 -0.3122 0.1620
vn 0.7909 0.3124 0.5261
vn 0.7953 0.3317 -0.5074
vn 0.5261 0.3124 -0.7909
vn 0.1620 -0.3122 0.9361
vn -0.5074 0.3317 -0.7953
vn 0.5480 0.6320 0.5480
vn -0.4927 0.6575 0.5700
vn -0.7909 0.3124 -0.5261
vn -0.7953 0.3317 0.5074
vn 0.9361 -0.3122 -0.1620
vn 0.4927 0.6575 -0.5700
usemtl emerald
s 1
f 1/1/1 2/2/1 3/3/1
f 2/4/2 4/5/2 3/6/2
f 3/7/3 4/8/3 5/9/3
f 6/10/4 1/11/4 7/12/4
f 8/13/5 7/14/5 9/15/5
f 3/16/6 10/17/6 1/18/6
f 10/19/7 11/20/7 7/21/7
f 12/22/8 4/23/8 13/24/8
f 11/25/9 14/26/9 9/27/9
f 15/28/10 16/29/10 5/30/10
f 17/31/11 14/32/11 16/33/11
f 14/34/12 10/35/12 16/36/12
f 15/37/13 4/38/13 18/39/13
f 16/40/14 18/41/14 19/42/14
f 12/43/15 20/44/15 18/45/15
f 20/46/16 21/47/16 19/48/16
f 21/49/17 17/50/17 19/51/17
f 6/52/18 8/53/18 22/54/18
f 20/55/19 13/56/19 22/57/19
f 21/58/20 22/59/20 9/60/20
f 2/61/21 6/62/21 13/63/21
f 1/64/22 6/65/22 2/66/22
f 18/67/23 4/68/23 12/69/23
f 5/70/24 4/71/24 15/72/24
f 13/73/25 4/74/25 2/75/25
f 19/76/26 17/77/26 16/78/26
f 7/79/27 11/80/27 9/81/27
f 16/82/28 10/83/28 5/84/28
f 10/85/29 3/86/29 5/87/29
f 19/88/30 18/89/30 20/90/30
f 22/91/31 21/92/31 20/93/31
f 22/94/32 13/95/32 6/96/32
f 18/97/33 16/98/33 15/99/33
f 7/100/34 8/101/34 6/102/34
f 21/103/35 9/104/35 17/105/35
f 9/106/36 14/107/36 17/108/36
f 7/109/37 1/110/37 10/111/37
f 14/112/38 11/113/38 10/114/38
f 13/115/39 20/116/39 12/117/39
f 22/118/40 8/119/40 9/120/40
