# Blender v2.79 (sub 0) OBJ File: ''
# www.blender.org
mtllib CratePlatformLongCollision.mtl
o Cube
v 10.631070 0.019922 -27.120096
v 10.631070 3.134957 -27.120096
v 10.631070 0.019922 26.251638
v 10.631070 3.134957 26.251638
v -11.489770 0.019922 -31.589270
v -11.489770 3.134957 -31.589270
v -11.489770 0.019922 31.181551
v -11.489770 3.134957 31.181551
v 0.036174 3.134957 -27.120096
v 0.036174 0.019922 -27.120096
v 0.036174 0.019922 -31.553995
v 0.036174 3.134957 -31.553995
v 1.204015 0.019922 31.181551
v 1.204015 3.134957 31.181551
v 1.176060 0.019922 26.251638
v 1.176060 3.134957 26.251638
v -10.464191 23.163790 25.027155
v -10.464191 2.631796 25.027155
v -10.464191 23.163790 4.495161
v -10.464191 2.631796 4.495161
v 10.067802 23.163790 25.027155
v 10.067802 2.631796 25.027155
v 10.067802 23.163790 4.495161
v 10.067802 2.631796 4.495161
vn 1.0000 0.0000 0.0000
vn 0.0000 0.0000 1.0000
vn -1.0000 0.0000 0.0000
vn 0.0000 0.0000 -1.0000
vn 0.0031 0.0000 -1.0000
vn 1.0000 0.0000 -0.0057
vn 0.0000 1.0000 0.0000
vn 0.0000 -1.0000 0.0000
usemtl None
s off
f 2//1 3//1 1//1
f 7//2 14//2 8//2
f 8//3 5//3 7//3
f 4//2 15//2 3//2
f 10//1 12//1 9//1
f 10//4 2//4 1//4
f 6//5 11//5 5//5
f 15//6 14//6 13//6
f 8//7 16//7 9//7
f 19//3 18//3 17//3
f 23//4 20//4 19//4
f 21//1 24//1 23//1
f 17//2 22//2 21//2
f 17//7 23//7 19//7
f 22//8 20//8 24//8
f 2//1 4//1 3//1
f 7//2 13//2 14//2
f 8//3 6//3 5//3
f 4//2 16//2 15//2
f 10//1 11//1 12//1
f 10//4 9//4 2//4
f 6//5 12//5 11//5
f 15//6 16//6 14//6
f 4//7 2//7 16//7
f 2//7 9//7 16//7
f 9//7 12//7 6//7
f 6//7 8//7 9//7
f 8//7 14//7 16//7
f 19//3 20//3 18//3
f 23//4 24//4 20//4
f 21//1 22//1 24//1
f 17//2 18//2 22//2
f 17//7 21//7 23//7
f 22//8 18//8 20//8
