# Blender v2.79 (sub 0) OBJ File: ''
# www.blender.org
mtllib CratePlatformCratelessCollision.mtl
o Cube.001
v 10.741951 3.589105 -11.719910
v 10.741951 0.035287 11.719910
v 10.741951 0.035288 -11.719910
v 10.741951 3.589104 11.719910
v -10.741951 0.035287 11.719910
v -10.741951 3.589104 11.719910
v -10.741951 0.035288 -11.719910
v -10.741951 3.589105 -11.719910
vn 1.0000 0.0000 0.0000
vn 0.0000 0.0000 1.0000
vn -1.0000 0.0000 0.0000
vn 0.0000 0.0000 -1.0000
vn 0.0000 1.0000 0.0000
usemtl None
s 1
f 1//1 2//1 3//1
f 4//2 5//2 2//2
f 6//3 7//3 5//3
f 8//4 3//4 7//4
f 4//5 8//5 6//5
f 1//1 4//1 2//1
f 4//2 6//2 5//2
f 6//3 8//3 7//3
f 8//4 1//4 3//4
f 4//5 1//5 8//5
