mtllib Dynamite.mtl
v 128.732544 103.709496 31.889009 1.000000 1.000000 1.000000
v -128.691208 0.297670 88.354393 1.000000 1.000000 1.000000
v 128.759277 0.308683 29.449093 1.000000 1.000000 1.000000
v 128.741486 48.299458 -0.022420 1.000000 1.000000 1.000000
v -198.606216 48.206207 0.046436 1.000000 1.000000 1.000000
v 198.627365 102.321686 88.174377 1.000000 1.000000 1.000000
v 198.647552 51.387856 117.653954 1.000000 1.000000 1.000000
v 198.655914 0.392530 88.282715 1.000000 1.000000 1.000000
v -198.573669 0.279610 88.369980 1.000000 1.000000 1.000000
v -128.720016 102.228294 88.243492 1.000000 1.000000 1.000000
v -198.602478 102.210236 88.259087 1.000000 1.000000 1.000000
v -128.700119 51.294460 117.723061 1.000000 1.000000 1.000000
v -198.582306 51.276402 117.738670 1.000000 1.000000 1.000000
v -128.702728 0.234859 29.505875 1.000000 1.000000 1.000000
v -198.584930 0.216655 29.521729 1.000000 1.000000 1.000000
v -128.732681 103.636864 31.943743 1.000000 1.000000 1.000000
v -198.614838 103.616104 31.958118 1.000000 1.000000 1.000000
v 198.614990 103.727707 31.873158 1.000000 1.000000 1.000000
v 128.745193 102.300934 88.188759 1.000000 1.000000 1.000000
v 198.644623 0.329575 29.434464 1.000000 1.000000 1.000000
v 128.773743 0.371782 88.297104 1.000000 1.000000 1.000000
v 128.765396 51.367096 117.668343 1.000000 1.000000 1.000000
v -128.724030 48.226810 0.032300 1.000000 1.000000 1.000000
v 198.623627 48.317665 -0.038284 1.000000 1.000000 1.000000
v 198.601715 103.660545 -32.072754 1.000000 1.000000 1.000000
v 198.607727 153.248947 58.694416 1.000000 1.000000 1.000000
v 198.627365 102.321686 88.174377 1.000000 1.000000 1.000000
v 198.647552 51.387856 117.653954 1.000000 1.000000 1.000000
v 198.655914 0.392530 88.282715 1.000000 1.000000 1.000000
v 198.573349 204.117325 -29.634905 1.000000 1.000000 1.000000
v 198.584595 204.182648 29.215088 1.000000 1.000000 1.000000
v 198.619171 0.202214 -88.259506 1.000000 1.000000 1.000000
v 198.596039 51.135761 -117.738571 1.000000 1.000000 1.000000
v 198.614990 103.727707 31.873158 1.000000 1.000000 1.000000
v 198.644623 0.329575 29.434464 1.000000 1.000000 1.000000
v 198.590607 102.131378 -88.367851 1.000000 1.000000 1.000000
v 198.581970 153.123077 -59.002102 1.000000 1.000000 1.000000
v 198.630432 0.267569 -29.409527 1.000000 1.000000 1.000000
v 198.623627 48.317665 -0.038284 1.000000 1.000000 1.000000
v -198.628113 103.548943 -31.987795 1.000000 1.000000 1.000000
v -198.606216 48.206207 0.046436 1.000000 1.000000 1.000000
v -198.647873 153.011612 -58.917393 1.000000 1.000000 1.000000
v -198.656219 204.006912 -29.546164 1.000000 1.000000 1.000000
v -198.573669 0.279610 88.369980 1.000000 1.000000 1.000000
v -198.639252 102.019928 -88.283127 1.000000 1.000000 1.000000
v -198.598846 0.154649 -29.322252 1.000000 1.000000 1.000000
v -198.633514 51.022987 -117.651573 1.000000 1.000000 1.000000
v -198.602478 102.210236 88.259087 1.000000 1.000000 1.000000
v -198.582306 51.276402 117.738670 1.000000 1.000000 1.000000
v -198.584930 0.216655 29.521729 1.000000 1.000000 1.000000
v -198.644653 204.069733 29.302351 1.000000 1.000000 1.000000
v -198.621826 153.136169 58.781425 1.000000 1.000000 1.000000
v -198.614838 103.616104 31.958118 1.000000 1.000000 1.000000
v -198.610687 0.090770 -88.174774 1.000000 1.000000 1.000000
v 128.732544 103.709496 31.889009 1.000000 1.000000 1.000000
v 128.719574 103.642342 -32.056908 1.000000 1.000000 1.000000
v 128.699844 153.102325 -58.987713 1.000000 1.000000 1.000000
v 128.702454 204.162048 29.229223 1.000000 1.000000 1.000000
v 128.722656 153.228073 58.709042 1.000000 1.000000 1.000000
v -198.628113 103.548943 -31.987795 1.000000 1.000000 1.000000
v 198.601715 103.660545 -32.072754 1.000000 1.000000 1.000000
v 198.607727 153.248947 58.694416 1.000000 1.000000 1.000000
v -198.647873 153.011612 -58.917393 1.000000 1.000000 1.000000
v -198.656219 204.006912 -29.546164 1.000000 1.000000 1.000000
v 198.573349 204.117325 -29.634905 1.000000 1.000000 1.000000
v 198.584595 204.182648 29.215088 1.000000 1.000000 1.000000
v -128.759537 204.088104 29.286247 1.000000 1.000000 1.000000
v -198.644653 204.069733 29.302351 1.000000 1.000000 1.000000
v -128.739639 153.156784 58.767303 1.000000 1.000000 1.000000
v -198.621826 153.136169 58.781425 1.000000 1.000000 1.000000
v -128.732681 103.636864 31.943743 1.000000 1.000000 1.000000
v -198.614838 103.616104 31.958118 1.000000 1.000000 1.000000
v 198.614990 103.727707 31.873158 1.000000 1.000000 1.000000
v -128.774017 204.024994 -29.561777 1.000000 1.000000 1.000000
v -128.765686 153.029694 -58.932995 1.000000 1.000000 1.000000
v -128.745956 103.569702 -32.002171 1.000000 1.000000 1.000000
v 198.581970 153.123077 -59.002102 1.000000 1.000000 1.000000
v 128.690903 204.099106 -29.619040 1.000000 1.000000 1.000000
v 128.741486 48.299458 -0.022420 1.000000 1.000000 1.000000
v 128.748291 0.246953 -29.395391 1.000000 1.000000 1.000000
v -128.716660 0.172853 -29.338116 1.000000 1.000000 1.000000
v 128.719574 103.642342 -32.056908 1.000000 1.000000 1.000000
v -198.628113 103.548943 -31.987795 1.000000 1.000000 1.000000
v -198.606216 48.206207 0.046436 1.000000 1.000000 1.000000
v 198.601715 103.660545 -32.072754 1.000000 1.000000 1.000000
v -198.639252 102.019928 -88.283127 1.000000 1.000000 1.000000
v -198.598846 0.154649 -29.322252 1.000000 1.000000 1.000000
v -198.633514 51.022987 -117.651573 1.000000 1.000000 1.000000
v 198.619171 0.202214 -88.259506 1.000000 1.000000 1.000000
v 198.596039 51.135761 -117.738571 1.000000 1.000000 1.000000
v -128.745956 103.569702 -32.002171 1.000000 1.000000 1.000000
v -198.610687 0.090770 -88.174774 1.000000 1.000000 1.000000
v -128.728485 0.111386 -88.188911 1.000000 1.000000 1.000000
v -128.724030 48.226810 0.032300 1.000000 1.000000 1.000000
v -128.757034 102.040527 -88.297272 1.000000 1.000000 1.000000
v -128.748398 51.043747 -117.665947 1.000000 1.000000 1.000000
v 128.734085 0.183878 -88.243393 1.000000 1.000000 1.000000
v 128.713882 51.117718 -117.722969 1.000000 1.000000 1.000000
v 198.590607 102.131378 -88.367851 1.000000 1.000000 1.000000
v 128.705536 102.113022 -88.351746 1.000000 1.000000 1.000000
v 198.630432 0.267569 -29.409527 1.000000 1.000000 1.000000
v 198.623627 48.317665 -0.038284 1.000000 1.000000 1.000000
vt 0.639285 1.317979
vt 0.642995 1.317979
vt 0.642310 1.315830
vt 0.640067 1.315830
vt 0.589800 0.125000
vt 0.617200 0.128900
vt 0.613300 0.097700
vt 0.577136 0.495349
vt 0.783241 0.495349
vt 0.577136 0.335900
vt 0.783241 0.335900
vt 0.577136 0.171900
vt 0.783241 0.171900
vt 0.577136 0.003149
vt 0.783241 0.003149
vt 1.000000 1.000000
vt 1.000000 0.003900
vt 0.804700 1.000000
vt 0.804700 0.003900
vt 0.601600 1.000000
vt 0.601600 0.003900
vt 0.398400 1.000000
vt 0.398400 0.003900
vt 0.195300 1.000000
vt 0.195300 0.003900
vt 0.000000 1.000000
vt 0.000000 0.003900
vn -1.000000 -0.000275 0.000214
vn -0.999969 -0.000244 0.000214
vn -0.999969 -0.000305 0.000183
vn -0.999969 -0.000275 0.000214
vn -0.999969 -0.000275 0.000183
vn -1.000000 -0.000275 0.000183
vn -0.999969 -0.000244 0.000183
vn -0.999969 -0.000305 0.000214
vn -0.000122 0.859951 0.510300
vn -0.000092 0.859981 0.510300
vn 0.000214 0.001068 0.999969
vn 0.000336 -0.865474 0.500931
vn 0.000122 -0.872982 -0.487716
vn -0.000275 0.999664 0.024995
vn -0.000244 0.999664 0.024964
vn -0.000122 0.859981 0.510300
vn -0.000122 0.859951 0.510330
vn 0.000153 -0.872982 -0.487716
vn 0.000336 -0.865474 0.500900
vn 0.000183 0.001038 0.999969
vn 0.000000 -0.523362 -0.852107
vn -0.000031 -0.523331 -0.852107
vn -0.000031 -0.523301 -0.852138
vn -0.000031 -0.523301 -0.852107
vn 0.999969 0.000244 -0.000183
vn 0.999969 0.000275 -0.000214
vn 0.999969 0.000275 -0.000183
vn 1.000000 0.000275 -0.000183
vn 1.000000 0.000275 -0.000214
vn 0.999969 0.000305 -0.000183
vn 0.999969 0.000336 -0.000183
vn 0.999969 0.000275 -0.000275
vn -0.000122 0.866543 0.499039
vn 0.000214 0.014130 0.999878
vn 0.000183 0.014100 0.999878
vn 0.000305 -0.476272 0.879269
vn -0.000122 0.866543 0.499069
vn 0.000183 0.014130 0.999878
vn 0.000305 -0.476241 0.879299
vn -0.000336 0.865474 -0.500900
vn -0.000214 0.011994 -0.999908
vn -0.000214 0.011963 -0.999908
vn -0.000031 -0.478164 -0.878231
vn -0.000031 -0.478195 -0.878231
vn -0.000061 -0.478164 -0.878262
vn -0.000183 0.011933 -0.999908
vn -0.000336 0.865444 -0.500961
vn -0.000336 0.865474 -0.500931
vn 0.000153 -0.866543 -0.499069
vn 0.000122 -0.866543 -0.499069
vn 0.000336 -0.871914 0.489578
vn 0.000336 -0.871944 0.489578
vn 0.000305 -0.521500 0.853236
vn -0.000275 0.999603 -0.027131
vn -0.000336 0.858852 -0.512192
vn -0.000336 0.858852 -0.512162
vn -0.000183 -0.001068 -0.999969
vn -0.000183 -0.001038 -0.999969
vn 0.000122 -0.866543 -0.499039
vn -0.000214 -0.001068 -0.999969
vn -0.000214 -0.001038 -0.999969
vn -0.000336 0.858882 -0.512162
vn -0.000336 0.858882 -0.512131
vn -0.000244 0.999603 -0.027131
vn 0.000336 -0.871944 0.489547
vn 0.000305 -0.521531 0.853206
usemtl Tex_0065_0_png
f 46/1/1 45/2/2 47/3/2
f 54/4/3 46/1/1 47/3/2
f 45/1/2 46/2/1 41/3/4
f 40/4/5 45/1/2 41/3/4
f 50/1/5 48/2/6 53/3/7
f 41/4/4 50/1/5 53/3/7
f 48/1/6 50/2/5 44/3/6
f 49/4/5 48/1/6 44/3/6
f 42/1/4 52/2/1 51/3/8
f 43/4/5 42/1/4 51/3/8
f 52/1/1 42/2/4 40/3/5
f 53/4/7 52/1/1 40/3/5
f 40/5/5 41/6/4 53/7/7
f 10/8/9 11/9/10 12/10/11
f 11/9/10 13/11/11 12/10/11
f 12/10/11 13/11/11 2/12/12
f 13/11/11 9/13/12 2/12/12
f 2/12/12 9/13/12 14/14/13
f 9/13/12 15/15/13 14/14/13
f 16/12/14 17/13/15 10/14/9
f 17/13/15 11/15/10 10/14/9
f 18/12/15 1/13/14 6/14/16
f 1/13/14 19/15/17 6/14/16
f 3/15/13 20/14/18 21/13/19
f 20/14/18 8/12/19 21/13/19
f 21/13/19 8/12/19 22/11/20
f 8/12/19 7/10/20 22/11/20
f 22/11/20 7/10/20 19/9/17
f 7/10/20 6/8/16 19/9/17
f 5/11/21 23/10/22 15/9/13
f 23/10/22 14/8/13 15/9/13
f 4/11/23 24/10/24 3/9/13
f 24/10/24 20/8/18 3/9/13
f 34/5/25 39/6/26 25/7/27
f 26/2/28 34/3/25 37/1/29
f 34/3/25 25/4/27 37/1/29
f 27/2/27 28/3/27 35/1/28
f 28/3/27 29/4/25 35/1/28
f 37/2/29 30/3/30 26/1/28
f 30/3/30 31/4/31 26/1/28
f 35/2/28 39/3/26 27/1/27
f 39/3/26 34/4/25 27/1/27
f 36/2/29 25/3/27 38/1/27
f 25/3/27 39/4/26 38/1/27
f 38/2/27 32/3/26 36/1/29
f 32/3/26 33/4/32 36/1/29
f 67/8/33 68/9/33 69/10/34
f 68/9/33 70/11/35 69/10/34
f 69/10/34 70/11/35 71/12/36
f 70/11/35 72/13/36 71/12/36
f 66/8/33 58/9/37 62/10/38
f 58/9/37 59/11/38 62/10/38
f 62/10/38 59/11/38 73/12/39
f 59/11/38 55/13/39 73/12/39
f 68/15/33 67/14/33 64/13/40
f 67/14/33 74/12/40 64/13/40
f 64/13/40 74/12/40 63/11/41
f 74/12/40 75/10/42 63/11/41
f 63/11/41 75/10/42 60/9/43
f 75/10/42 76/8/44 60/9/43
f 61/8/45 56/9/44 77/10/42
f 56/9/44 57/11/46 77/10/42
f 77/10/42 57/11/46 65/12/47
f 57/11/46 78/13/48 65/12/47
f 65/12/47 78/13/48 66/14/33
f 78/13/48 58/15/37 66/14/33
f 92/15/49 93/14/50 87/13/51
f 93/14/50 81/12/52 87/13/51
f 87/13/51 81/12/52 84/11/53
f 81/12/52 94/10/53 84/11/53
f 83/15/54 91/14/54 86/13/55
f 91/14/54 95/12/56 86/13/55
f 86/13/55 95/12/56 88/11/57
f 95/12/56 96/10/58 88/11/57
f 88/11/57 96/10/58 92/9/49
f 96/10/58 93/8/50 92/9/49
f 89/8/59 97/9/50 90/10/60
f 97/9/50 98/11/61 90/10/60
f 90/10/60 98/11/61 99/12/62
f 98/11/61 100/13/63 99/12/62
f 99/12/62 100/13/63 85/14/64
f 100/13/63 82/15/54 85/14/64
f 97/15/50 89/14/59 80/13/65
f 89/14/59 101/12/52 80/13/65
f 80/13/65 101/12/52 79/11/66
f 101/12/52 102/10/66 79/11/66
usemtl Tex_0066_0_png
f 1/16/14 16/17/14 19/18/17
f 16/17/14 10/19/9 19/18/17
f 19/18/17 10/19/9 22/20/20
f 10/19/9 12/21/11 22/20/20
f 22/20/20 12/21/11 21/22/19
f 12/21/11 2/23/12 21/22/19
f 21/22/19 2/23/12 3/24/13
f 2/23/12 14/25/13 3/24/13
f 3/24/13 14/25/13 4/26/23
f 14/25/13 23/27/22 4/26/23
f 56/16/44 76/17/44 57/18/46
f 76/17/44 75/19/42 57/18/46
f 57/18/46 75/19/42 78/20/48
f 75/19/42 74/21/40 78/20/48
f 78/20/48 74/21/40 58/22/37
f 74/21/40 67/23/33 58/22/37
f 58/22/37 67/23/33 59/24/38
f 67/23/33 69/25/34 59/24/38
f 59/24/38 69/25/34 55/26/39
f 69/25/34 71/27/36 55/26/39
f 79/26/66 94/27/53 80/24/65
f 94/27/53 81/25/52 80/24/65
f 80/24/65 81/25/52 97/22/50
f 81/25/52 93/23/50 97/22/50
f 97/22/50 93/23/50 98/20/61
f 93/23/50 96/21/58 98/20/61
f 98/20/61 96/21/58 100/18/63
f 96/21/58 95/19/56 100/18/63
f 100/18/63 95/19/56 82/16/54
f 95/19/56 91/17/54 82/16/54
