mtllib Collision.mtl
v 2.245312 65.699989 0.000054 1.000000 1.000000 1.000000
v 2.671875 50.517220 1.195353 1.000000 1.000000 1.000000
v 1.818750 65.699989 1.350054 1.000000 1.000000 1.000000
v 1.589062 50.517220 2.606290 1.000000 1.000000 1.000000
v 0.693750 65.699989 2.184429 1.000000 1.000000 1.000000
v -0.093750 50.517220 3.023478 1.000000 1.000000 1.000000
v -0.693750 65.699989 2.184429 1.000000 1.000000 1.000000
v -1.748437 50.517220 2.282853 1.000000 1.000000 1.000000
v -1.818750 65.699989 1.350054 1.000000 1.000000 1.000000
v -2.728125 50.517220 0.670353 1.000000 1.000000 1.000000
v -2.245312 65.699989 0.000054 1.000000 1.000000 1.000000
v -2.671875 50.517220 -1.195272 1.000000 1.000000 1.000000
v -2.671875 50.517220 -1.195272 1.000000 1.000000 1.000000
v -1.818750 65.699989 -1.349945 1.000000 1.000000 1.000000
v -1.589062 50.517220 -2.606209 1.000000 1.000000 1.000000
v -0.693750 65.699989 -2.184320 1.000000 1.000000 1.000000
v 0.093750 50.517220 -3.023396 1.000000 1.000000 1.000000
v 0.693750 65.699989 -2.184320 1.000000 1.000000 1.000000
v 1.748437 50.517220 -2.282771 1.000000 1.000000 1.000000
v 1.818750 65.699989 -1.349945 1.000000 1.000000 1.000000
v 2.728125 50.517220 -0.670272 1.000000 1.000000 1.000000
v 0.693750 65.699989 -2.184320 1.000000 1.000000 1.000000
v 0.000000 89.495476 -2.624933 1.000000 1.000000 1.000000
v -0.693750 65.699989 -2.184320 1.000000 1.000000 1.000000
v -2.062500 89.245155 -1.565558 1.000000 1.000000 1.000000
v -1.818750 65.699989 -1.349945 1.000000 1.000000 1.000000
v -2.826562 89.166168 0.618816 1.000000 1.000000 1.000000
v -2.245312 65.699989 0.000054 1.000000 1.000000 1.000000
v -1.425000 89.258652 2.732877 1.000000 1.000000 1.000000
v -1.818750 65.699989 1.350054 1.000000 1.000000 1.000000
v -0.693750 65.699989 2.184429 1.000000 1.000000 1.000000
v 1.237500 89.532982 2.746941 1.000000 1.000000 1.000000
v 2.892187 89.528481 0.857879 1.000000 1.000000 1.000000
v 2.062500 89.532982 -1.729621 1.000000 1.000000 1.000000
v 1.818750 65.699989 -1.349945 1.000000 1.000000 1.000000
v 0.693750 65.699989 -2.184320 1.000000 1.000000 1.000000
v -4.860937 19.518747 1.406265 1.000000 1.000000 1.000000
v -6.548437 -0.014062 -0.000000 1.000000 1.000000 1.000000
v -4.851562 19.518747 -1.917172 1.000000 1.000000 1.000000
v -5.296874 -0.014058 -4.317187 1.000000 1.000000 1.000000
v -2.985937 19.518747 -4.509359 1.000000 1.000000 1.000000
v -2.020312 -0.014057 -6.984375 1.000000 1.000000 1.000000
v 0.014062 19.518747 -5.381232 1.000000 1.000000 1.000000
v 2.020312 -0.014057 -6.984375 1.000000 1.000000 1.000000
v 4.860937 19.518747 -1.406234 1.000000 1.000000 1.000000
v 6.548437 -0.014062 -0.000000 1.000000 1.000000 1.000000
v 4.851562 19.518747 1.917203 1.000000 1.000000 1.000000
v 5.296874 -0.014067 4.317187 1.000000 1.000000 1.000000
v 2.985937 19.518747 4.509390 1.000000 1.000000 1.000000
v 2.020312 -0.014068 6.984375 1.000000 1.000000 1.000000
v -0.014062 19.518747 5.381265 1.000000 1.000000 1.000000
v -2.020312 -0.014068 6.984375 1.000000 1.000000 1.000000
v -0.093750 50.517220 3.023478 1.000000 1.000000 1.000000
v -1.185937 36.623470 3.782842 1.000000 1.000000 1.000000
v -1.748437 50.517220 2.282853 1.000000 1.000000 1.000000
v -3.112499 36.623470 2.339092 1.000000 1.000000 1.000000
v -2.728125 50.517220 0.670353 1.000000 1.000000 1.000000
v -3.848437 36.623470 0.000030 1.000000 1.000000 1.000000
v -2.671875 50.517220 -1.195272 1.000000 1.000000 1.000000
v 2.245312 65.699989 0.000054 1.000000 1.000000 1.000000
v 1.818750 65.699989 1.350054 1.000000 1.000000 1.000000
v 0.693750 65.699989 2.184429 1.000000 1.000000 1.000000
v -0.693750 65.699989 2.184429 1.000000 1.000000 1.000000
v 3.848437 36.623470 0.000030 1.000000 1.000000 1.000000
v 4.851562 19.518747 1.917203 1.000000 1.000000 1.000000
v 3.112499 36.623470 2.339092 1.000000 1.000000 1.000000
v 2.985937 19.518747 4.509390 1.000000 1.000000 1.000000
v 1.185937 36.623470 3.782842 1.000000 1.000000 1.000000
v -0.014062 19.518747 5.381265 1.000000 1.000000 1.000000
v -1.185937 36.623470 3.782842 1.000000 1.000000 1.000000
v -2.020312 -0.014068 6.984375 1.000000 1.000000 1.000000
v -3.014062 19.518747 4.195328 1.000000 1.000000 1.000000
v -5.296874 -0.014067 4.317187 1.000000 1.000000 1.000000
v -4.860937 19.518747 1.406265 1.000000 1.000000 1.000000
v 2.020312 -0.014057 -6.984375 1.000000 1.000000 1.000000
v 3.014062 19.518747 -4.195296 1.000000 1.000000 1.000000
v 5.296874 -0.014058 -4.317187 1.000000 1.000000 1.000000
v 4.860937 19.518747 -1.406234 1.000000 1.000000 1.000000
v -3.848437 36.623470 0.000030 1.000000 1.000000 1.000000
v -4.851562 19.518747 -1.917172 1.000000 1.000000 1.000000
v -3.112499 36.623470 -2.339032 1.000000 1.000000 1.000000
v -2.985937 19.518747 -4.509359 1.000000 1.000000 1.000000
v -1.185937 36.623470 -3.782782 1.000000 1.000000 1.000000
v -3.112499 36.623470 -2.339032 1.000000 1.000000 1.000000
v -2.671875 50.517220 -1.195272 1.000000 1.000000 1.000000
v -1.589062 50.517220 -2.606209 1.000000 1.000000 1.000000
v -1.185937 36.623470 -3.782782 1.000000 1.000000 1.000000
v 1.185937 36.623470 -3.782782 1.000000 1.000000 1.000000
v 0.093750 50.517220 -3.023396 1.000000 1.000000 1.000000
v 1.748437 50.517220 -2.282771 1.000000 1.000000 1.000000
v -1.185937 36.623470 -3.782782 1.000000 1.000000 1.000000
v 3.112499 36.623470 -2.339032 1.000000 1.000000 1.000000
v 2.728125 50.517220 -0.670272 1.000000 1.000000 1.000000
v -3.014062 19.518747 4.195328 1.000000 1.000000 1.000000
v -1.185937 36.623470 3.782842 1.000000 1.000000 1.000000
v -3.112499 36.623470 2.339092 1.000000 1.000000 1.000000
v 3.848437 36.623470 0.000030 1.000000 1.000000 1.000000
v 2.671875 50.517220 1.195353 1.000000 1.000000 1.000000
v -4.860937 19.518747 1.406265 1.000000 1.000000 1.000000
v 3.112499 36.623470 2.339092 1.000000 1.000000 1.000000
v 2.671875 50.517220 1.195353 1.000000 1.000000 1.000000
v 1.589062 50.517220 2.606290 1.000000 1.000000 1.000000
v -2.985937 19.518747 -4.509359 1.000000 1.000000 1.000000
v 0.014062 19.518747 -5.381232 1.000000 1.000000 1.000000
v 1.185937 36.623470 -3.782782 1.000000 1.000000 1.000000
v 0.014062 19.518747 -5.381232 1.000000 1.000000 1.000000
v 3.014062 19.518747 -4.195296 1.000000 1.000000 1.000000
v 1.185937 36.623470 -3.782782 1.000000 1.000000 1.000000
v 3.112499 36.623470 -2.339032 1.000000 1.000000 1.000000
v 1.185937 36.623470 3.782842 1.000000 1.000000 1.000000
v 4.860937 19.518747 -1.406234 1.000000 1.000000 1.000000
v -4.851562 19.518747 -1.917172 1.000000 1.000000 1.000000
v -1.185937 36.623470 3.782842 1.000000 1.000000 1.000000
v 4.851562 19.518747 1.917203 1.000000 1.000000 1.000000
v 2.728125 50.517220 -0.670272 1.000000 1.000000 1.000000
v 2.671875 50.517220 1.195353 1.000000 1.000000 1.000000
v 1.837327 89.728439 7.850399 1.000000 1.000000 1.000000
v -11.294623 88.139229 17.543400 1.000000 1.000000 1.000000
v 3.177929 91.172234 13.578450 1.000000 1.000000 1.000000
v -4.978312 88.335701 24.167320 1.000000 1.000000 1.000000
v 5.082554 89.924988 21.716320 1.000000 1.000000 1.000000
v 7.185862 85.720444 30.703190 1.000000 1.000000 1.000000
v 15.186149 88.335732 19.447948 1.000000 1.000000 1.000000
v 20.547674 80.339195 30.878462 1.000000 1.000000 1.000000
v 25.173597 83.460732 19.151690 1.000000 1.000000 1.000000
v -4.710382 80.399948 36.789955 1.000000 1.000000 1.000000
v 9.509249 77.507942 40.630257 1.000000 1.000000 1.000000
v 17.911423 88.078484 10.707896 1.000000 1.000000 1.000000
v -14.055374 83.522194 28.332962 1.000000 1.000000 1.000000
v -10.792874 88.424706 2.384590 1.000000 1.000000 1.000000
v -17.576548 87.665985 -10.426953 1.000000 1.000000 1.000000
v -16.427322 87.285728 3.629432 1.000000 1.000000 1.000000
v -26.026796 82.054482 -3.946793 1.000000 1.000000 1.000000
v -24.263323 83.985733 5.360679 1.000000 1.000000 1.000000
v -31.961996 77.610733 7.061591 1.000000 1.000000 1.000000
v -21.993673 81.947235 14.460291 1.000000 1.000000 1.000000
v -31.269972 70.532837 19.841303 1.000000 1.000000 1.000000
v -20.495323 74.062454 24.436029 1.000000 1.000000 1.000000
v -39.623474 67.003120 8.605403 1.000000 1.000000 1.000000
v -36.700119 70.645340 -4.953881 1.000000 1.000000 1.000000
v -28.845371 74.062485 -13.640410 1.000000 1.000000 1.000000
v -1.516200 89.578445 -7.956749 1.000000 1.000000 1.000000
v -2.617379 91.129478 -13.735573 1.000000 1.000000 1.000000
v 12.629098 87.548233 -16.087357 1.000000 1.000000 1.000000
v 6.262199 87.464233 -23.305954 1.000000 1.000000 1.000000
v 15.397799 82.209770 -25.247179 1.000000 1.000000 1.000000
v 6.839054 79.195526 -35.779736 1.000000 1.000000 1.000000
v -14.260048 87.464233 -19.466930 1.000000 1.000000 1.000000
v -4.000275 89.447235 -21.794172 1.000000 1.000000 1.000000
v -5.661059 85.035774 -30.835279 1.000000 1.000000 1.000000
v -7.483731 76.828529 -40.776085 1.000000 1.000000 1.000000
v -23.459698 82.331238 -17.962055 1.000000 1.000000 1.000000
v -19.308971 79.312531 -30.887779 1.000000 1.000000 1.000000
v 10.897124 89.545204 -1.674580 1.000000 1.000000 1.000000
v 16.646099 89.474983 -2.500140 1.000000 1.000000 1.000000
v 25.839222 85.110733 6.760546 1.000000 1.000000 1.000000
v 24.665548 85.964233 -3.704644 1.000000 1.000000 1.000000
v 32.708096 79.898232 -4.912629 1.000000 1.000000 1.000000
v 22.668074 84.989235 -14.131427 1.000000 1.000000 1.000000
v 32.400146 74.915619 -18.987089 1.000000 1.000000 1.000000
v 21.674849 80.160767 -23.836880 1.000000 1.000000 1.000000
v 36.572697 74.915619 8.509110 1.000000 1.000000 1.000000
v 40.848072 69.885971 -6.135241 1.000000 1.000000 1.000000
v 27.762072 80.160736 16.312113 1.000000 1.000000 1.000000
vt 0.025790 0.660156
vt 0.316806 0.769531
vt 0.328524 0.996094
vt 0.137118 0.476563
vt 0.312899 0.523438
vt 0.316806 0.261719
vt 0.090243 0.183594
vt -0.042570 0.375000
vt 0.308993 0.070312
vt 0.023837 0.730469
vt 0.316806 0.726563
vt 0.330477 0.992188
vt 0.172274 0.496094
vt 0.312899 0.484375
vt 0.316806 0.250000
vt 0.078524 0.148438
vt -0.062101 0.335938
vt 0.316806 0.078125
vt 0.062899 0.765625
vt 0.330477 1.000000
vt 0.000000 0.000000
vt 0.318759 0.824219
vt 0.043368 0.742188
vt 0.142977 0.539063
vt -0.034757 0.496094
vt 0.074618 0.156250
vt 0.312899 0.562500
vt 0.322665 0.320313
vt 0.326571 0.074219
vt 0.312899 0.730469
vt 0.178134 0.527344
vt 0.312899 0.539063
vt 0.316806 0.355469
vt 0.101962 0.144531
vt -0.028898 0.390625
vt 0.328524 0.066406
vt 0.824219 0.996094
vt 0.968750 0.488281
vt 0.976563 0.996094
vt 0.820313 0.488281
vt 0.679688 1.000000
vt 0.679688 0.488281
vt 0.710938 0.492188
vt 0.699219 0.980469
vt 0.960938 0.492188
vt 0.859375 0.980469
vt 0.824219 0.488281
vt 0.921875 0.980469
vt 0.964844 0.488281
vt 0.792969 0.980469
vt 0.980469 0.996094
vt 0.687500 0.996094
vt 0.828125 0.996094
vt 0.972656 0.492188
vn -0.325694 0.926969 0.186010
vn -0.012604 0.998108 -0.059847
vn -0.038972 0.996460 -0.074404
vn -0.177526 0.921293 0.345927
vn 0.063692 0.960112 0.272164
vn 0.121738 0.848323 0.515244
vn 0.315378 0.920774 0.229408
vn 0.347789 0.814600 0.464125
vn 0.427503 0.858638 0.282693
vn -0.102878 0.816279 0.568377
vn 0.144841 0.778741 0.610340
vn 0.298349 0.950072 0.091067
vn -0.253426 0.860439 0.442000
vn -0.392102 0.916929 -0.073916
vn -0.337870 0.938902 0.065493
vn -0.145665 0.989166 0.017548
vn -0.634327 0.756035 -0.161229
vn -0.490707 0.863918 0.113285
vn -0.705802 0.690207 0.159459
vn -0.524827 0.748222 0.405805
vn -0.608081 0.647420 0.459395
vn -0.489639 0.646748 0.584735
vn -0.786126 0.593097 0.173772
vn -0.743614 0.648915 -0.161016
vn -0.675161 0.653371 -0.342357
vn 0.036958 0.999023 -0.023194
vn -0.002899 0.996704 0.080813
vn 0.007019 0.999481 0.031007
vn 0.242470 0.941893 -0.232459
vn 0.244972 0.891873 -0.380139
vn 0.371532 0.812159 -0.449782
vn 0.198553 0.797784 -0.569262
vn -0.360576 0.892697 -0.270241
vn -0.056398 0.948149 -0.312693
vn -0.095157 0.842158 -0.530747
vn -0.110691 0.776269 -0.620594
vn -0.502121 0.815821 -0.286813
vn -0.382519 0.801782 -0.459090
vn 0.198157 0.979095 -0.045747
vn 0.535569 0.831233 0.148991
vn 0.494003 0.865810 -0.079531
vn 0.686728 0.719230 -0.105075
vn 0.443312 0.841823 -0.307871
vn 0.641011 0.703238 -0.307382
vn 0.454909 0.777856 -0.433546
vn 0.706198 0.700156 0.105106
vn 0.763756 0.635029 -0.115482
vn 0.587298 0.760796 0.276040
vn 0.814264 0.055879 0.577776
vn 0.804498 0.039155 0.592639
vn 0.998810 0.048494 -0.002197
vn 0.546464 0.042573 0.836360
vn 0.312449 0.058565 0.948088
vn -0.086581 0.040345 0.995422
vn -0.315897 0.052797 0.947295
vn -0.659627 0.032991 0.750816
vn -0.813929 0.046571 0.579089
vn -0.966643 0.030854 0.254158
vn -0.998810 0.048494 0.002197
vn -0.999054 0.030427 -0.030122
vn -0.814264 0.055879 -0.577776
vn -0.804498 0.039155 -0.592639
vn -0.546464 0.042573 -0.836360
vn -0.312449 0.058565 -0.948088
vn 0.086581 0.040345 -0.995422
vn 0.315897 0.052797 -0.947295
vn 0.659627 0.032991 -0.750816
vn 0.813929 0.046571 -0.579089
vn 0.861385 0.028871 -0.507096
vn -0.315134 -0.016449 -0.948882
vn -0.012238 -0.005036 -0.999908
vn 0.000000 -0.018494 -0.999817
vn -0.744194 -0.008545 -0.667898
vn -0.813746 -0.015229 -0.580981
vn -0.990905 -0.027009 0.131718
vn -0.999908 -0.010468 0.004364
vn -0.455916 -0.032319 0.889401
vn -0.820612 -0.019807 0.571123
vn -0.562517 -0.036683 0.825922
vn 0.424421 -0.024110 0.905118
vn 0.814814 -0.017792 -0.579394
vn 0.744713 -0.011231 -0.667257
vn 0.978576 -0.020386 0.204840
vn 0.584857 -0.018097 -0.810907
vn -0.947813 0.089755 -0.305826
vn -0.997986 0.063234 0.002106
vn -0.996246 0.086245 -0.002808
vn -0.830073 0.065798 -0.553697
vn -0.578509 0.101566 -0.809290
vn -0.329569 0.080477 -0.940672
vn 0.044465 0.114170 -0.992462
vn 0.000000 0.081790 -0.996643
vn 0.947813 0.089755 0.305826
vn 0.997986 0.063234 -0.002106
vn 0.996246 0.086245 0.002808
vn 0.830073 0.065798 0.553697
vn 0.578509 0.101566 0.809290
vn 0.329569 0.080477 0.940672
vn -0.044465 0.114170 0.992462
vn 0.000000 0.081790 0.996643
vn -0.658071 0.086215 0.747978
vn -0.584094 0.063692 0.809137
vn -0.086306 0.081301 0.992920
vn -0.814295 0.066195 0.576617
vn -0.963652 0.085849 0.252876
vn -0.998047 0.062380 0.002289
vn -0.996185 0.081759 -0.030030
vn 0.999603 -0.026856 -0.006928
vn 0.812952 -0.035829 0.581225
vn 0.310800 -0.029511 0.949980
vn 0.000000 -0.023591 0.999695
vn 0.813685 0.095737 0.573351
vn 0.825312 0.070070 0.560289
vn 0.996185 0.087161 -0.002686
vn 0.574755 0.074068 0.814936
vn 0.313364 0.098117 0.944517
vn -0.044069 0.070620 0.996521
vn 0.000000 0.093020 0.995636
vn -0.629200 0.109500 0.769463
vn -0.605029 0.082278 0.791925
vn -0.828700 0.075564 0.554521
vn -0.851588 0.095798 0.515336
vn 0.629200 0.109500 -0.769463
vn 0.605029 0.082278 -0.791925
vn 0.828700 0.075564 -0.554521
vn 0.851588 0.095798 -0.515336
vn -0.813685 0.095737 -0.573351
vn -0.825312 0.070070 -0.560289
vn -0.996185 0.087161 0.002686
vn -0.794092 0.070711 -0.603626
vn -0.313364 0.098117 -0.944517
vn -0.812281 0.073366 -0.578570
vn -0.815577 0.056093 -0.575884
vn -0.546037 0.077792 -0.834132
vn 0.086306 0.081301 -0.992920
vn 0.317606 0.062288 -0.946135
vn 0.000000 0.054567 -0.998505
vn 0.658071 0.086215 -0.747978
vn -0.574633 0.052461 -0.816706
vn 0.814295 0.066195 -0.576617
vn 0.963652 0.085849 -0.252876
vn -0.573962 0.080966 0.814844
vn -0.626881 0.062166 0.776605
vn -0.813562 0.084109 0.575304
vn 0.998047 0.062380 -0.002289
vn 0.996185 0.081759 0.030030
vn -0.956511 0.060518 0.285257
vn 0.812281 0.073366 0.578570
vn 0.815577 0.056093 0.575884
vn 0.546037 0.077792 0.834132
vn -0.255409 0.072176 -0.964110
vn -0.278390 0.069979 -0.957884
vn 0.000000 0.093020 -0.995636
vn 0.573962 0.080996 -0.814844
vn 0.626881 0.062166 -0.776605
vn 0.366924 0.061586 -0.928190
vn 0.813562 0.084109 -0.575304
vn 0.314249 0.056063 0.947661
vn 0.956511 0.060518 -0.285257
vn -0.998260 0.058840 -0.002808
vn 0.000000 0.054567 0.998505
vn 0.998260 0.058840 0.002808
vn 0.999054 0.030427 0.030122
usemtl m0_mat119
f 118/1/1 119/2/2 117/3/3
f 120/4/4 119/2/2 118/1/1
f 120/4/4 121/5/5 119/2/2
f 122/6/6 121/5/5 120/4/4
f 122/6/6 123/4/7 121/5/5
f 124/7/8 123/4/7 122/6/6
f 124/7/8 125/8/9 123/4/7
f 126/7/10 122/6/6 120/4/4
f 126/7/10 127/9/11 122/6/6
f 117/3/3 119/2/2 128/1/12
f 128/1/12 123/4/7 125/8/9
f 128/1/12 119/2/2 123/4/7
f 129/8/13 120/4/4 118/1/1
f 129/8/13 126/7/10 120/4/4
f 122/6/6 127/9/11 124/7/8
f 119/2/2 121/5/5 123/4/7
f 131/10/14 132/11/15 130/12/16
f 133/13/17 132/11/15 131/10/14
f 133/13/17 134/14/18 132/11/15
f 135/15/19 134/14/18 133/13/17
f 135/15/19 136/13/20 134/14/18
f 137/16/21 136/13/20 135/15/19
f 137/16/21 138/17/22 136/13/20
f 135/15/19 139/18/23 137/16/21
f 135/15/19 140/16/24 139/18/23
f 133/13/17 140/16/24 135/15/19
f 133/13/17 141/17/25 140/16/24
f 131/10/14 141/17/25 133/13/17
f 118/10/1 136/13/20 138/17/22
f 118/10/1 132/11/15 136/13/20
f 130/12/16 132/11/15 118/10/1
f 132/11/15 134/14/18 136/13/20
f 128/19/12 154/20/26 117/21/3
f 142/3/27 143/22/28 131/23/14
f 144/23/29 143/22/28 142/3/27
f 144/23/29 145/24/30 143/22/28
f 146/25/31 145/24/30 144/23/29
f 146/25/31 147/26/32 145/24/30
f 143/22/28 148/24/33 131/23/14
f 143/22/28 149/27/34 148/24/33
f 145/24/30 149/27/34 143/22/28
f 145/24/30 150/28/35 149/27/34
f 147/26/32 150/28/35 145/24/30
f 147/26/32 151/29/36 150/28/35
f 148/24/33 152/25/37 131/23/14
f 148/24/33 153/26/38 152/25/37
f 150/28/35 153/26/38 148/24/33
f 150/28/35 151/29/36 153/26/38
f 142/21/27 154/21/26 144/19/29
f 148/24/33 149/27/34 150/28/35
f 130/21/16 142/21/27 131/23/14
f 128/19/12 155/30/39 154/20/26
f 156/31/40 155/30/39 128/19/12
f 156/31/40 157/32/41 155/30/39
f 158/33/42 157/32/41 156/31/40
f 158/33/42 159/31/43 157/32/41
f 160/34/44 159/31/43 158/33/42
f 160/34/44 161/35/45 159/31/43
f 162/34/46 158/33/42 156/31/40
f 162/34/46 163/36/47 158/33/42
f 118/1/1 117/3/3 130/21/16
f 154/20/26 155/30/39 144/19/29
f 144/19/29 159/31/43 161/35/45
f 144/19/29 155/30/39 159/31/43
f 164/35/48 156/31/40 128/19/12
f 164/35/48 162/34/46 156/31/40
f 158/33/42 163/36/47 160/34/44
f 155/30/39 157/32/41 159/31/43
f 142/21/27 117/21/3 154/21/26
f 142/21/27 130/21/16 117/21/3
usemtl m0_mat119_J_tree_C.png
f 3/37/49 2/38/50 1/39/51
f 3/37/49 4/40/52 2/38/50
f 5/41/53 4/40/52 3/37/49
f 5/41/53 6/42/54 4/40/52
f 7/41/55 6/42/54 5/41/53
f 7/41/55 8/40/56 6/42/54
f 9/37/57 8/40/56 7/41/55
f 9/37/57 10/38/58 8/40/56
f 11/39/59 10/38/58 9/37/57
f 11/39/59 12/42/60 10/38/58
f 14/37/61 13/38/62 11/39/59
f 14/37/61 15/40/63 13/38/62
f 16/41/64 15/40/63 14/37/61
f 16/41/64 17/42/65 15/40/63
f 18/41/66 17/42/65 16/41/64
f 18/41/66 19/40/67 17/42/65
f 20/37/68 19/40/67 18/41/66
f 20/37/68 21/38/69 19/40/67
f 1/39/51 21/38/69 20/37/68
f 24/43/70 23/44/71 22/45/72
f 24/43/70 25/46/73 23/44/71
f 26/47/74 25/46/73 24/43/70
f 26/47/74 27/48/75 25/46/73
f 28/49/76 27/48/75 26/47/74
f 28/49/76 29/50/77 27/48/75
f 30/47/78 29/50/77 28/49/76
f 30/47/78 31/43/79 29/50/77
f 32/50/80 29/50/77 31/43/79
f 35/47/81 34/46/82 33/48/83
f 35/47/81 36/43/84 34/46/82
f 39/51/85 38/38/86 37/52/87
f 39/51/85 40/40/88 38/38/86
f 41/53/89 40/40/88 39/51/85
f 41/53/89 42/42/90 40/40/88
f 43/52/91 42/42/90 41/53/89
f 43/52/91 44/38/92 42/42/90
f 47/51/93 46/38/94 45/53/95
f 47/51/93 48/40/96 46/38/94
f 49/53/97 48/40/96 47/51/93
f 49/53/97 50/42/98 48/40/96
f 51/52/99 50/42/98 49/53/97
f 51/52/99 52/38/100 50/42/98
f 55/53/101 54/42/102 53/52/103
f 55/53/101 56/40/104 54/42/102
f 57/51/105 56/40/104 55/53/101
f 57/51/105 58/38/106 56/40/104
f 59/39/107 58/38/106 57/51/105
f 33/48/83 60/49/108 35/47/81
f 33/48/83 61/47/109 60/49/108
f 32/50/80 61/47/109 33/48/83
f 32/50/80 62/43/110 61/47/109
f 63/45/111 62/43/110 32/50/80
f 66/53/112 65/38/113 64/51/114
f 66/53/112 67/40/115 65/38/113
f 68/52/116 67/40/115 66/53/112
f 68/52/116 69/42/117 67/40/115
f 70/51/118 69/42/117 68/52/116
f 72/53/119 71/42/120 51/52/99
f 72/53/119 73/40/121 71/42/120
f 74/51/122 73/40/121 72/53/119
f 74/51/122 38/38/86 73/40/121
f 23/44/71 34/46/82 36/43/84
f 76/53/123 75/42/124 43/52/91
f 76/53/123 77/40/125 75/42/124
f 78/51/126 77/40/125 76/53/123
f 78/51/126 46/38/94 77/40/125
f 81/53/127 80/38/128 79/51/129
f 81/53/127 82/40/130 80/38/128
f 83/52/131 82/40/130 81/53/127
f 85/51/132 84/40/133 58/38/106
f 85/51/132 86/53/134 84/40/133
f 89/52/135 88/42/136 87/40/137
f 89/52/135 90/53/138 88/42/136
f 86/53/134 91/42/139 84/40/133
f 86/53/134 89/52/135 91/42/139
f 90/53/138 92/40/140 88/42/136
f 90/53/138 93/51/141 92/40/140
f 95/52/142 94/40/143 69/42/117
f 95/52/142 96/53/144 94/40/143
f 93/51/141 97/38/145 92/40/140
f 93/51/141 98/39/146 97/38/145
f 96/53/144 99/38/147 94/40/143
f 96/53/144 79/51/129 99/38/147
f 101/51/148 100/40/149 97/38/145
f 101/51/148 102/53/150 100/40/149
f 83/52/131 104/42/151 103/38/152
f 83/52/131 105/51/153 104/42/151
f 108/52/154 107/40/155 106/38/156
f 108/52/154 109/53/157 107/40/155
f 102/53/150 110/42/158 100/40/149
f 102/53/150 53/52/103 110/42/158
f 109/53/157 111/38/159 107/40/155
f 109/53/157 64/51/114 111/38/159
f 79/51/129 112/42/160 99/38/147
f 53/52/103 113/38/161 110/42/158
f 64/51/114 114/40/162 111/38/159
f 116/42/163 115/54/163 1/39/51
