# Blender v2.79 (sub 0) OBJ File: ''
# www.blender.org
mtllib Seagull.mtl
v -2.775102 -0.271921 0.003684
v 0.148899 0.023897 -0.336221
v -2.916176 0.093852 -0.001271
v -0.751045 0.157663 0.690298
v -4.650396 -0.794927 -1.920701
v -2.836171 -0.151560 0.423085
v 0.782606 -0.125833 0.001705
v -0.751045 0.138906 -0.694315
v 0.588868 0.114144 -0.001546
v 0.562940 -0.068595 -0.116189
v 0.148899 0.032996 0.335451
v -4.650396 -0.742607 1.941527
v -2.836171 -0.162965 -0.418825
v 0.562940 -0.065423 0.118004
v 1.323500 -0.101162 0.001370
v 0.792291 0.210550 -0.002852
v -1.018345 -0.454558 0.006158
v -5.618447 -0.456041 0.006177
v -0.617395 0.416067 -0.005636
v -2.464295 -0.091566 0.435969
v -0.697145 0.126638 0.689422
v 0.083811 0.130008 3.432919
v -1.628175 -0.245087 3.407865
v -2.153704 -1.073988 6.586683
v -1.630925 -0.245086 3.407866
v 0.081062 0.130010 3.432920
v -1.815654 -1.310547 7.729247
v -2.460858 -0.107995 -0.437189
v -0.693707 0.110705 -0.690212
v -1.624737 -0.255695 -3.409379
v 0.087249 0.119449 -3.433698
v -1.809465 -1.312693 -7.732840
v 0.087249 0.119449 -3.433699
v -2.147517 -1.078371 -6.589814
v -1.624737 -0.255695 -3.409379
vt 1.968627 -0.968628
vt 1.968627 0.968628
vt 0.027451 0.968628
vt 1.968627 -0.968628
vt 0.027451 0.968628
vt 1.968627 0.968628
vt 0.027451 0.968628
vt 0.027451 -0.968628
vt 1.968627 0.968628
vt 0.027451 0.968628
vt 1.968627 -0.968628
vt 1.968627 0.968628
vt 1.968627 -0.968628
vt 1.968627 -0.968628
vt 0.027451 -0.968628
vt 0.027451 -0.968628
vt 0.027451 -0.968628
vt 1.968627 -0.968628
vt 1.968627 0.968628
vt 0.027451 -0.968628
vt 1.968627 -0.968628
vt 1.968627 0.968628
vt 0.027451 0.968628
vt 1.968627 -0.968628
vt 1.968627 0.968628
vt 0.027451 -0.968628
vt 0.027451 -0.968628
vt 0.027451 0.968628
vt 0.988235 -0.988235
vt 0.003922 -0.988235
vt 0.988235 -0.003922
vt 0.003922 -0.988235
vt 0.984314 -0.450980
vt 0.701961 -0.011765
vt 0.043137 -0.450980
vt 0.325490 -0.011765
vt 0.984314 -0.450980
vt 0.701961 -0.011765
vt 0.000000 -1.000000
vt 0.996078 -1.000000
vt 1.000000 0.000000
vt 0.000000 0.000000
vt 1.000000 0.000000
vt 1.000000 -1.000000
vt 0.000000 -1.000000
vt 0.000000 0.000000
vt 0.827451 -0.639216
vt 0.984314 -0.262745
vt 0.011765 -0.011765
vt 0.011765 -0.984314
vt 0.796078 -0.639216
vt 0.011765 -0.984314
vt 0.011765 -0.011765
vt 0.984314 -0.168628
vn 0.8262 -0.5633 0.0076
vn 0.8282 0.5604 -0.0076
vn 0.2704 0.0023 0.9627
vn 0.2704 -0.0238 -0.9624
vn 0.0243 0.9187 -0.3941
vn 0.0693 0.9976 -0.0080
vn 0.0132 -0.9998 0.0135
vn 0.0631 -0.7756 0.6281
vn -0.0001 0.9375 0.3481
vn 0.0631 -0.7923 -0.6068
vn 0.1042 -0.9518 0.2883
vn 0.0657 -0.9977 0.0135
vn -0.1415 0.9892 0.0395
vn -0.1460 0.8869 0.4383
vn 0.1042 -0.9593 -0.2624
vn -0.0214 0.8498 -0.5267
vn 0.1527 0.5096 -0.8468
vn 0.1527 0.5323 0.8327
vn -0.1377 0.9675 0.2121
vn -0.1744 0.9847 -0.0015
vn -0.1581 0.9427 -0.2937
vn -0.1607 0.9849 0.0638
vn -0.2143 0.9705 0.1104
vn -0.1855 0.9789 0.0853
vn -0.1274 0.9912 0.0351
vn -0.1855 0.9791 -0.0834
vn -0.2143 0.9707 -0.1085
vn -0.1607 0.9851 -0.0618
vn -0.1274 0.9913 -0.0331
vn -0.1736 0.9548 0.2415
vn -0.1661 0.9547 0.2468
vn -0.2043 0.9540 0.2194
vn -0.2121 0.9536 0.2138
vn -0.1736 0.9552 -0.2396
vn -0.2121 0.9540 -0.2119
vn -0.2043 0.9544 -0.2176
vn -0.1661 0.9552 -0.2449
usemtl object_00CA3F48_material_55
s 1
f 7/1/1 16/2/2 11/3/3
f 2/4/4 16/2/2 7/5/1
f 2/6/4 8/7/5 19/8/6
f 2/4/4 7/9/1 17/10/7
f 11/11/3 4/12/8 17/10/7
f 19/13/6 4/12/9 11/3/3
f 19/8/6 16/14/2 2/6/4
f 11/3/3 16/15/2 19/13/6
f 17/10/7 7/16/1 11/11/3
f 17/10/7 8/17/10 2/4/4
f 6/18/11 1/19/12 4/20/8
f 4/20/8 1/19/12 17/10/7
f 3/21/13 6/22/14 19/8/6
f 19/8/6 6/22/14 4/23/9
f 13/24/15 8/25/10 1/26/12
f 1/26/12 8/25/10 17/10/7
f 19/13/6 8/25/5 3/27/13
f 3/27/13 8/25/5 13/28/16
usemtl object_00CA3F48_material_54
f 15/29/17 10/30/17 9/31/17
f 9/31/18 14/32/18 15/29/18
usemtl object_00CA3F48_material_52
f 12/33/19 6/34/14 18/35/20
f 18/35/20 6/34/14 3/36/13
f 18/35/20 3/36/13 5/37/21
f 5/37/21 3/36/13 13/38/16
f 20/39/22 23/40/23 22/41/24
f 22/41/24 21/42/25 20/39/22
f 31/43/26 30/44/27 28/45/28
f 28/45/28 29/46/29 31/43/26
usemtl object_00CA3F48_material_53
f 24/47/30 27/48/31 26/49/32
f 26/49/32 25/50/33 24/47/30
f 34/51/34 35/52/35 33/53/36
f 33/53/36 32/54/37 34/51/34
