# Blender v2.79 (sub 0) OBJ File: ''
# www.blender.org
mtllib StaticWater.mtl
v 1060.000244 99.998909 -695.000916
v 1059.991821 99.997978 333.123993
v 1059.983765 99.996864 961.249084
v 2309.999512 100.001305 1272.499512
v 1059.979614 99.996056 1272.519165
v 1049.999390 -199.997879 1769.999512
v 309.999420 -199.997879 1769.999268
v 2299.999268 -199.997696 2110.000000
v 1049.999268 -199.997696 2109.999756
v 2299.999268 -199.997681 2217.500000
v 2299.999268 -199.997177 2350.000000
v 1049.999146 -219.997147 2499.999756
v 1049.998901 -219.996017 3473.749023
v 309.998871 -219.996017 3473.748779
v 1049.998657 -219.995438 4039.999023
v 2299.999512 -199.997879 1769.999878
v 1049.999268 -199.997681 2217.499756
v 1049.999268 -199.997177 2349.999756
v 309.999237 -199.997177 2349.999512
v 309.999176 -219.997147 2499.999512
v -842.500671 -199.997452 2109.999023
v 9.999234 -199.997177 2349.999268
v -842.500732 -199.997437 2217.499023
v -842.500793 -199.997177 2349.999023
v -842.500549 -99.997879 1762.015869
v -842.500610 -99.997726 1959.998901
v 9.999361 -99.997726 1959.999146
v 9.999427 -99.997879 1759.999146
v 2299.999512 -99.997879 1759.999878
v 2299.999512 -99.997910 1589.374878
v 2299.999512 -99.998695 1282.499512
v 309.999481 -99.997910 1589.374268
v 9.999482 -99.997910 1589.374146
v -842.500488 -99.997910 1589.373901
v 1049.998657 -289.995422 4049.999023
v 1029.998535 -289.994873 4559.999512
v 1029.998413 -289.994720 4699.999512
v 2299.998535 -289.994873 4558.244141
v 2299.998535 -289.994720 4700.000000
v -842.501465 -289.994751 4559.999023
v 9.998514 -289.994873 4559.999023
v -842.501343 -289.995422 4049.998291
v 9.998680 -289.995422 4049.998535
v 309.998505 -289.994873 4559.999023
v 309.998688 -289.995422 4049.998779
v 2299.998779 -289.995422 4049.999268
v 1049.999634 -99.998695 1282.499146
v 309.999695 -99.998863 961.248901
v 1049.999512 -99.997910 1589.374512
v 1049.999390 -99.997879 1759.999512
v 309.999420 -99.997879 1759.999268
v -842.500122 -99.999947 333.123657
v 1049.999634 -99.998863 961.249146
v 9.999687 -99.998863 961.248779
v -842.500305 -99.998863 961.248535
v -842.500793 -219.997147 2499.999023
v -842.500916 -219.996613 2845.623291
v -842.501160 -219.996017 3473.748291
v 9.998868 -219.996017 3473.748535
v -842.501343 -219.995438 4039.998291
v 2299.998779 -219.995438 4039.999268
v 2299.998779 -219.996017 3473.749268
v 1049.999023 -219.996613 2845.624023
v 2299.999023 -219.996613 2845.624268
v 2299.999268 -219.997147 2500.000000
v 1050.000244 -100.001091 -695.000854
v 1049.999878 -99.999947 333.124268
v 310.000214 -100.001091 -695.001099
v 10.000226 -100.001091 -695.001221
v 309.999878 -99.999947 333.124023
v 9.999891 -99.999947 333.123932
v -842.499756 -100.001091 -695.001465
v 9.998684 -219.995438 4039.998535
v 309.998688 -219.995438 4039.998779
v 309.999084 -219.996613 2845.623779
v 9.999073 -219.996613 2845.623535
v 9.999186 -219.997147 2499.999268
v 9.999277 -199.997681 2217.499268
v 309.999268 -199.997681 2217.499512
v 9.999312 -199.997696 2109.999268
v 309.999298 -199.997696 2109.999512
v -1989.689819 -999.990295 8458.500000
v -1989.689941 -999.989746 9037.250000
v -1417.127808 -999.990295 8458.501953
v -1417.127930 -999.989746 9037.251953
v -845.127625 -999.989746 9037.251953
v -106.172348 -999.989746 9037.250000
v 835.586853 -999.990295 8458.500000
v 835.586792 -999.989746 9037.250000
v 1777.345093 -999.989746 9037.250977
v 2592.466309 -999.989746 9037.250977
v 3454.997314 -999.990295 8458.500977
v 3454.997070 -999.989746 9037.250977
v 4023.060303 -999.989746 9037.251953
v 4023.060547 -999.990295 8458.501953
v 4602.622070 -999.990295 8458.501953
v 4602.622070 -999.989746 9037.251953
v 4602.622559 -999.990967 7890.001465
v 4023.060547 -999.990967 7890.001465
v 3454.997314 -999.990967 7890.001465
v 2592.466553 -999.990967 7890.000977
v 2592.466553 -999.990295 8458.500977
v 1777.345215 -999.990295 8458.500977
v 1777.345459 -999.990967 7890.000977
v -106.172157 -999.990295 8458.500000
v 835.586975 -999.990967 7890.000488
v -106.172081 -999.990967 7890.000000
v -845.127625 -999.990295 8458.500000
v -845.127441 -999.990967 7890.000000
v -1417.127563 -999.990967 7889.999512
v -1989.689575 -999.990967 7889.999512
v -1417.501465 -999.995850 4570.062988
v -854.996582 -999.995850 4570.063477
v -1417.501953 -999.994141 6015.624512
v -854.995789 -999.995728 5462.844727
v -854.994873 -999.995239 6015.625000
v -1417.502197 -999.994385 6643.749512
v -854.990784 -999.995361 6643.750000
v -1417.502563 -999.993958 7890.009277
v -854.986694 -999.995850 7271.875000
v -854.982727 -999.995972 7890.020508
v -1990.002563 -999.990967 7889.999512
v -1990.002319 -999.991760 7271.874512
v -1417.502319 -999.993774 7271.874512
v -1990.002197 -999.992371 6643.749512
v -1417.501831 -999.994690 5462.844238
v -1990.001953 -999.993164 6015.624512
v -1990.001831 -999.993713 5462.844238
v -1990.001465 -999.994873 4570.062988
v 3454.977295 -999.995972 7890.021973
v 3454.981445 -999.995850 7271.876465
v 3454.986816 -999.995361 6643.751465
v 3454.990967 -999.995239 6015.626465
v 3454.992188 -999.995728 5462.846191
v 4017.498291 -999.995361 4910.064941
v 3454.993408 -999.995361 4910.064941
v 3454.995850 -999.996399 4100.501953
v 4017.498779 -999.995422 4100.501953
v 4589.998535 -999.995422 4100.501953
v 4589.998535 -999.994385 4910.064941
v 4017.498291 -999.994690 5462.846191
v 4589.998047 -999.993713 5462.846191
v 4017.498047 -999.994141 6015.626465
v 4017.497803 -999.994385 6643.751465
v 4589.998047 -999.993164 6015.626465
v 4589.998047 -999.992371 6643.751465
v 4017.497559 -999.993774 7271.876465
v 4589.997559 -999.991760 7271.876465
v 4017.497314 -999.993958 7890.011230
v 4589.997559 -999.990967 7890.001465
v -2000.124756 99.998909 -695.002075
v -1420.562622 99.998695 -1263.501709
v -852.499573 99.998695 -1263.501465
v -1420.562744 99.998909 -695.001709
v 10.031476 99.998909 -695.001099
v 1060.125366 99.998695 -1263.500854
v 1060.125244 99.998909 -695.000793
v 2000.625244 99.998909 -695.000488
v 2872.688477 99.998909 -695.000183
v 2872.688721 99.998695 -1263.500244
v 3445.250244 99.998909 -695.000000
v 3445.250488 99.998695 -1263.500122
v 3445.250488 99.997871 -1842.250488
v 2872.688721 99.997871 -1842.250610
v 2000.625366 99.998695 -1263.500610
v 2000.625610 99.997871 -1842.250977
v 1060.125610 99.997871 -1842.251221
v 10.031662 99.998695 -1263.501221
v 10.031850 99.997871 -1842.251587
v -852.499390 99.997871 -1842.251831
v -1420.562378 99.997871 -1842.252075
v -2000.124390 99.997871 -1842.252197
v -2000.124634 99.998695 -1263.501831
v -2000.000610 100.002274 1959.997925
v -1421.250610 100.002274 1959.998047
v -2000.001343 -19.995436 4039.997803
v -2000.000488 100.001968 1589.372925
v -2000.000366 100.001137 961.248108
v -2000.000122 100.000053 333.122986
v -1421.249756 99.998909 -695.001709
v -1999.999756 99.998909 -695.001892
v -852.500671 -19.997704 2109.998291
v -852.500916 -19.996607 2845.623291
v -852.501160 -19.996382 3473.748291
v -1421.251343 -19.995436 4039.998047
v -852.501343 -19.995436 4039.998291
v -2000.001343 -89.995438 4049.997803
v -2000.001465 -89.994621 4559.998535
v -1421.251343 -89.995438 4049.998047
v -1421.251465 -89.994621 4559.998535
v -852.501465 -89.994621 4559.998535
v -852.501343 -89.995438 4049.998291
v -1421.250732 -19.997704 2109.998047
v -2000.000732 -19.997704 2109.997803
v -2000.000977 -19.996607 2845.622803
v -1421.250122 100.000053 333.123169
v -852.499756 99.998909 -695.001526
v -852.500122 100.000053 333.123352
v -1421.250366 100.001137 961.248291
v -852.500305 100.001137 961.248474
v -1421.250488 100.001968 1589.373047
v -852.500488 100.001968 1589.373291
v -852.500610 100.002274 1959.998291
v -1421.251099 -19.996382 3473.748047
v -1421.250977 -19.996607 2845.623047
v -2000.001099 -19.996382 3473.747803
v 3444.998047 -1269.992920 6290.001465
v 1039.997925 -1269.992920 6290.000488
v 3444.998535 -1269.994629 4780.001953
v 1039.998413 -1269.994629 4780.000977
v -845.001587 -1269.994629 4780.000488
v -845.002075 -1269.992920 6290.000000
v -845.002197 -1469.992310 6690.000000
v -845.002563 -1469.990967 7880.000000
v 1039.997803 -1469.992310 6690.000488
v 3444.997314 -1469.990967 7880.001465
v 3444.997803 -1469.992310 6690.001465
v 1039.997437 -1469.990967 7880.000488
v 1019.998474 -669.994690 4710.000488
v -845.001526 -669.994385 4770.000000
v 1039.998413 -669.994385 4770.000488
v 3444.998535 -669.994690 4710.001465
v 3444.998535 -669.994385 4770.001465
v 1019.998535 -669.994873 4570.000488
v -845.001465 -669.994873 4570.000000
v 2872.499512 100.000137 1589.374512
v 2309.977539 99.996262 1760.021240
v 2309.985596 99.998184 1589.374268
v 2872.499512 100.001305 1277.455811
v 2308.013916 100.001137 961.249512
v 2304.007324 100.000053 333.124390
v 2300.000244 99.998909 -695.000488
v 2309.978516 0.000156 4700.019531
v 2872.498779 0.002377 4101.874512
v 2309.982666 0.000302 4101.874512
v 2309.987793 0.000688 3473.749268
v 2872.498779 0.002153 3473.749512
v 2309.991943 0.001441 2845.624268
v 2872.499023 0.002417 2845.624512
v 2309.996338 0.001582 2217.499268
v 2299.999512 0.002119 1769.999268
v 2872.499512 0.002119 1769.999512
v 3444.999512 0.002119 1769.999634
v 2872.499268 0.002070 2217.499512
v 3444.999268 0.002314 2217.499756
v 3444.999023 0.003394 2845.624756
v 3444.998779 0.003740 3473.749756
v 2872.498535 0.002841 4700.009277
v 3444.998779 0.004574 4101.874512
v 3444.998535 0.005527 4699.999512
v 2872.500244 99.998909 -695.000305
v 2872.500000 100.000053 333.124573
v 3445.000244 99.998909 -695.000122
v 3445.000000 100.000053 333.124756
v 2872.499756 100.001137 961.249695
v 3444.999756 100.001137 961.249878
v 3444.999512 100.001305 1282.499878
v 3444.999512 100.002090 1589.374634
v 2872.499512 99.999191 1760.010498
v 3444.999512 100.002121 1759.999634
vt -35.957962 8.963515
vt -35.957962 -1.550798
vt -27.240196 8.997494
vt -27.240196 -1.550870
vt -21.914143 9.031466
vt -21.914143 -1.550935
vt -19.274965 9.048307
vt -19.274796 -1.550971
vt -15.056522 -1.635594
vt -15.056522 -7.910262
vt -12.173566 -7.910262
vt -15.056522 8.963515
vt -12.173566 -1.635594
vt -12.173566 8.963515
vt -11.262037 8.963515
vt -11.262037 -1.635594
vt -10.138535 8.963515
vt -10.138535 -1.635594
vt -8.866643 -1.635594
vt -8.866643 -7.910262
vt -5.935988 -1.635594
vt -5.935988 -7.910262
vt -0.609939 -1.635594
vt -0.609939 -7.910262
vt 4.191461 -1.635594
vt 4.191461 -7.910262
vt -11.262037 -7.910262
vt -10.138535 -7.910262
vt -12.173566 -10.454053
vt -12.173566 -17.682646
vt -11.262037 -10.454053
vt -11.262037 -17.682646
vt -10.138535 -10.454053
vt -10.138535 -17.682646
vt -8.866643 -17.682646
vt -15.124212 -17.682646
vt -13.445454 -17.682646
vt -15.141313 -10.454053
vt -13.445454 -10.454053
vt -15.141313 -1.635594
vt -15.141313 8.963515
vt -16.588089 -1.635594
vt -16.588089 8.963515
vt -19.190170 -1.635594
vt -19.190170 8.963515
vt -16.588089 -7.910262
vt -16.588089 -10.454053
vt -15.141313 -7.910262
vt -16.588089 -17.682646
vt 4.276253 -7.910262
vt 8.600680 -1.805182
vt 4.276253 -1.635594
vt 8.585795 8.963508
vt 9.787786 -1.805182
vt 9.787786 8.963508
vt 8.600680 -17.682646
vt 8.600680 -10.454053
vt 4.276253 -17.682646
vt 4.276253 -10.454053
vt 8.600680 -7.910262
vt 4.276253 8.963508
vt -21.914143 -1.635594
vt -21.914143 -7.910262
vt -21.914143 -17.682642
vt -21.914143 -10.454053
vt -27.240192 -17.682642
vt -27.240192 -10.454053
vt -27.240192 -7.910262
vt -27.240192 -1.635594
vt -8.866643 -10.454053
vt -5.935988 -10.454053
vt -5.935988 -17.682646
vt -0.609939 -10.454053
vt -0.609939 -17.682646
vt 4.191461 -10.454053
vt 4.191461 -17.682646
vt 4.191461 8.963508
vt -0.609939 8.963508
vt -5.935988 8.963508
vt -8.866643 8.963508
vt -35.957962 -1.635590
vt -35.957962 -7.910259
vt -35.957962 -10.454050
vt -35.957962 -17.682642
vt 41.657177 -27.409969
vt 46.564568 -27.409969
vt 41.657188 -22.555048
vt 46.564587 -22.555048
vt 41.657177 -17.704905
vt 46.564587 -17.704897
vt 41.657177 -11.439085
vt 46.564568 -11.439085
vt 41.657177 -3.453645
vt 46.564568 -3.453645
vt 41.657177 4.531795
vt 46.564568 4.531795
vt 41.657177 11.443439
vt 46.564568 11.443439
vt 41.657177 18.757086
vt 46.564568 18.757086
vt 41.657177 23.573854
vt 46.564568 23.573854
vt 41.657177 28.488129
vt 46.564568 28.488129
vt 36.836712 28.488129
vt 36.836712 23.573854
vt 36.836712 18.757086
vt 36.836712 11.443439
vt 36.836712 4.531795
vt 36.836712 -3.453645
vt 36.836712 -11.439093
vt 36.836712 -17.704905
vt 36.836712 -22.555048
vt 36.836712 -27.409969
vt 8.686016 -22.558228
vt 16.256166 -22.558228
vt 8.686016 -17.788593
vt 16.256174 -17.788580
vt 20.943346 -22.558229
vt 20.943346 -17.788584
vt 26.269402 -22.558229
vt 26.269402 -17.788544
vt 31.595449 -22.558229
vt 31.595449 -17.788504
vt 36.836788 -22.558229
vt 36.836880 -17.788471
vt 36.836712 -27.412619
vt 31.595449 -27.412624
vt 26.269402 -27.412621
vt 20.943346 -27.412621
vt 16.256166 -27.412621
vt 8.686016 -27.412621
vt 36.836788 23.526680
vt 31.595449 23.526680
vt 36.836880 18.756918
vt 31.595449 18.756948
vt 26.269405 23.526680
vt 26.269402 18.756994
vt 20.943352 23.526680
vt 20.943346 18.757021
vt 16.256174 23.526680
vt 16.256174 18.757034
vt 11.568975 23.526680
vt 11.568975 18.757048
vt 4.704463 23.526680
vt 4.704463 18.757061
vt 4.704463 28.381081
vt 11.568975 28.381081
vt 16.256174 28.381081
vt 20.943352 28.381081
vt 26.269405 28.381081
vt 31.595449 28.381081
vt 36.836712 28.381081
vt -40.778435 -27.498476
vt -35.957962 -27.498478
vt -40.778435 -22.584196
vt -35.957962 -22.584196
vt -40.778435 -17.767435
vt -35.957962 -17.767435
vt -40.778435 -10.453781
vt -35.957954 -10.453781
vt -40.778435 -1.549737
vt -35.957954 -1.549737
vt -40.778435 6.425033
vt -35.957954 6.425033
vt -40.778435 13.819500
vt -35.957954 13.819500
vt -40.778435 18.674416
vt -35.957954 18.674416
vt -45.685825 18.674416
vt -45.685825 13.819500
vt -45.685825 6.425033
vt -45.685825 -1.549737
vt -45.685833 -10.453781
vt -45.685833 -17.767435
vt -45.685833 -22.584196
vt -45.685833 -27.498476
vt -16.588100 -27.497410
vt -13.445462 -27.497410
vt -16.588100 -22.590025
vt -13.445462 -22.590025
vt -0.609939 -27.497410
vt 4.191461 -27.497410
vt -0.609939 -22.590025
vt 4.191461 -22.590025
vt -21.914146 -22.590023
vt -21.914146 -27.497410
vt -27.240196 -22.590023
vt -27.240198 -27.497410
vt -35.957962 -22.590023
vt -35.957962 -27.497410
vt -12.173566 -22.590025
vt -5.935988 -22.590025
vt -12.173566 -17.767437
vt -5.935988 -17.767437
vt -0.609939 -17.767437
vt 4.191461 -17.767437
vt 4.276253 -27.497410
vt 8.600680 -27.497410
vt 4.276253 -22.590025
vt 8.600680 -22.590025
vt 4.276253 -17.767437
vt 8.600680 -17.767437
vt -5.935988 -27.497410
vt -12.173566 -27.497410
vt -27.240196 -17.767435
vt -21.914143 -17.767435
vt -16.588099 -17.767437
vt -13.445457 -17.767437
vt 23.269855 18.672295
vt 10.466139 18.672295
vt 23.269855 -1.720389
vt 10.466139 -1.720389
vt 23.269855 -17.703850
vt 10.466132 -17.703848
vt 26.661560 -17.703850
vt 36.751919 -17.703850
vt 26.661560 -1.720389
vt 36.751919 -1.720389
vt 36.751919 18.672295
vt 26.661560 18.672295
vt 8.685480 -17.703848
vt 10.381332 -17.703848
vt 9.872580 -1.889971
vt 10.381332 -1.720389
vt 9.872586 18.672295
vt 10.381340 18.672295
vt 8.685486 -1.889971
vt -15.141221 13.817909
vt -16.588099 13.817909
vt -15.141125 9.048118
vt -16.588099 9.048189
vt -19.232944 13.817909
vt -21.914143 13.817909
vt -27.240196 13.817909
vt -35.957962 13.817909
vt 9.787871 13.817909
vt 4.716108 13.817909
vt 9.787957 9.048138
vt 4.716108 9.048170
vt -0.609939 13.817909
vt -0.609939 9.048209
vt -5.935988 13.817909
vt -5.935988 9.048248
vt -11.262037 13.817909
vt -11.262037 9.048281
vt -15.056522 13.817909
vt -15.056522 8.963515
vt -15.056522 18.672295
vt -11.262037 18.672295
vt -5.935988 18.672295
vt -0.609939 18.672295
vt 4.716108 18.672295
vt 9.787786 18.672295
vt -35.957962 18.672295
vt -27.240196 18.672295
vt -21.914143 18.672295
vt -19.190170 18.672295
vt -16.588099 18.672295
vt -15.141315 18.672295
vn 0.0000 1.0000 -0.0000
vn -0.0000 0.9978 0.0662
usemtl None.001
s 1
f 232/1/1 1/2/1 231/3/1
f 1/2/1 2/4/1 231/3/1
f 231/3/1 2/4/1 230/5/1
f 2/4/1 3/6/1 230/5/1
f 230/5/1 3/6/1 4/7/1
f 3/6/1 5/8/1 4/7/1
f 6/9/1 7/10/1 81/11/1
f 16/12/1 9/13/1 8/14/1
f 8/14/1 9/13/1 10/15/1
f 9/13/1 17/16/1 10/15/1
f 10/15/1 17/16/1 11/17/2
f 17/16/1 18/18/2 11/17/2
f 11/17/2 18/18/2 12/19/2
f 18/18/2 20/20/2 12/19/2
f 12/19/2 20/20/2 63/21/1
f 20/20/2 75/22/1 63/21/1
f 63/21/1 75/22/1 13/23/1
f 75/22/1 14/24/1 13/23/1
f 13/23/1 14/24/1 15/25/1
f 14/24/1 74/26/1 15/25/1
f 16/12/1 6/9/1 9/13/1
f 6/9/1 81/11/1 9/13/1
f 9/13/1 81/11/1 17/16/1
f 81/11/1 79/27/1 17/16/1
f 17/16/1 79/27/1 18/18/2
f 79/27/1 19/28/2 18/18/2
f 18/18/2 19/28/2 20/20/2
f 80/29/1 21/30/1 78/31/1
f 21/30/1 23/32/1 78/31/1
f 78/31/1 23/32/1 22/33/2
f 23/32/1 24/34/2 22/33/2
f 22/33/2 24/34/2 56/35/2
f 25/36/1 26/37/1 28/38/1
f 26/37/1 27/39/1 28/38/1
f 50/40/1 29/41/1 49/42/1
f 29/41/1 30/43/1 49/42/1
f 49/42/1 30/43/1 47/44/1
f 30/43/1 31/45/1 47/44/1
f 32/46/1 33/47/1 51/48/1
f 51/48/1 33/47/1 28/38/1
f 33/47/1 34/49/1 28/38/1
f 28/38/1 34/49/1 25/36/1
f 45/50/1 36/51/1 35/52/1
f 35/52/1 36/51/1 38/53/1
f 36/51/1 37/54/1 38/53/1
f 38/53/1 37/54/1 39/55/1
f 40/56/1 41/57/1 42/58/1
f 42/58/1 41/57/1 43/59/1
f 41/57/1 44/60/1 43/59/1
f 43/59/1 44/60/1 45/50/1
f 44/60/1 36/51/1 45/50/1
f 46/61/1 35/52/1 38/53/1
f 53/62/1 48/63/1 47/44/1
f 47/44/1 48/63/1 49/42/1
f 48/63/1 32/46/1 49/42/1
f 49/42/1 32/46/1 50/40/1
f 32/46/1 51/48/1 50/40/1
f 55/64/1 54/65/1 52/66/1
f 52/66/1 54/65/1 71/67/1
f 54/65/1 48/63/1 71/67/1
f 71/67/1 48/63/1 70/68/1
f 48/63/1 53/62/1 70/68/1
f 70/68/1 53/62/1 67/69/1
f 48/63/1 54/65/1 32/46/1
f 32/46/1 54/65/1 33/47/1
f 54/65/1 55/64/1 33/47/1
f 33/47/1 55/64/1 34/49/1
f 22/33/2 56/35/2 77/70/2
f 77/70/2 56/35/2 76/71/1
f 56/35/2 57/72/1 76/71/1
f 76/71/1 57/72/1 59/73/1
f 57/72/1 58/74/1 59/73/1
f 59/73/1 58/74/1 73/75/1
f 58/74/1 60/76/1 73/75/1
f 15/25/1 61/77/1 13/23/1
f 61/77/1 62/78/1 13/23/1
f 13/23/1 62/78/1 63/21/1
f 62/78/1 64/79/1 63/21/1
f 63/21/1 64/79/1 12/19/2
f 64/79/1 65/80/2 12/19/2
f 12/19/2 65/80/2 11/17/2
f 66/81/1 68/82/1 67/69/1
f 67/69/1 68/82/1 70/68/1
f 68/82/1 69/83/1 70/68/1
f 70/68/1 69/83/1 71/67/1
f 69/83/1 72/84/1 71/67/1
f 71/67/1 72/84/1 52/66/1
f 73/75/1 74/26/1 59/73/1
f 74/26/1 14/24/1 59/73/1
f 59/73/1 14/24/1 76/71/1
f 14/24/1 75/22/1 76/71/1
f 76/71/1 75/22/1 77/70/2
f 75/22/1 20/20/2 77/70/2
f 77/70/2 20/20/2 22/33/2
f 20/20/2 19/28/2 22/33/2
f 22/33/2 19/28/2 78/31/1
f 19/28/2 79/27/1 78/31/1
f 78/31/1 79/27/1 80/29/1
f 79/27/1 81/11/1 80/29/1
f 82/85/1 83/86/1 84/87/1
f 83/86/1 85/88/1 84/87/1
f 84/87/1 85/88/1 108/89/1
f 85/88/1 86/90/1 108/89/1
f 108/89/1 86/90/1 105/91/1
f 86/90/1 87/92/1 105/91/1
f 105/91/1 87/92/1 88/93/1
f 87/92/1 89/94/1 88/93/1
f 88/93/1 89/94/1 103/95/1
f 89/94/1 90/96/1 103/95/1
f 103/95/1 90/96/1 102/97/1
f 90/96/1 91/98/1 102/97/1
f 102/97/1 91/98/1 92/99/1
f 91/98/1 93/100/1 92/99/1
f 92/99/1 93/100/1 95/101/1
f 93/100/1 94/102/1 95/101/1
f 95/101/1 94/102/1 96/103/1
f 94/102/1 97/104/1 96/103/1
f 96/103/1 98/105/1 95/101/1
f 98/105/1 99/106/1 95/101/1
f 95/101/1 99/106/1 92/99/1
f 99/106/1 100/107/1 92/99/1
f 92/99/1 100/107/1 102/97/1
f 100/107/1 101/108/1 102/97/1
f 102/97/1 101/108/1 103/95/1
f 101/108/1 104/109/1 103/95/1
f 103/95/1 104/109/1 88/93/1
f 104/109/1 106/110/1 88/93/1
f 88/93/1 106/110/1 105/91/1
f 106/110/1 107/111/1 105/91/1
f 105/91/1 107/111/1 108/89/1
f 107/111/1 109/112/1 108/89/1
f 108/89/1 109/112/1 84/87/1
f 109/112/1 110/113/1 84/87/1
f 84/87/1 110/113/1 82/85/1
f 110/113/1 111/114/1 82/85/1
f 112/115/1 126/116/1 113/117/1
f 113/117/1 126/116/1 115/118/1
f 126/116/1 114/119/1 115/118/1
f 115/118/1 114/119/1 116/120/1
f 114/119/1 117/121/1 116/120/1
f 116/120/1 117/121/1 118/122/1
f 117/121/1 124/123/1 118/122/1
f 118/122/1 124/123/1 120/124/1
f 124/123/1 119/125/1 120/124/1
f 120/124/1 119/125/1 121/126/1
f 119/125/1 124/123/1 122/127/1
f 122/127/1 124/123/1 123/128/1
f 124/123/1 117/121/1 123/128/1
f 123/128/1 117/121/1 125/129/1
f 117/121/1 114/119/1 125/129/1
f 125/129/1 114/119/1 127/130/1
f 114/119/1 126/116/1 127/130/1
f 127/130/1 126/116/1 128/131/1
f 126/116/1 112/115/1 128/131/1
f 128/131/1 112/115/1 129/132/1
f 149/133/1 147/134/1 130/135/1
f 130/135/1 147/134/1 131/136/1
f 147/134/1 144/137/1 131/136/1
f 131/136/1 144/137/1 132/138/1
f 144/137/1 143/139/1 132/138/1
f 132/138/1 143/139/1 133/140/1
f 143/139/1 141/141/1 133/140/1
f 133/140/1 141/141/1 134/142/1
f 141/141/1 135/143/1 134/142/1
f 134/142/1 135/143/1 136/144/1
f 135/143/1 138/145/1 136/144/1
f 136/144/1 138/145/1 137/146/1
f 138/145/1 135/143/1 139/147/1
f 139/147/1 135/143/1 140/148/1
f 135/143/1 141/141/1 140/148/1
f 140/148/1 141/141/1 142/149/1
f 141/141/1 143/139/1 142/149/1
f 142/149/1 143/139/1 145/150/1
f 143/139/1 144/137/1 145/150/1
f 145/150/1 144/137/1 146/151/1
f 144/137/1 147/134/1 146/151/1
f 146/151/1 147/134/1 148/152/1
f 147/134/1 149/133/1 148/152/1
f 148/152/1 149/133/1 150/153/1
f 173/154/1 151/155/1 152/156/1
f 151/155/1 154/157/1 152/156/1
f 152/156/1 154/157/1 153/158/1
f 154/157/1 197/159/1 153/158/1
f 153/158/1 197/159/1 168/160/1
f 197/159/1 155/161/1 168/160/1
f 168/160/1 155/161/1 156/162/1
f 155/161/1 157/163/1 156/162/1
f 156/162/1 157/163/1 165/164/1
f 157/163/1 158/165/1 165/164/1
f 165/164/1 158/165/1 160/166/1
f 158/165/1 159/167/1 160/166/1
f 160/166/1 159/167/1 162/168/1
f 159/167/1 161/169/1 162/168/1
f 162/168/1 163/170/1 160/166/1
f 163/170/1 164/171/1 160/166/1
f 160/166/1 164/171/1 165/164/1
f 164/171/1 166/172/1 165/164/1
f 165/164/1 166/172/1 156/162/1
f 166/172/1 167/173/1 156/162/1
f 156/162/1 167/173/1 168/160/1
f 167/173/1 169/174/1 168/160/1
f 168/160/1 169/174/1 153/158/1
f 169/174/1 170/175/1 153/158/1
f 153/158/1 170/175/1 152/156/1
f 170/175/1 171/176/1 152/156/1
f 152/156/1 171/176/1 173/154/1
f 171/176/1 172/177/1 173/154/1
f 177/178/1 174/179/1 201/180/1
f 174/179/1 175/181/1 201/180/1
f 206/182/1 176/183/1 204/184/1
f 176/183/1 185/185/1 204/184/1
f 201/180/1 199/186/1 177/178/1
f 177/178/1 199/186/1 178/187/1
f 199/186/1 196/188/1 178/187/1
f 178/187/1 196/188/1 179/189/1
f 196/188/1 180/190/1 179/189/1
f 179/189/1 180/190/1 181/191/1
f 193/192/1 205/193/1 182/194/1
f 182/194/1 205/193/1 183/195/1
f 205/193/1 204/184/1 183/195/1
f 183/195/1 204/184/1 184/196/1
f 204/184/1 185/185/1 184/196/1
f 184/196/1 185/185/1 186/197/1
f 187/198/1 188/199/1 189/200/1
f 188/199/1 190/201/1 189/200/1
f 189/200/1 190/201/1 192/202/1
f 190/201/1 191/203/1 192/202/1
f 205/193/1 193/192/1 195/204/1
f 193/192/1 194/205/1 195/204/1
f 180/190/1 196/188/1 197/159/1
f 197/159/1 196/188/1 198/206/1
f 196/188/1 199/186/1 198/206/1
f 198/206/1 199/186/1 200/207/1
f 199/186/1 201/180/1 200/207/1
f 200/207/1 201/180/1 202/208/1
f 201/180/1 175/181/1 202/208/1
f 202/208/1 175/181/1 203/209/1
f 204/184/1 205/193/1 206/182/1
f 205/193/1 195/204/1 206/182/1
f 207/210/1 209/211/1 208/212/1
f 209/211/1 210/213/1 208/212/1
f 208/212/1 210/213/1 212/214/1
f 210/213/1 211/215/1 212/214/1
f 213/216/1 214/217/1 215/218/1
f 214/217/1 218/219/1 215/218/1
f 216/220/1 217/221/1 218/219/1
f 217/221/1 215/218/1 218/219/1
f 225/222/1 220/223/1 219/224/1
f 220/223/1 221/225/1 219/224/1
f 219/224/1 221/225/1 222/226/1
f 221/225/1 223/227/1 222/226/1
f 219/224/1 224/228/1 225/222/1
f 259/229/1 226/230/1 227/231/1
f 227/231/1 226/230/1 228/232/1
f 226/230/1 229/233/1 228/232/1
f 228/232/1 229/233/1 4/7/1
f 229/233/1 255/234/1 4/7/1
f 4/7/1 255/234/1 230/5/1
f 255/234/1 252/235/1 230/5/1
f 230/5/1 252/235/1 231/3/1
f 252/235/1 251/236/1 231/3/1
f 231/3/1 251/236/1 232/1/1
f 248/237/1 234/238/1 233/239/1
f 233/239/1 234/238/1 235/240/1
f 234/238/1 237/241/1 235/240/1
f 235/240/1 237/241/1 236/242/1
f 237/241/1 239/243/1 236/242/1
f 236/242/1 239/243/1 238/244/1
f 239/243/1 244/245/1 238/244/1
f 238/244/1 244/245/1 240/246/1
f 244/245/1 242/247/1 240/246/1
f 240/246/1 242/247/1 241/248/1
f 242/247/1 244/245/1 243/249/1
f 243/249/1 244/245/1 245/250/1
f 244/245/1 239/243/1 245/250/1
f 245/250/1 239/243/1 246/251/1
f 239/243/1 237/241/1 246/251/1
f 246/251/1 237/241/1 247/252/1
f 237/241/1 234/238/1 247/252/1
f 247/252/1 234/238/1 249/253/1
f 234/238/1 248/237/1 249/253/1
f 249/253/1 248/237/1 250/254/1
f 251/236/1 252/235/1 253/255/1
f 253/255/1 252/235/1 254/256/1
f 252/235/1 255/234/1 254/256/1
f 254/256/1 255/234/1 256/257/1
f 255/234/1 229/233/1 256/257/1
f 256/257/1 229/233/1 257/258/1
f 229/233/1 226/230/1 257/258/1
f 257/258/1 226/230/1 258/259/1
f 226/230/1 259/229/1 258/259/1
f 258/259/1 259/229/1 260/260/1
