mtllib Sky.mtl
v 2966.842041 -742.184204 -1228.906006
v 2966.748779 0.000305 -1228.867188
v 2275.752441 -742.183899 -2275.752441
v 2275.681152 0.000671 -2275.681152
v 1228.906006 -742.183655 -2966.842041
v 1228.867432 0.000916 -2966.748535
v -0.000091 -742.183594 -3218.399902
v -0.000091 0.001038 -3218.299316
v -1228.906006 -742.183655 -2966.841797
v -1228.867432 0.000916 -2966.748535
v -2275.752441 -742.183899 -2275.752441
v -2275.681152 0.000671 -2275.681152
v -2966.841797 -742.184204 -1228.905884
v -2966.748535 0.000305 -1228.867065
v -3218.399902 -742.184631 0.000163
v -3218.299316 -0.000061 0.000405
v -2966.841797 -742.185059 1228.906006
v -2966.748535 -0.000427 1228.867676
v -2275.752197 -742.185364 2275.752441
v -2275.680908 -0.000793 2275.681152
v -1228.905884 -742.185608 2966.842041
v -1228.86731 -0.001038 2966.748535
v 0.000208 -742.185669 3218.400146
v 0.000208 -0.00116 3218.299316
v 1228.906128 -742.185608 2966.842041
v 1228.867554 -0.001038 2966.748535
v 2275.752441 -742.185364 2275.752441
v 2275.681152 -0.000793 2275.681152
v 2966.842041 -742.185059 1228.906006
v 2966.748779 -0.000427 1228.867676
v 3218.400146 -742.184631 -0.000136
v 3218.299316 -0.000061 0.000106
v 2644.194336 629.19397 -1095.260376
v 2028.261841 629.194458 -2028.261353
v 1095.260986 629.194702 -2644.193604
v -0.000075 629.194702 -2868.394775
v -1095.260742 629.194702 -2644.193604
v -2028.261597 629.194458 -2028.261108
v -2644.194092 629.19397 -1095.260254
v -2868.39502 629.193726 0.000593
v -2644.194092 629.193481 1095.26123
v -2028.261475 629.192993 2028.262085
v -1095.26062 629.192749 2644.19458
v 0.000191 629.192749 2868.395752
v 1095.260742 629.192749 2644.19458
v 2028.261719 629.192993 2028.262085
v 2644.194336 629.193481 1095.261353
v 2868.395508 629.193726 0.000326
v 2673.026855 -1566.009033 -1119.239136
v 2899.672607 -1566.009399 -0.000389
v 2673.026855 -1566.009766 1119.238525
v 2050.378418 -1566.010132 2072.664551
v 1107.203979 -1566.010254 2702.080811
v 0.000194 -1566.010376 2931.19043
v -1107.203735 -1566.010254 2702.080811
v -2050.378174 -1566.010132 2072.664551
v -2673.026611 -1566.009766 1119.238647
v -2899.672607 -1566.009399 -0.00012
v -2673.026611 -1566.009033 -1119.239014
v -2050.378174 -1566.008667 -2072.665283
v -1107.203857 -1566.008545 -2702.081787
v -0.000078 -1566.008423 -2931.191406
v 1107.203857 -1566.008545 -2702.081787
v 2050.378174 -1566.008667 -2072.665527
v 2379.920654 -2019.294189 -996.511108
v 2581.714111 -2019.294434 -0.000522
v 2379.920654 -2019.294678 996.510132
v 1825.547852 -2019.294922 1845.389771
v 985.795532 -2019.295166 2405.78833
v 0.000179 -2019.295166 2609.775635
v -985.795105 -2019.295166 2405.78833
v -1825.547729 -2019.294922 1845.389893
v -2379.920654 -2019.294678 996.510437
v -2581.713867 -2019.294434 -0.000283
v -2379.920654 -2019.294189 -996.510803
v -1825.547729 -2019.293945 -1845.390747
v -985.79541 -2019.293701 -2405.789307
v -0.000063 -2019.293701 -2609.776611
v 985.795227 -2019.293701 -2405.789307
v 1825.547729 -2019.293945 -1845.390747
v -685.827576 1049.607178 1655.734863
v -1270.05127 1049.607178 1270.05188
v 0.000058 1197.237061 0.000645
v -1655.734253 1049.607422 685.828247
v -1796.124023 1049.607666 0.000681
v -1655.734253 1049.60791 -685.827026
v -1270.051392 1049.608154 -1270.050903
v -685.827576 1049.608154 -1655.733765
v 1270.051514 1049.607178 1270.05188
v 685.827698 1049.607178 1655.734863
v 0.000142 1049.607178 1796.124634
v -0.000025 1049.608154 -1796.123535
v 685.827698 1049.608154 -1655.733765
v 1270.051392 1049.608154 -1270.050903
v 1655.734375 1049.60791 -685.827087
v 1796.124268 1049.607666 0.000514
v 1655.734375 1049.607422 685.828247
v -776.991821 -2140.141357 -785.438171
v -1098.832642 -2140.141602 -0.000392
v 0.000058 -2255.321289 -0.000481
v -1012.945129 -2140.141357 -424.136597
v -1012.945129 -2140.141846 424.135925
v 1098.832764 -2140.141602 -0.000494
v 1012.945251 -2140.141846 424.135773
v 1012.945251 -2140.141357 -424.136749
v 0.000007 -2140.141357 -1110.776978
v -419.575836 -2140.141357 -1023.956116
v 0.00011 -2140.141846 1110.776001
v 419.575958 -2140.141846 1023.9552
v 776.991943 -2140.141846 785.437256
v -776.991821 -2140.141846 785.437256
v -419.575684 -2140.141846 1023.9552
v 776.991943 -2140.141357 -785.438232
v 419.575806 -2140.141357 -1023.956177
vt 0.588235 0.588235
vt 1.403922 1.4
vt 1.239216 0.156863
vt 1.152941 2.003922
vt 2.007843 2.003922
vt 1.219608 1.678431
vt 1.219608 2.329412
vt 2.862745 2.003922
vt 2.796079 2.329412
vt 2.796079 1.678431
vt 2.007843 1.14902
vt 1.682353 1.215686
vt 2.007843 2.858824
vt 2.333333 2.792157
vt 2.611765 2.607843
vt 0.156863 1.235294
vt 0 2.003922
vt 0.156863 2.772549
vt 1.403922 2.607843
vt 0.588235 3.42353
vt 1.682353 2.792157
vt 1.239216 3.854902
vt 2.007843 4.011765
vt 2.776471 3.854902
vt 3.427451 3.42353
vt 3.858824 2.772549
vt 4.015687 2.003922
vt 3.858824 1.235294
vt 2.611765 1.4
vt 3.427451 0.588235
vt 2.333333 1.215686
vt 2.776471 0.156863
vt 2.007843 0
vt 3.819608 7.913726
vt 2.796079 7.239216
vt 5.019608 5.015687
vt 2.121569 6.215687
vt 1.87451 5.015687
vt 2.121569 3.815686
vt 2.796079 2.792157
vt 3.819608 2.117647
vt 7.243138 7.239216
vt 6.219608 7.913726
vt 5.019608 8.160785
vt 1.470588 8.564707
vt 0.392157 6.933334
vt 0 5.015687
vt 0.392157 3.098039
vt 1.470588 1.466667
vt 3.101961 0.392157
vt 5.019608 1.870588
vt 5.019608 0
vt 6.219608 2.117647
vt 6.937255 0.392157
vt 7.243138 2.792157
vt 8.568628 1.466667
vt 7.917647 3.815686
vt 9.647059 3.098039
vt 8.164706 5.015687
vt 10.039216 5.015687
vt 7.917647 6.215687
vt 9.647059 6.933334
vt 8.568628 8.564707
vt 6.937255 9.643138
vt 5.019608 10.035295
vt 3.101961 9.643138
vt 2.823529 0.985352
vt 0 0.454902
vt 0 0.752941
vt 0.313726 0.454902
vt 0.313726 0.752941
vt 0.627451 0.454902
vt 0.627451 0.752941
vt 0.941177 0.454902
vt 0.941177 0.752941
vt 1.254902 0.454902
vt 1.254902 0.752941
vt 1.568628 0.454902
vt 1.568628 0.752941
vt 1.882353 0.454902
vt 1.882353 0.752941
vt 2.196079 0.454902
vt 2.196079 0.752941
vt 2.509804 0.454902
vt 2.509804 0.752941
vt 2.823529 0.454902
vt 2.823529 0.752941
vt 3.137255 0.454902
vt 3.137255 0.752941
vt 3.450981 0.454902
vt 3.450981 0.752941
vt 3.764706 0.454902
vt 3.764706 0.752941
vt 4.078432 0.454902
vt 4.078432 0.752941
vt 4.392157 0.454902
vt 4.392157 0.752941
vt 4.705883 0.454902
vt 4.705883 0.752941
vt 5 0.454902
vt 5 0.752941
vt 0 0.985352
vt 0.313726 0.985352
vt 0.627451 0.985352
vt 0.941177 0.985352
vt 1.254902 0.985352
vt 1.568628 0.985352
vt 1.882353 0.985352
vt 2.196079 0.985352
vt 2.509804 0.985352
vt 3.137255 0.985352
vt 3.450981 0.985352
vt 3.764706 0.985352
vt 4.078432 0.985352
vt 4.392157 0.985352
vt 4.705883 0.985352
vt 5 0.985352
vt 5 0.156863
vt 4.705883 0.156863
vt 4.388236 0.156863
vt 4.07451 0.156863
vt 3.760785 0.156863
vt 3.450981 0.156863
vt 3.141177 0.156863
vt 2.827451 0.156863
vt 2.513726 0.156863
vt 2.196079 0.156863
vt 1.878431 0.156863
vt 1.564706 0.156863
vt 1.25098 0.156863
vt 0.941177 0.156863
vt 0.631373 0.156863
vt 0.317647 0.156863
vt 0 0.156863
vt 5 0.002441
vt 4.705883 0.002441
vt 4.388236 0.002441
vt 4.07451 0.002441
vt 3.760785 0.002441
vt 3.450981 0.002441
vt 3.141177 0.002441
vt 2.827451 0.002441
vt 2.513726 0.002441
vt 2.196079 0.002441
vt 1.878431 0.002441
vt 1.564706 0.002441
vt 1.25098 0.002441
vt 0.941177 0.002441
vt 0.631373 0.002441
vt 0.317647 0.002441
vt 0 0.002441
vn 0.3802 0.8451 0.3759
vn 0.0645 0.9959 0.0639
vn 0.2058 0.8464 0.4911
vn 0.0913 0.9958 0.0000
vn -0.0000 1.0000 0.0000
vn 0.0846 0.9958 0.0347
vn 0.0846 0.9958 -0.0347
vn -0.0913 0.9958 0.0000
vn -0.0846 0.9958 -0.0347
vn -0.0846 0.9958 0.0347
vn 0.0000 0.9959 0.0903
vn 0.0350 0.9959 0.0837
vn 0.0000 0.9959 -0.0903
vn -0.0350 0.9959 -0.0837
vn -0.0645 0.9959 -0.0639
vn 0.4940 0.8456 0.2023
vn 0.5356 0.8445 0.0000
vn 0.4940 0.8456 -0.2023
vn 0.0645 0.9959 -0.0639
vn 0.3802 0.8451 -0.3759
vn 0.0350 0.9959 -0.0837
vn 0.2058 0.8464 -0.4911
vn -0.0000 0.8457 -0.5337
vn -0.2058 0.8464 -0.4911
vn -0.3802 0.8451 -0.3759
vn -0.4940 0.8456 -0.2023
vn -0.5356 0.8445 0.0000
vn -0.4940 0.8456 0.2023
vn -0.0645 0.9959 0.0639
vn -0.3802 0.8451 0.3759
vn -0.0350 0.9959 0.0837
vn -0.2058 0.8464 0.4911
vn 0.0000 0.8457 0.5337
vn 0.0930 -0.9700 -0.2245
vn 0.1721 -0.9699 -0.1721
vn -0.0000 -1.0000 -0.0000
vn 0.2245 -0.9700 -0.0930
vn 0.2434 -0.9699 -0.0000
vn 0.2245 -0.9700 0.0930
vn 0.1721 -0.9699 0.1721
vn 0.0930 -0.9700 0.2245
vn -0.1721 -0.9699 -0.1721
vn -0.0930 -0.9700 -0.2245
vn -0.0000 -0.9699 -0.2434
vn 0.4819 -0.7319 -0.4819
vn 0.6290 -0.7324 -0.2606
vn 0.6814 -0.7319 -0.0000
vn 0.6290 -0.7324 0.2606
vn 0.4819 -0.7319 0.4819
vn 0.2606 -0.7324 0.6290
vn -0.0000 -0.9699 0.2434
vn 0.0000 -0.7319 0.6814
vn -0.0930 -0.9700 0.2245
vn -0.2606 -0.7324 0.6290
vn -0.1721 -0.9699 0.1721
vn -0.4819 -0.7319 0.4819
vn -0.2245 -0.9700 0.0930
vn -0.6290 -0.7324 0.2606
vn -0.2434 -0.9699 -0.0000
vn -0.6814 -0.7319 -0.0000
vn -0.2245 -0.9700 -0.0930
vn -0.6290 -0.7324 -0.2606
vn -0.4819 -0.7319 -0.4819
vn -0.2606 -0.7324 -0.6290
vn 0.0000 -0.7319 -0.6814
vn 0.2606 -0.7324 -0.6290
vn -0.9099 0.1764 0.3755
vn -0.8960 -0.2436 0.3712
vn -0.6979 0.1709 0.6955
vn -0.6858 -0.2437 0.6858
vn -0.3783 0.1654 0.9108
vn -0.3712 -0.2436 0.8960
vn 0.0003 0.1637 0.9865
vn 0.0000 -0.2437 0.9699
vn 0.3786 0.1663 0.9105
vn 0.3712 -0.2436 0.8960
vn 0.6977 0.1721 0.6954
vn 0.6858 -0.2437 0.6858
vn 0.9096 0.1772 0.3758
vn 0.8960 -0.2436 0.3712
vn 0.9838 0.1791 0.0003
vn 0.9699 -0.2437 -0.0000
vn 0.9099 0.1764 -0.3755
vn 0.8960 -0.2436 -0.3712
vn 0.6979 0.1709 -0.6955
vn 0.6858 -0.2437 -0.6858
vn 0.3783 0.1654 -0.9108
vn 0.3712 -0.2436 -0.8960
vn -0.0003 0.1637 -0.9865
vn 0.0000 -0.2437 -0.9699
vn -0.3786 0.1663 -0.9105
vn -0.3712 -0.2436 -0.8960
vn -0.6977 0.1721 -0.6954
vn -0.6858 -0.2437 -0.6858
vn -0.9096 0.1772 -0.3758
vn -0.8960 -0.2436 -0.3712
vn -0.9838 0.1791 -0.0003
vn -0.9699 -0.2437 -0.0000
vn -0.8198 0.4626 0.3375
vn -0.8856 0.4645 -0.0003
vn -0.8200 0.4618 -0.3381
vn -0.6304 0.4574 -0.6272
vn -0.3430 0.4525 -0.8232
vn -0.0004 0.4514 -0.8923
vn 0.3424 0.4534 -0.8229
vn 0.6299 0.4586 -0.6268
vn 0.8198 0.4626 -0.3375
vn 0.8856 0.4645 0.0003
vn 0.8200 0.4618 0.3381
vn 0.6304 0.4574 0.6272
vn 0.3430 0.4525 0.8232
vn 0.0004 0.4514 0.8923
vn -0.3424 0.4534 0.8229
vn -0.6299 0.4586 0.6268
usemtl Mesh_0385.rip
f 1/68/67 2/69/68 3/70/69
f 2/69/68 4/71/70 3/70/69
f 3/70/69 4/71/70 5/72/71
f 4/71/70 6/73/72 5/72/71
f 5/72/71 6/73/72 7/74/73
f 6/73/72 8/75/74 7/74/73
f 7/74/73 8/75/74 9/76/75
f 8/75/74 10/77/76 9/76/75
f 9/76/75 10/77/76 11/78/77
f 10/77/76 12/79/78 11/78/77
f 11/78/77 12/79/78 13/80/79
f 12/79/78 14/81/80 13/80/79
f 13/80/79 14/81/80 15/82/81
f 14/81/80 16/83/82 15/82/81
f 15/82/81 16/83/82 17/84/83
f 16/83/82 18/85/84 17/84/83
f 17/84/83 18/85/84 19/86/85
f 18/85/84 20/87/86 19/86/85
f 19/86/85 20/87/86 21/88/87
f 20/87/86 22/89/88 21/88/87
f 21/88/87 22/89/88 23/90/89
f 22/89/88 24/91/90 23/90/89
f 23/90/89 24/91/90 25/92/91
f 24/91/90 26/93/92 25/92/91
f 25/92/91 26/93/92 27/94/93
f 26/93/92 28/95/94 27/94/93
f 27/94/93 28/95/94 29/96/95
f 28/95/94 30/97/96 29/96/95
f 29/96/95 30/97/96 31/98/97
f 30/97/96 32/99/98 31/98/97
f 31/98/97 32/99/98 1/100/67
f 32/99/98 2/101/68 1/100/67
f 2/69/68 33/102/58 4/71/70
f 33/102/58 34/103/56 4/71/70
f 4/71/70 34/103/56 6/73/72
f 34/103/56 35/104/54 6/73/72
f 6/73/72 35/104/54 8/75/74
f 35/104/54 36/105/52 8/75/74
f 8/75/74 36/105/52 10/77/76
f 36/105/52 37/106/50 10/77/76
f 10/77/76 37/106/50 12/79/78
f 37/106/50 38/107/49 12/79/78
f 12/79/78 38/107/49 14/81/80
f 38/107/49 39/108/48 14/81/80
f 14/81/80 39/108/48 16/83/82
f 39/108/48 40/109/47 16/83/82
f 16/83/82 40/109/47 18/85/84
f 40/109/47 41/110/46 18/85/84
f 18/85/84 41/110/46 20/87/86
f 41/110/46 42/67/45 20/87/86
f 20/87/86 42/67/45 22/89/88
f 42/67/45 43/111/66 22/89/88
f 22/89/88 43/111/66 24/91/90
f 43/111/66 44/112/65 24/91/90
f 24/91/90 44/112/65 26/93/92
f 44/112/65 45/113/64 26/93/92
f 26/93/92 45/113/64 28/95/94
f 45/113/64 46/114/63 28/95/94
f 28/95/94 46/114/63 30/97/96
f 46/114/63 47/115/62 30/97/96
f 30/97/96 47/115/62 32/99/98
f 47/115/62 48/116/60 32/99/98
f 32/99/98 48/116/60 2/101/68
f 48/116/60 33/117/58 2/101/68
f 1/100/67 49/118/99 31/98/97
f 49/118/99 50/119/100 31/98/97
f 31/98/97 50/119/100 29/96/95
f 50/119/100 51/120/101 29/96/95
f 29/96/95 51/120/101 27/94/93
f 51/120/101 52/121/102 27/94/93
f 27/94/93 52/121/102 25/92/91
f 52/121/102 53/122/103 25/92/91
f 25/92/91 53/122/103 23/90/89
f 53/122/103 54/123/104 23/90/89
f 23/90/89 54/123/104 21/88/87
f 54/123/104 55/124/105 21/88/87
f 21/88/87 55/124/105 19/86/85
f 55/124/105 56/125/106 19/86/85
f 19/86/85 56/125/106 17/84/83
f 56/125/106 57/126/107 17/84/83
f 17/84/83 57/126/107 15/82/81
f 57/126/107 58/127/108 15/82/81
f 15/82/81 58/127/108 13/80/79
f 58/127/108 59/128/109 13/80/79
f 13/80/79 59/128/109 11/78/77
f 59/128/109 60/129/110 11/78/77
f 11/78/77 60/129/110 9/76/75
f 60/129/110 61/130/111 9/76/75
f 9/76/75 61/130/111 7/74/73
f 61/130/111 62/131/112 7/74/73
f 7/74/73 62/131/112 5/72/71
f 62/131/112 63/132/113 5/72/71
f 5/72/71 63/132/113 3/70/69
f 63/132/113 64/133/114 3/70/69
f 3/70/69 64/133/114 1/68/67
f 64/133/114 49/134/99 1/68/67
f 49/118/99 65/135/28 50/119/100
f 65/135/28 66/136/27 50/119/100
f 50/119/100 66/136/27 51/120/101
f 66/136/27 67/137/26 51/120/101
f 51/120/101 67/137/26 52/121/102
f 67/137/26 68/138/25 52/121/102
f 52/121/102 68/138/25 53/122/103
f 68/138/25 69/139/24 53/122/103
f 53/122/103 69/139/24 54/123/104
f 69/139/24 70/140/23 54/123/104
f 54/123/104 70/140/23 55/124/105
f 70/140/23 71/141/22 55/124/105
f 55/124/105 71/141/22 56/125/106
f 71/141/22 72/142/20 56/125/106
f 56/125/106 72/142/20 57/126/107
f 72/142/20 73/143/18 57/126/107
f 57/126/107 73/143/18 58/127/108
f 73/143/18 74/144/17 58/127/108
f 58/127/108 74/144/17 59/128/109
f 74/144/17 75/145/16 59/128/109
f 59/128/109 75/145/16 60/129/110
f 75/145/16 76/146/1 60/129/110
f 60/129/110 76/146/1 61/130/111
f 76/146/1 77/147/3 61/130/111
f 61/130/111 77/147/3 62/131/112
f 77/147/3 78/148/33 62/131/112
f 62/131/112 78/148/33 63/132/113
f 78/148/33 79/149/32 63/132/113
f 63/132/113 79/149/32 64/133/114
f 79/149/32 80/150/30 64/133/114
f 64/133/114 80/150/30 49/134/99
f 80/150/30 65/151/28 49/134/99
usemtl Mesh_0384.rip
f 81/34/34 82/35/35 83/36/36
f 82/35/35 84/37/37 83/36/36
f 83/36/36 84/37/37 85/38/38
f 85/38/38 86/39/39 83/36/36
f 86/39/39 87/40/40 83/36/36
f 83/36/36 87/40/40 88/41/41
f 89/42/42 90/43/43 83/36/36
f 90/43/43 91/44/44 83/36/36
f 83/36/36 91/44/44 81/34/34
f 82/35/35 42/45/45 84/37/37
f 42/45/45 41/46/46 84/37/37
f 84/37/37 41/46/46 85/38/38
f 41/46/46 40/47/47 85/38/38
f 85/38/38 40/47/47 86/39/39
f 40/47/47 39/48/48 86/39/39
f 86/39/39 39/48/48 87/40/40
f 39/48/48 38/49/49 87/40/40
f 87/40/40 38/49/49 88/41/41
f 38/49/49 37/50/50 88/41/41
f 88/41/41 37/50/50 92/51/51
f 37/50/50 36/52/52 92/51/51
f 92/51/51 36/52/52 93/53/53
f 36/52/52 35/54/54 93/53/53
f 93/53/53 35/54/54 94/55/55
f 35/54/54 34/56/56 94/55/55
f 94/55/55 34/56/56 95/57/57
f 34/56/56 33/58/58 95/57/57
f 95/57/57 33/58/58 96/59/59
f 33/58/58 48/60/60 96/59/59
f 96/59/59 48/60/60 97/61/61
f 48/60/60 47/62/62 97/61/61
f 97/61/61 47/62/62 89/42/42
f 47/62/62 46/63/63 89/42/42
f 89/42/42 46/63/63 90/43/43
f 46/63/63 45/64/64 90/43/43
f 90/43/43 45/64/64 91/44/44
f 45/64/64 44/65/65 91/44/44
f 91/44/44 44/65/65 81/34/34
f 44/65/65 43/66/66 81/34/34
f 81/34/34 43/66/66 82/35/35
f 88/41/41 92/51/51 83/36/36
f 92/51/51 93/53/53 83/36/36
f 83/36/36 93/53/53 94/55/55
f 95/57/57 96/59/59 83/36/36
f 96/59/59 97/61/61 83/36/36
f 83/36/36 97/61/61 89/42/42
f 94/55/55 95/57/57 83/36/36
f 82/35/35 43/66/66 42/67/45
usemtl Mesh_0386.rip
f 76/1/1 98/2/2 77/3/3
f 99/4/4 100/5/5 101/6/6
f 100/5/5 99/4/4 102/7/7
f 103/8/8 100/5/5 104/9/9
f 100/5/5 103/8/8 105/10/10
f 106/11/11 107/12/12 100/5/5
f 107/12/12 98/2/2 100/5/5
f 100/5/5 98/2/2 101/6/6
f 108/13/13 109/14/14 100/5/5
f 109/14/14 110/15/15 100/5/5
f 100/5/5 110/15/15 104/9/9
f 98/2/2 76/1/1 101/6/6
f 76/1/1 75/16/16 101/6/6
f 101/6/6 75/16/16 99/4/4
f 75/16/16 74/17/17 99/4/4
f 99/4/4 74/17/17 102/7/7
f 74/17/17 73/18/18 102/7/7
f 102/7/7 73/18/18 111/19/19
f 73/18/18 72/20/20 111/19/19
f 111/19/19 72/20/20 112/21/21
f 72/20/20 71/22/22 112/21/21
f 112/21/21 71/22/22 108/13/13
f 71/22/22 70/23/23 108/13/13
f 108/13/13 70/23/23 109/14/14
f 70/23/23 69/24/24 109/14/14
f 109/14/14 69/24/24 110/15/15
f 69/24/24 68/25/25 110/15/15
f 110/15/15 68/25/25 104/9/9
f 68/25/25 67/26/26 104/9/9
f 104/9/9 67/26/26 103/8/8
f 67/26/26 66/27/27 103/8/8
f 103/8/8 66/27/27 105/10/10
f 66/27/27 65/28/28 105/10/10
f 105/10/10 65/28/28 113/29/29
f 65/28/28 80/30/30 113/29/29
f 113/29/29 80/30/30 114/31/31
f 80/30/30 79/32/32 114/31/31
f 114/31/31 79/32/32 106/11/11
f 79/32/32 78/33/33 106/11/11
f 106/11/11 78/33/33 107/12/12
f 78/33/33 77/3/3 107/12/12
f 107/12/12 77/3/3 98/2/2
f 102/7/7 111/19/19 100/5/5
f 111/19/19 112/21/21 100/5/5
f 100/5/5 112/21/21 108/13/13
f 105/10/10 113/29/29 100/5/5
f 113/29/29 114/31/31 100/5/5
f 100/5/5 114/31/31 106/11/11
