mtllib Sky.mtl
v 0.000058 -1513.136719 -0.000234
v 419.575958 -1397.957031 1023.955444
v -776.991821 -1397.956787 -785.437927
v -1825.547729 -1277.109497 -1845.390503
v -2379.920654 -1277.109619 -996.510620
v -1098.832642 -1397.956909 -0.000164
v -2581.713867 -1277.109741 -0.000075
v -2379.920654 -1277.109863 996.510620
v -1825.547729 -1277.109985 1845.390137
v -419.575684 -1397.957031 1023.955444
v -985.795105 -1277.110107 2405.788574
v 776.991943 -1397.957031 785.437500
v 1098.832764 -1397.956909 -0.000266
v 2581.714111 -1277.109741 -0.000314
v 985.795227 -1277.109375 -2405.789062
v 0.000007 -1397.956787 -1110.776733
v -0.000063 -1277.109375 -2609.776367
v -419.575836 -1397.956787 -1023.955872
v -1012.945129 -1397.957031 424.136139
v -776.991821 -1397.957031 785.437500
v 0.000110 -1397.957031 1110.776245
v 1012.945251 -1397.956787 -424.136536
v 776.991943 -1397.956787 -785.437988
v 419.575806 -1397.956787 -1023.955933
v -985.795410 -1277.109375 -2405.789062
v -1012.945129 -1397.956787 -424.136383
v 1012.945251 -1397.957031 424.135986
v 2966.842041 0.000264 -1228.906006
v 2275.752441 0.000435 -2275.752441
v 2275.681152 742.184998 -2275.681152
v 1228.906006 0.000547 -2966.842041
v 1228.867432 742.185120 -2966.748535
v -1228.906006 0.000547 -2966.841797
v -2275.752441 0.000435 -2275.752441
v -2275.681152 742.184998 -2275.681152
v -2966.748535 742.184814 -1228.867188
v -3218.399902 0.000064 0.000163
v -2966.748535 742.184448 1228.867554
v -2275.752197 -0.000307 2275.752441
v -1228.905884 -0.000419 2966.842041
v -1228.867310 742.184143 2966.748535
v 0.000208 -0.000460 3218.400146
v 0.000208 742.184082 3218.299316
v 1228.906128 -0.000419 2966.842041
v 1228.867554 742.184143 2966.748535
v 2275.752441 -0.000307 2275.752441
v 2966.842041 -0.000136 1228.906006
v 2966.748779 742.184448 1228.867554
v 3218.400146 0.000064 -0.000136
v 2966.748779 742.184814 -1228.867310
v 2644.194336 1371.378540 -1095.260620
v 2028.261841 1371.378784 -2028.261597
v 1095.260986 1371.378906 -2644.193848
v -0.000091 742.185181 -3218.299316
v -1228.867432 742.185120 -2966.748535
v -2028.261597 1371.378784 -2028.261353
v -3218.299316 742.184631 0.000284
v -2644.194092 1371.378296 1095.260986
v -2275.680908 742.184265 2275.681152
v -1095.260620 1371.377930 2644.194336
v 0.000191 1371.377930 2868.395508
v 2275.681152 742.184265 2275.681152
v 2028.261719 1371.378052 2028.261841
v 3218.299316 742.184631 -0.000015
v 2868.395508 1371.378418 0.000103
v 1107.203979 -823.825134 2702.081055
v -1107.203735 -823.825134 2702.081055
v -2966.841797 -0.000136 1228.906006
v -2673.026611 -823.824890 1119.238770
v -2966.841797 0.000264 -1228.905884
v -0.000091 0.000588 -3218.399902
v 2673.026855 -823.824524 -1119.239014
v 2899.672607 -823.824707 -0.000255
v 2673.026855 -823.824890 1119.238647
v 2379.920654 -1277.109863 996.510315
v 2050.378418 -823.825073 2072.664795
v 1825.547852 -1277.109985 1845.390015
v 985.795532 -1277.110107 2405.788574
v 0.000194 -823.825195 2931.190674
v 0.000179 -1277.110107 2609.775879
v -2050.378174 -823.825073 2072.664795
v -2899.672607 -823.824707 0.000014
v -2673.026611 -823.824524 -1119.238892
v -2050.378174 -823.824341 -2072.665039
v -1107.203857 -823.824280 -2702.081543
v -0.000078 -823.824219 -2931.191162
v 1107.203857 -823.824280 -2702.081543
v 2050.378174 -823.824341 -2072.665283
v 1825.547729 -1277.109497 -1845.390503
v 2379.920654 -1277.109619 -996.510925
v -1270.051270 1791.792114 1270.051636
v -1796.124023 1791.792358 0.000389
v -1655.734253 1791.792480 -685.827332
v -1270.051392 1791.792603 -1270.051147
v 0.000142 1791.792114 1796.124390
v -685.827576 1791.792114 1655.734619
v -2028.261475 1371.378052 2028.261841
v -1655.734253 1791.792236 685.827942
v -2868.395020 1371.378418 0.000370
v -2644.194092 1371.378540 -1095.260498
v -685.827576 1791.792603 -1655.734009
v -1095.260742 1371.378906 -2644.193848
v -0.000075 1371.378906 -2868.395020
v 685.827698 1791.792603 -1655.734009
v 1655.734375 1791.792236 685.827942
v 2644.194336 1371.378296 1095.261108
v 685.827698 1791.792114 1655.734619
v 1095.260742 1371.377930 2644.194336
v -0.000025 1791.792603 -1796.123779
v 1270.051392 1791.792603 -1270.051147
v 1655.734375 1791.792480 -685.827393
v 1796.124268 1791.792358 0.000222
v 1270.051514 1791.792114 1270.051636
v 0.000058 1939.421753 0.000329
vt 3.819608 7.913726
vt 2.796079 7.239216
vt 5.019608 5.015687
vt 2.121569 6.215687
vt 1.874510 5.015687
vt 2.121569 3.815686
vt 2.796079 2.792157
vt 3.819608 2.117647
vt 7.243138 7.239216
vt 6.219608 7.913726
vt 5.019608 8.160785
vt 1.470588 8.564707
vt 0.392157 6.933334
vt 0.000000 5.015687
vt 0.392157 3.098039
vt 1.470588 1.466667
vt 3.101961 0.392157
vt 5.019608 1.870588
vt 5.019608 0.000000
vt 6.219608 2.117647
vt 6.937255 0.392157
vt 7.243138 2.792157
vt 8.568628 1.466667
vt 7.917647 3.815686
vt 9.647059 3.098039
vt 8.164706 5.015687
vt 10.039216 5.015687
vt 7.917647 6.215687
vt 9.647059 6.933334
vt 8.568628 8.564707
vt 6.937255 9.643138
vt 5.019608 10.035295
vt 3.101961 9.643138
vt 2.823529 0.985352
vt 0.588235 0.588235
vt 1.403922 1.400000
vt 1.239216 0.156863
vt 1.152941 2.003922
vt 2.007843 2.003922
vt 1.219608 1.678431
vt 1.219608 2.329412
vt 2.862745 2.003922
vt 2.796079 2.329412
vt 2.796079 1.678431
vt 0.000000 0.454902
vt 0.000000 0.752941
vt 0.313726 0.454902
vt 0.313726 0.752941
vt 0.627451 0.454902
vt 0.627451 0.752941
vt 0.941177 0.454902
vt 0.941177 0.752941
vt 1.254902 0.454902
vt 1.254902 0.752941
vt 1.568628 0.454902
vt 1.568628 0.752941
vt 1.882353 0.454902
vt 1.882353 0.752941
vt 2.196079 0.454902
vt 2.196079 0.752941
vt 2.509804 0.454902
vt 2.509804 0.752941
vt 2.823529 0.454902
vt 2.823529 0.752941
vt 3.137255 0.454902
vt 3.137255 0.752941
vt 3.450981 0.454902
vt 3.450981 0.752941
vt 3.764706 0.454902
vt 3.764706 0.752941
vt 4.078432 0.454902
vt 4.078432 0.752941
vt 4.392157 0.454902
vt 4.392157 0.752941
vt 4.705883 0.454902
vt 4.705883 0.752941
vt 5.000000 0.454902
vt 5.000000 0.752941
vt 0.000000 0.985352
vt 0.313726 0.985352
vt 0.627451 0.985352
vt 0.941177 0.985352
vt 1.254902 0.985352
vt 1.568628 0.985352
vt 1.882353 0.985352
vt 2.196079 0.985352
vt 2.509804 0.985352
vt 3.137255 0.985352
vt 3.450981 0.985352
vt 3.764706 0.985352
vt 4.078432 0.985352
vt 4.392157 0.985352
vt 4.705883 0.985352
vt 5.000000 0.985352
vt 5.000000 0.156863
vt 4.705883 0.156863
vt 4.388236 0.156863
vt 4.074510 0.156863
vt 3.760785 0.156863
vt 3.450981 0.156863
vt 3.141177 0.156863
vt 2.827451 0.156863
vt 2.513726 0.156863
vt 2.196079 0.156863
vt 1.878431 0.156863
vt 1.564706 0.156863
vt 1.250980 0.156863
vt 0.941177 0.156863
vt 0.631373 0.156863
vt 0.317647 0.156863
vt 0.000000 0.156863
vt 5.000000 0.002441
vt 4.705883 0.002441
vt 4.388236 0.002441
vt 4.074510 0.002441
vt 3.760785 0.002441
vt 3.450981 0.002441
vt 3.141177 0.002441
vt 2.827451 0.002441
vt 2.513726 0.002441
vt 2.196079 0.002441
vt 1.878431 0.002441
vt 1.564706 0.002441
vt 1.250980 0.002441
vt 0.941177 0.002441
vt 0.631373 0.002441
vt 0.317647 0.002441
vt 0.000000 0.002441
vt 2.007843 1.149020
vt 1.682353 1.215686
vt 2.007843 2.858824
vt 2.333333 2.792157
vt 2.611765 2.607843
vt 0.156863 1.235294
vt 0.000000 2.003922
vt 0.156863 2.772549
vt 1.403922 2.607843
vt 0.588235 3.423530
vt 1.682353 2.792157
vt 1.239216 3.854902
vt 2.007843 4.011765
vt 2.776471 3.854902
vt 3.427451 3.423530
vt 3.858824 2.772549
vt 4.015687 2.003922
vt 3.858824 1.235294
vt 2.611765 1.400000
vt 3.427451 0.588235
vt 2.333333 1.215686
vt 2.776471 0.156863
vt 2.007843 0.000000
vn 0.0930 -0.9700 -0.2245
vn 0.1721 -0.9699 -0.1721
vn -0.0000 -1.0000 -0.0000
vn 0.2245 -0.9700 -0.0930
vn 0.2434 -0.9699 -0.0000
vn 0.2245 -0.9700 0.0930
vn 0.1721 -0.9699 0.1721
vn 0.0930 -0.9700 0.2245
vn -0.1721 -0.9699 -0.1721
vn -0.0930 -0.9700 -0.2245
vn 0.0000 -0.9699 -0.2434
vn 0.4819 -0.7319 -0.4819
vn 0.6290 -0.7324 -0.2606
vn 0.6814 -0.7319 -0.0000
vn 0.6290 -0.7324 0.2606
vn 0.4819 -0.7319 0.4819
vn 0.2606 -0.7324 0.6290
vn 0.0000 -0.9699 0.2434
vn 0.0000 -0.7319 0.6814
vn -0.0930 -0.9700 0.2245
vn -0.2606 -0.7324 0.6290
vn -0.1721 -0.9699 0.1721
vn -0.4819 -0.7319 0.4819
vn -0.2245 -0.9700 0.0930
vn -0.6290 -0.7324 0.2606
vn -0.2434 -0.9699 -0.0000
vn -0.6814 -0.7319 -0.0000
vn -0.2245 -0.9700 -0.0930
vn -0.6290 -0.7324 -0.2606
vn -0.4819 -0.7319 -0.4819
vn -0.2606 -0.7324 -0.6290
vn 0.0000 -0.7319 -0.6814
vn 0.2606 -0.7324 -0.6290
vn 0.3802 0.8451 0.3759
vn 0.0645 0.9959 0.0639
vn 0.2058 0.8464 0.4911
vn 0.0913 0.9958 0.0000
vn -0.0000 1.0000 0.0000
vn 0.0846 0.9958 0.0347
vn 0.0846 0.9958 -0.0347
vn -0.0913 0.9958 0.0000
vn -0.0846 0.9958 -0.0347
vn -0.0846 0.9958 0.0347
vn -0.9099 0.1764 0.3755
vn -0.8960 -0.2436 0.3712
vn -0.6979 0.1709 0.6955
vn -0.6858 -0.2437 0.6858
vn -0.3783 0.1654 0.9108
vn -0.3712 -0.2436 0.8960
vn 0.0003 0.1637 0.9865
vn 0.0000 -0.2437 0.9699
vn 0.3786 0.1663 0.9105
vn 0.3712 -0.2436 0.8960
vn 0.6977 0.1721 0.6954
vn 0.6858 -0.2437 0.6858
vn 0.9096 0.1772 0.3758
vn 0.8960 -0.2436 0.3712
vn 0.9838 0.1791 0.0003
vn 0.9699 -0.2437 -0.0000
vn 0.9099 0.1764 -0.3755
vn 0.8960 -0.2436 -0.3712
vn 0.6979 0.1709 -0.6955
vn 0.6858 -0.2437 -0.6858
vn 0.3783 0.1654 -0.9108
vn 0.3712 -0.2436 -0.8960
vn -0.0003 0.1637 -0.9865
vn 0.0000 -0.2437 -0.9699
vn -0.3786 0.1663 -0.9105
vn -0.3712 -0.2436 -0.8960
vn -0.6977 0.1721 -0.6954
vn -0.6858 -0.2437 -0.6858
vn -0.9096 0.1772 -0.3758
vn -0.8960 -0.2436 -0.3712
vn -0.9838 0.1791 -0.0003
vn -0.9699 -0.2437 -0.0000
vn -0.8198 0.4626 0.3375
vn -0.8856 0.4645 -0.0003
vn -0.8200 0.4618 -0.3381
vn -0.6304 0.4574 -0.6272
vn -0.3430 0.4525 -0.8232
vn -0.0004 0.4514 -0.8923
vn 0.3424 0.4534 -0.8229
vn 0.6299 0.4586 -0.6268
vn 0.8198 0.4626 -0.3375
vn 0.8856 0.4645 0.0003
vn 0.8200 0.4618 0.3381
vn 0.6304 0.4574 0.6272
vn 0.3430 0.4525 0.8232
vn 0.0004 0.4514 0.8923
vn -0.3424 0.4534 0.8229
vn -0.6299 0.4586 0.6268
vn -0.4940 0.8456 0.2023
vn -0.5356 0.8445 0.0000
vn -0.4940 0.8456 -0.2023
vn -0.3802 0.8451 -0.3759
vn -0.2058 0.8464 -0.4911
vn -0.0000 0.8457 -0.5337
vn 0.2058 0.8464 -0.4911
vn 0.3802 0.8451 -0.3759
vn 0.4940 0.8456 -0.2023
vn 0.5356 0.8445 0.0000
vn 0.4940 0.8456 0.2023
vn 0.0000 0.8457 0.5337
vn -0.2058 0.8464 0.4911
vn -0.3802 0.8451 0.3759
vn -0.0000 0.9959 0.0903
vn 0.0350 0.9959 0.0837
vn 0.0000 0.9959 -0.0903
vn -0.0350 0.9959 -0.0837
vn -0.0645 0.9959 -0.0639
vn 0.0645 0.9959 -0.0639
vn 0.0350 0.9959 -0.0837
vn -0.0645 0.9959 0.0639
vn -0.0350 0.9959 0.0837
usemtl Mesh_0385.rip
f 28/45/44 50/46/45 29/47/46
f 50/46/45 30/48/47 29/47/46
f 29/47/46 30/48/47 31/49/48
f 30/48/47 32/50/49 31/49/48
f 31/49/48 32/50/49 71/51/50
f 32/50/49 54/52/51 71/51/50
f 71/51/50 54/52/51 33/53/52
f 54/52/51 55/54/53 33/53/52
f 33/53/52 55/54/53 34/55/54
f 55/54/53 35/56/55 34/55/54
f 34/55/54 35/56/55 70/57/56
f 35/56/55 36/58/57 70/57/56
f 70/57/56 36/58/57 37/59/58
f 36/58/57 57/60/59 37/59/58
f 37/59/58 57/60/59 68/61/60
f 57/60/59 38/62/61 68/61/60
f 68/61/60 38/62/61 39/63/62
f 38/62/61 59/64/63 39/63/62
f 39/63/62 59/64/63 40/65/64
f 59/64/63 41/66/65 40/65/64
f 40/65/64 41/66/65 42/67/66
f 41/66/65 43/68/67 42/67/66
f 42/67/66 43/68/67 44/69/68
f 43/68/67 45/70/69 44/69/68
f 44/69/68 45/70/69 46/71/70
f 45/70/69 62/72/71 46/71/70
f 46/71/70 62/72/71 47/73/72
f 62/72/71 48/74/73 47/73/72
f 47/73/72 48/74/73 49/75/74
f 48/74/73 64/76/75 49/75/74
f 49/75/74 64/76/75 28/77/44
f 64/76/75 50/78/45 28/77/44
f 50/46/45 51/79/25 30/48/47
f 51/79/25 52/80/23 30/48/47
f 30/48/47 52/80/23 32/50/49
f 52/80/23 53/81/21 32/50/49
f 32/50/49 53/81/21 54/52/51
f 53/81/21 103/82/19 54/52/51
f 54/52/51 103/82/19 55/54/53
f 103/82/19 102/83/17 55/54/53
f 55/54/53 102/83/17 35/56/55
f 102/83/17 56/84/16 35/56/55
f 35/56/55 56/84/16 36/58/57
f 56/84/16 100/85/15 36/58/57
f 36/58/57 100/85/15 57/60/59
f 100/85/15 99/86/14 57/60/59
f 57/60/59 99/86/14 38/62/61
f 99/86/14 58/87/13 38/62/61
f 38/62/61 58/87/13 59/64/63
f 58/87/13 97/34/12 59/64/63
f 59/64/63 97/34/12 41/66/65
f 97/34/12 60/88/33 41/66/65
f 41/66/65 60/88/33 43/68/67
f 60/88/33 61/89/32 43/68/67
f 43/68/67 61/89/32 45/70/69
f 61/89/32 108/90/31 45/70/69
f 45/70/69 108/90/31 62/72/71
f 108/90/31 63/91/30 62/72/71
f 62/72/71 63/91/30 48/74/73
f 63/91/30 106/92/29 48/74/73
f 48/74/73 106/92/29 64/76/75
f 106/92/29 65/93/27 64/76/75
f 64/76/75 65/93/27 50/78/45
f 65/93/27 51/94/25 50/78/45
f 28/77/44 72/95/76 49/75/74
f 72/95/76 73/96/77 49/75/74
f 49/75/74 73/96/77 47/73/72
f 73/96/77 74/97/78 47/73/72
f 47/73/72 74/97/78 46/71/70
f 74/97/78 76/98/79 46/71/70
f 46/71/70 76/98/79 44/69/68
f 76/98/79 66/99/80 44/69/68
f 44/69/68 66/99/80 42/67/66
f 66/99/80 79/100/81 42/67/66
f 42/67/66 79/100/81 40/65/64
f 79/100/81 67/101/82 40/65/64
f 40/65/64 67/101/82 39/63/62
f 67/101/82 81/102/83 39/63/62
f 39/63/62 81/102/83 68/61/60
f 81/102/83 69/103/84 68/61/60
f 68/61/60 69/103/84 37/59/58
f 69/103/84 82/104/85 37/59/58
f 37/59/58 82/104/85 70/57/56
f 82/104/85 83/105/86 70/57/56
f 70/57/56 83/105/86 34/55/54
f 83/105/86 84/106/87 34/55/54
f 34/55/54 84/106/87 33/53/52
f 84/106/87 85/107/88 33/53/52
f 33/53/52 85/107/88 71/51/50
f 85/107/88 86/108/89 71/51/50
f 71/51/50 86/108/89 31/49/48
f 86/108/89 87/109/90 31/49/48
f 31/49/48 87/109/90 29/47/46
f 87/109/90 88/110/91 29/47/46
f 29/47/46 88/110/91 28/45/44
f 88/110/91 72/111/76 28/45/44
f 72/95/76 90/112/92 73/96/77
f 90/112/92 14/113/93 73/96/77
f 73/96/77 14/113/93 74/97/78
f 14/113/93 75/114/94 74/97/78
f 74/97/78 75/114/94 76/98/79
f 75/114/94 77/115/95 76/98/79
f 76/98/79 77/115/95 66/99/80
f 77/115/95 78/116/96 66/99/80
f 66/99/80 78/116/96 79/100/81
f 78/116/96 80/117/97 79/100/81
f 79/100/81 80/117/97 67/101/82
f 80/117/97 11/118/98 67/101/82
f 67/101/82 11/118/98 81/102/83
f 11/118/98 9/119/99 81/102/83
f 81/102/83 9/119/99 69/103/84
f 9/119/99 8/120/100 69/103/84
f 69/103/84 8/120/100 82/104/85
f 8/120/100 7/121/101 82/104/85
f 82/104/85 7/121/101 83/105/86
f 7/121/101 5/122/102 83/105/86
f 83/105/86 5/122/102 84/106/87
f 5/122/102 4/123/34 84/106/87
f 84/106/87 4/123/34 85/107/88
f 4/123/34 25/124/36 85/107/88
f 85/107/88 25/124/36 86/108/89
f 25/124/36 17/125/103 86/108/89
f 86/108/89 17/125/103 87/109/90
f 17/125/103 15/126/104 87/109/90
f 87/109/90 15/126/104 88/110/91
f 15/126/104 89/127/105 88/110/91
f 88/110/91 89/127/105 72/111/76
f 89/127/105 90/128/92 72/111/76
usemtl Mesh_0384.rip
f 96/1/1 91/2/2 114/3/3
f 91/2/2 98/4/4 114/3/3
f 114/3/3 98/4/4 92/5/5
f 92/5/5 93/6/6 114/3/3
f 93/6/6 94/7/7 114/3/3
f 114/3/3 94/7/7 101/8/8
f 113/9/9 107/10/10 114/3/3
f 107/10/10 95/11/11 114/3/3
f 114/3/3 95/11/11 96/1/1
f 91/2/2 97/12/12 98/4/4
f 97/12/12 58/13/13 98/4/4
f 98/4/4 58/13/13 92/5/5
f 58/13/13 99/14/14 92/5/5
f 92/5/5 99/14/14 93/6/6
f 99/14/14 100/15/15 93/6/6
f 93/6/6 100/15/15 94/7/7
f 100/15/15 56/16/16 94/7/7
f 94/7/7 56/16/16 101/8/8
f 56/16/16 102/17/17 101/8/8
f 101/8/8 102/17/17 109/18/18
f 102/17/17 103/19/19 109/18/18
f 109/18/18 103/19/19 104/20/20
f 103/19/19 53/21/21 104/20/20
f 104/20/20 53/21/21 110/22/22
f 53/21/21 52/23/23 110/22/22
f 110/22/22 52/23/23 111/24/24
f 52/23/23 51/25/25 111/24/24
f 111/24/24 51/25/25 112/26/26
f 51/25/25 65/27/27 112/26/26
f 112/26/26 65/27/27 105/28/28
f 65/27/27 106/29/29 105/28/28
f 105/28/28 106/29/29 113/9/9
f 106/29/29 63/30/30 113/9/9
f 113/9/9 63/30/30 107/10/10
f 63/30/30 108/31/31 107/10/10
f 107/10/10 108/31/31 95/11/11
f 108/31/31 61/32/32 95/11/11
f 95/11/11 61/32/32 96/1/1
f 61/32/32 60/33/33 96/1/1
f 96/1/1 60/33/33 91/2/2
f 101/8/8 109/18/18 114/3/3
f 109/18/18 104/20/20 114/3/3
f 114/3/3 104/20/20 110/22/22
f 111/24/24 112/26/26 114/3/3
f 112/26/26 105/28/28 114/3/3
f 114/3/3 105/28/28 113/9/9
f 110/22/22 111/24/24 114/3/3
f 91/2/2 60/33/33 97/34/12
usemtl Mesh_0386.rip
f 4/35/34 3/36/35 25/37/36
f 6/38/37 1/39/38 26/40/39
f 1/39/38 6/38/37 19/41/40
f 13/42/41 1/39/38 27/43/42
f 1/39/38 13/42/41 22/44/43
f 16/129/106 18/130/107 1/39/38
f 18/130/107 3/36/35 1/39/38
f 1/39/38 3/36/35 26/40/39
f 21/131/108 2/132/109 1/39/38
f 2/132/109 12/133/110 1/39/38
f 1/39/38 12/133/110 27/43/42
f 3/36/35 4/35/34 26/40/39
f 4/35/34 5/134/102 26/40/39
f 26/40/39 5/134/102 6/38/37
f 5/134/102 7/135/101 6/38/37
f 6/38/37 7/135/101 19/41/40
f 7/135/101 8/136/100 19/41/40
f 19/41/40 8/136/100 20/137/111
f 8/136/100 9/138/99 20/137/111
f 20/137/111 9/138/99 10/139/112
f 9/138/99 11/140/98 10/139/112
f 10/139/112 11/140/98 21/131/108
f 11/140/98 80/141/97 21/131/108
f 21/131/108 80/141/97 2/132/109
f 80/141/97 78/142/96 2/132/109
f 2/132/109 78/142/96 12/133/110
f 78/142/96 77/143/95 12/133/110
f 12/133/110 77/143/95 27/43/42
f 77/143/95 75/144/94 27/43/42
f 27/43/42 75/144/94 13/42/41
f 75/144/94 14/145/93 13/42/41
f 13/42/41 14/145/93 22/44/43
f 14/145/93 90/146/92 22/44/43
f 22/44/43 90/146/92 23/147/113
f 90/146/92 89/148/105 23/147/113
f 23/147/113 89/148/105 24/149/114
f 89/148/105 15/150/104 24/149/114
f 24/149/114 15/150/104 16/129/106
f 15/150/104 17/151/103 16/129/106
f 16/129/106 17/151/103 18/130/107
f 17/151/103 25/37/36 18/130/107
f 18/130/107 25/37/36 3/36/35
f 19/41/40 20/137/111 1/39/38
f 20/137/111 10/139/112 1/39/38
f 1/39/38 10/139/112 21/131/108
f 22/44/43 23/147/113 1/39/38
f 23/147/113 24/149/114 1/39/38
f 1/39/38 24/149/114 16/129/106
