mtllib Flapper.mtl
v 3.900699 3.984895 3.955101
v 5.89281 3.499587 -2.999901
v 5.892809 4.964887 -2.9999
v 4.549611 4.964886 -2.9999
v 0.420098 6.100495 -2.782399
v 5.40121 3.221784 -1.499901
v 6.56541 5.173183 -1.4999
v 4.826209 5.173183 -1.4999
v 3.829611 3.883483 -1.297202
v 6.565411 4.263485 0.000001
v 4.82621 4.263485 0.000001
v 6.56541 5.173183 0.000001
v 4.826209 5.173183 0.000001
v 3.87401 5.179985 0.000001
v -1.140702 6.486595 0.002701
v 2.231998 6.728793 0.002701
v 5.40121 3.221784 1.499902
v 6.56541 5.173182 1.499902
v 4.826209 5.173182 1.499902
v 5.89281 3.499586 2.999902
v 5.12451 3.499586 2.999902
v -11.6024 1.436195 -9.219401
v 0.944504 0.649585 -8.9855
v -0.785302 0.824284 -8.9855
v -9.612004 7.592698 -8.522299
v 1.4982 -0.328915 -7.8343
v -5.516903 8.019698 -7.131999
v 2.469301 -0.751415 -7.0983
v -2.525299 -0.246816 -7.0983
v 2.227203 1.274586 -6.7121
v -1.826401 1.684084 -6.7121
v -3.829697 0.598682 -6.6333
v -11.831404 7.880095 -4.645998
v 7.054299 -1.181512 -4.086299
v -7.042503 0.107181 -4.0863
v -5.636503 7.483697 -1.900399
v -8.528904 8.409697 -1.871599
v -5.525503 5.438197 -0.854399
v -9.788203 6.802895 -0.811999
v 5.762498 -4.136313 -0.000001
v 8.1437 -1.276213 0
v 7.6595 0.598687 0
v -7.6595 0.59868 0
v 0.7964 3.266484 0.000001
v 7.054299 -1.181514 4.0863
v -7.042503 0.107179 4.086299
v -0.8557 5.119082 4.446801
v -11.838005 7.879293 4.646
v -1.616699 -0.131618 5.7092
v 4.182097 1.712285 6.6214
v -3.305498 3.25918 6.6214
v 3.829695 0.598685 6.6333
v -3.829697 0.59868 6.6333
v 2.227202 1.274584 6.7121
v 0.303999 2.402183 6.712101
v 2.4693 -0.751417 7.0983
v -2.525299 -0.246818 7.0983
v -8.415905 8.944995 7.103302
v -9.618505 7.591995 8.522301
v 0.944504 0.649583 8.9855
v -11.608401 1.435392 9.219399
v -0.532902 5.081597 -3.955299
v 6.1174 3.436596 -0.000099
v -2.749602 5.629898 -0.000099
v -0.532902 5.081596 3.955101
v 3.542098 5.328294 -2.782399
v 3.9007 3.984897 -3.955299
v 6.565412 3.221785 -1.499901
v 3.785212 2.587085 0
v 9.37401 3.693786 0.000001
v 3.82961 3.883483 1.297204
v 5.892809 4.964886 2.999902
v 4.54961 4.964885 2.999902
v 0.304 2.402185 -6.7121
v 0.1623 1.092885 -8.9855
v 1.616699 -0.131615 -5.706
v 0.000002 -1.748315 -5.706
v 0 1.101385 -8.2802
v 0 -0.468215 -8.2813
v -7.3168 0.064299 -9.262
v 0.000002 -1.759315 -7.388401
v -1.498199 -0.328916 -7.8343
v -5.262599 -1.018602 -5.4074
v -4.081703 -0.163618 -7.0875
v -6.707804 9.195698 -4.3941
v -9.915304 9.140596 -4.4731
v 3.829696 0.598687 -6.6333
v -11.7795 0.642194 -1.4677
v -13.833701 1.725195 -5.322299
v -2.8812 -4.136316 -4.9905
v 2.881205 -4.136313 -4.9905
v -7.494 -0.729703 -1.5103
v -6.8999 1.119597 -1.3073
v 0.000003 -6.071416 -0.000001
v -0.8557 5.119084 -4.446799
v -3.270801 5.989882 0.000001
v -8.156799 0.20708 0
v 6.3897 2.506687 0
v -6.906002 1.119197 1.3073
v -7.4999 -0.730203 1.5103
v -6.714405 9.195196 4.394102
v -5.643004 7.483296 1.900401
v 7.926002 0.938787 0
v -8.535405 8.409096 1.871601
v -11.7856 0.641294 1.4677
v -2.881201 -4.136318 4.990499
v -5.762496 -4.136319 -0.000001
v -9.921905 9.139894 4.473102
v -3.312303 5.150598 4.730701
v -5.531803 5.437797 0.854401
v -5.523503 8.019297 7.132
v -4.137003 7.288398 4.530601
v -13.839802 1.724192 5.322299
v -13.245902 3.573693 5.119201
v -0.785303 0.824282 8.9855
v 0.000001 -1.759317 7.3916
v 0 -0.468217 8.2845
v -7.322801 0.063795 9.262
v 1.4982 -0.328917 7.8375
v -0.000001 1.101383 8.2834
v 2.881204 -4.136315 4.990499
v -4.081704 -0.16362 7.0875
v 4.068604 -0.905415 7.0875
v -1.826402 1.684082 6.712101
v 0.162299 1.092883 8.9855
v -5.355603 6.227695 8.564701
v 5.12451 3.499587 -2.999901
v 5.102998 4.942195 0.002701
v 3.542098 5.328293 2.787801
v 0.420098 6.100494 2.787801
v 6.565412 3.221785 1.499902
v -6.722701 1.913698 -9.0589
v -11.008301 3.285595 -9.0164
v -5.349203 6.228098 -8.564699
v -8.409304 8.945597 -7.1033
v -4.6685 0.830698 -5.2044
v -13.239701 3.574595 -5.119201
v -3.306003 5.150799 -4.730699
v 4.068604 -0.905413 -7.0875
v -3.305497 3.259182 -6.621399
v 4.182098 1.712287 -6.621399
v -1.616699 -0.131616 -5.706
v -4.130503 7.2887 -4.530599
v 3.974601 3.377487 -4.4468
v -11.185501 2.491594 -1.264701
v -7.049304 4.03268 0.000001
v 3.9746 3.377485 4.446801
v -11.191601 2.490794 1.2647
v -9.794602 6.802196 0.812001
v -5.268499 -1.019004 5.4074
v -4.674602 0.830396 5.2044
v 1.616699 -0.131617 5.7092
v -1.498199 -0.328918 7.8375
v 0.000001 -1.748317 5.709199
v -11.014502 3.284893 9.0164
v -6.7288 1.913196 9.0589
v 6.118618 3.653108 -2.7219
v 6.118618 4.760007 -2.721899
v 6.627917 3.435008 -1.499899
v 6.627917 4.928508 -1.499899
v 6.627917 4.476808 0.000001
v 6.627917 4.928508 0.000001
v 6.627917 3.435008 1.499901
v 6.627917 4.928507 1.499901
v 6.118618 3.653107 2.7219
v 6.118617 4.760006 2.721901
v -0.646901 3.794495 3.611601
v 3.401499 2.793092 3.6116
v -9.5542 0.352594 5.3649
v -9.5482 0.353196 -5.364901
v -0.6469 3.794496 -3.611799
v 5.425799 2.2924 -0.0001
v 3.4015 2.793093 -3.611799
v -2.671102 4.295196 -0.000099
vt 0.4693 0.2555
vt 0.4 0.2555
vt 0.3999 0.0639
vt 0.7 0.7083
vt 0.3 0.7083
vt 0.6133 0.912
vt 0.3866 0.912
vt 0.2999 0.15
vt 0.3 0.05
vt 0.2 0.15
vt 0.2 0.0499
vt 0.3 0.1499
vt 0.2999 0.0499
vt 0.6133 0.8
vt 0.4999 0.9489
vt 0.3866 0.8
vt 0.2 0.05
vt 0.4693 0.0639
vt 0.4643 0.0499
vt 0.4644 0.2532
vt 0.3843 0.1739
vt 0.4999 0.7604
vt 0.65 0.4315
vt 0.65 0.0042
vt 0.6999 0.4315
vt 0.55 0.4315
vt 0.3 0.0499
vt 0.3843 0.2515
vt 0.3843 0.1697
vt 0.4644 0.2515
vt 0.9847 -0.6012
vt 0.7685 -0.6012
vt 0.9847 -0.496
vt 0.7685 -0.496
vt 0.0106 -0.4006
vt 0.3969 -0.4006
vt 0.0106 0.0167
vt 0.3969 0.0167
vt 0.725 -0.5986
vt 0.6649 -0.8834
vt 0.567 -0.5986
vt 0.6356 -0.8824
vt 0.1879 -0.3923
vt -0.162 -0.3923
vt 0.1879 -0.0028
vt -0.162 -0.0028
vt 0.1664 -0.4894
vt 0.1664 -0.0415
vt -0.1725 -0.4894
vt -0.1725 -0.1522
vt 0.9999 -1
vt 0.7499 -1
vt 0.9999 -0.8373
vt 0.7499 -0.8373
vt 0.0053 -0.5001
vt 0.492 -0.5001
vt 0.0053 -0.95
vt 0.492 -0.95
vt 0 -0.15
vt 0.2468 -0.0235
vt 0.9999 -0.15
vt 0.9085 -0.0235
vt 0.7499 -0.9703
vt 0.9999 -0.9703
vt 0.8999 -0.9
vt 0.7457 -0.5944
vt 0.7499 -0.7
vt 0.5563 -0.8823
vt 0.7468 -0.5944
vt 0.6031 -0.8823
vt 0.8999 -1
vt 0.3713 -0.164
vt 0.1213 -0.164
vt 0.2464 -0.0446
vt 0.4999 -0.4895
vt 0 -0.4894
vt 0 -0.1501
vt 0.9999 -0.4894
vt 0.9999 -0.0394
vt 0.2 0.0472
vt 0.2 0.1499
vt 0.3 0.089
vt 0 -0.0394
vt 0.0089 -0.8011
vt 0.0764 -0.9924
vt 0.1271 -0.8011
vt 0.4999 -0.0139
vt 0 -0.0139
vt 0.2499 0.1499
vt 0.3 0.15
vt 0.0595 -0.9924
vt 0.0914 -0.0235
vt 0.7531 -0.0235
vt 0.8 -0.7501
vt 0.8 -0.5873
vt 0.9499 -0.5878
vt 0.6499 -0.6137
vt 0.6999 -0.85
vt 0.55 -0.7
vt 0.8787 -0.5277
vt 0.9787 -0.5884
vt 0.7968 -0.5884
vt 0.9499 -0.7501
vt 0.9499 -0.5873
vt -0.1725 -0.1501
vt 0.7308 -0.5976
vt 0.5414 -0.5965
vt 0.7095 -0.8818
vt 0.5691 -0.8824
vt 0.3843 0.2532
vt 0.4 0.0639
vt 0.9872 0.7542
vt 0.0148 0.9977
vt 0.0148 0.7521
vt 0.1828 -0.5191
vt 0.3328 -0.5191
vt 0.2577 -0.8316
vt 0.2579 -0.8316
vt 0 0.7542
vt 0.9978 0.9977
vt 0.9978 0.7521
vt 0 0.9977
vt 0.0148 0.7542
vt 0.9872 0.9977
vt 0.9872 0.7521
vt 0.2499 0.9945
vt 0.0388 1.1
vt 0.2499 1.4667
vt 0.0388 1.4306
vt 0.0655 1.2997
vt 0.0655 1.1
vt 0.05 1.4222
vt 0.2499 1.4611
vt 0.05 1.0999
vt 0.2499 0.9973
vt 0.45 1.0999
vt 0.4499 1.3944
vt 0.8425 0.7542
vt 0 0.7521
vt 0.8425 0.9977
vt 0.8425 0.7521
vn 0.979675 0 0.200446
vn 0.912442 0 0.409131
vn 0.502914 0.640706 -0.580096
vn -0.145878 0.802454 -0.578539
vn 0.467422 0.745964 -0.47438
vn -0.064364 0.878109 -0.474075
vn 0 -0.96231 0.271889
vn 0 -0.974456 0.224464
vn 0 -0.983276 -0.182104
vn 0 0.998291 -0.058351
vn 0 0.990478 -0.137516
vn 0 0.997345 -0.072665
vn 0.82931 0.558733 -0.000244
vn 0.733665 0.679495 0.000305
vn -0.469985 0.882656 -0.000244
vn -0.33021 0.943876 0.000305
vn 0.240089 0.970733 0
vn 0 -1 0
vn 0.96878 0 0.247841
vn 0.96878 0 -0.247841
vn 0.979675 0 -0.200446
vn 1 0 0
vn 0 0.999969 0
vn 0.227546 -0.007813 -0.973724
vn 0.99939 -0.034181 0
vn 0.19422 -0.980926 0
vn 0.260842 0.965361 0
vn 0.227546 -0.007813 0.973724
vn 0.467452 0.745323 0.475326
vn -0.064669 0.87759 0.475021
vn 0 -0.974456 -0.224464
vn 0 -0.96231 -0.271889
vn 0 0.997345 0.072665
vn 0 0.998291 0.058351
vn -0.139958 0.52736 0.838008
vn 0.503464 0.639332 0.581133
vn 0 -0.983276 0.182104
vn 0 0.990478 0.137516
vn 0.495834 -0.06418 -0.866024
vn -0.456465 0.240669 -0.856533
vn 0.496658 -0.061708 -0.865719
vn -0.455672 0.243141 -0.856288
vn 0.564989 0.227638 -0.793054
vn -0.34196 0.517991 -0.78402
vn 0.67687 0.516953 -0.524003
vn 0.583972 0.632527 -0.508774
vn 0.092471 0.864589 -0.493881
vn 0.104862 0.858913 -0.501206
vn -0.558397 0.658345 -0.504715
vn -0.436506 0.747642 -0.500443
vn 0.548479 0.695273 -0.464431
vn -0.051057 0.887204 -0.45851
vn 0.95233 -0.30488 -0.00943
vn 0.953124 -0.302377 -0.009186
vn -0.95233 0.304819 0.00943
vn -0.951537 0.307352 0.009735
vn 0.999725 -0.001556 0.022675
vn -0.376263 0.208258 -0.902768
vn -0.317972 0.546953 -0.774407
vn 0.392804 0.138157 -0.909146
vn 0.462539 0.438612 -0.77047
vn -0.814203 0.579119 0.040712
vn 0.939573 -0.341716 -0.020631
vn 0 -0.999756 0.021851
vn 0.859279 -0.081088 -0.504959
vn 0 -0.937346 -0.348369
vn -0.939573 -0.341716 -0.020631
vn -0.859279 -0.081088 -0.504959
vn 0.835902 0.543748 0.074801
vn -0.363262 0.927641 0.086703
vn -0.464125 -0.371868 -0.803888
vn 0.464125 -0.371868 -0.803888
vn -0.373455 -0.664846 -0.64687
vn 0.373455 -0.664846 -0.64687
vn 0.120853 0.939879 -0.319376
vn 0.467727 0.847316 -0.251503
vn 0 0.491836 -0.870663
vn 0 -0.297586 -0.95468
vn 0.829188 0.198675 -0.522446
vn -0.777337 0.38139 -0.500229
vn 0.304147 0.946898 0.103946
vn 0.456465 -0.240669 0.856563
vn 0.457259 -0.238166 0.856807
vn 0.833064 0.3249 -0.447645
vn -0.789239 0.38435 -0.478896
vn -0.495834 0.06418 0.866024
vn -0.495041 0.066683 0.866268
vn 0.527482 0.059572 0.847438
vn 0.523728 0.584155 0.620014
vn -0.379467 0.349925 0.856471
vn -0.075838 0.776116 0.625996
vn 0.928251 -0.371868 0
vn 0.74694 -0.664846 0
vn -0.928251 -0.371868 0
vn -0.74694 -0.664876 0
vn 0.905728 0.423841 0
vn 0.539232 0.842128 0
vn -0.761528 0.648122 0
vn -0.078341 0.996918 0
vn 0 0 -1
vn 0.357768 0.933775 0
vn 0.995178 0.097812 0
vn -0.96054 0.278054 0
vn 0.833064 0.3249 0.447645
vn -0.789239 0.38435 0.478866
vn 0.467727 0.847316 0.251503
vn 0.120853 0.939879 0.319376
vn 0.373455 -0.664846 0.64687
vn -0.373455 -0.664846 0.64687
vn -0.495041 0.066652 -0.866298
vn -0.379467 0.349895 -0.856471
vn 0.457289 -0.238136 -0.856807
vn 0.527482 0.059603 -0.847438
vn -0.0759 0.776116 -0.625996
vn 0.523667 0.584216 -0.620014
vn -0.495834 0.06418 -0.866024
vn 0.456496 -0.240608 -0.856563
vn 0.304086 0.946928 -0.103946
vn 0.462539 0.438612 0.77047
vn -0.317972 0.546953 0.774407
vn -0.363292 0.92761 -0.086703
vn 0.835841 0.543809 -0.074801
vn 0.464125 -0.371868 0.803888
vn -0.464125 -0.371868 0.803888
vn -0.814234 0.579058 -0.040712
vn -0.951537 0.30726 -0.009735
vn -0.051119 0.887204 0.45851
vn 0.999725 -0.001465 -0.022675
vn 0.548418 0.695334 0.464461
vn 0.953154 -0.302316 0.009156
vn -0.952361 0.304758 -0.00943
vn 0.392804 0.138157 0.909146
vn -0.376263 0.208258 0.902768
vn 0.952361 -0.304788 0.00943
vn 0.939573 -0.341716 0.020631
vn 0 0.491836 0.870663
vn 0.859279 -0.081088 0.504959
vn -0.939573 -0.341716 0.020631
vn -0.859279 -0.081088 0.504959
vn 0.67687 0.516953 0.524003
vn 0.583972 0.632527 0.508774
vn 0.829188 0.198675 0.522446
vn -0.777337 0.38139 0.500229
vn -0.436506 0.747642 0.500443
vn -0.558397 0.658345 0.504715
vn 0 -0.297586 0.95468
vn 0 -0.937346 0.348369
vn -0.34199 0.51796 0.784051
vn 0.564959 0.227668 0.793054
vn 0 -0.999756 -0.021851
vn -0.455672 0.24311 0.856288
vn 0.496658 -0.061678 0.865719
vn -0.456496 0.240608 0.856563
vn 0.495834 -0.06415 0.866024
vn 0.092471 0.864589 0.493881
vn 0.104862 0.858913 0.501206
vn 0 0 1
vn 0 0 0.999969
vn 0.912442 0 -0.409131
vn -0.06238 -0.252174 0.965636
vn -0.304147 -0.946928 -0.103916
vn -0.304178 -0.946898 -0.103916
vn -0.304117 -0.946928 -0.103946
vn -0.304147 -0.946898 -0.103946
vn -0.304147 -0.946928 -0.103946
vn -0.304056 -0.946928 0.103946
vn -0.304086 -0.946928 0.103946
vn -0.304086 -0.946928 0.103916
vn -0.99826 -0.058687 0
vn -0.534745 -0.173345 -0.827021
vn -0.534715 -0.173345 -0.827021
vn 0.392285 -0.402661 -0.826991
vn 0.392254 -0.402661 -0.827021
vn -0.789239 -0.092105 0.607105
vn -0.874203 -0.051424 0.482803
vn 0.392285 -0.402661 0.827021
vn 0.43495 -0.412824 0.800226
vn 0.972533 0 -0.232704
vn 0.923032 0 -0.384686
vn 0.982177 0 -0.187902
vn 0.982177 0 0.187902
vn 0.972533 0 0.232704
vn 0.923032 0 0.384686
vn 0.8558 -0.517289 0
usemtl unnamed.016
f 159/126/178 157/127/179 160/128/180
f 158/129/179 160/128/180 157/127/179
f 162/130/22 161/131/22 160/128/180
f 160/128/180 161/131/22 159/126/178
f 162/132/22 164/133/181 161/134/22
f 164/133/181 163/135/182 161/134/22
f 163/135/182 164/133/181 165/136/183
f 164/133/181 166/137/183 165/136/183
f 172/138/184 1/122/176 168/139/177
f 63/140/184 1/122/176 172/138/184
f 173/119/173 63/140/184 172/141/184
f 67/122/172 63/140/184 173/119/173
usemtl unnamed.0
f 18/1/1 72/2/2 20/3/2
f 67/4/3 62/5/4 66/6/5
f 62/5/4 5/7/6 66/6/5
f 68/8/7 6/9/8 2/10/9
f 2/10/9 6/9/8 127/11/9
f 7/12/10 3/10/11 8/13/12
f 4/11/11 8/13/12 3/10/11
f 63/4/13 67/5/3 128/6/14
f 67/5/3 66/7/5 128/6/14
f 64/5/15 15/7/16 62/4/4
f 15/7/16 5/6/6 62/4/4
f 5/14/6 16/15/17 66/16/5
f 11/9/18 6/17/8 10/8/18
f 68/10/7 10/8/18 6/17/8
f 131/18/19 18/1/1 20/3/2
f 68/19/20 7/20/21 10/21/22
f 8/11/12 13/13/23 7/10/10
f 13/13/23 12/12/23 7/10/10
f 66/7/5 16/22/17 128/6/14
f 15/16/16 16/15/17 5/14/6
f 9/23/24 70/24/25 69/25/26
f 14/26/27 70/24/25 9/23/24
f 69/23/26 70/24/25 71/25/28
f 71/26/28 70/24/25 14/23/27
f 128/14/14 16/15/17 129/16/29
f 130/14/30 16/15/17 15/16/16
f 11/17/18 10/10/18 17/9/31
f 10/10/18 131/8/32 17/9/31
f 13/11/23 19/13/33 12/10/23
f 19/13/33 18/12/34 12/10/23
f 129/16/29 16/15/17 130/14/30
f 65/5/35 130/7/30 64/4/15
f 130/7/30 15/6/16 64/4/15
f 63/5/13 128/7/14 1/4/36
f 128/7/14 129/6/29 1/4/36
f 131/10/32 20/8/37 17/17/31
f 20/8/37 21/27/37 17/17/31
f 7/20/21 12/28/22 10/21/22
f 131/19/19 10/29/22 18/30/1
f 18/10/34 19/11/33 72/12/38
f 19/11/33 73/13/38 72/12/38
f 1/5/36 129/7/29 65/4/35
f 129/7/29 130/6/30 65/4/35
f 80/31/39 22/32/40 132/33/41
f 22/32/40 133/34/42 132/33/41
f 132/35/41 133/36/42 134/37/43
f 133/36/42 25/38/44 134/37/43
f 30/39/45 23/40/46 74/41/47
f 74/41/47 23/40/46 75/42/48
f 31/41/49 74/39/47 24/42/50
f 74/39/47 75/40/48 24/42/50
f 134/43/43 25/44/44 27/45/51
f 25/44/44 135/46/52 27/45/51
f 83/31/53 80/32/39 136/33/54
f 80/32/39 132/34/41 136/33/54
f 22/31/40 89/32/55 133/33/42
f 89/32/55 137/34/56 133/33/42
f 136/36/54 132/35/41 138/38/57
f 132/35/41 134/37/43 138/38/57
f 84/47/58 140/48/59 139/49/60
f 139/49/60 140/48/59 141/50/61
f 133/36/42 137/35/56 25/38/44
f 137/35/56 33/37/62 25/38/44
f 76/51/63 77/52/64 26/53/65
f 77/52/64 81/54/66 26/53/65
f 142/52/67 82/54/68 77/51/64
f 77/51/64 82/54/68 81/53/66
f 138/43/57 134/44/43 143/45/69
f 134/44/43 27/46/51 143/45/69
f 25/43/44 33/44/62 135/45/52
f 33/44/62 86/46/70 135/45/52
f 32/55/71 87/56/72 90/57/73
f 90/57/73 87/56/72 91/58/74
f 140/59/59 95/60/75 141/61/61
f 141/61/61 95/60/75 144/62/76
f 78/63/77 26/64/65 79/65/78
f 82/63/68 78/64/77 79/65/78
f 26/63/65 81/64/66 79/65/78
f 81/63/66 82/64/68 79/65/78
f 30/66/45 28/67/79 23/68/46
f 29/67/80 31/69/49 24/70/50
f 76/71/63 26/54/65 78/53/77
f 78/53/77 82/54/68 142/71/67
f 27/72/51 135/73/52 85/74/81
f 92/31/82 83/32/53 93/33/83
f 83/32/53 136/34/54 93/33/83
f 34/75/84 139/76/60 141/77/61
f 84/78/58 35/75/85 140/79/59
f 89/31/55 88/32/86 137/33/56
f 88/32/86 145/34/87 137/33/56
f 93/35/83 136/36/54 38/37/88
f 136/36/54 138/38/57 38/37/88
f 143/72/69 27/73/51 85/74/81
f 38/43/88 138/44/57 36/45/89
f 138/44/57 143/46/69 36/45/89
f 135/72/52 86/73/70 85/74/81
f 137/35/56 145/36/87 33/37/62
f 145/36/87 39/38/90 33/37/62
f 33/43/62 39/44/90 86/45/70
f 39/44/90 37/46/91 86/45/70
f 87/55/72 42/56/92 91/57/74
f 91/57/74 42/56/92 40/58/93
f 43/55/94 32/56/71 107/57/95
f 107/57/95 32/56/71 90/58/73
f 141/59/61 144/60/76 103/61/96
f 103/61/96 144/60/76 98/62/97
f 146/59/98 96/60/99 140/61/59
f 140/61/59 96/60/99 95/62/75
f 4/80/100 3/81/100 127/82/100
f 36/72/89 143/73/69 85/74/81
f 86/72/70 37/73/91 85/74/81
f 34/75/84 141/77/61 103/61/96
f 35/75/85 146/83/98 140/79/59
f 91/84/74 94/85/18 90/86/73
f 144/87/76 95/88/75 44/89/101
f 2/90/100 127/82/100 3/81/100
f 37/72/91 36/73/89 85/74/81
f 88/31/86 92/32/82 145/33/87
f 92/32/82 93/34/83 145/33/87
f 39/43/90 38/44/88 37/45/91
f 38/44/88 36/46/89 37/45/91
f 145/36/87 93/35/83 39/38/90
f 93/35/83 38/37/88 39/38/90
f 40/86/93 94/91/18 91/84/74
f 90/86/73 94/91/18 107/84/95
f 98/87/97 144/88/76 44/89/101
f 95/87/75 96/88/99 44/89/101
f 41/78/102 34/75/84 103/61/96
f 35/75/85 97/76/103 146/83/98
f 45/75/104 41/76/102 103/77/96
f 97/78/103 46/75/105 146/79/98
f 147/87/106 98/88/97 44/89/101
f 96/87/99 47/88/107 44/89/101
f 121/84/108 94/85/18 40/86/93
f 107/84/95 94/85/18 106/86/109
f 148/36/110 149/38/111 99/35/112
f 149/38/111 110/37/113 99/35/112
f 149/43/111 104/45/114 110/44/113
f 104/45/114 102/46/115 110/44/113
f 105/31/116 148/33/110 100/32/117
f 148/33/110 99/34/112 100/32/117
f 104/72/114 101/74/118 102/73/115
f 47/87/107 147/88/106 44/89/101
f 106/86/109 94/91/18 121/84/108
f 50/61/119 45/75/104 103/77/96
f 46/75/105 51/83/120 146/79/98
f 108/72/121 101/74/118 104/73/114
f 102/72/115 101/74/118 112/73/122
f 50/59/119 103/61/96 147/92/106
f 103/61/96 98/93/97 147/92/106
f 146/61/98 51/59/120 96/62/99
f 51/59/120 47/60/107 96/62/99
f 42/56/92 52/55/123 40/58/93
f 40/58/93 52/55/123 121/57/108
f 53/56/124 43/55/94 106/58/109
f 106/58/109 43/55/94 107/57/95
f 48/43/125 108/45/121 149/44/111
f 108/45/121 104/46/114 149/44/111
f 114/35/126 48/37/125 148/36/110
f 48/37/125 149/38/111 148/36/110
f 58/72/127 101/74/118 108/73/121
f 110/43/113 102/45/115 109/44/128
f 102/45/115 112/46/122 109/44/128
f 112/72/122 101/74/118 111/73/129
f 99/35/112 110/37/113 151/36/130
f 110/37/113 109/38/128 151/36/130
f 113/31/131 114/33/126 105/32/116
f 114/33/126 148/34/110 105/32/116
f 123/78/132 45/75/104 50/61/119
f 46/75/105 122/76/133 51/83/120
f 100/31/117 99/33/112 150/32/134
f 99/33/112 151/34/130 150/32/134
f 111/72/129 101/74/118 58/73/127
f 152/94/135 120/95/136 119/96/137
f 49/94/138 153/95/139 120/96/136
f 54/97/140 60/98/141 56/99/142
f 57/99/143 115/98/144 124/97/145
f 119/100/137 117/101/146 116/102/147
f 116/100/147 117/101/146 153/102/139
f 153/100/139 117/101/146 120/102/136
f 120/100/136 117/101/146 119/102/137
f 51/59/120 50/61/119 47/92/107
f 50/61/119 147/93/106 47/92/107
f 52/56/123 53/55/124 121/58/108
f 121/58/108 53/55/124 106/57/109
f 59/43/148 58/45/127 48/44/125
f 58/45/127 108/46/121 48/44/125
f 109/43/128 112/45/122 126/44/149
f 112/45/122 111/46/129 126/44/149
f 152/94/135 119/95/137 154/103/150
f 119/95/137 116/104/147 154/103/150
f 49/103/138 154/94/150 153/104/139
f 154/94/150 116/95/147 153/104/139
f 155/36/151 59/38/148 114/35/126
f 59/38/148 48/37/125 114/35/126
f 122/47/133 123/49/132 51/48/120
f 123/49/132 50/105/119 51/48/120
f 151/36/130 109/38/128 156/35/152
f 109/38/128 126/37/149 156/35/152
f 61/31/153 155/33/151 113/32/131
f 155/33/151 114/34/126 113/32/131
f 150/31/134 151/33/130 118/32/154
f 151/33/130 156/34/152 118/32/154
f 126/43/149 111/45/129 59/44/148
f 111/45/129 58/46/127 59/44/148
f 54/106/140 55/107/155 60/108/141
f 55/107/155 125/109/156 60/108/141
f 124/107/145 115/109/144 55/106/155
f 115/109/144 125/108/156 55/106/155
f 156/35/152 126/37/149 155/36/151
f 126/37/149 59/38/148 155/36/151
f 118/31/154 156/33/152 61/32/153
f 156/33/152 155/34/151 61/32/153
f 73/80/157 21/82/158 72/81/157
f 21/82/158 20/90/157 72/81/157
f 12/110/22 18/30/1 10/29/22
f 68/18/20 2/111/159 7/1/21
f 3/2/159 7/1/21 2/111/159
f 168/112/160 65/113/35 167/114/160
f 92/115/161 88/116/162 170/117/161
f 88/116/162 89/115/162 170/118/161
f 83/116/163 92/115/161 170/118/161
f 89/115/162 22/116/164 170/117/161
f 80/115/165 83/116/163 170/117/161
f 22/116/164 80/115/165 170/118/161
f 100/115/166 169/117/167 105/116/167
f 105/116/167 169/118/167 113/115/167
f 150/116/168 169/118/167 100/115/166
f 113/115/167 169/117/167 61/116/167
f 118/115/168 169/117/167 150/116/168
f 61/116/167 169/118/167 118/115/168
f 174/119/169 62/120/170 171/121/171
f 64/122/169 62/120/170 174/119/169
f 171/123/171 67/124/172 173/125/173
f 62/113/170 67/124/172 171/123/171
f 65/122/174 64/120/169 167/119/175
f 167/119/175 64/120/169 174/121/169
f 1/124/176 65/113/174 168/112/177
