# Blender v2.79 (sub 0) OBJ File: ''
# www.blender.org
mtllib YellowMovingPlatform.mtl
o mesh_12_meshId12_name
v 10.820830 17.743744 20.500000
v 5.779163 17.743744 20.500000
v 10.820830 12.470830 20.500000
v 5.779163 12.470830 20.500000
vt 1.000611 0.998654
vt -0.000367 0.998654
vt 1.000611 0.001587
vt -0.000367 0.001587
vn 0.0000 0.0000 1.0000
usemtl texture_1_material_0
s off
f 1/1/1 2/2/1 3/3/1
f 4/4/1 3/3/1 2/2/1
o mesh_11_meshId11_name
v 13.600000 8.775001 -25.049992
v 13.600000 6.025000 -25.049992
v 9.600000 8.775001 -25.049992
v 9.600000 6.025000 -25.049992
v -9.400002 8.775001 -25.049992
v -9.400002 6.025000 -25.049992
v -13.400002 8.775001 -25.049992
v -13.400002 6.025000 -25.049992
vt 0.998468 0.998405
vt 0.998468 0.501264
vt 0.501328 0.998405
vt 0.501328 0.501264
vt 0.501328 0.998405
vt 0.501328 0.501264
vt 0.998468 0.998405
vt 0.998468 0.501264
vn 0.0000 0.0000 -1.0000
usemtl texture_5_material_0
s off
f 5/5/2 6/6/2 7/7/2
f 8/8/2 7/7/2 6/6/2
f 9/9/2 10/10/2 11/11/2
f 12/12/2 11/11/2 10/10/2
o mesh_10_meshId10_name
v 14.800001 0.023545 13.172119
v 14.800003 0.023545 4.602282
v 14.800001 8.593384 13.172119
v 14.800003 8.593384 4.602282
v -14.800001 8.593384 13.172119
v -14.800003 8.593384 4.602282
v -14.800001 0.023545 13.172119
v -14.800003 0.023545 4.602282
vt 0.990960 0.004829
vt 0.005623 0.004829
vt 0.990960 0.988212
vt 0.005623 0.988212
vt 0.990960 0.988212
vt 0.005623 0.988212
vt 0.990960 0.004829
vt 0.005623 0.004829
vn 1.0000 0.0000 0.0000
vn -1.0000 0.0000 0.0000
usemtl texture_2_material_0
s off
f 13/13/3 14/14/3 15/15/3
f 16/16/3 15/15/3 14/14/3
f 17/17/4 18/18/4 19/19/4
f 20/20/4 19/19/4 18/18/4
o mesh_9_meshId9_name
v 14.799999 0.022147 -7.610654
v 14.800003 0.022149 -19.037106
v 14.800001 11.448593 -7.610653
v 14.800004 11.448594 -19.037106
v -14.800001 11.448593 -7.610653
v -14.800004 11.448594 -19.037106
v -14.799999 0.022147 -7.610654
v -14.800003 0.022149 -19.037106
vt 0.005621 0.000593
vt 0.994868 0.000593
vt 0.005621 0.987885
vt 0.994868 0.987885
vt 0.005621 0.987885
vt 0.994868 0.987885
vt 0.005621 0.000593
vt 0.994868 0.000593
vn 1.0000 -0.0000 0.0000
vn -1.0000 -0.0000 0.0000
usemtl texture_2_material_0
s off
f 21/21/5 22/22/5 23/23/5
f 24/24/5 23/23/5 22/22/5
f 25/25/6 26/26/6 27/27/6
f 28/28/6 27/27/6 26/26/6
o mesh_8_meshId8_name
v 15.608732 0.099999 20.050238
v 15.608732 0.100001 -27.150238
v -15.608732 0.099999 20.050238
v -15.608732 0.100001 -27.150238
vt 0.000000 0.750733
vt 0.000000 1.000000
vt 0.250244 0.750733
vt 0.250244 1.000000
vn 0.0000 1.0000 0.0000
usemtl texture_11_material_0
s off
f 29/29/7 30/30/7 31/31/7
f 32/32/7 31/31/7 30/30/7
o mesh_7_meshId7_name
v 10.631771 6.627622 20.100008
v 10.631771 11.372375 20.100008
v 5.887018 6.627622 20.100008
v 5.887018 11.372375 20.100008
vt 0.482387 0.506907
vt 0.482387 0.991756
vt 0.032901 0.506907
vt 0.032901 0.991756
vn 0.0000 0.0000 1.0000
usemtl texture_6_material_0
s off
f 33/33/8 34/34/8 35/35/8
f 36/36/8 35/35/8 34/34/8
o mesh_6_meshId6_name
v 8.199997 14.999992 18.750004
v 6.499997 17.944481 20.850002
v 4.799997 14.999992 20.850002
v 9.899996 17.944481 20.850002
v 11.599998 14.999992 20.850002
v 11.599998 14.999992 20.850002
v 9.899998 12.055507 20.850002
v 11.599998 14.999992 17.450005
v 9.899998 12.055510 17.450005
v 9.899996 17.944481 17.450005
v 11.599998 14.999992 17.450005
v 6.499997 17.944481 17.450005
v 4.799997 14.999992 17.450005
v 9.899996 17.944481 20.850002
v 11.599998 14.999992 20.850002
v 9.899996 17.944481 17.450005
v 11.599998 14.999992 17.450005
v 6.499997 17.944481 20.850002
v 9.899996 17.944481 20.850002
v 6.499997 17.944481 17.450005
v 9.899996 17.944481 17.450005
v 4.799997 14.999992 20.850002
v 6.499997 17.944481 20.850002
v 4.799997 14.999992 17.450005
v 6.499997 17.944481 17.450005
v 6.499998 12.055507 17.450005
v 4.799997 14.999992 17.450005
v 9.899998 12.055510 17.450005
v 6.499998 12.055507 20.850002
v 4.799997 14.999992 20.850002
v 6.499998 12.055507 17.450005
v 4.799997 14.999992 17.450005
v 6.499998 12.055507 20.850002
v 9.899998 12.055507 20.850002
v 8.199997 14.999992 18.750004
v 11.599998 14.999992 20.850002
vt 0.389679 0.022806
vt -0.001328 0.969043
vt 0.784596 0.969043
vt 0.784596 0.969043
vt -0.001328 0.969043
vt -0.001328 0.969043
vt 0.999650 0.969043
vt -0.001328 0.014986
vt 0.999650 0.014986
vt 0.780686 0.609316
vt 0.999650 0.218309
vt 0.245007 0.609316
vt -0.001328 0.218309
vt -0.001328 0.969043
vt 0.999650 0.969043
vt -0.001328 0.014986
vt 0.999650 0.014986
vt -0.001328 0.969043
vt 0.999650 0.969043
vt -0.001328 0.014986
vt 0.999650 0.014986
vt -0.001328 0.969043
vt 0.999650 0.969043
vt -0.001328 0.014986
vt 0.999650 0.014986
vt 0.245007 0.609316
vt -0.001328 0.218309
vt 0.780686 0.609316
vt -0.001328 0.969043
vt 0.999650 0.969043
vt -0.001328 0.014986
vt 0.999650 0.014986
vt -0.001328 0.969043
vt 0.784596 0.969043
vt 0.389679 0.022806
vt -0.001328 0.969043
vn 0.1475 -0.2555 0.9555
vn 0.2627 -0.4551 0.8508
vn 0.5255 0.0000 0.8508
vn -0.2627 -0.4551 0.8508
vn -0.5029 -0.2903 0.8141
vn 0.8660 -0.5000 0.0000
vn 0.0000 0.0000 -1.0000
vn 0.8660 0.5000 0.0000
vn 0.0000 1.0000 0.0000
vn -0.8660 0.5000 0.0000
vn -0.8660 -0.5000 0.0000
vn 0.2627 0.4551 0.8508
vn -0.2627 0.4551 0.8508
vn -0.5029 0.2903 0.8141
usemtl texture_9_material_0
s 1
f 37/37/9 38/38/10 39/39/11
f 37/37/9 40/40/12 38/38/10
f 41/41/13 40/40/12 37/37/9
f 42/42/14 43/43/14 44/44/14
f 45/45/14 44/44/14 43/43/14
f 46/46/15 47/47/15 48/48/15
f 49/49/15 48/48/15 47/47/15
f 50/50/16 51/51/16 52/52/16
f 53/53/16 52/52/16 51/51/16
f 54/54/17 55/55/17 56/56/17
f 57/57/17 56/56/17 55/55/17
f 58/58/18 59/59/18 60/60/18
f 61/61/18 60/60/18 59/59/18
f 62/62/15 63/63/15 64/64/15
f 47/47/15 64/64/15 63/63/15
f 65/65/19 66/66/19 67/67/19
f 68/68/19 67/67/19 66/66/19
f 39/39/11 69/69/20 37/37/9
f 69/69/20 70/70/21 71/71/21
f 72/72/22 71/71/21 70/70/21
o mesh_5_meshId5_name
v 14.750000 1.315237 -16.601580
v -14.750000 5.000000 -18.700001
v 14.750000 5.000001 -18.700001
v -14.750000 1.315235 -16.601580
v 14.750000 -0.186343 -12.999999
v -14.750000 -0.186345 -12.999999
v 14.750000 1.315236 -9.398418
v -14.750000 1.315235 -9.398418
v 14.750000 5.000002 -7.299999
v -14.750000 5.000000 -7.299999
v -14.799999 0.908276 11.500173
v 14.799999 3.700001 13.118000
v -14.799999 3.700001 13.118000
v 14.799999 0.908277 11.500173
v -14.799999 -0.202893 8.900004
v 14.799999 -0.202892 8.900004
v -14.799999 0.908275 6.299836
v 14.799999 0.908277 6.299836
v -14.799999 3.699999 4.682006
v 14.799999 3.700001 4.682006
vt 0.250244 0.961877
vt 0.000000 0.881720
vt 0.250244 0.881720
vt 0.000000 0.961877
vt 0.000000 0.974585
vt 0.250244 0.876833
vt 0.000000 0.876833
vt 0.250244 0.974585
vt 0.250244 0.881720
vt 0.000000 0.961877
vt 0.250244 0.961877
vt 0.000000 0.881720
vt 0.250244 0.798631
vt 0.000000 0.798631
vt 0.000000 0.876833
vt 0.250244 0.974585
vt 0.000000 0.974585
vt 0.250244 0.876833
vt 0.000000 0.782014
vt 0.250244 0.782014
vn 0.0000 -0.4949 0.8690
vn 0.0000 -0.5014 -0.8652
vn 0.0000 -0.7491 -0.6624
vn 0.0000 -0.4949 -0.8690
vn 0.0000 -1.0000 0.0000
vn 0.0000 -0.7491 0.6624
vn 0.0000 -0.7487 0.6629
vn 0.0000 -0.5014 0.8652
vn 0.0000 -0.7487 -0.6629
usemtl texture_0_material_0
s off
f 81/73/23 80/74/23 79/75/23
f 81/73/23 82/76/23 80/74/23
f 91/77/24 90/78/24 89/79/24
f 91/77/24 92/80/24 90/78/24
s 1
f 73/81/25 74/82/26 75/83/26
f 73/81/25 76/84/25 74/82/26
f 77/85/27 76/84/25 73/81/25
f 77/85/27 78/86/27 76/84/25
f 79/75/28 78/86/27 77/85/27
f 79/75/28 80/74/28 78/86/27
f 83/87/29 84/88/30 85/89/30
f 83/87/29 86/90/29 84/88/30
f 87/91/27 86/90/29 83/87/29
f 87/91/27 88/92/27 86/90/29
f 89/79/31 88/92/27 87/91/27
f 89/79/31 90/78/31 88/92/27
o mesh_4_meshId4_name
v 5.750000 2.500001 -21.499985
v -5.750000 2.500001 -21.499985
v 5.750000 12.000001 -21.499985
v -5.750000 12.000001 -21.499985
vt 0.000267 0.008897
vt 1.001245 0.008897
vt 0.000267 0.991439
vt 1.001245 0.991439
vn 0.0000 0.0000 -1.0000
usemtl texture_10_material_0
s off
f 93/93/32 94/94/32 95/95/32
f 96/96/32 95/95/32 94/94/32
o mesh_3_meshId3_name
v -13.325001 1.449999 20.200001
v -13.125000 5.649998 20.000000
v -15.200001 1.449999 17.700001
v 13.125000 5.649998 20.000000
v 13.325001 1.449999 20.200001
v 15.000000 5.649998 17.500000
v 15.200001 1.449999 17.700001
v -15.000000 5.649998 17.500000
vt 0.625611 2.339687
vt -0.375367 2.625122
vt -0.375367 2.335777
vt 0.625611 2.625122
vt -0.375367 -0.373900
vt 0.625611 -0.373900
vt -0.375367 -0.084555
vt 0.625611 -0.088465
vn 0.7982 0.0665 0.5987
vn -0.7982 0.0665 0.5987
vn -0.4516 0.0639 0.8900
vn -0.4407 0.0636 0.8954
vn 0.4407 0.0636 0.8954
vn 0.4516 0.0639 0.8900
usemtl texture_8_material_0
s off
f 101/97/33 102/98/33 100/99/33
f 103/100/33 102/98/33 101/97/33
f 104/101/34 99/102/34 98/103/34
s 1
f 97/104/35 98/103/36 99/102/34
f 97/104/35 100/99/37 98/103/36
f 101/97/38 100/99/37 97/104/35
o mesh_2_meshId2_name
v 15.000000 9.999999 -17.724998
v 16.500000 9.017436 -16.795986
v 15.000000 2.500001 -19.750000
v 16.500000 2.543317 -18.589834
v 15.000000 9.999998 -8.275000
v 16.500000 9.017435 -9.204010
v 16.500000 9.017436 -16.795986
v 15.000000 2.400000 -6.250000
v 16.500000 2.514438 -7.410165
v 16.500000 9.017435 -9.204010
v -15.000000 9.999998 -8.275000
v -16.500000 9.017435 -9.204010
v -15.000000 2.400000 -6.250000
v -16.500000 2.514438 -7.410165
v -15.000000 9.999999 -17.724998
v -16.500000 9.017436 -16.795986
v -16.500000 9.017435 -9.204010
v -15.000000 2.500001 -19.750000
v -16.500000 2.543317 -18.589834
v -16.500000 9.017436 -16.795986
vt 0.633514 0.916837
vt 0.601256 0.967668
vt 0.500572 0.836680
vt 0.467336 0.885556
vt 0.500572 0.836680
vt 0.479067 0.893376
vt 0.591481 0.961802
vt 0.633514 0.916837
vt 0.601256 0.967668
vt 0.467336 0.885556
vt 0.500572 0.836680
vt 0.467336 0.885556
vt 0.633514 0.916837
vt 0.601256 0.967668
vt 0.633514 0.916837
vt 0.591481 0.961802
vt 0.479067 0.893376
vt 0.500572 0.836680
vt 0.467336 0.885556
vt 0.601256 0.967668
vn 0.6682 0.5817 -0.4638
vn 0.6073 0.2078 -0.7668
vn 0.5966 0.2133 -0.7736
vn 0.5936 0.2149 -0.7755
vn 0.6660 0.5838 0.4642
vn 0.5479 0.8365 0.0000
vn 0.5884 0.2082 0.7813
vn 0.5915 0.2085 0.7788
vn 0.6107 0.2105 0.7633
vn -0.6683 0.5810 0.4646
vn -0.6058 0.2057 0.7685
vn -0.5913 0.2132 0.7778
vn -0.5871 0.2152 0.7803
vn -0.6666 0.5838 -0.4635
vn -0.5479 0.8365 0.0000
vn -0.5944 0.2096 -0.7763
vn -0.5968 0.2098 -0.7744
vn -0.6110 0.2114 -0.7629
usemtl texture_3_material_0
s 1
f 105/105/39 106/106/40 107/107/41
f 108/108/42 107/107/41 106/106/40
f 109/109/43 110/110/44 105/105/39
f 111/111/44 105/105/39 110/110/44
f 112/112/45 113/113/46 109/109/43
f 114/114/47 109/109/43 113/113/46
f 115/115/48 116/116/49 117/117/50
f 118/118/51 117/117/50 116/116/49
f 119/119/52 120/120/53 115/115/48
f 121/121/53 115/115/48 120/120/53
f 122/122/54 123/123/55 119/119/52
f 124/124/56 119/119/52 123/123/55
o mesh_1_meshId1_name
v 5.750000 12.000001 -21.499985
v 15.000000 12.000001 -25.000000
v 8.000000 12.000001 -25.000000
v 15.000000 11.999999 17.500000
v -5.750000 12.000001 -21.499985
v -15.000000 11.999999 17.500000
v -15.000000 12.000001 -25.000000
v -8.000000 12.000001 -25.000000
vt -0.265885 -0.420821
vt -1.501466 -0.749267
vt -0.566960 -0.749267
vt -1.501466 3.250733
vt 1.266862 -0.420821
vt 2.502444 3.250733
vt 2.502444 -0.749267
vt 1.567937 -0.749267
vn 0.0000 1.0000 0.0000
usemtl texture_4_material_0
s off
f 125/125/57 126/126/57 127/127/57
f 125/125/57 128/128/57 126/126/57
f 129/129/57 128/128/57 125/125/57
f 129/129/57 130/130/57 128/128/57
f 131/131/57 130/130/57 129/129/57
f 129/129/57 132/132/57 131/131/57
o mesh_0_meshId0_name
v -13.125000 2.399999 20.000000
v -15.000000 11.999999 17.500000
v -15.000000 2.399999 17.500000
v -13.125000 11.999999 20.000000
v 13.125000 2.399999 20.000000
v 13.125000 11.999999 20.000000
v 15.000000 11.999999 17.500000
v 15.000000 9.999998 -8.275000
v 15.000000 4.999998 6.609375
v 15.000000 2.400000 5.625000
v 15.000000 11.999999 17.500000
v 15.000000 9.999999 -17.724998
v 15.000000 12.000001 -25.000000
v 15.000000 2.500001 -19.750000
v 15.000000 2.500001 -25.000000
v -15.000000 11.999999 17.500000
v -15.000000 4.999998 11.178127
v -15.000000 2.400000 12.162501
v -15.000000 9.999998 -8.275000
v -15.000000 12.000001 -25.000000
v -15.000000 9.999999 -17.724998
v -15.000000 2.500001 -25.000000
v -15.000000 2.500001 -19.750000
v 13.500000 14.999999 17.500000
v 12.125000 14.499999 19.000000
v 15.000000 11.999999 17.500000
v -12.125000 14.499999 19.000000
v -13.500000 14.999999 17.500000
v -13.125000 11.999999 20.000000
v -15.000000 11.999999 17.500000
v -15.000000 4.999998 6.609375
v -15.000000 2.400000 -6.250000
v -15.000000 2.400000 5.625000
v 15.000000 4.999998 11.178127
v 15.000000 2.399999 17.500000
v 15.000000 2.400000 12.162501
v 15.000000 2.399999 17.500000
v -15.000000 12.000001 -25.000000
v -8.000000 12.000001 -25.000000
v -15.000000 2.500001 -25.000000
v -8.000000 2.500001 -25.000000
v -13.500000 14.999999 17.500000
v 13.500000 14.999999 17.500000
v -15.000000 11.999999 17.500000
v 15.000000 11.999999 17.500000
v 13.125000 11.999999 20.000000
v 15.000000 2.400000 -6.250000
v -15.000000 2.399999 17.500000
v 15.000000 2.500001 -25.000000
v 8.000000 2.500001 -25.000000
v 15.000000 12.000001 -25.000000
v 8.000000 12.000001 -25.000000
v 5.750000 12.000001 -21.499985
v 8.000000 12.000001 -25.000000
v 5.750000 2.500001 -21.499985
v 8.000000 2.500001 -25.000000
v -5.750000 12.000001 -21.499985
v -5.750000 2.500001 -21.499985
v -8.000000 12.000001 -25.000000
v -8.000000 2.500001 -25.000000
vt 0.059702 0.604872
vt 1.111510 0.206045
vt 1.041129 -0.001189
vt 1.111510 0.206045
vt 0.204374 -0.001189
vt 1.041129 -0.001189
vt 0.059702 0.604872
vt 1.436046 0.206045
vt 0.204374 -0.001189
vt -0.909995 -0.001189
vt -1.121139 0.761274
vt -1.121139 -0.001189
vt -0.909995 0.761274
vt 0.681402 -0.001189
vt 0.681402 0.761274
vt 0.876906 0.761274
vt 1.881793 0.765184
vt -0.608920 0.604872
vt -1.121139 0.765184
vt -0.749683 0.006631
vt -1.121139 0.006631
vt 1.881793 0.765184
vt 1.506427 -0.001189
vt -1.121139 0.765184
vt -0.608920 0.604872
vt -1.121139 0.006631
vt -0.749683 0.006631
vt 0.681402 0.991969
vt 0.552370 0.941138
vt 0.876906 0.761274
vt -0.777053 0.941138
vt -0.909995 0.991969
vt -0.909995 0.761274
vt -1.121139 0.761274
vt 1.436046 0.206045
vt 1.881793 -0.001189
vt 1.506427 -0.001189
vt 0.876906 -0.001189
vt 0.239565 0.761274
vt 0.720503 0.761274
vt 0.239565 -0.001189
vt 0.720503 -0.001189
vt 0.681402 0.991969
vt -0.909995 0.991969
vt 0.876906 0.761274
vt -1.121139 0.761274
vt 0.681402 0.761274
vt 1.881793 -0.001189
vt -1.121139 -0.001189
vt -0.640201 -0.001189
vt -1.121139 0.761274
vt -0.640201 0.761274
vt -0.370406 0.761274
vt -0.640201 0.761274
vt -0.370406 -0.001189
vt -0.640201 -0.001189
vt 0.990298 0.761274
vt 0.990298 -0.001189
vt 0.720503 0.761274
vt 0.720503 -0.001189
vn 1.0000 0.0000 0.0000
vn -1.0000 0.0000 0.0000
vn -0.4472 0.0000 0.8944
vn -0.8000 0.0000 0.6000
vn 0.4472 0.0000 0.8944
vn 0.8000 0.0000 0.6000
vn 0.4772 0.6036 0.6387
vn 0.2313 0.6865 0.6894
vn 0.6803 0.4233 0.5983
vn -0.1853 0.6991 0.6905
vn -0.4788 0.6701 0.5671
vn -0.4056 0.4282 0.8075
vn -0.7428 0.3714 0.5571
vn 0.0000 0.0000 -1.0000
vn 0.4220 0.4771 0.7709
vn -0.8412 0.0000 -0.5407
vn 0.8412 0.0000 -0.5407
usemtl texture_7_material_0
s off
f 140/133/58 141/134/58 142/135/58
f 163/136/59 164/137/59 165/138/59
f 163/136/59 151/139/59 164/137/59
f 149/140/59 151/139/59 163/136/59
f 142/135/58 179/141/58 140/133/58
s 1
f 133/142/60 134/143/61 135/144/61
f 133/142/60 136/145/60 134/143/61
f 137/146/62 136/145/60 133/142/60
f 137/146/62 138/147/62 136/145/60
f 139/148/63 138/147/62 137/146/62
f 140/133/58 143/149/58 141/134/58
f 144/150/58 143/149/58 140/133/58
f 144/150/58 145/151/58 143/149/58
f 146/152/58 145/151/58 144/150/58
f 146/152/58 147/153/58 145/151/58
f 148/154/59 149/140/59 150/155/59
f 148/154/59 151/139/59 149/140/59
f 152/156/59 151/139/59 148/154/59
f 152/156/59 153/157/59 151/139/59
f 154/158/59 153/157/59 152/156/59
f 154/158/59 155/159/59 153/157/59
f 156/160/64 157/161/65 158/162/66
f 156/160/64 159/163/67 157/161/65
f 160/164/68 159/163/67 156/160/64
f 160/164/68 161/165/69 159/163/67
f 162/166/70 161/165/69 160/164/68
f 166/167/58 167/168/58 168/169/58
f 166/167/58 143/149/58 167/168/58
f 141/134/58 143/149/58 166/167/58
f 137/146/62 169/170/63 139/148/63
f 170/171/71 171/172/71 172/173/71
f 173/174/71 172/173/71 171/172/71
f 174/175/71 175/176/71 176/177/71
f 177/178/71 176/177/71 175/176/71
f 161/165/69 178/179/72 159/163/67
f 157/161/65 159/163/67 178/179/72
f 178/179/72 158/162/66 157/161/65
f 150/155/59 180/180/59 148/154/59
f 181/181/71 182/182/71 183/183/71
f 184/184/71 183/183/71 182/182/71
f 185/185/73 186/186/73 187/187/73
f 188/188/73 187/187/73 186/186/73
f 189/189/74 190/190/74 191/191/74
f 192/192/74 191/191/74 190/190/74
