mtllib ArmCannon.mtl
v 4.796167 -4.48864 0.293115
v 6.65578 -2.301337 2.509916
v 5.204744 -1.905615 2.295515
v 6.247115 -4.88441 0.507615
v 3.910002 -6.343367 2.866614
v 5.360951 -6.739141 3.081113
v 4.318579 -3.760342 4.869014
v 5.769527 -4.156115 5.083415
v 10.301354 -4.481751 1.417716
v 7.531235 -6.689919 1.472414
v 9.589951 -7.330127 1.696015
v 8.352427 -4.102305 1.194316
v 8.973916 -3.918305 1.688216
v 8.183375 -7.325065 2.267415
v 5.900466 -5.676234 1.828314
v 6.438313 -3.688111 1.581014
v 10.161256 -3.786007 1.170815
v 8.048017 -2.31398 1.363816
v 9.494701 -3.507856 3.098015
v 6.094314 -3.096557 3.475114
v 10.372228 -4.040486 4.141716
v 5.477053 -5.922261 3.251914
v 9.623424 -7.106241 4.164315
v 7.529823 -6.57429 4.747015
v 8.203003 -3.561849 4.861315
v -0.206053 -0.824043 0.911696
v 0.658964 -0.461435 -0.198205
v -0.495673 0.100972 -0.198205
v 0.655715 -1.273544 0.525294
v 0.564488 1.125455 -0.198204
v 0.595844 -0.267908 1.225895
v 1.562256 -4.072185 1.973894
v 2.140155 -3.271978 1.331994
v 1.970591 -3.072402 2.530894
v 4.25931 -4.872875 2.539194
v 4.71788 -4.060839 1.843995
v 4.486999 -3.772358 3.014195
v 23.347168 -0.274447 5.708531
v 21.08202 -0.273835 4.901848
v 23.348179 2.028041 4.38048
v 23.347599 -2.575821 4.378543
v 21.082733 1.331082 3.976174
v 21.082317 -1.877917 3.974855
v 6.044712 -0.271639 4.298796
v 13.485378 0.433742 4.508082
v 11.826439 2.473901 4.200036
v 7.197621 -0.272048 4.889269
v 6.032173 -0.271978 5.066852
v 12.976505 1.328017 3.706046
v 23.349777 2.029082 1.722415
v 21.083836 1.331798 2.123492
v 23.349171 -2.574718 1.720562
v 21.083475 -1.877157 2.122159
v 10.36513 2.475448 3.897924
v 7.195339 0.434577 4.504384
v 12.441685 3.317352 3.450733
v 7.185653 2.474423 4.197225
v 9.519821 1.328429 3.704008
v 10.140805 -1.843753 3.61965
v 9.394995 4.793971 3.621962
v 7.511261 2.475759 3.896233
v 7.198366 1.328991 3.965765
v 9.5203 3.933221 3.44924
v 7.198007 -1.872305 3.964469
v 8.985598 -1.843644 3.618924
v 6.032937 1.483536 4.054263
v 9.014158 -6.296528 3.617104
v 7.783487 4.794143 3.620965
v 6.032495 -2.026608 4.052856
v 21.08424 -0.272303 1.196479
v 12.44216 3.317689 2.64034
v 7.859056 -5.934425 3.616583
v 12.97726 1.328484 2.383996
v 23.350288 -0.272245 0.392493
v 9.520779 3.933558 2.63885
v 10.141372 -1.843344 2.464488
v 9.39568 4.794469 2.466776
v 9.520638 1.328942 2.381944
v 10.366146 2.476136 2.190021
v 11.827858 2.474839 1.889657
v 8.9863 -1.843143 2.463812
v 13.487108 0.434927 1.581851
v 9.01486 -6.296028 2.461996
v 7.784176 4.794642 2.465781
v 7.859745 -5.933925 2.461399
v 7.51223 2.476507 2.188338
v 7.199498 1.329775 2.117463
v 7.199078 -1.871566 2.116179
v 7.186982 2.47538 1.88694
v 6.034129 1.484403 2.027657
v 6.033731 -2.025802 2.026243
v 7.197069 0.43576 1.578152
v 7.199823 -0.270525 1.192676
v 6.034495 -0.270288 1.013653
v 22.142248 -0.273184 3.049778
v 6.045182 0.818497 3.669978
v 6.044934 -1.361284 3.669103
v 8.377176 -0.271385 3.041616
v 6.045977 0.818973 2.411447
v 6.045685 -1.360746 2.410582
v 6.046168 -0.270609 1.781841
vt 0.7657 0.1286
vt 0.9822 0.1286
vt 0.7657 0.4972
vt 0.9822 0.4972
vt 0.9741 0.4972
vt 0.3826 0.752
vt 0.2656 0.7913
vt 0.3837 1.0059
vt 0.2661 1.0057
vt 0.9499 0.51
vt 0.8999 0.2801
vt 0.8 0.51
vt 0.8394 0.4125
vt 0.8805 0.4873
vt 0.7858 0.5031
vt 0.6999 0.2223
vt 0.5989 0.3217
vt 0.6963 0.3211
vt 0.9048 0.5021
vt 0.7803 0.4845
vt 0.8597 0.4099
vt 0.7999 0.51
vt 0.9 0.2801
vt 0.722 0.2223
vt 0.6812 0.3277
vt 0.6 0.2227
vt 0.7798 0.5021
vt 0.8717 0.4138
vt 0.9523 0.5032
vt 0.6499 0.951
vt 0.6499 0.7
vt 0.35 0.8255
vt 0.6999 0.3227
vt 0.6973 0.2253
vt 0.604 0.3171
vt 0.368 0.5164
vt 0.683 0.5174
vt 0.5255 0.602
vt 0.368 0.6168
vt 0.683 0.5074
vt 0.5255 0.9298
vt 0.2421 1.0054
vt 0.4761 1.005
vt 0.3595 0.8016
vt 0.368 0.5063
vt 0.683 0.6078
vt 0.6499 0.7451
vt 0.35 0.7451
vt 0.35 0.951
vt 0.683 0.9303
vt 0.368 0.9293
vt 0.7712 0.4932
vt 0.9872 0.4442
vt 0.7712 0.258
vt 0.9872 0.258
vt 0.7627 0.4999
vt 0.9893 0.4999
vt 0.7627 0
vt 0.9893 0
vt 0.7499 0.3808
vt 0.9999 0.3808
vt 0.7499 0
vt 0.9999 0
vt 0.9907 0.5012
vt 0.9907 0.0097
vt 0.5092 0.5012
vt 0.5092 0.0097
vt 0.8776 0.0137
vt 0.5684 0.0085
vt 0.5684 0.0208
vt 0.8776 0.026
vt 0.8776 0.4645
vt 0.8776 0.3673
vt 0.5684 0.4592
vt 0.5684 0.3621
vt 0.5203 -0.6052
vt 0.7401 -0.6052
vt 0.5275 -0.4929
vt 0.7207 -0.4929
vt 0.8464 0.1286
vt 0.925 0.1276
vt 0.8454 -0.492
vt 0.9216 -0.493
vt 0.2462 -0.6195
vt 0.2854 -0.6195
vt 0.2645 -0.6384
vt 0.2671 -0.6384
vt -0.1244 -0.4858
vt 0.2241 -0.4858
vt -0.1242 -0.1745
vt -0.0034 -0.1745
vt 0.7207 -0.5021
vt 0.5275 -0.5021
vt 0.9561 -0.4613
vt 0.9561 -0.9919
vt 0.8061 -0.5837
vt 0.8061 -0.9919
vt 0.55 -0.8501
vt 0.7 -0.85
vt 0.55 -0.6123
vt 0.6999 -0.6123
vt 0.9561 -0.5837
vt 0.2487 -0.9174
vt 0.251 -0.6521
vt 0.4 -0.9188
vt 0.4023 -0.6521
vt 0.5611 -0.6735
vt 0.5571 -0.7735
vt 0.688 -0.7735
vt 0.687 -0.6735
vt -0.1242 -0.4858
vt -0.1886 -0.1745
vt 0.1599 -0.1745
vt 0.1615 -0.4858
vt 0 -0.0001
vt 0.9999 -0.0001
vt 0 0.9999
vt 0.9999 0.9999
vt 0.6999 -0.85
vt 0.55 -0.85
vt 0.9571 -0.7653
vt 0.7836 -0.7653
vt 0.9571 -0.8531
vt 0.7836 -0.8531
vt 0.5397 -0.4929
vt 0.733 -0.4929
vt 0.1599 -0.4858
vt 0.1615 -0.1745
vt -0.1886 -0.4858
vt 0.0798 -0.1745
vt 0.613 -0.9725
vt 0.6128 -0.8897
vt 0.3169 -0.9373
vt 0.3816 -0.1072
vt 0.245 -0.1072
vt 0.38 -0.2042
vt 0.2448 -0.2042
vn 0.490555 -0.699271 -0.519913
vn -0.916013 -0.199194 -0.348125
vn 0.730125 0.301981 -0.612903
vn -0.663259 0.599261 -0.448256
vn -0.328349 -0.927335 -0.179418
vn 0.032044 0.160772 -0.98645
vn -0.245949 -0.531846 -0.810297
vn -0.290292 0.225013 -0.930082
vn 0.032502 0.818201 -0.573992
vn 0.795526 -0.242836 -0.555071
vn 0.609699 0.792383 0.019257
vn -0.41792 0.726646 0.545244
vn 0.799676 0.38789 0.458266
vn -0.687033 -0.594134 0.418226
vn 0.523698 -0.663472 0.534318
vn -0.282357 -0.529069 0.800195
vn 0.002777 0.574023 0.818812
vn -0.936308 0.141057 0.321482
vn 0.71868 -0.54149 -0.436171
vn -0.957335 -0.174627 0.23014
vn 0.240608 -0.309915 -0.919797
vn 0.320811 0.615497 0.71984
vn 0.196234 0.697653 0.688986
vn -0.589496 -0.806299 0.048341
vn 0.411603 0.043092 -0.910337
vn -0.012665 0.406476 0.913541
vn -0.310953 -0.94583 0.093081
vn 0.254463 0.297952 -0.920011
vn 0.026551 0.669485 0.742302
vn 0.277932 0.952727 -0.122593
vn 0.277932 0.952727 -0.122623
vn 0.102542 -0.156346 -0.98236
vn 0.102542 -0.156377 -0.98233
vn -0.277993 -0.952727 0.122562
vn -0.277963 -0.952696 0.122623
vn 0.955077 -0.260475 0.141148
vn 0.955077 -0.260475 0.141118
vn 0.955077 -0.260506 0.141148
vn -0.102512 0.156346 0.98236
vn -0.102512 0.156316 0.98236
vn -0.955077 0.260475 -0.141118
vn -0.335459 -0.000336 0.942015
vn -0.335093 0.815851 0.471236
vn -0.180486 -0.000366 0.983551
vn -0.18009 0.851711 0.49208
vn -0.335307 -0.816157 0.470565
vn -0.180303 -0.852046 0.491379
vn -0.334513 0.816218 -0.470992
vn -0.17951 0.852107 -0.491592
vn -0.334758 -0.81576 -0.471633
vn -0.179724 -0.85165 -0.492294
vn 0.076968 -0.000397 0.997009
vn 0.077364 0.863186 0.498886
vn 0.077151 -0.863613 0.498184
vn -0.475448 -0.000275 0.879727
vn -0.475112 0.761956 0.440046
vn -0.999969 0.000092 -0.000549
vn -0.475295 -0.7622 0.439436
vn -0.474624 0.762322 -0.439955
vn -0.474776 -0.761864 -0.440565
vn -0.000549 0.148869 0.98883
vn -0.000549 0.148839 0.98883
vn -0.00058 0.148808 0.988861
vn 0.151036 0.855831 0.494675
vn 0.150609 -0.000397 0.988586
vn 0.150822 -0.856258 0.493973
vn 0.077975 0.863582 -0.498062
vn -0.000549 0.097324 0.995239
vn 0.013794 0.116214 0.993103
vn 0.008637 0.109409 0.993927
vn 0.027863 0.134587 0.990478
vn 0.077761 -0.863216 -0.498764
vn -0.474441 0.000397 -0.880276
vn -0.334361 0.000427 -0.942412
vn -0.179327 0.000397 -0.983764
vn -0.000549 0.117954 0.993011
vn -0.00058 0.117954 0.993011
vn -0.00058 0.117924 0.993011
vn 0.206275 0.978484 0.000519
vn 0.697378 -0.176855 0.69451
vn 0.650502 0.506394 0.565966
vn -0.674581 0.185339 0.71453
vn -0.488357 0.6404 0.592761
vn 0.922452 0.386059 0.000702
vn -0.999878 -0.013581 0.007294
vn -0.999847 -0.01352 -0.008454
vn -0.999878 -0.01355 0.007294
vn 0.000092 0.999969 0.000427
vn -0.999969 -0.004822 -0.00058
vn -0.999969 -0.004822 -0.000549
vn -0.999969 -0.004852 -0.00058
vn 0.651143 0.506851 -0.564867
vn -0.487625 0.640889 -0.592792
vn 0.698233 -0.176275 -0.693777
vn -0.993164 0.11655 -0.000519
vn -0.993164 0.11655 -0.000488
vn 0.00058 0.098148 -0.995148
vn 0.009796 0.110233 -0.993835
vn 0.014985 0.117008 -0.993011
vn 0.029054 0.135441 -0.990356
vn -0.999847 0.000122 -0.016297
vn -0.999847 0.013794 -0.008454
vn -0.999847 0.000122 -0.016327
vn -0.673727 0.185949 -0.715171
vn 0.965667 0.259682 0.000671
vn 0.965667 0.259682 0.000641
vn 0.151646 0.856227 -0.493789
vn 0.078158 0.000366 -0.996918
vn 0.151433 -0.855861 -0.494491
vn 0.00058 0.118748 -0.99292
vn 0.00061 0.118778 -0.99292
vn 0.00061 0.118748 -0.99292
vn 0.00061 0.118778 -0.992889
vn 0.00058 0.149663 -0.988708
vn 0.15183 0.000366 -0.988403
vn 0.910672 -0.357952 -0.206244
vn 0.910825 0.000031 -0.412763
vn 0.999969 -0.000122 0.00058
vn 0.910733 0.357891 -0.205969
vn 0.910398 -0.358104 0.207038
vn 0.910489 0.357707 0.207343
vn 0.910337 -0.000275 0.413831
vn -0.999878 0.013733 0.007263
vn -0.999878 0.000092 0.015198
vn -0.999878 0.000122 0.015168
vn -0.299112 -0.954192 -0.00058
vn 0.775811 0.63094 0.000702
vn 0.444899 0.895566 0.00061
vn 0.000092 0.999969 0.000397
vn -0.000122 -1 -0.000336
vn -0.000122 -0.999969 -0.000336
vn -0.000122 -0.999969 -0.000366
vn -0.000092 -0.999969 -0.000366
usemtl mat2
f 3/64/30 2/65/31 1/66/32
f 2/65/31 4/67/33 1/66/32
f 1/64/32 4/65/33 5/66/34
f 4/65/33 6/67/35 5/66/34
f 8/68/36 6/69/37 4/70/36
f 2/71/38 8/68/36 4/70/36
f 7/64/39 8/65/40 3/66/30
f 8/65/40 2/67/31 3/66/30
f 5/64/34 6/65/35 7/66/39
f 6/65/35 8/67/40 7/66/39
f 1/72/41 5/73/41 3/74/41
f 5/73/41 7/75/41 3/74/41
usemtl mat1
f 11/1/1 10/2/2 9/3/3
f 10/2/2 12/4/4 9/3/3
f 14/2/5 13/5/6 10/1/2
f 13/5/6 12/3/4 10/1/2
f 14/6/5 15/7/7 13/8/6
f 15/7/7 16/9/8 13/8/6
f 18/10/9 17/11/10 13/12/6
f 9/13/3 12/14/4 13/15/6
f 16/16/8 18/17/9 13/18/6
f 14/19/5 10/20/2 11/21/1
f 17/11/10 18/22/9 19/10/11
f 13/12/6 17/23/10 19/10/11
f 20/24/12 18/25/9 16/26/8
f 21/27/13 9/28/3 13/29/6
f 14/30/5 22/31/14 15/32/7
f 18/33/9 20/34/12 19/35/11
f 14/27/5 11/28/1 23/29/15
f 21/36/13 13/37/6 19/38/11
f 23/1/15 11/2/1 21/3/13
f 11/2/1 9/4/3 21/3/13
f 14/30/5 24/31/16 22/32/14
f 14/39/5 23/40/15 24/41/16
f 19/42/11 20/43/12 25/44/17
f 21/45/13 19/46/11 25/41/17
f 25/47/17 20/48/12 24/30/16
f 24/30/16 20/48/12 22/49/14
f 21/40/13 25/50/17 23/45/15
f 23/45/15 25/50/17 24/51/16
f 28/52/18 27/53/19 26/54/20
f 27/53/19 29/55/21 26/54/20
f 31/55/22 29/54/21 30/53/23
f 30/53/23 29/54/21 27/52/19
f 30/52/23 28/53/18 31/54/22
f 28/53/18 26/55/20 31/54/22
f 26/56/20 29/57/21 32/58/24
f 29/57/21 33/59/25 32/58/24
f 34/59/26 33/58/25 31/57/22
f 31/57/22 33/58/25 29/56/21
f 32/59/24 34/58/26 26/57/20
f 26/57/20 34/58/26 31/56/22
f 32/60/24 33/61/25 35/62/27
f 33/61/25 36/63/28 35/62/27
f 33/60/25 34/61/26 36/62/28
f 34/61/26 37/63/29 36/62/28
f 35/63/27 37/62/29 32/61/24
f 32/61/24 37/62/29 34/60/26
f 38/76/42 40/77/43 39/78/44
f 42/79/45 39/78/44 40/77/43
f 41/76/46 38/77/42 43/78/47
f 39/79/44 43/78/47 38/77/42
f 40/76/43 50/77/48 42/78/45
f 51/79/49 42/78/45 50/77/48
f 52/76/50 41/77/46 53/78/51
f 43/79/47 53/78/51 41/77/46
f 39/80/44 42/81/45 47/82/52
f 62/83/53 47/82/52 42/81/45
f 43/80/47 39/81/44 64/82/54
f 47/83/52 64/82/54 39/81/44
f 101/84/55 100/85/56 98/86/57
f 99/85/58 101/84/55 98/87/57
f 100/85/56 97/84/59 98/87/57
f 96/84/60 99/85/58 98/86/57
f 55/88/61 45/89/62 57/90/61
f 46/91/63 57/90/61 45/89/62
f 66/92/64 48/93/65 62/77/53
f 48/93/65 47/76/52 62/77/53
f 48/92/65 69/93/66 47/77/52
f 69/93/66 64/76/54 47/77/52
f 42/80/45 51/81/49 62/82/53
f 87/83/67 62/82/53 51/81/49
f 58/94/68 49/95/69 63/96/70
f 56/97/71 63/96/70 49/95/69
f 53/80/51 43/81/47 88/82/72
f 64/83/54 88/82/72 43/81/47
f 97/84/59 44/85/73 98/86/57
f 44/85/73 96/84/60 98/87/57
f 50/76/48 74/77/74 51/78/49
f 70/79/75 51/78/49 74/77/74
f 74/76/74 52/77/50 70/78/75
f 53/79/51 70/78/75 52/77/50
f 61/98/76 54/99/77 68/100/77
f 60/101/78 68/100/77 54/99/77
f 63/96/79 56/97/79 71/95/79
f 75/102/79 63/96/79 71/95/79
f 67/103/80 59/104/81 72/105/82
f 72/105/82 59/104/81 65/106/83
f 77/101/84 60/100/84 79/99/84
f 54/98/84 79/99/84 60/100/84
f 99/79/85 96/78/86 90/77/87
f 66/76/86 90/77/87 96/78/86
f 68/107/88 60/108/88 77/109/88
f 84/110/88 68/107/88 77/109/88
f 55/111/89 57/112/90 89/113/89
f 92/114/91 55/111/89 89/113/89
f 59/115/81 76/116/92 65/117/83
f 76/116/92 81/118/93 65/117/83
f 67/103/80 83/103/94 59/104/81
f 83/103/94 76/104/92 59/104/81
f 61/119/95 68/101/95 84/100/95
f 86/120/96 61/119/95 84/100/95
f 78/94/97 75/96/98 73/95/99
f 75/96/98 71/97/100 73/95/99
f 44/79/101 97/78/102 48/77/103
f 69/76/102 48/77/103 97/78/102
f 65/106/83 81/106/93 72/105/82
f 81/106/93 85/105/104 72/105/82
f 71/121/105 56/122/106 73/123/106
f 49/124/106 73/123/106 56/122/106
f 90/92/107 66/93/64 87/77/67
f 66/93/64 62/76/53 87/77/67
f 51/80/49 70/81/75 87/82/67
f 93/83/108 87/82/67 70/81/75
f 70/80/75 53/81/51 93/82/108
f 88/83/72 93/82/108 53/81/51
f 96/125/86 44/126/101 66/76/86
f 69/92/66 91/93/109 64/77/54
f 91/93/109 88/76/72 64/77/54
f 48/77/103 66/76/86 44/126/101
f 83/103/94 85/105/104 76/104/92
f 85/105/104 81/106/93 76/104/92
f 86/99/110 84/101/111 79/98/112
f 84/101/111 77/100/113 79/98/112
f 92/127/114 89/128/114 82/129/114
f 89/128/114 80/130/114 82/129/114
f 94/92/115 90/93/107 93/77/108
f 90/93/107 87/76/67 93/77/108
f 91/92/109 94/93/115 88/77/72
f 94/93/115 93/76/108 88/77/72
f 40/131/116 38/132/117 95/133/118
f 38/131/117 41/132/119 95/133/118
f 50/131/120 40/132/116 95/133/118
f 41/131/119 52/132/121 95/133/118
f 74/131/122 50/132/120 95/133/118
f 52/131/121 74/132/122 95/133/118
f 91/77/123 69/76/102 100/126/123
f 97/125/102 100/126/123 69/76/102
f 90/77/87 94/76/124 99/126/85
f 101/125/125 99/126/85 94/76/124
f 94/76/124 91/77/123 101/78/125
f 100/79/123 101/78/125 91/77/123
f 72/105/126 85/105/126 67/103/126
f 85/105/126 83/103/126 67/103/126
f 45/129/127 82/127/127 46/90/128
f 80/128/128 46/90/128 82/127/127
f 89/134/129 57/135/129 80/136/128
f 57/135/129 46/137/128 80/136/128
f 73/115/130 49/116/131 78/117/132
f 49/116/131 58/118/133 78/117/132
