mtllib PawnArmless.mtl
v -0.012799 4.086235 0.855701
v -0.012799 5.698635 0.855701
v 2.3521 4.086236 2.892702
v -2.3521 4.086236 2.8927
v 2.3521 5.698636 2.892702
v -2.3521 5.698637 2.8927
v -0.0128 4.086234 4.9297
v -0.012801 5.698634 4.929701
v -1.5512 0.092535 0.028999
v -1.4404 1.756535 0.2748
v 4.996099 1.756534 1.414602
v -0.039899 4.109835 1.716301
v 2.209 4.109836 2.952302
v -2.1854 4.109837 2.9523
v 6.205298 1.756534 3.258802
v -4.445899 1.756536 3.258799
v -0.0399 4.109835 4.188301
v 4.996099 1.756533 5.103003
v 5.418199 0.092533 5.254902
v -1.440401 1.756534 6.242801
v 0.754801 9.032335 2.231802
v -0.1436 7.014235 1.939701
v 1.026 7.146434 2.694601
v -0.414799 8.843336 1.476901
v 0.7548 5.581834 2.887401
v -0.4148 5.496436 2.132601
v -0.414799 9.221334 2.986601
v -0.1436 7.283236 3.449501
v -0.4148 5.653834 3.642301
v 2.321802 5.698637 -2.892698
v -0.042998 4.086236 -4.929699
v 2.321801 4.086236 -2.892698
v -0.042997 5.698636 -4.929699
v -2.382298 4.086236 -2.8927
v -2.382298 5.698637 -2.8927
v -0.042999 5.698635 -0.855699
v -0.042998 4.086235 -0.855699
v -1.440398 1.756536 -6.242801
v 4.996101 1.756535 -5.102999
v -4.804299 0.092537 -3.258802
v -4.445899 1.756536 -3.258801
v 6.727001 0.092535 -3.258798
v 6.205301 1.756534 -3.258798
v -0.039898 4.109836 -4.1883
v -2.185399 4.109838 -2.9523
v 2.209002 4.109837 -2.952298
v 4.9961 1.756534 -1.414598
v -0.039898 4.109836 -1.716299
v -1.4404 1.756535 -0.2748
v 0.754802 5.581935 -2.887399
v -0.143598 7.283735 -3.449499
v -0.414798 5.653835 -3.642299
v 1.026002 7.141935 -2.694599
v 0.754801 9.033035 -2.231799
v -0.414799 9.220037 -2.986598
v -0.143599 7.014637 -1.939699
v -0.414798 5.502037 -2.132599
v -0.414799 8.842435 -1.476899
v 1.560775 7.167391 -7.941387
v 3.262248 9.153414 -9.943684
v -0.165692 6.051926 -10.514887
v 1.53558 8.037951 -12.517186
v 2.589361 6.070074 -8.155787
v 4.290732 8.056095 -10.158186
v 2.564164 6.940631 -12.731686
v 0.862693 4.954609 -10.729287
v -1.5512 0.092535 -0.029001
v 5.4182 0.092534 -1.262698
v -1.551198 0.092536 -6.4886
v 5.418202 0.092535 -5.254898
v -1.551202 0.092534 6.488599
v -4.804301 0.092535 3.258798
v 6.726999 0.092533 3.258802
v 5.4182 0.092534 1.262702
v 4.948245 6.171788 -12.509584
v 4.300919 2.408626 -11.812487
v 6.545106 4.627552 -11.789985
v 2.796506 3.958644 -12.395185
v 3.395953 7.67294 -11.123385
v 1.389683 5.589553 -10.900186
v 6.07664 5.540999 -10.746184
v 2.959805 2.976745 -9.915686
v 4.155102 2.235467 -9.344187
v 6.253438 4.288839 -9.065985
v 5.418108 5.46426 -9.336485
v 5.46995 7.315868 -9.012085
v 1.879133 5.577363 -9.476585
v 3.378911 6.988852 -9.229286
v 6.498741 4.954842 -8.819085
v 2.737124 3.859417 -9.120685
v 4.792346 5.633163 -8.842585
v 1.726628 7.950677 -10.646617
v -0.921718 9.227711 -9.606318
v 0.955982 7.13261 -10.171718
v -0.050087 9.86533 -10.163317
v 1.772033 7.583996 -9.476517
v -0.010328 9.6066 -8.964517
v -0.725927 12.920915 -8.544217
v 0.248372 12.974355 -8.858318
v -0.22743 12.086431 -8.157817
v -0.487957 13.860442 -7.434317
v 0.951711 14.177582 -7.434317
v 0.200738 12.776446 -7.434317
v 3.974316 17.753908 -3.955296
v -0.494266 18.697399 -3.955297
v 6.208606 17.282108 -0.000095
v -2.728557 19.169195 -0.000098
v 4.634813 19.469469 -1.278995
v 4.889596 18.121504 -2.243895
v 5.320823 17.672186 -1.502395
v 4.546541 19.020046 -2.132196
v 5.409097 18.121609 -0.649195
v 5.066041 19.020151 -0.537495
v 4.634812 19.469469 1.338905
v 5.409097 18.121609 0.709105
v 5.320823 17.672186 1.562305
v 5.066041 19.020151 0.597405
v 4.889594 18.121504 2.303805
v 4.546539 19.020046 2.192104
v 3.974314 17.753908 3.955104
v -0.494268 18.697399 3.955103
v 3.569677 19.084097 -2.782396
v 0.423101 19.748505 -2.782397
v 5.143015 18.751842 0.002705
v -1.150139 20.080759 0.002703
v 2.212274 20.438696 0.002704
v 3.117693 16.764654 0.000004
v 8.665055 18.062874 0.000006
v 3.117439 18.061857 -1.297196
v 3.117185 19.359062 0.000004
v 3.117439 18.061857 1.297204
v 3.569675 19.084097 2.787804
v 0.423099 19.748505 2.787803
v 0.477651 15.897936 -6.712098
v 1.099063 14.138442 -8.985498
v 2.388514 14.749389 -6.712097
v 0.321753 14.590263 -8.985498
v -0.628725 14.332033 -8.985498
v -1.660368 15.203156 -6.712099
v 4.205983 12.549298 -7.087497
v -3.12217 16.794323 -6.621398
v -3.935725 13.38011 -7.0875
v 4.348079 15.165702 -6.621396
v 1.642036 13.15385 -7.834298
v 0.128416 11.750905 -5.705998
v 1.762585 13.349845 -5.705997
v 0.128296 11.739906 -7.388398
v -1.354185 13.186591 -7.834299
v -1.470522 13.385174 -5.705997
v -0.652195 18.627342 -4.446797
v 4.158787 16.833069 -4.446796
v 0.142403 13.030828 -8.281298
v 0.159555 14.600535 -8.280198
v 2.608461 12.720764 -7.098297
v -2.380327 13.279908 -7.098299
v 7.188388 12.240592 -4.086296
v -6.893389 13.683345 -4.086298
v 8.083302 14.351339 0.000005
v 6.564225 15.935931 0.000005
v -3.057737 19.524481 0.000002
v -6.857297 17.608685 0.000001
v 0.979563 16.756802 0.000003
v 8.276786 12.133993 0.000005
v -8.006532 13.795413 -0.000001
v 7.188385 12.24059 4.086303
v -6.893391 13.683343 4.0863
v 4.158785 16.833069 4.446805
v -0.652197 18.627342 4.446803
v 4.348076 15.1657 6.621403
v -3.122174 16.794319 6.621402
v 4.205979 12.549296 7.087504
v -3.93573 13.380108 7.087502
v 1.642032 13.153848 7.837503
v 0.159551 14.600533 8.283401
v 1.762581 13.349843 5.709202
v -1.35419 13.186589 7.837502
v -1.470526 13.385172 5.709201
v 2.608457 12.720762 7.098303
v 1.099058 14.138438 8.985502
v 2.38851 14.749387 6.712103
v -1.660372 15.203154 6.712102
v -0.62873 14.332029 8.985502
v -2.380332 13.279906 7.098301
v 0.128292 11.739904 7.391602
v 0.142397 13.030826 8.284502
v 0.128412 11.750903 5.709202
v 0.477647 15.897934 6.712102
v 0.321748 14.59026 8.985502
v -2.881198 9.363601 -4.990499
v 3.829704 14.0987 -6.633296
v -3.829696 14.098701 -6.633298
v 2.881203 9.363601 -4.990498
v -7.659499 14.098701 0
v 7.659503 14.098699 0.000004
v 5.7625 9.363599 0.000004
v -5.762497 9.363601 0
v 0.000001 7.4285 0.000001
v 2.8812 9.363599 4.990502
v -2.8812 9.363599 4.9905
v 3.8297 14.098698 6.633303
v -3.8297 14.0987 6.6333
v -0.564029 17.40712 -3.611797
v 3.516447 16.545553 -3.611796
v 5.556631 16.114771 -0.000095
v -2.604217 17.838003 -0.000098
v 3.516444 16.545553 3.611604
v -0.564031 17.40712 3.611603
vt 0.5329 0.3915
vt 0.5329 0.5106
vt 0.7308 0.3915
vt 0.7308 0.5106
vt 0.9097 0.5977
vt 0.6778 0.953
vt 0.017273 0.5977
vt 0.8494 0.6009
vt 0.8494 0.9349
vt 0.99128 0.6009
vt 0.99128 0.9349
vt 0.024073 0.5977
vt 0.6614 0.953
vt 0.956 0.5977
vt 0.9936 0.1281
vt 0.7585 0.1281
vt 0.9936 0.4351
vt 0.7585 0.4351
vt 0.9936 0.2499
vt 0.9936 0
vt 0.7585 0.2499
vt 0.7585 0
vt 0.7372 0.3936
vt 0.7372 0.5106
vt 0.5265 0.3936
vt 0.5265 0.5106
vt 0.99128 0.597
vt 0.99128 0.9407
vt 0.8401 0.597
vt 0.8401 0.9407
vt 0.9957 0
vt 0.9957 0.2499
vt 0.7819 0
vt 0.7819 0.2499
vt 0.9957 0.439
vt 0.7819 0.439
vt 0.9957 0.1301
vt 0.7819 0.1301
vt 0.7542 0.2499
vt 0.7542 0
vt 0.7542 0.1301
vt 0.7542 0.439
vt 0.367 0.5084
vt 0.667 0.5084
vt 0.384 0.911
vt 0.684 0.911
vt 0.35 0.951
vt 0.6499 0.951
vt 0.35 0.6999
vt 0.6499 0.7
vt 0.6457 0.5063
vt 0.518 0.9067
vt 0.3542 0.6052
vt 0.4265 1.0021
vt 0.3478 0.768
vt 0.267 1.0032
vt 0.6351 0.6127
vt 0.3372 0.9152
vt 0.3351 0.5116
vt 0.35 0.95
vt 0.9739 0.1324
vt 0.9739 0.4994
vt 0.776 0.1324
vt 0.776 0.4994
vt 0.5058 0.6033
vt 0.9 0.5053
vt 0.7999 0.5042
vt 0.8563 0.417
vt 0.6999 0.3227
vt 0.5989 0.3217
vt 0.6 0.2227
vt 0.6499 0.9999
vt 0.35 0.6989
vt 0.6824 0.2191
vt 0.5927 0.2173
vt 0.6416 0.3323
vt 0.9499 0.5053
vt 0.8499 0.5053
vt 0.8999 0.2797
vt 0.8706 0.501
vt 0.8006 0.4466
vt 0.9022 0.4247
vt 0.7003 0.2284
vt 0.6993 0.3231
vt 0.5492 0.3221
vt 0.9165 0.4292
vt 0.8451 0.4922
vt 0.8232 0.4254
vt 0.1723 0.7776
vt 0.1723 1.0117
vt 0.4191 0.7776
vt 0.4191 1.0117
vt 0.7499 0
vt 0.7499 0.3766
vt 0.9999 0
vt 0.9999 0.3766
vt 0.7499 0.501
vt 0.9999 0.5021
vt 0.9999 0.4914
vt 0.9999 0.2563
vt 0.7499 0.4361
vt 0.7499 0.2563
vt 0.7499 0.4936
vt 0.9999 0.3957
vt 0.9999 0.3914
vt 0.7499 0.3893
vt 0.7 0.7083
vt 0.3 0.7083
vt 0.6133 0.912
vt 0.3866 0.912
vt 0.6133 0.8
vt 0.4999 0.9489
vt 0.3866 0.8
vt 0.4999 0.7604
vt 0.65 0.4315
vt 0.65 0.0042
vt 0.6999 0.4315
vt 0.55 0.4315
vt 0.725 0.4014
vt 0.6649 0.1166
vt 0.567 0.4014
vt 0.6356 0.1176
vt 0.1664 0.5106
vt 0.1664 0.9585
vt 0.005773 0.5106
vt 0.005773 0.8478
vt 0.9999 0.1627
vt 0.7499 0.1627
vt 0 0.85
vt 0.2468 0.9765
vt 0.9999 0.85
vt 0.9085 0.9765
vt 0.7499 0.0297
vt 0.9999 0.0297
vt 0.8999 0.1
vt 0.7457 0.4056
vt 0.7499 0.3
vt 0.5563 0.1177
vt 0.7468 0.4056
vt 0.6031 0.1177
vt 0.8999 0
vt 0.4999 0.5105
vt 0 0.5106
vt 0 0.8499
vt 0.9999 0.5106
vt 0.9999 0.9606
vt 0 0.9606
vt 0.4999 -0.0139
vt 0 -0.0139
vt 0.2499 0.1499
vt 0.0914 0.9765
vt 0.7531 0.9765
vt 0.8 0.2499
vt 0.8 0.4127
vt 0.9499 0.4122
vt 0.6499 0.3863
vt 0.6999 0.15
vt 0.55 0.3
vt 0.8787 0.4723
vt 0.9787 0.4116
vt 0.7968 0.4116
vt 0.9499 0.2499
vt 0.9499 0.4127
vt 0.005773 0.8499
vt 0.7308 0.4024
vt 0.5414 0.4035
vt 0.7095 0.1182
vt 0.5691 0.1176
vt 0.0053 0.4999
vt 0.492 0.4999
vt 0.0053 0.05
vt 0.492 0.05
vt 0.0089 0.1989
vt 0.0764 0.0076
vt 0.1271 0.1989
vt 0.0595 0.0076
vt 0.6521 0.0402
vt 0.5699 0.2849
vt 0.7338 0.2846
vt 0.7023 0.0679
vt 0.601 0.068
vt 0.6516 0.0292
vt 0.5708 0.0715
vt 0.7015 0.0715
vt 0.7418 0.2768
vt 0.5304 0.2768
vt 0.6425 0.0105
vt 0.6361 0
vt 0 0.9977
vt 0.9978 0.9977
vt 0 0.7542
vt 0.9978 0.7521
vt 0.8776 0.4645
vt 0.5684 0.3621
vt 0.5684 0.4592
vt 0.8776 0.3673
vt 0.5077 0.0052
vt 0.5077 0.4943
vt 0.9922 0.0052
vt 0.9922 0.4943
vt 0.8776 0.0137
vt 0.5684 0.0085
vt 0.5684 0.0208
vt 0.8776 0.026
vt 0.5092 0.5012
vt 0.9907 0.5012
vt 0.5092 0.0097
vt 0.9907 0.0097
vt 0.2499 0.0305
vt 0.4422 0.1183
vt 0.2499 0.4694
vt 0.4422 0.3816
vt 0.0577 0.1183
vt 0.0577 0.3816
vt 0.0148 0.9977
vt 0.9872 0.9977
vt 0.0148 0.7542
vt 0.9872 0.7521
vt 0.8425 0.9977
vt 0.8425 0.7521
vt 0.8425 0.7542
vt 0 0.7521
vt 0.9872 0.7542
vt 0.0148 0.7521
vn -0.299814 0.15891 -0.940642
vn -0.284371 0.347362 -0.893551
vn 0.566851 0.216315 -0.794885
vn 0.493301 0.477462 -0.727073
vn -0.977569 0.210547 0
vn -0.905179 0.424879 0.008942
vn -0.01886 0.611957 -0.790613
vn -0.623035 0.779931 -0.059206
vn 0.954192 0.299142 0
vn 0.823939 0.566637 0.00354
vn 0.393475 0.918241 -0.044496
vn -0.022095 0.725913 0.687399
vn 0.477432 0.502518 0.720725
vn -0.271523 0.405194 0.872951
vn 0.566851 0.216315 0.794885
vn -0.299814 0.15891 0.940642
vn 0.999512 -0.0094 0.029633
vn -0.416181 -0.161321 -0.894833
vn 0.99118 0.129398 -0.028443
vn -0.527665 -0.281045 -0.801599
vn 0.984924 -0.169988 0.031129
vn -0.552324 -0.007233 -0.833583
vn -0.39317 0.16834 0.903897
vn -0.524033 0.123081 0.842738
vn -0.540239 0.193426 0.818964
vn -0.271523 0.405194 -0.872951
vn 0.477432 0.502518 -0.720725
vn -0.905179 0.424879 -0.008942
vn 0.823939 0.566637 -0.00354
vn -0.022095 0.725913 -0.687399
vn -0.623035 0.779931 0.059206
vn 0.393475 0.918241 0.044496
vn -0.01886 0.611957 0.790613
vn 0.493301 0.477462 0.727073
vn -0.284371 0.347362 0.893551
vn -0.538285 0.193518 -0.820215
vn -0.392987 0.168401 -0.903958
vn 0.984832 -0.170324 -0.032777
vn 0.999512 -0.010224 -0.029023
vn -0.523667 0.123295 -0.842921
vn 0.99118 0.129368 0.028321
vn -0.416303 -0.161412 0.894772
vn -0.552873 -0.007111 0.833186
vn -0.526841 -0.281228 0.802057
vn 0.884365 -0.088595 -0.458235
vn 0.098392 -0.839534 -0.534318
vn 0.30311 0.487442 -0.818812
vn -0.517685 -0.302683 -0.800195
vn 0.024751 0.837886 -0.545244
vn -0.896481 -0.146092 -0.418256
vn 0.934477 0.35548 -0.019257
vn -0.765557 -0.617786 0.179388
vn 0.051393 -0.852626 0.519944
vn 0.780114 -0.12534 0.612934
vn 0.111515 0.12009 0.98645
vn 0.456374 0.679861 0.573992
vn -0.488174 -0.324137 0.810297
vn -0.129337 0.34373 0.930082
vn 0.550371 -0.623646 0.55504
vn -0.884579 0.310282 0.348125
vn -0.250923 0.857936 0.448256
vn -0.76046 -0.642628 -0.093173
vn -0.924558 -0.377911 -0.048311
vn 0.373455 0.556383 -0.742241
vn 0.202185 0.352886 -0.913541
vn 0.37315 -0.17893 0.910306
vn 0.372814 0.120457 0.920042
vn -0.906888 0.352886 -0.230201
vn 0.595782 0.35612 -0.71984
vn 0.042604 -0.390057 0.919797
vn 0.53267 0.491409 -0.688986
vn -0.723563 0.610736 -0.321543
vn 0.328349 -0.837733 0.436262
vn 0.480575 0.657674 -0.580065
vn -0.173406 0.79696 -0.57857
vn 0.441481 0.761589 -0.474349
vn -0.094516 0.875362 -0.474075
vn 0.809595 0.586963 -0.000244
vn 0.709861 0.704337 0.000305
vn -0.500107 0.865963 -0.000214
vn -0.362499 0.931974 0.000305
vn 0.20658 0.978423 0
vn 0.227668 0.000031 -0.973724
vn 1 0.000153 0
vn 0.227851 -0.973662 0
vn 0.227485 0.973754 0
vn 0.227668 0.000031 0.973724
vn 0.441511 0.760979 0.475295
vn -0.09479 0.874844 0.475021
vn 0.481185 0.656301 0.581103
vn -0.174505 0.795984 0.579577
vn 0.682455 0.509507 -0.524003
vn 0.590838 0.626118 -0.508744
vn 0.101871 0.863521 -0.493881
vn 0.114231 0.857723 -0.501206
vn -0.551195 0.664388 -0.504715
vn -0.428327 0.752373 -0.500443
vn -0.373943 0.212348 -0.902799
vn -0.31196 0.550371 -0.774407
vn 0.394299 0.133854 -0.909146
vn 0.467299 0.433515 -0.77047
vn 0.935789 -0.351909 -0.020569
vn -0.010895 -0.999695 0.021851
vn 0.858364 -0.090457 -0.504959
vn -0.010224 -0.937284 -0.348369
vn -0.943236 -0.3314 -0.020631
vn -0.860134 -0.071688 -0.504959
vn 0.131138 0.938505 -0.319376
vn 0.476974 0.842158 -0.251503
vn 0.005371 0.491836 -0.870663
vn -0.003235 -0.297586 -0.95468
vn 0.831294 0.189581 -0.522446
vn -0.773125 0.389874 -0.500229
vn 0.836573 0.315744 -0.447676
vn -0.784997 0.392956 -0.478896
vn 0.910306 0.413923 0
vn 0.548387 0.836177 0
vn -0.754387 0.656392 0
vn -0.067476 0.997711 0
vn 0.367962 0.929838 0
vn 0.996185 0.086917 0
vn -0.957457 0.288552 0
vn 0.836573 0.315744 0.447676
vn -0.784997 0.392956 0.478896
vn 0.476974 0.842158 0.251503
vn 0.131138 0.938505 0.319376
vn 0.467299 0.433515 0.77047
vn -0.31196 0.550371 0.774407
vn 0.394299 0.133854 0.909146
vn -0.373943 0.212348 0.902799
vn 0.935789 -0.351909 0.020569
vn 0.005371 0.491836 0.870663
vn 0.858364 -0.090487 0.504959
vn -0.943236 -0.3314 0.020631
vn -0.860134 -0.071688 0.504959
vn 0.682455 0.509507 0.524003
vn 0.590838 0.626118 0.508744
vn 0.831294 0.189581 0.522446
vn -0.773125 0.389874 0.500229
vn -0.428327 0.752373 0.500443
vn -0.551195 0.664388 0.504715
vn -0.003235 -0.297586 0.95468
vn -0.010224 -0.937284 0.348338
vn -0.010895 -0.999695 -0.021851
vn 0.101871 0.863521 0.493881
vn 0.114231 0.857723 0.501206
vn -0.464125 -0.371868 -0.803888
vn 0.464125 -0.371868 -0.803888
vn -0.373455 -0.664846 -0.64687
vn 0.373455 -0.664846 -0.64687
vn 0.928251 -0.371868 0
vn 0.74694 -0.664846 0
vn -0.928251 -0.371868 0
vn -0.74694 -0.664846 0
vn 0 -1 0
vn 0.373455 -0.664846 0.64687
vn -0.373455 -0.664846 0.64687
vn 0.464125 -0.371868 0.803888
vn -0.464125 -0.371868 0.803888
vn -0.995666 -0.09299 0
vn -0.528459 -0.191595 -0.827021
vn -0.528459 -0.191595 0.827021
vn 0 0.999969 0
vn 0 1 0
vn -0.002686 0 -0.999969
vn 1 0 0
vn -1 0 0
vn -0.002686 0 0.999969
vn -0.002655 0 -0.999969
vn 0.676992 -0.722282 -0.141118
vn 0.676992 -0.722312 -0.141118
vn 0.677023 -0.722282 -0.141118
vn -0.002655 0 0.999969
vn -0.735954 -0.665792 -0.122593
vn -0.005432 0.186895 -0.98233
vn -0.735984 -0.665792 -0.122593
vn -0.005402 0.186926 -0.98233
vn 0.735954 0.665822 0.122623
vn 0.735923 0.665822 0.122593
vn -0.677023 0.722282 0.141118
vn -0.677023 0.722282 0.141148
vn 0.005371 -0.186895 0.98236
vn 0.005402 -0.186834 0.98236
vn 0.882351 0.372509 -0.287454
vn 0.882351 0.372539 -0.287454
vn 0.88229 0.3726 -0.287545
vn 0.882351 0.3726 -0.287362
vn 0.882351 0.372509 0.287454
vn 0.882351 0.372539 0.287454
vn 0.882351 0.3726 0.287362
vn 0.88229 0.3726 0.287545
vn 0.405896 -0.388897 -0.827021
vn 0.405866 -0.388897 -0.827021
vn 0.873043 -0.487594 0
vn 0.405896 -0.388897 0.827021
usemtl mat2
f 6/193/163 5/194/164 2/195/163
f 8/196/163 5/194/164 6/193/163
f 1/197/165 2/198/165 3/199/166
f 2/198/165 5/200/166 3/199/166
f 4/197/167 6/198/167 1/199/165
f 6/198/167 2/200/165 1/199/165
f 35/193/163 30/194/164 33/195/164
f 36/196/163 30/194/164 35/193/163
f 3/197/166 5/198/166 7/199/168
f 5/198/166 8/200/168 7/199/168
f 7/197/168 8/198/168 4/199/167
f 8/198/168 6/200/167 4/199/167
f 32/199/166 31/197/169 30/200/166
f 31/197/169 33/198/169 30/200/166
f 31/199/169 34/197/167 33/200/169
f 34/197/167 35/198/167 33/200/169
f 63/201/170 66/202/171 65/203/170
f 64/204/172 63/201/170 65/203/170
f 37/199/173 32/197/166 36/200/173
f 32/197/166 30/198/166 36/200/173
f 34/199/167 37/197/173 35/200/167
f 37/197/173 36/198/173 35/200/167
f 61/205/174 62/206/175 66/207/176
f 62/206/175 65/208/177 66/207/176
f 62/205/175 60/206/178 65/207/177
f 60/206/178 64/208/179 65/207/177
f 60/196/180 62/194/181 61/195/180
f 59/193/180 60/196/180 61/195/180
f 59/205/182 61/206/174 63/207/183
f 61/206/174 66/208/176 63/207/183
f 60/205/178 59/206/182 64/207/179
f 59/206/182 63/208/183 64/207/179
f 110/209/184 109/210/185 108/211/185
f 109/210/185 111/212/186 108/211/185
f 110/209/184 108/211/185 112/213/185
f 108/211/185 113/214/187 112/213/185
f 116/209/188 115/210/189 114/211/189
f 115/210/189 117/212/190 114/211/189
f 116/209/188 114/211/189 118/213/189
f 114/211/189 119/214/191 118/213/189
f 105/215/161 104/216/192 202/217/161
f 202/217/161 104/216/192 203/218/193
f 104/189/192 106/219/194 203/191/193
f 203/191/193 106/219/194 204/220/194
f 106/219/194 120/189/195 204/221/194
f 204/221/194 120/189/195 206/222/195
f 120/216/195 121/215/162 206/223/195
f 206/223/195 121/215/162 207/224/162
usemtl mat1
f 9/1/1 10/2/2 74/3/3
f 10/2/2 11/4/4 74/3/3
f 9/1/1 72/3/5 10/2/2
f 72/3/5 16/4/6 10/2/2
f 10/5/2 12/6/7 11/7/4
f 16/8/6 14/9/8 10/10/2
f 14/9/8 12/11/7 10/10/2
f 74/3/3 11/4/4 73/1/9
f 11/4/4 15/2/10 73/1/9
f 12/9/7 13/11/11 11/8/4
f 11/8/4 13/11/11 15/10/10
f 17/11/12 18/10/13 13/9/11
f 15/8/10 13/9/11 18/10/13
f 16/10/6 20/8/14 14/11/8
f 20/8/14 17/9/12 14/11/8
f 18/12/13 17/13/12 20/14/14
f 19/3/15 73/1/9 18/4/13
f 73/1/9 15/2/10 18/4/13
f 71/1/16 20/2/14 72/3/5
f 20/2/14 16/4/6 72/3/5
f 71/1/16 19/3/15 20/2/14
f 19/3/15 18/4/13 20/2/14
f 23/15/17 22/16/18 21/17/19
f 22/16/18 24/18/20 21/17/19
f 23/19/17 25/20/21 22/21/18
f 26/22/22 22/21/18 25/20/21
f 28/16/23 27/18/24 22/15/18
f 27/18/24 24/17/20 22/15/18
f 28/21/23 22/19/18 29/22/25
f 29/22/25 22/19/18 26/20/22
f 27/18/24 28/16/23 21/17/19
f 23/15/17 21/17/19 28/16/23
f 29/22/25 25/20/21 28/21/23
f 25/20/21 23/19/17 28/21/23
f 69/23/1 38/24/26 70/25/3
f 70/25/3 38/24/26 39/26/27
f 69/23/1 40/25/5 38/24/26
f 40/25/5 41/26/28 38/24/26
f 70/25/3 39/26/27 42/23/9
f 42/23/9 39/26/27 43/24/29
f 39/7/27 38/5/26 44/6/30
f 41/27/28 45/28/31 38/29/26
f 38/29/26 45/28/31 44/30/30
f 44/30/30 46/28/32 39/29/27
f 43/27/29 39/29/27 46/28/32
f 48/28/33 47/27/34 46/30/32
f 47/27/34 43/29/29 46/30/32
f 68/25/15 42/23/9 47/26/34
f 42/23/9 43/24/29 47/26/34
f 41/27/28 49/29/35 45/28/31
f 49/29/35 48/30/33 45/28/31
f 49/14/35 47/12/34 48/13/33
f 67/23/16 49/24/35 40/25/5
f 40/25/5 49/24/35 41/26/28
f 67/23/16 68/25/15 49/24/35
f 68/25/15 47/26/34 49/24/35
f 52/31/36 51/32/37 50/33/38
f 50/33/38 51/32/37 53/34/39
f 55/35/40 54/36/41 51/37/37
f 53/38/39 51/37/37 54/36/41
f 51/32/37 52/31/36 56/39/42
f 52/31/36 57/40/43 56/39/42
f 51/37/37 56/41/42 55/35/40
f 56/41/42 58/42/44 55/35/40
f 53/34/39 56/32/42 50/33/38
f 57/31/43 50/33/38 56/32/42
f 53/38/39 54/36/41 56/37/42
f 56/37/42 54/36/41 58/35/44
f 77/43/45 76/44/46 75/45/47
f 76/44/46 78/46/48 75/45/47
f 75/47/47 78/48/48 79/49/49
f 78/48/48 80/50/50 79/49/49
f 77/51/45 75/52/47 81/53/51
f 81/54/51 75/55/47 79/56/49
f 82/57/52 78/58/48 76/59/46
f 82/48/52 80/50/50 78/60/48
f 76/61/46 77/62/45 83/63/53
f 77/62/45 84/64/54 83/63/53
f 77/51/45 81/65/51 85/53/55
f 82/66/52 76/67/46 83/68/53
f 86/69/56 81/70/51 79/71/49
f 82/72/52 87/50/57 80/73/50
f 77/66/45 85/67/55 84/68/54
f 79/74/49 88/75/58 86/76/56
f 85/77/55 81/78/51 89/79/59
f 89/79/59 81/78/51 86/77/56
f 82/80/52 83/81/53 90/82/60
f 88/83/58 85/84/55 86/85/56
f 84/86/54 85/87/55 91/88/61
f 86/78/56 85/77/55 89/79/59
f 82/89/52 85/90/55 87/91/57
f 85/90/55 88/92/58 87/91/57
f 82/61/52 90/63/60 85/62/55
f 85/62/55 90/63/60 91/64/61
f 83/61/53 84/62/54 90/63/60
f 84/62/54 91/64/61 90/63/60
f 94/93/62 93/94/63 92/95/64
f 93/94/63 95/96/65 92/95/64
f 97/96/66 96/95/67 95/94/65
f 95/94/65 96/95/67 92/93/64
f 93/96/63 94/95/62 97/94/66
f 97/94/66 94/95/62 96/93/67
f 93/93/63 98/97/68 95/95/65
f 98/97/68 99/98/69 95/95/65
f 95/93/65 99/97/69 97/95/66
f 99/97/69 100/98/70 97/95/66
f 98/98/68 93/95/63 100/97/70
f 100/97/70 93/95/63 97/93/66
f 102/99/71 99/100/69 101/101/72
f 101/101/72 99/100/69 98/102/68
f 99/102/69 102/103/71 100/100/70
f 102/103/71 103/104/73 100/100/70
f 101/105/72 98/100/68 103/106/73
f 103/106/73 98/100/68 100/102/70
f 104/107/74 105/108/75 122/109/76
f 105/108/75 123/110/77 122/109/76
f 106/107/78 104/108/74 124/109/79
f 104/108/74 122/110/76 124/109/79
f 107/108/80 125/110/81 105/107/75
f 125/110/81 123/109/77 105/107/75
f 123/111/77 126/112/82 122/113/76
f 122/110/76 126/114/82 124/109/79
f 125/113/81 126/112/82 123/111/77
f 129/115/83 128/116/84 127/117/85
f 130/118/86 128/116/84 129/115/83
f 127/115/85 128/116/84 131/117/87
f 131/118/87 128/116/84 130/115/86
f 124/111/79 126/112/82 132/113/88
f 133/111/89 126/112/82 125/113/81
f 132/113/88 126/112/82 133/111/89
f 106/108/78 124/110/79 120/107/90
f 124/110/79 132/109/88 120/107/90
f 121/108/91 133/110/89 107/107/80
f 133/110/89 125/109/81 107/107/80
f 120/108/90 132/110/88 121/107/91
f 132/110/88 133/109/89 121/107/91
f 136/119/92 135/120/93 134/121/94
f 134/121/94 135/120/93 137/122/95
f 139/121/96 134/119/94 138/122/97
f 134/119/94 137/120/95 138/122/97
f 142/123/98 141/124/99 140/125/100
f 140/125/100 141/124/99 143/126/101
f 146/95/102 145/93/103 144/127/104
f 145/93/103 147/128/105 144/127/104
f 149/93/106 148/128/107 145/95/103
f 145/95/103 148/128/107 147/127/105
f 141/129/99 150/130/108 143/131/101
f 143/131/101 150/130/108 151/132/109
f 153/133/110 144/134/104 152/135/111
f 148/133/107 153/134/110 152/135/111
f 144/133/104 147/134/105 152/135/111
f 147/133/105 148/134/107 152/135/111
f 136/136/92 154/137/112 135/138/93
f 155/137/113 139/139/96 138/140/97
f 146/141/102 144/128/104 153/127/110
f 153/127/110 148/128/107 149/141/106
f 156/142/114 140/143/100 143/144/101
f 142/145/98 157/142/115 141/146/99
f 143/129/101 151/130/109 158/131/116
f 158/131/116 151/130/109 159/132/117
f 161/129/118 160/130/119 141/131/99
f 141/131/99 160/130/119 150/132/108
f 156/142/114 143/144/101 158/131/116
f 157/142/115 161/147/118 141/146/99
f 151/148/109 150/149/108 162/150/120
f 159/148/117 151/149/109 162/150/120
f 150/148/108 160/149/119 162/150/120
f 163/145/121 156/142/114 158/131/116
f 157/142/115 164/143/122 161/147/118
f 165/142/123 163/143/121 158/144/116
f 164/145/122 166/142/124 161/146/118
f 167/148/125 159/149/117 162/150/120
f 160/148/119 168/149/126 162/150/120
f 168/148/126 167/149/125 162/150/120
f 169/131/127 165/142/123 158/144/116
f 166/142/124 170/147/128 161/146/118
f 169/129/127 158/131/116 167/151/125
f 158/131/116 159/152/117 167/151/125
f 161/131/118 170/129/128 160/132/119
f 170/129/128 168/130/126 160/132/119
f 171/145/129 165/142/123 169/131/127
f 166/142/124 172/143/130 170/147/128
f 175/153/131 174/154/132 173/155/133
f 177/153/134 176/154/135 174/155/132
f 180/156/136 179/157/137 178/158/138
f 183/158/139 182/157/140 181/156/141
f 173/159/133 185/160/142 184/161/143
f 184/159/143 185/160/142 176/161/135
f 174/159/132 185/160/142 173/161/133
f 176/159/135 185/160/142 174/161/132
f 170/129/128 169/131/127 168/151/126
f 169/131/127 167/152/125 168/151/126
f 175/153/131 173/154/133 186/162/144
f 173/154/133 184/163/143 186/162/144
f 177/162/134 186/153/144 176/163/135
f 186/153/144 184/154/143 176/163/135
f 172/123/130 171/125/129 170/124/128
f 171/125/129 169/164/127 170/124/128
f 180/165/136 187/166/145 179/167/137
f 187/166/145 188/168/146 179/167/137
f 181/166/141 182/168/140 187/165/145
f 182/168/140 188/167/146 187/165/145
f 191/169/147 190/170/148 189/171/149
f 189/171/149 190/170/148 192/172/150
f 190/169/148 194/170/151 192/171/150
f 192/171/150 194/170/151 195/172/152
f 193/169/153 191/170/147 196/171/154
f 196/171/154 191/170/147 189/172/149
f 192/173/150 197/174/155 189/175/149
f 195/175/152 197/176/155 192/173/150
f 189/175/149 197/176/155 196/173/154
f 198/173/156 197/174/155 195/175/152
f 196/173/154 197/174/155 199/175/157
f 199/175/157 197/176/155 198/173/156
f 194/170/151 200/169/158 195/172/152
f 195/172/152 200/169/158 198/171/156
f 201/170/159 193/169/153 199/172/157
f 199/172/157 193/169/153 196/171/154
f 200/170/158 201/169/159 198/172/156
f 198/172/156 201/169/159 199/171/157
f 40/177/155 69/178/155 67/179/155
f 68/180/155 70/181/155 42/182/155
f 69/178/155 70/181/155 68/180/155
f 67/179/155 69/178/155 68/180/155
f 74/183/155 19/184/155 71/185/155
f 9/186/155 74/183/155 71/185/155
f 74/183/155 73/187/155 19/184/155
f 72/188/155 9/186/155 71/185/155
f 107/189/160 105/190/161 205/191/160
f 205/191/160 105/190/161 202/192/161
f 121/189/162 107/190/160 207/191/162
f 207/191/162 107/190/160 205/192/160
