mtllib Base.mtl
v 1.212873 7.087504 -13.086739 1.000000 1.000000 1.000000
v 3.080700 1.518756 -15.187500 1.000000 1.000000 1.000000
v 2.425747 7.087507 -15.187498 1.000000 1.000000 1.000000
v 1.540354 1.518756 -17.855463 1.000000 1.000000 1.000000
v 1.212874 7.087506 -17.288256 1.000000 1.000000 1.000000
v -1.540346 1.518756 -17.855463 1.000000 1.000000 1.000000
v -1.212874 7.087506 -17.288256 1.000000 1.000000 1.000000
v -3.080695 1.518756 -15.187501 1.000000 1.000000 1.000000
v -2.425747 7.087504 -15.187498 1.000000 1.000000 1.000000
v -1.540347 1.518754 -12.519537 1.000000 1.000000 1.000000
v -1.212874 7.087504 -13.086739 1.000000 1.000000 1.000000
v 1.540351 1.518754 -12.519537 1.000000 1.000000 1.000000
v -3.080700 1.518746 15.187501 1.000000 1.000000 1.000000
v -1.212878 7.087496 13.086742 1.000000 1.000000 1.000000
v -1.540351 1.518746 12.519537 1.000000 1.000000 1.000000
v 1.212870 7.087496 13.086742 1.000000 1.000000 1.000000
v 1.540347 1.518746 12.519537 1.000000 1.000000 1.000000
v 2.425744 7.087498 15.187502 1.000000 1.000000 1.000000
v 3.080697 1.518746 15.187500 1.000000 1.000000 1.000000
v 1.212869 7.087494 17.288263 1.000000 1.000000 1.000000
v 1.540349 1.518744 17.855463 1.000000 1.000000 1.000000
v -1.212878 7.087494 17.288263 1.000000 1.000000 1.000000
v -1.540350 1.518744 17.855463 1.000000 1.000000 1.000000
v -2.425750 7.087496 15.187502 1.000000 1.000000 1.000000
v -1.813083 1.012504 -10.190687 1.000000 1.000000 1.000000
v 1.813084 1.012504 -10.190687 1.000000 1.000000 1.000000
v -1.813083 1.012504 -12.047149 1.000000 1.000000 1.000000
v 1.813084 1.012504 -12.047149 1.000000 1.000000 1.000000
v -3.626165 1.012504 -10.190689 1.000000 1.000000 1.000000
v -3.626165 1.012506 -15.187506 1.000000 1.000000 1.000000
v 3.626168 1.012504 -10.190686 1.000000 1.000000 1.000000
v 3.626169 1.012506 -15.187502 1.000000 1.000000 1.000000
v -1.813086 1.012496 12.047149 1.000000 1.000000 1.000000
v 1.813081 1.012496 12.047149 1.000000 1.000000 1.000000
v -1.813085 1.012496 10.190687 1.000000 1.000000 1.000000
v 1.813083 1.012496 10.190687 1.000000 1.000000 1.000000
v -3.626168 1.012496 15.187504 1.000000 1.000000 1.000000
v -3.626168 1.012496 10.190687 1.000000 1.000000 1.000000
v 3.626165 1.012496 15.187504 1.000000 1.000000 1.000000
v 3.626166 1.012496 10.190687 1.000000 1.000000 1.000000
v -1.813083 0.000005 -10.190687 1.000000 1.000000 1.000000
v 1.813084 0.000005 -10.190687 1.000000 1.000000 1.000000
v -1.813083 1.012504 -10.190687 1.000000 1.000000 1.000000
v 1.813084 1.012504 -10.190687 1.000000 1.000000 1.000000
v 3.626168 1.012504 -10.190686 1.000000 1.000000 1.000000
v 3.734952 0.000004 -10.190686 1.000000 1.000000 1.000000
v -3.734950 0.000004 -10.190689 1.000000 1.000000 1.000000
v -3.626165 1.012504 -10.190689 1.000000 1.000000 1.000000
v -2.425747 7.087504 -15.187498 1.000000 1.000000 1.000000
v -1.212874 7.087504 -13.086739 1.000000 1.000000 1.000000
v -2.025001 8.606256 -15.187498 1.000000 1.000000 1.000000
v -1.012501 8.606255 -13.433797 1.000000 1.000000 1.000000
v 1.540354 1.518756 -17.855463 1.000000 1.000000 1.000000
v 3.080700 1.518756 -15.187500 1.000000 1.000000 1.000000
v 1.813087 1.012506 -18.327852 1.000000 1.000000 1.000000
v 3.626169 1.012506 -15.187502 1.000000 1.000000 1.000000
v 1.867481 0.000006 -18.422062 1.000000 1.000000 1.000000
v 3.734954 0.000004 -15.187502 1.000000 1.000000 1.000000
v -1.012501 8.606256 -16.941198 1.000000 1.000000 1.000000
v 1.540351 1.518754 -12.519537 1.000000 1.000000 1.000000
v -1.540347 1.518754 -12.519537 1.000000 1.000000 1.000000
v 1.813084 1.012504 -12.047149 1.000000 1.000000 1.000000
v -1.813083 1.012504 -12.047149 1.000000 1.000000 1.000000
v 1.212873 7.087504 -13.086739 1.000000 1.000000 1.000000
v 1.012499 8.606255 -13.433797 1.000000 1.000000 1.000000
v 1.012499 8.606256 -16.941196 1.000000 1.000000 1.000000
v 2.425747 7.087507 -15.187498 1.000000 1.000000 1.000000
v 2.024999 8.606258 -15.187498 1.000000 1.000000 1.000000
v -3.080695 1.518756 -15.187501 1.000000 1.000000 1.000000
v -3.626165 1.012506 -15.187506 1.000000 1.000000 1.000000
v 1.212874 7.087506 -17.288256 1.000000 1.000000 1.000000
v -1.212874 7.087506 -17.288256 1.000000 1.000000 1.000000
v -1.867470 0.000006 -18.422062 1.000000 1.000000 1.000000
v -3.734947 0.000004 -15.187506 1.000000 1.000000 1.000000
v -1.813079 1.012506 -18.327852 1.000000 1.000000 1.000000
v -1.540346 1.518756 -17.855463 1.000000 1.000000 1.000000
v -1.813085 1.012496 10.190687 1.000000 1.000000 1.000000
v 1.813083 1.012496 10.190687 1.000000 1.000000 1.000000
v -1.813085 -0.000002 10.190687 1.000000 1.000000 1.000000
v 1.813083 -0.000002 10.190687 1.000000 1.000000 1.000000
v 3.734950 -0.000004 10.190687 1.000000 1.000000 1.000000
v 3.626166 1.012496 10.190687 1.000000 1.000000 1.000000
v -3.626168 1.012496 10.190687 1.000000 1.000000 1.000000
v -3.734951 -0.000004 10.190687 1.000000 1.000000 1.000000
v -2.025005 8.606245 15.187502 1.000000 1.000000 1.000000
v -1.012505 8.606247 13.433801 1.000000 1.000000 1.000000
v -2.425750 7.087496 15.187502 1.000000 1.000000 1.000000
v -1.212878 7.087496 13.086742 1.000000 1.000000 1.000000
v 3.080697 1.518746 15.187500 1.000000 1.000000 1.000000
v 1.540349 1.518744 17.855463 1.000000 1.000000 1.000000
v 3.626165 1.012496 15.187504 1.000000 1.000000 1.000000
v 1.813084 1.012494 18.327852 1.000000 1.000000 1.000000
v 3.734950 -0.000004 15.187504 1.000000 1.000000 1.000000
v 1.867476 -0.000006 18.422062 1.000000 1.000000 1.000000
v -1.012505 8.606245 16.941206 1.000000 1.000000 1.000000
v 1.813081 1.012496 12.047149 1.000000 1.000000 1.000000
v -1.813086 1.012496 12.047149 1.000000 1.000000 1.000000
v 1.540347 1.518746 12.519537 1.000000 1.000000 1.000000
v -1.540351 1.518746 12.519537 1.000000 1.000000 1.000000
v 1.012495 8.606247 13.433801 1.000000 1.000000 1.000000
v 1.212870 7.087496 13.086742 1.000000 1.000000 1.000000
v 1.012496 8.606245 16.941204 1.000000 1.000000 1.000000
v 2.024995 8.606248 15.187502 1.000000 1.000000 1.000000
v 2.425744 7.087498 15.187502 1.000000 1.000000 1.000000
v -3.626168 1.012496 15.187504 1.000000 1.000000 1.000000
v -3.080700 1.518746 15.187501 1.000000 1.000000 1.000000
v 1.212869 7.087494 17.288263 1.000000 1.000000 1.000000
v -1.212878 7.087494 17.288263 1.000000 1.000000 1.000000
v -3.734952 -0.000004 15.187504 1.000000 1.000000 1.000000
v -1.867475 -0.000006 18.422062 1.000000 1.000000 1.000000
v -1.813083 1.012494 18.327852 1.000000 1.000000 1.000000
v -1.540350 1.518744 17.855463 1.000000 1.000000 1.000000
vt 0.000000 0.000000
vt 1.000000 0.000000
vt 0.000000 0.670600
vt 0.968600 0.670600
vt 0.517600 0.666700
vt 0.513700 0.000000
vt 0.996100 0.000000
vt 0.164700 1.000000
vt 0.996100 1.000000
vt 0.823500 1.000000
vt 0.000000 1.000000
vt 0.494100 0.474500
vt 0.003900 1.000000
vt 1.000000 0.764700
vt 0.003900 0.764700
vt 0.996100 0.003900
vt 0.000000 0.003900
vt 0.979136 1.004395
vt 0.210664 1.004395
vt 0.979136 0.003900
vn 0.000000 0.000000 1.000000
vn 0.679525 0.073000 0.730003
vn 0.727378 0.078127 0.681722
vn -0.727378 0.078127 0.681722
vn -0.679525 0.073000 0.730003
vn -0.966887 0.255104 0.000000
vn -0.483444 0.255104 0.837336
vn -0.709189 0.704978 0.000000
vn -0.354595 0.704978 0.614185
vn 0.340129 0.732963 -0.589099
vn 0.680258 0.732963 0.000000
vn 0.456313 0.408673 -0.790399
vn 0.904477 0.393933 -0.163366
vn 0.497116 0.106815 -0.861049
vn 0.961882 0.103336 -0.253151
vn -0.354595 0.704978 -0.614185
vn 0.340129 0.732963 0.589099
vn -0.340129 0.732963 0.589099
vn 0.483444 0.255104 0.837336
vn 0.354595 0.704978 0.614185
vn 0.354595 0.704978 -0.614185
vn 0.966887 0.255104 0.000000
vn 0.709189 0.704978 0.000000
vn -0.680258 0.732963 0.000000
vn -0.904477 0.393933 -0.163366
vn 0.483444 0.255135 -0.837336
vn -0.483444 0.255104 -0.837336
vn -0.497116 0.106815 -0.861049
vn -0.961882 0.103336 -0.253151
vn -0.456313 0.408673 -0.790399
vn -0.340129 0.732963 -0.589099
vn 0.000000 0.000000 -0.999969
vn 0.000000 0.000000 -1.000000
vn 0.727378 0.078127 -0.681722
vn 0.679525 0.073000 -0.730003
vn -0.679525 0.073000 -0.730003
vn -0.727378 0.078127 -0.681722
vn 0.904477 0.393933 0.163366
vn 0.456313 0.408673 0.790399
vn 0.961882 0.103336 0.253151
vn 0.497116 0.106815 0.861049
vn 0.966887 0.255135 0.000000
vn -0.904477 0.393933 0.163366
vn -0.961882 0.103336 0.253151
vn -0.497116 0.106815 0.861049
vn -0.456313 0.408673 0.790399
vn 0.000000 1.000000 0.000000
vn 0.000000 0.999969 0.000000
vn 0.496567 0.116794 0.860073
vn 0.993133 0.116794 0.000000
vn 0.496567 0.116794 -0.860073
vn -0.496567 0.116794 -0.860073
vn -0.993133 0.116794 0.000000
vn -0.496567 0.116794 0.860073
usemtl 334
f 41/1/1 42/2/1 43/3/1
f 42/2/1 44/4/1 43/3/1
f 45/5/2 44/3/1 46/6/3
f 44/3/1 42/1/1 46/6/3
f 47/1/4 41/6/1 48/3/5
f 41/6/1 43/5/1 48/3/5
f 49/1/6 50/7/7 51/8/8
f 50/7/7 52/9/9 51/8/8
f 53/10/10 54/11/11 55/4/12
f 54/11/11 56/3/13 55/4/12
f 55/4/12 56/3/13 57/2/14
f 56/3/13 58/1/15 57/2/14
f 59/12/16 51/13/8 52/9/9
f 60/10/17 61/11/18 62/4/17
f 61/11/18 63/3/18 62/4/17
f 50/1/7 64/7/19 52/8/9
f 64/7/19 65/9/20 52/8/9
f 66/9/21 59/14/16 65/13/20
f 59/14/16 52/15/9 65/13/20
f 54/10/11 60/11/17 56/4/13
f 60/11/17 62/3/17 56/4/13
f 64/1/19 67/7/22 65/8/20
f 67/7/22 68/9/23 65/8/20
f 61/10/18 69/11/24 63/4/18
f 69/11/24 70/3/25 63/4/18
f 65/12/20 68/13/23 66/9/21
f 67/1/22 71/7/26 68/8/23
f 71/7/26 66/9/21 68/8/23
f 71/1/26 72/7/27 66/8/21
f 72/7/27 59/9/16 66/8/21
f 73/1/28 74/2/29 75/3/30
f 74/2/29 70/4/25 75/3/30
f 75/3/30 70/4/25 76/11/31
f 70/4/25 69/10/24 76/11/31
f 57/1/14 73/2/28 55/3/12
f 73/2/28 75/4/30 55/3/12
f 55/3/12 75/4/30 53/11/10
f 75/4/30 76/10/31 53/11/10
f 45/3/2 46/1/3 56/4/13
f 46/1/3 58/2/15 56/4/13
f 47/2/4 48/4/5 74/1/29
f 48/4/5 70/3/25 74/1/29
f 72/1/27 49/7/6 59/8/16
f 49/7/6 51/9/8 59/8/16
f 77/4/32 78/3/32 79/2/33
f 78/3/32 80/1/33 79/2/33
f 81/1/34 80/6/33 82/3/35
f 80/6/33 78/5/32 82/3/35
f 83/5/36 77/3/32 84/6/37
f 77/3/32 79/1/33 84/6/37
f 85/9/8 86/8/16 87/7/6
f 86/8/16 88/1/27 87/7/6
f 89/10/11 90/11/17 91/4/38
f 90/11/17 92/3/39 91/4/38
f 91/4/38 92/3/39 93/2/40
f 92/3/39 94/1/41 93/2/40
f 86/12/16 85/13/8 95/9/9
f 96/3/10 97/4/31 98/11/10
f 97/4/31 99/10/31 98/11/10
f 86/9/16 100/8/21 88/7/27
f 100/8/21 101/1/26 88/7/27
f 100/9/21 86/14/16 102/13/20
f 86/14/16 95/15/9 102/13/20
f 91/3/38 96/4/10 89/11/11
f 96/4/10 98/10/10 89/11/11
f 100/9/21 103/8/23 101/7/26
f 103/8/23 104/1/42 101/7/26
f 97/3/31 105/4/43 99/11/31
f 105/4/43 106/10/24 99/11/31
f 102/12/20 103/13/23 100/9/21
f 103/9/23 102/8/20 104/7/42
f 102/8/20 107/1/19 104/7/42
f 102/9/20 95/8/9 107/7/19
f 95/8/9 108/1/7 107/7/19
f 109/1/44 110/2/45 105/3/43
f 110/2/45 111/4/46 105/3/43
f 105/3/43 111/4/46 106/11/24
f 111/4/46 112/10/18 106/11/24
f 110/1/45 94/2/41 111/3/46
f 94/2/41 92/4/39 111/3/46
f 111/3/46 92/4/39 112/11/18
f 92/4/39 90/10/17 112/11/18
f 91/3/38 93/1/40 82/4/35
f 93/1/40 81/2/34 82/4/35
f 109/2/44 105/4/43 84/1/37
f 105/4/43 83/3/36 84/1/37
f 95/9/9 85/8/8 108/7/7
f 85/8/8 87/1/6 108/7/7
usemtl 338
f 25/16/47 26/17/48 27/9/47
f 26/17/48 28/11/47 27/9/47
f 29/16/47 25/17/47 30/9/47
f 25/17/47 27/11/47 30/9/47
f 26/16/48 31/17/47 28/9/47
f 31/17/47 32/11/47 28/9/47
f 33/11/47 34/9/47 35/17/47
f 34/9/47 36/16/47 35/17/47
f 37/11/47 33/9/47 38/17/47
f 33/9/47 35/16/47 38/17/47
f 34/11/47 39/9/47 36/17/47
f 39/9/47 40/16/47 36/17/47
usemtl 336
f 1/18/49 2/17/50 3/19/50
f 2/17/50 4/20/51 3/19/50
f 3/19/50 4/20/51 5/18/51
f 4/20/51 6/17/52 5/18/51
f 5/18/51 6/17/52 7/19/52
f 6/17/52 8/20/53 7/19/52
f 7/19/52 8/20/53 9/18/53
f 8/20/53 10/17/54 9/18/53
f 9/18/53 10/17/54 11/19/54
f 10/17/54 12/20/49 11/19/54
f 11/19/54 12/20/49 1/18/49
f 12/20/49 2/17/50 1/18/49
f 13/17/53 14/18/52 15/20/52
f 14/18/52 16/19/51 15/20/52
f 15/20/52 16/19/51 17/17/51
f 16/19/51 18/18/50 17/17/51
f 17/17/51 18/18/50 19/20/50
f 18/18/50 20/19/49 19/20/50
f 19/20/50 20/19/49 21/17/49
f 20/19/49 22/18/54 21/17/49
f 21/17/49 22/18/54 23/20/54
f 22/18/54 24/19/53 23/20/54
f 23/20/54 24/19/53 13/17/53
f 24/19/53 14/18/52 13/17/53
