# Blender v2.79 (sub 0) OBJ File: ''
# www.blender.org
mtllib Base.mtl
v 1.212873 7.087502 -13.086740
v 3.080700 1.518753 -15.187500
v 2.425747 7.087505 -15.187499
v 1.540354 1.518753 -17.855463
v 1.212874 7.087503 -17.288258
v -1.540346 1.518753 -17.855463
v -1.212874 7.087503 -17.288258
v -3.080695 1.518753 -15.187501
v -2.425747 7.087502 -15.187499
v -1.540347 1.518752 -12.519537
v -1.212874 7.087502 -13.086740
v 1.540351 1.518752 -12.519537
v -3.080700 1.518748 15.187501
v -1.212878 7.087498 13.086741
v -1.540351 1.518748 12.519537
v 1.212870 7.087498 13.086741
v 1.540347 1.518748 12.519537
v 2.425744 7.087500 15.187501
v 3.080697 1.518748 15.187500
v 1.212869 7.087497 17.288261
v 1.540349 1.518747 17.855463
v -1.212878 7.087497 17.288261
v -1.540350 1.518747 17.855463
v -2.425750 7.087498 15.187501
v -1.813083 1.012502 -10.190687
v 1.813084 1.012502 -10.190687
v -1.813083 1.012502 -12.047149
v 1.813084 1.012502 -12.047149
v -3.626165 1.012502 -10.190689
v -3.626165 1.012503 -15.187506
v 3.626168 1.012502 -10.190686
v 3.626169 1.012503 -15.187502
v -1.813086 1.012498 12.047149
v 1.813081 1.012498 12.047149
v -1.813085 1.012498 10.190687
v 1.813083 1.012498 10.190687
v -3.626168 1.012498 15.187504
v -3.626168 1.012498 10.190687
v 3.626165 1.012498 15.187504
v 3.626166 1.012498 10.190687
v -1.813083 0.000003 -10.190687
v 1.813084 0.000003 -10.190687
v -1.813083 1.012502 -10.190687
v 1.813084 1.012502 -10.190687
v 3.626168 1.012502 -10.190686
v 3.734952 0.000002 -10.190686
v -3.734950 0.000002 -10.190689
v -3.626165 1.012502 -10.190689
v -2.425747 7.087502 -15.187499
v -1.212874 7.087502 -13.086740
v -2.025001 8.606254 -15.187499
v -1.012501 8.606253 -13.433798
v 1.540354 1.518753 -17.855463
v 3.080700 1.518753 -15.187500
v 1.813087 1.012503 -18.327852
v 3.626169 1.012503 -15.187502
v 1.867481 0.000003 -18.422062
v 3.734954 0.000002 -15.187502
v -1.012501 8.606254 -16.941200
v 1.540351 1.518752 -12.519537
v -1.540347 1.518752 -12.519537
v 1.813084 1.012502 -12.047149
v -1.813083 1.012502 -12.047149
v 1.212873 7.087502 -13.086740
v 1.012499 8.606253 -13.433798
v 1.012499 8.606254 -16.941198
v 2.425747 7.087505 -15.187499
v 2.024999 8.606256 -15.187499
v -3.080695 1.518753 -15.187501
v -3.626165 1.012503 -15.187506
v 1.212874 7.087503 -17.288258
v -1.212874 7.087503 -17.288258
v -1.867470 0.000003 -18.422062
v -3.734947 0.000002 -15.187506
v -1.813079 1.012503 -18.327852
v -1.540346 1.518753 -17.855463
v -1.813085 1.012498 10.190687
v 1.813083 1.012498 10.190687
v -1.813085 -0.000000 10.190687
v 1.813083 -0.000000 10.190687
v 3.734950 -0.000002 10.190687
v 3.626166 1.012498 10.190687
v -3.626168 1.012498 10.190687
v -3.734951 -0.000002 10.190687
v -2.025005 8.606248 15.187501
v -1.012505 8.606249 13.433800
v -2.425750 7.087498 15.187501
v -1.212878 7.087498 13.086741
v 3.080697 1.518748 15.187500
v 1.540349 1.518747 17.855463
v 3.626165 1.012498 15.187504
v 1.813084 1.012497 18.327852
v 3.734950 -0.000002 15.187504
v 1.867476 -0.000003 18.422062
v -1.012505 8.606248 16.941204
v 1.813081 1.012498 12.047149
v -1.813086 1.012498 12.047149
v 1.540347 1.518748 12.519537
v -1.540351 1.518748 12.519537
v 1.012495 8.606249 13.433800
v 1.212870 7.087498 13.086741
v 1.012496 8.606248 16.941202
v 2.024995 8.606251 15.187501
v 2.425744 7.087500 15.187501
v -3.626168 1.012498 15.187504
v -3.080700 1.518748 15.187501
v 1.212869 7.087497 17.288261
v -1.212878 7.087497 17.288261
v -3.734952 -0.000002 15.187504
v -1.867475 -0.000003 18.422062
v -1.813083 1.012497 18.327852
v -1.540350 1.518747 17.855463
vt 0.994638 1.004395
vt 0.000000 0.003900
vt 0.210664 1.004395
vt 0.994638 0.003900
vt 0.994638 1.004395
vt 0.000000 0.003900
vt 0.210664 1.004395
vt 0.994638 0.003900
vt 0.994638 1.004395
vt 0.000000 0.003900
vt 0.210664 1.004395
vt 0.994638 0.003900
vt 0.000000 0.003900
vt 0.994638 1.004395
vt 0.994638 0.003900
vt 0.210664 1.004395
vt 0.000000 0.003900
vt 0.994638 1.004395
vt 0.994638 0.003900
vt 0.210664 1.004395
vt 0.000000 0.003900
vt 0.994638 1.004395
vt 0.994638 0.003900
vt 0.210664 1.004395
vt 0.996100 0.003900
vt 0.000000 0.003900
vt 0.996100 1.000000
vt 0.000000 1.000000
vt 0.996100 0.003900
vt 0.000000 0.003900
vt 0.996100 1.000000
vt 0.000000 1.000000
vt 0.996100 0.003900
vt 0.000000 0.003900
vt 0.996100 1.000000
vt 0.000000 1.000000
vt 0.000000 1.000000
vt 0.996100 1.000000
vt 0.000000 0.003900
vt 0.996100 0.003900
vt 0.000000 1.000000
vt 0.996100 1.000000
vt 0.000000 0.003900
vt 0.996100 0.003900
vt 0.000000 1.000000
vt 0.996100 1.000000
vt 0.000000 0.003900
vt 0.996100 0.003900
vt 0.000000 0.000000
vt 1.000000 0.000000
vt 0.000000 0.670600
vt 0.968600 0.670600
vt 0.517600 0.666700
vt 0.000000 0.670600
vt 0.513700 0.000000
vt 0.000000 0.000000
vt 0.000000 0.000000
vt 0.513700 0.000000
vt 0.000000 0.670600
vt 0.517600 0.666700
vt 0.000000 0.000000
vt 0.996100 0.000000
vt 0.164700 1.000000
vt 0.996100 1.000000
vt 0.823500 1.000000
vt 0.000000 1.000000
vt 0.968600 0.670600
vt 0.000000 0.670600
vt 1.000000 0.000000
vt 0.000000 0.000000
vt 0.494100 0.474500
vt 0.003900 1.000000
vt 0.823500 1.000000
vt 0.000000 1.000000
vt 0.968600 0.670600
vt 0.000000 0.670600
vt 0.000000 0.000000
vt 0.996100 0.000000
vt 0.164700 1.000000
vt 0.996100 1.000000
vt 0.996100 1.000000
vt 1.000000 0.764700
vt 0.003900 1.000000
vt 0.003900 0.764700
vt 0.823500 1.000000
vt 0.000000 1.000000
vt 0.968600 0.670600
vt 0.000000 0.670600
vt 0.000000 0.000000
vt 0.996100 0.000000
vt 0.164700 1.000000
vt 0.996100 1.000000
vt 0.823500 1.000000
vt 0.000000 1.000000
vt 0.968600 0.670600
vt 0.000000 0.670600
vt 0.494100 0.474500
vt 0.003900 1.000000
vt 0.000000 0.000000
vt 0.996100 0.000000
vt 0.164700 1.000000
vt 0.000000 0.000000
vt 0.996100 0.000000
vt 0.164700 1.000000
vt 0.996100 1.000000
vt 0.000000 0.000000
vt 1.000000 0.000000
vt 0.000000 0.670600
vt 0.968600 0.670600
vt 0.000000 1.000000
vt 0.823500 1.000000
vt 0.000000 0.000000
vt 1.000000 0.000000
vt 0.000000 0.670600
vt 0.968600 0.670600
vt 0.000000 1.000000
vt 0.823500 1.000000
vt 0.000000 0.670600
vt 0.000000 0.000000
vt 1.000000 0.000000
vt 1.000000 0.000000
vt 0.968600 0.670600
vt 0.000000 0.000000
vt 0.000000 0.000000
vt 0.996100 0.000000
vt 0.164700 1.000000
vt 0.996100 1.000000
vt 0.968600 0.670600
vt 0.000000 0.670600
vt 1.000000 0.000000
vt 0.000000 0.000000
vt 0.000000 0.000000
vt 0.513700 0.000000
vt 0.000000 0.670600
vt 0.517600 0.666700
vt 0.517600 0.666700
vt 0.000000 0.670600
vt 0.513700 0.000000
vt 0.000000 0.000000
vt 0.996100 1.000000
vt 0.164700 1.000000
vt 0.996100 0.000000
vt 0.000000 0.000000
vt 0.823500 1.000000
vt 0.000000 1.000000
vt 0.968600 0.670600
vt 0.000000 0.670600
vt 1.000000 0.000000
vt 0.000000 0.000000
vt 0.494100 0.474500
vt 0.003900 1.000000
vt 0.996100 1.000000
vt 0.000000 0.670600
vt 0.968600 0.670600
vt 0.000000 1.000000
vt 0.823500 1.000000
vt 0.996100 1.000000
vt 0.164700 1.000000
vt 0.996100 0.000000
vt 0.000000 0.000000
vt 0.996100 1.000000
vt 1.000000 0.764700
vt 0.003900 1.000000
vt 0.003900 0.764700
vt 0.000000 0.670600
vt 0.968600 0.670600
vt 0.000000 1.000000
vt 0.823500 1.000000
vt 0.164700 1.000000
vt 0.996100 0.000000
vt 0.000000 0.000000
vt 0.000000 0.670600
vt 0.968600 0.670600
vt 0.000000 1.000000
vt 0.823500 1.000000
vt 0.494100 0.474500
vt 0.003900 1.000000
vt 0.996100 1.000000
vt 0.164700 1.000000
vt 0.996100 0.000000
vt 0.000000 0.000000
vt 0.996100 1.000000
vt 0.164700 1.000000
vt 0.996100 0.000000
vt 0.000000 0.000000
vt 0.000000 0.000000
vt 1.000000 0.000000
vt 0.000000 0.670600
vt 0.968600 0.670600
vt 0.000000 1.000000
vt 0.823500 1.000000
vt 0.000000 0.000000
vt 1.000000 0.000000
vt 0.000000 0.670600
vt 0.968600 0.670600
vt 0.000000 1.000000
vt 0.823500 1.000000
vt 0.000000 0.000000
vt 0.968600 0.670600
vt 1.000000 0.000000
vt 1.000000 0.000000
vt 0.000000 0.000000
vt 0.000000 0.670600
vt 0.164700 1.000000
vt 0.996100 0.000000
vt 0.000000 0.000000
vn 0.6503 0.1147 0.7509
vn 0.9755 0.1147 0.1877
vn 0.9755 0.1147 -0.1877
vn 0.6503 0.1147 -0.7509
vn 0.3252 0.1147 -0.9387
vn -0.3252 0.1147 -0.9387
vn -0.6503 0.1147 -0.7509
vn -0.9755 0.1147 -0.1877
vn -0.9755 0.1147 0.1877
vn -0.6503 0.1147 0.7509
vn -0.3252 0.1147 0.9387
vn 0.3252 0.1147 0.9387
vn 0.0000 1.0000 0.0000
vn -0.0000 0.0000 1.0000
vn -0.9506 0.2508 -0.1830
vn -0.6337 0.2508 0.7317
vn -0.8245 0.5431 0.1587
vn -0.2275 0.7190 0.6567
vn 0.2248 0.7268 -0.6491
vn 0.6745 0.7268 -0.1298
vn 0.4211 0.4599 -0.7818
vn 0.9120 0.3972 -0.1024
vn 0.6511 0.1049 -0.7517
vn 0.9607 0.1032 -0.2576
vn -0.3765 0.8180 -0.4348
vn 0.4497 0.7268 0.5192
vn -0.2248 0.7268 0.6491
vn 0.2248 0.7268 0.6490
vn -0.4497 0.7268 0.5192
vn 0.3168 0.2508 0.9147
vn 0.3765 0.8180 0.4348
vn 0.2275 0.7190 -0.6567
vn 0.9506 0.2508 0.1830
vn 0.8245 0.5431 -0.1587
vn -0.6745 0.7268 0.1298
vn -0.8420 0.5035 -0.1936
vn 0.6337 0.2508 -0.7317
vn -0.3168 0.2508 -0.9147
vn -0.3255 0.1049 -0.9397
vn -0.9607 0.1032 -0.2576
vn -0.4665 0.4599 -0.7556
vn -0.4497 0.7268 -0.5192
vn 0.9943 0.1068 0.0000
vn -0.9943 0.1068 -0.0000
vn -0.0000 0.0000 -1.0000
vn 0.8420 0.5035 0.1936
vn 0.4664 0.4599 0.7556
vn 0.9607 0.1032 0.2576
vn 0.3255 0.1049 0.9397
vn 0.4497 0.7268 -0.5192
vn -0.2248 0.7268 -0.6490
vn 0.3766 0.8180 0.4348
vn -0.9120 0.3972 0.1024
vn -0.9607 0.1032 0.2576
vn -0.6511 0.1049 0.7517
vn -0.4211 0.4599 0.7818
usemtl 336
s 1
f 1/1/1 2/2/2 3/3/3
f 2/2/2 4/4/4 3/3/3
f 3/3/3 4/4/4 5/5/5
f 4/4/4 6/6/6 5/5/5
f 5/5/5 6/6/6 7/7/7
f 6/6/6 8/8/8 7/7/7
f 7/7/7 8/8/8 9/9/9
f 8/8/8 10/10/10 9/9/9
f 9/9/9 10/10/10 11/11/11
f 10/10/10 12/12/12 11/11/11
f 11/11/11 12/12/12 1/1/1
f 12/12/12 2/2/2 1/1/1
f 13/13/8 14/14/7 15/15/6
f 14/14/7 16/16/5 15/15/6
f 15/15/6 16/16/5 17/17/4
f 16/16/5 18/18/3 17/17/4
f 17/17/4 18/18/3 19/19/2
f 18/18/3 20/20/1 19/19/2
f 19/19/2 20/20/1 21/21/12
f 20/20/1 22/22/11 21/21/12
f 21/21/12 22/22/11 23/23/10
f 22/22/11 24/24/9 23/23/10
f 23/23/10 24/24/9 13/13/8
f 24/24/9 14/14/7 13/13/8
usemtl 338
f 25/25/13 26/26/13 27/27/13
f 26/26/13 28/28/13 27/27/13
f 29/29/13 25/30/13 30/31/13
f 25/30/13 27/32/13 30/31/13
f 26/33/13 31/34/13 28/35/13
f 31/34/13 32/36/13 28/35/13
f 33/37/13 34/38/13 35/39/13
f 34/38/13 36/40/13 35/39/13
f 37/41/13 33/42/13 38/43/13
f 33/42/13 35/44/13 38/43/13
f 34/45/13 39/46/13 36/47/13
f 39/46/13 40/48/13 36/47/13
usemtl 334
f 41/49/14 42/50/14 43/51/14
f 42/50/14 44/52/14 43/51/14
f 45/53/14 44/54/14 46/55/14
f 44/54/14 42/56/14 46/55/14
f 47/57/14 41/58/14 48/59/14
f 41/58/14 43/60/14 48/59/14
f 49/61/15 50/62/16 51/63/17
f 50/62/16 52/64/18 51/63/17
f 53/65/19 54/66/20 55/67/21
f 54/66/20 56/68/22 55/67/21
f 55/67/21 56/68/22 57/69/23
f 56/68/22 58/70/24 57/69/23
f 59/71/25 51/72/17 52/64/18
f 60/73/26 61/74/27 62/75/28
f 61/74/27 63/76/29 62/75/28
f 50/77/16 64/78/30 52/79/18
f 64/78/30 65/80/31 52/79/18
f 66/81/32 59/82/25 65/83/31
f 59/82/25 52/84/18 65/83/31
f 54/85/20 60/86/26 56/87/22
f 60/86/26 62/88/28 56/87/22
f 64/89/30 67/90/33 65/91/31
f 67/90/33 68/92/34 65/91/31
f 61/93/27 69/94/35 63/95/29
f 69/94/35 70/96/36 63/95/29
f 65/97/31 68/98/34 66/81/32
f 67/99/33 71/100/37 68/101/34
f 71/100/37 66/81/32 68/101/34
f 71/102/37 72/103/38 66/104/32
f 72/103/38 59/105/25 66/104/32
f 73/106/39 74/107/40 75/108/41
f 74/107/40 70/109/36 75/108/41
f 75/108/41 70/109/36 76/110/42
f 70/109/36 69/111/35 76/110/42
f 57/112/23 73/113/39 55/114/21
f 73/113/39 75/115/41 55/114/21
f 55/114/21 75/115/41 53/116/19
f 75/115/41 76/117/42 53/116/19
f 45/118/43 46/119/43 56/87/22
f 46/119/43 58/120/24 56/87/22
f 47/121/44 48/122/44 74/123/40
f 48/122/44 70/96/36 74/123/40
f 72/124/38 49/125/15 59/126/25
f 49/125/15 51/127/17 59/126/25
f 77/128/45 78/129/45 79/130/45
f 78/129/45 80/131/45 79/130/45
f 81/132/45 80/133/45 82/134/45
f 80/133/45 78/135/45 82/134/45
f 83/136/45 77/137/45 84/138/45
f 77/137/45 79/139/45 84/138/45
f 85/140/17 86/141/25 87/142/15
f 86/141/25 88/143/38 87/142/15
f 89/144/20 90/145/26 91/146/46
f 90/145/26 92/147/47 91/146/46
f 91/146/46 92/147/47 93/148/48
f 92/147/47 94/149/49 93/148/48
f 86/150/25 85/151/17 95/152/18
f 96/153/50 97/154/51 98/155/19
f 97/154/51 99/156/42 98/155/19
f 86/157/25 100/158/32 88/159/38
f 100/158/32 101/160/37 88/159/38
f 100/161/32 86/162/25 102/163/52
f 86/162/25 95/164/18 102/163/52
f 91/165/46 96/166/50 89/167/20
f 96/166/50 98/168/19 89/167/20
f 100/161/32 103/169/34 101/170/37
f 103/169/34 104/171/33 101/170/37
f 97/172/51 105/173/53 99/174/42
f 105/173/53 106/175/35 99/174/42
f 102/176/52 103/177/34 100/161/32
f 103/178/34 102/179/52 104/180/33
f 102/179/52 107/181/30 104/180/33
f 102/182/52 95/183/18 107/184/30
f 95/183/18 108/185/16 107/184/30
f 109/186/54 110/187/55 105/188/53
f 110/187/55 111/189/56 105/188/53
f 105/188/53 111/189/56 106/190/35
f 111/189/56 112/191/27 106/190/35
f 110/192/55 94/193/49 111/194/56
f 94/193/49 92/195/47 111/194/56
f 111/194/56 92/195/47 112/196/27
f 92/195/47 90/197/26 112/196/27
f 91/165/46 93/198/48 82/199/43
f 93/198/48 81/200/43 82/199/43
f 109/201/54 105/173/53 84/202/44
f 105/173/53 83/203/44 84/202/44
f 95/152/18 85/204/17 108/205/16
f 85/204/17 87/206/15 108/205/16
