mtllib WingLeft.mtl
v -3.290191 0.045097 -11.005907
v -4.789392 -0.000006 -0.000001
v -1.122293 0.045098 -11.270502
v -4.537992 0.030595 -4.247705
v 3.822008 0.045101 -10.256105
v 5.905307 0.030601 -4.247705
v 6.468507 0 -0.000001
v -1.144093 1.365496 -0.925004
v -1.123493 1.173897 -4.247705
v -1.144092 -1.208404 -0.925004
v -1.123492 -1.070503 -4.247705
vt -0.15 1.6072
vt 0.368 1.8305
vt -0.1355 1.7653
vt 0.3756 1.6072
vt 0.368 1.8291
vt 0.1 0.9928
vt -0.0999 0.8649
vt 0.1 0.5649
vt -0.0999 0.5649
vt -0.0999 0.9928
vt 0.2499 1.6
vt 0.2499 1.8608
vt 0.4999 1.5999
vt 0.4999 1.8396
vt -0.0675 0.5649
vt -0.0999 0.9892
vt 0 0.5676
vt 0.327 1.5999
vt 0.2499 1.8594
vt 0.3749 1.861
vt 0.2499 1.5999
vn -0.101199 0.986023 -0.132237
vn -0.078951 0.99411 -0.073916
vn 0.005829 0.987304 -0.158666
vn -0.327952 0.943632 -0.044099
vn 0.005768 -0.987579 -0.156865
vn -0.076235 -0.994873 -0.066286
vn -0.097842 -0.98645 -0.131443
vn -0.310556 -0.949461 -0.044801
vn 0.168157 0.985015 -0.037812
vn 0.094913 0.989624 -0.107761
vn 0.178472 0.983795 -0.016572
vn -0.096988 0.994476 -0.039338
vn -0.353893 0.935148 -0.014191
vn 0.05295 0 0.998566
vn -0.120609 0 0.992676
vn 0.051485 0 0.998657
vn 0.245949 0 0.969268
vn 0.156926 -0.986724 -0.041719
vn 0.09183 -0.989868 -0.108158
vn 0.160039 -0.986694 -0.028321
vn -0.089663 -0.995331 -0.035432
vn -0.320414 -0.946898 -0.025758
usemtl unnamed.0
f 1/1/1 9/2/2 3/3/3
f 4/4/4 9/2/2 1/1/1
f 3/3/5 11/5/6 1/1/7
f 4/4/8 1/1/7 11/5/6
f 6/6/9 5/7/10 9/8/2
f 3/9/3 9/8/2 5/7/10
f 7/6/11 6/10/9 8/8/12
f 9/9/2 8/8/12 6/10/9
f 2/11/13 8/12/12 4/13/4
f 4/13/4 8/12/12 9/14/2
f 10/15/14 7/16/15 8/17/16
f 2/18/17 10/19/14 8/20/16
f 6/6/18 11/8/6 5/7/19
f 5/7/19 11/8/6 3/9/5
f 7/6/20 10/8/21 6/10/18
f 6/10/18 10/8/21 11/9/6
f 2/21/22 4/13/8 10/12/21
f 11/14/6 10/12/21 4/13/8
