# Blender v2.79 (sub 0) OBJ File: ''
# www.blender.org
mtllib TrafficLight.mtl
o Circle.001
v 0.001319 37.313698 5.212986
v -1.717323 36.853191 5.212986
v -2.975456 35.595058 5.212986
v -3.435965 33.876415 5.212986
v -2.975456 32.157772 5.212986
v -1.717323 30.899639 5.212986
v 0.001319 30.439131 5.212986
v 1.719961 30.899639 5.212986
v 2.978094 32.157772 5.212986
v 3.438603 33.876415 5.212986
v 2.978096 35.595055 5.212986
v 1.719963 36.853191 5.212986
vt 0.275098 0.122017
vt 0.062597 0.490079
vt 0.275098 0.858140
vt 0.487598 0.915080
vt 0.700099 0.858140
vt 0.855660 0.702579
vt 0.912599 0.490079
vt 0.855660 0.277578
vt 0.700099 0.122017
vt 0.487598 0.065078
vt 0.119537 0.277578
vt 0.119537 0.702579
vn -0.0000 0.0000 1.0000
usemtl None
s off
f 9/1/1 11/2/1 1/3/1
f 1/3/1 2/4/1 3/5/1
f 3/5/1 4/6/1 5/7/1
f 5/7/1 6/8/1 7/9/1
f 7/9/1 8/10/1 9/1/1
f 9/1/1 10/11/1 11/2/1
f 11/2/1 12/12/1 1/3/1
f 1/3/1 3/5/1 5/7/1
f 5/7/1 7/9/1 1/3/1
f 7/9/1 9/1/1 1/3/1
o mesh_3_meshId3_name
v 4.400002 38.249096 4.930057
v 4.400002 34.999096 -1.430052
v -4.400002 38.249096 4.930057
v -4.400002 34.999096 -1.430052
v 4.400002 34.999096 -1.430052
v 4.400002 38.249096 4.930057
v 4.400002 28.249100 4.930056
v -4.400002 28.249100 4.930056
v -4.400002 38.249096 4.930057
v -4.400002 34.999096 -1.430052
v -4.400002 34.999096 -1.430052
v 4.400002 34.999096 -1.430052
v -4.400002 28.249100 4.930056
v 4.400002 28.249100 4.930056
vt 0.002758 1.002025
vt 0.002758 0.521087
vt 1.003736 1.002025
vt 1.003736 0.521087
vt 1.003736 0.521087
vt 1.003736 1.002025
vt 0.002758 1.002025
vt 0.002758 1.002025
vt 1.003736 1.002025
vt 1.003736 0.521087
vt 0.002758 0.521087
vt 1.003736 0.521087
vt 0.002758 0.004958
vt 1.003736 0.004958
vn 0.0000 0.8905 -0.4550
vn 1.0000 0.0000 0.0000
vn -1.0000 0.0000 0.0000
vn 0.0000 -0.6858 -0.7278
usemtl texture_4_material_0
s 1
f 13/13/2 14/14/2 15/15/2
f 16/16/2 15/15/2 14/14/2
f 17/17/3 18/18/3 19/19/3
f 20/20/4 21/21/4 22/22/4
f 23/23/5 24/24/5 25/25/5
f 26/26/5 25/25/5 24/24/5
o mesh_2_meshId2_name
v -9.500000 43.249096 5.000002
v -9.500000 43.249096 3.000002
v -9.500000 23.249102 5.000001
v -9.500000 23.249102 3.000001
v 9.500000 43.249096 5.000002
v -9.500000 43.249096 5.000002
v 9.500000 23.249102 5.000001
v -9.500000 23.249102 5.000001
v 9.500000 43.249096 3.000002
v 9.500000 43.249096 5.000002
v 9.500000 23.249102 3.000001
v 9.500000 23.249102 5.000001
v 9.500000 43.249096 5.000002
v 9.500000 43.249096 3.000002
v -9.500000 43.249096 5.000002
v -9.500000 43.249096 3.000002
vt 0.946212 0.999999
vt 0.789809 0.999999
vt 0.946212 0.002931
vt 0.789809 0.002931
vt 1.000953 0.999999
vt -0.000025 0.999999
vt 1.000953 0.002931
vt -0.000025 0.002931
vt 0.195479 0.999999
vt 0.039076 0.999999
vt 0.195479 0.002931
vt 0.039076 0.002931
vt -0.000025 0.167154
vt -0.000025 0.002931
vt 1.000953 0.167154
vt 1.000953 0.002931
vn -1.0000 0.0000 0.0000
vn 0.0000 0.0000 1.0000
vn 1.0000 0.0000 0.0000
vn 0.0000 1.0000 0.0000
usemtl texture_1_material_0
s 1
f 27/27/6 28/28/6 29/29/6
f 30/30/6 29/29/6 28/28/6
f 31/31/7 32/32/7 33/33/7
f 34/34/7 33/33/7 32/32/7
f 35/35/8 36/36/8 37/37/8
f 38/38/8 37/37/8 36/36/8
f 39/39/9 40/40/9 41/41/9
f 42/42/9 41/41/9 40/40/9
o mesh_1_meshId1_name
v -1.722046 4.311599 -0.250000
v 1.742050 -0.000901 -0.250000
v -1.722046 -0.000901 -0.250000
v 1.742050 4.311598 -0.250000
v -1.722046 34.499096 -0.249998
v 1.742050 34.499096 -0.249998
v -3.790076 33.900002 5.000003
v -4.394875 33.900002 14.150003
v -2.679988 31.220013 5.000003
v -3.107646 37.007648 14.150003
v -2.679988 36.579990 5.000003
v 0.000000 38.294876 14.150003
v 0.000000 37.690079 5.000003
v 3.107646 37.007648 14.150003
v 2.679989 36.579990 5.000003
v 4.394876 33.900002 14.150003
v 3.790077 33.900002 5.000003
v 3.107646 30.792355 14.150002
v 2.679988 31.220013 5.000003
v 4.394876 33.900002 5.000001
v 4.394876 33.900002 14.150003
v 3.107646 30.792355 5.000001
v 3.107646 37.007648 14.150003
v 3.107646 37.007648 5.000001
v 0.000000 38.294876 14.150003
v 0.000000 38.294876 5.000002
v -3.107646 37.007648 14.150003
v -3.107646 37.007648 5.000001
v -4.394875 33.900002 14.150003
v -4.394875 33.900002 5.000001
v -3.107646 30.792355 14.150002
v -3.107646 30.792355 5.000001
v -3.107646 30.792355 14.150002
v 3.107646 30.792355 14.150002
v 0.010002 34.499096 2.750001
v 0.010002 8.624098 2.750000
v 1.742050 34.499096 -0.249998
v 1.742050 4.311598 -0.250000
v -1.722046 34.499096 -0.249998
v -1.722046 4.311599 -0.250000
v 0.010002 34.499096 2.750001
v 0.010002 8.624098 2.750000
v 1.742050 -0.000901 -0.250000
v 1.742050 4.311598 -0.250000
v 0.010002 -0.000901 2.750000
v 0.010002 8.624098 2.750000
v 0.010002 -0.000901 2.750000
v 0.010002 8.624098 2.750000
v -1.722046 -0.000901 -0.250000
v -1.722046 4.311599 -0.250000
vt -0.622165 0.262397
vt -0.809848 0.326913
vt -0.809848 0.262397
vt -0.622165 0.326913
vt 0.691618 0.262397
vt 0.691618 0.326913
vt -0.598705 0.350374
vt -0.598705 0.227207
vt -0.223338 0.350374
vt -0.223338 0.227207
vt -0.223338 0.350374
vt -0.598705 0.227207
vt -0.598705 0.350374
vt -0.223338 0.227207
vt -0.223338 0.350374
vt -0.598705 0.227207
vt -0.598705 0.350374
vt -0.223338 0.227207
vt -0.223338 0.350374
vt -0.223338 0.256532
vt -0.223338 0.027793
vt -0.598705 0.256532
vt -0.598705 0.027793
vt -0.598705 0.256532
vt -0.223338 0.027793
vt -0.223338 0.256532
vt -0.598705 0.027793
vt -0.598705 0.256532
vt -0.223338 0.027793
vt -0.223338 0.256532
vt -0.598705 0.027793
vt -0.598705 0.256532
vt -0.223338 0.227207
vt -0.598705 0.027793
vt -0.809848 0.505799
vt 0.316251 0.505799
vt -0.809848 0.016063
vt 0.503935 0.016063
vt 0.691618 0.016063
vt -0.622165 0.016063
vt 0.691618 0.505799
vt -0.434482 0.505799
vt 0.691618 0.016063
vt 0.503935 0.016063
vt 0.691618 0.505799
vt 0.316251 0.505799
vt -0.809848 0.505799
vt -0.434482 0.505799
vt -0.809848 0.016063
vt -0.622165 0.016063
vn 0.0000 0.0000 -1.0000
vn 0.9978 0.0000 0.0660
vn 0.9221 0.3820 0.0609
vn 0.7056 -0.7056 0.0660
vn 0.0000 -0.9978 0.0660
vn -0.7056 -0.7056 0.0660
vn -0.9978 0.0000 0.0660
vn -0.9221 0.3820 0.0609
vn 1.0000 0.0000 0.0000
vn 0.9239 -0.3827 0.0000
vn 0.7071 0.7071 0.0000
vn 0.0000 1.0000 0.0000
vn -0.7071 0.7071 0.0000
vn -1.0000 0.0000 0.0000
vn -0.9239 -0.3827 0.0000
vn 0.8660 0.0000 0.5000
vn -0.8660 0.0000 0.5000
usemtl texture_3_material_0
s 1
f 43/43/10 44/44/10 45/45/10
f 43/43/10 46/46/10 44/44/10
f 47/47/10 46/46/10 43/43/10
f 47/47/10 48/48/10 46/46/10
f 49/49/11 50/50/11 51/51/12
f 49/49/11 52/52/13 50/50/11
f 53/53/13 52/52/13 49/49/11
f 53/53/13 54/54/14 52/52/13
f 55/55/14 54/54/14 53/53/13
f 55/55/14 56/56/15 54/54/14
f 57/57/15 56/56/15 55/55/14
f 57/57/15 58/58/16 56/56/15
f 59/59/16 58/58/16 57/57/15
f 59/59/16 60/60/17 58/58/16
f 61/61/17 60/60/17 59/59/16
f 62/62/18 63/63/18 64/64/19
f 62/62/18 65/65/20 63/63/18
f 66/66/20 65/65/20 62/62/18
f 66/66/20 67/67/21 65/65/20
f 68/68/21 67/67/21 66/66/20
f 68/68/21 69/69/22 67/67/21
f 70/70/22 69/69/22 68/68/21
f 70/70/22 71/71/23 69/69/22
f 72/72/23 71/71/23 70/70/22
f 72/72/23 73/73/24 71/71/23
f 74/74/24 73/73/24 72/72/23
f 75/75/12 51/51/12 50/50/11
f 76/76/19 64/64/19 63/63/18
f 77/77/25 78/78/25 79/79/25
f 80/80/25 79/79/25 78/78/25
f 81/81/26 82/82/26 83/83/26
f 84/84/26 83/83/26 82/82/26
f 85/85/25 86/86/25 87/87/25
f 88/88/25 87/87/25 86/86/25
f 89/89/26 90/90/26 91/91/26
f 92/92/26 91/91/26 90/90/26
o mesh_0_meshId0_name
v -5.866086 39.115181 5.020064
v -5.866086 28.383018 5.020062
v 5.866076 39.115181 5.020064
v 5.866076 28.383018 5.020062
vt -0.000632 1.000077
vt -0.000632 0.001055
vt 1.000345 1.000077
vt 1.000345 0.001055
vn 0.0000 -0.0000 1.0000
usemtl texture_2_material_0
s off
f 93/93/27 94/94/27 95/95/27
f 96/96/27 95/95/27 94/94/27
