mtllib Waterfall3.mtl
v 41.016117 382.303101 11.562346 1.000000 1.000000 1.000000
v 47.742649 382.303101 15.594687 1.000000 1.000000 1.000000
v 52.738430 408.082275 -10.092521 1.000000 1.000000 1.000000
v 39.695499 382.303101 -8.562911 1.000000 1.000000 1.000000
v 45.369801 382.303101 -12.373093 1.000000 1.000000 1.000000
v 37.442699 382.303101 2.454597 1.000000 1.000000 1.000000
v 52.831287 410.821777 1.521369 1.000000 1.000000 1.000000
v 31.200079 315.736603 -13.739274 1.000000 1.000000 1.000000
v 5.110544 99.999496 -14.655831 1.000000 1.000000 1.000000
v 21.344849 315.736603 -9.555534 1.000000 1.000000 1.000000
v -3.151456 99.999489 -8.989041 1.000000 1.000000 1.000000
v -6.984154 99.999489 3.940240 1.000000 1.000000 1.000000
v 18.709379 315.736603 3.184344 1.000000 1.000000 1.000000
v 31.759979 315.736603 18.044954 1.000000 1.000000 1.000000
v 21.567310 315.736603 13.593044 1.000000 1.000000 1.000000
v 4.669788 99.999481 20.113989 1.000000 1.000000 1.000000
v -3.759966 99.999481 15.507658 1.000000 1.000000 1.000000
v 30.071480 353.667023 -9.458114 1.000000 1.000000 1.000000
v 37.576160 353.667023 -13.455077 1.000000 1.000000 1.000000
v 27.427898 353.667023 2.819473 1.000000 1.000000 1.000000
v 30.843019 353.667023 12.577692 1.000000 1.000000 1.000000
v 39.042530 353.667023 17.218712 1.000000 1.000000 1.000000
v 53.404747 408.985077 7.136845 1.000000 1.000000 1.000000
v 39.480728 382.303101 11.707586 1.000000 1.000000 1.000000
v 53.973598 407.345093 12.075769 1.000000 1.000000 1.000000
v 46.944160 382.303101 15.349366 1.000000 1.000000 1.000000
v 52.724140 409.884705 -5.166865 1.000000 1.000000 1.000000
v 38.485081 382.303101 -8.873086 1.000000 1.000000 1.000000
v 44.571320 382.303101 -12.618402 1.000000 1.000000 1.000000
v 36.015617 382.303101 2.448030 1.000000 1.000000 1.000000
v 52.831287 410.821777 1.521369 1.000000 1.000000 1.000000
v 30.248159 315.736603 -13.769566 1.000000 1.000000 1.000000
v 3.790168 99.999496 -14.624551 1.000000 1.000000 1.000000
v 19.872669 315.736603 -9.498891 1.000000 1.000000 1.000000
v -5.208733 99.999489 -8.834630 1.000000 1.000000 1.000000
v -9.624909 99.999489 4.002784 1.000000 1.000000 1.000000
v 17.237179 315.736603 3.240985 1.000000 1.000000 1.000000
v 30.808060 315.736603 18.014645 1.000000 1.000000 1.000000
v 20.095110 315.736603 13.649684 1.000000 1.000000 1.000000
v 3.349428 99.999481 20.145260 1.000000 1.000000 1.000000
v -5.817253 99.999481 15.662068 1.000000 1.000000 1.000000
v 28.730188 353.667023 -9.584879 1.000000 1.000000 1.000000
v 36.700958 353.667023 -13.592877 1.000000 1.000000 1.000000
v 25.978260 353.667023 2.844510 1.000000 1.000000 1.000000
v 29.339230 353.667023 12.678642 1.000000 1.000000 1.000000
v 38.167328 353.667023 17.080902 1.000000 1.000000 1.000000
v -6.276691 100.300186 20.897160 1.000000 1.000000 1.000000
v 4.202579 100.300179 25.093029 1.000000 1.000000 1.000000
v 4.151646 100.300201 -16.086559 1.000000 1.000000 1.000000
v -5.151625 100.300201 -13.026281 1.000000 1.000000 1.000000
v 4.287066 100.300194 3.462360 1.000000 1.000000 1.000000
v -12.848350 100.300194 -5.921795 1.000000 1.000000 1.000000
v -15.816979 100.300194 4.857112 1.000000 1.000000 1.000000
v -12.952600 100.300186 14.221158 1.000000 1.000000 1.000000
v 4.353561 100.300209 -29.220339 1.000000 1.000000 1.000000
v -9.886699 100.300209 -24.945839 1.000000 1.000000 1.000000
v -20.886110 100.300194 -11.453321 1.000000 1.000000 1.000000
v -30.224339 100.300194 5.775760 1.000000 1.000000 1.000000
v -26.241480 100.300186 20.891140 1.000000 1.000000 1.000000
v -13.562850 100.300179 34.108837 1.000000 1.000000 1.000000
v 2.365425 100.300171 41.818748 1.000000 1.000000 1.000000
v 4.140383 100.300217 -47.828098 0.600000 0.400000 0.000000
v -16.099960 100.300217 -40.731239 0.600000 0.400000 0.000000
v -34.316891 100.300201 -19.101231 0.600000 0.400000 0.000000
v -50.420288 100.300194 7.349208 0.600000 0.400000 0.000000
v -44.185879 100.300179 30.469210 0.600000 0.400000 0.000000
v -22.218420 100.300171 50.889828 0.600000 0.400000 0.000000
v 0.303970 100.300163 59.908600 0.600000 0.400000 0.000000
vt 1.945300 3.999900
vt 1.749900 3.249900
vt 2.100000 3.249900
vt 0.000000 3.249900
vt 0.349900 3.249900
vt 0.187400 3.999900
vt 0.882800 3.999900
vt 0.699900 3.249900
vt 1.050000 3.249900
vt 1.578100 3.999900
vt 1.399900 3.249900
vt 0.539000 3.999900
vt 1.234300 3.999900
vt 0.000000 2.649900
vt 0.350000 2.649900
vt 0.700000 2.649900
vt 1.050000 2.649900
vt 1.399900 2.649900
vt 1.749900 2.649900
vt 2.100000 2.649900
vt 0.000000 1.499900
vt 0.349900 1.499900
vt 0.700000 1.499900
vt 1.050000 1.499900
vt 1.400000 1.499900
vt 1.749900 1.499900
vt 2.100000 1.499900
vt -0.740500 4.249900
vt -0.740500 3.437400
vt -0.540500 4.249900
vt -0.540500 3.437400
vt -1.740500 4.249900
vt -2.040500 4.249900
vt -1.740500 3.437400
vt -2.040500 3.437400
vt -1.240500 3.437400
vt -1.240500 4.249900
vt -2.040500 2.015600
vt -2.040500 -0.749900
vt -1.740500 2.015600
vt -1.740500 -0.749900
vt -1.240500 -0.749900
vt -1.240500 2.015600
vt -0.540500 2.015600
vt -0.740500 2.015600
vt -0.540500 -0.749900
vt -0.740500 -0.749900
vt -1.740500 2.781200
vt -2.040500 2.781200
vt -1.240500 2.781200
vt -0.740500 2.781200
vt -0.540500 2.781200
vt -2.040500 3.859300
vt -1.940500 4.249900
vt -1.940500 3.859300
vt -2.440500 4.249900
vt -2.540500 4.249900
vt -2.440500 3.859300
vt -2.540500 3.859300
vt -2.240500 3.859300
vt -2.240500 4.249900
vt -2.540500 2.749900
vt -2.540500 1.249900
vt -2.440500 2.749900
vt -2.440500 1.249900
vt -2.240500 1.249900
vt -2.240500 2.749900
vt -1.940500 2.749900
vt -2.040500 2.749900
vt -1.940500 1.249900
vt -2.040500 1.249900
vt -2.440500 3.359300
vt -2.540500 3.359300
vt -2.240500 3.359300
vt -2.040500 3.359300
vt -1.940500 3.359300
vn 0.000000 1.000000 0.000000
vn 0.000000 0.999969 0.000000
vn -0.843776 0.472701 0.254036
vn -0.724723 0.323313 0.608448
vn -0.825678 0.445967 0.345470
vn -0.501144 0.223304 0.836024
vn -0.887539 0.450789 -0.095035
vn -0.861080 0.442335 -0.250649
vn -0.788171 0.324290 -0.523057
vn -0.545457 0.206275 -0.812311
vn -0.914640 0.397259 0.074679
vn -0.885678 0.458388 0.073458
vn -0.395337 0.072726 -0.915647
vn -0.559709 0.061647 -0.826380
vn -0.771325 0.133488 -0.622242
vn -0.814234 0.093631 -0.572924
vn -0.992950 0.118229 -0.007355
vn -0.985137 0.168798 0.030854
vn -0.405744 0.092318 0.909299
vn -0.751122 0.142521 0.644551
vn -0.476180 0.063784 0.877010
vn -0.788903 0.098086 0.606616
vn -0.775018 0.220954 -0.592029
vn -0.471847 0.139378 -0.870571
vn -0.958403 0.279641 0.056825
vn -0.743126 0.230445 0.628163
vn -0.487777 0.162572 0.857692
vn -0.700736 0.335307 0.629658
vn -0.428449 0.213080 0.878048
vn -0.770074 0.336650 -0.541856
vn -0.512253 0.211188 -0.832423
vn -0.907834 0.414624 0.062349
vn -0.867855 0.491104 0.074862
vn -0.384777 0.069430 -0.920377
vn -0.535417 0.059908 -0.842433
vn -0.768059 0.133244 -0.626331
vn -0.793786 0.094485 -0.600787
vn -0.992309 0.123508 -0.006897
vn -0.984863 0.170476 0.030854
vn -0.381451 0.088015 0.920164
vn -0.743217 0.142094 0.653737
vn -0.436598 0.060884 0.897580
vn -0.762383 0.098819 0.639515
vn -0.766656 0.218696 -0.603626
vn -0.451003 0.131809 -0.882717
vn -0.958525 0.280251 0.051180
vn -0.730155 0.227882 0.644124
vn -0.440443 0.151463 0.884884
usemtl unnamed.0
f 51/1/1 47/2/1 48/3/1
f 49/4/1 50/5/1 51/6/1
f 51/7/1 52/8/1 53/9/1
f 51/10/1 54/11/1 47/2/1
f 51/12/1 50/5/1 52/8/1
f 51/13/1 53/9/1 54/11/1
f 55/14/1 56/15/1 49/4/1
f 56/15/1 50/5/1 49/4/1
f 56/15/1 57/16/2 50/5/1
f 52/8/1 50/5/1 57/16/2
f 58/17/1 53/9/1 57/16/2
f 53/9/1 52/8/1 57/16/2
f 58/17/1 59/18/1 53/9/1
f 54/11/1 53/9/1 59/18/1
f 59/18/1 60/19/1 54/11/1
f 47/2/1 54/11/1 60/19/1
f 61/20/1 48/3/1 60/19/1
f 48/3/1 47/2/1 60/19/1
f 62/21/1 63/22/1 55/14/1
f 63/22/1 56/15/1 55/14/1
f 63/22/1 64/23/1 56/15/1
f 57/16/2 56/15/1 64/23/1
f 65/24/2 58/17/1 64/23/1
f 58/17/1 57/16/2 64/23/1
f 66/25/1 59/18/1 65/24/2
f 59/18/1 58/17/1 65/24/2
f 66/25/1 67/26/1 59/18/1
f 60/19/1 59/18/1 67/26/1
f 68/27/2 61/20/1 67/26/1
f 61/20/1 60/19/1 67/26/1
f 23/28/3 1/29/4 25/30/5
f 1/29/4 2/31/6 25/30/5
f 27/32/7 3/33/8 4/34/9
f 3/33/8 5/35/10 4/34/9
f 6/36/11 7/37/12 4/34/9
f 27/32/7 4/34/9 7/37/12
f 8/38/13 9/39/14 10/40/15
f 9/39/14 11/41/16 10/40/15
f 12/42/17 13/43/18 11/41/16
f 13/43/18 10/40/15 11/41/16
f 14/44/19 15/45/20 16/46/21
f 15/45/20 17/47/22 16/46/21
f 10/40/15 18/48/23 8/38/13
f 19/49/24 8/38/13 18/48/23
f 18/48/23 10/40/15 20/50/25
f 20/50/25 10/40/15 13/43/18
f 15/45/20 14/44/19 21/51/26
f 22/52/27 21/51/26 14/44/19
f 15/45/20 13/43/18 17/47/22
f 13/43/18 12/42/17 17/47/22
f 21/51/26 20/50/25 15/45/20
f 20/50/25 13/43/18 15/45/20
f 7/37/12 6/36/11 23/28/3
f 6/36/11 1/29/4 23/28/3
f 23/33/3 24/53/28 25/54/5
f 24/53/28 26/55/29 25/54/5
f 27/56/7 3/57/8 28/58/30
f 3/57/8 29/59/31 28/58/30
f 30/60/32 31/61/33 28/58/30
f 27/56/7 28/58/30 31/61/33
f 32/62/34 33/63/35 34/64/36
f 33/63/35 35/65/37 34/64/36
f 36/66/38 37/67/39 35/65/37
f 37/67/39 34/64/36 35/65/37
f 38/68/40 39/69/41 40/70/42
f 39/69/41 41/71/43 40/70/42
f 34/64/36 42/72/44 32/62/34
f 43/73/45 32/62/34 42/72/44
f 42/72/44 34/64/36 44/74/46
f 44/74/46 34/64/36 37/67/39
f 39/69/41 38/68/40 45/75/47
f 46/76/48 45/75/47 38/68/40
f 36/66/38 41/71/43 37/67/39
f 39/69/41 37/67/39 41/71/43
f 45/75/47 44/74/46 39/69/41
f 44/74/46 37/67/39 39/69/41
f 31/61/33 30/60/32 23/33/3
f 30/60/32 24/53/28 23/33/3
f 21/51/26 22/52/27 1/29/4
f 2/31/6 1/29/4 22/52/27
f 20/50/25 21/51/26 6/36/11
f 1/29/4 6/36/11 21/51/26
f 20/50/25 6/36/11 18/48/23
f 6/36/11 4/34/9 18/48/23
f 18/48/23 4/34/9 19/49/24
f 5/35/10 19/49/24 4/34/9
f 45/75/47 46/76/48 24/53/28
f 26/55/29 24/53/28 46/76/48
f 44/74/46 45/75/47 30/60/32
f 24/53/28 30/60/32 45/75/47
f 44/74/46 30/60/32 42/72/44
f 30/60/32 28/58/30 42/72/44
f 42/72/44 28/58/30 43/73/45
f 29/59/31 43/73/45 28/58/30
