mtllib Waterfall2.mtl
v -33.235828 323.081451 47.745461 1.000000 1.000000 1.000000
v -40.663677 334.955078 44.583244 1.000000 1.000000 1.000000
v -36.690910 323.081482 42.464081 1.000000 1.000000 1.000000
v -41.947838 335.293457 67.091141 1.000000 1.000000 1.000000
v -33.039669 323.081451 65.956100 1.000000 1.000000 1.000000
v -36.791920 323.081451 69.947937 1.000000 1.000000 1.000000
v -30.429338 323.081451 57.044308 1.000000 1.000000 1.000000
v -41.649410 337.230652 56.244171 1.000000 1.000000 1.000000
v -31.466860 299.832275 71.296700 1.000000 1.000000 1.000000
v -2.294760 99.999451 76.473267 1.000000 1.000000 1.000000
v -25.850750 299.832275 67.395485 1.000000 1.000000 1.000000
v 4.911562 99.999451 71.241623 1.000000 1.000000 1.000000
v 9.017296 99.999458 59.744629 1.000000 1.000000 1.000000
v -23.150169 299.832275 56.763618 1.000000 1.000000 1.000000
v 6.844406 99.999466 48.602448 1.000000 1.000000 1.000000
v -0.715572 99.999466 43.913837 1.000000 1.000000 1.000000
v -24.471828 299.832275 46.922729 1.000000 1.000000 1.000000
v -30.183529 299.832306 41.496338 1.000000 1.000000 1.000000
v -41.128147 336.357147 49.688244 1.000000 1.000000 1.000000
v -31.694368 323.081451 47.695339 1.000000 1.000000 1.000000
v -35.909130 323.081482 42.758228 1.000000 1.000000 1.000000
v -41.900528 336.275574 62.449333 1.000000 1.000000 1.000000
v -31.850729 323.081451 66.340446 1.000000 1.000000 1.000000
v -36.010120 323.081451 70.242096 1.000000 1.000000 1.000000
v -29.005390 323.081451 57.139008 1.000000 1.000000 1.000000
v -41.649410 337.230652 56.244171 1.000000 1.000000 1.000000
v -30.518629 299.832275 71.385750 1.000000 1.000000 1.000000
v -0.974973 99.999451 76.523605 1.000000 1.000000 1.000000
v -24.377869 299.832275 67.429886 1.000000 1.000000 1.000000
v 6.974453 99.999451 71.214584 1.000000 1.000000 1.000000
v 11.656870 99.999458 59.845318 1.000000 1.000000 1.000000
v -21.677279 299.832275 56.798016 1.000000 1.000000 1.000000
v 8.907298 99.999466 48.575397 1.000000 1.000000 1.000000
v 0.604218 99.999466 43.964188 1.000000 1.000000 1.000000
v -22.998940 299.832275 46.957127 1.000000 1.000000 1.000000
v -29.235300 299.832306 41.585377 1.000000 1.000000 1.000000
v 6.784977 100.300171 42.164440 1.000000 1.000000 1.000000
v -2.900867 100.300171 37.928837 1.000000 1.000000 1.000000
v -1.714460 100.300156 80.575706 1.000000 1.000000 1.000000
v 7.773570 100.300156 76.682274 1.000000 1.000000 1.000000
v -1.801153 100.300163 60.931419 1.000000 1.000000 1.000000
v 14.856500 100.300163 68.965683 1.000000 1.000000 1.000000
v 16.311409 100.300163 59.085167 1.000000 1.000000 1.000000
v 13.323820 100.300171 49.232727 1.000000 1.000000 1.000000
v -1.649219 100.300148 92.817757 1.000000 1.000000 1.000000
v 13.135600 100.300148 86.540100 1.000000 1.000000 1.000000
v 25.402939 100.300156 74.073486 1.000000 1.000000 1.000000
v 29.740879 100.300171 58.521976 1.000000 1.000000 1.000000
v 25.165819 100.300171 41.692608 1.000000 1.000000 1.000000
v 11.914440 100.300179 31.529358 1.000000 1.000000 1.000000
v -3.512772 100.300179 24.992079 1.000000 1.000000 1.000000
v -1.598207 100.300140 109.281052 0.600000 0.400000 0.000000
v 20.801199 100.300148 101.289246 0.600000 0.400000 0.000000
v 41.765530 100.300148 82.355087 0.600000 0.400000 0.000000
v 45.998077 100.300171 56.277428 0.600000 0.400000 0.000000
v 37.873268 100.300179 33.752117 0.600000 0.400000 0.000000
v 18.373569 100.300186 18.024580 0.600000 0.400000 0.000000
v -4.411442 100.300194 9.779642 0.600000 0.400000 0.000000
vt 1.945300 4.999900
vt 1.749900 4.249900
vt 2.100000 4.249900
vt 0.000000 4.249900
vt 0.349900 4.249900
vt 0.187400 4.999900
vt 0.882800 4.999900
vt 0.699900 4.249900
vt 1.050000 4.249900
vt 1.578100 4.999900
vt 1.399900 4.249900
vt 0.539000 4.999900
vt 1.234300 4.999900
vt 0.000000 3.650000
vt 0.350000 3.650000
vt 0.700000 3.650000
vt 1.050000 3.650000
vt 1.399900 3.650000
vt 1.749900 3.650000
vt 2.100000 3.650000
vt 0.000000 2.499900
vt 0.349900 2.499900
vt 0.700000 2.499900
vt 1.050000 2.499900
vt 1.400000 2.499900
vt 1.749900 2.499900
vt 2.100000 2.499900
vt -0.458200 4.624900
vt -0.458200 4.124900
vt -0.258200 4.624900
vt -0.258200 4.124900
vt -1.458200 4.624900
vt -1.758200 4.624900
vt -1.458200 4.124900
vt -1.758200 4.124900
vt -0.958200 4.124900
vt -0.958200 4.624900
vt -1.758200 3.499900
vt -1.758200 0.875100
vt -1.458200 3.499900
vt -1.458200 0.875100
vt -0.958200 0.875100
vt -0.958200 3.499900
vt -0.458200 0.875100
vt -0.258200 0.875100
vt -0.458200 3.499900
vt -0.258200 3.499900
vt -2.015600 4.624900
vt -2.015600 4.359300
vt -1.913400 4.624900
vt -1.913400 4.359300
vt -2.413400 4.624900
vt -2.513400 4.624900
vt -2.413400 4.359300
vt -2.513400 4.359300
vt -2.213400 4.359300
vt -2.213400 4.624900
vt -2.513400 4.031200
vt -2.513400 2.374900
vt -2.413400 4.031200
vt -2.413400 2.374900
vt -2.213400 2.374900
vt -2.213400 4.031200
vt -2.015600 2.374900
vt -1.913400 2.374900
vt -2.015600 4.031200
vt -1.913400 4.031200
vn 0.000000 1.000000 0.000000
vn 0.000000 0.999969 0.000000
vn 0.835322 0.548723 -0.033357
vn 0.838313 0.401685 -0.368572
vn 0.831721 0.523881 -0.183752
vn 0.797204 0.304056 -0.521500
vn 0.789056 0.600696 0.128544
vn 0.776940 0.586016 0.229957
vn 0.800195 0.401013 0.445875
vn 0.689566 0.322947 0.648183
vn 0.883419 0.468459 0.008301
vn 0.819361 0.572192 0.034822
vn 0.574511 0.166723 0.801324
vn 0.583850 0.105380 0.804956
vn 0.805353 0.202490 0.557085
vn 0.801782 0.137303 0.581591
vn 0.984344 0.159551 0.074587
vn 0.972777 0.225166 0.054598
vn 0.829585 0.127049 -0.543718
vn 0.529466 0.075655 -0.844935
vn 0.866482 0.215094 -0.450484
vn 0.689230 0.190649 -0.698965
vn 0.806757 0.426221 -0.409192
vn 0.721641 0.315683 -0.616047
vn 0.772240 0.423750 0.473281
vn 0.642476 0.343638 0.684896
vn 0.870144 0.492355 0.019715
vn 0.778771 0.626118 0.038148
vn 0.545732 0.158940 0.822718
vn 0.552171 0.102298 0.827418
vn 0.796228 0.201392 0.570421
vn 0.776971 0.137608 0.614277
vn 0.983398 0.165166 0.075045
vn 0.972228 0.227485 0.054476
vn 0.804346 0.126621 -0.580462
vn 0.488479 0.070711 -0.869686
vn 0.856166 0.212958 -0.470717
vn 0.651234 0.181066 -0.736930
usemtl unnamed.0
f 41/1/1 37/2/1 38/3/1
f 39/4/1 40/5/1 41/6/1
f 41/7/1 42/8/1 43/9/1
f 41/10/1 44/11/1 37/2/1
f 41/12/1 40/5/1 42/8/1
f 41/13/1 43/9/1 44/11/1
f 45/14/1 46/15/1 39/4/1
f 46/15/1 40/5/1 39/4/1
f 47/16/1 42/8/1 46/15/1
f 42/8/1 40/5/1 46/15/1
f 48/17/1 43/9/1 47/16/1
f 43/9/1 42/8/1 47/16/1
f 49/18/1 44/11/1 48/17/1
f 44/11/1 43/9/1 48/17/1
f 49/18/1 50/19/1 44/11/1
f 37/2/1 44/11/1 50/19/1
f 51/20/1 38/3/1 50/19/1
f 38/3/1 37/2/1 50/19/1
f 52/21/1 53/22/2 45/14/1
f 53/22/2 46/15/1 45/14/1
f 54/23/1 47/16/1 53/22/2
f 47/16/1 46/15/1 53/22/2
f 54/23/1 55/24/1 47/16/1
f 48/17/1 47/16/1 55/24/1
f 55/24/1 56/25/1 48/17/1
f 49/18/1 48/17/1 56/25/1
f 56/25/1 57/26/2 49/18/1
f 50/19/1 49/18/1 57/26/2
f 58/27/1 51/20/1 57/26/2
f 51/20/1 50/19/1 57/26/2
f 19/28/3 1/29/4 2/30/5
f 1/29/4 3/31/6 2/30/5
f 22/32/7 4/33/8 5/34/9
f 4/33/8 6/35/10 5/34/9
f 7/36/11 8/37/12 5/34/9
f 22/32/7 5/34/9 8/37/12
f 9/38/13 10/39/14 11/40/15
f 10/39/14 12/41/16 11/40/15
f 13/42/17 14/43/18 12/41/16
f 14/43/18 11/40/15 12/41/16
f 15/44/19 16/45/20 17/46/21
f 18/47/22 17/46/21 16/45/20
f 11/40/15 5/34/9 9/38/13
f 6/35/10 9/38/13 5/34/9
f 14/43/18 7/36/11 11/40/15
f 7/36/11 5/34/9 11/40/15
f 17/46/21 18/47/22 1/29/4
f 3/31/6 1/29/4 18/47/22
f 13/42/17 15/44/19 14/43/18
f 17/46/21 14/43/18 15/44/19
f 1/29/4 7/36/11 17/46/21
f 7/36/11 14/43/18 17/46/21
f 7/36/11 1/29/4 8/37/12
f 8/37/12 1/29/4 19/28/3
f 19/48/3 20/49/23 2/50/5
f 20/49/23 21/51/24 2/50/5
f 22/52/7 4/53/8 23/54/25
f 4/53/8 24/55/26 23/54/25
f 25/56/27 26/57/28 23/54/25
f 22/52/7 23/54/25 26/57/28
f 27/58/29 28/59/30 29/60/31
f 28/59/30 30/61/32 29/60/31
f 31/62/33 32/63/34 30/61/32
f 32/63/34 29/60/31 30/61/32
f 33/64/35 34/65/36 35/66/37
f 36/67/38 35/66/37 34/65/36
f 29/60/31 23/54/25 27/58/29
f 24/55/26 27/58/29 23/54/25
f 32/63/34 25/56/27 29/60/31
f 25/56/27 23/54/25 29/60/31
f 35/66/37 36/67/38 20/49/23
f 21/51/24 20/49/23 36/67/38
f 31/62/33 33/64/35 32/63/34
f 35/66/37 32/63/34 33/64/35
f 20/49/23 25/56/27 35/66/37
f 25/56/27 32/63/34 35/66/37
f 25/56/27 20/49/23 26/57/28
f 26/57/28 20/49/23 19/48/3
