# Blender v2.79 (sub 0) OBJ File: ''
# www.blender.org
mtllib FootRight.mtl
v -4.479253 -5.473245 2.903441
v -4.470452 -5.650847 -2.546056
v -4.400527 -8.483325 1.189811
v -4.517645 -2.023892 3.346695
v -4.452817 1.299065 -2.583780
v -4.535027 -1.869872 -2.686658
v -4.428161 1.444196 3.323204
v -4.396269 3.095966 0.280767
v -4.360645 -8.605058 -1.982979
v -3.747405 -2.175513 3.152590
v -4.428161 1.444196 3.323204
v -4.517645 -2.023892 3.346695
v -3.722473 -8.329636 1.278495
v -4.479253 -5.473245 2.903441
v -4.400527 -8.483325 1.189811
v -4.360645 -8.605058 -1.982979
v -3.681746 -8.454089 -1.887468
v -3.711994 -8.361756 0.518983
v -3.661183 1.186462 3.152494
v -3.627074 2.892749 0.336538
v -3.763441 -2.019186 -2.535852
v -4.452817 1.299065 -2.583780
v -3.683167 1.076943 -2.470188
v -4.470452 -5.650847 -2.546056
v -3.682470 -5.591353 -2.391388
v -4.396269 3.095966 0.280767
v -3.686939 -5.466189 2.658225
v -4.535027 -1.869872 -2.686658
v -0.484342 -3.622241 0.449594
v -0.653247 -4.281937 0.605745
v -0.623163 -4.391491 0.187971
v -0.639541 -3.836012 1.279864
v -0.793451 -4.445376 1.470130
v -0.394641 -3.368896 0.211432
v -0.584749 -3.448197 1.497986
v -0.516851 -3.492087 -0.847008
v -0.656251 -4.172721 -0.695602
v -0.731999 -4.362735 -1.110106
v -0.508999 -3.763150 -0.024653
v -0.505233 -3.323583 -1.092503
v -0.678696 -4.557369 0.423398
v -0.796070 -5.275462 0.579462
v -0.768662 -5.442459 0.169662
v -0.829793 -4.871693 1.252602
v -0.931034 -5.513731 1.445975
v -0.410222 -3.248097 0.635461
v -0.381929 -2.810067 1.312768
v -0.099701 -2.331015 0.240600
v -0.294393 -2.435096 1.531779
v -0.173323 -2.517781 0.471996
v -0.735666 -4.528511 -0.863324
v -0.816259 -5.203148 -0.714275
v -0.884656 -5.445528 -1.123325
v -0.708160 -4.804903 -0.044887
v -0.408731 -3.145401 -0.670888
v -0.216253 -2.752578 0.004453
v -0.194775 -2.283844 -1.069087
v -0.214036 -2.454976 -0.824862
v 0.116517 -2.504463 -0.823570
v 0.092951 -2.765696 0.006333
v -0.066703 -3.201061 -0.668907
v -0.146782 -3.661782 0.489111
v -0.296127 -3.889296 1.321857
v -0.309577 -4.328965 0.647865
v -0.178859 -3.529575 -0.845774
v -0.164727 -3.816930 -0.021068
v -0.311707 -4.219580 -0.694077
v 0.156618 -2.566241 0.513945
v -0.049814 -2.855202 1.354924
v -0.068925 -3.303003 0.678085
v -0.390969 -4.570135 -0.862532
v -0.363461 -4.846526 -0.044095
v -0.471209 -5.236407 -0.713314
v -0.334630 -4.598338 0.465234
v -0.485729 -4.912661 1.294437
v -0.451682 -5.308084 0.621464
v -0.216253 -2.752578 0.004453
v -0.408731 -3.145401 -0.670888
v 0.092951 -2.765696 0.006333
v -0.066703 -3.201061 -0.668907
v 0.092951 -2.765696 0.006333
v -0.408731 -3.145401 -0.670888
v -0.214036 -2.454976 -0.824862
v -0.216253 -2.752578 0.004453
v 0.116517 -2.504463 -0.823570
v 0.092951 -2.765696 0.006333
v 0.116517 -2.504463 -0.823570
v -0.216253 -2.752578 0.004453
v -0.408731 -3.145401 -0.670888
v -0.214036 -2.454976 -0.824862
v -0.066703 -3.201061 -0.668907
v 0.116517 -2.504463 -0.823570
v -0.066703 -3.201061 -0.668907
v -0.214036 -2.454976 -0.824862
v -0.639541 -3.836012 1.279864
v -0.653247 -4.281937 0.605745
v -0.296127 -3.889296 1.321857
v -0.309577 -4.328965 0.647865
v -0.296127 -3.889296 1.321857
v -0.653247 -4.281937 0.605745
v -0.484342 -3.622241 0.449594
v -0.639541 -3.836012 1.279864
v -0.146782 -3.661782 0.489111
v -0.296127 -3.889296 1.321857
v -0.146782 -3.661782 0.489111
v -0.639541 -3.836012 1.279864
v -0.653247 -4.281937 0.605745
v -0.484342 -3.622241 0.449594
v -0.309577 -4.328965 0.647865
v -0.146782 -3.661782 0.489111
v -0.309577 -4.328965 0.647865
v -0.484342 -3.622241 0.449594
v -0.508999 -3.763150 -0.024653
v -0.656251 -4.172721 -0.695602
v -0.164727 -3.816930 -0.021068
v -0.311707 -4.219580 -0.694077
v -0.164727 -3.816930 -0.021068
v -0.656251 -4.172721 -0.695602
v -0.516851 -3.492087 -0.847008
v -0.508999 -3.763150 -0.024653
v -0.178859 -3.529575 -0.845774
v -0.164727 -3.816930 -0.021068
v -0.178859 -3.529575 -0.845774
v -0.508999 -3.763150 -0.024653
v -0.656251 -4.172721 -0.695602
v -0.516851 -3.492087 -0.847008
v -0.311707 -4.219580 -0.694077
v -0.178859 -3.529575 -0.845774
v -0.311707 -4.219580 -0.694077
v -0.516851 -3.492087 -0.847008
v -0.381929 -2.810067 1.312768
v -0.410222 -3.248097 0.635461
v -0.049814 -2.855202 1.354924
v -0.068925 -3.303003 0.678085
v -0.049814 -2.855202 1.354924
v -0.410222 -3.248097 0.635461
v -0.173323 -2.517781 0.471996
v -0.381929 -2.810067 1.312768
v 0.156618 -2.566241 0.513945
v -0.049814 -2.855202 1.354924
v 0.156618 -2.566241 0.513945
v -0.381929 -2.810067 1.312768
v -0.410222 -3.248097 0.635461
v -0.173323 -2.517781 0.471996
v -0.068925 -3.303003 0.678085
v 0.156618 -2.566241 0.513945
v -0.068925 -3.303003 0.678085
v -0.173323 -2.517781 0.471996
v -0.708160 -4.804903 -0.044887
v -0.816259 -5.203148 -0.714275
v -0.363461 -4.846526 -0.044095
v -0.471209 -5.236407 -0.713314
v -0.363461 -4.846526 -0.044095
v -0.816259 -5.203148 -0.714275
v -0.735666 -4.528511 -0.863324
v -0.708160 -4.804903 -0.044887
v -0.390969 -4.570135 -0.862532
v -0.363461 -4.846526 -0.044095
v -0.390969 -4.570135 -0.862532
v -0.708160 -4.804903 -0.044887
v -0.816259 -5.203148 -0.714275
v -0.735666 -4.528511 -0.863324
v -0.471209 -5.236407 -0.713314
v -0.390969 -4.570135 -0.862532
v -0.471209 -5.236407 -0.713314
v -0.735666 -4.528511 -0.863324
v -0.829793 -4.871693 1.252602
v -0.796070 -5.275462 0.579462
v -0.485729 -4.912661 1.294437
v -0.451682 -5.308084 0.621464
v -0.485729 -4.912661 1.294437
v -0.796070 -5.275462 0.579462
v -0.678696 -4.557369 0.423398
v -0.829793 -4.871693 1.252602
v -0.334630 -4.598338 0.465234
v -0.485729 -4.912661 1.294437
v -0.334630 -4.598338 0.465234
v -0.829793 -4.871693 1.252602
v -0.796070 -5.275462 0.579462
v -0.678696 -4.557369 0.423398
v -0.451682 -5.308084 0.621464
v -0.334630 -4.598338 0.465234
v -0.451682 -5.308084 0.621464
v -0.678696 -4.557369 0.423398
v -3.763441 -2.019186 -2.535852
v -3.683167 1.076943 -2.470188
v -0.371461 -2.298910 -1.850834
v -0.294393 -2.435096 1.531779
v -0.153474 0.002127 2.370901
v -0.629085 -2.348465 2.333290
v -3.681746 -8.454089 -1.887468
v -3.682470 -5.591353 -2.391388
v -1.392165 -7.167161 -1.623978
v -0.030833 2.027255 0.620212
v -3.661183 1.186462 3.152494
v 0.117345 -0.022261 -1.884892
v -0.768662 -5.442459 0.169662
v -1.475171 -7.160386 1.500195
v -3.627074 2.892749 0.336538
v -1.101714 -5.438731 -1.797737
v -3.686939 -5.466189 2.658225
v -1.223067 -5.480785 1.812548
v -0.931034 -5.513731 1.445975
v -0.884656 -5.445528 -1.123325
v -0.194775 -2.283844 -1.069087
v -0.099701 -2.331015 0.240600
v -3.747405 -2.175513 3.152590
v -3.722473 -8.329636 1.278495
v -3.711994 -8.361756 0.518983
v -0.505233 -3.323583 -1.092503
v -0.371461 -2.298910 -1.850834
v -0.194775 -2.283844 -1.069087
v -0.793451 -4.445376 1.470130
v -1.223067 -5.480785 1.812548
v -0.931034 -5.513731 1.445975
v -3.682470 -5.591353 -2.391388
v -3.763441 -2.019186 -2.535852
v -1.101714 -5.438731 -1.797737
v -3.686939 -5.466189 2.658225
v -0.629085 -2.348465 2.333290
v -3.747405 -2.175513 3.152590
v -0.731999 -4.362735 -1.110106
v -0.584749 -3.448197 1.497986
v -0.294393 -2.435096 1.531779
v -0.884656 -5.445528 -1.123325
vt 0.000000 0.000000
vt 0.000000 0.000000
vt 0.000000 0.000000
vt 0.000000 0.000000
vt 0.000000 0.000000
vt 0.000000 0.000000
vt 0.000000 0.000000
vt 0.000000 0.000000
vt 0.000000 0.000000
vt 0.000000 0.000000
vt 0.000000 0.000000
vt 0.000000 0.000000
vt 0.000000 0.000000
vt 0.000000 0.000000
vt 0.000000 0.000000
vt 0.000000 0.000000
vt 0.000000 0.000000
vt 0.000000 0.000000
vt 0.000000 0.000000
vt 0.000000 0.000000
vt 0.000000 0.000000
vt 0.000000 0.000000
vt 0.000000 0.000000
vt 0.000000 0.000000
vt 0.000000 0.000000
vt 0.000000 0.000000
vt 0.000000 0.000000
vt 0.000000 0.000000
vt 0.000000 0.000000
vt 0.000000 0.000000
vt 0.000000 0.000000
vt 0.000000 0.000000
vt 0.000000 0.000000
vt 0.000000 0.000000
vt 0.000000 0.000000
vt 0.000000 0.000000
vt 0.000000 0.000000
vt 0.000000 0.000000
vt 0.000000 0.000000
vt 0.000000 0.000000
vt 0.000000 0.000000
vt 0.000000 0.000000
vt 0.000000 0.000000
vt 0.000000 0.000000
vt 0.000000 0.000000
vt 0.000000 0.000000
vt 0.000000 0.000000
vt 0.000000 0.000000
vt 0.000000 0.000000
vt 0.000000 0.000000
vt 0.000000 0.000000
vt 0.000000 0.000000
vt 0.000000 0.000000
vt 0.000000 0.000000
vt 0.000000 0.000000
vt 0.000000 0.000000
vt 0.000000 0.000000
vt 0.000000 0.000000
vt 0.000000 0.000000
vt 0.000000 0.000000
vt 0.000000 0.000000
vt 0.000000 0.000000
vt 0.000000 0.000000
vt 0.000000 0.000000
vt 0.000000 0.000000
vt 0.000000 0.000000
vt 0.000000 0.000000
vt 0.000000 0.000000
vt 0.000000 0.000000
vt 0.000000 0.000000
vt 0.000000 0.000000
vt 0.000000 0.000000
vt 0.000000 0.000000
vt 0.000000 0.000000
vt 0.000000 0.000000
vt 0.000000 0.000000
vt 0.000000 0.000000
vt 0.000000 0.000000
vt 0.000000 0.000000
vt 0.000000 0.000000
vt 0.000000 0.000000
vt 0.000000 0.000000
vt 0.000000 0.000000
vt 0.000000 0.000000
vt 0.000000 0.000000
vt 0.000000 0.000000
vt 0.000000 0.000000
vt 0.000000 0.000000
vt 0.000000 0.000000
vt 0.000000 0.000000
vt 0.000000 0.000000
vt 0.000000 0.000000
vt 0.000000 0.000000
vt 0.000000 0.000000
vt 0.000000 0.000000
vt 0.000000 0.000000
vt 0.000000 0.000000
vt 0.000000 0.000000
vt 0.000000 0.000000
vt 0.000000 0.000000
vt 0.000000 0.000000
vt 0.000000 0.000000
vt 0.000000 0.000000
vt 0.000000 0.000000
vt 0.000000 0.000000
vt 0.000000 0.000000
vt 0.000000 0.000000
vt 0.000000 0.000000
vt 0.000000 0.000000
vt 0.000000 0.000000
vt 0.000000 0.000000
vt 0.000000 0.000000
vt 0.000000 0.000000
vt 0.000000 0.000000
vt 0.000000 0.000000
vt 0.000000 0.000000
vt 0.000000 0.000000
vt 0.000000 0.000000
vt 0.000000 0.000000
vt 0.000000 0.000000
vt 0.000000 0.000000
vt 0.000000 0.000000
vt 0.000000 0.000000
vt 0.000000 0.000000
vt 0.000000 0.000000
vt 0.000000 0.000000
vt 0.000000 0.000000
vt 0.000000 0.000000
vt 0.000000 0.000000
vt 0.000000 0.000000
vt 0.000000 0.000000
vt 0.000000 0.000000
vt 0.000000 0.000000
vt 0.000000 0.000000
vt 0.000000 0.000000
vt 0.000000 0.000000
vt 0.000000 0.000000
vt 0.000000 0.000000
vt 0.000000 0.000000
vt 0.000000 0.000000
vt 0.000000 0.000000
vt 0.000000 0.000000
vt 0.000000 0.000000
vt 0.000000 0.000000
vt 0.000000 0.000000
vt 0.000000 0.000000
vt 0.000000 0.000000
vt 0.000000 0.000000
vt 0.000000 0.000000
vt 0.000000 0.000000
vt 0.000000 0.000000
vt 0.000000 0.000000
vt 0.000000 0.000000
vt 0.000000 0.000000
vt 0.000000 0.000000
vt 0.000000 0.000000
vt 0.000000 0.000000
vt 0.000000 0.000000
vt 0.000000 0.000000
vt 0.000000 0.000000
vt 0.000000 0.000000
vt 0.000000 0.000000
vt 0.000000 0.000000
vt 0.000000 0.000000
vt 0.000000 0.000000
vt 0.000000 0.000000
vt 0.000000 0.000000
vt 0.000000 0.000000
vt 0.000000 0.000000
vt 0.000000 0.000000
vt 0.000000 0.000000
vt 0.000000 0.000000
vt 0.000000 0.000000
vt 0.000000 0.000000
vt 0.000000 0.000000
vt 0.000000 0.000000
vt 0.000000 0.000000
vt 0.000000 0.000000
vt 0.000000 0.000000
vt 0.000000 0.000000
vt 0.000000 0.000000
vt 0.000000 0.000000
vt 0.000000 0.000000
vt 0.000000 0.000000
vt 0.000000 0.000000
vt 0.000000 0.000000
vt 0.000000 0.000000
vt 0.000000 0.000000
vt 0.000000 0.000000
vt 0.000000 0.000000
vt 0.000000 0.000000
vt 0.000000 0.000000
vt 0.000000 0.000000
vt 0.000000 0.000000
vt 0.000000 0.000000
vt 0.000000 0.000000
vt 0.000000 0.000000
vt 0.000000 0.000000
vt 0.000000 0.000000
vt 0.000000 0.000000
vt 0.000000 0.000000
vt 0.000000 0.000000
vt 0.000000 0.000000
vt 0.000000 0.000000
vt 0.000000 0.000000
vt 0.000000 0.000000
vt 0.000000 0.000000
vt 0.000000 0.000000
vt 0.000000 0.000000
vt 0.000000 0.000000
vt 0.000000 0.000000
vt 0.000000 0.000000
vt 0.000000 0.000000
vt 0.000000 0.000000
vt 0.000000 0.000000
vt 0.000000 0.000000
vt 0.000000 0.000000
vt 0.000000 0.000000
vt 0.000000 0.000000
vt 0.000000 0.000000
vt 0.000000 0.000000
vt 0.000000 0.000000
vt 0.000000 0.000000
vt 0.000000 0.000000
vt 0.000000 0.000000
vn 0.9666 -0.2230 0.1262
vn 0.9713 -0.2039 0.1224
vn 0.9835 -0.1799 0.0168
vn 0.9701 -0.2087 0.1242
vn 0.9779 -0.1738 0.1165
vn 0.9658 -0.2587 0.0189
vn 0.9628 -0.2394 0.1256
vn 0.9741 -0.2070 -0.0914
vn 0.9747 -0.2074 -0.0837
vn 0.9808 -0.1767 -0.0827
vn 0.9712 -0.2177 -0.0973
vn 0.9637 -0.2486 -0.0971
vn 0.9812 -0.1452 0.1272
vn 0.9844 -0.1289 0.1194
vn 0.9913 -0.1307 0.0148
vn 0.9854 -0.1321 0.1072
vn 0.9859 -0.1224 0.1137
vn 0.9492 -0.2904 0.1211
vn 0.9529 -0.2809 0.1143
vn 0.9687 -0.2472 0.0234
vn 0.9512 -0.2843 0.1195
vn 0.9609 -0.2540 0.1102
vn 0.9860 -0.1448 -0.0829
vn 0.9876 -0.1312 -0.0865
vn 0.9873 -0.1345 -0.0846
vn 0.9853 -0.1379 -0.1008
vn 0.9504 -0.2969 -0.0928
vn 0.9630 -0.2662 -0.0418
vn 0.9600 -0.2592 -0.1059
vn 0.9635 -0.2500 -0.0958
vn 0.9624 -0.2656 -0.0563
vn 0.9709 -0.2091 0.1170
vn 0.9743 -0.2071 -0.0889
vn 0.9547 -0.2599 0.1450
vn 0.9874 -0.1367 -0.0793
vn 0.9827 -0.1338 0.1283
vn 0.3791 -0.5674 0.7309
vn 0.3910 -0.5756 0.7182
vn 0.3830 -0.5700 0.7269
vn 0.3255 -0.5184 0.7908
vn 0.3266 -0.5194 0.7897
vn 0.3197 -0.5138 0.7962
vn 0.0949 0.9823 -0.1617
vn 0.0736 0.9845 -0.1591
vn 0.0982 0.9819 -0.1620
vn -0.0289 0.9896 -0.1408
vn -0.0298 0.9896 -0.1406
vn -0.0253 0.9896 -0.1413
vn -0.4530 -0.6012 -0.6583
vn -0.4486 -0.6053 -0.6576
vn -0.4551 -0.5992 -0.6587
vn -0.4506 -0.6026 -0.6586
vn -0.4479 -0.6052 -0.6582
vn -0.4494 -0.6037 -0.6584
vn 0.2546 -0.5108 0.8212
vn 0.2710 -0.5237 0.8077
vn 0.2604 -0.5153 0.8165
vn 0.2807 -0.5294 0.8006
vn 0.2837 -0.5317 0.7980
vn 0.2752 -0.5250 0.8054
vn 0.0039 0.9803 -0.1975
vn -0.0134 0.9809 -0.1942
vn 0.0102 0.9800 -0.1985
vn 0.0297 0.9803 -0.1954
vn 0.0282 0.9804 -0.1951
vn 0.0345 0.9800 -0.1962
vn -0.3419 -0.6363 -0.6916
vn -0.3374 -0.6401 -0.6902
vn -0.3436 -0.6347 -0.6921
vn -0.3406 -0.6378 -0.6908
vn -0.3371 -0.6408 -0.6898
vn -0.3384 -0.6397 -0.6902
vn 0.3044 -0.5296 0.7917
vn 0.3173 -0.5393 0.7801
vn 0.3081 -0.5323 0.7885
vn 0.3320 -0.5522 0.7648
vn 0.3332 -0.5530 0.7636
vn 0.3260 -0.5477 0.7705
vn 0.0503 0.9847 -0.1669
vn 0.0297 0.9860 -0.1640
vn 0.0538 0.9844 -0.1673
vn 0.0733 0.9825 -0.1714
vn 0.0738 0.9824 -0.1714
vn 0.0786 0.9819 -0.1721
vn -0.4488 -0.6034 -0.6591
vn -0.4443 -0.6076 -0.6584
vn -0.4512 -0.6012 -0.6596
vn -0.4439 -0.6038 -0.6621
vn -0.4410 -0.6065 -0.6616
vn -0.4428 -0.6048 -0.6619
vn 0.2646 -0.5185 0.8131
vn 0.2809 -0.5311 0.7994
vn 0.2705 -0.5229 0.8083
vn 0.2641 -0.5202 0.8122
vn 0.2671 -0.5226 0.8097
vn 0.2588 -0.5159 0.8166
vn 0.0603 0.9898 -0.1288
vn 0.0428 0.9910 -0.1272
vn 0.0659 0.9894 -0.1292
vn 0.0369 0.9911 -0.1280
vn 0.0360 0.9911 -0.1279
vn 0.0419 0.9908 -0.1285
vn -0.3465 -0.6304 -0.6946
vn -0.3424 -0.6340 -0.6934
vn -0.3478 -0.6293 -0.6950
vn -0.3399 -0.6313 -0.6971
vn -0.3366 -0.6342 -0.6961
vn -0.3374 -0.6335 -0.6963
vn 0.3267 -0.5513 0.7677
vn 0.3400 -0.5608 0.7549
vn 0.3308 -0.5542 0.7638
vn 0.3546 -0.5723 0.7394
vn 0.3562 -0.5734 0.7377
vn 0.3485 -0.5680 0.7456
vn 0.0610 0.9839 -0.1679
vn 0.0402 0.9855 -0.1651
vn 0.0644 0.9836 -0.1683
vn 0.0421 0.9853 -0.1654
vn 0.0425 0.9853 -0.1654
vn 0.0470 0.9850 -0.1661
vn -0.4425 -0.6050 -0.6619
vn -0.4381 -0.6091 -0.6611
vn -0.4453 -0.6024 -0.6624
vn -0.4459 -0.6075 -0.6574
vn -0.4431 -0.6101 -0.6569
vn -0.4451 -0.6082 -0.6573
vn 0.2669 -0.5595 0.7847
vn 0.2842 -0.5716 0.7697
vn 0.2734 -0.5639 0.7792
vn 0.2977 -0.5784 0.7595
vn 0.3012 -0.5808 0.7562
vn 0.2921 -0.5745 0.7646
vn 0.0461 0.9938 -0.1007
vn 0.0279 0.9947 -0.0994
vn 0.0510 0.9936 -0.1009
vn 0.0319 0.9945 -0.0998
vn 0.0376 0.9943 -0.1002
vn -0.3377 -0.6174 -0.7105
vn -0.3336 -0.6211 -0.7092
vn -0.3397 -0.6156 -0.7111
vn -0.3414 -0.6201 -0.7064
vn -0.3380 -0.6231 -0.7053
vn -0.3394 -0.6218 -0.7058
vn 0.9592 -0.2353 -0.1567
vn 0.7169 -0.1993 -0.6680
vn 0.9387 -0.2756 -0.2069
vn 0.8426 -0.1820 0.5068
vn 0.5918 -0.1895 0.7835
vn 0.7721 -0.1136 0.6253
vn 0.2260 -0.0342 -0.9735
vn 0.2075 -0.0494 -0.9770
vn 0.6400 -0.1167 -0.7594
vn 0.2806 -0.1769 0.9434
vn 0.6315 -0.2319 0.7399
vn 0.2444 -0.1397 0.9596
vn 0.9578 -0.1927 -0.2134
vn 0.8986 -0.2358 0.3701
vn 0.8792 -0.2652 0.3958
vn 0.9435 -0.1293 -0.3050
vn 0.2349 -0.0702 0.9695
vn 0.3290 0.4951 0.8041
vn 0.2342 -0.0532 0.9707
vn 0.1310 -0.8035 0.5808
vn 0.2633 -0.2775 0.9239
vn 0.1358 -0.8743 0.4660
vn 0.2531 -0.7574 -0.6019
vn 0.2553 -0.7447 -0.6166
vn 0.2125 -0.9763 0.0412
vn 0.3275 0.4111 0.8507
vn 0.2757 0.9612 -0.0060
vn 0.1878 -0.0077 -0.9822
vn 0.2646 0.4995 -0.8249
vn 0.2507 0.4235 -0.8705
vn 0.1965 -0.1043 -0.9749
vn 0.1990 -0.1009 -0.9748
vn 0.2585 0.9647 -0.0501
vn 0.2854 -0.2890 0.9138
vn 0.1919 0.0003 -0.9814
vn -0.9998 -0.0180 0.0005
vn -0.9997 -0.0245 -0.0034
vn -0.9995 -0.0301 -0.0041
vn -1.0000 0.0076 0.0031
vn -0.9997 0.0258 0.0035
vn -1.0000 0.0057 0.0019
vn -0.9992 -0.0392 -0.0111
vn 0.1992 0.0156 -0.9798
vn 0.2543 0.4742 -0.8429
vn 0.6498 -0.1314 -0.7486
vn 0.9598 -0.1394 0.2438
vn 0.7255 0.1470 0.6723
vn 0.6178 -0.1213 0.7769
vn 0.4681 -0.7312 -0.4963
vn 0.2158 -0.1558 -0.9639
vn 0.6674 -0.5316 -0.5215
vn 0.7014 0.7091 0.0715
vn 0.2657 0.4470 0.8542
vn 0.7395 0.2171 -0.6372
vn 0.9464 -0.3224 0.0192
vn 0.6251 -0.5906 0.5103
vn 0.2367 0.9708 -0.0381
vn 0.6848 -0.1859 -0.7046
vn 0.2135 -0.3459 0.9137
vn 0.5500 -0.2318 0.8024
vn 0.8921 -0.2832 0.3520
vn 0.9572 -0.2318 -0.1731
vn 0.9745 -0.1818 -0.1312
vn 0.9949 -0.0877 0.0504
vn 0.2538 -0.0065 0.9672
vn 0.3936 -0.8138 0.4277
vn 0.4881 -0.8717 0.0425
usemtl 165_194_195
s 1
f 29/1/1 30/2/2 31/3/3
f 30/2/2 32/4/4 33/5/5
f 32/4/4 34/6/6 35/7/7
f 36/8/8 37/9/9 38/10/10
f 37/9/9 39/11/11 31/3/3
f 40/12/12 34/6/6 36/8/8
f 39/11/11 36/8/8 34/6/6
f 41/13/13 42/14/14 43/15/15
f 42/14/14 44/16/16 45/17/17
f 31/3/3 33/5/5 41/13/13
f 44/16/16 41/13/13 33/5/5
f 46/18/18 47/19/19 35/7/7
f 48/20/20 49/21/21 50/22/22
f 47/19/19 50/22/22 49/21/21
f 50/22/22 46/18/18 34/6/6
f 51/23/23 52/24/24 53/25/25
f 52/24/24 54/26/26 43/15/15
f 38/10/10 31/3/3 51/23/23
f 54/26/26 51/23/23 31/3/3
f 55/27/27 56/28/28 34/6/6
f 57/29/29 48/20/20 58/30/30
f 56/28/28 58/30/30 48/20/20
f 58/30/30 55/27/27 40/12/12
f 59/31/31 60/32/31 61/33/31
f 62/34/32 63/35/32 64/36/32
f 65/37/33 66/38/33 67/39/33
f 68/40/34 69/41/34 70/42/34
f 71/43/35 72/44/35 73/45/35
f 53/25/25 38/10/10 51/23/23
f 52/24/24 43/15/15 53/25/25
f 43/15/15 31/3/3 41/13/13
f 42/14/14 45/17/17 43/15/15
f 74/46/36 75/47/36 76/48/36
f 31/3/3 34/6/6 29/1/1
f 30/2/2 33/5/5 31/3/3
f 46/18/18 35/7/7 34/6/6
f 34/6/6 48/20/20 50/22/22
f 40/12/12 57/29/29 58/30/30
f 55/27/27 34/6/6 40/12/12
f 38/10/10 40/12/12 36/8/8
f 37/9/9 31/3/3 38/10/10
f 32/4/4 35/7/7 33/5/5
f 32/4/4 29/1/1 34/6/6
f 47/19/19 49/21/21 35/7/7
f 54/26/26 31/3/3 43/15/15
f 56/28/28 48/20/20 34/6/6
f 77/49/37 78/50/38 79/51/39
f 80/52/40 81/53/41 82/54/42
f 83/55/43 84/56/44 85/57/45
f 86/58/46 87/59/47 88/60/48
f 89/61/49 90/62/50 91/63/51
f 92/64/52 93/65/53 94/66/54
f 95/67/55 96/68/56 97/69/57
f 98/70/58 99/71/59 100/72/60
f 101/73/61 102/74/62 103/75/63
f 104/76/64 105/77/65 106/78/66
f 107/79/67 108/80/68 109/81/69
f 110/82/70 111/83/71 112/84/72
f 113/85/73 114/86/74 115/87/75
f 116/88/76 117/89/77 118/90/78
f 119/91/79 120/92/80 121/93/81
f 122/94/82 123/95/83 124/96/84
f 125/97/85 126/98/86 127/99/87
f 128/100/88 129/101/89 130/102/90
f 131/103/91 132/104/92 133/105/93
f 134/106/94 135/107/95 136/108/96
f 137/109/97 138/110/98 139/111/99
f 140/112/100 141/113/101 142/114/102
f 143/115/103 144/116/104 145/117/105
f 146/118/106 147/119/107 148/120/108
f 149/121/109 150/122/110 151/123/111
f 152/124/112 153/125/113 154/126/114
f 155/127/115 156/128/116 157/129/117
f 158/130/118 159/131/119 160/132/120
f 161/133/121 162/134/122 163/135/123
f 164/136/124 165/137/125 166/138/126
f 167/139/127 168/140/128 169/141/129
f 170/142/130 171/143/131 172/144/132
f 173/145/133 174/146/134 175/147/135
f 176/148/136 177/149/136 178/150/137
f 179/151/138 180/152/139 181/153/140
f 182/154/141 183/155/142 184/156/143
f 39/11/11 34/6/6 31/3/3
f 44/16/16 33/5/5 45/17/17
usemtl 255_211_28
f 210/157/144 211/158/145 212/159/146
f 213/160/147 214/161/148 215/162/149
f 216/163/150 217/164/151 218/165/152
f 219/166/153 220/167/154 221/168/155
f 217/164/151 211/158/145 218/165/152
f 219/166/153 214/161/148 220/167/154
f 222/169/156 218/165/152 210/157/144
f 211/158/145 210/157/144 218/165/152
f 223/170/157 224/171/158 220/167/154
f 220/167/154 214/161/148 223/170/157
f 213/160/147 223/170/157 214/161/148
f 222/169/156 225/172/159 218/165/152
usemtl 172_172_172
f 10/173/160 11/174/161 12/175/162
f 13/176/163 14/177/164 15/178/165
f 16/179/166 17/180/167 15/178/165
f 18/181/168 13/176/163 15/178/165
f 19/182/169 20/183/170 11/174/161
f 14/177/164 10/173/160 12/175/162
f 21/184/171 22/185/172 23/186/173
f 17/180/167 24/187/174 25/188/175
f 22/185/172 26/189/176 20/183/170
f 25/188/175 24/187/174 21/184/171
f 10/173/160 19/182/169 11/174/161
f 13/176/163 27/190/177 14/177/164
f 17/180/167 18/181/168 15/178/165
f 20/183/170 26/189/176 11/174/161
f 14/177/164 27/190/177 10/173/160
f 21/184/171 28/191/178 22/185/172
f 17/180/167 16/179/166 24/187/174
f 20/183/170 23/186/173 22/185/172
f 24/187/174 28/191/178 21/184/171
usemtl 116_116_116
f 1/192/179 2/193/180 3/194/181
f 4/195/182 5/196/183 6/197/184
f 4/195/182 7/198/183 5/196/183
f 2/193/180 1/192/179 6/197/184
f 8/199/183 5/196/183 7/198/183
f 2/193/180 9/200/185 3/194/181
f 1/192/179 4/195/182 6/197/184
usemtl 220_0_28
f 185/201/186 186/202/187 187/203/188
f 188/204/189 189/205/190 190/206/191
f 191/207/192 192/208/193 193/209/194
f 194/210/195 195/211/196 189/205/190
f 186/202/187 194/210/195 196/212/197
f 189/205/190 196/212/197 194/210/195
f 193/209/194 197/213/198 198/214/199
f 186/202/187 196/212/197 187/203/188
f 186/202/187 199/215/200 194/210/195
f 192/208/193 200/216/201 193/209/194
f 201/217/202 198/214/199 202/218/203
f 203/219/204 202/218/203 198/214/199
f 193/209/194 200/216/201 204/220/205
f 205/221/206 187/203/188 196/212/197
f 188/204/189 206/222/207 189/205/190
f 207/223/208 190/206/191 195/211/196
f 208/224/209 198/214/199 201/217/202
f 191/207/192 193/209/194 209/225/210
f 190/206/191 189/205/190 195/211/196
f 193/209/194 198/214/199 208/224/209
f 195/211/196 194/210/195 199/215/200
f 208/224/209 209/225/210 193/209/194
f 206/222/207 196/212/197 189/205/190
f 206/222/207 205/221/206 196/212/197
f 197/213/198 203/219/204 198/214/199
f 193/209/194 204/220/205 197/213/198
