# Blender v2.79 (sub 0) OBJ File: ''
# www.blender.org
mtllib Forearm.mtl
v -0.040395 0.039643 0.663325
v 0.659283 0.040393 -0.025206
v 0.657194 -3.633910 -0.039737
v -0.735526 0.041279 -0.029786
v -0.042490 -3.634738 0.650985
v -0.035856 0.042028 -0.718317
v -0.737615 -3.633021 -0.044321
v -0.037952 -3.632199 -0.730660
v -1.828822 -3.361014 -0.119931
v -0.129895 -6.235588 1.621717
v 1.696916 -6.235588 -0.183716
v 0.185550 -6.235588 -1.760049
v -1.765794 -6.235588 -0.095656
v -0.034340 -3.359090 -1.903011
v 1.812742 -3.363902 -0.064026
v -0.042755 -3.366352 1.711756
vt 0.000000 0.000000
vt 0.000000 0.000000
vt 0.000000 0.000000
vt 0.000000 0.000000
vt 0.000000 0.000000
vt 0.000000 0.000000
vt 0.000000 0.000000
vt 0.000000 0.000000
vt 0.000000 0.000000
vt 0.000000 0.000000
vt 0.000000 0.000000
vt 0.000000 0.000000
vt 0.000000 0.000000
vt 0.000000 0.000000
vt 0.000000 0.000000
vt 0.000000 0.000000
vn -0.0813 0.9966 -0.0145
vn 0.0834 0.9908 0.1069
vn 0.0385 0.9912 -0.1264
vn 0.0000 -1.0000 -0.0000
vn -0.0150 0.9908 0.1349
vn 0.0706 0.9965 -0.0439
vn -0.0614 0.9913 -0.1161
vn 0.9994 -0.0349 -0.0016
vn -0.1107 -0.0269 0.9935
vn -0.0266 -0.0346 0.9990
vn -0.9833 0.0663 -0.1696
vn -0.9984 -0.0479 -0.0304
vn 0.0736 0.0412 -0.9964
vn 0.0796 -0.0513 -0.9955
vn 0.9819 0.0644 0.1781
vn 1.0000 -0.0008 0.0042
vn -0.0032 -0.0036 1.0000
vn 1.0000 -0.0003 0.0009
vn -1.0000 0.0008 -0.0024
vn -0.0031 -0.0036 1.0000
vn 0.0034 0.0036 -1.0000
vn -1.0000 0.0003 -0.0057
usemtl 255_255_255
s off
f 14/1/1 9/2/2 15/3/3
f 11/4/4 10/5/4 12/6/4
f 9/2/5 16/7/6 15/3/7
f 10/5/4 13/8/4 12/6/4
s 1
f 11/4/8 16/7/9 10/5/10
f 9/2/11 13/8/12 10/5/10
f 14/1/13 12/6/14 13/8/12
f 15/3/15 11/4/8 12/6/14
f 15/3/15 16/7/9 11/4/8
f 16/7/9 9/2/11 10/5/10
f 9/2/11 14/1/13 13/8/12
f 14/1/13 15/3/15 12/6/14
usemtl 244_0_72
f 2/9/16 1/10/17 3/11/18
f 1/10/17 4/12/19 5/13/20
f 4/12/19 6/14/21 7/15/22
f 6/14/21 2/9/16 8/16/21
f 1/10/17 5/13/20 3/11/18
f 4/12/19 7/15/22 5/13/20
f 6/14/21 8/16/21 7/15/22
f 2/9/16 3/11/18 8/16/21
