# Blender v2.79 (sub 0) OBJ File: ''
# www.blender.org
mtllib Pass2New.mtl
v -4980.640625 -1423.567505 -4960.718262
v -4998.330078 -1418.191162 15039.273438
v 15019.350586 -1429.124878 -4943.028809
v -7027.362305 -1403.567505 -178.013412
v 6710.184570 -1398.191040 14357.453125
v 7508.104492 -1409.124878 -13915.560547
v -3304.701904 -1383.567505 6204.390137
v 15842.394531 -1378.191162 426.097443
v -9082.995117 -1389.125000 -12942.707031
v 3278.869385 -1363.567505 6218.080566
v 9247.115234 -1358.191040 -12870.659180
v -15809.871094 -1369.124878 249.833755
v 6869.791016 -1343.567505 1490.462158
v -3903.679688 -1338.191040 -15359.828125
v -9980.500000 -1349.124878 12263.933594
v 5650.732910 -1323.567505 -4181.474121
v -14121.014648 -1318.190918 -7194.441406
v 2637.765625 -1329.125000 15590.273438
v 851.032227 -1303.567505 -6977.911621
v -14934.721680 -1298.190918 5302.557617
v 13131.501953 -1309.125000 8807.842773
v -6253.324707 -1283.567505 -3211.143311
v -188.108398 -1278.190918 15847.007812
v 12804.826172 -1289.125000 -9276.360352
v -6746.387695 -1263.567505 1975.287354
v 10772.021484 -1258.191040 11624.396484
v 2902.720703 -1269.125000 -15543.122070
v -2342.523926 -1243.567505 6627.827148
v 15728.794922 -1238.190918 -1941.154541
v -10911.505859 -1249.125000 -11443.491211
v 6386.739746 -1223.567505 2936.848145
v -499.520508 -1218.191040 -15840.250977
v -12390.359375 -1229.124878 9823.108398
v -1450.411621 -1203.567505 -6878.359375
v -12418.672852 -1198.190918 9845.793945
v 15273.742188 -1209.124878 4089.902100
v 4672.382812 -1183.567505 -5252.081055
v -15296.872070 -1178.190796 -4143.523438
v 5780.940430 -1189.125000 14717.174805
v -3847.634766 -1163.567505 -5883.130371
v -7999.158691 -1158.190796 13681.248047
v 15716.744141 -1169.125000 -1731.606689
v 2124.390625 -1143.567505 -6700.931152
v -15656.853516 -1138.190796 2454.800537
v 11280.123047 -1149.125000 11080.312500
v 6237.655273 -1123.567505 -3241.476807
v -12814.908203 -1118.190918 -9324.226562
v 154.905273 -1129.124878 15811.087891
v 7016.511230 -1103.567505 429.051819
v -6192.773438 -1098.190918 -14588.099609
v -8000.640137 -1109.124878 13638.336914
v -5780.842285 -1083.567383 -3999.671875
v -2254.344238 -1078.190796 15686.970703
v 13905.798828 -1089.124756 -7526.168945
v -6971.081543 -1063.567383 905.281311
v 8839.220703 -1058.190796 13154.135742
v 5277.773438 -1069.124634 -14905.018555
v -74.868164 -1043.567383 -7029.218750
v -14106.806641 -1038.190796 7222.267578
v 14176.615234 -1049.124634 7002.719727
vt 7.529412 -4.843137
vt 7.529412 5.196079
vt -2.509804 -4.835295
vt 7.529412 -4.843137
vt 7.529412 5.196079
vt -2.509804 -4.835295
vt 7.529412 -4.843137
vt 7.529412 5.196079
vt -2.509804 -4.835295
vt 7.529412 -4.843137
vt 7.529412 5.196079
vt -2.509804 -4.835295
vt 7.529412 -4.843137
vt 7.529412 5.196079
vt -2.509804 -4.835295
vt 7.529412 -4.843137
vt 7.529412 5.196079
vt -2.509804 -4.835295
vt 7.529412 -4.843137
vt 7.529412 5.196079
vt -2.509804 -4.835295
vt 7.529412 -4.843137
vt 7.529412 5.196079
vt -2.509804 -4.835295
vt 7.529412 -4.843137
vt 7.529412 5.196079
vt -2.509804 -4.835295
vt 7.529412 -4.843137
vt 7.529412 5.196079
vt -2.509804 -4.835295
vt 7.529412 -4.843137
vt 7.529412 5.196079
vt -2.509804 -4.835295
vt 7.529412 -4.843137
vt 7.529412 5.196079
vt -2.509804 -4.835295
vt 7.529412 -4.843137
vt 7.529412 5.196079
vt -2.509804 -4.835295
vt 7.529412 -4.843137
vt 7.529412 5.196079
vt -2.509804 -4.835295
vt 7.529412 -4.843137
vt 7.529412 5.196079
vt -2.509804 -4.835295
vt 7.529412 -4.843137
vt 7.529412 5.196079
vt -2.509804 -4.835295
vt 7.529412 -4.843137
vt 7.529412 5.196079
vt -2.509804 -4.835295
vt 7.529412 -4.843137
vt 7.529412 5.196079
vt -2.509804 -4.835295
vt 7.529412 -4.843137
vt 7.529412 5.196079
vt -2.509804 -4.835295
vt 7.529412 -4.843137
vt 7.529412 5.196079
vt -2.509804 -4.835295
vn 0.0003 1.0000 -0.0003
vn 0.0000 1.0000 -0.0004
vn -0.0003 1.0000 -0.0002
vn -0.0003 1.0000 0.0002
vn -0.0001 1.0000 0.0004
vn 0.0002 1.0000 0.0003
vn 0.0004 1.0000 0.0001
vn 0.0002 1.0000 -0.0003
vn -0.0001 1.0000 -0.0004
vn -0.0004 1.0000 -0.0001
vn -0.0002 1.0000 0.0003
vn 0.0004 1.0000 -0.0001
vn 0.0003 1.0000 0.0003
vn 0.0003 1.0000 -0.0002
vn -0.0000 1.0000 0.0004
vn 0.0004 1.0000 0.0000
usemtl Mesh_0097.rip
s 1
f 1/1/1 2/2/1 3/3/1
f 4/4/2 5/5/2 6/6/2
f 7/7/3 8/8/3 9/9/3
f 10/10/4 11/11/4 12/12/4
f 13/13/5 14/14/5 15/15/5
f 16/16/6 17/17/6 18/18/6
f 19/19/7 20/20/7 21/21/7
f 22/22/8 23/23/8 24/24/8
f 25/25/9 26/26/9 27/27/9
f 28/28/10 29/29/10 30/30/10
f 31/31/11 32/32/11 33/33/11
f 34/34/12 35/35/12 36/36/12
f 37/37/13 38/38/13 39/39/13
f 40/40/14 41/41/14 42/42/14
f 43/43/7 44/44/7 45/45/7
f 46/46/6 47/47/6 48/48/6
f 49/49/15 50/50/15 51/51/15
f 52/52/8 53/53/8 54/54/8
f 55/55/2 56/56/2 57/57/2
f 58/58/16 59/59/16 60/60/16
