# Blender v2.79 (sub 0) OBJ File: ''
# www.blender.org
mtllib Transparent.mtl
v 2588.049561 -1093.467285 -2588.050537
v 2137.502441 -1387.284424 -2137.503418
v 0.000000 -1093.466309 -3660.055176
v 0.000000 -1387.283936 -3022.885986
v -2588.049561 -1093.467285 -2588.050537
v -2137.502441 -1387.284424 -2137.503418
v -3660.054199 -1093.468750 -0.000712
v -3022.885010 -1387.285889 -0.000904
v -2588.049561 -1093.470215 2588.048584
v -2137.502441 -1387.287354 2137.501465
v 0.000000 -1093.471191 3660.053223
v 0.000000 -1387.287842 3022.884033
v 2588.049561 -1093.470215 2588.048584
v 2137.502441 -1387.287354 2137.501465
v 3660.054199 -1093.468750 -0.000712
v 3022.885010 -1387.285889 -0.000904
v 2588.049561 -1093.467285 -2588.050537
v 2137.502441 -1387.284424 -2137.503418
vt 5.019608 1.000000
vt 5.019608 0.000000
vt 10.039216 1.000000
vt 10.039216 0.000000
vt 15.058825 1.000000
vt 15.058825 0.000000
vt 20.078432 1.000000
vt 20.078432 0.000000
vt 25.098042 1.000000
vt 25.098042 0.000000
vt 30.117649 1.000000
vt 30.117649 0.000000
vt 35.137257 1.000000
vt 35.137257 0.000000
vt 40.156864 1.000000
vt 40.156864 0.000000
vt 45.176472 1.000000
vt 45.176472 0.000000
vn 0.1709 -0.8947 -0.4126
vn 0.0000 -0.9081 -0.4188
vn -0.2961 -0.9081 -0.2961
vn -0.4188 -0.9081 -0.0000
vn -0.2961 -0.9081 0.2961
vn -0.0000 -0.9081 0.4188
vn 0.2961 -0.9081 0.2961
vn 0.4188 -0.9081 -0.0000
vn 0.4126 -0.8947 -0.1709
usemtl Mesh_0199.rip
s 1
f 1/1/1 2/2/1 3/3/2
f 2/2/1 4/4/2 3/3/2
f 3/3/2 4/4/2 5/5/3
f 4/4/2 6/6/3 5/5/3
f 5/5/3 6/6/3 7/7/4
f 6/6/3 8/8/4 7/7/4
f 7/7/4 8/8/4 9/9/5
f 8/8/4 10/10/5 9/9/5
f 9/9/5 10/10/5 11/11/6
f 10/10/5 12/12/6 11/11/6
f 11/11/6 12/12/6 13/13/7
f 12/12/6 14/14/7 13/13/7
f 13/13/7 14/14/7 15/15/8
f 14/14/7 16/16/8 15/15/8
f 15/15/8 16/16/8 17/17/9
f 16/16/8 18/18/9 17/17/9
