mtllib Materials.mtl
v 0.001654 -1.444396 -0.006584
v 0.713573 -1.032838 0.707191
v 1.009438 -1.030621 -0.005582
v -0.000794 -1.035212 1.002208
v -0.713595 -1.03577 0.706364
v -1.008636 -1.036534 -0.006751
v -0.712773 -1.034319 -0.719524
v 0.00037 -1.033159 -1.014543
v 0.714396 -1.031386 -0.718698
v -0.50316 2.579459 -0.78972
v -0.735857 1.452291 -0.00406
v -0.667849 1.209409 -0.890325
v -0.504069 2.577857 0.784162
v -0.668873 1.207604 0.881786
v 0.98326 0.479521 -0.990462
v 0.622495 1.289423 -0.936849
v -0.022994 1.416562 -1.27744
v -0.001075 -0.429661 -1.400925
v 0.986357 -0.427575 -0.991384
v -0.00295 0.477426 -1.400002
v 1.013906 1.223643 -0.003284
v 1.391675 0.47917 -0.003824
v 1.393558 -0.426696 -0.004745
v -1.004868 0.975812 -0.0047
v -1.39919 0.472837 -0.00544
v -0.989637 0.474496 -0.991605
v -1.396093 -0.434259 -0.006362
v -0.987762 -0.43259 -0.992528
v 0.621418 1.287522 0.929961
v 0.982121 0.477512 0.982341
v -0.024463 1.413969 1.270065
v -0.990774 0.472488 0.981198
v -0.9889 -0.434599 0.980276
v -0.004561 0.474585 1.390738
v -0.002686 -0.432503 1.389815
v 0.985219 -0.429584 0.981419
v -1.865605 2.366339 -0.003578
v -0.976713 0.643744 -0.206105
v -0.976902 0.643353 0.194262
v -1.293899 0.503165 -0.006289
vt 0 0
vn -0.2904 0.9431 -0.1615
vn -0.7675 0.2667 -0.5829
vn -0.8062 0.5916 0.0001
vn -0.7682 0.2655 0.5825
vn -0.2906 0.9428 0.1631
vn 0.7234 0.1675 -0.6697
vn 0.0103 0.2946 -0.9555
vn 0.6777 0.473 -0.563
vn 0.0009 -0.2634 -0.9647
vn -0.0176 0.0866 -0.9961
vn 0.6833 -0.2616 -0.6816
vn 0.0018 -0.7332 -0.6799
vn 0.4827 -0.732 -0.4807
vn 0.79 0.6131 0.0011
vn 0.9751 0.2218 0.0008
vn 0.9653 -0.2612 0.0003
vn 0.6819 -0.7314 -0.0003
vn -0.8512 0.5248 0
vn -0.9531 0.3027 -0.0002
vn -0.7176 0.2096 -0.6642
vn -0.9637 -0.267 -0.0008
vn -0.6811 -0.2656 -0.6822
vn -0.6779 -0.7351 -0.0011
vn -0.4787 -0.7343 -0.4812
vn 0.677 0.4719 0.5648
vn 0.0092 0.2927 0.9561
vn 0.7226 0.166 0.6709
vn -0.7183 0.2082 0.6637
vn -0.6819 -0.267 0.6809
vn -0.4792 -0.7353 0.4792
vn -0.0187 0.0846 0.9962
vn -0.0001 -0.2654 0.9641
vn 0.6825 -0.263 0.6819
vn 0.0011 -0.7346 0.6785
vn 0.4822 -0.733 0.4798
vn -0.4047 0.9145 0.0013
vn 0.4058 0.3081 0.8604
vn 0.4061 0.3106 -0.8594
vn -0.956 -0.2933 -0.0012
vn 0.0026 -1 -0.001
usemtl 252_193_150
f 1/1/40 3/1/17 2/1/35
f 2/1/35 4/1/34 1/1/40
f 1/1/40 4/1/34 5/1/30
f 6/1/23 1/1/40 5/1/30
f 6/1/23 7/1/24 1/1/40
f 8/1/12 1/1/40 7/1/24
f 8/1/12 9/1/13 1/1/40
f 1/1/40 9/1/13 3/1/17
usemtl 21_128_224
f 15/1/6 17/1/7 16/1/8
f 18/1/9 20/1/10 19/1/11
f 8/1/12 18/1/9 9/1/13
f 11/1/3 21/1/14 10/1/1
f 15/1/6 21/1/14 22/1/15
f 19/1/11 15/1/6 23/1/16
f 9/1/13 19/1/11 3/1/17
f 11/1/3 12/1/2 24/1/18
f 25/1/19 24/1/18 26/1/20
f 27/1/21 25/1/19 28/1/22
f 6/1/23 27/1/21 7/1/24
f 26/1/20 12/1/2 20/1/10
f 28/1/22 26/1/20 18/1/9
f 7/1/24 28/1/22 8/1/12
f 17/1/7 12/1/2 10/1/1
f 21/1/14 15/1/6 16/1/8
f 17/1/7 15/1/6 20/1/10
f 21/1/14 16/1/8 10/1/1
f 17/1/7 10/1/1 16/1/8
f 29/1/25 31/1/26 30/1/27
f 13/1/5 21/1/14 11/1/3
f 22/1/15 21/1/14 30/1/27
f 24/1/18 14/1/4 11/1/3
f 14/1/4 24/1/18 32/1/28
f 32/1/28 25/1/19 33/1/29
f 33/1/29 27/1/21 5/1/30
f 31/1/26 14/1/4 34/1/31
f 34/1/31 32/1/28 35/1/32
f 13/1/5 14/1/4 31/1/26
f 29/1/25 30/1/27 21/1/14
f 34/1/31 30/1/27 31/1/26
f 13/1/5 29/1/25 21/1/14
f 29/1/25 13/1/5 31/1/26
f 3/1/17 23/1/16 36/1/33
f 23/1/16 22/1/15 30/1/27
f 30/1/27 34/1/31 35/1/32
f 36/1/33 35/1/32 4/1/34
f 4/1/34 35/1/32 33/1/29
f 19/1/11 20/1/10 15/1/6
f 9/1/13 18/1/9 19/1/11
f 23/1/16 15/1/6 22/1/15
f 3/1/17 19/1/11 23/1/16
f 26/1/20 24/1/18 12/1/2
f 28/1/22 25/1/19 26/1/20
f 7/1/24 27/1/21 28/1/22
f 20/1/10 12/1/2 17/1/7
f 18/1/9 26/1/20 20/1/10
f 8/1/12 28/1/22 18/1/9
f 32/1/28 24/1/18 25/1/19
f 33/1/29 25/1/19 27/1/21
f 5/1/30 27/1/21 6/1/23
f 34/1/31 14/1/4 32/1/28
f 35/1/32 32/1/28 33/1/29
f 3/1/17 36/1/33 2/1/35
f 23/1/16 30/1/27 36/1/33
f 30/1/27 35/1/32 36/1/33
f 36/1/33 4/1/34 2/1/35
f 4/1/34 33/1/29 5/1/30
f 37/1/36 39/1/37 38/1/38
f 37/1/36 38/1/38 40/1/39
f 37/1/36 40/1/39 39/1/37
usemtl 21_87_203
f 10/1/1 12/1/2 11/1/3
f 11/1/3 14/1/4 13/1/5
