mtllib Materials.mtl
v 15.748526 -11.755444 -1.649485
v 15.121292 -11.071405 -1.59573
v 15.369516 -10.889813 -1.82542
v 16.07019 -11.245769 -2.07342
v 15.899784 -11.571057 -1.227393
v 15.280426 -11.059882 -1.383099
v 17.274977 -12.651684 -1.704908
v 16.466646 -12.256271 -1.680137
v 16.839746 -11.675126 -2.14381
v 17.59833 -12.122112 -2.129123
v 17.427925 -12.447401 -1.283095
v 16.653135 -12.031362 -1.217296
v 18.267418 -12.982338 -1.730547
v 18.199223 -12.561934 -1.944006
v 18.11013 -12.732002 -1.501685
v 15.868681 -11.874364 1.871326
v 15.176386 -11.251138 1.824064
v 15.44792 -10.968015 2.048652
v 16.157843 -11.312415 2.254322
v 15.955719 -11.586667 1.405498
v 15.341427 -11.123631 1.604925
v 17.398508 -12.682188 1.866641
v 16.628866 -12.32476 1.886946
v 16.928484 -11.731968 2.277295
v 17.683865 -12.185142 2.21615
v 17.480385 -12.483847 1.410649
v 16.705421 -12.057932 1.347836
v 18.312042 -12.93335 1.822154
v 18.211838 -12.57478 2.024633
v 18.121384 -12.731957 1.548707
vt 0 0
vn -0.642964 -0.737602 -0.206061
vn -0.721305 -0.637349 -0.270974
vn -0.471145 -0.369091 -0.801080
vn -0.399884 -0.417676 -0.815851
vn -0.537828 -0.684194 0.492508
vn -0.622822 -0.602710 0.498795
vn -0.366283 -0.907315 -0.206336
vn -0.502701 -0.840114 -0.203619
vn -0.297830 -0.472945 -0.829188
vn -0.227027 -0.506912 -0.831538
vn -0.287423 -0.815607 0.502121
vn -0.415998 -0.745354 0.520920
vn -0.273202 -0.914060 -0.299692
vn -0.063875 -0.460005 -0.885586
vn -0.221198 -0.762749 0.607624
vn -0.590106 -0.770165 0.242012
vn -0.385327 -0.346233 0.855342
vn -0.712943 -0.672231 0.199438
vn -0.340770 -0.400220 0.850673
vn -0.523240 -0.661702 -0.536943
vn -0.565264 -0.453017 -0.689322
vn -0.325236 -0.903684 0.278390
vn -0.234382 -0.452773 0.860225
vn -0.446150 -0.847957 0.286081
vn -0.162664 -0.499252 0.851009
vn -0.328318 -0.840297 -0.431349
vn -0.434065 -0.771966 -0.464339
vn -0.226966 -0.919187 0.321787
vn -0.058626 -0.503220 0.862148
vn -0.254036 -0.859737 -0.443037
usemtl 43_43_43
f 1/1/1 2/1/2 3/1/3
f 3/1/3 4/1/4 1/1/1
f 5/1/5 6/1/6 2/1/2
f 2/1/2 1/1/1 5/1/5
f 7/1/7 8/1/8 9/1/9
f 9/1/9 10/1/10 7/1/7
f 11/1/11 12/1/12 8/1/8
f 8/1/8 7/1/7 11/1/11
f 13/1/13 7/1/7 10/1/10
f 10/1/10 14/1/14 13/1/13
f 15/1/15 11/1/11 7/1/7
f 7/1/7 13/1/13 15/1/15
f 8/1/8 1/1/1 4/1/4
f 4/1/4 9/1/9 8/1/8
f 12/1/12 5/1/5 1/1/1
f 1/1/1 8/1/8 12/1/12
f 16/1/16 18/1/17 17/1/18
f 18/1/17 16/1/16 19/1/19
f 20/1/20 17/1/18 21/1/21
f 17/1/18 20/1/20 16/1/16
f 22/1/22 24/1/23 23/1/24
f 24/1/23 22/1/22 25/1/25
f 26/1/26 23/1/24 27/1/27
f 23/1/24 26/1/26 22/1/22
f 28/1/28 25/1/25 22/1/22
f 25/1/25 28/1/28 29/1/29
f 30/1/30 22/1/22 26/1/26
f 22/1/22 30/1/30 28/1/28
f 23/1/24 19/1/19 16/1/16
f 19/1/19 23/1/24 24/1/23
f 27/1/27 16/1/16 20/1/20
f 16/1/16 27/1/27 23/1/24
