mtllib Materials.mtl
v -0.174423 -0.064432 0.001981
v 0.001061 -0.064174 0.17922
v -0.17472 -0.811896 0.001682
v 0.177165 -0.064545 0.002128
v 0.000767 -0.811458 0.17778
v 0.001679 -0.056512 -0.175383
v 0.176866 -0.812037 0.002292
v 0.001377 -0.812474 -0.173806
v 0.001676 0.069396 -0.173979
v 0.17716 0.074834 -0.001919
v -0.174429 0.074814 -0.003088
v 0.001055 0.076667 0.177956
v 0.00399 -1.207945 -0.450859
v 0.001628 -0.813203 -0.450924
v -0.451836 -0.811668 -0.001242
v 0.000516 -0.810483 0.454901
v -0.000643 -1.201144 0.453543
v 0.454762 -1.201029 0.005805
v -0.451411 -1.204887 0.001664
v 0.45398 -0.812016 0.006435
vt 0 0
vn -0.999969 -0.002136 0.005219
vn -0.999969 -0.000183 -0.00354
vn 0.000488 0.005432 0.999969
vn -0.001251 -0.001068 0.999969
vn 0.999969 0.002594 0.005585
vn 0.999969 -0.001129 0.000916
vn 0.004303 0.001068 -0.999969
vn 0.00119 -0.001068 -0.999969
vn -0.999817 0.006531 -0.016236
vn 0.001068 0.013367 0.999908
vn 0.999908 -0.00351 -0.011078
vn 0.008148 0.004639 -0.999939
vn 0.000031 0.999481 -0.031617
vn 0 0.999756 -0.020753
vn 0 0.999756 -0.020722
vn 0 0.999939 -0.010193
vn 0.701804 -0.001404 0.712363
vn 0.702414 -0.002869 0.711722
vn 0.701071 0.000244 0.713065
vn 0.703146 -0.004547 0.71099
vn -0.704611 -0.005402 -0.709555
vn -0.704367 -0.004913 -0.709769
vn -0.704856 -0.005982 -0.709311
vn 0.710959 0.00412 -0.703177
vn 0.711417 0.003113 -0.70275
vn 0.711203 0.003571 -0.702963
vn -0.710044 -0.000336 0.704123
vn -0.708701 0.002747 0.705466
vn -0.709311 0.001312 0.704856
vn 0.000397 0.999969 -0.002991
vn 0.711661 0.002564 -0.702506
vn -0.704123 -0.004303 -0.710044
vn -0.707968 0.004425 0.706198
vn 0.004212 -0.999939 0.007538
vn 0.00766 -0.999939 0.007538
vn 0.000732 -0.999969 0.007508
usemtl 252_193_150
f 1/1/1 3/1/2 2/1/3
f 2/1/3 5/1/4 4/1/5
f 4/1/5 7/1/6 6/1/7
f 6/1/7 8/1/8 1/1/1
f 2/1/3 3/1/2 5/1/4
f 4/1/5 5/1/4 7/1/6
f 6/1/7 7/1/6 8/1/8
f 1/1/1 8/1/8 3/1/2
f 11/1/9 1/1/1 12/1/10
f 12/1/10 2/1/3 10/1/11
f 10/1/11 4/1/5 9/1/12
f 9/1/12 6/1/7 11/1/9
f 2/1/3 12/1/10 1/1/1
f 4/1/5 10/1/11 2/1/3
f 6/1/7 9/1/12 4/1/5
f 1/1/1 11/1/9 6/1/7
f 9/1/13 11/1/14 10/1/15
f 10/1/15 11/1/14 12/1/16
usemtl 250_251_254
f 20/1/17 17/1/18 18/1/19
f 16/1/20 17/1/18 20/1/17
f 15/1/21 13/1/22 19/1/23
f 14/1/24 20/1/25 13/1/26
f 16/1/27 15/1/28 17/1/29
f 14/1/30 15/1/30 20/1/30
f 20/1/25 18/1/31 13/1/26
f 20/1/30 15/1/30 16/1/30
f 14/1/32 13/1/22 15/1/21
f 15/1/28 19/1/33 17/1/29
f 17/1/34 13/1/34 18/1/35
f 19/1/36 13/1/34 17/1/34
