mtllib Materials.mtl
v 0.00175 -1.208841 -0.195721
v -0.000535 -1.31312 -0.195424
v -0.192692 -1.217144 -0.002005
v -0.191983 -1.324251 -0.001564
v 0.000956 -1.2086 0.192489
v 0.000549 -1.313612 0.192787
v 0.193016 -1.209034 -0.001221
v 0.192397 -1.324489 -0.001071
v 0.001418 0.009839 -0.196942
v -0.190642 0.010165 -0.003228
v 0.000623 0.010081 0.19127
v 0.192684 0.009756 -0.002441
vt 0 0
vn 0.0088 -0.0006 -1
vn -0.0081 -0.0062 -0.9999
vn -1 -0.0012 -0.0014
vn -1 -0.0055 0.0041
vn 0.0015 0.0013 1
vn -0.0016 0.0025 1
vn 1 -0.0024 0.0018
vn 1 -0.0075 0.0021
vn 0.0014 -0.001 -1
vn -1 0.0008 -0.0026
vn -0.0022 0.0018 1
vn 1 0.0003 0.0019
vn -0.0005 -0.9983 -0.0579
vn -0.0006 -1 -0.0011
vn -0.0006 -1 -0.0014
vn -0.0007 -0.9985 0.0553
usemtl 252_193_150
f 1/1/1 2/1/2 3/1/3
f 3/1/3 4/1/4 5/1/5
f 5/1/5 6/1/6 7/1/7
f 7/1/7 8/1/8 1/1/1
f 9/1/9 1/1/1 10/1/10
f 10/1/10 3/1/3 11/1/11
f 11/1/11 5/1/5 12/1/12
f 12/1/12 7/1/7 9/1/9
f 1/1/1 3/1/3 10/1/10
f 3/1/3 5/1/5 11/1/11
f 5/1/5 7/1/7 12/1/12
f 7/1/7 1/1/1 9/1/9
f 3/1/3 2/1/2 4/1/4
f 5/1/5 4/1/4 6/1/6
f 7/1/7 6/1/6 8/1/8
f 1/1/1 8/1/8 2/1/2
f 2/1/13 8/1/14 4/1/15
f 4/1/15 8/1/14 6/1/16
