mtllib ShinNew.mtl
v -0.174423 -0.064432 0.001981 1.000000 1.000000 1.000000
v 0.001061 -0.064174 0.179220 1.000000 1.000000 1.000000
v -0.174720 -0.811896 0.001682 1.000000 1.000000 1.000000
v 0.177165 -0.064545 0.002128 1.000000 1.000000 1.000000
v 0.000767 -0.811458 0.177780 1.000000 1.000000 1.000000
v 0.001679 -0.056512 -0.175383 1.000000 1.000000 1.000000
v 0.176866 -0.812037 0.002292 1.000000 1.000000 1.000000
v 0.001377 -0.812474 -0.173806 1.000000 1.000000 1.000000
v 0.177160 0.074834 -0.001919 1.000000 1.000000 1.000000
v -0.174429 0.074814 -0.003088 1.000000 1.000000 1.000000
v 0.001676 0.069396 -0.173979 1.000000 1.000000 1.000000
v 0.001055 0.076667 0.177956 1.000000 1.000000 1.000000
v 0.001055 0.076667 0.177956 1.000000 1.000000 1.000000
v -0.174429 0.074814 -0.003088 1.000000 1.000000 1.000000
v 0.177160 0.074834 -0.001919 1.000000 1.000000 1.000000
v 0.001676 0.069396 -0.173979 1.000000 1.000000 1.000000
v 0.454762 -1.201029 0.005805 1.000000 1.000000 1.000000
v -0.000643 -1.201144 0.453543 1.000000 1.000000 1.000000
v 0.453980 -0.812016 0.006435 1.000000 1.000000 1.000000
v 0.001628 -0.813203 -0.450924 1.000000 1.000000 1.000000
v 0.003990 -1.207945 -0.450859 1.000000 1.000000 1.000000
v -0.451411 -1.204887 0.001664 1.000000 1.000000 1.000000
v -0.000643 -1.201144 0.453543 1.000000 1.000000 1.000000
v -0.451411 -1.204887 0.001664 1.000000 1.000000 1.000000
v 0.453980 -0.812016 0.006435 1.000000 1.000000 1.000000
v 0.001628 -0.813203 -0.450924 1.000000 1.000000 1.000000
v -0.451836 -0.811668 -0.001242 1.000000 1.000000 1.000000
v 0.000516 -0.810483 0.454901 1.000000 1.000000 1.000000
v 0.000516 -0.810483 0.454901 1.000000 1.000000 1.000000
v 0.000516 -0.810483 0.454901 1.000000 1.000000 1.000000
v 0.454762 -1.201029 0.005805 1.000000 1.000000 1.000000
v 0.003990 -1.207945 -0.450859 1.000000 1.000000 1.000000
v -0.451411 -1.204887 0.001664 1.000000 1.000000 1.000000
v 0.003990 -1.207945 -0.450859 1.000000 1.000000 1.000000
v -0.451836 -0.811668 -0.001242 1.000000 1.000000 1.000000
v 0.001628 -0.813203 -0.450924 1.000000 1.000000 1.000000
v -0.000643 -1.201144 0.453543 1.000000 1.000000 1.000000
v -0.451836 -0.811668 -0.001242 1.000000 1.000000 1.000000
v 0.454762 -1.201029 0.005805 1.000000 1.000000 1.000000
v 0.453980 -0.812016 0.006435 1.000000 1.000000 1.000000
vt 0.000000 0.000000
vt 0.000000 0.000000
vn -0.999969 -0.002136 0.005219
vn -0.999969 -0.000183 -0.003540
vn 0.000488 0.005432 0.999969
vn -0.001251 -0.001068 0.999969
vn 0.999969 0.002594 0.005585
vn 0.999969 -0.001129 0.000916
vn 0.004303 0.001068 -0.999969
vn 0.001190 -0.001068 -0.999969
vn -0.999817 0.006531 -0.016236
vn 0.001068 0.013367 0.999908
vn 0.999908 -0.003510 -0.011078
vn 0.008148 0.004639 -0.999939
vn 0.000000 0.999756 -0.020722
vn 0.000000 0.999756 -0.020753
vn 0.000000 0.999939 -0.010193
vn 0.000031 0.999481 -0.031617
vn 0.000732 -0.999969 0.007508
vn 0.004212 -0.999939 0.007538
vn 0.007660 -0.999939 0.007538
vn 0.701804 -0.001404 0.712363
vn 0.702414 -0.002869 0.711722
vn 0.701071 0.000244 0.713065
vn -0.704611 -0.005402 -0.709555
vn -0.704367 -0.004913 -0.709769
vn -0.704856 -0.005982 -0.709311
vn -0.710044 -0.000336 0.704123
vn -0.708701 0.002747 0.705466
vn -0.709311 0.001312 0.704856
vn 0.710959 0.004120 -0.703177
vn 0.711417 0.003113 -0.702750
vn 0.711203 0.003571 -0.702963
vn -0.707968 0.004425 0.706198
vn 0.711661 0.002564 -0.702506
vn 0.703146 -0.004547 0.710990
vn -0.704123 -0.004303 -0.710044
vn 0.000397 0.999969 -0.002991
usemtl 21_128_224
f 1/1/1 3/1/2 2/1/3
f 2/1/3 5/1/4 4/1/5
f 4/1/5 7/1/6 6/1/7
f 6/1/7 8/1/8 1/1/1
f 2/1/3 3/1/2 5/1/4
f 4/1/5 5/1/4 7/1/6
f 6/1/7 7/1/6 8/1/8
f 1/1/1 8/1/8 3/1/2
f 10/1/9 1/1/1 13/1/10
f 13/1/10 2/1/3 9/1/11
f 9/1/11 4/1/5 16/1/12
f 16/1/12 6/1/7 10/1/9
f 2/1/3 13/1/10 1/1/1
f 4/1/5 9/1/11 2/1/3
f 6/1/7 16/1/12 4/1/5
f 1/1/1 10/1/9 6/1/7
f 15/1/13 14/1/14 12/1/15
f 11/1/16 14/1/14 15/1/13
usemtl 250_251_254
f 22/2/17 21/2/18 18/2/18
f 18/2/18 21/2/18 17/2/19
f 40/2/20 23/2/21 39/2/22
f 35/2/23 34/2/24 33/2/25
f 30/2/26 38/2/27 37/2/28
f 20/2/29 19/2/30 32/2/31
f 38/2/27 24/2/32 37/2/28
f 19/2/30 31/2/33 32/2/31
f 29/2/34 23/2/21 40/2/20
f 36/2/35 34/2/24 35/2/23
f 26/2/36 27/2/36 25/2/36
f 25/2/36 27/2/36 28/2/36
