# Blender v2.78 (sub 0) OBJ File: ''
# www.blender.org
mtllib Shin.mtl
v -0.174423 -0.064432 0.001981
v 0.001061 -0.064174 0.17922
v -0.17472 -0.811896 0.001682
v 0.177165 -0.064545 0.002128
v 7.67E-4 -0.811458 0.17778
v 0.001679 -0.056512 -0.175383
v 0.176866 -0.812037 0.002292
v 0.001377 -0.812474 -0.173806
v 0.001676 0.069396 -0.173979
v 0.17716 0.074834 -0.001919
v -0.174429 0.074814 -0.003088
v 0.001055 0.076667 0.177956
v 0.001055 0.076667 0.177956
v -0.174429 0.074814 -0.003088
v 5.16E-4 -0.810483 0.454901
v 0.45398 -0.812016 0.006435
v 0.001628 -0.813203 -0.450924
v -0.451411 -1.204887 0.001664
v 0.00399 -1.207945 -0.450859
v -0.451836 -0.811668 -0.001242
v -6.43E-4 -1.201144 0.453543
v 0.454762 -1.201029 0.005805
v 0.454762 -1.201029 0.005805
v -6.43E-4 -1.201144 0.453543
v 0.00399 -1.207945 -0.450859
v -0.451411 -1.204887 0.001664
v 5.16E-4 -0.810483 0.454901
v -0.451836 -0.811668 -0.001242
v 0.001628 -0.813203 -0.450924
v 0.45398 -0.812016 0.006435
v 0.17716 0.074834 -0.001919
v 0.001676 0.069396 -0.173979
vt 0.0000 0.0000
vt 0.0000 0.0000
vt 0.0000 0.0000
vt 0.0000 0.0000
vt 0.0000 0.0000
vt 0.0000 0.0000
vt 0.0000 0.0000
vt 0.0000 0.0000
vt 0.0000 0.0000
vt 0.0000 0.0000
vt 0.0000 0.0000
vt 0.0000 0.0000
vt 0.0000 0.0000
vt 0.0000 0.0000
vt 0.0000 0.0000
vt 0.0000 0.0000
vt 0.0000 0.0000
vt 0.0000 0.0000
vt 0.0000 0.0000
vt 0.0000 0.0000
vt 0.0000 0.0000
vt 0.0000 0.0000
vt 0.0000 0.0000
vt 0.0000 0.0000
vt 0.0000 0.0000
vt 0.0000 0.0000
vt 0.0000 0.0000
vt 0.0000 0.0000
vt 0.0000 0.0000
vt 0.0000 0.0000
vt 0.0000 0.0000
vt 0.0000 0.0000
vn -1.0 -0.0021 0.0052
vn -1.0 -2.0E-4 -0.0035
vn 5.0E-4 0.0054 1.0
vn -0.0013 -0.0011 1.0
vn 1.0 0.0026 0.0056
vn 1.0 -0.0011 9.0E-4
vn 0.0043 0.0011 -1.0
vn 0.0012 -0.0011 -1.0
vn -0.9998 0.0065 -0.0163
vn 0.0011 0.0134 0.9999
vn 0.9999 -0.0035 -0.0111
vn 0.0082 0.0047 -1.0
vn 0.0 0.9995 -0.0316
vn 0.0 0.9998 -0.0208
vn 0.0 0.9998 -0.0207
vn -0.0 0.9999 -0.0102
vn -4.0E-4 -1.0 0.003
vn -1.0 -0.0019 -0.0049
vn -1.0 -0.0011 -0.0023
vn -0.0081 -0.0011 1.0
vn -0.0037 -0.0035 1.0
vn 1.0 0.0012 0.0089
vn 1.0 0.002 0.0034
vn 0.0056 -9.0E-4 -1.0
vn 0.002 -2.0E-4 -1.0
vn 0.0077 -0.9999 0.0076
vn 8.0E-4 -1.0 0.0075
usemtl 21_128_224
s 1
f 1/1/1 3/2/2 2/3/3
f 2/3/3 5/4/4 4/5/5
f 4/5/5 7/6/6 6/7/7
f 6/7/7 8/8/8 1/1/1
f 2/3/3 3/2/2 5/4/4
f 4/5/5 5/4/4 7/6/6
f 6/7/7 7/6/6 8/8/8
f 1/1/1 8/8/8 3/2/2
f 11/9/9 1/1/1 12/10/10
f 12/10/10 2/3/3 10/11/11
f 10/11/11 4/5/5 9/12/12
f 9/12/12 6/7/7 11/9/9
f 2/3/3 12/10/10 1/1/1
f 4/5/5 10/11/11 2/3/3
f 6/7/7 9/12/12 4/5/5
f 1/1/1 11/9/9 6/7/7
f 32/13/13 14/14/14 31/15/15
f 31/15/15 14/14/14 13/16/16
usemtl 250_251_254
f 30/17/17 27/18/17 28/19/17
f 29/20/17 30/17/17 28/19/17
f 20/21/18 18/22/19 21/23/20
f 15/24/21 21/23/20 16/25/22
f 16/25/22 22/26/23 19/27/24
f 17/28/25 19/27/24 20/21/18
f 24/29/26 25/30/26 23/31/26
f 16/25/22 21/23/20 22/26/23
f 20/21/18 19/27/24 18/22/19
f 26/32/27 25/30/27 24/29/27
f 15/24/21 20/21/18 21/23/20
f 17/28/25 16/25/22 19/27/24
