mtllib Materials.mtl
v -1.206376 -1.04057 -0.940503
v -1.196074 -0.283349 -0.98488
v -1.197362 -0.299194 0.8325
v -1.187906 -1.812622 0.679654
v -1.206539 -3.226231 -0.071134
v -1.196711 -1.798974 -0.789727
v -1.178956 1.020808 -0.001124
v -1.186599 0.491753 0.782649
v -1.185365 0.510523 -0.873014
v -1.207556 -1.051717 0.800467
v -1.205051 -3.22764 0.096347
v -0.356371 -1.846574 0.396562
v -0.175429 -1.188064 0.479389
v -0.048139 -0.656875 0.520237
v -0.359624 -1.828344 -0.425534
v -0.176285 -1.164106 -0.522776
v -0.054779 -0.676898 -0.559114
v 0.088339 0.086182 0.468424
v 0.088392 0.133433 -0.514564
v -0.049748 0.726025 -0.014793
v -0.585777 -1.002701 -0.738842
v -0.735961 -1.006717 -0.793356
v -0.588754 -1.221277 -0.72282
v -0.578147 -0.442313 -0.779917
v -0.978624 -1.013205 -0.881442
v -0.738937 -1.225292 -0.777335
v -0.575171 -0.223737 -0.795937
v -0.725353 -0.227753 -0.850452
v -0.72833 -0.44633 -0.834432
v -0.968018 -0.234242 -0.938538
v -0.970994 -0.452818 -0.922517
v -1.121177 -0.456834 -0.977032
v -1.1182 -0.238258 -0.993052
v -1.131783 -1.235797 -0.919935
v -0.9816 -1.231782 -0.86542
v -1.128808 -1.017221 -0.935957
v -0.759315 -1.218798 -0.721352
v -0.609132 -1.214781 -0.666837
v -0.606156 -0.996205 -0.682857
v -0.598525 -0.435819 -0.723932
v -0.595549 -0.217242 -0.739954
v -0.745732 -0.221258 -0.794469
v -0.988396 -0.227747 -0.882554
v -1.13858 -0.231763 -0.937069
v -1.141556 -0.450339 -0.921047
v -1.149186 -1.010727 -0.879973
v -1.152163 -1.229302 -0.863952
v -1.001979 -1.225287 -0.809437
v -0.756339 -1.000221 -0.737373
v -0.999003 -1.00671 -0.825457
v -0.991373 -0.446324 -0.866533
v -0.748708 -0.439835 -0.778448
vt 0 0
vn -0.9999 0.0136 -0.0006
vn -0.9999 0.0098 0.0063
vn -0.9999 0.0099 0.0061
vn -0.9999 0.0091 0.0076
vn -0.9999 -0.0129 -0.0008
vn -0.9999 0.0084 0.009
vn -0.9996 -0.0267 0.0057
vn 0.746 -0.3896 0.5401
vn 0.7633 -0.2836 0.5805
vn 0.2945 -0.1631 0.9416
vn 0.2955 0.4577 0.8386
vn 0.2782 0.0566 0.9589
vn 0.7939 -0.0955 0.6005
vn 0.7586 -0.3994 -0.5148
vn 0.3688 -0.1974 -0.9083
vn 0.7711 -0.2954 -0.564
vn 0.3368 0.4844 -0.8074
vn 0.8098 -0.0842 -0.5806
vn 0.384 0.1238 -0.915
vn 0.7902 0.1693 0.5889
vn 0.3735 -0.2884 -0.8817
vn 0.8045 -0.5471 -0.2312
vn 0.8062 -0.5453 0.2295
vn 0.3033 -0.2467 0.9204
vn 0.636 0.7712 0.0247
vn 0.7923 0.1896 -0.5799
vn 0.2528 0.967 0.0327
vn 0.342 -0.0733 -0.9368
vn -0.0135 -0.9938 0.1104
vn 0.9401 0.0122 0.3408
vn 0.0135 0.9938 -0.1104
vn -0.9401 -0.0122 -0.3408
vn -0.342 0.0733 0.9368
vn 0.7653 -0.2088 0.6089
vn 0.7305 -0.2263 0.6444
vn 0.2703 -0.0707 0.9602
vn 0.7903 -0.2172 -0.5729
vn 0.3501 -0.0842 -0.9329
vn 0.7591 -0.2346 -0.6073
vn 0.2914 -0.0446 0.9556
vn 0.369 -0.0594 -0.9275
usemtl 170_21_21
f 1/1/1 3/1/1 2/1/1
f 4/1/2 6/1/3 5/1/4
f 7/1/1 9/1/1 8/1/1
f 6/1/5 10/1/5 1/1/5
f 8/1/1 2/1/1 3/1/1
f 10/1/1 3/1/1 1/1/1
f 11/1/6 4/1/2 5/1/4
f 4/1/7 10/1/7 6/1/7
f 9/1/1 2/1/1 8/1/1
usemtl 250_251_254
f 13/1/34 14/1/35 3/1/36
f 16/1/37 2/1/38 17/1/39
f 16/1/37 17/1/39 14/1/35
f 10/1/40 13/1/34 3/1/36
f 1/1/41 2/1/38 16/1/37
f 13/1/34 16/1/37 14/1/35
usemtl 250_21_21
f 12/1/8 13/1/9 10/1/10
f 8/1/11 3/1/12 14/1/13
f 15/1/14 1/1/15 16/1/16
f 9/1/17 17/1/18 2/1/19
f 15/1/14 16/1/16 13/1/9
f 18/1/20 14/1/13 17/1/18
f 6/1/21 15/1/14 5/1/22
f 12/1/8 11/1/23 5/1/22
f 4/1/24 11/1/23 12/1/8
f 9/1/17 20/1/25 19/1/26
f 20/1/25 8/1/11 18/1/20
f 18/1/20 19/1/26 20/1/25
f 4/1/24 12/1/8 10/1/10
f 18/1/20 8/1/11 14/1/13
f 6/1/21 1/1/15 15/1/14
f 19/1/26 17/1/18 9/1/17
f 12/1/8 15/1/14 13/1/9
f 19/1/26 18/1/20 17/1/18
f 15/1/14 12/1/8 5/1/22
f 7/1/27 20/1/25 9/1/17
f 7/1/27 8/1/11 20/1/25
usemtl 255_217_0
f 21/1/28 23/1/28 22/1/28
f 24/1/28 21/1/28 22/1/28
f 25/1/28 22/1/28 26/1/28
f 27/1/28 29/1/28 28/1/28
f 29/1/28 31/1/28 30/1/28
f 32/1/28 33/1/28 31/1/28
f 34/1/28 25/1/28 35/1/28
f 32/1/28 31/1/28 36/1/28
f 23/1/29 38/1/29 37/1/29
f 21/1/30 39/1/30 38/1/30
f 24/1/30 40/1/30 39/1/30
f 27/1/30 41/1/30 40/1/30
f 28/1/31 42/1/31 41/1/31
f 30/1/31 43/1/31 42/1/31
f 33/1/31 44/1/31 43/1/31
f 32/1/32 45/1/32 44/1/32
f 36/1/32 46/1/32 45/1/32
f 34/1/32 47/1/32 46/1/32
f 35/1/29 48/1/29 47/1/29
f 26/1/29 37/1/29 48/1/29
f 25/1/31 50/1/31 49/1/31
f 31/1/30 51/1/30 50/1/30
f 29/1/29 52/1/29 51/1/29
f 22/1/32 49/1/32 52/1/32
f 37/1/33 38/1/33 39/1/33
f 49/1/33 39/1/33 40/1/33
f 52/1/33 40/1/33 41/1/33
f 52/1/33 42/1/33 43/1/33
f 51/1/33 43/1/33 44/1/33
f 46/1/33 47/1/33 48/1/33
f 50/1/33 48/1/33 37/1/33
f 50/1/33 51/1/33 46/1/33
f 26/1/28 22/1/28 23/1/28
f 29/1/28 24/1/28 22/1/28
f 35/1/28 25/1/28 26/1/28
f 24/1/28 29/1/28 27/1/28
f 28/1/28 29/1/28 30/1/28
f 30/1/28 31/1/28 33/1/28
f 36/1/28 25/1/28 34/1/28
f 25/1/28 36/1/28 31/1/28
f 26/1/29 23/1/29 37/1/29
f 23/1/30 21/1/30 38/1/30
f 21/1/30 24/1/30 39/1/30
f 24/1/30 27/1/30 40/1/30
f 27/1/31 28/1/31 41/1/31
f 28/1/31 30/1/31 42/1/31
f 30/1/31 33/1/31 43/1/31
f 33/1/32 32/1/32 44/1/32
f 32/1/32 36/1/32 45/1/32
f 36/1/32 34/1/32 46/1/32
f 34/1/29 35/1/29 47/1/29
f 35/1/29 26/1/29 48/1/29
f 22/1/31 25/1/31 49/1/31
f 25/1/30 31/1/30 50/1/30
f 31/1/29 29/1/29 51/1/29
f 29/1/32 22/1/32 52/1/32
f 49/1/33 37/1/33 39/1/33
f 52/1/33 49/1/33 40/1/33
f 42/1/33 52/1/33 41/1/33
f 51/1/33 52/1/33 43/1/33
f 45/1/33 51/1/33 44/1/33
f 50/1/33 46/1/33 48/1/33
f 49/1/33 50/1/33 37/1/33
f 45/1/33 46/1/33 51/1/33
