# Blender v2.78 (sub 0) OBJ File: ''
# www.blender.org
mtllib Thigh.mtl
v 0.00175 -1.200894 -0.195721
v -5.35E-4 -1.304487 -0.195424
v -0.192692 -1.209143 -0.002005
v -0.191983 -1.315545 -0.001564
v 9.56E-4 -1.200654 0.192489
v 5.49E-4 -1.304976 0.192787
v 0.193016 -1.201086 -0.001221
v 0.192397 -1.315782 -0.001071
v 0.001418 0.009774 -0.196942
v -0.190642 0.010098 -0.003228
v 6.23E-4 0.010015 0.19127
v 0.192684 0.009691 -0.002441
v -5.35E-4 -1.304487 -0.195424
v 0.192397 -1.315782 -0.001071
v -0.191983 -1.315545 -0.001564
v 5.49E-4 -1.304976 0.192787
vt 0.0000 0.0000
vt 0.0000 0.0000
vt 0.0000 0.0000
vt 0.0000 0.0000
vt 0.0000 0.0000
vt 0.0000 0.0000
vt 0.0000 0.0000
vt 0.0000 0.0000
vt 0.0000 0.0000
vt 0.0000 0.0000
vt 0.0000 0.0000
vt 0.0000 0.0000
vt 0.0000 0.0000
vt 0.0000 0.0000
vt 0.0000 0.0000
vt 0.0000 0.0000
vn 0.0088 -6.0E-4 -1.0
vn -0.0082 -0.0062 -0.9999
vn -1.0 -0.0012 -0.0014
vn -1.0 -0.0056 0.0041
vn 0.0015 0.0014 1.0
vn -0.0016 0.0025 1.0
vn 1.0 -0.0024 0.0018
vn 1.0 -0.0075 0.0021
vn 0.0014 -0.001 -1.0
vn -1.0 8.0E-4 -0.0027
vn -0.0022 0.0019 1.0
vn 1.0 3.0E-4 0.0019
vn -5.0E-4 -0.9983 -0.0575
vn -6.0E-4 -1.0 -0.0011
vn -6.0E-4 -1.0 -0.0014
vn -7.0E-4 -0.9985 0.055
usemtl 21_128_224
s 1
f 1/1/1 2/2/2 3/3/3
f 3/3/3 4/4/4 5/5/5
f 5/5/5 6/6/6 7/7/7
f 7/7/7 8/8/8 1/1/1
f 9/9/9 1/1/1 10/10/10
f 10/10/10 3/3/3 11/11/11
f 11/11/11 5/5/5 12/12/12
f 12/12/12 7/7/7 9/9/9
f 1/1/1 3/3/3 10/10/10
f 3/3/3 5/5/5 11/11/11
f 5/5/5 7/7/7 12/12/12
f 7/7/7 1/1/1 9/9/9
f 3/3/3 2/2/2 4/4/4
f 5/5/5 4/4/4 6/6/6
f 7/7/7 6/6/6 8/8/8
f 1/1/1 8/8/8 2/2/2
f 13/13/13 14/14/14 15/15/15
f 15/15/15 14/14/14 16/16/16
