# Blender v2.79 (sub 0) OBJ File: ''
# www.blender.org
mtllib Chunk15.mtl
v 2546.679443 59.699192 -3090.413574
v 2490.028564 86.116096 -3090.413574
v 2491.085205 88.382118 -3090.413574
v 2547.736084 61.965340 -3090.413574
v 2547.736084 86.116096 -3090.351074
v 2491.085205 59.699192 -3090.351074
v 2490.028564 61.965340 -3090.351074
v 2546.679443 88.382118 -3090.351074
v 2491.085205 59.699139 -3026.530762
v 2546.679443 88.382088 -3026.530762
v 2547.736084 86.116066 -3026.530762
v 2490.028564 61.965286 -3026.530762
v 2490.028564 86.116066 -3026.593262
v 2547.736084 61.965286 -3026.593262
v 2546.679443 59.699139 -3026.593262
v 2491.085205 88.382088 -3026.593262
v 2486.940918 59.699192 -3086.269287
v 2486.940918 88.382088 -3030.675049
v 2486.940918 86.116066 -3029.618408
v 2486.940918 61.965340 -3087.325928
v 2487.003418 61.965286 -3029.618408
v 2487.003418 59.699139 -3030.675049
v 2487.003418 86.116096 -3087.325928
v 2487.003418 88.382118 -3086.269287
v 2550.823486 59.699139 -3030.675049
v 2550.823486 86.116096 -3087.325928
v 2550.823486 88.382118 -3086.269287
v 2550.823486 61.965286 -3029.618408
v 2550.760986 61.965340 -3087.325928
v 2550.760986 86.116066 -3029.618408
v 2550.760986 59.699192 -3086.269287
v 2550.760986 88.382088 -3030.675049
v 2486.690918 33.535770 -3026.280762
v 2486.690918 62.789257 -3026.280762
v 2486.690918 62.789310 -3090.663574
v 2486.690918 33.535824 -3090.663574
v 2551.073730 33.535770 -3026.280762
v 2551.073730 62.789257 -3026.280762
v 2551.073730 33.535824 -3090.663574
v 2551.073730 62.789310 -3090.663574
v 2490.039795 59.663887 -3029.629639
v 2490.039795 59.663940 -3087.314697
v 2547.725098 59.663940 -3087.314697
v 2547.725098 59.663887 -3029.629639
v 2486.378418 104.044243 -3090.976074
v 2486.378418 85.291962 -3025.968262
v 2486.378418 104.044197 -3025.968262
v 2486.378418 85.292007 -3090.976074
v 2551.386230 85.291962 -3025.968262
v 2551.386230 104.044197 -3025.968262
v 2551.386230 85.292007 -3090.976074
v 2551.386230 104.044243 -3090.976074
v 2486.583984 87.292198 -3026.173828
v 2492.923584 87.292198 -3026.173828
v 2492.923584 -102.105385 -3026.174072
v 2486.583984 -102.105385 -3026.174072
v 2486.583984 87.292206 -3032.513428
v 2486.583984 -102.105377 -3032.513428
v 2551.180664 87.292198 -3026.173828
v 2551.180664 -102.105377 -3032.513428
v 2551.180664 87.292206 -3032.513428
v 2551.180664 -102.105385 -3026.174072
v 2544.841064 87.292198 -3026.173828
v 2544.841064 -102.105385 -3026.174072
v 2551.180664 87.292244 -3090.770264
v 2544.841064 -102.105339 -3090.770508
v 2544.841064 87.292244 -3090.770264
v 2551.180664 -102.105339 -3090.770508
v 2551.180664 87.292236 -3084.430908
v 2551.180664 -102.105347 -3084.430908
v 2486.583984 87.292244 -3090.770264
v 2486.583984 -102.105347 -3084.430908
v 2486.583984 87.292236 -3084.430908
v 2486.583984 -102.105339 -3090.770508
v 2492.923584 87.292244 -3090.770264
v 2492.923584 -102.105339 -3090.770508
v 2472.682861 97.668228 -3039.335693
v 2472.682861 135.235199 -3039.335693
v 2472.682861 135.235214 -3077.608398
v 2472.682861 97.668251 -3077.608398
v 2499.745850 135.235245 -3104.671631
v 2499.745850 97.668251 -3104.671631
v 2538.018799 135.235245 -3104.671631
v 2538.018799 97.668251 -3104.671631
v 2565.081787 135.235214 -3077.608643
v 2565.081787 97.668251 -3077.608643
v 2565.081787 135.235199 -3039.335938
v 2565.081787 97.668228 -3039.335938
v 2538.018799 135.235214 -3012.272705
v 2538.018799 97.668205 -3012.272705
v 2499.745850 135.235214 -3012.272705
v 2499.745850 97.668205 -3012.272705
v 2472.682861 135.253876 -3039.335693
v 2472.682861 172.820862 -3039.335693
v 2472.682861 172.820877 -3077.608398
v 2472.682861 135.253891 -3077.608398
v 2499.745850 172.820892 -3104.671631
v 2499.745850 135.253922 -3104.671631
v 2538.018799 172.820892 -3104.671631
v 2538.018799 135.253922 -3104.671631
v 2565.081787 172.820877 -3077.608643
v 2565.081787 135.253891 -3077.608643
v 2565.081787 172.820862 -3039.335938
v 2565.081787 135.253876 -3039.335938
v 2538.018799 172.820862 -3012.272705
v 2538.018799 135.253860 -3012.272705
v 2499.745850 172.820862 -3012.272705
v 2499.745850 135.253860 -3012.272705
v 2499.745850 172.802460 -3104.671631
v 2472.682861 172.802414 -3077.608398
v 2518.882324 172.802414 -3058.472168
v 2538.018799 172.802460 -3104.671631
v 2565.081787 172.802414 -3077.608643
v 2565.081787 172.802399 -3039.335938
v 2538.018799 172.802399 -3012.272705
v 2499.745850 172.802399 -3012.272705
v 2472.682861 172.802399 -3039.335693
v 2546.679443 59.699192 -3253.987549
v 2490.028564 86.116089 -3253.987549
v 2491.085205 88.382111 -3253.987549
v 2547.736084 61.965340 -3253.987549
v 2547.736084 86.116089 -3253.925049
v 2491.085205 59.699192 -3253.925049
v 2490.028564 61.965340 -3253.925049
v 2546.679443 88.382111 -3253.925049
v 2491.085205 59.699139 -3190.104736
v 2546.679443 88.382080 -3190.104736
v 2547.736084 86.116058 -3190.104736
v 2490.028564 61.965286 -3190.104736
v 2490.028564 86.116058 -3190.167236
v 2547.736084 61.965286 -3190.167236
v 2546.679443 59.699139 -3190.167236
v 2491.085205 88.382080 -3190.167236
v 2486.940918 59.699192 -3249.843262
v 2486.940918 88.382080 -3194.249023
v 2486.940918 86.116058 -3193.192383
v 2486.940918 61.965340 -3250.899902
v 2487.003418 61.965286 -3193.192383
v 2487.003418 59.699139 -3194.249023
v 2487.003418 86.116089 -3250.899902
v 2487.003418 88.382111 -3249.843262
v 2550.823486 59.699139 -3194.249023
v 2550.823486 86.116089 -3250.899902
v 2550.823486 88.382111 -3249.843262
v 2550.823486 61.965286 -3193.192383
v 2550.760986 61.965340 -3250.899902
v 2550.760986 86.116058 -3193.192383
v 2550.760986 59.699192 -3249.843262
v 2550.760986 88.382080 -3194.249023
v 2486.690918 33.535770 -3189.854736
v 2486.690918 62.789257 -3189.854736
v 2486.690918 62.789310 -3254.237549
v 2486.690918 33.535824 -3254.237549
v 2551.073730 33.535770 -3189.854736
v 2551.073730 62.789257 -3189.854736
v 2551.073730 33.535824 -3254.237549
v 2551.073730 62.789310 -3254.237549
v 2490.039795 59.663887 -3193.203613
v 2490.039795 59.663940 -3250.888672
v 2547.725098 59.663940 -3250.888672
v 2547.725098 59.663887 -3193.203613
v 2486.378418 104.044235 -3254.550049
v 2486.378418 85.291954 -3189.542236
v 2486.378418 104.044189 -3189.542236
v 2486.378418 85.292000 -3254.550049
v 2551.386230 85.291954 -3189.542236
v 2551.386230 104.044189 -3189.542236
v 2551.386230 85.292000 -3254.550049
v 2551.386230 104.044235 -3254.550049
v 2486.583984 87.292191 -3189.747803
v 2492.923584 87.292191 -3189.747803
v 2492.923584 -102.105392 -3189.748047
v 2486.583984 -102.105392 -3189.748047
v 2486.583984 87.292198 -3196.087402
v 2486.583984 -102.105385 -3196.087402
v 2551.180664 87.292191 -3189.747803
v 2551.180664 -102.105385 -3196.087402
v 2551.180664 87.292198 -3196.087402
v 2551.180664 -102.105392 -3189.748047
v 2544.841064 87.292191 -3189.747803
v 2544.841064 -102.105392 -3189.748047
v 2551.180664 87.292236 -3254.344238
v 2544.841064 -102.105347 -3254.344482
v 2544.841064 87.292236 -3254.344238
v 2551.180664 -102.105347 -3254.344482
v 2551.180664 87.292229 -3248.004883
v 2551.180664 -102.105354 -3248.004883
v 2486.583984 87.292236 -3254.344238
v 2486.583984 -102.105354 -3248.004883
v 2486.583984 87.292229 -3248.004883
v 2486.583984 -102.105347 -3254.344482
v 2492.923584 87.292236 -3254.344238
v 2492.923584 -102.105347 -3254.344482
v 2472.682861 97.668221 -3202.909668
v 2472.682861 135.235214 -3202.909668
v 2472.682861 135.235229 -3241.182373
v 2472.682861 97.668243 -3241.182373
v 2499.745850 135.235260 -3268.245605
v 2499.745850 97.668251 -3268.245605
v 2538.018799 135.235260 -3268.245605
v 2538.018799 97.668251 -3268.245605
v 2565.081787 135.235229 -3241.182617
v 2565.081787 97.668243 -3241.182617
v 2565.081787 135.235214 -3202.909912
v 2565.081787 97.668221 -3202.909912
v 2538.018799 135.235229 -3175.846680
v 2538.018799 97.668205 -3175.846680
v 2499.745850 135.235229 -3175.846680
v 2499.745850 97.668205 -3175.846680
v 2472.682861 135.253891 -3202.909668
v 2472.682861 172.820877 -3202.909668
v 2472.682861 172.820892 -3241.182373
v 2472.682861 135.253906 -3241.182373
v 2499.745850 172.820908 -3268.245605
v 2499.745850 135.253937 -3268.245605
v 2538.018799 172.820908 -3268.245605
v 2538.018799 135.253937 -3268.245605
v 2565.081787 172.820892 -3241.182617
v 2565.081787 135.253906 -3241.182617
v 2565.081787 172.820877 -3202.909912
v 2565.081787 135.253891 -3202.909912
v 2538.018799 172.820877 -3175.846680
v 2538.018799 135.253876 -3175.846680
v 2499.745850 172.820877 -3175.846680
v 2499.745850 135.253876 -3175.846680
v 2499.745850 172.802475 -3268.245605
v 2472.682861 172.802429 -3241.182373
v 2518.882324 172.802414 -3222.046143
v 2538.018799 172.802475 -3268.245605
v 2565.081787 172.802429 -3241.182617
v 2565.081787 172.802414 -3202.909912
v 2538.018799 172.802414 -3175.846680
v 2499.745850 172.802414 -3175.846680
v 2472.682861 172.802414 -3202.909668
vt 1.003922 0.997200
vt 1.003922 0.010742
vt 0.000000 0.010742
vt 0.000000 0.997200
vt 1.003922 0.010742
vt 1.003922 0.997200
vt 2.007843 0.010742
vt 2.007843 0.997200
vt 3.011765 0.010742
vt 3.011765 0.997200
vt 4.015687 0.010742
vt 4.015687 0.997200
vt 5.019608 0.010742
vt 5.019608 0.997200
vt 6.023530 0.010742
vt 6.023530 0.997200
vt 7.027452 0.010742
vt 7.027452 0.997200
vt 1.003922 0.008781
vt 1.003922 0.995239
vt 0.000000 0.995239
vt 0.000000 0.008781
vt 1.003922 0.995239
vt 1.003922 0.008781
vt 2.007843 0.995239
vt 2.007843 0.008781
vt 3.011765 0.995239
vt 3.011765 0.008781
vt 4.015687 0.995239
vt 4.015687 0.008781
vt 5.019608 0.995239
vt 5.019608 0.008781
vt 6.023530 0.995239
vt 6.023530 0.008781
vt 7.027452 0.995239
vt 7.027452 0.008781
vt 1.003922 0.997200
vt 1.003922 0.010742
vt 0.000000 0.010742
vt 0.000000 0.997200
vt 1.003922 0.010742
vt 1.003922 0.997200
vt 2.007843 0.010742
vt 2.007843 0.997200
vt 3.011765 0.010742
vt 3.011765 0.997200
vt 4.015687 0.010742
vt 4.015687 0.997200
vt 5.019608 0.010742
vt 5.019608 0.997200
vt 6.023530 0.010742
vt 6.023530 0.997200
vt 7.027452 0.010742
vt 7.027452 0.997200
vt 1.003922 0.008781
vt 1.003922 0.995239
vt 0.000000 0.995239
vt 0.000000 0.008781
vt 1.003922 0.995239
vt 1.003922 0.008781
vt 2.007843 0.995239
vt 2.007843 0.008781
vt 3.011765 0.995239
vt 3.011765 0.008781
vt 4.015687 0.995239
vt 4.015687 0.008781
vt 5.019608 0.995239
vt 5.019608 0.008781
vt 6.023530 0.995239
vt 6.023530 0.008781
vt 7.027452 0.995239
vt 7.027452 0.008781
vt 0.000000 0.000000
vt 1.003922 0.000000
vt 0.498039 -0.913726
vt 1.003922 0.000000
vt 0.000000 0.000000
vt 1.003922 0.000000
vt 0.000000 0.000000
vt 1.003922 0.000000
vt 0.000000 0.000000
vt 0.000000 0.000000
vt 1.003922 0.000000
vt 0.498039 -0.913726
vt 1.003922 0.000000
vt 0.000000 0.000000
vt 1.003922 0.000000
vt 0.000000 0.000000
vt 1.003922 0.000000
vt 0.000000 0.000000
vt 0.000000 -1.000000
vt 5.019608 -1.000000
vt 5.019608 -0.270588
vt 0.000000 -0.270588
vt 5.019608 -0.270588
vt 0.000000 -0.270588
vt 0.000000 -1.000000
vt 5.019608 -1.000000
vt 0.000000 -1.000000
vt 5.019608 -0.270588
vt 5.019608 -1.000000
vt 0.000000 -0.270588
vt 5.019608 -0.270588
vt 0.000000 -1.000000
vt 0.000000 -0.270588
vt 5.019608 -1.000000
vt 0.000000 -1.000000
vt 5.019608 -0.270588
vt 5.019608 -1.000000
vt 0.000000 -0.270588
vt 0.000000 -1.000000
vt 0.000000 -0.270588
vt 5.019608 -0.270588
vt 5.019608 -1.000000
vt 0.000000 -1.000000
vt 5.019608 -1.000000
vt 5.019608 -0.270588
vt 0.000000 -0.270588
vt 0.000000 -1.000000
vt 5.019608 -0.270588
vt 0.000000 -0.270588
vt 5.019608 -1.000000
vt 0.000000 0.000000
vt 0.000000 -1.000000
vt 2.007843 -1.000000
vt 2.007843 0.000000
vt 0.000000 0.000000
vt 0.000000 -1.000000
vt 2.007843 -1.000000
vt 2.007843 0.000000
vt 0.000000 0.000000
vt 0.000000 -1.000000
vt 2.007843 -1.000000
vt 2.007843 0.000000
vt 0.000000 0.000000
vt 0.000000 -1.000000
vt 2.007843 -1.000000
vt 2.007843 0.000000
vt 1.003922 0.000000
vt 0.952941 -0.117647
vt 0.050980 -0.117647
vt 0.000000 0.000000
vt 1.003922 0.000000
vt 0.952941 -0.117647
vt 0.050980 -0.117647
vt 0.000000 0.000000
vt 1.003922 0.000000
vt 0.952941 -0.117647
vt 0.050980 -0.117647
vt 0.000000 0.000000
vt 1.003922 0.000000
vt 0.952941 -0.117647
vt 0.050980 -0.117647
vt 0.000000 0.000000
vt 0.000000 0.000000
vt 4.015687 -1.000000
vt 4.015687 0.000000
vt 0.000000 -1.000000
vt 0.000000 0.000000
vt 4.015687 -1.000000
vt 4.015687 0.000000
vt 0.000000 -1.000000
vt 0.000000 0.000000
vt 4.015687 -1.000000
vt 4.015687 0.000000
vt 0.000000 -1.000000
vt 0.000000 0.000000
vt 4.015687 -1.000000
vt 4.015687 0.000000
vt 0.000000 -1.000000
vt 0.501961 -1.000000
vt 0.023529 -1.000000
vt 0.023529 4.015687
vt 0.501961 4.015687
vt 1.003922 -1.000000
vt 1.003922 4.015687
vt 0.501961 -1.000000
vt 0.023529 4.015687
vt 0.023529 -1.000000
vt 0.501961 4.015687
vt 1.003922 -1.000000
vt 1.003922 4.015687
vt 0.501961 -1.000000
vt 0.023529 4.015687
vt 0.023529 -1.000000
vt 0.501961 4.015687
vt 1.003922 -1.000000
vt 1.003922 4.015687
vt 0.501961 -1.000000
vt 0.023529 4.015687
vt 0.023529 -1.000000
vt 0.501961 4.015687
vt 1.003922 -1.000000
vt 1.003922 4.015687
vt 0.000000 -1.000000
vt 5.019608 -1.000000
vt 5.019608 -0.270588
vt 0.000000 -0.270588
vt 5.019608 -0.270588
vt 0.000000 -0.270588
vt 0.000000 -1.000000
vt 5.019608 -1.000000
vt 0.000000 -1.000000
vt 5.019608 -0.270588
vt 5.019608 -1.000000
vt 0.000000 -0.270588
vt 5.019608 -0.270588
vt 0.000000 -1.000000
vt 0.000000 -0.270588
vt 5.019608 -1.000000
vt 0.000000 -1.000000
vt 5.019608 -0.270588
vt 5.019608 -1.000000
vt 0.000000 -0.270588
vt 0.000000 -1.000000
vt 0.000000 -0.270588
vt 5.019608 -0.270588
vt 5.019608 -1.000000
vt 0.000000 -1.000000
vt 5.019608 -1.000000
vt 5.019608 -0.270588
vt 0.000000 -0.270588
vt 0.000000 -1.000000
vt 5.019608 -0.270588
vt 0.000000 -0.270588
vt 5.019608 -1.000000
vt 0.000000 0.000000
vt 0.000000 -1.000000
vt 2.007843 -1.000000
vt 2.007843 0.000000
vt 0.000000 0.000000
vt 0.000000 -1.000000
vt 2.007843 -1.000000
vt 2.007843 0.000000
vt 0.000000 0.000000
vt 0.000000 -1.000000
vt 2.007843 -1.000000
vt 2.007843 0.000000
vt 0.000000 0.000000
vt 0.000000 -1.000000
vt 2.007843 -1.000000
vt 2.007843 0.000000
vt 1.003922 0.000000
vt 0.952941 -0.117647
vt 0.050980 -0.117647
vt 0.000000 0.000000
vt 1.003922 0.000000
vt 0.952941 -0.117647
vt 0.050980 -0.117647
vt 0.000000 0.000000
vt 1.003922 0.000000
vt 0.952941 -0.117647
vt 0.050980 -0.117647
vt 0.000000 0.000000
vt 1.003922 0.000000
vt 0.952941 -0.117647
vt 0.050980 -0.117647
vt 0.000000 0.000000
vt 0.000000 0.000000
vt 4.015687 -1.000000
vt 4.015687 0.000000
vt 0.000000 -1.000000
vt 0.000000 0.000000
vt 4.015687 -1.000000
vt 4.015687 0.000000
vt 0.000000 -1.000000
vt 0.000000 0.000000
vt 4.015687 -1.000000
vt 4.015687 0.000000
vt 0.000000 -1.000000
vt 0.000000 0.000000
vt 4.015687 -1.000000
vt 4.015687 0.000000
vt 0.000000 -1.000000
vt 0.501961 -1.000000
vt 0.023529 -1.000000
vt 0.023529 4.015687
vt 0.501961 4.015687
vt 1.003922 -1.000000
vt 1.003922 4.015687
vt 0.501961 -1.000000
vt 0.023529 4.015687
vt 0.023529 -1.000000
vt 0.501961 4.015687
vt 1.003922 -1.000000
vt 1.003922 4.015687
vt 0.501961 -1.000000
vt 0.023529 4.015687
vt 0.023529 -1.000000
vt 0.501961 4.015687
vt 1.003922 -1.000000
vt 1.003922 4.015687
vt 0.501961 -1.000000
vt 0.023529 4.015687
vt 0.023529 -1.000000
vt 0.501961 4.015687
vt 1.003922 -1.000000
vt 1.003922 4.015687
vn -1.0000 0.0000 0.0000
vn -0.7071 0.0000 -0.7071
vn 0.0000 0.0000 -1.0000
vn 0.7071 0.0000 -0.7071
vn 1.0000 0.0000 0.0000
vn 0.7071 0.0000 0.7071
vn 0.0000 0.0000 1.0000
vn -0.7071 0.0000 0.7071
vn -0.0000 1.0000 0.0000
vn -0.0001 0.0000 -1.0000
vn 0.0001 0.0000 -1.0000
vn 1.0000 0.0001 0.0000
vn 1.0000 -0.0001 0.0000
vn 0.6822 0.7311 0.0000
vn 0.6823 0.7311 0.0000
vn 0.0000 0.7311 0.6823
vn -0.6823 0.7310 0.0000
vn -0.6823 0.7311 0.0000
vn 0.0000 0.7311 -0.6823
vn 0.6822 0.7312 0.0000
usemtl pr128_34_pr128_34.png
s 1
f 77/1/1 78/2/1 79/3/1
f 77/1/1 79/3/1 80/4/1
f 80/4/2 79/3/2 81/5/2
f 80/4/2 81/5/2 82/6/2
f 82/6/3 81/5/3 83/7/3
f 82/6/3 83/7/3 84/8/3
f 84/8/4 83/7/4 85/9/4
f 84/8/4 85/9/4 86/10/4
f 86/10/5 85/9/5 87/11/5
f 86/10/5 87/11/5 88/12/5
f 88/12/6 87/11/6 89/13/6
f 88/12/6 89/13/6 90/14/6
f 90/14/7 89/13/7 91/15/7
f 90/14/7 91/15/7 92/16/7
f 92/16/8 91/15/8 78/17/8
f 92/16/8 78/17/8 77/18/8
f 93/19/1 94/20/1 95/21/1
f 93/19/1 95/21/1 96/22/1
f 96/22/2 95/21/2 97/23/2
f 96/22/2 97/23/2 98/24/2
f 98/24/3 97/23/3 99/25/3
f 98/24/3 99/25/3 100/26/3
f 100/26/4 99/25/4 101/27/4
f 100/26/4 101/27/4 102/28/4
f 102/28/5 101/27/5 103/29/5
f 102/28/5 103/29/5 104/30/5
f 104/30/6 103/29/6 105/31/6
f 104/30/6 105/31/6 106/32/6
f 106/32/7 105/31/7 107/33/7
f 106/32/7 107/33/7 108/34/7
f 108/34/8 107/33/8 94/35/8
f 108/34/8 94/35/8 93/36/8
f 194/37/1 195/38/1 196/39/1
f 194/37/1 196/39/1 197/40/1
f 197/40/2 196/39/2 198/41/2
f 197/40/2 198/41/2 199/42/2
f 199/42/3 198/41/3 200/43/3
f 199/42/3 200/43/3 201/44/3
f 201/44/4 200/43/4 202/45/4
f 201/44/4 202/45/4 203/46/4
f 203/46/5 202/45/5 204/47/5
f 203/46/5 204/47/5 205/48/5
f 205/48/6 204/47/6 206/49/6
f 205/48/6 206/49/6 207/50/6
f 207/50/7 206/49/7 208/51/7
f 207/50/7 208/51/7 209/52/7
f 209/52/8 208/51/8 195/53/8
f 209/52/8 195/53/8 194/54/8
f 210/55/1 211/56/1 212/57/1
f 210/55/1 212/57/1 213/58/1
f 213/58/2 212/57/2 214/59/2
f 213/58/2 214/59/2 215/60/2
f 215/60/3 214/59/3 216/61/3
f 215/60/3 216/61/3 217/62/3
f 217/62/4 216/61/4 218/63/4
f 217/62/4 218/63/4 219/64/4
f 219/64/5 218/63/5 220/65/5
f 219/64/5 220/65/5 221/66/5
f 221/66/6 220/65/6 222/67/6
f 221/66/6 222/67/6 223/68/6
f 223/68/7 222/67/7 224/69/7
f 223/68/7 224/69/7 225/70/7
f 225/70/8 224/69/8 211/71/8
f 225/70/8 211/71/8 210/72/8
usemtl pr128_12
f 109/73/9 110/74/9 111/75/9
f 109/73/9 111/75/9 112/76/9
f 112/76/9 111/75/9 113/77/9
f 114/78/9 113/77/9 111/75/9
f 114/78/9 111/75/9 115/79/9
f 115/79/9 111/75/9 116/80/9
f 111/75/9 117/81/9 116/80/9
f 117/81/9 111/75/9 110/74/9
f 226/82/9 227/83/9 228/84/9
f 226/82/9 228/84/9 229/85/9
f 229/85/9 228/84/9 230/86/9
f 231/87/9 230/86/9 228/84/9
f 231/87/9 228/84/9 232/88/9
f 232/88/9 228/84/9 233/89/9
f 228/84/9 234/90/9 233/89/9
f 234/90/9 228/84/9 227/83/9
usemtl pr128_27
f 1/91/10 2/92/3 3/93/3
f 3/93/3 4/94/10 1/91/10
f 5/95/10 6/96/11 7/97/11
f 7/97/11 8/98/10 5/95/10
f 9/99/3 10/100/3 11/101/3
f 10/100/3 9/99/3 12/102/3
f 13/103/3 14/104/3 15/105/3
f 14/104/3 13/103/3 16/106/3
f 17/107/12 18/108/13 19/109/13
f 18/108/13 17/107/12 20/110/12
f 21/111/5 22/112/5 23/113/5
f 23/113/5 24/114/5 21/111/5
f 25/115/12 26/116/13 27/117/13
f 27/117/13 28/118/12 25/115/12
f 29/119/5 30/120/5 31/121/5
f 30/120/5 29/119/5 32/122/5
f 33/123/1 34/124/1 35/125/1
f 35/125/1 36/126/1 33/123/1
f 37/127/7 38/128/7 34/129/7
f 34/129/7 33/130/7 37/127/7
f 39/131/5 40/132/5 38/133/5
f 38/133/5 37/134/5 39/131/5
f 36/135/3 35/136/3 40/137/3
f 40/137/3 39/138/3 36/135/3
f 34/139/14 41/140/14 42/141/14
f 42/141/15 35/142/15 34/139/15
f 35/143/16 42/144/16 43/145/16
f 43/145/16 40/146/16 35/143/16
f 40/147/17 43/148/17 44/149/17
f 44/149/18 38/150/18 40/147/18
f 38/151/19 44/152/19 41/153/19
f 41/153/19 34/154/19 38/151/19
f 45/155/1 46/156/1 47/157/1
f 46/156/1 45/155/1 48/158/1
f 47/159/7 49/160/7 50/161/7
f 49/160/7 47/159/7 46/162/7
f 50/163/5 51/164/5 52/165/5
f 51/164/5 50/163/5 49/166/5
f 52/167/3 48/168/3 45/169/3
f 48/168/3 52/167/3 51/170/3
f 53/171/3 54/172/3 55/173/3
f 55/173/3 56/174/3 53/171/3
f 57/175/5 53/171/5 56/174/5
f 56/174/5 58/176/5 57/175/5
f 59/177/5 60/178/5 61/179/5
f 60/178/5 59/177/5 62/180/5
f 63/181/7 62/180/7 59/177/7
f 62/180/7 63/181/7 64/182/7
f 65/183/3 66/184/3 67/185/3
f 66/184/3 65/183/3 68/186/3
f 69/187/5 68/186/5 65/183/5
f 68/186/5 69/187/5 70/188/5
f 71/189/1 72/190/1 73/191/1
f 72/190/1 71/189/1 74/192/1
f 75/193/3 74/192/3 71/189/3
f 74/192/3 75/193/3 76/194/3
f 118/195/3 119/196/3 120/197/3
f 120/197/3 121/198/3 118/195/3
f 122/199/3 123/200/3 124/201/3
f 124/201/3 125/202/3 122/199/3
f 126/203/3 127/204/3 128/205/3
f 127/204/3 126/203/3 129/206/3
f 130/207/3 131/208/3 132/209/3
f 131/208/3 130/207/3 133/210/3
f 134/211/12 135/212/13 136/213/13
f 135/212/13 134/211/12 137/214/12
f 138/215/5 139/216/5 140/217/5
f 140/217/5 141/218/5 138/215/5
f 142/219/12 143/220/13 144/221/13
f 144/221/13 145/222/12 142/219/12
f 146/223/5 147/224/5 148/225/5
f 147/224/5 146/223/5 149/226/5
f 150/227/1 151/228/1 152/229/1
f 152/229/1 153/230/1 150/227/1
f 154/231/7 155/232/7 151/233/7
f 151/233/7 150/234/7 154/231/7
f 156/235/5 157/236/5 155/237/5
f 155/237/5 154/238/5 156/235/5
f 153/239/3 152/240/3 157/241/3
f 157/241/3 156/242/3 153/239/3
f 151/243/20 158/244/20 159/245/20
f 159/245/15 152/246/15 151/243/15
f 152/247/16 159/248/16 160/249/16
f 160/249/16 157/250/16 152/247/16
f 157/251/17 160/252/17 161/253/17
f 161/253/18 155/254/18 157/251/18
f 155/255/19 161/256/19 158/257/19
f 158/257/19 151/258/19 155/255/19
f 162/259/1 163/260/1 164/261/1
f 163/260/1 162/259/1 165/262/1
f 164/263/7 166/264/7 167/265/7
f 166/264/7 164/263/7 163/266/7
f 167/267/5 168/268/5 169/269/5
f 168/268/5 167/267/5 166/270/5
f 169/271/3 165/272/3 162/273/3
f 165/272/3 169/271/3 168/274/3
f 170/275/3 171/276/3 172/277/3
f 172/277/3 173/278/3 170/275/3
f 174/279/5 170/275/5 173/278/5
f 173/278/5 175/280/5 174/279/5
f 176/281/5 177/282/5 178/283/5
f 177/282/5 176/281/5 179/284/5
f 180/285/7 179/284/7 176/281/7
f 179/284/7 180/285/7 181/286/7
f 182/287/3 183/288/3 184/289/3
f 183/288/3 182/287/3 185/290/3
f 186/291/5 185/290/5 182/287/5
f 185/290/5 186/291/5 187/292/5
f 188/293/1 189/294/1 190/295/1
f 189/294/1 188/293/1 191/296/1
f 192/297/3 191/296/3 188/293/3
f 191/296/3 192/297/3 193/298/3
