# Blender v2.79 (sub 0) OBJ File: 'LittleSpeedBumpThingy.blend'
# www.blender.org
mtllib LittleSpeedBumpThingyCollision.mtl
o Cube.002
v -18.239689 11.004388 3.530566
v -18.239689 0.000024 -3.530563
v -18.239689 0.000024 3.530563
v -18.239689 11.004388 -3.530563
v 18.239689 0.000024 -3.530563
v 18.239689 11.004388 -3.530563
v 18.239689 0.000024 3.530563
v 18.239689 11.004388 3.530566
vt 0.701509 0.378111
vt 0.518790 0.378111
vt 0.573818 0.294286
vt 0.000253 0.447539
vt 0.518284 0.600285
vt 0.000253 0.600285
vt 0.701509 0.462442
vt 0.518790 0.462442
vt 0.573818 0.378617
vt 0.540334 0.146763
vt 0.000253 0.146763
vt 0.497134 0.000253
vt 0.527900 0.798189
vt 0.000253 0.798189
vt 0.019309 0.699744
vt 0.000253 0.600792
vt 0.527900 0.600792
vt 0.508844 0.699237
vt 0.693587 0.000253
vt 0.693587 0.100526
vt 0.540840 0.100526
vt 0.000253 0.293780
vt 0.497134 0.147270
vt 0.540334 0.293780
vt 0.671537 0.462948
vt 0.671537 0.563221
vt 0.518790 0.563221
vt 0.518284 0.447033
vt 0.000253 0.447033
vt 0.000253 0.294286
vt 0.518284 0.798695
vt 0.518284 0.898968
vt 0.000253 0.898968
vt 0.000253 0.999747
vt 0.000253 0.899474
vt 0.518284 0.899474
vn -1.0000 -0.0000 0.0000
vn 0.0000 0.0000 -1.0000
vn 1.0000 -0.0000 0.0000
vn 0.0000 -0.0000 1.0000
vn 0.0000 -1.0000 -0.0000
vn 0.0000 1.0000 0.0000
usemtl None
s 1
f 1/1/1 2/2/1 3/3/1
f 4/4/2 5/5/2 2/6/2
f 6/7/3 7/8/3 5/9/3
f 8/10/4 3/11/4 7/12/4
f 5/13/5 3/14/5 2/15/5
f 4/16/6 8/17/6 6/18/6
f 1/19/1 4/20/1 2/21/1
f 4/22/2 6/23/2 5/24/2
f 6/25/3 8/26/3 7/27/3
f 8/28/4 1/29/4 3/30/4
f 5/31/5 7/32/5 3/33/5
f 4/34/6 1/35/6 8/36/6
