mtllib TrafficLight.mtl
v 0.031235 36.840973 5.200027
v -1.081902 36.619556 5.200027
v -2.025573 35.989014 5.200027
v -2.656115 35.045341 5.200027
v -2.877532 33.932205 5.200027
v -2.656115 32.819069 5.200027
v -2.025573 31.875397 5.200027
v -1.081902 31.244856 5.200027
v 0.031235 31.023439 5.200027
v 1.144371 31.244856 5.200027
v 2.088043 31.875397 5.200027
v 2.718585 32.819069 5.200027
v 2.940001 33.932205 5.200027
v 2.718585 35.045341 5.200027
v 2.088043 35.989014 5.200027
v 1.144371 36.619556 5.200027
v 3.976601 33.949135 5.109890
v -3.976601 23.251411 5.109889
v 3.976601 23.251411 5.109889
v -3.976601 33.949135 5.109890
v 2.736351 36.711475 5.109890
v -2.736345 36.711475 5.109890
v 0.000003 37.974716 5.109890
v 4.400002 38.249096 4.930057
v 4.400002 34.999096 -1.430052
v -4.400002 38.249096 4.930057
v -4.400002 34.999096 -1.430052
v 4.400002 34.999096 -1.430052
v 4.400002 38.249096 4.930057
v 4.400002 28.249100 4.930056
v -4.400002 28.249100 4.930056
v -4.400002 38.249096 4.930057
v -4.400002 34.999096 -1.430052
v -4.400002 34.999096 -1.430052
v 4.400002 34.999096 -1.430052
v -4.400002 28.249100 4.930056
v 4.400002 28.249100 4.930056
v -12.922960 66.992889 -7.939773
v -12.922960 66.992889 -9.939773
v -12.922960 46.992893 -7.939774
v -12.922960 46.992893 -9.939774
v 6.077039 66.992889 -7.939773
v -12.922960 66.992889 -7.939773
v 6.077039 46.992893 -7.939774
v -12.922960 46.992893 -7.939774
v 6.077039 66.992889 -9.939773
v 6.077039 66.992889 -7.939773
v 6.077039 46.992893 -9.939774
v 6.077039 46.992893 -7.939774
v 6.077039 66.992889 -7.939773
v 6.077039 66.992889 -9.939773
v -12.922960 66.992889 -7.939773
v -12.922960 66.992889 -9.939773
v -1.722046 4.311599 -0.250000
v 1.742050 -0.000901 -0.250000
v -1.722046 -0.000901 -0.250000
v 1.742050 4.311598 -0.250000
v -1.722046 34.499096 -0.249998
v 1.742050 34.499096 -0.249998
v -3.790076 33.900002 5.000003
v -4.394875 33.900002 14.150003
v -2.679988 31.220013 5.000003
v -3.107646 37.007648 14.150003
v -2.679988 36.579990 5.000003
v 0.000000 38.294876 14.150003
v 0.000000 37.690079 5.000003
v 3.107646 37.007648 14.150003
v 2.679989 36.579990 5.000003
v 4.394876 33.900002 14.150003
v 3.790077 33.900002 5.000003
v 3.107646 30.792355 14.150002
v 2.679988 31.220013 5.000003
v 4.394876 33.900002 5.000001
v 4.394876 33.900002 14.150003
v 3.107646 30.792355 5.000001
v 3.107646 37.007648 14.150003
v 3.107646 37.007648 5.000001
v 0.000000 38.294876 14.150003
v 0.000000 38.294876 5.000002
v -3.107646 37.007648 14.150003
v -3.107646 37.007648 5.000001
v -4.394875 33.900002 14.150003
v -4.394875 33.900002 5.000001
v -3.107646 30.792355 14.150002
v -3.107646 30.792355 5.000001
v -3.107646 30.792355 14.150002
v 3.107646 30.792355 14.150002
v 0.010002 34.499096 2.750001
v 0.010002 8.624098 2.750000
v 1.742050 34.499096 -0.249998
v 1.742050 4.311598 -0.250000
v -1.722046 34.499096 -0.249998
v -1.722046 4.311599 -0.250000
v 0.010002 34.499096 2.750001
v 0.010002 8.624098 2.750000
v 1.742050 -0.000901 -0.250000
v 1.742050 4.311598 -0.250000
v 0.010002 -0.000901 2.750000
v 0.010002 8.624098 2.750000
v 0.010002 -0.000901 2.750000
v 0.010002 8.624098 2.750000
v -1.722046 -0.000901 -0.250000
v -1.722046 4.311599 -0.250000
v -5.866086 39.115181 5.020064
v -5.866086 28.383018 5.020062
v 5.866076 39.115181 5.020064
v 5.866076 28.383018 5.020062
vt 0.336204 0.129784
vt 0.126659 0.339329
vt 0.336204 0.845216
vt 0.484375 0.874689
vt 0.632546 0.845216
vt 0.758159 0.761284
vt 0.842091 0.635671
vt 0.871564 0.487500
vt 0.842091 0.339329
vt 0.758159 0.213716
vt 0.632546 0.129784
vt 0.484375 0.100311
vt 0.210591 0.213716
vt 0.097186 0.487500
vt 0.126659 0.635671
vt 0.210591 0.761284
vt 0.250244 0.925709
vt 0.000000 0.750733
vt 0.250244 0.750733
vt 0.000000 0.925709
vt 0.198436 0.980450
vt 0.051808 0.980450
vt 0.125122 0.980450
vt -0.000156 1.000041
vt -0.000156 0.519103
vt 1.000822 1.000041
vt 1.000822 0.519103
vt 1.000822 0.519103
vt 1.000822 1.000041
vt -0.000156 1.000041
vt -0.000156 1.000041
vt 1.000822 1.000041
vt 1.000822 0.519103
vt -0.000156 0.519103
vt 1.000822 0.519103
vt -0.000156 0.002974
vt 1.000822 0.002974
vt 0.946261 1.000072
vt 0.789858 1.000072
vt 0.946261 0.003005
vt 0.789858 0.003005
vt 1.001001 1.000072
vt 0.000024 1.000072
vt 1.001001 0.003005
vt 0.000024 0.003005
vt 0.195527 1.000072
vt 0.039125 1.000072
vt 0.195527 0.003005
vt 0.039125 0.003005
vt 0.000024 0.167228
vt 0.000024 0.003005
vt 1.001001 0.167228
vt 1.001001 0.003005
vt 0.232444 0.328374
vt -0.017800 0.414396
vt -0.017800 0.328374
vt 0.232444 0.414396
vt 1.984155 0.328374
vt 1.984155 0.414396
vt 0.263725 0.445676
vt 0.263725 0.281453
vt 0.764213 0.445676
vt 0.764213 0.281453
vt 0.764213 0.445676
vt 0.263725 0.281453
vt 0.263725 0.445676
vt 0.764213 0.281453
vt 0.764213 0.445676
vt 0.263725 0.281453
vt 0.263725 0.445676
vt 0.764213 0.281453
vt 0.764213 0.445676
vt 0.764213 0.320554
vt 0.764213 0.015569
vt 0.263725 0.320554
vt 0.263725 0.015569
vt 0.263725 0.320554
vt 0.764213 0.015569
vt 0.764213 0.320554
vt 0.263725 0.015569
vt 0.263725 0.320554
vt 0.764213 0.015569
vt 0.764213 0.320554
vt 0.263725 0.015569
vt 0.263725 0.320554
vt 0.764213 0.281453
vt 0.263725 0.015569
vt -0.017800 0.652910
vt 1.483666 0.652910
vt -0.017800 -0.000072
vt 1.733910 -0.000072
vt 1.984155 -0.000072
vt 0.232444 -0.000072
vt 1.984155 0.652910
vt 0.482688 0.652910
vt 1.984155 -0.000072
vt 1.733910 -0.000072
vt 1.984155 0.652910
vt 1.483666 0.652910
vt -0.017800 0.652910
vt 0.482688 0.652910
vt -0.017800 -0.000072
vt 0.232444 -0.000072
vt 0.000177 0.999969
vt 0.000177 0.000946
vt 1.001155 0.999969
vt 1.001155 0.000946
vn 0.0000 0.0000 1.0000
vn 0.0000 -0.0000 1.0000
vn 0.0000 0.8905 -0.4550
vn 1.0000 0.0000 0.0000
vn -1.0000 0.0000 0.0000
vn 0.0000 -0.6858 -0.7278
vn -1.0000 0.0000 0.0000
vn 0.0000 0.0000 1.0000
vn 1.0000 0.0000 0.0000
vn 0.0000 1.0000 0.0000
vn 0.0000 0.0000 -1.0000
vn 0.9978 0.0000 0.0660
vn 0.9221 0.3820 0.0609
vn 0.7056 -0.7056 0.0660
vn 0.0000 -0.9978 0.0660
vn -0.7056 -0.7056 0.0660
vn -0.9978 0.0000 0.0660
vn -0.9221 0.3820 0.0609
vn 1.0000 0.0000 0.0000
vn 0.9239 -0.3827 0.0000
vn 0.7071 0.7071 0.0000
vn 0.0000 1.0000 0.0000
vn -0.7071 0.7071 0.0000
vn -1.0000 0.0000 0.0000
vn -0.9239 -0.3827 0.0000
vn 0.8660 0.0000 0.5000
vn -0.8660 0.0000 0.5000
vn 0.0000 -0.0000 1.0000
usemtl texture_3_material_0
f 54/54/11 55/55/11 56/56/11
f 54/54/11 57/57/11 55/55/11
f 58/58/11 57/57/11 54/54/11
f 58/58/11 59/59/11 57/57/11
f 60/60/12 61/61/12 62/62/13
f 60/60/12 63/63/14 61/61/12
f 64/64/14 63/63/14 60/60/12
f 64/64/14 65/65/15 63/63/14
f 66/66/15 65/65/15 64/64/14
f 66/66/15 67/67/16 65/65/15
f 68/68/16 67/67/16 66/66/15
f 68/68/16 69/69/17 67/67/16
f 70/70/17 69/69/17 68/68/16
f 70/70/17 71/71/18 69/69/17
f 72/72/18 71/71/18 70/70/17
f 73/73/19 74/74/19 75/75/20
f 73/73/19 76/76/21 74/74/19
f 77/77/21 76/76/21 73/73/19
f 77/77/21 78/78/22 76/76/21
f 79/79/22 78/78/22 77/77/21
f 79/79/22 80/80/23 78/78/22
f 81/81/23 80/80/23 79/79/22
f 81/81/23 82/82/24 80/80/23
f 83/83/24 82/82/24 81/81/23
f 83/83/24 84/84/25 82/82/24
f 85/85/25 84/84/25 83/83/24
f 86/86/13 62/62/13 61/61/12
f 87/87/20 75/75/20 74/74/19
f 88/88/26 89/89/26 90/90/26
f 91/91/26 90/90/26 89/89/26
f 92/92/27 93/93/27 94/94/27
f 95/95/27 94/94/27 93/93/27
f 96/96/26 97/97/26 98/98/26
f 99/99/26 98/98/26 97/97/26
f 100/100/27 101/101/27 102/102/27
f 103/103/27 102/102/27 101/101/27
usemtl texture_5_material_0
f 17/17/2 18/18/2 19/19/2
f 17/17/2 20/20/2 18/18/2
f 21/21/2 20/20/2 17/17/2
f 21/21/2 22/22/2 20/20/2
f 21/21/2 23/23/2 22/22/2
usemtl None
f 11/1/1 13/2/1 1/3/1
f 1/3/1 2/4/1 3/5/1
f 3/5/1 4/6/1 5/7/1
f 5/7/1 6/8/1 7/9/1
f 7/9/1 8/10/1 9/11/1
f 9/11/1 10/12/1 11/1/1
f 11/1/1 12/13/1 13/2/1
f 13/2/1 14/14/1 1/3/1
f 14/14/1 15/15/1 1/3/1
f 15/15/1 16/16/1 1/3/1
f 1/3/1 3/5/1 5/7/1
f 5/7/1 7/9/1 1/3/1
f 7/9/1 9/11/1 1/3/1
f 9/11/1 11/1/1 1/3/1
usemtl texture_4_material_0
f 24/24/3 25/25/3 26/26/3
f 27/27/3 26/26/3 25/25/3
f 28/28/4 29/29/4 30/30/4
f 31/31/5 32/32/5 33/33/5
f 34/34/6 35/35/6 36/36/6
f 37/37/6 36/36/6 35/35/6
usemtl texture_2_material_0
f 104/104/28 105/105/28 106/106/28
f 107/107/28 106/106/28 105/105/28
usemtl texture_1_material_0
f 38/38/7 39/39/7 40/40/7
f 41/41/7 40/40/7 39/39/7
f 42/42/8 43/43/8 44/44/8
f 45/45/8 44/44/8 43/43/8
f 46/46/9 47/47/9 48/48/9
f 49/49/9 48/48/9 47/47/9
f 50/50/10 51/51/10 52/52/10
f 53/53/10 52/52/10 51/51/10
