# Blender v2.79 (sub 0) OBJ File: ''
# www.blender.org
mtllib Glasses.mtl
v 3.629335 13.011361 0.806127
v 3.617152 13.010559 -0.577643
v 2.430383 15.272960 -0.586154
v 2.442555 15.273766 0.797610
v 4.296394 10.384928 0.801699
v 4.284209 10.384113 -0.582060
v 1.816684 20.224197 -1.350504
v 1.665675 18.822353 0.153264
v 1.652334 18.821465 -1.363337
v 1.830043 20.225098 0.166105
v 1.679027 18.823235 1.669866
v 1.843371 20.225965 1.682706
vt 0.009800 0.972500
vt 0.975400 0.000000
vt 0.009800 0.000000
vt 0.975400 0.972500
vt 0.972900 0.972500
vt 0.016600 0.000000
vt 0.972900 0.000000
vt 0.016600 0.972500
vt 1.568600 0.972500
vt 1.568600 0.000000
vt 3.000000 0.000000
vt 3.000000 0.972500
vt 0.000000 0.972500
vt 0.000000 0.000000
vn 0.9932 -0.1163 -0.0087
vn 0.9339 0.3575 -0.0084
vn 0.9337 0.3580 -0.0084
vn 0.8855 0.4645 -0.0081
vn 0.9692 0.2462 -0.0087
usemtl material_481
s 1
f 7/1/1 8/2/1 9/3/1
f 8/2/1 7/1/1 10/4/1
f 10/5/1 11/6/1 8/7/1
f 11/6/1 10/5/1 12/8/1
usemtl material_461
f 1/9/2 2/10/3 3/11/4
f 3/11/4 4/12/4 1/9/2
f 5/13/5 6/14/5 2/10/3
f 2/10/3 1/9/2 5/13/5
