mtllib Pole6.mtl
v -4.550003 -0.000010 7.880831 1.000000 1.000000 1.000000
v 4.549999 -0.000010 7.880834 0.247059 0.368627 0.450980
v 4.549999 56.215199 7.880843 0.345098 0.462745 0.537255
v 9.100002 -0.000009 0.000001 0.447059 0.600000 0.698039
v 4.550001 -0.000007 -7.880831 0.447059 0.600000 0.698039
v 4.550001 56.215199 -7.880822 0.447059 0.600000 0.698039
v -4.550000 -0.000007 -7.880832 0.521569 0.658824 0.749020
v -4.550000 56.215199 -7.880823 0.654902 0.772549 0.850980
v -9.100001 -0.000009 -0.000000 1.000000 1.000000 1.000000
v -9.100001 56.215199 0.000009 1.000000 1.000000 1.000000
v -4.550003 56.215199 7.880840 1.000000 1.000000 1.000000
v -3.525158 69.868172 6.105762 1.000000 1.000000 1.000000
v 9.100002 56.215199 0.000011 0.654902 0.749020 0.811765
v 7.050314 69.868172 0.000013 0.654902 0.749020 0.811765
v 3.525157 69.868172 -6.105739 0.447059 0.600000 0.698039
v -3.525156 69.868172 -6.105740 0.654902 0.772549 0.850980
v -7.050312 69.868172 0.000012 1.000000 1.000000 1.000000
v 3.525156 69.868172 6.105763 0.345098 0.462745 0.537255
v 0.000000 69.868172 3.852118 1.000000 1.000000 1.000000
v 3.852107 69.868172 0.000011 0.349020 0.494118 0.588235
v 0.000000 78.000000 1.838491 1.000000 1.000000 1.000000
v 1.838478 78.000000 0.000013 0.349020 0.494118 0.588235
v -11.542960 113.848099 0.000019 1.000000 1.000000 1.000000
v 0.000000 120.510498 -1.838458 0.447059 0.600000 0.698039
v 0.000000 69.868172 -3.852096 0.447059 0.600000 0.698039
v -3.852107 69.868172 0.000011 1.000000 1.000000 1.000000
v 0.000000 78.000000 -1.838465 0.447059 0.600000 0.698039
v -1.838478 78.000000 0.000013 1.000000 1.000000 1.000000
v 0.000000 151.199997 0.000025 0.447059 0.600000 0.698039
v 11.542960 113.848099 0.000019 0.447059 0.600000 0.698039
v -1.838478 117.037399 0.000019 1.000000 1.000000 1.000000
v 0.000000 120.510498 1.838498 1.000000 1.000000 1.000000
v 1.838478 117.037399 0.000019 0.349020 0.494118 0.588235
vt 0.166600 -0.003900
vt 0.333200 -0.003900
vt 0.166600 0.996100
vt 0.333200 0.996100
vt 0.503900 -0.003900
vt 0.503900 0.996100
vt 0.003900 -0.003900
vt 0.003900 0.996100
vt 0.333200 -0.960900
vt 0.666000 -0.960900
vt 0.333200 -1.476500
vt 0.666000 -1.476500
vt 0.999900 -0.960900
vt 0.999900 -1.476500
vt 1.333000 -0.960900
vt 1.333000 -1.476500
vt 1.666500 -0.960900
vt 1.666500 -1.476500
vt 1.999900 -0.960900
vt 1.999900 -1.476500
vt 0.000000 -0.960900
vt 0.000000 -1.476500
vt 1.523400 -0.273400
vt 1.273400 -0.031200
vt 1.273400 -0.515600
vt 0.898400 -0.031200
vt 0.898400 -0.515600
vt 0.624900 -0.265600
vt 0.812400 -1.496000
vt 0.874900 -1.496000
vt 0.812400 -1.347600
vt 0.863200 -1.347600
vt 0.855400 -0.968700
vt 0.749900 -0.999900
vt 0.874900 -0.902300
vt 0.749900 -1.496000
vt 0.761700 -1.347600
vt 0.999900 -0.999900
vt 0.874900 -0.499900
vt 0.812400 -0.999900
vt 0.761700 -1.035100
vt 0.863200 -1.031200
vt 0.890600 -0.964800
vn -0.499985 0.000000 0.866024
vn 0.499985 0.000000 0.866024
vn -0.498672 0.072726 0.863704
vn 0.498672 0.072726 0.863704
vn 1.000000 0.000000 0.000000
vn 0.997345 0.072726 0.000000
vn 0.499985 0.000000 -0.866024
vn 0.498672 0.072726 -0.863704
vn -0.499985 0.000000 -0.866024
vn -0.498672 0.072726 -0.863704
vn -1.000000 0.000000 0.000000
vn -0.997345 0.072726 0.000000
vn -0.373241 0.665365 0.646474
vn 0.373241 0.665365 0.646474
vn 0.746483 0.665365 0.000000
vn 0.373241 0.665365 -0.646474
vn -0.373241 0.665365 -0.646474
vn -0.746483 0.665365 0.000000
vn 0.000000 0.240333 0.970672
vn 0.970672 0.240333 0.000000
vn 0.000000 0.128178 0.991729
vn 0.991729 0.128178 0.000000
vn -0.748589 -0.662984 0.000000
vn -0.758385 -0.651784 0.000000
vn 0.000000 -0.067721 -0.997681
vn 0.000000 0.240364 -0.970672
vn -0.970672 0.240333 0.000000
vn 0.000000 0.128178 -0.991729
vn -0.991729 0.128178 0.000000
vn 0.000000 -0.067721 0.997681
vn 0.758385 -0.651784 0.000000
vn 0.000000 1.000000 0.000000
vn 0.748589 -0.662984 0.000000
usemtl unnamed.0
f 1/1/1 2/2/2 11/3/3
f 2/2/2 3/4/4 11/3/3
f 2/2/2 4/5/5 3/4/4
f 4/5/5 13/6/6 3/4/4
f 4/5/5 5/2/7 13/6/6
f 5/2/7 6/4/8 13/6/6
f 5/2/7 7/1/9 6/4/8
f 7/1/9 8/3/10 6/4/8
f 7/1/9 9/7/11 8/3/10
f 9/7/11 10/8/12 8/3/10
f 9/7/11 1/1/1 10/8/12
f 1/1/1 11/3/3 10/8/12
usemtl unnamed.1
f 11/9/3 3/10/4 12/11/13
f 3/10/4 18/12/14 12/11/13
f 3/10/4 13/13/6 18/12/14
f 13/13/6 14/14/15 18/12/14
f 13/13/6 6/15/8 14/14/15
f 6/15/8 15/16/16 14/14/15
f 6/15/8 8/17/10 15/16/16
f 8/17/10 16/18/17 15/16/16
f 8/17/10 10/19/12 16/18/17
f 10/19/12 17/20/18 16/18/17
f 10/21/12 11/9/3 17/22/18
f 11/9/3 12/11/13 17/22/18
f 14/23/15 15/24/16 18/25/14
f 15/24/16 16/26/17 18/25/14
f 12/27/13 16/26/17 17/28/18
f 18/25/14 16/26/17 12/27/13
usemtl unnamed.2
f 19/29/19 20/30/20 21/31/21
f 20/30/20 22/32/22 21/31/21
f 31/33/23 23/34/24 24/35/25
f 25/29/26 26/36/27 27/31/28
f 28/37/29 27/31/28 26/36/27
f 20/30/20 25/29/26 22/32/22
f 25/29/26 27/31/28 22/32/22
f 26/36/27 19/29/19 28/37/29
f 19/29/19 21/31/21 28/37/29
f 32/35/30 23/34/24 31/33/23
f 32/35/30 30/38/31 29/39/32
f 24/35/25 29/39/32 30/38/31
f 24/40/25 27/31/28 31/41/23
f 27/31/28 28/37/29 31/41/23
f 32/40/30 31/41/23 21/31/21
f 28/37/29 21/31/21 31/41/23
f 32/40/30 21/31/21 33/42/33
f 21/31/21 22/32/22 33/42/33
f 24/40/25 33/42/33 27/31/28
f 22/32/22 27/31/28 33/42/33
f 32/35/30 33/43/33 30/38/31
f 24/35/25 30/38/31 33/43/33
f 32/35/30 29/39/32 23/34/24
f 24/35/25 23/34/24 29/39/32
