mtllib Pole4.mtl
v -4.550003 -16.000002 7.880828 0.447059 0.600000 0.698039
v 9.100002 -16.000000 -0.000001 1.000000 1.000000 1.000000
v 4.550001 -15.999999 -7.880833 1.000000 1.000000 1.000000
v -4.550000 -15.999999 -7.880835 0.203922 0.349020 0.443137
v -9.100001 48.169407 0.000008 0.447059 0.600000 0.698039
v 4.549999 -16.000002 7.880832 0.607843 0.717647 0.792157
v -3.525158 -37.000000 6.105745 0.447059 0.600000 0.698039
v 3.525157 -37.000000 -6.105756 1.000000 1.000000 1.000000
v -3.525156 -37.000000 -6.105757 0.203922 0.349020 0.443137
v -9.100001 -16.000000 -0.000003 0.447059 0.600000 0.698039
v -7.050312 -37.000000 -0.000006 0.447059 0.600000 0.698039
v -4.550003 48.169407 7.880838 0.447059 0.600000 0.698039
v 4.549999 48.169407 7.880842 0.721569 0.807843 0.862745
v 3.525156 66.000000 6.105763 0.721569 0.807843 0.862745
v 9.100002 48.169407 0.000009 1.000000 1.000000 1.000000
v 7.050314 66.000000 0.000012 1.000000 1.000000 1.000000
v 4.550001 48.169407 -7.880823 1.000000 1.000000 1.000000
v -4.550000 48.169407 -7.880825 0.294118 0.458824 0.572549
v -7.050312 66.000000 0.000011 0.447059 0.600000 0.698039
v 7.050314 -37.000000 -0.000005 1.000000 1.000000 1.000000
v 3.525156 -37.000000 6.105746 0.607843 0.717647 0.792157
v 3.525157 66.000000 -6.105739 1.000000 1.000000 1.000000
v -3.525156 66.000000 -6.105740 0.294118 0.458824 0.572549
v -3.525158 66.000000 6.105761 0.447059 0.600000 0.698039
v 8.396525 -15.082660 -0.000002 0.447059 0.600000 0.698039
v 20.003130 -2.400000 1.175140 0.447059 0.600000 0.698039
v 8.396525 -2.400000 1.175140 0.447059 0.600000 0.698039
v 8.396525 -1.417544 -0.000000 1.000000 1.000000 1.000000
v 20.003130 -1.417544 -0.000000 1.000000 1.000000 1.000000
v 8.396525 -2.400000 -1.175140 1.000000 1.000000 1.000000
v 20.003130 -2.400000 -1.175140 1.000000 1.000000 1.000000
v 20.003130 -21.105209 -0.000003 0.447059 0.600000 0.698039
v 0.000000 66.000000 3.852118 0.447059 0.600000 0.698039
v 3.852107 66.000000 0.000011 1.000000 1.000000 1.000000
v 0.000000 78.000000 1.838491 0.447059 0.600000 0.698039
v 1.838478 78.000000 0.000013 1.000000 1.000000 1.000000
v -11.542960 113.848099 0.000019 1.000000 1.000000 1.000000
v 0.000000 66.000000 -3.852096 1.000000 1.000000 1.000000
v -3.852107 66.000000 0.000011 0.349020 0.494118 0.588235
v 0.000000 78.000000 -1.838465 1.000000 1.000000 1.000000
v -1.838478 78.000000 0.000013 0.349020 0.494118 0.588235
v 11.542960 113.848099 0.000019 1.000000 1.000000 1.000000
v 0.000000 151.199997 0.000025 1.000000 1.000000 1.000000
v 0.000000 120.510498 -1.838458 1.000000 1.000000 1.000000
v -1.838478 117.037399 0.000019 0.349020 0.494118 0.588235
v 0.000000 120.510498 1.838498 0.447059 0.600000 0.698039
v 1.838478 117.037399 0.000019 1.000000 1.000000 1.000000
vt 0.166600 0.996100
vt 0.333200 0.996100
vt 0.166600 1.996000
vt 0.333200 1.996000
vt 0.503900 0.996100
vt 0.503900 1.996000
vt 0.003900 0.996100
vt 0.003900 1.996000
vt 0.666000 0.039100
vt 0.333200 0.039100
vt 0.666000 -0.476500
vt 0.333200 -0.476500
vt 0.999900 0.039100
vt 0.999900 -0.476500
vt 1.333000 0.039100
vt 1.333000 -0.476500
vt 1.666500 0.039100
vt 1.666500 -0.476500
vt 1.999900 0.039100
vt 1.999900 -0.476500
vt 0.000000 0.039100
vt 0.000000 -0.476500
vt 1.273400 0.968800
vt 1.523400 0.726600
vt 1.273400 0.484400
vt 0.898400 0.968800
vt 0.898400 0.484400
vt 0.624900 0.734400
vt 1.174700 -0.335900
vt 0.000000 -0.999900
vt 1.174700 -0.999900
vt 1.174700 -1.085900
vt 0.000000 -1.085900
vt 0.000000 -0.031200
vt 0.812400 -0.496000
vt 0.874900 -0.496000
vt 0.812400 -0.347600
vt 0.863200 -0.347600
vt 0.855400 0.031300
vt 0.749900 0.000100
vt 0.874900 0.097700
vt 0.749900 -0.496000
vt 0.761700 -0.347600
vt 0.999900 0.000100
vt 0.874900 0.500100
vt 0.812400 0.000100
vt 0.761700 -0.035100
vt 0.863200 -0.031200
vt 0.890600 0.035200
vn -0.499405 -0.047884 0.865017
vn 0.499405 -0.047884 0.865017
vn -0.499191 0.056154 0.864650
vn 0.499191 0.056154 0.864650
vn 0.998840 -0.047884 0.000000
vn 0.998413 0.056154 0.000000
vn 0.499405 -0.047884 -0.865017
vn 0.499191 0.056154 -0.864650
vn -0.499405 -0.047884 -0.865017
vn -0.499191 0.056154 -0.864650
vn -0.998840 -0.047884 0.000000
vn -0.998413 0.056154 0.000000
vn 0.381512 -0.646290 0.660817
vn -0.381512 -0.646290 0.660817
vn 0.763054 -0.646290 0.000000
vn 0.381512 -0.646290 -0.660817
vn -0.381512 -0.646290 -0.660817
vn -0.763054 -0.646290 0.000000
vn -0.378826 0.652638 0.656148
vn 0.378826 0.652638 0.656148
vn 0.757653 0.652638 0.000000
vn 0.378826 0.652638 -0.656148
vn -0.378826 0.652638 -0.656148
vn -0.757653 0.652638 0.000000
vn -0.272622 -0.962096 0.000000
vn -0.008606 0.387555 0.921781
vn 0.000000 0.381146 0.924497
vn 0.000000 1.000000 0.000000
vn 0.000000 0.381146 -0.924497
vn -0.008606 0.387555 -0.921781
vn -0.460555 -0.887600 0.000000
vn 0.000000 0.165471 0.986206
vn 0.986206 0.165471 0.000000
vn 0.000000 0.086276 0.996246
vn 0.996246 0.086276 0.000000
vn -0.748589 -0.662984 0.000000
vn -0.758385 -0.651784 0.000000
vn 0.000000 -0.067721 -0.997681
vn 0.000000 0.165471 -0.986206
vn -0.986206 0.165471 0.000000
vn 0.000000 0.086276 -0.996246
vn -0.996246 0.086276 0.000000
vn 0.000000 -0.067721 0.997681
vn 0.758385 -0.651784 0.000000
vn 0.748589 -0.662984 0.000000
usemtl unnamed.0
f 1/1/1 6/2/2 12/3/3
f 6/2/2 13/4/4 12/3/3
f 6/2/2 2/5/5 13/4/4
f 2/5/5 15/6/6 13/4/4
f 2/5/5 3/2/7 15/6/6
f 3/2/7 17/4/8 15/6/6
f 3/2/7 4/1/9 17/4/8
f 4/1/9 18/3/10 17/4/8
f 4/1/9 10/7/11 18/3/10
f 10/7/11 5/8/12 18/3/10
f 10/7/11 1/1/1 5/8/12
f 1/1/1 12/3/3 5/8/12
usemtl unnamed.1
f 6/9/2 1/10/1 21/11/13
f 7/12/14 21/11/13 1/10/1
f 2/13/5 6/9/2 20/14/15
f 21/11/13 20/14/15 6/9/2
f 3/15/7 2/13/5 8/16/16
f 20/14/15 8/16/16 2/13/5
f 4/17/9 3/15/7 9/18/17
f 8/16/16 9/18/17 3/15/7
f 10/19/11 4/17/9 11/20/18
f 9/18/17 11/20/18 4/17/9
f 1/10/1 10/21/11 7/12/14
f 11/22/18 7/12/14 10/21/11
f 12/10/3 13/9/4 24/12/19
f 13/9/4 14/11/20 24/12/19
f 13/9/4 15/13/6 14/11/20
f 15/13/6 16/14/21 14/11/20
f 15/13/6 17/15/8 16/14/21
f 17/15/8 22/16/22 16/14/21
f 17/15/8 18/17/10 22/16/22
f 18/17/10 23/18/23 22/16/22
f 18/17/10 5/19/12 23/18/23
f 5/19/12 19/20/24 23/18/23
f 5/21/12 12/10/3 19/22/24
f 12/10/3 24/12/19 19/22/24
f 8/23/16 20/24/15 21/25/13
f 9/26/17 8/23/16 21/25/13
f 7/27/14 9/26/17 21/25/13
f 16/24/21 22/23/22 14/25/20
f 22/23/22 23/26/23 14/25/20
f 24/27/19 23/26/23 19/28/24
f 14/25/20 23/26/23 24/27/19
f 11/28/18 9/26/17 7/27/14
f 25/29/25 26/30/26 27/31/27
f 28/32/28 29/33/28 30/31/29
f 29/33/28 31/30/30 30/31/29
f 25/29/25 31/30/30 32/34/31
f 27/31/27 26/30/26 28/32/28
f 26/30/26 29/33/28 28/32/28
f 25/29/25 32/34/31 26/30/26
f 30/31/29 31/30/30 25/29/25
usemtl unnamed.2
f 33/35/32 34/36/33 35/37/34
f 34/36/33 36/38/35 35/37/34
f 45/39/36 37/40/37 44/41/38
f 38/35/39 39/42/40 40/37/41
f 41/43/42 40/37/41 39/42/40
f 34/36/33 38/35/39 36/38/35
f 38/35/39 40/37/41 36/38/35
f 39/42/40 33/35/32 41/43/42
f 33/35/32 35/37/34 41/43/42
f 46/41/43 37/40/37 45/39/36
f 46/41/43 42/44/44 43/45/28
f 44/41/38 43/45/28 42/44/44
f 44/46/38 40/37/41 45/47/36
f 40/37/41 41/43/42 45/47/36
f 46/46/43 45/47/36 35/37/34
f 41/43/42 35/37/34 45/47/36
f 46/46/43 35/37/34 47/48/45
f 35/37/34 36/38/35 47/48/45
f 44/46/38 47/48/45 40/37/41
f 36/38/35 40/37/41 47/48/45
f 46/41/43 47/49/45 42/44/44
f 44/41/38 42/44/44 47/49/45
f 46/41/43 43/45/28 37/40/37
f 44/41/38 37/40/37 43/45/28
