mtllib stg220_MotCloud_15.mtl

v 939.002686 -961.831055 -3095.748535
v 1280.671875 -631.237427 -3778.530762
v 793.810120 -549.063782 -3327.866455
v 1425.864502 -1044.004639 -3546.412842

vt 0.500000 0.000000
vt 1.000000 1.000000
vt 0.500000 1.000000
vt 1.000000 0.000000

vn 7924809334889683200000000000000000.000000 7840161470883427500000000000000000.000000 -1.0
vn 7924809334889683200000000000000000.000000 7840161470883427500000000000000000.000000 -1.0
vn 7924809334889683200000000000000000.000000 7840161470883427500000000000000000.000000 -1.0
vn 7900660838543343300000000000000000.000000 0.000000 0.000000

g polygon0
s 1
usemtl mat1
f 1/1/1 2/2/2 3/3/3
f 1/1/1 4/4/4 2/2/2

v 490.730103 -1270.790894 -3523.433838
v 1040.201416 -858.539917 -3992.850342
v 431.087006 -820.125977 -3720.106445
v 1099.844482 -1309.204834 -3796.177734

vt 0.500000 0.000000
vt 1.000000 1.000000
vt 0.500000 1.000000
vt 1.000000 0.000000

vn 7924809334889683200000000000000000.000000 7840161470883427500000000000000000.000000 -1.0
vn 7924809334889683200000000000000000.000000 7840161470883427500000000000000000.000000 -1.0
vn 7924809334889683200000000000000000.000000 7840161470883427500000000000000000.000000 -1.0
vn 7900660838543343300000000000000000.000000 0.000000 0.000000

g polygon1
s 1
usemtl mat1
f 5/5/5 6/6/6 7/7/7
f 5/5/5 8/8/8 6/6/6

v 52.783981 -1455.162964 -3786.835693
v 777.687805 -911.290405 -4406.125488
v -25.901697 -860.611938 -4046.301025
v 856.373474 -1505.841431 -4146.659668

vt 0.500000 0.000000
vt 1.000000 1.000000
vt 0.500000 1.000000
vt 1.000000 0.000000

vn 7924809334889683200000000000000000.000000 7840161470883427500000000000000000.000000 -1.0
vn 7924809334889683200000000000000000.000000 7840161470883427500000000000000000.000000 -1.0
vn 7924809334889683200000000000000000.000000 7840161470883427500000000000000000.000000 -1.0
vn 7900660838543343300000000000000000.000000 0.000000 0.000000

g polygon2
s 1
usemtl mat1
f 9/9/9 10/10/10 11/11/11
f 9/9/9 12/12/12 10/10/10

v 542.058350 -1529.427368 -4275.088379
v 1266.962158 -985.554810 -4894.378418
v 463.372650 -934.876343 -4534.554199
v 1345.647827 -1580.105835 -4634.912598

vt 0.500000 0.000000
vt 1.000000 1.000000
vt 0.500000 1.000000
vt 1.000000 0.000000

vn 7924809334889683200000000000000000.000000 7840161470883427500000000000000000.000000 -1.0
vn 7924809334889683200000000000000000.000000 7840161470883427500000000000000000.000000 -1.0
vn 7924809334889683200000000000000000.000000 7840161470883427500000000000000000.000000 -1.0
vn 7900660838543343300000000000000000.000000 0.000000 0.000000

g polygon3
s 1
usemtl mat1
f 13/13/13 14/14/14 15/15/15
f 13/13/13 16/16/16 14/14/14

v 1546.882080 -1092.017700 -3331.672119
v 1888.551270 -761.424133 -4014.454346
v 1401.689453 -679.250488 -3563.790039
v 2033.743896 -1174.191406 -3782.336426

vt 0.500000 0.000000
vt 1.000000 1.000000
vt 0.500000 1.000000
vt 1.000000 0.000000

vn 7924809334889683200000000000000000.000000 7840161470883427500000000000000000.000000 -1.0
vn 7924809334889683200000000000000000.000000 7840161470883427500000000000000000.000000 -1.0
vn 7924809334889683200000000000000000.000000 7840161470883427500000000000000000.000000 -1.0
vn 7900660838543343300000000000000000.000000 0.000000 0.000000

g polygon4
s 1
usemtl mat1
f 17/17/17 18/18/18 19/19/19
f 17/17/17 20/20/20 18/18/18

v 1253.910767 -853.000854 -2709.130615
v 1803.381958 -440.749878 -3178.547119
v 1194.267578 -402.335907 -2905.803223
v 1863.025146 -891.414795 -2981.874512

vt 0.500000 0.000000
vt 1.000000 1.000000
vt 0.500000 1.000000
vt 1.000000 0.000000

vn 7924809334889683200000000000000000.000000 7840161470883427500000000000000000.000000 -1.0
vn 7924809334889683200000000000000000.000000 7840161470883427500000000000000000.000000 -1.0
vn 7924809334889683200000000000000000.000000 7840161470883427500000000000000000.000000 -1.0
vn 7900660838543343300000000000000000.000000 0.000000 0.000000

g polygon5
s 1
usemtl mat1
f 21/21/21 22/22/22 23/23/23
f 21/21/21 24/24/24 22/22/22

