mtllib stg200_obj_barricade_bp2.mtl

v -9.883758 -1.154731 -0.585393
v -12.100292 -0.828108 -0.531913
v -12.079502 -0.744740 -1.019190
v -6.376667 -1.757956 0.311556
v -6.376666 -1.757960 -0.183237
v 0.000000 -1.437643 -0.183239
v 10.026845 1.717328 0.033057
v 12.498297 1.734754 0.557329
v 12.498297 1.734752 0.062534
v 6.249148 1.481584 0.436433
v 6.249149 1.690695 -0.012000
v 0.000001 1.184225 0.661594
v -0.000001 1.184225 1.156386
v 6.249147 -1.245451 -0.904278
v 6.249148 1.481584 0.436433
v -0.000002 -1.437643 0.311554
v -6.376667 -1.757956 0.311556
v -6.609697 1.063457 1.096407
v -12.100292 -0.828108 -0.531913
v -11.722053 1.764221 0.561282
v 12.498297 -1.107256 0.557329
v 10.026843 -1.079210 -0.497177
v 12.498297 -1.107254 0.062535
v 6.249147 -1.245451 -0.904278
v -12.079502 -0.744740 -1.019190
v -9.806050 1.533769 0.394454
v -9.883758 -1.154731 -0.585393
v -11.701268 1.847586 0.074005
v 12.498297 1.734754 0.557329
v 12.498297 -1.107256 0.557329
v 6.249145 -1.036345 -1.352714
v -0.000002 -1.437643 0.311554
v -0.000001 1.184225 1.156386
v -6.609697 1.063455 0.601611
v -6.609697 1.063457 1.096407
v -9.806050 1.533769 0.394454
v -11.722053 1.764221 0.561282
v -11.701268 1.847586 0.074005
v -12.079502 -0.744740 -1.019190
v -11.722053 1.764221 0.561282
v -11.701268 1.847586 0.074005
v -12.100292 -0.828108 -0.531913
v 12.498297 -1.107254 0.062535
v 10.026845 1.717328 0.033057
v 12.498297 1.734752 0.062534
v 10.026843 -1.079210 -0.497177
v 12.498297 -1.107256 0.557329
v 12.498297 1.734752 0.062534
v 12.498297 1.734754 0.557329
v 12.498297 -1.107254 0.062535

vt 0.800812 0.318054
vt 0.996185 0.290985
vt 0.996185 0.317841
vt 0.503052 0.290985
vt 0.503052 0.317841
vt 0.009949 0.317841
vt 0.800690 0.318054
vt 0.996185 0.290985
vt 0.996185 0.317841
vt 0.503052 0.290985
vt 0.503052 0.317841
vt 0.009949 0.317841
vt 0.009949 0.290985
vt 0.503052 0.013397
vt 0.503052 0.290985
vt 0.009949 0.013397
vt 0.503052 0.013397
vt 0.503052 0.290985
vt 0.996185 0.013397
vt 0.996185 0.290985
vt 0.996185 0.290985
vt 0.800690 0.318054
vt 0.996185 0.317841
vt 0.503052 0.290985
vt 0.996185 0.013397
vt 0.801025 0.291351
vt 0.800842 0.013519
vt 0.996185 0.290985
vt 0.996185 0.290985
vt 0.996185 0.013397
vt 0.503052 0.317841
vt 0.009949 0.290985
vt 0.009949 0.290985
vt 0.503052 0.317841
vt 0.503052 0.290985
vt 0.801025 0.318054
vt 0.996185 0.290985
vt 0.996185 0.317841
vt 0.996185 0.013397
vt 0.996185 0.290985
vt 0.996185 0.290985
vt 0.996185 0.013397
vt 0.996185 0.013397
vt 0.800720 0.291168
vt 0.996185 0.290985
vt 0.800720 0.013428
vt 0.996185 0.013397
vt 0.996185 0.290985
vt 0.996185 0.290985
vt 0.996185 0.013397

vn -0.148315 -0.984923 -0.089050
vn -0.147703 -0.975268 -0.164427
vn -0.147643 -0.973809 -0.172911
vn -0.053955 -0.998539 -0.002991
vn -0.063841 -0.997960 0.000000
vn 0.057495 -0.998346 0.000000
vn -0.039733 0.984467 0.171015
vn -0.011536 0.999709 0.021180
vn -0.007080 0.999975 0.000000
vn -0.021729 0.914502 0.403997
vn -0.019348 0.906134 0.422549
vn -0.032959 0.999405 0.010193
vn 0.092346 -0.319761 0.942987
vn 0.041015 -0.368098 0.928882
vn 0.061403 -0.440378 0.895710
vn 0.103151 -0.305058 0.946731
vn -0.084961 -0.278931 0.956545
vn -0.095397 -0.287778 0.952934
vn -0.158808 -0.337695 0.927762
vn -0.146366 -0.366159 0.918969
vn -0.001770 -0.999746 -0.022461
vn 0.058593 -0.983450 -0.171446
vn -0.011352 -0.999936 0.000000
vn 0.014953 -0.910074 -0.414175
vn 0.230469 0.336549 -0.913027
vn 0.183535 0.326177 -0.927321
vn 0.200681 0.330318 -0.922289
vn 0.212527 0.353215 -0.911083
vn -0.168031 -0.127137 0.977549
vn -0.227729 0.000000 0.973724
vn 0.018249 -0.911007 -0.411986
vn 0.053834 -0.998492 -0.010742
vn -0.032410 0.999475 0.000000
vn 0.065733 0.997837 0.000000
vn 0.060181 0.998182 0.003174
vn 0.127804 0.987766 0.089353
vn 0.131772 0.977824 0.162777
vn 0.132443 0.976047 0.172603
vn -0.988381 0.151120 -0.016296
vn -0.988390 0.151060 -0.016296
vn -0.988390 0.151060 -0.016296
vn -0.988381 0.151120 -0.016296
vn 0.126035 0.099973 -0.986975
vn 0.120912 0.190920 -0.974130
vn 0.011902 0.000000 -0.999929
vn 0.219175 0.181760 -0.958606
vn 1.000000 0.000000 0.000000
vn 1.000000 0.000000 0.000000
vn 1.000000 0.000000 0.000000
vn 1.000000 0.000000 0.000000

g polygon0
s 1
usemtl mat2
f 1/1/1 2/2/2 3/3/3
f 1/1/1 4/4/4 2/2/2
f 5/5/5 4/4/4 1/1/1
f 5/5/5 6/6/6 4/4/4
f 7/7/7 8/8/8 9/9/9
f 7/7/7 10/10/10 8/8/8
f 11/11/11 10/10/10 7/7/7
f 11/11/11 12/12/12 10/10/10
f 13/13/13 14/14/14 15/15/15
f 13/13/13 16/16/16 14/14/14
f 17/17/17 16/16/16 13/13/13
f 18/18/18 17/17/17 13/13/13
f 18/18/18 19/19/19 17/17/17
f 20/20/20 19/19/19 18/18/18
f 21/21/21 22/22/22 23/23/23
f 21/21/21 24/24/24 22/22/22
f 25/25/25 26/26/26 27/27/27
f 25/25/25 28/28/28 26/26/26
f 29/29/29 14/14/14 30/30/30
f 29/29/29 15/15/15 14/14/14
f 24/24/24 31/31/31 22/22/22
f 24/24/24 32/32/32 31/31/31
f 6/6/6 32/32/32 4/4/4
f 6/6/6 31/31/31 32/32/32
f 12/12/12 33/33/33 10/10/10
f 12/12/12 34/34/34 33/33/33
f 34/34/34 35/35/35 33/33/33
f 34/34/34 36/36/36 35/35/35
f 36/36/36 37/37/37 35/35/35
f 36/36/36 38/38/38 37/37/37
f 39/39/39 40/40/40 41/41/41
f 39/39/39 42/42/42 40/40/40
f 43/43/43 44/44/44 45/45/45
f 43/43/43 46/46/46 44/44/44
f 47/47/47 48/48/48 49/49/49
f 47/47/47 50/50/50 48/48/48

v 6.249145 -1.036345 -1.352714
v 10.026845 1.717328 0.033057
v 10.026843 -1.079210 -0.497177
v 6.249149 1.690695 -0.012000
v 0.000001 1.184225 0.661594
v -9.806050 1.533769 0.394454
v -6.376666 -1.757960 -0.183237
v -9.883758 -1.154731 -0.585393
v -6.609697 1.063455 0.601611
v 0.000000 -1.437643 -0.183239

vt 0.121063 0.466522
vt 0.006805 0.596191
vt 0.006805 0.466705
vt 0.121063 0.595978
vt 0.310394 0.595978
vt 0.616516 0.596191
vt 0.502136 0.466522
vt 0.616455 0.466736
vt 0.502136 0.595978
vt 0.310394 0.466522

vn -0.028564 0.374268 -0.926881
vn 0.120912 0.190920 -0.974130
vn 0.219175 0.181760 -0.958606
vn -0.061217 0.440359 -0.895732
vn -0.095581 0.319701 -0.942685
vn 0.183535 0.326177 -0.927321
vn 0.059875 0.289855 -0.955196
vn 0.200681 0.330318 -0.922289
vn 0.057068 0.271911 -0.960629
vn -0.103700 0.305059 -0.946671

g polygon1
s 1
usemtl mat1
f 51/51/51 52/52/52 53/53/53
f 51/51/51 54/54/54 52/52/52
f 55/55/55 54/54/54 51/51/51
f 56/56/56 57/57/57 58/58/58
f 56/56/56 59/59/59 57/57/57
f 60/60/60 55/55/55 51/51/51
f 60/60/60 57/57/57 55/55/55
f 59/59/59 55/55/55 57/57/57

