mtllib stg200_obj_wafer_bp2.mtl

v 3.462402 -0.138184 2.826416
v -3.328735 -2.311035 2.826416
v 1.995361 -2.311035 2.826416
v 0.635254 3.466675 2.826416
v -1.898193 3.122314 -2.826416
v -2.695435 -2.311035 -2.826416
v -2.695435 1.404541 -2.826416
v -0.015503 2.982422 -2.826416
v 3.110474 -0.518921 -2.826416
v 2.098267 -3.160034 -2.826416
v -1.898193 3.122314 2.826416
v -3.462402 1.404541 2.826416

vt 5.788574 8.609375
vt 7.433594 7.766113
vt 6.457520 8.740723
vt 5.640625 7.427246
vt 4.892578 8.309570
vt 5.753418 9.448730
vt 5.060059 8.765625
vt 5.270020 7.980957
vt 6.487305 8.055176
vt 6.788574 8.726074
vt 6.168945 7.027344
vt 6.773926 7.055664

vn 0.000000 0.000000 1.000000
vn 0.000000 0.000000 1.000000
vn 0.000000 0.000000 1.000000
vn 0.000000 0.000000 1.000000
vn 0.000000 0.000000 -1.000000
vn 0.000000 0.000000 -1.000000
vn 0.000000 0.000000 -1.000000
vn 0.000000 0.000000 -1.000000
vn 0.000000 0.000000 -1.000000
vn 0.000000 0.000000 -1.000000
vn 0.000000 0.000000 1.000000
vn 0.000000 0.000000 1.000000

g polygon0
s 1
usemtl mat1
f 1/1/1 2/2/2 3/3/3
f 1/1/1 4/4/4 2/2/2
f 5/5/5 6/6/6 7/7/7
f 5/5/5 8/8/8 6/6/6
f 9/9/9 6/6/6 8/8/8
f 9/9/9 10/10/10 6/6/6
f 11/11/11 2/2/2 4/4/4
f 11/11/11 12/12/12 2/2/2

v -1.898193 3.122314 -2.826416
v 0.635254 3.466675 2.826416
v -0.015503 2.982422 -2.826416
v -1.898193 3.122314 2.826416
v -3.462402 1.404541 2.826416
v -0.501709 -3.466675 -1.216187
v 1.995361 -2.311035 2.826416
v -3.328735 -2.311035 2.826416
v 2.098267 -3.160034 -2.826416
v -2.695435 -2.311035 -2.826416
v -0.015503 2.982422 -2.826416
v 3.462402 -0.138184 2.826416
v 3.110474 -0.518921 -2.826416
v 0.635254 3.466675 2.826416
v -2.695435 1.404541 -2.826416
v -2.695435 -2.311035 -2.826416
v 3.462402 -0.138184 2.826416
v 3.110474 -0.518921 -2.826416
v -3.328735 -2.311035 2.826416

vt 1.622070 0.986206
vt 1.294922 0.008545
vt 1.295898 0.986206
vt 1.622070 0.008545
vt 1.962524 0.008545
vt 2.877930 0.717041
vt 3.271118 0.008545
vt 2.483032 0.008545
vt 3.230713 0.986206
vt 2.532227 0.986206
vt 1.295898 0.986206
vt 0.647827 0.008545
vt 0.631348 0.986206
vt 1.294922 0.008545
vt 1.937500 0.986206
vt 2.532227 0.986206
vt 3.635620 0.008545
vt 3.636719 0.986206
vt 2.483032 0.008545

vn -0.496039 0.863171 -0.094240
vn -0.091002 0.995652 -0.019897
vn 0.073732 0.992879 -0.093569
vn -0.465019 0.885301 0.000000
vn -0.947012 0.311337 -0.078979
vn -0.112124 -0.991969 -0.058534
vn 0.510211 -0.840727 0.181281
vn -0.162052 -0.972924 0.164799
vn 0.552906 -0.832258 -0.040526
vn -0.342405 -0.919428 -0.193419
vn 0.759079 0.641100 -0.113096
vn 0.763757 0.634298 -0.119755
vn 0.742876 0.663223 -0.090944
vn 0.778872 0.610903 -0.141968
vn -0.967165 0.217652 -0.131226
vn -0.991946 -0.013123 -0.125977
vn 0.863297 -0.501169 0.059571
vn 0.933230 -0.357667 -0.033997
vn -0.993147 -0.035766 -0.111265

g polygon1
s 1
usemtl mat2
f 13/13/13 14/14/14 15/15/15
f 13/13/13 16/16/16 14/14/14
f 17/17/17 16/16/16 13/13/13
f 18/18/18 19/19/19 20/20/20
f 18/18/18 21/21/21 19/19/19
f 22/22/22 21/21/21 18/18/18
f 23/23/23 24/24/24 25/25/25
f 23/23/23 26/26/26 24/24/24
f 27/27/27 17/17/17 13/13/13
f 27/27/27 28/28/28 17/17/17
f 29/29/29 21/21/21 30/30/30
f 29/29/29 19/19/19 21/21/21
f 17/17/17 28/28/28 31/31/31
f 22/22/22 18/18/18 20/20/20

