mtllib stg200_obj_wafer_bp1.mtl

v -2.884277 4.622314 -2.826416
v -1.106934 6.134521 2.826416
v -1.106934 6.134521 -2.826416
v -2.348633 4.622314 2.826416
v -3.234375 0.024658 -2.826416
v -2.641357 -0.344238 2.826416
v -3.584473 -4.573242 -2.826416
v -2.934082 -5.310791 2.826416
v 2.869873 -1.095459 -2.826416
v 3.287598 -3.911621 -1.092285
v 2.863525 -3.716553 -2.826416
v 3.584473 -1.339111 2.826416
v 2.434082 -0.052246 -2.826416
v 2.619629 -0.052246 2.826416
v 1.187988 -4.518066 -2.826416
v -0.127441 -6.134521 2.826416
v -0.127441 -5.832764 -2.826416
v 2.595947 -4.201904 2.826416
v 3.287598 -3.911621 -1.092285
v 3.446045 1.183594 -2.826416
v 2.619629 -0.052246 2.826416
v 2.434082 -0.052246 -2.826416
v 3.174561 0.596680 2.826416
v 3.398682 5.445557 2.826416
v -2.934082 -5.310791 2.826416
v -0.127441 -5.832764 -2.826416
v -0.127441 -6.134521 2.826416
v -3.584473 -4.573242 -2.826416
v -1.106934 6.134521 -2.826416
v 3.398682 5.445557 2.826416
v 2.423340 4.651367 -2.826416
v -1.106934 6.134521 2.826416
v 2.863525 -3.716553 -2.826416
v 2.595947 -4.201904 2.826416
v 2.423340 4.651367 -2.826416

vt 5.876343 0.986206
vt 6.236084 0.008545
vt 6.236084 0.986206
vt 5.901001 0.008545
vt 5.011230 0.986206
vt 4.904297 0.008545
vt 4.146240 0.986206
vt 3.907471 0.008545
vt 2.035400 0.986206
vt 2.565430 0.680054
vt 2.594482 0.986206
vt 2.160645 0.008545
vt 1.798340 0.986206
vt 1.849731 0.008545
vt 2.929199 0.984131
vt 3.296021 0.008545
vt 3.289429 0.986206
vt 2.684570 0.008911
vt 2.565430 0.680054
vt 1.593994 0.986206
vt 1.849731 0.008545
vt 1.798340 0.986206
vt 1.691772 0.008545
vt 0.859375 0.008545
vt 3.907471 0.008545
vt 3.289429 0.986206
vt 3.296021 0.008545
vt 4.146240 0.986206
vt 0.239990 0.986206
vt 0.859375 0.008545
vt 0.865112 0.986206
vt 0.239746 0.008545
vt 2.594482 0.986206
vt 2.684570 0.008911
vt 0.865112 0.986206

vn -0.902019 0.427481 0.060179
vn -0.742859 0.667175 0.055115
vn -0.647997 0.761643 0.000000
vn -0.923314 0.372975 0.091550
vn -0.991954 0.071473 0.104493
vn -0.991736 0.062254 0.112180
vn -0.991089 0.067749 0.114685
vn -0.990854 0.058411 0.121644
vn 0.965349 0.224491 -0.133059
vn 0.994367 -0.037536 -0.099119
vn 0.971285 -0.002441 -0.237908
vn 0.979958 0.199153 0.004578
vn 0.901609 0.423705 -0.087036
vn 0.799812 0.599676 -0.026245
vn 0.545460 -0.834028 -0.082884
vn 0.603986 -0.792335 -0.086057
vn 0.706420 -0.706787 -0.037720
vn 0.511225 -0.855765 -0.079467
vn 0.327575 -0.942441 -0.067077
vn 0.967419 -0.243655 -0.068787
vn 0.762026 -0.646852 -0.029968
vn 0.773409 -0.633399 -0.025390
vn 0.920903 -0.389773 0.003784
vn 0.996181 0.073549 -0.047059
vn -0.302744 -0.951020 -0.062502
vn -0.323238 -0.943470 -0.073363
vn -0.281255 -0.958269 -0.051148
vn -0.341183 -0.936330 -0.082946
vn 0.286066 0.951642 -0.111997
vn 0.241459 0.967545 -0.074525
vn 0.380067 0.904666 -0.192689
vn 0.151181 0.988506 0.000000
vn 0.422600 -0.883346 -0.202755
vn 0.935782 -0.323056 0.141234
vn 0.939572 0.277099 -0.201049

g polygon0
s 1
usemtl mat2
f 1/1/1 2/2/2 3/3/3
f 1/1/1 4/4/4 2/2/2
f 5/5/5 4/4/4 1/1/1
f 5/5/5 6/6/6 4/4/4
f 7/7/7 6/6/6 5/5/5
f 7/7/7 8/8/8 6/6/6
f 9/9/9 10/10/10 11/11/11
f 9/9/9 12/12/12 10/10/10
f 13/13/13 12/12/12 9/9/9
f 13/13/13 14/14/14 12/12/12
f 15/15/15 16/16/16 17/17/17
f 15/15/15 18/18/18 16/16/16
f 19/19/19 18/18/18 15/15/15
f 20/20/20 21/21/21 22/22/22
f 20/20/20 23/23/23 21/21/21
f 24/24/24 23/23/23 20/20/20
f 25/25/25 26/26/26 27/27/27
f 25/25/25 28/28/28 26/26/26
f 29/29/29 30/30/30 31/31/31
f 29/29/29 32/32/32 30/30/30
f 33/33/33 19/19/19 15/15/15
f 34/34/34 10/10/10 12/12/12
f 20/20/20 35/35/35 24/24/24

v -2.348633 4.622314 2.826416
v 3.398682 5.445557 2.826416
v -1.106934 6.134521 2.826416
v 3.174561 0.596680 2.826416
v -2.641357 -0.344238 2.826416
v 2.619629 -0.052246 2.826416
v 2.595947 -4.201904 2.826416
v 3.584473 -1.339111 2.826416
v -3.234375 0.024658 -2.826416
v 2.434082 -0.052246 -2.826416
v 2.869873 -1.095459 -2.826416
v 3.446045 1.183594 -2.826416
v -2.884277 4.622314 -2.826416
v -1.106934 6.134521 -2.826416
v -3.584473 -4.573242 -2.826416
v 1.187988 -4.518066 -2.826416
v -0.127441 -5.832764 -2.826416
v 2.863525 -3.716553 -2.826416
v -0.127441 -6.134521 2.826416
v -2.934082 -5.310791 2.826416
v 2.423340 4.651367 -2.826416

vt 2.995850 5.016357
vt 1.757813 5.870361
vt 2.493652 4.947021
vt 2.653076 6.753418
vt 3.925049 5.909668
vt 2.873047 6.779297
vt 3.607666 7.564697
vt 2.915771 7.193848
vt 3.911865 5.824219
vt 2.810059 6.795410
vt 2.900391 7.073975
vt 2.402588 6.722900
vt 3.067627 4.979004
vt 2.463135 4.981445
vt 4.756104 6.669434
vt 3.808350 7.463379
vt 4.288574 7.500244
vt 3.343506 7.588379
vt 4.508057 7.499512
vt 4.854248 6.802979
vt 2.019043 5.868408

vn 0.000000 0.000000 1.000000
vn 0.000000 0.000000 1.000000
vn 0.000000 0.000000 1.000000
vn 0.000000 0.000000 1.000000
vn 0.000000 0.000000 1.000000
vn 0.000000 0.000000 1.000000
vn 0.000000 0.000000 1.000000
vn 0.000000 0.000000 1.000000
vn 0.000000 0.000000 -1.000000
vn 0.000000 0.000000 -1.000000
vn 0.000000 0.000000 -1.000000
vn 0.000000 0.000000 -1.000000
vn 0.000000 0.000000 -1.000000
vn 0.000000 0.000000 -1.000000
vn 0.000000 0.000000 -1.000000
vn 0.000000 0.000000 -1.000000
vn 0.000000 0.000000 -1.000000
vn 0.000000 0.000000 -1.000000
vn 0.000000 0.000000 1.000000
vn 0.000000 0.000000 1.000000
vn 0.000000 0.000000 -1.000000

g polygon1
s 1
usemtl mat1
f 36/36/36 37/37/37 38/38/38
f 36/36/36 39/39/39 37/37/37
f 40/40/40 39/39/39 36/36/36
f 40/40/40 41/41/41 39/39/39
f 42/42/42 41/41/41 40/40/40
f 42/42/42 43/43/43 41/41/41
f 44/44/44 45/45/45 46/46/46
f 44/44/44 47/47/47 45/45/45
f 48/48/48 47/47/47 44/44/44
f 48/48/48 49/49/49 47/47/47
f 50/50/50 51/51/51 52/52/52
f 50/50/50 44/44/44 51/51/51
f 51/51/51 46/46/46 53/53/53
f 51/51/51 44/44/44 46/46/46
f 54/54/54 40/40/40 55/55/55
f 54/54/54 42/42/42 40/40/40
f 56/56/56 47/47/47 49/49/49

