# Blender v2.79 (sub 0) OBJ File: ''
# www.blender.org
mtllib Dashpad.mtl
v -11.996920 0.027818 9.759359
v -11.998219 1.296359 8.171800
v -13.363999 0.026259 8.164780
v -13.363480 0.024961 -4.136600
v -10.100739 1.199121 -4.136600
v -11.998740 1.295061 -4.144140
v -11.998480 1.295839 4.144660
v -13.363219 0.025739 4.136600
v 3.252340 1.504881 -6.832279
v -5.113680 1.106301 -6.832020
v -6.723080 0.030941 -6.831759
v -13.364520 0.024441 -8.175440
v -11.998999 1.294541 -8.169979
v -11.997700 0.025482 -9.759359
v 13.069420 1.480179 6.830460
v 11.618619 2.131739 6.830460
v 11.620700 0.050959 9.173059
v -6.128980 0.764919 3.969940
v -6.129240 0.763881 -3.972280
v -10.100220 1.200419 4.136080
v 13.068900 1.478621 -6.832539
v 13.518439 0.050961 -6.832540
v 11.619920 0.048881 -9.174620
v 13.518700 0.052519 6.830719
v 11.620700 0.050699 6.830719
v 11.618100 2.130181 -6.832539
v -5.113160 1.107859 6.831240
v -6.722300 0.032499 6.831500
v 3.252860 1.506439 6.830720
v 11.620179 0.049141 -6.832540
v 3.032380 0.042639 8.978060
v -5.555940 0.034059 8.783319
v 3.031860 0.040561 -8.979100
v -5.556460 0.031981 -8.783580
v -6.254820 0.621921 -6.945899
v -6.254300 0.578240 0.005200
v -5.556720 0.888680 0.004160
v -5.557240 0.932101 -6.946940
v 11.618879 1.881360 0.000520
v 11.618359 1.925041 -6.950319
v 12.888199 1.297140 0.002340
v 12.887679 1.340561 -6.948500
v 13.230880 0.028860 0.006760
v 13.230360 0.072281 -6.944340
v -5.556720 0.897260 -0.011700
v -6.254300 0.586820 -0.013520
v -6.254820 0.614119 6.937580
v -5.557240 0.924299 6.939400
v 11.618879 1.889940 -0.005980
v 11.618359 1.917239 6.945380
v 12.888199 1.305720 -0.009100
v 12.887679 1.332759 6.942000
v 13.230880 0.037180 -0.016380
v 13.230360 0.064479 6.934720
vt 0.500000 0.308600
vt 0.839800 0.003900
vt 0.500000 0.003900
vt 0.500000 0.503900
vt 0.500000 0.253900
vt 0.839800 0.503900
vt 0.839800 0.500000
vt 0.839800 0.007800
vt 0.500000 0.500000
vt 0.500000 0.007800
vt 0.957000 0.503900
vt 0.808600 0.503900
vt 0.808600 0.304700
vt 0.500000 0.003900
vt 0.839800 0.003900
vt 0.500000 0.300800
vt 0.703100 0.359400
vt 0.839800 0.500000
vt 0.500000 0.500000
vt 0.500000 1.000000
vt 0.000000 1.000000
vt 0.000000 0.738300
vt 0.500000 0.738300
vt 0.000000 0.503900
vt 0.500000 0.503900
vt 0.703100 0.359400
vt 0.500000 0.500000
vt 0.500000 0.308600
vt 0.839800 0.503900
vt 0.500000 0.253900
vt 0.500000 0.500000
vt 0.500000 0.007800
vt 0.839800 0.500000
vt 0.839800 0.007800
vt 1.000000 0.148400
vt 1.000000 0.503900
vt 0.812500 0.503900
vt 1.000000 0.003900
vt 0.812500 0.003900
vt 0.808600 0.003900
vt 0.957000 0.003900
vt 0.957000 0.082000
vt 0.500000 0.500000
vt 0.839800 0.500000
vt 0.500000 0.308600
vt 0.500000 0.500000
vt 0.957000 0.503900
vt 0.808600 0.503900
vt 0.957000 0.503900
vt 0.808600 0.503900
vt 0.808600 0.304700
vt 0.957000 0.503900
vt 0.808600 0.503900
vt 0.808600 0.304700
vt 0.808600 0.105500
vt 0.808600 0.105500
vt 0.808600 0.304700
vt 0.957000 0.082000
vt 0.808600 0.003900
vt 0.957000 0.003900
vt 0.957000 0.503900
vt 1.000000 0.003900
vt 0.812500 0.003900
vt 0.812500 0.503900
vt 1.000000 0.148400
vt 1.000000 0.503900
vt 0.839800 0.500000
vt 0.500000 0.500000
vt 0.839800 0.003900
vt 0.500000 0.003900
vt 0.839800 0.003900
vt 0.839800 0.500000
vt 0.500000 0.003900
vt 0.500000 0.500000
vt 0.839800 0.003900
vt 0.500000 0.003900
vt 0.839800 0.500000
vt 0.500000 0.500000
vt 0.839800 0.500000
vt 0.839800 0.003900
vt 0.500000 0.500000
vt 0.500000 0.003900
vt 0.839800 0.003900
vt 0.500000 0.003900
vt 0.500000 0.500000
vt 0.839800 0.003900
vt 0.500000 0.003900
vt 0.500000 0.500000
vt 0.000000 0.051300
vt 0.994500 0.055200
vt 0.994500 0.160700
vt 0.000000 0.160700
vt 0.994500 2.652900
vt 0.000000 2.652900
vt 0.994500 2.856000
vt 0.000000 2.856000
vt 0.994500 3.047400
vt 0.000000 3.047400
vt 0.987700 0.160700
vt 0.987700 0.055200
vt 0.000000 0.051300
vt 0.000000 0.160700
vt 0.987700 2.652900
vt 0.000000 2.652900
vt 0.987700 2.856000
vt 0.000000 2.856000
vt 0.987700 3.047400
vt 0.000000 3.047400
vn -0.1854 0.7676 0.6135
vn -0.3001 0.9013 0.3124
vn -0.6663 0.7152 0.2112
vn -0.0035 0.0097 0.9999
vn -0.3507 0.9365 -0.0077
vn -0.5203 0.8540 -0.0002
vn 0.0000 0.0001 1.0000
vn 0.0000 0.0002 1.0000
vn -0.6650 0.7159 -0.2127
vn -0.2997 0.9016 -0.3119
vn -0.1845 0.7680 -0.6133
vn 0.5608 0.5059 0.6554
vn 0.1351 0.7499 0.6476
vn 0.2142 0.6878 0.6936
vn 0.1052 0.9910 -0.0826
vn 0.1052 0.9910 0.0824
vn -0.0288 0.9989 0.0383
vn -0.0289 0.9988 -0.0384
vn -0.5203 0.8540 -0.0001
vn 0.5607 0.5058 -0.6556
vn 0.7545 0.2376 -0.6118
vn 0.2141 0.6877 -0.6938
vn -0.0040 0.0106 -0.9999
vn -0.5203 0.8540 -0.0008
vn -0.3507 0.9365 0.0075
vn 0.0504 0.9451 -0.3228
vn -0.0000 -0.0002 -1.0000
vn -0.0000 -0.0001 -1.0000
vn 0.1350 0.7498 -0.6478
vn 0.7546 0.2376 0.6116
vn 0.5529 -0.8275 0.0973
vn 0.5530 -0.8275 -0.0971
vn -0.0001 -0.0002 -1.0000
vn 0.0000 -0.0000 1.0000
vn 0.0505 0.9452 0.3225
vn -0.0515 0.8276 0.5589
vn -0.0427 0.8240 0.5649
vn 0.0623 0.8613 0.5042
vn -0.0515 0.8275 -0.5591
vn -0.0428 0.8239 -0.5651
vn 0.0622 0.8612 -0.5045
vn -0.4065 0.9136 -0.0001
vn -0.2359 0.9718 -0.0001
vn 0.1858 0.9826 -0.0001
vn 0.7638 0.6455 -0.0001
vn 0.9654 0.2609 -0.0001
vn -0.2359 0.9718 0.0024
vn -0.4066 0.9136 0.0022
vn -0.4065 0.9136 0.0022
vn 0.1858 0.9826 0.0024
vn 0.7638 0.6455 0.0016
vn 0.9654 0.2609 0.0007
vn 0.9654 0.2609 0.0006
usemtl b68ae7f3_png
s 1
f 1/1/1 2/2/2 3/3/3
f 4/4/4 5/5/4 6/6/4
f 2/7/2 7/8/5 3/9/3
f 7/8/5 8/10/6 3/9/3
f 9/11/7 10/12/8 11/13/8
f 12/14/9 13/15/10 14/16/11
f 15/17/12 16/18/13 17/19/14
f 18/20/15 19/21/16 5/22/17
f 20/23/18 18/20/15 5/22/17
f 20/23/18 5/22/17 4/24/19
f 8/25/6 20/23/18 4/24/19
f 21/26/20 22/27/21 23/28/22
f 7/29/23 20/30/23 8/25/23
f 12/31/9 4/32/24 13/33/10
f 4/32/24 6/34/25 13/33/10
f 5/35/17 19/36/16 10/37/26
f 6/38/25 5/35/17 10/37/26
f 6/38/25 10/37/26 13/39/10
f 15/40/27 24/41/27 25/42/28
f 23/43/22 26/44/29 21/26/20
f 17/45/14 24/46/30 15/17/12
f 10/47/31 19/48/31 11/13/31
f 27/49/32 28/50/32 18/51/32
f 28/52/33 27/53/33 29/54/33
f 25/42/28 28/52/27 29/54/27
f 25/42/28 29/54/27 16/55/28
f 15/40/27 25/42/28 16/55/28
f 26/56/34 9/57/7 30/58/34
f 21/59/34 26/56/34 30/58/34
f 21/59/34 30/58/34 22/60/34
f 9/57/7 11/61/8 30/58/34
f 7/62/5 2/63/2 27/64/35
f 20/65/18 7/62/5 27/64/35
f 20/65/18 27/64/35 18/66/15
f 29/67/36 31/68/37 16/69/13
f 31/68/37 17/70/14 16/69/13
f 29/71/36 27/72/35 31/73/37
f 27/72/35 32/74/38 31/73/37
f 9/75/39 33/76/40 10/77/26
f 33/76/40 34/78/41 10/77/26
f 9/79/39 26/80/29 33/81/40
f 26/80/29 23/82/22 33/81/40
f 10/83/26 34/84/41 13/33/10
f 34/84/41 14/85/11 13/33/10
f 27/86/35 2/7/2 32/87/38
f 2/7/2 1/88/1 32/87/38
usemtl 07bdaebd_png
f 35/89/42 36/90/42 37/91/43
f 38/92/43 35/89/42 37/91/43
f 38/92/43 37/91/43 39/93/44
f 40/94/44 38/92/43 39/93/44
f 40/94/44 39/93/44 41/95/45
f 42/96/45 40/94/44 41/95/45
f 42/96/45 41/95/45 43/97/46
f 44/98/46 42/96/45 43/97/46
f 45/99/47 46/100/48 47/101/49
f 45/99/47 47/101/49 48/102/47
f 49/103/50 45/99/47 48/102/47
f 49/103/50 48/102/47 50/104/50
f 51/105/51 49/103/50 50/104/50
f 51/105/51 50/104/50 52/106/51
f 53/107/52 51/105/51 52/106/51
f 53/107/52 52/106/51 54/108/53
