mtllib Blimp.mtl
v 179.514053 -4.074165 -51.239449 1 1 1
v 192.2117 0 -71.350693 0.380392 0.486275 0.635294
v 174.514053 0 -52.739449 0.384314 0.478431 0.678431
v 179.514053 4.074165 -51.239449 0.384314 0.490196 0.639216
v 223.021439 4.074165 -36.901588 0.380392 0.360784 0.372549
v 174.514053 0 52.739449 0.305882 0.431373 0.568627
v 192.2117 0 71.350693 0.32549 0.45098 0.54902
v 179.514053 -4.074165 51.239449 1 1 1
v 242.879471 0 67.217514 0.380392 0.364706 0.372549
v 179.514053 4.074165 51.239449 0.329412 0.454902 0.556863
v 133.666519 49.755451 -46.991257 0.290196 0.235294 0.301961
v 133.666519 70.364838 0 0.301961 0.258824 0.356863
v 29.627426 87.743507 0 0.368627 0.341176 0.392157
v 29.627428 62.044029 -58.597141 0.215686 0.184314 0.243137
v -219.279709 39.049522 0 0.34902 0.34902 0.407843
v -86.627441 87.7435 0 0.32549 0.341176 0.368627
v -86.627441 62.044022 58.597141 0.207843 0.215686 0.258824
v -86.627434 -62.044037 -58.597141 0.74902 1 1
v 29.627432 -62.044033 -58.597141 0.839216 0.909804 0.960784
v 29.62743 -0.000002 -82.868874 0.466667 0.513726 0.545098
v -173.666565 -49.755463 46.991257 0.415686 0.65098 0.894118
v -86.627441 -0.000007 82.868874 0.388235 0.447059 0.509804
v -86.627434 -62.044037 58.597141 0.827451 1 1
v 133.666519 -49.755447 46.991257 0.619608 0.584314 0.603922
v 133.666519 49.755451 46.991257 0.215686 0.184314 0.243137
v 29.627428 62.044029 58.597141 0.266667 0.215686 0.290196
v -173.666565 -0.000011 66.455673 0.313726 0.419608 0.513726
v -173.666565 49.755436 46.991257 0.243137 0.254902 0.286275
v 242.879471 0 -67.217514 0.384314 0.364706 0.376471
v 223.021439 -4.074165 -36.901588 0.384314 0.364706 0.376471
v 223.021439 -4.074165 36.901588 0.380392 0.364706 0.372549
v 223.021439 4.074165 36.901588 0.376471 0.360784 0.368627
v 239.43869 39.865334 -0.000006 0.415686 0.403922 0.415686
v 191.042068 77.979736 -0.000011 0.411765 0.4 0.411765
v 242.641068 71.644852 -0.000011 1 1 1
v 222.884842 41.844986 -0.000006 0.419608 0.403922 0.419608
v 178.914139 52.665138 -0.00001 0.423529 0.411765 0.423529
v 223.450348 37.750572 -0.000006 0.419608 0.407843 0.419608
v 184.224731 73.333153 -0.000011 0.415686 0.4 0.415686
v 222.884842 -41.844986 0 0.45098 0.435294 0.45098
v 239.43869 -39.865334 0 0.447059 0.431373 0.443137
v 242.641068 -71.644852 0 1 1 1
v 191.042068 -77.979736 0 1 1 1
v 178.914139 -52.665138 0 0.470588 0.45098 0.466667
v 184.224731 -73.333153 0 1 1 1
v 223.450348 -37.750572 0 0.45098 0.435294 0.447059
v 224.27977 27.6122 -26.078182 0.305882 0.305882 0.313726
v 224.27977 39.049545 0 0.282353 0.298039 0.301961
v -173.666565 70.364822 0 0.25098 0.239216 0.298039
v -86.627441 62.044022 -58.597141 0.243137 0.215686 0.32549
v -173.666565 49.755436 -46.991257 0.278431 0.266667 0.337255
v -236.481354 -0.000015 0 0.290196 0.333333 0.34902
v -219.279709 27.612175 -26.078178 0.34902 0.34902 0.407843
v 224.27977 0.000006 -36.880119 0.376471 0.360784 0.368627
v 133.666519 0.000003 -66.455673 0.403922 0.396078 0.403922
v -86.627441 -0.000007 -82.868874 0.45098 0.521569 0.658824
v -219.279709 -0.000014 -36.880116 0.301961 0.356863 0.403922
v 133.666519 -49.755447 -46.991257 0.584314 0.560784 0.580392
v -173.666565 -0.000011 -66.455673 0.333333 0.419608 0.545098
v -173.666565 -49.755463 -46.991257 0.403922 0.635294 0.87451
v 254.481308 0.000007 0 0.356863 0.341176 0.34902
v 224.27977 -39.049534 0 0.498039 0.47451 0.486275
v 224.27977 -27.612188 -26.078182 0.458824 0.439216 0.45098
v 133.666519 -70.36483 0 0.768627 0.733333 0.752941
v -173.666565 -70.364845 0 0.458824 0.780392 1
v -219.279709 -27.612204 -26.078178 0.568627 0.701961 0.823529
v -219.279694 -39.049549 0 0.568627 0.807843 0.92549
v 224.27977 -27.612188 26.078182 0.462745 0.439216 0.45098
v 29.627434 -87.743515 0 1 1 1
v 29.627432 -62.044033 58.597141 0.933333 0.882353 0.917647
v -86.627434 -87.743523 0 0.976471 1 1
v -219.279709 -27.612204 26.078178 0.568627 0.701961 0.823529
v 133.666519 0.000003 66.455673 0.407843 0.392157 0.403922
v 224.27977 0.000006 36.880119 0.376471 0.360784 0.368627
v 224.27977 27.6122 26.078182 0.305882 0.305882 0.313726
v 29.62743 -0.000002 82.868874 0.454902 0.439216 0.45098
v -219.279709 -0.000014 36.880116 0.298039 0.360784 0.396078
v -219.279709 27.612175 26.078178 0.34902 0.34902 0.407843
vt 0.458824 0
vt 0.529412 0
vt 0.521569 0.329412
vt 1.003922 0
vt 1.003922 0.329412
vt 0 0
vt 0.419608 0
vt 0 0.321569
vt 0.419608 0.321569
vt 1.003922 1
vt 0.662745 0.682353
vt 0.662745 1
vt 0.333333 0.682353
vt 0.333333 1
vt 0 0.682353
vt 0 1
vt 1.003922 0.682353
vt 0.662745 0.337255
vt 0.333333 0.337255
vt 0 0.337255
vt 1.003922 0.337255
vt 0.552941 0
vt 0.482353 0
vt 0.498039 0.329412
vt 0.827451 0
vt 0.796079 0.329412
vt 0.807843 0
vt 0.858824 0
vt 0.615686 0.329412
vt 0.831373 0
vt 0.690196 0
vt 0.513726 0.329412
vt 0.811765 0.329412
vn 0.724662 0.000000 0.689077
vn 0.255562 0.903378 0.344340
vn 0.146886 0.013550 0.989044
vn -0.554704 0.796533 -0.240394
vn -0.824458 0.005280 0.565844
vn 0.268715 -0.901700 0.338664
vn -0.557787 -0.788354 -0.259407
vn 0.724662 0.000000 -0.689077
vn 0.146886 -0.013550 -0.989044
vn 0.268715 0.901700 -0.338664
vn -0.824458 -0.005280 -0.565844
vn -0.557787 0.788354 0.259407
vn 0.255562 -0.903378 -0.344340
vn -0.554704 -0.796533 0.240394
vn -0.078829 -0.691122 0.718375
vn -0.235511 -0.673513 0.700613
vn -0.080966 -0.996704 0.000000
vn -0.241585 -0.970367 0.000000
vn -0.078829 -0.691122 -0.718375
vn -0.235511 -0.673513 -0.700613
vn 0.093509 -0.690359 -0.717368
vn 0.095981 -0.995361 0.000000
vn 0.093509 -0.690359 0.717368
vn 0.736259 -0.676656 0.000000
vn 0.371471 -0.928434 0.000000
vn 0.364177 -0.645680 -0.671133
vn 0.364177 -0.645680 0.671133
vn 0.091098 0.000000 0.995819
vn -0.076754 0.000000 0.997040
vn -0.229682 0.000000 0.973235
vn 0.357006 0.000000 0.934080
vn 0.093509 0.690359 0.717368
vn -0.078829 0.691122 0.718375
vn -0.235511 0.673513 0.700613
vn 0.364177 0.645680 -0.671133
vn 0.091098 0.000000 -0.995819
vn 0.093509 0.690359 -0.717368
vn -0.076754 0.000000 -0.997040
vn -0.078829 0.691122 -0.718375
vn -0.229682 0.000000 -0.973235
vn -0.235511 0.673513 -0.700613
vn 0.357006 0.000000 -0.934080
vn 0.000000 0.000000 -1.000000
vn 0.000000 0.000000 -0.999969
vn -1.000000 0.000000 0.000000
vn -0.550645 -0.834712 0.000000
vn -0.543352 -0.581256 0.605670
vn 0.729850 -0.471541 0.494888
vn 1.000000 0.000000 0.000000
vn -0.536088 0.000000 0.844142
vn 0.723502 0.000000 0.690298
vn -0.543352 0.581256 0.605670
vn 0.364177 0.645680 0.671133
vn 0.729850 0.471541 0.494888
vn -0.550645 0.834712 0.000000
vn -0.241585 0.970367 0.000000
vn -0.080966 0.996704 0.000000
vn 0.095981 0.995361 0.000000
vn 0.371471 0.928434 0.000000
vn 0.736259 0.676656 0.000000
vn -0.543352 0.581256 -0.605670
vn 0.729850 0.471541 -0.494888
vn -0.536088 0.000000 -0.844142
vn 0.723502 0.000000 -0.690298
vn -0.543352 -0.581256 -0.605670
vn 0.729850 -0.471541 -0.494888
usemtl Mesh_0670.rip
f 3/1/1 1/2/2 2/3/3
f 1/2/2 30/4/4 2/3/3
f 2/3/3 30/4/4 29/5/5
f 3/1/1 2/3/3 4/2/6
f 2/3/3 29/5/5 4/2/6
f 4/2/6 29/5/5 5/4/7
f 6/1/8 7/3/9 8/2/10
f 7/3/9 9/5/11 8/2/10
f 8/2/10 9/5/11 31/4/12
f 6/1/8 10/2/13 7/3/9
f 10/2/13 32/4/14 7/3/9
f 7/3/9 32/4/14 9/5/11
f 14/6/15 11/7/16 13/8/17
f 11/7/16 12/9/18 13/8/17
f 13/8/17 12/9/18 26/6/19
f 12/9/18 25/7/20 26/6/19
f 26/7/19 17/6/21 13/9/17
f 17/6/21 16/8/22 13/9/17
f 13/9/17 16/8/22 14/7/15
f 16/8/22 50/6/23 14/7/15
f 15/9/24 49/8/25 28/6/26
f 49/8/25 16/9/22 28/6/26
f 28/6/26 16/9/22 17/7/21
f 51/10/27 56/11/28 50/12/23
f 56/11/28 20/13/29 50/12/23
f 50/12/23 20/13/29 14/14/15
f 20/13/29 55/15/30 14/14/15
f 14/14/15 55/15/30 11/16/16
f 59/17/31 18/18/32 56/11/28
f 18/18/32 19/19/33 56/11/28
f 56/11/28 19/19/33 20/13/29
f 19/19/33 58/20/34 20/13/29
f 20/13/29 58/20/34 55/15/30
f 21/20/35 22/13/36 23/19/37
f 22/13/36 76/11/38 23/19/37
f 23/19/37 76/11/38 70/18/39
f 76/11/38 73/17/40 70/18/39
f 70/18/39 73/17/40 24/21/41
f 25/10/20 76/11/38 26/12/19
f 76/11/38 22/13/36 26/12/19
f 26/12/19 22/13/36 17/14/21
f 22/13/36 27/15/42 17/14/21
f 17/14/21 27/15/42 28/16/26
f 5/22/7 29/3/5 30/23/4
f 31/22/12 9/3/11 32/23/14
f 33/4/43 34/24/43 35/5/44
f 34/24/43 33/4/43 36/25/43
f 37/26/43 36/27/43 38/28/43
f 36/27/43 37/26/43 39/24/44
f 39/24/44 34/29/43 36/30/43
f 42/5/44 40/25/43 41/4/43
f 40/25/43 42/5/44 43/24/43
f 46/28/43 45/24/43 44/26/44
f 45/24/43 46/28/43 40/27/43
f 40/30/43 43/29/43 45/24/43
f 61/31/45 48/32/46 47/33/47
f 47/7/47 12/8/18 11/6/16
f 12/8/18 47/7/47 48/9/46
f 49/8/25 50/7/23 16/9/22
f 50/7/23 49/8/25 51/6/27
f 51/7/27 15/8/24 53/6/48
f 15/8/24 51/7/27 49/9/25
f 52/31/49 53/32/48 15/33/24
f 61/31/45 47/32/47 54/33/50
f 54/6/50 11/9/16 55/7/30
f 11/9/16 54/6/50 47/8/47
f 56/11/28 51/10/27 59/17/31
f 59/6/31 53/9/48 57/7/51
f 53/9/48 59/6/31 51/8/27
f 52/31/49 57/32/51 53/33/48
f 61/31/45 54/32/50 63/33/52
f 63/7/52 55/8/30 58/6/34
f 55/8/30 63/7/52 54/9/50
f 18/18/32 59/17/31 60/21/53
f 60/7/53 57/8/51 66/6/54
f 57/8/51 60/7/53 59/9/31
f 52/31/49 66/32/54 57/33/51
f 61/31/45 63/32/52 62/33/55
f 62/6/55 58/9/34 64/7/56
f 58/9/34 62/6/55 63/8/52
f 64/6/56 19/9/33 69/7/57
f 19/9/33 64/6/56 58/8/34
f 69/6/57 18/9/32 71/7/58
f 18/9/32 69/6/57 19/8/33
f 71/6/58 60/9/53 65/7/59
f 60/9/53 71/6/58 18/8/32
f 65/6/59 66/9/54 67/7/60
f 66/9/54 65/6/59 60/8/53
f 52/31/49 67/32/60 66/33/54
f 61/31/45 62/32/55 68/33/61
f 68/9/61 64/6/56 24/8/41
f 64/6/56 68/9/61 62/7/55
f 24/9/41 69/6/57 70/8/39
f 69/6/57 24/9/41 64/7/56
f 70/9/39 71/6/58 23/8/37
f 71/6/58 70/9/39 69/7/57
f 23/9/37 65/6/59 21/8/35
f 65/6/59 23/9/37 71/7/58
f 21/9/35 67/6/60 72/8/62
f 67/6/60 21/9/35 65/7/59
f 52/31/49 72/32/62 67/33/60
f 61/31/45 68/32/61 74/33/63
f 74/8/63 24/7/41 73/9/40
f 24/7/41 74/8/63 68/6/61
f 22/13/36 21/20/35 27/15/42
f 27/8/42 72/7/62 77/9/64
f 72/7/62 27/8/42 21/6/35
f 52/31/49 77/32/64 72/33/62
f 61/31/45 74/32/63 75/33/65
f 75/9/65 73/6/40 25/8/20
f 73/6/40 75/9/65 74/7/63
f 76/11/38 25/10/20 73/17/40
f 28/9/26 77/6/64 78/8/66
f 77/6/64 28/9/26 27/7/42
f 52/31/49 78/32/66 77/33/64
f 61/31/45 75/32/65 48/33/46
f 48/8/46 25/7/20 12/9/18
f 25/7/20 48/8/46 75/6/65
f 15/9/24 28/6/26 78/7/66
f 52/31/49 15/32/24 78/33/66
