mtllib Nights.mtl
v -47.049057 249.288986 -16.643772 0.184314 0.494118 0.184314
v -116.396103 266.949066 -51.357475 0.105882 0.192157 0.152941
v 108.638603 206.203262 -6.016776 0.184314 0.494118 0.184314
v 74.567612 153.829544 61.358025 0.184314 0.494118 0.184314
v 71.706047 134.854599 43.559772 0.184314 0.239216 0
v 88.086372 273.645966 -11.23856 0.184314 0.494118 0.184314
v 126.488472 237.93454 -35.468445 0.117647 0.262745 0.137255
v -71.706055 134.854599 43.559765 0.184314 0.239216 0
v 139.710663 198.692352 -80.764061 0.184314 0.494118 0.184314
v 147.828369 146.377945 -151.987656 0.184314 0.498039 0.105882
v 118.893936 182.592148 -79.043701 0.184314 0.494118 0.184314
v 102.151222 191.367661 -94.986961 0.184314 0.494118 0.184314
v -134.217682 218.591782 -98.422638 0.184314 0.494118 0.184314
v -147.828369 146.377945 -151.987686 0.184314 0.498039 0.117647
v -118.893929 182.592148 -79.043724 0.184314 0.494118 0.184314
v -111.561584 211.693405 -103.899979 0.184314 0.494118 0.184314
v -102.151215 191.367661 -94.986977 0.184314 0.494118 0.184314
v -87.232376 255.549194 -60.519745 0.117647 0.262745 0.137255
v -139.710663 198.692352 -80.764084 0.184314 0.494118 0.184314
v -126.488472 237.93454 -35.468464 0.117647 0.262745 0.137255
v 111.5616 211.693405 -103.899963 0.184314 0.494118 0.184314
v 134.217682 218.591782 -98.422615 0.184314 0.494118 0.184314
v 119.02578 210.617401 -31.840267 0.117647 0.262745 0.137255
v 60.062187 252.864273 21.37162 0.184314 0.494118 0.184314
v 47.049061 249.288986 -16.643764 0.184314 0.494118 0.184314
v -108.638603 206.203262 -6.016792 0.184314 0.494118 0.184314
v -67.624649 126.726051 7.602644 0.184314 0.494118 0.184314
v -65.871407 217.43898 -56.965698 0.117647 0.262745 0.137255
v -25.212126 164.437164 -19.39484 0.184314 0.494118 0.184314
v -86.489655 196.276031 -39.878056 0.105882 0.192157 0.152941
v -119.02578 210.617401 -31.840286 0.117647 0.262745 0.137255
v -95.520264 239.088013 32.363426 0.184314 0.494118 0.184314
v -60.062195 252.864273 21.371609 0.184314 0.494118 0.184314
v -88.086372 273.645966 -11.238573 0.184314 0.494118 0.184314
v 87.232384 255.549194 -60.519733 0.117647 0.262745 0.137255
v 116.396111 266.949066 -51.35746 0.105882 0.192157 0.152941
v 62.663879 267.605682 -27.454229 0.184314 0.494118 0.184314
v 95.520256 239.088013 32.363438 0.184314 0.494118 0.184314
v 32.544956 203.796616 58.43306 0.117647 0.262745 0.137255
v 86.489662 196.276031 -39.878044 0.105882 0.192157 0.152941
v 65.871407 217.43898 -56.965691 0.117647 0.262745 0.137255
v -0.000002 187.547836 16.720543 0.117647 0.262745 0.137255
v -62.663876 267.605682 -27.454239 0.184314 0.494118 0.184314
v -74.567627 153.829544 61.358017 0.184314 0.494118 0.184314
v -33.467342 134.69989 101.391632 0.184314 0.494118 0.184314
v -54.780071 121.308762 83.82032 0.184314 0.333333 0
v -0.000009 81.961319 108.149475 0.184314 0.494118 0.184314
v 33.467327 134.69989 101.391632 0.184314 0.494118 0.184314
v -0.000007 174.945435 81.683784 0.184314 0.494118 0.184314
v 67.624649 126.726051 7.602654 0.184314 0.498039 0.184314
v 36.709244 88.543785 -26.356237 0.101961 0.090196 0.180392
v 51.48959 122.048561 -25.488411 0.152941 0.321569 0.168627
v 0.000002 95.897095 -37.04747 0.101961 0.090196 0.180392
v -36.70924 88.543785 -26.356243 0.101961 0.090196 0.180392
v 25.212128 164.437164 -19.394836 0.184314 0.494118 0.184314
v 0.000002 142.012863 -35.886089 0.117647 0.262745 0.137255
v -55.580486 171.999405 73.88327 0.121569 0.243137 0.152941
v -32.544968 203.796616 58.43306 0.117647 0.262745 0.137255
v -51.48959 122.048561 -25.488419 0.152941 0.321569 0.168627
v -0.00001 124.680237 114.184708 0.121569 0.243137 0.152941
v 55.580475 171.999405 73.883278 0.121569 0.243137 0.152941
v -0.000007 52.122414 84.856705 0.129412 0.266667 0.156863
v 47.026485 68.861839 2.42 0.164706 0.219608 0
v 35.76635 61.415455 74.938034 0.035294 0.109804 0.043137
v 35.277565 67.096245 73.740585 0.035294 0.109804 0.043137
v 8.123355 59.756237 80.53788 0.035294 0.109804 0.043137
v 44.53389 73.949181 64.873688 0.035294 0.109804 0.043137
v 64.04612 100.07093 57.181683 0.035294 0.109804 0.043137
v 68.385017 115.522652 50.470364 0.035294 0.109804 0.043137
v 34.593369 63.60154 72.245056 0.184314 0.498039 0.184314
v 48.233967 70.956818 56.229401 0.184314 0.498039 0.184314
v 52.723946 69.281296 58.826118 0.035294 0.109804 0.043137
v 70.219482 94.524994 56.153988 0.035294 0.109804 0.043137
v -68.385017 115.522652 50.470352 0.035294 0.109804 0.043137
v -64.04612 100.07093 57.181671 0.035294 0.109804 0.043137
v -70.219482 94.524994 56.153976 0.035294 0.109804 0.043137
v -44.53389 73.949181 64.87368 0.035294 0.109804 0.043137
v -35.277565 67.096245 73.740578 0.035294 0.109804 0.043137
v -35.76635 61.415455 74.938026 0.035294 0.109804 0.043137
v -8.123358 59.756237 80.53788 0.035294 0.109804 0.043137
v -52.723946 69.281296 58.826111 0.035294 0.109804 0.043137
v -48.233967 70.956818 56.229393 0.184314 0.498039 0.184314
v -34.593369 63.60154 72.245049 0.184314 0.498039 0.184314
v -38.799328 80.713699 81.119835 0.184314 0.498039 0.184314
v -67.084702 111.406441 51.134712 0.184314 0.498039 0.184314
v -58.32518 113.35067 73.720909 0.184314 0.403922 0.113725
v -50.339924 109.84742 83.001419 0.184314 0.403922 0.113725
v -31.138151 93.142876 90.697456 0.184314 0.403922 0.113725
v -9.647126 59.935947 80.251808 0.184314 0.498039 0.184314
v 38.799324 80.713699 81.119843 0.184314 0.498039 0.184314
v 9.647123 59.935947 80.251808 0.184314 0.498039 0.184314
v 31.138145 93.142876 90.697464 0.184314 0.403922 0.113725
v 50.33992 109.84742 83.001427 0.184314 0.403922 0.113725
v 58.325176 113.35067 73.720917 0.184314 0.403922 0.113725
v 67.084702 111.406441 51.13472 0.184314 0.498039 0.184314
v 28.387566 96.857262 92.171089 0.184314 0.427451 0.098039
v -0.000013 36.037758 50.994167 0.164706 0.219608 0
v -0.000016 89.638412 97.290535 0.184314 0.427451 0.098039
v -0.000015 52.110641 79.399635 0.184314 0.494118 0.184314
v 40.16328 53.363022 26.58709 0.164706 0.219608 0
v 38.699326 80.713692 80.919846 0.184314 0.494118 0.184314
v 33.223377 58.434494 69.365303 0.184314 0.494118 0.184314
v -33.223408 58.434494 69.365295 0.184314 0.494118 0.184314
v -21.689499 41.645462 42.109093 0.164706 0.219608 0
v -40.163303 53.363022 26.587082 0.164706 0.219608 0
v 58.424671 76.235451 42.371582 0.184314 0.494118 0.184314
v 63.873394 97.249039 14.631176 0.184314 0.494118 0.184314
v 54.780056 121.308762 83.820328 0.184314 0.333333 0
v 64.637291 98.252846 54.92379 0.184314 0.494118 0.184314
v 21.689476 41.645462 42.1091 0.164706 0.219608 0
v -58.424698 76.235451 42.371574 0.184314 0.494118 0.184314
v -38.69936 80.713692 80.919838 0.184314 0.494118 0.184314
v -28.387596 96.857262 92.171089 0.184314 0.427451 0.098039
v -64.637321 98.252846 54.923782 0.184314 0.494118 0.184314
v -63.873402 97.249039 14.631168 0.184314 0.494118 0.184314
v -47.026508 68.861839 2.419993 0.164706 0.219608 0
v 54.482777 87.122513 -51.689007 0.121569 0.223529 0.184314
v 60.003086 111.926773 -38.080788 0.117647 0.223529 0.184314
v -0.000407 101.62867 -68.97773 0.121569 0.223529 0.184314
v -60.003101 111.926773 -38.080788 0.117647 0.223529 0.184314
v -77.050453 52.101665 -9.952767 0.105882 0.25098 0.184314
v -54.482918 87.122566 -51.689049 0.121569 0.223529 0.184314
v -54.482872 17.080828 31.783546 0.105882 0.25098 0.184314
v -84.857201 73.357536 7.884254 0.117647 0.223529 0.184314
v -60.003101 34.788284 53.849293 0.117647 0.223529 0.184314
v 54.482822 17.080719 31.783689 0.105882 0.25098 0.184314
v 60.003078 34.788284 53.849293 0.117647 0.223529 0.184314
v 84.857178 73.357536 7.884254 0.117647 0.223529 0.184314
v 77.050308 52.101616 -9.952454 0.105882 0.25098 0.184314
v -0.000109 2.574731 49.07132 0.105882 0.25098 0.184314
v -0.000013 18.81238 72.888626 0.117647 0.223529 0.184314
v -0.000013 127.902679 -57.120129 0.117647 0.223529 0.184314
vt 0.031373 0.023529
vt 0.607843 0.023529
vt 0.027451 0.996078
vt 0.803922 0.207843
vt 0.011765 0.019608
vt 0.027451 0.427451
vt 0.321569 0.992157
vt 0.780392 0.019608
vt 0.007843 0.992157
vt 1.407843 0.992157
vt 1.980392 0.027451
vt 1.976471 0.996078
vt 0.772549 0.988235
vt 0.635294 0.031372
vt 0.388235 0.988235
vt 1.007843 0.980392
vt 0.490196 0.988235
vt 0.384314 0.247059
vt 1.964706 0.984314
vt 1.980392 0.239216
vt 1.556863 0.976471
vt 1.478431 0.243137
vt 0.960784 0.239216
vt 1.309804 0.286274
vt 0.945098 0.988235
vt 0.843137 0.290196
vt 0.47451 0.980392
vt 0.403922 0.27451
vt 0.043137 0.984314
vt 0.035294 0.27451
vt 0.278431 0.694118
vt 1.313726 0.698039
vt 0.670588 0.427451
vt 1.756863 0.431373
vt 1.078431 0.078431
vt 1.341177 0.027451
vt 0.968628 0.992157
vt 0.470588 0.992157
vt 1.976471 0.427451
vt 1.462745 0.294118
vt 1.486275 0.537255
vt 0.815686 0.709804
vt 0.027451 0.713725
vt 0 0.435294
vt 0.227451 0.082353
vt 0.745098 0.992157
vt 1.403922 0.992157
vt 1.392157 0.019608
vt 1.984314 0.992157
vt 1.996078 0.019608
vt 0.854902 0.556863
vt 0.690196 0.223529
vt 0.031373 0.588235
vt 1.443137 0.015686
vt 1.686275 0.321569
vt 1.556863 0.67451
vt 1.45098 0.988235
vt 0.941177 0.988235
vt 1.988235 0.992157
vt 0.576471 0.482353
vt 1.435294 0.980392
vt 0.670588 0.980392
vt 0.462745 0.639216
vt 0.027451 0.984314
vt 1.470588 0.305882
vt 0.772549 0.011765
vt 0.717647 0.156863
vt 0.345098 0.003922
vt 0.819608 0.356863
vt 0.780392 0.341176
vt 0.882353 0.454902
vt 0.760784 0.447059
vt 0.619608 0.14902
vt 0.623529 0.380392
vt 0.360784 0.592157
vt 0.317647 0.72549
vt 0.121569 0.882353
vt 0.580392 0.121569
vt 0.317647 0.639216
vt 0 0.298039
vt 0.27451 0.196078
vt 0.388235 0.584314
vt 0.52549 0
vt 0.866667 0.333333
vt 1.003922 0.439216
vt 0.827451 0.878431
vt 0.686275 1
vt 0.364706 0.94902
vt 0.807843 0.901961
vt 1 0.035294
vt 0.047059 0.035294
vt 0.72549 1.878431
vt 0.952941 2.972549
vt 0.039216 2.72549
vt 1.854902 2.105882
vt 2.011765 2.968627
vt 2.145098 0.035294
vt 2.984314 0.035294
vt 2.058824 0.858824
vt 2.984314 1.258824
vt 2.964706 2.972549
vt 0.027451 1.152941
vt 0.003922 0.423529
vt 1.003922 0.905882
vt 0 0.905882
vt 1 0.423529
vt 1.003922 0.827451
vt 0 0.827451
vt 0.87451 0.345098
vt 0.160784 0.345098
vt 0.501961 0.003922
vn -0.815821 -0.535295 0.218726
vn -0.689200 0.031587 0.723838
vn 0.000000 -0.953581 0.301065
vn 0.689200 0.031587 0.723838
vn 0.815821 -0.535295 0.218726
vn 0.930723 -0.204627 -0.303049
vn 0.503403 -0.839473 0.204535
vn 0.206977 -0.945311 -0.251961
vn -0.905454 0.387707 -0.172582
vn -0.847652 0.119846 -0.516800
vn -0.591693 -0.429456 -0.682211
vn -0.946593 0.291452 -0.137669
vn 0.847652 0.119846 -0.516800
vn 0.905454 0.387707 -0.172582
vn 0.591693 -0.429456 -0.682211
vn 0.946593 0.291452 -0.137669
vn -0.206977 -0.945311 -0.251961
vn -0.503403 -0.839473 0.204535
vn -0.930723 -0.204627 -0.303049
vn 0.918271 0.328135 0.221534
vn -0.936277 0.215003 -0.277718
vn -0.309214 0.629139 0.713095
vn -0.050813 0.935331 -0.350047
vn -0.621113 -0.600635 0.503372
vn 0.784204 0.478256 0.395306
vn 0.410749 -0.421461 0.808466
vn 0.309214 0.629139 0.713095
vn -0.410749 -0.421461 0.808466
vn 0.621113 -0.600635 0.503372
vn 0.050813 0.935331 -0.350047
vn 0.936277 0.215003 -0.277718
vn -0.784204 0.478256 0.395306
vn 0.332194 0.871029 0.361827
vn -0.398083 -0.626698 0.669851
vn 0.741783 0.564806 -0.361553
vn 0.398083 -0.626698 0.669851
vn -0.332194 0.871029 0.361827
vn -0.741783 0.564806 -0.361553
vn 0.344310 -0.785546 -0.514115
vn 0.568743 -0.778039 0.266701
vn 0.551683 0.230140 0.801660
vn -0.407819 -0.287393 0.866634
vn -0.344310 -0.785546 -0.514115
vn -0.568743 -0.778039 0.266701
vn -0.402173 -0.342143 -0.849208
vn 0.292764 -0.697867 -0.653615
vn -0.918271 0.328135 0.221534
vn -0.551958 0.236335 0.799646
vn 0.407819 -0.287393 0.866634
vn -0.292764 -0.697867 -0.653615
vn 0.402173 -0.342143 -0.849208
vn 0.424360 -0.167180 -0.889889
vn 0.478622 0.335063 -0.811548
vn 0.737480 0.155339 -0.657216
vn 0.000000 0.450453 -0.892758
vn 0.000000 -0.146611 -0.989166
vn -0.424360 -0.167180 -0.889889
vn 0.000000 -0.683737 -0.729698
vn 0.000000 -0.333293 0.942808
vn -0.928953 0.287515 0.233131
vn -0.598865 0.228034 0.767663
vn 0.000000 0.018647 0.999817
vn 0.851741 0.427259 0.303232
vn 0.577288 0.234382 0.782159
vn 0.931730 0.284982 0.224921
vn 0.000000 0.615314 -0.788263
vn -0.478622 0.335063 -0.811548
vn -0.737480 0.155339 -0.657216
vn -0.856838 0.411298 0.310862
vn -0.376446 0.777825 -0.503189
vn -0.247383 0.968841 0.010224
vn -0.203436 0.443159 -0.873012
vn -0.464583 -0.210913 -0.860042
vn -0.678243 0.729972 0.084109
vn -0.573473 -0.009461 -0.819147
vn -0.978240 0.205023 0.031098
vn -0.330821 -0.197241 -0.922819
vn -0.956694 -0.150914 -0.248817
vn -0.594470 0.757591 0.269448
vn -0.930601 0.364696 0.030488
vn 0.956694 -0.150914 -0.248848
vn 0.330821 -0.197241 -0.922819
vn 0.978240 0.205023 0.031098
vn 0.573473 -0.009461 -0.819147
vn 0.678243 0.729972 0.084109
vn 0.464583 -0.210913 -0.860042
vn 0.376446 0.777825 -0.503189
vn 0.203436 0.443159 -0.873012
vn 0.930601 0.364696 0.030488
vn 0.594470 0.757591 0.269448
vn 0.247383 0.968841 0.010224
vn 0.318125 0.480514 -0.817225
vn 0.576281 0.424848 -0.698111
vn 0.928251 0.067324 -0.365795
vn 0.813807 0.288095 -0.504654
vn 0.730583 0.328745 -0.598407
vn 0.454787 0.350536 -0.818690
vn -0.576281 0.424848 -0.698111
vn -0.318125 0.480514 -0.817225
vn -0.454787 0.350536 -0.818690
vn -0.730583 0.328745 -0.598407
vn -0.813807 0.288095 -0.504654
vn -0.928251 0.067324 -0.365795
vn 0.860042 0.493301 -0.130161
vn 0.745811 0.663625 -0.057466
vn -0.566607 0.417371 -0.710410
vn -0.505997 0.813379 -0.286905
vn 0.000000 0.894650 -0.446730
vn -0.550432 0.653981 -0.518937
vn 0.000000 0.688253 -0.725425
vn 0.000000 0.430311 -0.902646
vn -0.860042 0.493301 -0.130161
vn -0.745811 0.663625 -0.057466
vn 0.566607 0.417371 -0.710410
vn 0.550432 0.653981 -0.518937
vn 0.505997 0.813379 -0.286905
vn -0.483261 0.248543 0.839412
vn -0.851100 -0.402142 -0.337443
vn -0.601825 -0.788995 0.123569
vn -0.683432 0.559191 0.469222
vn 0.000000 0.119877 0.992767
vn 0.000000 -0.949217 0.314524
vn 0.483261 0.248543 0.839412
vn 0.601825 -0.788995 0.123569
vn 0.683432 0.559191 0.469222
vn 0.851100 -0.402142 -0.337443
vn 0.483261 0.869839 0.099033
vn 0.601825 -0.015259 -0.798456
vn 0.000000 0.998505 -0.054292
vn 0.000000 0.144932 -0.989410
vn -0.483261 0.869839 0.099033
vn -0.601825 -0.015259 -0.798456
usemtl Mesh_0627.rip
f 89/80/92 83/81/91 84/82/93
f 83/81/91 82/83/90 84/82/93
f 84/82/93 82/83/90 114/84/89
f 85/85/94 86/86/95 114/84/89
f 86/86/95 87/87/96 114/84/89
f 114/84/89 87/87/96 84/82/93
f 87/87/96 88/88/97 84/82/93
f 84/82/93 88/88/97 89/80/92
f 109/84/80 71/83/79 90/82/98
f 71/83/79 70/81/71 90/82/98
f 90/82/98 70/81/71 91/80/99
f 91/80/99 92/88/100 90/82/98
f 92/88/100 93/87/101 90/82/98
f 90/82/98 93/87/101 109/84/80
f 93/87/101 94/86/102 109/84/80
f 109/84/80 94/86/102 95/85/103
usemtl Mesh_0615.rip
f 1/1/1 28/2/2 42/3/3
f 42/3/3 41/2/4 25/1/5
f 20/4/6 2/5/7 34/6/8
f 3/5/9 4/7/10 38/8/11
f 4/7/10 3/5/9 5/9/12
f 44/7/13 26/5/14 32/8/15
f 26/5/14 44/7/13 8/9/16
f 6/6/17 36/5/18 7/4/19
f 27/10/20 26/11/14 8/12/16
f 9/13/21 10/14/22 11/15/23
f 10/14/22 9/15/21 22/13/24
f 11/13/23 10/14/22 12/15/25
f 12/13/25 10/14/22 21/15/26
f 14/14/27 16/15/28 13/13/29
f 22/15/24 21/13/26 10/14/22
f 15/13/30 14/14/27 19/15/31
f 13/15/29 19/13/31 14/14/27
f 17/13/32 14/14/27 15/15/30
f 16/13/28 14/14/27 17/15/32
f 21/16/26 22/17/24 36/18/18
f 2/18/7 13/17/29 16/16/28
f 15/19/30 30/20/33 17/21/32
f 30/20/33 28/22/2 17/21/32
f 17/21/32 28/22/2 16/16/28
f 28/22/2 18/23/34 16/16/28
f 16/16/28 18/23/34 2/18/7
f 30/24/33 15/25/30 31/26/35
f 15/25/30 19/27/31 31/26/35
f 31/26/35 19/27/31 20/28/6
f 19/27/31 13/29/29 20/28/6
f 20/28/6 13/29/29 2/30/7
f 36/18/18 35/23/36 21/16/26
f 35/23/36 41/22/4 21/16/26
f 21/16/26 41/22/4 12/21/25
f 41/22/4 40/20/37 12/21/25
f 12/21/25 40/20/37 11/19/23
f 36/30/18 22/29/24 7/28/19
f 22/29/24 9/27/21 7/28/19
f 7/28/19 9/27/21 23/26/38
f 9/27/21 11/25/23 23/26/38
f 23/26/38 11/25/23 40/24/37
f 24/31/39 25/32/5 37/33/40
f 25/32/5 41/34/4 37/33/40
f 37/33/40 41/34/4 35/35/36
f 26/11/14 27/10/20 30/36/33
f 27/10/20 59/37/41 30/36/33
f 30/36/33 59/37/41 28/2/2
f 59/37/41 29/38/42 28/2/2
f 28/2/2 29/38/42 42/3/3
f 30/39/33 31/40/35 26/41/14
f 31/40/35 20/4/6 26/41/14
f 26/41/14 20/4/6 32/42/15
f 20/4/6 34/6/8 32/42/15
f 32/42/15 34/6/8 33/43/43
f 33/31/43 34/44/8 43/33/44
f 34/44/8 2/45/7 43/33/44
f 43/33/44 2/45/7 18/35/34
f 35/35/36 36/45/18 37/33/40
f 36/45/18 6/44/17 37/33/40
f 37/33/40 6/44/17 24/31/39
f 24/43/39 6/6/17 38/42/11
f 6/6/17 7/4/19 38/42/11
f 38/42/11 7/4/19 3/41/9
f 7/4/19 23/40/38 3/41/9
f 3/41/9 23/40/38 40/39/37
f 4/7/10 61/46/45 38/8/11
f 61/46/45 39/47/46 38/8/11
f 38/8/11 39/47/46 24/48/39
f 39/47/46 42/49/3 24/48/39
f 24/48/39 42/49/3 25/50/5
f 5/12/12 3/11/9 50/10/47
f 3/11/9 40/36/37 50/10/47
f 50/10/47 40/36/37 52/37/48
f 40/36/37 41/2/4 52/37/48
f 52/37/48 41/2/4 55/38/49
f 41/2/4 42/3/3 55/38/49
f 18/35/34 28/34/2 43/33/44
f 28/34/2 1/32/1 43/33/44
f 43/33/44 1/32/1 33/31/43
f 1/50/1 42/49/3 33/48/43
f 42/49/3 58/47/50 33/48/43
f 33/48/43 58/47/50 32/8/15
f 58/47/50 57/46/51 32/8/15
f 32/8/15 57/46/51 44/7/13
f 45/51/52 113/52/53 46/53/54
f 47/54/55 60/55/56 48/51/57
f 49/56/58 39/57/46 61/58/45
f 39/57/46 49/56/58 42/59/3
f 56/60/59 52/61/48 55/62/49
f 107/63/60 5/64/12 50/62/47
f 51/65/61 52/61/48 53/66/62
f 44/15/13 46/53/54 8/9/16
f 59/61/41 116/67/63 54/65/64
f 55/62/49 42/64/3 56/60/59
f 42/64/3 29/62/42 56/60/59
f 56/60/59 29/62/42 59/61/41
f 116/67/63 59/61/41 115/63/65
f 59/61/41 27/62/20 115/63/65
f 115/63/65 27/62/20 8/64/16
f 46/53/54 44/15/13 45/51/52
f 44/15/13 57/58/51 45/51/52
f 45/51/52 57/58/51 49/56/58
f 57/58/51 58/57/50 49/56/58
f 49/56/58 58/57/50 42/59/3
f 52/61/48 56/60/59 53/66/62
f 56/60/59 59/61/41 53/66/62
f 53/66/62 59/61/41 54/65/64
f 62/68/66 113/52/53 47/54/55
f 113/52/53 45/51/52 47/54/55
f 47/54/55 45/51/52 60/55/56
f 45/51/52 49/56/58 60/55/56
f 60/55/56 49/56/58 48/51/57
f 49/56/58 61/58/45 48/51/57
f 48/51/57 61/58/45 4/15/10
f 62/68/66 47/54/55 96/52/67
f 47/54/55 48/51/57 96/52/67
f 96/52/67 48/51/57 108/53/68
f 48/51/57 4/15/10 108/53/68
f 108/53/68 4/15/10 5/9/12
f 50/62/47 52/61/48 107/63/60
f 52/61/48 51/65/61 107/63/60
f 107/63/60 51/65/61 63/67/69
f 117/103/117 128/104/118 118/105/119
f 128/104/118 117/103/117 129/106/120
f 119/103/121 118/104/119 132/105/122
f 118/104/119 119/103/121 117/106/117
f 122/103/123 132/104/122 120/105/124
f 132/104/122 122/103/123 119/106/121
f 121/103/125 120/104/124 124/105/126
f 120/104/124 121/103/125 122/106/123
f 123/103/127 124/104/126 125/105/128
f 124/104/126 123/103/127 121/106/125
f 130/103/129 125/104/128 131/105/130
f 125/104/128 130/103/129 123/106/127
f 126/103/131 131/104/130 127/105/132
f 131/104/130 126/103/131 130/106/129
f 129/103/120 127/104/132 128/105/118
f 127/104/132 129/103/120 126/106/131
f 121/107/125 129/108/120 122/109/123
f 129/108/120 117/110/117 122/109/123
f 122/109/123 117/110/117 119/111/121
f 129/107/120 121/108/125 126/109/131
f 121/108/125 123/110/127 126/109/131
f 126/109/131 123/110/127 130/111/129
f 124/107/126 128/108/118 125/109/128
f 128/108/118 127/110/132 125/109/128
f 125/109/128 127/110/132 131/111/130
f 128/107/118 124/108/126 118/109/119
f 124/108/126 120/110/124 118/109/119
f 118/109/119 120/110/124 132/111/122
usemtl Mesh_0620.rip
f 111/89/104 105/90/105 116/91/63
f 109/92/80 108/93/68 5/94/12
f 101/95/106 96/96/67 108/93/68
f 110/97/107 97/98/108 102/99/109
f 96/96/67 99/100/110 98/101/111
f 99/100/110 96/96/67 101/95/106
f 106/89/112 63/91/69 100/90/113
f 46/93/54 113/96/53 112/95/114
f 8/94/16 46/93/54 114/92/89
f 46/93/54 112/95/114 114/92/89
f 114/92/89 112/95/114 111/89/104
f 101/95/106 102/99/109 99/100/110
f 102/99/109 97/98/108 99/100/110
f 99/100/110 97/98/108 103/99/115
f 97/98/108 104/97/116 103/99/115
f 103/99/115 104/97/116 105/90/105
f 63/91/69 106/89/112 107/102/60
f 106/89/112 109/92/80 107/102/60
f 107/102/60 109/92/80 5/94/12
f 108/93/68 109/92/80 101/95/106
f 109/92/80 106/89/112 101/95/106
f 101/95/106 106/89/112 102/99/109
f 106/89/112 100/90/113 102/99/109
f 102/99/109 100/90/113 110/97/107
f 105/90/105 111/89/104 103/99/115
f 111/89/104 112/95/114 103/99/115
f 103/99/115 112/95/114 99/100/110
f 112/95/114 113/96/53 99/100/110
f 99/100/110 113/96/53 98/101/111
f 8/94/16 114/92/89 115/102/65
f 114/92/89 111/89/104 115/102/65
f 115/102/65 111/89/104 116/91/63
usemtl Mesh_0631.rip
f 64/69/70 70/70/71 66/71/72
f 64/69/70 65/72/73 72/73/74
f 65/72/73 64/69/70 66/71/72
f 67/74/75 72/73/74 65/72/73
f 72/73/74 67/74/75 73/75/76
f 67/74/75 68/76/77 73/75/76
f 73/75/76 68/76/77 69/77/78
f 70/70/71 64/69/70 71/78/79
f 64/69/70 72/73/74 71/78/79
f 71/78/79 72/73/74 109/79/80
f 72/73/74 73/75/76 109/79/80
f 109/79/80 73/75/76 69/77/78
f 74/77/81 75/76/82 76/75/83
f 75/76/82 77/74/84 76/75/83
f 76/75/83 77/74/84 81/73/85
f 77/74/84 78/72/86 81/73/85
f 81/73/85 78/72/86 79/69/87
f 78/72/86 80/71/88 79/69/87
f 74/77/81 76/75/83 114/79/89
f 76/75/83 81/73/85 114/79/89
f 114/79/89 81/73/85 82/78/90
f 81/73/85 79/69/87 82/78/90
f 82/78/90 79/69/87 83/70/91
f 79/69/87 80/71/88 83/70/91
