# Blender v2.79 (sub 0) OBJ File: ''
# www.blender.org
mtllib Ramp.mtl
v 51.751575 -6.559677 -21.536602
v 0.749654 1.258299 -21.494961
v 55.639538 1.154910 -21.520077
v 0.749654 1.258299 -21.494961
v 51.751575 -6.559677 -21.536602
v -3.787668 -6.454252 -21.511198
v 55.641857 1.187630 21.475281
v -3.785360 -6.421538 21.484148
v 51.753883 -6.526966 21.458750
v -3.785360 -6.421538 21.484148
v 55.641857 1.187630 21.475281
v 0.751970 1.291018 21.500385
v 0.751970 1.291018 21.500385
v -0.004458 0.002794 17.812366
v -0.004254 0.005591 21.497683
v 54.991756 -0.128049 -17.837524
v 54.991547 -0.130847 -21.522835
v 55.639538 1.154910 -21.520077
v 55.641857 1.187630 21.475281
v 54.993874 -0.098142 21.472530
v 54.993660 -0.100938 17.787209
v -0.006565 -0.027124 -21.497675
v -0.006373 -0.024317 -17.812363
v 0.749654 1.258299 -21.494961
v 51.753883 -6.526966 21.458750
v 54.991547 -0.130847 -21.522835
v 54.993874 -0.098142 21.472530
v 54.991547 -0.130847 -21.522835
v 51.753883 -6.526966 21.458750
v 51.751575 -6.559677 -21.536602
v 24.161743 -45.984436 19.535023
v 50.613426 -4.421803 19.621607
v 44.794685 -5.044239 19.622759
v 50.613426 -4.421803 19.621607
v 24.161743 -45.984436 19.535023
v 29.980473 -45.361996 19.533869
v 50.611317 -4.451726 -19.688431
v 29.978706 -45.387226 -13.633981
v 29.978390 -45.391903 -19.776182
v 29.978706 -45.387226 -13.633981
v 50.611317 -4.451726 -19.688431
v 50.611649 -4.447054 -13.546244
v 44.792580 -5.074153 -19.687271
v 29.978390 -45.391903 -19.776182
v 24.159630 -46.014339 -19.775019
v 29.978390 -45.391903 -19.776182
v 44.792580 -5.074153 -19.687271
v 50.611317 -4.451726 -19.688431
v 29.980473 -45.361996 19.533869
v 50.613098 -4.426481 13.479405
v 50.613426 -4.421803 19.621607
v 50.613098 -4.426481 13.479405
v 29.980473 -45.361996 19.533869
v 29.980160 -45.366673 13.391669
v 54.991756 -0.128049 -17.837524
v -0.006373 -0.024317 -17.812363
v 54.992710 -0.114491 -0.025158
v -0.005414 -0.010762 0.000001
v 54.993660 -0.100938 17.787209
v -0.004458 0.002794 17.812366
v 25.989193 -45.659893 -17.932348
v -1.618317 -3.222771 -17.819214
v 47.266899 -3.440320 -17.841869
v -1.618317 -3.222771 -17.819214
v 25.989193 -45.659893 -17.932348
v -25.797539 -51.199562 -17.922035
v 25.991096 -45.632786 17.692375
v 47.266899 -3.440320 -17.841869
v 47.268806 -3.413214 17.782852
v 47.266899 -3.440320 -17.841869
v 25.991096 -45.632786 17.692375
v 25.989193 -45.659893 -17.932348
v -25.795624 -51.172451 17.702694
v 47.268806 -3.413214 17.782852
v -1.616394 -3.195666 17.805517
v 47.268806 -3.413214 17.782852
v -25.795624 -51.172451 17.702694
v 25.991096 -45.632786 17.692375
v 55.639538 1.154910 -21.520077
v -0.006373 -0.024317 -17.812363
v 54.991756 -0.128049 -17.837524
v -0.006373 -0.024317 -17.812363
v 55.639538 1.154910 -21.520077
v 0.749654 1.258299 -21.494961
v 54.993660 -0.100938 17.787209
v 0.751970 1.291018 21.500385
v 55.641857 1.187630 21.475281
v 0.751970 1.291018 21.500385
v 54.993660 -0.100938 17.787209
v -0.004458 0.002794 17.812366
vt 0.000000 0.998204
vt 1.000000 0.995895
vt 1.000000 0.733455
vt 1.000000 0.733455
vt 0.000000 0.735820
vt 0.000000 0.998204
vt 0.000000 0.736933
vt 1.000000 0.734568
vt 1.000000 0.997008
vt 1.000000 0.997008
vt 0.000000 0.999318
vt 0.000000 0.736933
vt 0.000000 0.955492
vt 0.000000 0.955587
vt 0.000000 0.999318
vt 3.883709 0.738562
vt 3.883461 0.998645
vt 3.550859 0.739030
vt 0.000452 0.744029
vt 0.333303 0.743560
vt 0.000203 1.004113
vt 0.000000 0.954569
vt 0.000000 0.998204
vt 0.000000 0.954474
vt 2.000000 1.000000
vt -1.000000 1.000000
vt -1.000000 0.000000
vt -1.000000 0.000000
vt 2.000000 0.000000
vt 2.000000 1.000000
vt 0.646955 0.787221
vt 0.616909 0.748467
vt 0.616740 0.188284
vt 0.616740 0.188284
vt 0.646786 0.227037
vt 0.646955 0.787221
vt 0.646846 0.226752
vt 0.646857 0.226699
vt 0.647026 0.786883
vt 0.647026 0.786883
vt 0.647015 0.786935
vt 0.646846 0.226752
vt 0.646857 0.226699
vt 0.616811 0.187945
vt 0.616980 0.748129
vt 0.616980 0.748129
vt 0.647026 0.786883
vt 0.646857 0.226699
vt 0.646966 0.787168
vt 0.646955 0.787221
vt 0.646786 0.227037
vt 0.646786 0.227037
vt 0.646797 0.226984
vt 0.646966 0.787168
vt 0.026400 2.278311
vt 0.032775 -1.279194
vt 0.967463 -1.279272
vt 0.967463 -1.279272
vt 0.961085 2.278232
vt 0.026400 2.278311
vt 0.026400 2.278311
vt 0.032775 -1.279194
vt 0.967463 -1.279272
vt 0.967463 -1.279272
vt 0.961085 2.278232
vt 0.026400 2.278311
vt 0.000000 1.000000
vt 1.000000 0.999668
vt 1.000000 0.000000
vt 1.000000 0.000000
vt 0.000239 0.000000
vt 0.000000 1.000000
vt 1.000000 1.000000
vt 0.242188 1.000000
vt 0.242188 0.000000
vt 0.242188 0.000000
vt 1.000000 0.000000
vt 1.000000 1.000000
vt 0.999761 1.000000
vt 0.000000 1.000000
vt 0.000000 0.000332
vt 0.000000 0.000332
vt 1.000000 0.000000
vt 0.999761 1.000000
vt 0.000706 -0.742389
vt 0.499647 1.742653
vt 0.000000 1.742918
vt 0.500353 -0.742653
vt 0.999294 1.742388
vt 1.000000 -0.742918
vn -0.0005 0.0024 -1.0000
vn 0.0005 -0.0024 1.0000
vn -0.8619 0.5071 -0.0003
vn 0.8930 -0.4500 0.0003
vn 0.8930 -0.4501 0.0003
vn 0.0019 0.9442 0.3293
vn 0.0016 0.9439 -0.3301
vn 0.0016 0.9440 -0.3301
vn 0.0019 1.0000 -0.0008
usemtl material_226
s 1
f 2/1/1 3/2/1 1/3/1
f 5/4/1 6/5/1 4/6/1
f 8/7/2 9/8/2 7/9/2
f 11/10/2 12/11/2 10/12/2
f 14/13/3 15/14/3 13/15/3
f 17/16/4 18/17/4 16/18/4
f 20/19/4 21/20/4 19/21/4
f 23/22/3 24/23/3 22/24/3
f 26/25/5 27/26/5 25/27/5
f 29/28/5 30/29/5 28/30/5
f 32/31/2 33/32/2 31/33/2
f 35/34/2 36/35/2 34/36/2
f 38/37/5 39/38/5 37/39/5
f 41/40/5 42/41/5 40/42/5
f 44/43/1 45/44/1 43/45/1
f 47/46/1 48/47/1 46/48/1
f 50/49/5 51/50/5 49/51/5
f 53/52/5 54/53/5 52/54/5
usemtl material_90
f 80/55/6 81/56/6 79/57/6
f 83/58/6 84/59/6 82/60/6
f 86/61/7 87/62/7 85/63/7
f 89/64/8 90/65/8 88/66/8
usemtl material_210
f 62/67/1 63/68/1 61/69/1
f 65/70/1 66/71/1 64/72/1
f 68/73/5 69/74/5 67/75/5
f 71/76/5 72/77/5 70/78/5
f 74/79/2 75/80/2 73/81/2
f 77/82/2 78/83/2 76/84/2
usemtl material_96
f 56/85/9 57/86/9 55/87/9
f 58/88/9 57/86/9 56/85/9
f 58/88/9 59/89/9 57/86/9
f 60/90/9 59/89/9 58/88/9
