# Blender v2.79 (sub 0) OBJ File: ''
# www.blender.org
mtllib Ramp.mtl
v 38.332394 -4.858750 -15.952162
v 0.555269 0.932025 -15.921318
v 41.212208 0.855444 -15.939921
v 0.555269 0.932025 -15.921318
v 38.332394 -4.858750 -15.952162
v -2.805526 -4.780662 -15.933346
v 41.213924 0.879675 15.906740
v -2.803816 -4.756435 15.913307
v 38.334103 -4.834526 15.894495
v -2.803816 -4.756435 15.913307
v 41.213924 0.879675 15.906740
v 0.556984 0.956254 15.925336
v 0.556984 0.956254 15.925336
v -0.003302 0.002067 13.193620
v -0.003151 0.004139 15.923333
v 40.732395 -0.094844 -13.212255
v 40.732239 -0.096916 -15.941964
v 41.212208 0.855444 -15.939921
v 41.213924 0.879675 15.906740
v 40.733963 -0.072696 15.904703
v 40.733803 -0.074767 13.174986
v -0.004863 -0.020088 -15.923328
v -0.004720 -0.018009 -13.193617
v 0.555269 0.932025 -15.921318
v 38.334103 -4.834526 15.894495
v 40.732239 -0.096916 -15.941964
v 40.733963 -0.072696 15.904703
v 40.732239 -0.096916 -15.941964
v 38.334103 -4.834526 15.894495
v 38.332394 -4.858750 -15.952162
v 17.896603 -34.060677 14.469585
v 37.489365 -3.275232 14.533723
v 33.179424 -3.736270 14.534576
v 37.489365 -3.275232 14.533723
v 17.896603 -34.060677 14.469585
v 22.206535 -33.599636 14.468731
v 37.487804 -3.297391 -14.583221
v 22.205229 -33.618320 -10.098696
v 22.204994 -33.621780 -14.648224
v 22.205229 -33.618320 -10.098696
v 37.487804 -3.297391 -14.583221
v 37.488049 -3.293931 -10.033704
v 33.177864 -3.758423 -14.582363
v 22.204994 -33.621780 -14.648224
v 17.895039 -34.082817 -14.647362
v 22.204994 -33.621780 -14.648224
v 33.177864 -3.758423 -14.582363
v 37.487804 -3.297391 -14.583221
v 22.206535 -33.599636 14.468731
v 37.489120 -3.278696 9.984195
v 37.489365 -3.275232 14.533723
v 37.489120 -3.278696 9.984195
v 22.206535 -33.599636 14.468731
v 22.206305 -33.603096 9.919204
v 40.732395 -0.094844 -13.212255
v -0.004720 -0.018009 -13.193617
v 40.733101 -0.084803 -0.018635
v -0.004010 -0.007971 0.000001
v 40.733803 -0.074767 13.174986
v -0.003302 0.002067 13.193620
v 19.250195 -33.820278 -13.282496
v -1.198687 -2.387104 -13.198691
v 35.010593 -2.548243 -13.215473
v -1.198687 -2.387104 -13.198691
v 19.250195 -33.820278 -13.282496
v -19.108236 -37.923512 -13.274858
v 19.251606 -33.800209 13.104736
v 35.010593 -2.548243 -13.215473
v 35.012005 -2.528170 13.171759
v 35.010593 -2.548243 -13.215473
v 19.251606 -33.800209 13.104736
v 19.250195 -33.820278 -13.282496
v -19.106819 -37.903439 13.112380
v 35.012005 -2.528170 13.171759
v -1.197263 -2.367032 13.188547
v 35.012005 -2.528170 13.171759
v -19.106819 -37.903439 13.112380
v 19.251606 -33.800209 13.104736
v 41.212208 0.855444 -15.939921
v -0.004720 -0.018009 -13.193617
v 40.732395 -0.094844 -13.212255
v -0.004720 -0.018009 -13.193617
v 41.212208 0.855444 -15.939921
v 0.555269 0.932025 -15.921318
v 40.733803 -0.074767 13.174986
v 0.556984 0.956254 15.925336
v 41.213924 0.879675 15.906740
v 0.556984 0.956254 15.925336
v 40.733803 -0.074767 13.174986
v -0.003302 0.002067 13.193620
vt 0.000706 -0.742389
vt 0.499647 1.742653
vt 0.000000 1.742918
vt 0.500353 -0.742653
vt 0.999294 1.742388
vt 1.000000 -0.742918
vt 0.000000 0.998204
vt 1.000000 0.995895
vt 1.000000 0.733455
vt 0.000000 0.735820
vt 0.000000 0.736933
vt 1.000000 0.734568
vt 1.000000 0.997008
vt 0.000000 0.999318
vt 0.000000 0.955492
vt 0.000000 0.955587
vt 3.883709 0.738562
vt 3.883461 0.998645
vt 3.550859 0.739030
vt 0.000452 0.744029
vt 0.333303 0.743560
vt 0.000203 1.004113
vt 0.000000 0.954569
vt 0.000000 0.954474
vt 2.000000 1.000000
vt -1.000000 1.000000
vt -1.000000 0.000000
vt 2.000000 0.000000
vt 0.646955 0.787221
vt 0.616909 0.748467
vt 0.616740 0.188284
vt 0.646786 0.227037
vt 0.646846 0.226752
vt 0.646857 0.226699
vt 0.647026 0.786883
vt 0.647015 0.786935
vt 0.616811 0.187945
vt 0.616980 0.748129
vt 0.646966 0.787168
vt 0.646797 0.226984
vt 0.000000 1.000000
vt 1.000000 0.999668
vt 1.000000 0.000000
vt 0.000239 0.000000
vt 1.000000 1.000000
vt 0.242188 1.000000
vt 0.242188 0.000000
vt 0.999761 1.000000
vt 0.000000 0.000332
vt 0.026400 2.278311
vt 0.032775 -1.279194
vt 0.967463 -1.279272
vt 0.961085 2.278232
vn 0.001862 0.999969 -0.000732
vn -0.000427 0.002350 -0.999969
vn 0.000427 -0.002350 0.999969
vn -0.861904 0.507065 -0.000336
vn 0.892972 -0.450026 0.000275
vn 0.893002 -0.450026 0.000275
vn -0.861904 0.507035 -0.000336
vn 0.001923 0.944212 0.329295
vn 0.001923 0.944212 0.329264
vn 0.001617 0.943937 -0.330088
vn 0.001617 0.943937 -0.330058
usemtl material_96
s 1
f 56/1/1 57/2/1 55/3/1
f 58/4/1 57/2/1 56/1/1
f 58/4/1 59/5/1 57/2/1
f 60/6/1 59/5/1 58/4/1
usemtl material_226
f 2/7/2 3/8/2 1/9/2
f 5/9/2 6/10/2 4/7/2
f 8/11/3 9/12/3 7/13/3
f 11/13/3 12/14/3 10/11/3
f 14/15/4 15/16/4 13/14/4
f 17/17/5 18/18/5 16/19/5
f 20/20/6 21/21/6 19/22/6
f 23/23/7 24/7/7 22/24/7
f 26/25/5 27/26/5 25/27/5
f 29/27/5 30/28/5 28/25/5
f 32/29/3 33/30/3 31/31/3
f 35/31/3 36/32/3 34/29/3
f 38/33/5 39/34/5 37/35/5
f 41/35/5 42/36/5 40/33/5
f 44/34/2 45/37/2 43/38/2
f 47/38/2 48/35/2 46/34/2
f 50/39/5 51/29/5 49/32/5
f 53/32/5 54/40/5 52/39/5
usemtl material_210
f 62/41/2 63/42/2 61/43/2
f 65/43/2 66/44/2 64/41/2
f 68/45/5 69/46/5 67/47/5
f 71/47/5 72/43/5 70/45/5
f 74/48/3 75/41/3 73/49/3
f 77/49/3 78/43/3 76/48/3
usemtl material_90
f 80/50/8 81/51/8 79/52/8
f 83/52/9 84/53/9 82/50/9
f 86/50/10 87/51/10 85/52/10
f 89/52/11 90/53/11 88/50/11

