# Blender v2.79 (sub 0) OBJ File: ''
# www.blender.org
mtllib Spotlight.mtl
v 24.511084 -8.117520 -0.000003 1.000000 1.000000 1.000000
v 24.511086 -4.058757 -7.029982 1.000000 1.000000 1.000000
v 633.344543 -45.110195 -78.132980 1.000000 1.000000 1.000000
v 24.511086 4.058766 -7.029982 1.000000 1.000000 1.000000
v 633.344543 45.109982 -78.133018 1.000000 1.000000 1.000000
v 24.511087 8.117526 -0.000004 1.000000 1.000000 1.000000
v 633.344543 90.220085 -0.000039 1.000000 1.000000 1.000000
v 24.511086 4.058766 7.029975 1.000000 1.000000 1.000000
v 633.344543 45.110039 78.132919 1.000000 1.000000 1.000000
v 24.511086 -4.058757 7.029979 1.000000 1.000000 1.000000
v 633.344543 -45.110172 78.132957 1.000000 1.000000 1.000000
v 633.344543 -90.220268 -0.000017 1.000000 1.000000 1.000000
v 8.344271 -11.460901 -0.000015 0.137255 0.600000 0.666667
v 24.664284 0.079074 -11.539994 1.000000 1.000000 1.000000
v 8.344272 0.079077 -11.539993 0.137255 0.600000 0.666667
v -1.447719 0.079079 -0.000015 0.129412 0.113725 0.149020
v 8.344275 11.619055 -0.000015 0.137255 0.600000 0.666667
v 8.344274 0.079077 11.539963 0.137255 0.600000 0.666667
v 24.664284 0.079074 11.539962 1.000000 1.000000 1.000000
v 24.664282 -11.460904 -0.000016 1.000000 1.000000 1.000000
v 24.664286 11.619052 -0.000016 1.000000 1.000000 1.000000
vt 0.501961 1.000000
vt 0.972549 0.627451
vt 0.031373 0.627451
vt 0.972549 0.021484
vt 0.031373 0.021484
vt 0.972549 0.052857
vt 0.031373 0.084229
vt 0.972549 0.084229
vt 0.031373 0.052857
vt 0.000000 0.031250
vt 0.000000 0.966751
vt 0.168627 0.031250
vt 0.168627 0.966751
vt 0.333333 0.031250
vt 0.333333 0.966751
vt 0.501961 0.031250
vt 0.501961 0.966751
vt 0.670588 0.031250
vt 0.670588 0.966751
vt 0.835294 0.031250
vt 0.835294 0.966751
vt 1.003922 0.031250
vt 1.003922 0.966751
vn 0.999969 0.000000 0.000000
vn 0.361248 0.932463 0.000000
vn 0.361248 0.000000 0.932463
vn -0.577349 0.816492 0.000000
vn -0.577349 0.000000 0.816492
vn 0.361248 -0.932463 0.000000
vn -0.577349 -0.816492 0.000000
vn 0.361248 0.000000 -0.932463
vn -0.577349 0.000000 -0.816492
vn 0.133641 0.991028 0.000000
vn 0.133641 0.495499 0.858241
vn 0.133641 -0.495499 0.858241
vn 0.133641 -0.991028 0.000000
vn 0.133641 -0.495499 -0.858241
vn 0.133641 0.495499 -0.858241
usemtl Mesh_0674.rip
s 1
f 16/1/1 13/2/2 15/3/3
f 13/2/2 20/4/4 15/3/3
f 15/3/3 20/4/4 14/5/5
f 16/1/1 15/2/3 17/3/6
f 15/2/3 14/4/5 17/3/6
f 17/3/6 14/4/5 21/5/7
f 16/1/1 17/2/6 18/3/8
f 17/2/6 21/4/7 18/3/8
f 18/3/8 21/4/7 19/5/9
f 16/1/1 18/2/8 13/3/2
f 18/2/8 19/4/9 13/3/2
f 13/3/2 19/4/9 20/5/4
f 21/6/7 20/7/4 19/8/9
f 20/7/4 21/6/7 14/9/5
usemtl Mesh_0678.rip
f 1/10/10 12/11/10 2/12/11
f 12/11/10 3/13/11 2/12/11
f 2/12/11 3/13/11 4/14/12
f 3/13/11 5/15/12 4/14/12
f 4/14/12 5/15/12 6/16/13
f 5/15/12 7/17/13 6/16/13
f 6/16/13 7/17/13 8/18/14
f 7/17/13 9/19/14 8/18/14
f 8/18/14 9/19/14 10/20/15
f 9/19/14 11/21/15 10/20/15
f 10/20/15 11/21/15 1/22/10
f 11/21/15 12/23/10 1/22/10

