# Blender v2.79 (sub 0) OBJ File: ''
# www.blender.org
mtllib ConeB.mtl
v 2.800000 0.560056 0.000000
v 1.979900 0.560056 -1.979900
v 0.000000 0.560056 -2.800000
v -1.979898 0.560056 -1.979898
v -2.800000 0.560056 0.000000
v -1.979898 0.560056 1.979898
v 0.000000 0.560055 2.800000
v 1.979898 0.560056 1.979898
v 0.000000 10.080047 0.903210
v -0.638665 10.080047 -0.638663
v -0.638665 10.080047 0.638666
v 0.903208 10.080047 0.000002
v 0.638665 10.080047 0.638666
v 0.000000 10.080047 -0.903207
v -0.903208 10.080047 0.000002
v 0.638665 10.080047 -0.638663
v -4.060000 0.000001 -4.060000
v -4.060000 -0.000001 4.060000
v -3.780000 0.560001 -3.780000
v -3.780000 0.559999 3.780000
v 4.060000 0.000001 -4.060000
v 4.060000 -0.000001 4.060000
v 3.780000 0.560001 -3.780000
v 3.780000 0.559999 3.780000
v 0.000000 9.656739 -1.046150
v 0.000000 9.656739 1.046153
v -0.739742 9.656739 -0.739740
v -0.739742 9.656739 0.739743
v 0.739742 9.656739 0.739743
v -1.046151 9.656739 0.000002
v 0.739742 9.656739 -0.739740
v 1.046151 9.656736 0.000002
vt 0.011765 -0.011765
vt 0.011765 -0.356863
vt 0.984314 -0.011765
vt 0.984314 -0.356863
vt 0.011765 -0.011765
vt 0.011765 -0.356863
vt 0.984314 -0.011765
vt 0.984314 -0.356863
vt 0.011765 -0.011765
vt 0.011765 -0.356863
vt 0.984314 -0.011765
vt 0.984314 -0.356863
vt 0.011765 -0.011765
vt 0.011765 -0.356863
vt 0.984314 -0.011765
vt 0.984314 -0.356863
vt 0.011765 -0.011765
vt 0.011765 -0.356863
vt 0.984314 -0.011765
vt 0.984314 -0.356863
vt 0.011765 -0.011765
vt 0.011765 -0.356863
vt 0.984314 -0.011765
vt 0.984314 -0.356863
vt 0.011765 -0.011765
vt 0.011765 -0.356863
vt 0.984314 -0.011765
vt 0.984314 -0.356863
vt 0.011765 -0.011765
vt 0.011765 -0.356863
vt 0.984314 -0.011765
vt 0.984314 -0.356863
vt 1.968627 -0.513726
vt 0.027451 -0.513726
vt 1.968627 -0.733333
vt 0.027451 -0.733333
vt 1.968627 -0.513726
vt 0.027451 -0.513726
vt 1.968627 -0.733333
vt 0.027451 -0.733333
vt 1.968627 -0.513726
vt 0.027451 -0.513726
vt 1.968627 -0.733333
vt 0.027451 -0.733333
vt 1.968627 -0.513726
vt 0.027451 -0.513726
vt 1.968627 -0.733333
vt 0.027451 -0.733333
vt 1.968627 0.968628
vt 1.968627 -0.968628
vt 0.027451 0.968628
vt 0.027451 -0.968628
vt 1.223529 0.913725
vt 1.858824 -0.886275
vt 1.607843 -0.886275
vt 1.000000 0.913725
vt 1.000000 -0.886275
vt 0.768628 0.913725
vt 0.388235 -0.886275
vt 0.674510 0.913725
vt 0.137255 -0.886275
vt 0.768628 0.913725
vt 0.388235 -0.886275
vt 1.000000 0.913725
vt 1.000000 -0.886275
vt 1.223529 0.913725
vt 1.607843 -0.886275
vt 1.317647 0.913725
vn -0.6699 0.3199 0.6699
vn -0.6844 0.2512 0.6844
vn 0.0000 0.3199 0.9474
vn 0.0000 0.2512 0.9679
vn -0.9474 0.3199 0.0000
vn -0.9679 0.2512 0.0000
vn -0.6699 0.3199 -0.6699
vn -0.6844 0.2512 -0.6844
vn 0.0000 0.3199 -0.9474
vn 0.0000 0.2512 -0.9679
vn 0.6699 0.3199 -0.6699
vn 0.6844 0.2512 -0.6844
vn 0.9474 0.3199 0.0000
vn 0.9679 0.2512 0.0000
vn 0.6699 0.3199 0.6699
vn 0.6844 0.2512 0.6844
vn -0.4248 0.7994 0.4248
vn -0.4248 0.7994 -0.4248
vn -0.5773 0.5773 0.5773
vn -0.5773 0.5773 -0.5773
vn 0.4248 0.7994 0.4248
vn 0.5773 0.5773 0.5773
vn 0.4248 0.7994 -0.4248
vn 0.5773 0.5773 -0.5773
vn 0.9819 0.1893 0.0000
vn 0.6943 0.1893 -0.6943
vn 0.0000 0.1893 -0.9819
vn -0.6943 0.1893 -0.6943
vn -0.9819 0.1893 0.0000
vn -0.6943 0.1893 0.6943
vn 0.0000 0.1893 0.9819
vn 0.6943 0.1893 0.6943
usemtl object_022925E4_material_20
s 1
f 11/1/1 28/2/2 9/3/3
f 9/3/3 28/2/2 26/4/4
f 15/5/5 30/6/6 11/7/1
f 11/7/1 30/6/6 28/8/2
f 10/9/7 27/10/8 15/11/5
f 15/11/5 27/10/8 30/12/6
f 14/13/9 25/14/10 10/15/7
f 10/15/7 25/14/10 27/16/8
f 16/17/11 31/18/12 14/19/9
f 14/19/9 31/18/12 25/20/10
f 12/21/13 32/22/14 16/23/11
f 16/23/11 32/22/14 31/24/12
f 13/25/15 29/26/16 12/27/13
f 12/27/13 29/26/16 32/28/14
f 9/29/3 26/30/4 13/31/15
f 13/31/15 26/30/4 29/32/16
f 20/33/17 19/34/18 18/35/19
f 18/35/19 19/34/18 17/36/20
f 24/37/21 20/38/17 22/39/22
f 22/39/22 20/38/17 18/40/19
f 23/41/23 24/42/21 21/43/24
f 21/43/24 24/42/21 22/44/22
f 19/45/18 23/46/23 17/47/20
f 17/47/20 23/46/23 21/48/24
f 24/49/21 23/50/23 20/51/17
f 20/51/17 23/50/23 19/52/18
usemtl object_022925E4_material_19
f 31/53/12 1/54/25 2/55/26
f 31/53/12 2/55/26 25/56/10
f 25/56/10 2/55/26 3/57/27
f 25/56/10 3/57/27 27/58/8
f 27/58/8 3/57/27 4/59/28
f 27/58/8 4/59/28 30/60/6
f 30/60/6 4/59/28 5/61/29
f 30/60/6 5/61/29 28/62/2
f 28/62/2 5/61/29 6/63/30
f 28/62/2 6/63/30 26/64/4
f 26/64/4 6/63/30 7/65/31
f 26/64/4 7/65/31 29/66/16
f 29/66/16 7/65/31 8/67/32
f 29/66/16 8/67/32 32/68/14
f 32/68/14 8/67/32 1/54/25
f 32/68/14 1/54/25 31/53/12
