# Blender v2.79 (sub 0) OBJ File: 'CranePlatformPath.obj'
# www.blender.org
mtllib CranePlatformPath.mtl
v -15.400000 13.999997 7.000004
v -11.200000 8.399999 0.000003
v -15.400000 -0.000003 7.000000
v -11.200000 0.000000 0.000000
v 15.400000 13.999997 7.000004
v 15.400000 -0.000003 7.000000
v 11.200000 8.399999 0.000003
v 11.200000 0.000000 0.000000
v -10.500000 7.144961 7.000002
v -10.500000 0.000639 7.000000
v -10.500000 45.002193 192.500153
v -10.500000 37.857925 192.500153
v 10.500000 0.000639 7.000000
v 10.500000 7.144961 7.000002
v 10.500000 37.857925 192.500153
v 10.500000 45.002193 192.500153
v -10.500000 84.288017 385.000305
v -10.500000 77.143738 385.000305
v 10.500000 77.143738 385.000305
v 10.500000 84.288017 385.000305
v 10.500000 116.429581 577.500427
v 10.500000 123.573875 577.500427
v 10.499998 154.286743 763.000610
v 10.499998 161.431091 763.000610
v -10.500000 123.573875 577.500427
v -10.500000 116.429581 577.500427
v -10.500000 161.431091 763.000610
v -10.500000 154.286743 763.000610
v 15.400000 147.419754 763.000671
v 11.200000 153.019745 770.000671
v -15.400000 147.419754 763.000671
v -11.200000 153.019745 770.000671
v -15.400000 161.419754 763.000671
v -11.200000 161.419754 770.000671
v 15.400000 161.419754 763.000671
v 11.200000 161.419754 770.000671
v 1.400000 -1.400000 -1.400000
v 1.400000 -1.400000 1.400000
v -1.400000 -1.400000 1.400000
v -1.400000 -1.400000 -1.400000
v 1.400000 1.400000 -1.399998
v 1.399999 1.400000 1.400002
v -1.400000 1.400000 1.400000
v -1.400000 1.400000 -1.400000
vt 1.000000 1.000000
vt 1.000000 -1.000000
vt 0.000000 1.000000
vt 0.000000 -1.000000
vt 1.000000 1.000000
vt 1.000000 -1.000000
vt 0.000000 1.000000
vt 0.000000 -1.000000
vt 1.000000 1.000000
vt 1.000000 -1.000000
vt 0.000000 1.000000
vt 0.000000 -1.000000
vt 1.000000 1.000000
vt 1.000000 -1.000000
vt 0.000000 1.000000
vt 0.000000 -1.000000
vt 1.000000 1.000000
vt 1.000000 -1.000000
vt 0.000000 -1.000000
vt 0.000000 1.000000
vt 1.000000 -1.000000
vt 0.000000 -1.000000
vt 1.000000 19.000000
vt 0.000000 19.000000
vt 0.000000 -1.000000
vt 1.000000 -1.000000
vt 0.000000 19.000000
vt 1.000000 19.000000
vt 1.000000 -1.000000
vt 0.000000 -1.000000
vt 1.000000 19.000000
vt 0.000000 19.000000
vt 0.000000 -1.000000
vt 1.000000 -1.000000
vt 0.000000 19.000000
vt 1.000000 19.000000
vt 0.000000 -1.000000
vt 1.000000 -1.000000
vt 0.000000 19.000000
vt 1.000000 19.000000
vt 0.000000 -1.000000
vt 1.000000 -1.000000
vt 1.000000 -1.000000
vt 0.000000 -1.000000
vt 1.000000 19.000000
vt 0.000000 19.000000
vt 1.000000 -1.000000
vt 0.000000 -1.000000
vt 1.000000 1.000000
vt 1.000000 -1.000000
vt 0.000000 1.000000
vt 0.000000 -1.000000
vt 1.000000 1.000000
vt 1.000000 -1.000000
vt 0.000000 1.000000
vt 0.000000 -1.000000
vt 1.000000 1.000000
vt 0.000000 1.000000
vt 1.000000 1.000000
vt 1.000000 -1.000000
vt 0.000000 1.000000
vt 0.000000 -1.000000
vt 1.000000 -1.000000
vt 0.000000 -1.000000
vt 1.000000 1.000000
vt 1.000000 -1.000000
vt 0.000000 1.000000
vt 0.000000 -1.000000
vt 0.000000 -1.074510
vt 1.000000 -1.074510
vt 0.000000 -21.078430
vt 1.000000 -21.078430
vt 1.000000 -1.074510
vt 0.000000 -1.074510
vt 1.000000 -21.078430
vt 0.000000 -21.078430
vt 0.000000 -1.074510
vt 1.000000 -1.074510
vt 0.000000 -21.078430
vt 1.000000 -21.078430
vt 1.000000 -1.074510
vt 0.000000 -1.074510
vt 1.000000 -21.078430
vt 0.000000 -21.078430
vt 1.000000 -1.074510
vt 0.000000 -1.074510
vt 1.000000 -21.078430
vt 0.000000 -21.078430
vt 0.000000 -21.078430
vt 1.000000 -21.078430
vt 0.000000 -1.074510
vt 1.000000 -1.074510
vt 0.000000 -1.074510
vt 1.000000 -1.074510
vt 0.000000 -21.078430
vt 1.000000 -21.078430
vt 1.000000 -21.078430
vt 0.000000 -21.078430
vt 1.000000 -1.074510
vt 0.000000 -1.074510
vn -0.6560 0.6979 0.2875
vn -0.4019 0.3385 -0.8508
vn -0.7244 -0.5541 0.4101
vn -0.3900 -0.6112 -0.6887
vn 0.6560 0.6979 0.2875
vn 0.7244 -0.5541 0.4101
vn 0.4019 0.3385 -0.8508
vn 0.3900 -0.6112 -0.6887
vn -0.7483 0.6499 -0.1326
vn -0.6572 -0.7385 0.1507
vn -0.7071 0.6928 -0.1414
vn -0.7071 -0.6928 0.1414
vn 0.6572 -0.7385 0.1507
vn 0.7483 0.6499 -0.1326
vn 0.7071 -0.6928 0.1414
vn 0.7071 0.6928 -0.1414
vn 0.7483 -0.6499 0.1326
vn 0.6572 0.7385 -0.1507
vn -0.6572 0.7385 -0.1507
vn -0.7483 -0.6499 0.1326
vn 0.6560 -0.6979 -0.2875
vn 0.4019 -0.3385 0.8508
vn -0.6560 -0.6979 -0.2875
vn -0.4019 -0.3385 0.8508
vn -0.7244 0.5541 -0.4101
vn -0.3900 0.6112 0.6887
vn 0.7244 0.5541 -0.4101
vn 0.3900 0.6112 0.6887
usemtl object_0227225C_material_77.003
s 1
f 1/1/1 2/2/2 3/3/3
f 3/3/3 2/2/2 4/4/4
f 5/5/5 1/6/1 6/7/6
f 6/7/6 1/6/1 3/8/3
f 7/9/7 5/10/5 8/11/8
f 8/11/8 5/10/5 6/12/6
f 2/13/2 7/14/7 4/15/4
f 4/15/4 7/14/7 8/16/8
f 3/17/3 4/18/4 6/7/6
f 6/7/6 4/18/4 8/16/8
f 5/10/5 7/19/7 1/1/1
f 1/1/1 7/19/7 2/20/2
f 9/21/9 10/22/10 11/23/11
f 11/23/11 10/22/10 12/24/12
f 13/25/13 14/26/14 15/27/15
f 15/27/15 14/26/14 16/28/16
f 11/29/11 12/30/12 17/31/11
f 17/31/11 12/30/12 18/32/12
f 15/33/15 16/34/16 19/35/15
f 19/35/15 16/34/16 20/36/16
f 19/37/15 20/38/16 21/39/15
f 21/39/15 20/38/16 22/40/16
f 21/39/15 22/40/16 23/41/17
f 23/41/17 22/40/16 24/42/18
f 17/43/11 18/44/12 25/45/11
f 25/45/11 18/44/12 26/46/12
f 25/45/11 26/46/12 27/47/19
f 27/47/19 26/46/12 28/48/20
f 29/49/21 30/50/22 31/51/23
f 31/51/23 30/50/22 32/52/24
f 33/53/25 34/54/26 35/55/27
f 35/55/27 34/54/26 36/56/28
f 36/57/28 34/54/26 30/58/22
f 30/58/22 34/54/26 32/52/24
f 34/59/26 33/60/25 32/61/24
f 32/61/24 33/60/25 31/62/23
f 33/53/25 35/63/27 31/51/23
f 31/51/23 35/63/27 29/64/21
f 35/65/27 36/66/28 29/67/21
f 29/67/21 36/66/28 30/68/22
usemtl object_0227225C_material_78.003
f 14/69/14 9/70/9 16/71/16
f 16/71/16 9/70/9 11/72/11
f 10/73/10 13/74/13 12/75/12
f 12/75/12 13/74/13 15/76/15
f 16/77/16 11/78/11 20/79/16
f 20/79/16 11/78/11 17/80/11
f 12/81/12 15/82/15 18/83/12
f 18/83/12 15/82/15 19/84/15
f 18/85/12 19/86/15 26/87/12
f 26/87/12 19/86/15 21/88/15
f 23/89/17 28/90/20 21/91/15
f 21/91/15 28/90/20 26/92/12
f 20/93/16 17/94/11 22/95/16
f 22/95/16 17/94/11 25/96/11
f 27/97/19 24/98/18 25/99/11
f 25/99/11 24/98/18 22/100/16
