# Blender v2.79 (sub 0) OBJ File: ''
# www.blender.org
mtllib CranePlatformBackWall.mtl
v -33.549030 11.634809 -34.027946
v -32.685631 6.208889 -34.027946
v -32.685631 6.208868 33.172050
v -33.550831 11.634786 33.172050
v -30.934364 6.034804 -34.027946
v -30.934361 6.034782 33.172050
vt 5.000000 0.000000
vt 0.000000 -1.000000
vt 0.000000 0.000000
vt 5.000000 -1.000000
vt 0.000000 0.000000
vt 0.000000 0.000000
vn 0.9875 0.1574 0.0000
vn 0.6860 0.7276 0.0000
vn 0.9875 0.1571 0.0000
vn 0.6859 0.7277 0.0000
vn 0.0989 0.9951 0.0000
usemtl object_02271A20_material_46
s 1
f 4/1/1 2/2/2 1/3/3
f 3/4/4 2/2/2 4/1/1
f 3/4/4 5/5/5 2/2/2
f 3/4/4 6/6/5 5/5/5
