# Blender v2.79 (sub 0) OBJ File: ''
# www.blender.org
mtllib CranePlatform.mtl
v 35.048584 3.234751 34.572052
v -34.951420 3.234786 34.572052
v -34.951435 -20.565197 -35.427952
v -34.951424 3.234798 -35.427948
v 35.048584 3.234763 -35.427948
v -33.551414 11.634791 33.172050
v 33.648586 11.634757 33.172050
v 33.648586 6.034757 33.172050
v -33.551418 6.034787 33.172050
v -33.551418 11.634803 -34.027946
v -33.551422 6.034798 -34.027946
v 33.648582 11.634768 -34.027946
v 33.648582 6.034768 -34.027946
v 42.048584 11.634761 -42.427956
v 42.048584 3.234763 -42.427956
v -41.951424 3.234804 -42.427948
v -41.951420 11.634805 -42.427948
v 42.048588 11.634748 41.572044
v 42.048588 3.234749 41.572044
v -41.951416 11.634791 41.572052
v -41.951420 3.234790 41.572052
v 35.048565 -6.278794 -35.427948
v -34.951431 -20.565210 34.572048
v 35.048569 -6.278806 34.572052
v 37.848614 11.354810 14.972038
v 37.848614 18.634760 14.972039
v 37.848614 18.634756 30.372040
v 41.558559 18.634748 34.082096
v 40.158512 18.634748 39.612049
v 34.558628 18.634756 41.082050
v 30.848629 18.634758 37.372051
v 8.448587 18.634769 37.372051
v 8.448578 11.354823 37.372047
v 7.258548 11.354823 38.772034
v 8.448578 11.354822 40.172050
v 8.448587 18.634769 40.172054
v 30.848629 18.634758 40.172054
v 34.558628 18.634756 43.602070
v 41.940434 18.634747 41.463985
v 44.078571 18.634748 34.082096
v 40.648563 18.634748 30.372040
v 40.648563 18.634752 14.972039
v 40.648563 11.354810 14.972038
v 39.248585 11.354811 13.572050
v 42.818562 20.034746 34.082096
v 41.049480 20.034746 40.573040
v 34.558628 20.034754 42.342052
v 30.848629 20.034756 38.772038
v 8.448587 20.034767 38.772038
v 7.258558 18.634769 38.772038
v 39.248585 18.634760 13.572051
v 39.248585 20.034754 30.372040
v 39.248585 20.034758 14.972039
v 35.888588 35.994755 35.412056
v 36.683147 11.634757 32.445984
v 36.975368 14.434757 31.355089
v 36.643906 34.734756 32.592464
v 33.717167 11.634757 33.240898
v 32.918537 14.434756 32.442387
v 33.824402 34.734756 33.348133
v 32.922619 11.634757 36.206970
v 31.831768 14.434756 36.499348
v 33.069099 34.734753 36.167713
v 35.094028 11.634756 38.378120
v 34.801807 14.434755 39.468998
v 35.133278 34.734753 38.231640
v 38.060001 11.634756 37.583183
v 38.858616 14.434754 38.381702
v 37.952766 34.734753 37.475956
v 38.854542 11.634756 34.617119
v 39.945408 14.434755 34.324741
v 38.708076 34.734756 34.656376
v 34.801807 24.234755 39.468998
v 38.858616 24.234755 38.381702
v 36.975368 24.234755 31.355091
v 32.918537 24.234756 32.442387
v 39.945408 24.234755 34.324741
v 31.831768 24.234756 36.499348
v 34.801807 22.834753 39.468998
v 38.858616 22.834753 38.381702
v 39.945408 22.834753 34.324741
v 31.831768 22.834755 36.499348
v 36.975368 22.834753 31.355091
v 32.918537 22.834755 32.442387
v 36.975372 32.634758 31.355093
v 32.918541 32.634758 32.442387
v 31.831772 32.634754 36.499348
v 34.801811 32.634754 39.468998
v 38.858620 32.634754 38.381702
v 39.945412 32.634758 34.324741
v 37.269672 21.445295 32.183582
v 37.269672 15.824383 32.183582
v 32.402012 21.445297 34.994350
v 32.402012 15.824382 34.994350
v 34.507458 21.445297 38.640522
v 34.507458 15.824381 38.640522
v 39.375134 21.445295 35.829754
v 39.375134 15.824381 35.829754
v 32.660095 31.245228 34.030956
v 32.660091 25.624325 34.030956
v 35.470856 31.245226 38.898617
v 35.470852 25.624323 38.898617
v 39.117027 31.245226 36.793163
v 39.117023 25.624323 36.793163
v 36.306282 31.245226 31.925495
v 36.306278 25.624323 31.925493
v -33.551418 6.034787 33.172050
v -33.551422 6.034798 -34.027946
v -33.551414 11.634791 33.172050
v -33.410110 6.034787 33.172050
v -33.551418 11.634803 -34.027946
v -33.410118 6.034798 -34.027946
vt 0.439216 -0.160784
vt 0.952941 -0.160784
vt 0.439216 0.000000
vt 0.313726 -0.160784
vt 0.313726 0.000000
vt 0.070588 -0.160784
vt 0.098039 0.000000
vt 0.000000 -0.160784
vt 0.039216 0.000000
vt 0.113725 -0.160784
vt 0.160784 0.000000
vt 0.113725 -0.160784
vt 0.952941 0.000000
vt 0.203922 -0.996078
vt 0.160784 -0.996078
vt 0.160784 -0.160784
vt 0.203922 -0.160784
vt 0.160784 0.000000
vt 0.203922 -0.160784
vt 0.082353 -0.160784
vt 0.129412 -0.160784
vt 0.313726 -0.160784
vt 0.439216 -0.160784
vt 0.952941 -0.160784
vt 1.000000 -0.160784
vt 0.952941 -0.996078
vt 1.000000 -0.996078
vt 0.952941 -0.996078
vt 0.113725 -0.996078
vt 0.000000 -1.003922
vt 0.000000 8.980392
vt 0.996078 -1.000000
vt 0.996078 8.996078
vt 0.996078 8.996078
vt 0.996078 -1.000000
vt 0.000000 8.980392
vt 0.000000 -1.003922
vt 0.996078 8.996078
vt 0.000000 0.000000
vt 0.996078 -1.000000
vt 0.000000 7.996078
vt 0.996078 8.996078
vt 0.000000 0.000000
vt 0.996078 -1.000000
vt 0.000000 7.996078
vt 0.996078 -1.000000
vt 0.000000 -1.003922
vt 0.996078 8.996078
vt 0.000000 8.980392
vt 0.000000 8.980392
vt 0.996078 8.996078
vt 0.000000 -1.003922
vt 0.996078 -1.000000
vt 0.996078 -0.474510
vt 0.372549 -0.474510
vt 0.372549 0.501961
vt 0.996078 0.501961
vt 0.372549 1.505882
vt 0.996078 1.505882
vt 0.372549 2.509804
vt 0.996078 2.509804
vt 0.372549 3.513726
vt 0.996078 3.513726
vt 0.372549 4.517647
vt 0.996078 4.517647
vt 0.372549 5.521569
vt 0.996078 5.521569
vt 0.000000 5.521569
vt 0.000000 -0.474510
vt 4.000000 0.031373
vt 4.000000 0.721569
vt 3.341177 0.031373
vt 3.341177 0.721569
vt 2.670588 0.031373
vt 2.670588 0.721569
vt 2.007843 0.031373
vt 2.007843 0.721569
vt 1.333333 0.031373
vt 1.333333 0.721569
vt 0.666667 0.031373
vt 0.666667 0.721569
vt 0.000000 0.031373
vt 0.000000 0.721569
vt 5.000000 -1.000000
vt 0.000000 -1.000000
vt 5.000000 0.000000
vt 0.000000 0.000000
vt 5.000000 -1.000000
vt 0.000000 -1.000000
vt 5.000000 0.000000
vt 0.000000 0.000000
vt 5.000000 -1.000000
vt 0.000000 -1.000000
vt 5.000000 0.000000
vt 5.000000 -1.000000
vt 0.000000 -1.000000
vt 5.000000 0.000000
vt 0.000000 0.000000
vt 0.474510 -1.000000
vt 0.474510 0.000000
vt -0.501961 0.000000
vt -0.501961 -1.000000
vt -1.505882 0.000000
vt -1.505882 -1.000000
vt -2.509804 0.000000
vt -2.509804 -1.000000
vt -3.513726 0.000000
vt -3.513726 -1.000000
vt -4.517647 0.000000
vt -4.517647 -1.000000
vt -5.521569 0.000000
vt -5.521569 -1.000000
vt 0.000000 -1.000000
vt 0.000000 0.000000
vt 1.000000 -1.000000
vt 1.000000 0.000000
vt 0.000000 -1.000000
vt 0.000000 0.000000
vt 1.000000 -1.000000
vt 1.000000 0.000000
vt 0.000000 -1.000000
vt 0.000000 0.000000
vt 1.000000 -1.000000
vt 1.000000 0.000000
vt 0.000000 -1.000000
vt 0.000000 0.000000
vt 1.000000 -1.000000
vt 1.000000 0.000000
vt 0.000000 -1.000000
vt 0.000000 0.000000
vt 1.000000 -1.000000
vt 1.000000 0.000000
vt 0.000000 -1.000000
vt 0.000000 0.000000
vt 1.000000 -1.000000
vt 1.000000 0.000000
vt 0.000000 -1.000000
vt 0.000000 0.000000
vt 0.831373 -1.000000
vt 0.831373 0.000000
vt 1.000000 -1.000000
vt 1.000000 0.000000
vt 0.164706 -1.000000
vt 0.164706 0.000000
vt 0.000000 -1.000000
vt 0.000000 0.000000
vt 0.831373 -1.000000
vt 0.831373 0.000000
vt 1.000000 -1.000000
vt 1.000000 0.000000
vt 0.164706 -1.000000
vt 0.164706 0.000000
vt 4.000000 -0.768628
vt 4.000000 -0.078431
vt 3.341177 -0.768628
vt 3.341177 -0.078431
vt 2.670588 -0.768628
vt 2.670588 -0.078431
vt 2.007843 -0.768628
vt 2.007843 -0.078431
vt 1.333333 -0.768628
vt 1.333333 -0.078431
vt 0.666667 -0.768628
vt 0.666667 -0.078431
vt 0.000000 -0.768628
vt 0.000000 -0.078431
vt 9.996078 9.000000
vt 9.996078 -0.996078
vt 0.000000 9.000000
vt 0.000000 -0.996078
vt 10.000000 -1.000000
vt 0.831373 -0.164706
vt 0.000000 -1.000000
vt 0.831373 8.164706
vt 0.000000 8.996078
vt 9.164706 8.164706
vt 10.000000 8.996078
vt 9.164706 -0.164706
vt 9.164706 -0.164706
vt 9.164706 8.164706
vt 0.831373 -0.164706
vt 0.831373 8.164706
vt 9.996078 -0.996078
vt 0.000000 2.560784
vt 9.996078 4.996078
vt 0.000000 4.996078
vt 0.000000 4.996078
vt 9.996078 4.996078
vt 0.000000 -1.000000
vt 9.996078 -0.996078
vt 0.000000 2.560784
vt 0.000000 4.996078
vt 9.996078 4.996078
vt 9.996078 2.596078
vt 0.000000 2.596078
vn 0.6689 0.6689 -0.3244
vn 0.7588 0.4606 -0.4606
vn 0.6908 0.6843 -0.2336
vn 0.7314 0.6656 -0.1487
vn 0.7243 0.6472 -0.2378
vn 0.5261 0.6724 0.5207
vn 0.5287 0.6716 0.5190
vn -0.1500 0.6578 0.7381
vn -0.2326 0.6542 0.7196
vn -0.3350 0.6629 0.6696
vn -0.2365 0.6870 0.6870
vn -0.5046 0.4546 0.7340
vn 0.0000 0.9431 -0.3324
vn -0.7619 0.0000 -0.6477
vn -0.9520 0.3060 -0.0000
vn -0.5046 0.4546 -0.7340
vn -0.3610 0.9326 -0.0000
vn 0.2418 0.6861 -0.6861
vn 0.3456 0.6603 -0.6668
vn 0.2475 0.6516 -0.7170
vn 0.1591 0.6584 -0.7357
vn -0.5277 0.6842 -0.5034
vn -0.5136 0.6868 -0.5143
vn -0.7212 0.6438 0.2556
vn -0.7302 0.6643 0.1597
vn -0.6898 0.6834 0.2390
vn -0.6662 0.6662 0.3353
vn -0.7588 0.4606 -0.4606
vn -0.0000 0.3324 -0.9431
vn 0.7071 0.0000 -0.7071
vn -0.7071 0.0000 -0.7071
vn -0.7619 0.0000 0.6477
vn 0.0000 0.0000 1.0000
vn -1.0000 0.0000 0.0000
vn 0.0000 1.0000 0.0000
vn -0.0000 0.0000 -1.0000
vn 1.0000 0.0000 -0.0000
vn 0.2505 0.2504 -0.9352
vn 0.1825 0.7088 -0.6814
vn 0.6814 0.7088 -0.1826
vn 0.9351 0.2504 -0.2506
vn 0.4989 0.7088 0.4988
vn 0.6846 0.2504 0.6845
vn -0.1825 0.7088 0.6814
vn -0.2505 0.2504 0.9352
vn -0.6814 0.7088 0.1826
vn -0.9351 0.2504 0.2506
vn -0.4989 0.7088 -0.4988
vn -0.6846 0.2504 -0.6845
vn 0.2588 0.0000 -0.9659
vn 0.9659 -0.0000 -0.2589
vn 0.7072 -0.0000 0.7071
vn -0.2588 -0.0000 0.9659
vn -0.9659 0.0000 0.2589
vn -0.7072 0.0000 -0.7071
vn 0.9997 0.0252 -0.0000
vn 0.2400 -0.3741 -0.8958
vn 0.2545 -0.1801 -0.9502
vn 0.9501 -0.1801 -0.2546
vn 0.8958 -0.3741 -0.2401
vn 0.6956 -0.1801 0.6955
vn 0.6558 -0.3741 0.6557
vn -0.2545 -0.1801 0.9502
vn -0.2400 -0.3741 0.8958
vn -0.9501 -0.1801 0.2547
vn -0.8958 -0.3741 0.2401
vn -0.6956 -0.1801 -0.6955
vn -0.6558 -0.3741 -0.6557
vn -0.5001 0.0000 -0.8660
vn 0.5001 0.0000 0.8660
vn -0.8660 0.0000 0.5001
vn 0.8660 -0.0000 -0.5001
vn -0.0000 -1.0000 -0.0000
vn 0.2000 -0.9798 -0.0000
usemtl object_02271A20_material_65
s 1
f 41/1/1 42/2/2 52/3/3
f 41/1/1 52/3/3 40/4/4
f 40/4/4 52/3/3 45/5/5
f 40/4/4 45/5/5 39/6/6
f 39/6/6 45/5/5 46/7/7
f 39/6/6 46/7/7 38/8/8
f 38/8/8 46/7/7 47/9/9
f 38/8/8 47/9/9 37/10/10
f 37/10/10 47/9/9 48/11/11
f 37/10/10 48/11/11 36/12/12
f 42/2/2 53/13/13 52/3/3
f 33/14/14 34/15/14 50/16/15
f 33/14/14 50/16/15 32/17/16
f 32/17/16 50/16/15 49/18/17
f 32/17/16 49/18/17 31/19/18
f 31/19/18 49/18/17 48/11/19
f 31/19/18 48/11/19 30/20/20
f 30/20/20 48/11/19 47/9/21
f 30/20/20 47/9/21 29/21/22
f 29/21/22 47/9/21 46/7/23
f 29/21/22 46/7/23 28/22/24
f 28/22/24 46/7/23 45/5/25
f 28/22/24 45/5/25 27/23/26
f 27/23/26 45/5/25 52/3/27
f 27/23/26 52/3/27 26/24/28
f 26/24/28 52/3/27 53/13/13
f 26/24/28 53/13/13 51/25/29
f 51/25/29 53/13/13 42/2/2
f 51/25/29 42/2/2 43/26/30
f 51/25/29 43/26/30 44/27/30
f 51/25/29 44/27/31 26/24/28
f 26/24/28 44/27/31 25/28/31
f 50/16/15 34/15/32 36/12/12
f 50/16/15 36/12/12 49/18/17
f 49/18/17 36/12/12 48/11/11
f 34/15/32 35/29/32 36/12/12
usemtl object_02271A20_material_80
f 18/30/33 20/31/33 19/32/33
f 19/32/33 20/31/33 21/33/33
f 16/34/34 21/35/34 17/36/34
f 17/36/34 21/35/34 20/37/34
f 20/38/35 10/39/35 17/40/35
f 17/40/35 10/39/35 12/41/35
f 17/40/35 12/41/35 14/42/35
f 14/42/35 12/41/35 7/43/35
f 14/42/35 7/43/35 18/44/35
f 18/44/35 7/43/35 6/45/35
f 18/44/35 6/45/35 20/38/35
f 20/38/35 6/45/35 10/39/35
f 16/46/36 17/47/36 15/48/36
f 15/48/36 17/47/36 14/49/36
f 18/50/37 19/51/37 14/52/37
f 14/52/37 19/51/37 15/53/37
f 85/54/38 57/55/39 72/56/40
f 85/54/38 72/56/40 90/57/41
f 90/57/41 72/56/40 69/58/42
f 90/57/41 69/58/42 89/59/43
f 89/59/43 69/58/42 66/60/44
f 89/59/43 66/60/44 88/61/45
f 88/61/45 66/60/44 63/62/46
f 88/61/45 63/62/46 87/63/47
f 87/63/47 63/62/46 60/64/48
f 87/63/47 60/64/48 86/65/49
f 86/65/49 60/64/48 57/66/39
f 86/65/49 57/66/39 85/67/38
f 57/66/39 60/64/48 54/68/35
f 54/68/35 60/64/48 63/62/46
f 63/62/46 66/60/44 54/69/35
f 66/60/44 69/58/42 54/69/35
f 54/69/35 69/58/42 72/56/40
f 54/69/35 72/56/40 57/55/39
usemtl object_02271A20_material_81
f 75/70/50 85/71/38 77/72/51
f 77/72/51 85/71/38 90/73/41
f 77/72/51 90/73/41 74/74/52
f 74/74/52 90/73/41 89/75/43
f 74/74/52 89/75/43 73/76/53
f 73/76/53 89/75/43 88/77/45
f 73/76/53 88/77/45 78/78/54
f 78/78/54 88/77/45 87/79/47
f 78/78/54 87/79/47 76/80/55
f 76/80/55 87/79/47 86/81/49
f 76/80/55 86/81/49 75/82/50
f 75/82/50 86/81/49 85/83/38
usemtl object_02271A20_material_46
f 8/84/36 9/85/36 7/86/36
f 7/86/36 9/85/36 6/87/36
f 11/88/33 13/89/33 10/90/33
f 10/90/33 13/89/33 12/91/33
f 13/92/34 8/93/34 12/94/34
f 12/94/34 8/93/34 7/43/34
f 110/95/56 112/96/56 109/97/56
f 109/97/56 112/96/56 111/98/56
usemtl object_02271A20_material_95
f 55/99/57 56/100/58 71/101/59
f 55/99/57 71/101/59 70/102/60
f 70/102/60 71/101/59 68/103/61
f 70/102/60 68/103/61 67/104/62
f 67/104/62 68/103/61 65/105/63
f 67/104/62 65/105/63 64/106/64
f 64/106/64 65/105/63 62/107/65
f 64/106/64 62/107/65 61/108/66
f 61/108/66 62/107/65 59/109/67
f 61/108/66 59/109/67 58/110/68
f 58/110/68 59/109/67 56/111/58
f 58/110/68 56/111/58 55/112/57
usemtl object_02271A20_material_79
f 78/113/54 82/114/54 73/115/53
f 73/115/53 82/114/54 79/116/53
f 76/117/55 84/118/55 78/119/54
f 78/119/54 84/118/55 82/120/54
f 75/121/50 83/122/50 76/123/55
f 76/123/55 83/122/50 84/124/55
f 77/125/51 81/126/51 75/127/50
f 75/127/50 81/126/51 83/128/50
f 74/129/52 80/130/52 77/131/51
f 77/131/51 80/130/52 81/132/51
f 73/133/53 79/134/53 74/135/52
f 74/135/52 79/134/53 80/136/52
usemtl object_02271A20_material_4
f 94/137/69 93/138/69 92/139/69
f 92/139/69 93/138/69 91/140/69
f 98/141/70 97/142/70 96/143/70
f 96/143/70 97/142/70 95/144/70
usemtl object_02271A20_material_5
f 102/145/71 101/146/71 100/147/71
f 100/147/71 101/146/71 99/148/71
f 106/149/72 105/150/72 104/151/72
f 104/151/72 105/150/72 103/152/72
usemtl object_02271A20_material_82
f 56/153/58 83/154/50 71/155/59
f 71/155/59 83/154/50 81/156/51
f 71/155/59 81/156/51 68/157/61
f 68/157/61 81/156/51 80/158/52
f 68/157/61 80/158/52 65/159/63
f 65/159/63 80/158/52 79/160/53
f 65/159/63 79/160/53 62/161/65
f 62/161/65 79/160/53 82/162/54
f 62/161/65 82/162/54 59/163/67
f 59/163/67 82/162/54 84/164/55
f 59/163/67 84/164/55 56/165/58
f 56/165/58 84/164/55 83/166/50
usemtl object_02271A20_material_76
f 13/167/35 11/168/35 8/169/35
f 8/169/35 11/168/35 9/170/35
usemtl object_02271A20_material_77
f 16/171/73 2/172/73 21/173/73
f 21/173/73 2/172/73 1/174/73
f 21/173/73 1/174/73 19/175/73
f 19/175/73 1/174/73 5/176/73
f 19/175/73 5/176/73 15/177/73
f 15/177/73 5/176/73 4/178/73
f 15/177/73 4/178/73 16/171/73
f 16/171/73 4/178/73 2/172/73
f 3/179/74 22/180/74 23/181/74
f 23/181/74 22/180/74 24/182/74
f 23/183/33 24/184/33 2/185/33
f 2/185/33 24/184/33 1/186/33
f 2/187/34 4/188/34 23/189/34
f 3/190/34 23/189/34 4/188/34
f 3/190/36 4/188/36 22/191/36
f 22/191/36 4/188/36 5/192/36
f 5/193/37 1/186/37 22/194/37
f 22/194/37 1/186/37 24/195/37
