# Blender v2.79 (sub 0) OBJ File: 'elevatorplatrotate.blend'
# www.blender.org
mtllib ElevatorPlatformRotate.mtl
o Cylinder.001
v -10.315962 0.397269 9.801872
v -10.315962 0.397269 11.480096
v -4.852411 -9.065877 9.801872
v -4.852411 -9.065877 11.480096
v 6.074690 -9.065876 9.801872
v 6.074690 -9.065876 11.480096
v 11.538239 0.397272 9.801872
v 11.538239 0.397272 11.480095
v 6.074687 9.860416 9.801872
v 6.074687 9.860416 11.480096
v -4.852411 9.860416 9.801872
v -4.852411 9.860416 11.480096
v 1.452659 -0.000000 -2.792897
v 1.452660 -0.000000 10.215097
v 0.726329 1.258040 -2.792897
v 0.726330 1.258040 10.215097
v -0.726331 1.258040 -2.792897
v -0.726330 1.258040 10.215097
v -1.452660 -0.000001 -2.792897
v -1.452660 -0.000001 10.215097
v -0.726330 -1.258041 -2.792897
v -0.726330 -1.258041 10.215097
v 0.726329 -1.258041 -2.792897
v 0.726330 -1.258041 10.215097
v -10.315963 0.397268 -3.805727
v -10.315963 0.397268 -2.127505
v -4.852411 -9.065878 -3.805727
v -4.852411 -9.065878 -2.127505
v 6.074688 -9.065877 -3.805727
v 6.074688 -9.065877 -2.127505
v 11.538237 0.397271 -3.805728
v 11.538237 0.397271 -2.127506
v 6.074686 9.860415 -3.805727
v 6.074686 9.860415 -2.127505
v -4.852413 9.860415 -3.805727
v -4.852413 9.860415 -2.127505
vt 0.000000 1.000000
vt 1.000000 0.000000
vt 0.000000 0.000000
vt 0.000000 1.000000
vt 1.000000 0.000000
vt 0.000000 0.000000
vt 0.000000 1.000000
vt 1.000000 0.000000
vt 0.000000 0.000000
vt 0.000000 1.000000
vt 1.000000 0.000000
vt 0.000000 0.000000
vt 0.000000 1.000000
vt 1.000000 0.000000
vt 0.000000 0.000000
vt 0.000000 1.000000
vt 1.000000 0.000000
vt 0.000000 0.000000
vt 1.000000 1.000000
vt 1.000000 1.000000
vt 1.000000 1.000000
vt 1.000000 1.000000
vt 1.000000 1.000000
vt 1.000000 1.000000
vt 0.019843 5.087557
vt 1.000000 0.000000
vt 0.000000 0.000000
vt 0.019843 5.087557
vt 1.000000 0.000000
vt 0.000000 0.000000
vt 0.000000 0.000000
vt 0.990079 5.067715
vt 1.000000 0.000000
vt 0.019843 5.087557
vt 1.000000 0.000000
vt 0.000000 0.000000
vt 0.019843 5.087557
vt 1.000000 0.000000
vt 0.000000 0.000000
vt 0.019843 5.087557
vt 1.000000 0.000000
vt 0.000000 0.000000
vt 0.019843 5.087557
vt 1.000000 0.000000
vt 0.000000 0.000000
vt 0.019843 5.087557
vt 1.000000 0.000000
vt 0.000000 0.000000
vt 0.019843 5.087557
vt 1.000000 0.000000
vt 0.000000 0.000000
vt 0.019843 5.087557
vt 1.000000 0.000000
vt 0.000000 0.000000
vt 0.019843 5.087557
vt 1.000000 0.000000
vt 0.000000 0.000000
vt 0.019843 5.087557
vt 1.000000 0.000000
vt 0.000000 0.000000
vt 0.990625 5.065625
vt 0.990079 5.067715
vt 0.019843 5.087557
vt 0.990079 5.067715
vt 0.990079 5.067715
vt 0.990079 5.067715
vt 0.990079 5.067715
vt 0.990079 5.067715
vt 0.990079 5.067715
vt 0.990079 5.067715
vt 0.990079 5.067715
vt 0.990079 5.067715
vt 2.262193 -0.861984
vt 0.912195 1.782060
vt 3.817120 0.313016
vt 0.923237 1.793750
vt 2.265984 -0.863149
vt 3.864263 2.143750
vt 0.066987 0.250000
vt 0.500000 0.000000
vt 0.933013 0.750000
vt 0.066987 0.750000
vt 0.933013 0.250000
vt 0.933013 0.750000
vt 0.923237 1.793750
vt 2.265984 -0.863149
vt 2.325000 2.887500
vt 0.896224 0.215479
vt 0.921225 1.795405
vt 3.859018 2.157905
vt 3.869583 2.147538
vt 0.909731 0.222538
vt 2.317120 2.882060
vt 2.325000 2.887500
vt 0.905333 0.220236
vt 3.814262 0.312500
vt 0.500000 1.000000
vt 0.066987 0.750000
vt 0.933013 0.250000
vt 0.500000 1.000000
vt 0.066987 0.250000
vt 0.500000 0.000000
vt 3.864263 2.143750
vt 0.905333 0.220236
vt 3.814262 0.312500
vt 3.815268 0.315478
vt 2.263188 -0.862181
vt 2.318248 2.885368
vn 0.8660 0.5000 -0.0000
vn -0.0000 1.0000 -0.0000
vn -0.8660 0.5000 0.0000
vn -0.8660 -0.5000 0.0000
vn 0.0000 -1.0000 0.0000
vn 0.8660 -0.5000 -0.0000
vn -0.0000 0.0000 1.0000
vn 0.0000 0.0000 -1.0000
usemtl Material.001
s off
f 15/1/1 14/2/1 13/3/1
f 17/4/2 16/5/2 15/6/2
f 19/7/3 18/8/3 17/9/3
f 21/10/4 20/11/4 19/12/4
f 23/13/5 22/14/5 21/15/5
f 13/16/6 24/17/6 23/18/6
f 15/1/1 16/19/1 14/2/1
f 17/4/2 18/20/2 16/5/2
f 19/7/3 20/21/3 18/8/3
f 21/10/4 22/22/4 20/11/4
f 23/13/5 24/23/5 22/14/5
f 13/16/6 14/24/6 24/17/6
usemtl Material.001_684acf18.png
f 3/25/4 2/26/4 1/27/4
f 5/28/5 4/29/5 3/30/5
f 5/31/6 8/32/6 6/33/6
f 9/34/1 8/35/1 7/36/1
f 11/37/2 10/38/2 9/39/2
f 1/40/3 12/41/3 11/42/3
f 27/43/4 26/44/4 25/45/4
f 29/46/5 28/47/5 27/48/5
f 31/49/6 30/50/6 29/51/6
f 33/52/1 32/53/1 31/54/1
f 35/55/2 34/56/2 33/57/2
f 25/58/3 36/59/3 35/60/3
f 3/25/4 4/61/4 2/26/4
f 5/28/5 6/62/5 4/29/5
f 5/31/6 7/63/6 8/32/6
f 9/34/1 10/64/1 8/35/1
f 11/37/2 12/65/2 10/38/2
f 1/40/3 2/66/3 12/41/3
f 27/43/4 28/67/4 26/44/4
f 29/46/5 30/68/5 28/47/5
f 31/49/6 32/69/6 30/50/6
f 33/52/1 34/70/1 32/53/1
f 35/55/2 36/71/2 34/56/2
f 25/58/3 26/72/3 36/59/3
usemtl Material.001_Untitled
f 6/73/7 10/74/7 4/75/7
f 11/76/8 7/77/8 3/78/8
f 20/79/7 22/80/7 14/81/7
f 23/82/8 17/83/8 15/84/8
f 30/85/7 34/86/7 28/87/7
f 33/88/8 31/89/8 27/90/8
f 2/91/7 4/75/7 10/74/7
f 6/73/7 8/92/7 10/74/7
f 10/74/7 12/93/7 2/91/7
f 3/78/8 1/94/8 11/76/8
f 11/76/8 9/95/8 7/77/8
f 7/77/8 5/96/8 3/78/8
f 14/81/7 16/97/7 18/98/7
f 18/98/7 20/79/7 14/81/7
f 22/80/7 24/99/7 14/81/7
f 15/84/8 13/100/8 23/82/8
f 23/82/8 21/101/8 19/102/8
f 19/102/8 17/83/8 23/82/8
f 26/103/7 28/87/7 34/86/7
f 30/85/7 32/104/7 34/86/7
f 34/86/7 36/105/7 26/103/7
f 27/90/8 25/106/8 35/107/8
f 35/107/8 33/88/8 27/90/8
f 31/89/8 29/108/8 27/90/8
