# Blender v2.79 (sub 0) OBJ File: ''
# www.blender.org
mtllib ElevatorPlatform.mtl
o ElevatorPlatform
v -32.054523 -4.577891 -54.249790
v -31.951006 4.568885 -4.005501
v -32.054523 4.552609 -54.321114
v -31.951006 -4.561619 -3.934189
v 32.212746 -4.577931 -54.376423
v 32.212753 4.552576 -54.447762
v 32.316257 -4.561646 -4.060820
v 32.316261 4.568844 -4.132135
v -25.614853 3.413324 -48.035416
v 25.876600 3.425498 -10.399996
v 25.798958 3.413302 -48.136726
v -25.537222 3.425534 -10.298704
vt 0.000000 0.000000
vt 5.000000 1.000000
vt 0.000000 1.000000
vt 5.000000 0.000000
vt 0.000000 0.000000
vt 7.000000 1.000000
vt 0.000000 1.000000
vt 7.000000 0.000000
vt 0.000000 0.000000
vt 5.000000 1.000000
vt 0.000000 1.000000
vt 5.000000 0.000000
vt 0.000000 0.000000
vt 7.000000 1.000000
vt 0.000000 1.000000
vt 7.000000 0.000000
vt 6.000000 0.000000
vt 0.000000 5.000000
vt 0.000000 0.000000
vt 6.000000 5.000000
vt 0.211910 0.178430
vt 0.788090 0.248470
vt 0.789260 0.178570
vt 0.210740 0.248330
vt 0.221710 0.771280
vt 0.537000 0.998080
vt 0.220580 0.838810
vt 0.462850 0.998070
vt 0.779420 0.771420
vt 0.463000 0.989090
vt 0.778290 0.838940
vt 0.537150 0.989110
vn -1.0000 0.0000 0.0021
vn -0.0020 -0.0078 -1.0000
vn 1.0000 -0.0000 -0.0021
vn 0.0020 0.0078 1.0000
vn -0.0000 1.0000 -0.0003
vn 0.0000 -1.0000 0.0003
vn -0.1749 0.9846 0.0000
vn 0.0004 0.9840 0.1780
vn 0.1749 0.9846 -0.0007
vn -0.0004 0.9838 -0.1791
usemtl material_424
s 1
f 1/1/1 2/2/1 3/3/1
f 1/1/1 4/4/1 2/2/1
f 5/5/2 3/6/2 6/7/2
f 5/5/2 1/8/2 3/6/2
f 7/9/3 6/10/3 8/11/3
f 7/9/3 5/12/3 6/10/3
f 4/13/4 8/14/4 2/15/4
f 4/13/4 7/16/4 8/14/4
usemtl material_399
f 9/17/5 10/18/5 11/19/5
f 9/17/5 12/20/5 10/18/5
usemtl material_605
f 5/21/6 4/22/6 1/23/6
f 5/21/6 7/24/6 4/22/6
f 6/25/7 11/26/7 8/27/7
f 6/25/8 9/28/8 11/26/8
f 3/29/8 9/28/8 6/25/8
f 3/29/9 12/30/9 9/28/9
f 2/31/9 12/30/9 3/29/9
f 2/31/10 10/32/10 12/30/10
f 8/27/10 10/32/10 2/31/10
f 8/27/7 11/26/7 10/32/7