# Blender v2.79 (sub 0) OBJ File: ''
# www.blender.org
mtllib Lamppost.mtl
v 1.960001 63.419956 2.100039
v -1.819994 63.419956 2.142040
v 1.960001 0.000005 2.100000
v -1.805997 0.000005 2.114000
v 1.960001 63.419956 -2.099959
v 1.960001 0.000006 -2.100000
v -1.820000 63.419956 -2.099960
v -1.819997 0.000006 -2.100000
v 23.239986 77.139999 1.260050
v 7.700003 74.899971 1.260050
v 7.700003 74.899971 -1.259950
v 23.239986 77.139999 -1.259950
v 6.440000 76.579987 0.000050
v 22.539988 78.959984 0.000051
v 0.280001 72.379982 0.000045
v 1.400001 70.279976 -1.259955
v -1.120003 70.279976 -1.259955
v 1.400001 70.279976 1.260045
v -1.120003 70.279976 1.260045
v 27.439987 77.699997 3.360050
v 27.439987 76.019989 0.000050
v 23.939987 76.159988 0.000050
v 27.439987 77.699997 -3.359949
v 34.019985 78.400002 -1.959949
v 30.519985 76.720001 0.000050
v 34.019985 78.400002 1.960051
v 27.439987 80.779999 0.000051
v 30.519985 80.500000 0.000051
vt 3.000000 -1.000000
vt 2.031373 -1.000000
vt 3.000000 4.000000
vt 2.031373 4.000000
vt 1.121569 -1.000000
vt 1.866667 -0.996078
vt 1.129412 3.964706
vt 1.866667 3.972549
vt 0.000000 -1.000000
vt 0.960784 -1.000000
vt 0.000000 4.000000
vt 0.964706 4.000000
vt 1.121569 -1.000000
vt 1.866667 -0.996078
vt 1.129412 3.964706
vt 1.866667 3.972549
vt 1.000000 -0.996078
vt 0.000000 -0.992157
vt 0.992157 -0.003922
vt 0.000000 0.000000
vt 0.000000 -0.992157
vt 1.000000 -0.996078
vt 0.000000 0.000000
vt 0.992157 -0.003922
vt 0.000000 -0.992157
vt 1.000000 -0.996078
vt 0.992157 -0.003922
vt 1.000000 -0.996078
vt 0.003922 -0.498039
vt 0.992157 -0.003922
vt 0.388235 0.000000
vt 0.000000 -0.309804
vt 0.388235 -0.498039
vt 0.062745 -0.498039
vt 0.388235 -1.000000
vt 1.000000 -0.788235
vt 0.674510 -0.498039
vt 1.000000 -0.207843
vt 0.000000 -0.686275
vt 0.996078 -0.207843
vt 0.360784 -0.466667
vt 0.360784 -0.466667
vt 0.996078 -0.207843
vt 0.309804 -0.270588
vt 0.968628 0.000000
vt 0.054902 -0.756863
vt 0.101961 -0.996078
vt 0.000000 -0.996078
vt 0.101961 -0.996078
vt 0.000000 -0.996078
vt 1.866667 -0.003922
vt 1.098039 -0.003922
vt 1.874510 -0.996078
vt 1.098039 -0.996078
vt 1.000000 0.000000
vt 0.000000 0.000000
vt 0.960784 -1.000000
vt 0.000000 -1.000000
vt 3.000000 -1.000000
vt 2.031373 -1.000000
vt 3.000000 0.000000
vt 1.992157 0.000000
vt 0.960784 -1.000000
vt 1.000000 0.000000
vt 0.000000 0.000000
vn 0.7048 0.0705 0.7059
vn -0.6986 0.0779 0.7112
vn 0.7085 -0.0003 0.7057
vn -0.7047 -0.0003 0.7095
vn 0.7014 0.0696 -0.7094
vn 0.7071 0.0000 -0.7071
vn -0.7031 0.0759 -0.7070
vn -0.7083 0.0000 -0.7059
vn -0.0970 -0.1249 0.9874
vn -0.1489 0.9887 0.0155
vn -0.2998 -0.3560 0.8851
vn -0.3039 0.9519 0.0380
vn 0.1747 0.9846 0.0014
vn 0.8018 -0.0181 -0.5972
vn -0.0476 -0.1307 -0.9903
vn -0.3824 -0.4079 -0.8291
vn 0.8017 -0.0180 0.5974
vn 0.0739 -0.9972 0.0104
vn -0.3521 -0.9350 0.0412
vn 0.2483 -0.9687 0.0000
vn 0.1674 -0.3293 0.9293
vn 0.1611 -0.3299 -0.9301
vn -0.3956 0.9184 -0.0034
vn -0.5166 0.8562 -0.0027
vn 0.4955 0.0510 -0.8671
vn -0.6577 0.3864 -0.6466
vn 0.4936 0.0465 0.8684
vn -0.6576 0.3871 0.6463
usemtl object_02288C64_material_48
s 1
f 1/1/1 2/2/2 3/3/3
f 3/3/3 2/2/2 4/4/4
f 5/5/5 1/6/1 6/7/6
f 6/7/6 1/6/1 3/8/3
f 7/9/7 5/10/5 8/11/8
f 8/11/8 5/10/5 6/12/6
f 8/13/8 4/14/4 7/15/7
f 7/15/7 4/14/4 2/16/2
f 20/17/9 27/18/10 9/19/11
f 9/19/11 27/18/10 14/20/12
f 28/21/13 24/22/14 27/23/10
f 27/23/10 24/22/14 23/24/15
f 27/23/10 23/24/15 14/25/12
f 14/25/12 23/24/15 12/26/16
f 27/23/10 20/27/9 28/21/13
f 28/21/13 20/27/9 26/28/17
f 28/29/13 26/30/17 24/22/14
usemtl object_02288C64_material_45
f 20/31/9 9/32/11 21/33/18
f 21/33/18 9/32/11 22/34/19
f 23/35/15 24/36/14 25/37/20
f 25/37/20 24/36/14 26/38/17
f 26/38/17 20/31/9 25/37/20
f 25/37/20 20/31/9 21/33/18
f 25/37/20 21/33/18 23/35/15
f 23/35/15 21/33/18 22/34/19
f 23/35/15 22/34/19 12/39/16
f 12/39/16 22/34/19 9/32/11
usemtl object_02288C64_material_0
f 9/40/11 10/41/21 11/42/22
f 9/40/11 11/42/22 12/43/16
f 12/43/16 11/42/22 13/44/23
f 12/43/16 13/44/23 14/45/12
f 14/45/12 13/44/23 10/41/21
f 14/45/12 10/41/21 9/40/11
f 10/41/21 13/44/23 15/46/24
f 15/46/24 13/44/23 16/47/25
f 15/46/24 16/47/25 17/48/26
f 13/44/23 11/42/22 16/47/25
f 16/47/25 11/42/22 10/41/21
f 16/47/25 10/41/21 18/49/27
f 18/49/27 10/41/21 15/46/24
f 18/49/27 15/46/24 19/50/28
f 19/50/28 15/46/24 17/48/26
usemtl object_02288C64_material_49
f 16/51/25 18/52/27 5/53/5
f 5/53/5 18/52/27 1/54/1
f 18/55/27 19/56/28 1/57/1
f 1/57/1 19/56/28 2/58/2
f 5/59/5 7/60/7 16/61/25
f 16/61/25 7/60/7 17/62/26
f 2/63/2 19/64/28 7/9/7
f 7/9/7 19/64/28 17/65/26
