# Blender v2.79 (sub 0) OBJ File: ''
# www.blender.org
mtllib LamppostLight.mtl
v 31.724056 78.122810 -6.183368
v 24.692484 76.883263 6.183470
v 45.219410 35.437569 -16.367855
v 26.606424 32.156376 16.367899
v 24.692484 76.883263 -6.183369
v 31.724056 78.122810 6.183470
v 26.606411 32.156399 -16.367855
v 45.219410 35.437542 16.367899
v 35.239849 78.742592 0.000051
v 21.176695 76.263489 0.000052
v 54.525909 37.078133 0.000023
v 17.299925 30.515814 0.000023
vt 0.321569 -0.129412
vt 0.670588 -0.129412
vt 0.000000 -0.921569
vt 0.996078 -0.921569
vt 0.321569 -0.129412
vt 0.670588 -0.129412
vt 0.000000 -0.921569
vt 0.996078 -0.921569
vt 0.321569 -0.129412
vt 0.670588 -0.129412
vt 0.000000 -0.921569
vt 0.996078 -0.921569
vn 0.8529 0.1503 0.5000
vn 0.8529 0.1503 -0.5000
vn 0.0000 0.0000 1.0000
usemtl object_02288C64_material_14
s 1
f 1/1/1 2/2/1 3/3/1
f 3/3/1 2/2/1 4/4/1
f 5/5/2 6/6/2 7/7/2
f 7/7/2 6/6/2 8/8/2
f 9/9/3 10/10/3 11/11/3
f 11/11/3 10/10/3 12/12/3
