# Blender v2.79 (sub 0) OBJ File: ''
# www.blender.org
mtllib Spotlight.mtl
v 0.000000 17.296764 -11.661557
v 2.693335 18.462700 -9.623481
v 0.000027 19.985422 -9.308138
v -2.693384 18.462700 -9.623481
v -2.693335 15.417321 -10.254150
v -0.000027 13.894588 -10.569494
v 2.693384 15.417321 -10.254150
v 0.000000 17.296759 11.661569
v 2.693335 18.462692 9.623492
v 0.000027 19.985416 9.308149
v -2.693384 18.462692 9.623492
v -2.693335 15.417315 10.254161
v -0.000027 13.894582 10.569502
v 2.693384 15.417315 10.254161
v -9.488317 0.000003 -7.000000
v -9.488317 -0.000003 7.000000
v 9.488317 0.000003 -7.000000
v 9.488317 -0.000003 7.000000
v 2.974530 21.419983 8.976478
v 2.974530 21.419989 -8.976464
v -2.974406 21.419989 -8.976464
v -2.974395 21.419983 8.976478
v 0.000003 -0.000003 12.351819
v 0.000003 0.000003 -12.351822
v 0.000000 4.200013 0.000001
v -11.211892 32.200001 0.000011
v -8.464960 11.899996 0.000003
v -5.605867 32.200001 -9.709744
v -4.232480 11.899998 -7.330859
v 5.605884 32.200001 -9.709744
v 4.232480 11.899998 -7.330859
v 11.211897 32.200001 0.000011
v 8.464960 11.899996 0.000003
v 5.605884 32.199997 9.709767
v 4.232480 11.899994 7.330865
v -5.605867 32.199997 9.709767
v -4.232480 11.899994 7.330865
vt 0.000000 -1.000000
vt 4.000000 -1.000000
vt 4.000000 0.184314
vt 4.000000 -1.000000
vt 4.000000 0.184314
vt 0.000000 -1.000000
vt 4.000000 -1.000000
vt 0.000000 -1.000000
vt 4.000000 -1.000000
vt 0.000000 -1.000000
vt 2.000000 -1.000000
vt 1.000000 0.874510
vt 1.000000 0.874510
vt 2.000000 -1.000000
vt 0.000000 -1.000000
vt 1.992157 -1.000000
vt 0.000000 2.000000
vt 2.000000 2.000000
vt 0.000000 2.000000
vt 0.000000 -1.000000
vt 1.992157 -1.000000
vt 2.000000 2.000000
vt 3.996078 -1.000000
vt 4.000000 2.000000
vt 6.000000 -1.000000
vt 5.996078 2.000000
vt 8.000000 -1.000000
vt 7.996078 2.000000
vt 10.000000 -1.000000
vt 9.996078 2.000000
vt 0.247059 -1.000000
vt 0.000000 -0.498039
vt 0.749020 -1.000000
vt 0.247059 0.000000
vt 1.000000 -0.498039
vt 0.749020 0.000000
vt 0.498039 -1.000000
vt 0.000000 -0.749020
vt 0.498039 -0.439216
vt 0.000000 -0.247059
vt 0.498039 0.000000
vt 0.996078 -0.247059
vt 1.000000 -0.749020
vt 0.000000 -0.749020
vt 0.498039 -1.000000
vt 0.498039 -0.439216
vt 0.000000 -0.247059
vt 0.498039 0.000000
vt 0.996078 -0.247059
vt 1.000000 -0.749020
vt 0.247059 0.000000
vt 0.749020 0.000000
vt 0.498039 -0.996078
vt 0.000000 0.000000
vt 0.247059 0.000000
vt 0.749020 0.000000
vt 0.996078 0.000000
vn -0.1291 0.1368 0.9821
vn -0.4901 0.0688 0.8689
vn 0.0000 0.0869 0.9962
vn 0.4901 0.0688 -0.8689
vn 0.0000 0.0869 -0.9962
vn 0.1291 0.1368 -0.9821
vn 0.4901 0.0688 0.8689
vn 0.1291 0.1368 0.9821
vn -0.4901 0.0688 -0.8689
vn -0.1291 0.1368 -0.9821
vn -0.4526 -0.4250 0.7839
vn 0.4526 -0.4250 0.7839
vn -0.4145 0.5591 0.7180
vn 0.4145 0.5591 0.7180
vn 0.9052 -0.4250 0.0000
vn 0.8291 0.5591 0.0000
vn 0.4526 -0.4250 -0.7839
vn 0.4145 0.5591 -0.7180
vn -0.4526 -0.4250 -0.7839
vn -0.4145 0.5591 -0.7180
vn -0.9052 -0.4250 0.0000
vn -0.8291 0.5591 0.0000
vn 0.0000 -0.3056 -0.9521
vn -0.4264 -0.0645 -0.9022
vn 0.0000 0.2028 -0.9792
vn -0.4264 0.4176 -0.8024
vn 0.0000 0.6586 -0.7524
vn 0.4264 0.4176 -0.8024
vn 0.4264 -0.0645 -0.9022
vn -0.4264 -0.0645 0.9022
vn 0.0000 -0.3056 0.9521
vn 0.0000 0.2028 0.9792
vn -0.4264 0.4176 0.8024
vn 0.0000 0.6586 0.7524
vn 0.4264 0.4176 0.8024
vn 0.4264 -0.0645 0.9022
vn 0.0000 -1.0000 0.0000
usemtl object_0227E53C_material_94
s 1
f 22/1/1 16/2/2 23/3/3
f 17/4/4 24/5/5 20/6/6
f 23/3/3 18/7/7 19/8/8
f 24/5/5 15/9/9 21/10/10
f 20/11/6 24/12/5 21/10/10
f 23/13/3 19/14/8 22/1/1
usemtl object_0227E53C_material_93
f 37/15/11 35/16/12 36/17/13
f 36/17/13 35/16/12 34/18/14
f 34/19/14 35/20/12 33/21/15
f 34/19/14 33/21/15 32/22/16
f 32/22/16 33/21/15 31/23/17
f 32/22/16 31/23/17 30/24/18
f 30/24/18 31/23/17 29/25/19
f 30/24/18 29/25/19 28/26/20
f 28/26/20 29/25/19 27/27/21
f 28/26/20 27/27/21 26/28/22
f 26/28/22 27/27/21 37/29/11
f 26/28/22 37/29/11 36/30/13
usemtl object_0227E53C_material_66
f 28/31/20 26/32/22 30/33/18
f 30/33/18 26/32/22 36/34/13
f 30/33/18 36/34/13 32/35/16
f 32/35/16 36/34/13 34/36/14
usemtl object_0227E53C_material_21
f 6/37/23 5/38/24 1/39/25
f 1/39/25 5/38/24 4/40/26
f 1/39/25 4/40/26 3/41/27
f 3/41/27 2/42/28 1/39/25
f 1/39/25 2/42/28 7/43/29
f 1/39/25 7/43/29 6/37/23
f 12/44/30 13/45/31 8/46/32
f 12/44/30 8/46/32 11/47/33
f 11/47/33 8/46/32 10/48/34
f 9/49/35 10/48/34 8/46/32
f 9/49/35 8/46/32 14/50/36
f 14/50/36 8/46/32 13/45/31
usemtl object_0227E53C_material_63
f 29/51/19 31/52/17 25/53/37
f 29/51/19 25/53/37 27/54/21
f 27/54/21 25/53/37 37/55/11
f 35/56/12 37/55/11 25/53/37
f 35/56/12 25/53/37 33/57/15
f 33/57/15 25/53/37 31/52/17
