mtllib Wafer.mtl
v -4.271484 -2.826172 0.000000 1.000000 1.000000 1.000000
v 4.271486 -2.826172 22.703125 1.000000 1.000000 1.000000
v -4.271484 2.826172 0.000000 1.000000 1.000000 1.000000
v 4.271484 -2.826172 -0.000000 1.000000 1.000000 1.000000
v -4.271482 2.826172 22.703125 1.000000 1.000000 1.000000
v -4.271482 -2.826172 22.703125 1.000000 1.000000 1.000000
v 4.271484 2.826172 -0.000000 1.000000 1.000000 1.000000
v 4.271486 2.826172 22.703125 1.000000 1.000000 1.000000
vt 5.753418 9.448730
vt 1.799805 2.364258
vt 7.318848 7.883301
vt 0.234375 3.929688
vt 7.317383 7.881836
vt 0.234863 3.929199
vt 5.752441 9.446777
vt 3.496338 1.011719
vt 4.494141 1.974121
vt 3.496338 1.974121
vt 4.494141 1.011719
vt 0.000732 1.011719
vt 0.000732 1.974121
vt 1.018311 1.974121
vt 1.018311 1.011719
vn 0.577349 -0.577349 -0.577349
vn -0.577349 -0.577349 0.577349
vn -0.577349 -0.577349 -0.577349
vn 0.577349 -0.577349 0.577349
vn 0.577349 0.577349 -0.577349
vn -0.577349 0.577349 0.577349
vn 0.577349 0.577349 0.577349
vn -0.577349 0.577349 -0.577349
usemtl mat1.024
f 4/1/1 6/2/2 1/3/3
f 4/1/1 2/4/4 6/2/2
f 7/5/5 5/6/6 8/2/7
f 7/5/5 3/7/8 5/6/6
usemtl mat2.014
f 3/8/8 4/9/1 1/10/3
f 3/8/8 7/11/5 4/9/1
f 5/12/6 1/10/3 6/13/2
f 5/12/6 3/8/8 1/10/3
f 8/12/7 6/14/2 2/13/4
f 8/12/7 5/15/6 6/14/2
f 7/8/5 2/13/4 4/10/1
f 7/8/5 8/12/7 2/13/4
