# Blender v2.79 (sub 0) OBJ File: ''
# www.blender.org
mtllib FlyTails.mtl
v -0.175990 1.308524 -1.022888
v 0.001153 -0.000617 0.004641
v -0.391157 1.453700 -0.713826
v 0.222889 1.315897 -0.997252
v 0.183840 1.618629 -0.383774
v -0.212409 1.606938 -0.398085
v 0.401637 1.469135 -0.681511
v -0.882382 2.213441 -1.033218
v -0.680547 1.959623 -1.602558
v -0.538965 2.605411 -0.593938
v -0.033188 2.302772 -1.878279
v 0.040033 2.815842 -0.753857
v 0.272634 2.843873 -1.586145
v -0.710714 3.150096 -1.018752
v -1.187843 2.733103 -2.215115
v -1.127010 2.673815 -1.502885
v -0.297044 3.735785 -1.214969
v -1.108908 3.602332 -0.759678
v -0.640211 3.230982 -2.388067
v -1.581608 4.108051 -1.714755
v -0.231465 3.709499 -1.870938
v -1.893769 3.463326 -1.917560
v -1.783382 2.895369 -1.498041
v -1.413122 2.943480 -0.944124
v -1.225754 4.146792 -1.178936
v 0.001153 -0.000617 -0.004642
v -0.175990 1.308522 1.022889
v -0.391156 1.453700 0.713827
v 0.222890 1.315896 0.997252
v -0.212409 1.606937 0.398086
v 0.183840 1.618630 0.383775
v 0.401637 1.469134 0.681511
v 0.441136 1.964979 1.775074
v -0.134857 2.495046 1.538396
v -0.028866 2.800933 0.943378
v 0.848434 1.811176 1.406978
v 0.503031 2.627078 0.557046
v 0.808159 2.106586 0.908161
v 0.739719 3.668017 1.633495
v 1.415236 2.653197 2.310236
v 1.003378 3.352972 2.232875
v 0.827552 3.284249 1.053979
v 1.368316 3.780969 0.955294
v 1.560836 2.248582 1.668159
v 1.373894 2.618006 1.036089
v 1.777700 2.680362 0.843771
v 2.238288 2.779457 1.420211
v 2.230143 3.415931 1.745164
v 1.823124 3.903177 1.537418
v 1.387964 3.155133 0.649009
v -0.297044 3.735785 -1.214969
v -1.225754 4.146792 -1.178936
v -1.049669 3.967150 -0.827303
v -1.783382 2.895369 -1.498041
v -1.954042 3.074904 -1.841310
v -1.187843 2.733103 -2.215115
v -1.413122 2.943480 -0.944124
v -0.710714 3.150096 -1.018752
v -1.177620 3.179171 -0.681239
v -1.893769 3.463326 -1.917560
v -2.364699 3.191137 -0.722735
v -2.051109 3.503101 -0.372028
v -3.285921 4.027507 -0.182717
v -1.960672 4.048810 -0.468990
v -2.197819 4.294235 -0.941242
v -2.601149 3.426727 -1.190532
v -2.511410 3.982271 -1.291948
v -1.581608 4.108051 -1.714755
v -1.832390 3.858889 -1.995212
v -1.383703 4.307931 -1.494354
v -0.640211 3.230982 -2.388067
v -0.231465 3.709499 -1.870938
v -1.626306 2.730126 -1.182096
v -1.127010 2.673815 -1.502885
v -1.108908 3.602332 -0.759678
v 1.387964 3.155133 0.649009
v 0.827552 3.284249 1.053979
v 1.233786 3.557458 0.684890
v 2.378523 3.021337 1.706827
v 2.230143 3.415931 1.745164
v 1.415236 2.653197 2.310236
v 0.739719 3.668017 1.633495
v 1.823124 3.903177 1.537418
v 1.524361 4.040226 1.268944
v 2.238288 2.779457 1.420211
v 2.281559 4.128855 0.650625
v 2.679011 3.944928 1.006797
v 3.353335 4.003509 -0.168637
v 2.285054 3.256074 0.192733
v 2.078273 3.798328 0.244660
v 2.887015 3.411141 0.961491
v 2.682507 3.072148 0.548904
v 1.777700 2.680362 0.843771
v 2.095476 2.533135 1.128327
v 1.526262 2.794245 0.616825
v 1.560836 2.248582 1.668159
v 1.373894 2.618006 1.036089
v 2.093574 3.779116 1.780448
v 1.003378 3.352972 2.232875
v 1.368316 3.780969 0.955294
vt 0.000000 0.000000
vt 0.000000 0.000000
vt 0.000000 0.000000
vt 0.000000 0.000000
vt 0.000000 0.000000
vt 0.000000 0.000000
vt 0.000000 0.000000
vt 0.000000 0.000000
vt 0.000000 0.000000
vt 0.000000 0.000000
vt 0.000000 0.000000
vt 0.000000 0.000000
vt 0.000000 0.000000
vt 0.000000 0.000000
vt 0.000000 0.000000
vt 0.000000 0.000000
vt 0.000000 0.000000
vt 0.000000 0.000000
vt 0.000000 0.000000
vt 0.000000 0.000000
vt 0.000000 0.000000
vt 0.000000 0.000000
vt 0.000000 0.000000
vt 0.000000 0.000000
vt 0.000000 0.000000
vt 0.000000 0.000000
vt 0.000000 0.000000
vt 0.000000 0.000000
vt 0.000000 0.000000
vt 0.000000 0.000000
vt 0.000000 0.000000
vt 0.000000 0.000000
vt 0.000000 0.000000
vt 0.000000 0.000000
vt 0.000000 0.000000
vt 0.000000 0.000000
vt 0.000000 0.000000
vt 0.000000 0.000000
vt 0.000000 0.000000
vt 0.000000 0.000000
vt 0.000000 0.000000
vt 0.000000 0.000000
vt 0.000000 0.000000
vt 0.000000 0.000000
vt 0.000000 0.000000
vt 0.000000 0.000000
vt 0.000000 0.000000
vt 0.000000 0.000000
vt 0.000000 0.000000
vt 0.000000 0.000000
vt 0.000000 0.000000
vt 0.000000 0.000000
vt 0.000000 0.000000
vt 0.000000 0.000000
vt 0.000000 0.000000
vt 0.000000 0.000000
vt 0.000000 0.000000
vt 0.000000 0.000000
vt 0.000000 0.000000
vt 0.000000 0.000000
vt 0.000000 0.000000
vt 0.000000 0.000000
vt 0.000000 0.000000
vt 0.000000 0.000000
vt 0.000000 0.000000
vt 0.000000 0.000000
vt 0.000000 0.000000
vt 0.000000 0.000000
vt 0.000000 0.000000
vt 0.000000 0.000000
vt 0.000000 0.000000
vt 0.000000 0.000000
vt 0.000000 0.000000
vt 0.000000 0.000000
vt 0.000000 0.000000
vt 0.000000 0.000000
vt 0.000000 0.000000
vt 0.000000 0.000000
vt 0.000000 0.000000
vt 0.000000 0.000000
vt 0.000000 0.000000
vt 0.000000 0.000000
vt 0.000000 0.000000
vt 0.000000 0.000000
vt 0.000000 0.000000
vt 0.000000 0.000000
vt 0.000000 0.000000
vt 0.000000 0.000000
vt 0.000000 0.000000
vt 0.000000 0.000000
vt 0.000000 0.000000
vt 0.000000 0.000000
vt 0.000000 0.000000
vt 0.000000 0.000000
vt 0.000000 0.000000
vt 0.000000 0.000000
vt 0.000000 0.000000
vt 0.000000 0.000000
vt 0.000000 0.000000
vt 0.000000 0.000000
vn 0.5073 0.5753 0.6416
vn 0.3350 0.8964 0.2902
vn 0.4302 0.5873 0.6856
vn -0.5077 -0.8413 -0.1855
vn -0.6468 -0.4956 -0.5796
vn -0.5511 -0.5882 -0.5918
vn 0.0841 -0.7785 0.6220
vn 0.5185 -0.4063 0.7523
vn 0.3515 -0.4292 0.8320
vn -0.5910 -0.0647 -0.8041
vn -0.4065 -0.8408 0.3575
vn 0.1156 -0.3290 0.9372
vn -0.8169 0.2317 0.5281
vn 0.2617 0.5860 0.7669
vn -0.1234 0.9923 -0.0092
vn -0.7944 -0.4434 -0.4152
vn -0.6471 0.4763 -0.5954
vn -0.1273 0.7924 -0.5966
vn -0.3751 0.4245 -0.8241
vn 0.1383 0.9642 -0.2262
vn -0.1303 0.3362 -0.9327
vn 0.3701 0.8868 -0.2768
vn -0.1975 -0.9560 0.2168
vn -0.0374 -0.9925 0.1160
vn 0.4394 0.0943 0.8933
vn -0.5579 -0.1409 -0.8179
vn -0.7388 0.2567 -0.6231
vn -0.6405 0.3738 -0.6708
vn 0.7356 -0.3094 0.6026
vn 0.6254 0.1629 0.7631
vn 0.5905 -0.3672 0.7186
vn -0.4061 0.9120 0.0571
vn 0.0332 0.9044 0.4253
vn -0.2627 0.9624 0.0699
vn 0.6833 -0.6880 0.2443
vn -0.1003 0.9884 -0.1142
vn 0.5595 0.6824 0.4704
vn 0.7085 0.3278 -0.6250
vn -0.1006 -0.4652 -0.8795
vn -0.4352 0.4271 -0.7926
vn 0.8986 -0.2029 0.3891
vn 0.5621 -0.7751 -0.2887
vn 0.0814 -0.8484 -0.5231
vn 0.4432 -0.8786 -0.1777
vn -0.4074 -0.5885 -0.6983
vn 0.3725 -0.9207 -0.1164
vn -0.4685 -0.7407 -0.4816
vn 0.3624 0.5834 0.7268
vn 0.1473 0.5178 0.8427
vn -0.5131 0.7693 -0.3806
vn -0.3636 -0.6910 -0.6248
vn -0.0018 -0.9008 0.4343
vn -0.9061 -0.3921 0.1591
vn 0.5807 -0.5035 -0.6398
vn 0.4908 0.2207 0.8429
vn -0.4716 0.0624 0.8796
vn 0.9935 -0.0647 0.0935
vn -0.9025 -0.2721 0.3340
vn -0.4913 -0.7014 -0.5164
vn -0.4039 0.2790 0.8712
vn 0.4528 -0.3654 -0.8133
vn 0.5586 0.4555 0.6932
vn 0.9321 0.2050 -0.2985
vn -0.1140 0.1145 0.9869
vn -0.3020 -0.5353 -0.7888
vn -0.6911 -0.6787 0.2484
vn 0.6153 0.6680 0.4186
vn 0.4957 -0.0599 0.8664
vn 0.2628 0.0863 -0.9610
vn 0.1174 0.6809 -0.7229
vn 0.6454 0.6114 -0.4579
vn -0.3426 0.0510 -0.9381
vn -0.3197 -0.9461 -0.0514
vn 0.2904 -0.7951 0.5324
vn 0.4048 0.9144 0.0038
vn -0.0018 -0.9008 -0.4343
vn -0.5410 -0.4175 0.7300
vn -0.9990 -0.0085 0.0440
vn 0.4639 -0.6829 0.5643
vn -0.5765 0.3114 -0.7554
vn 0.3738 0.1727 -0.9113
vn 0.9221 -0.3179 -0.2206
vn -0.2157 -0.5530 0.8047
vn -0.8499 0.1721 0.4981
vn -0.7260 0.5851 -0.3614
vn 0.5220 -0.8443 0.1210
vn 0.1934 0.3300 -0.9239
vn 0.6957 -0.3404 -0.6326
vn -0.6613 0.7241 0.1956
vn 0.1558 -0.2956 0.9425
vn -0.3239 0.4040 0.8555
vn -0.4556 0.4662 -0.7584
vn -0.6363 0.5953 -0.4906
vn 0.5082 -0.8335 0.2169
vn 0.0902 -0.5808 -0.8091
vn -0.0947 -0.8714 -0.4813
vn 0.6386 -0.5774 0.5087
vn 0.3393 0.2983 0.8921
vn -0.1394 0.8499 0.5081
vn -0.5867 -0.4633 -0.6642
usemtl 255_255_255
s 1
f 51/1/1 52/2/2 53/3/3
f 54/4/4 55/5/5 56/6/6
f 57/7/7 58/8/8 59/9/9
f 60/10/10 56/6/6 55/5/5
f 61/11/11 62/12/12 63/13/13
f 64/14/14 65/15/15 63/13/13
f 66/16/16 61/11/11 63/13/13
f 65/15/15 67/17/17 63/13/13
f 62/12/12 64/14/14 63/13/13
f 67/17/17 66/16/16 63/13/13
f 57/7/7 62/12/12 61/11/11
f 54/4/4 61/11/11 66/16/16
f 64/14/14 62/12/12 59/9/9
f 67/17/17 68/18/18 69/19/19
f 60/10/10 66/16/16 67/17/17
f 65/15/15 68/18/18 67/17/17
f 70/20/20 68/18/18 65/15/15
f 69/19/19 68/18/18 71/21/21
f 70/20/20 72/22/22 68/18/18
f 65/15/15 52/2/2 70/20/20
f 69/19/19 71/21/21 60/10/10
f 69/19/19 60/10/10 67/17/17
f 55/5/5 66/16/16 60/10/10
f 55/5/5 54/4/4 66/16/16
f 73/23/23 61/11/11 54/4/4
f 73/23/23 54/4/4 74/24/24
f 73/23/23 74/24/24 57/7/7
f 73/23/23 57/7/7 61/11/11
f 59/9/9 62/12/12 57/7/7
f 53/3/3 75/25/25 51/1/1
f 59/9/9 58/8/8 75/25/25
f 70/20/20 52/2/2 72/22/22
f 53/3/3 64/14/14 75/25/25
f 75/25/25 64/14/14 59/9/9
f 64/14/14 53/3/3 65/15/15
f 53/3/3 52/2/2 65/15/15
f 76/26/26 77/27/27 78/28/28
f 79/29/29 80/30/30 81/31/31
f 82/32/32 83/33/33 84/34/34
f 81/31/31 85/35/35 79/29/29
f 86/36/36 87/37/37 88/38/38
f 89/39/39 90/40/40 88/38/38
f 87/37/37 91/41/41 88/38/38
f 92/42/42 89/39/39 88/38/38
f 90/40/40 86/36/36 88/38/38
f 91/41/41 92/42/42 88/38/38
f 86/36/36 83/33/33 87/37/37
f 87/37/37 80/30/30 91/41/41
f 86/36/36 90/40/40 84/34/34
f 93/43/43 92/42/42 94/44/44
f 91/41/41 85/35/35 92/42/42
f 93/43/43 89/39/39 92/42/42
f 93/43/43 95/45/45 89/39/39
f 93/43/43 94/44/44 96/46/46
f 97/47/47 95/45/45 93/43/43
f 76/26/26 89/39/39 95/45/45
f 96/46/46 94/44/44 85/35/35
f 85/35/35 94/44/44 92/42/42
f 91/41/41 79/29/29 85/35/35
f 80/30/30 79/29/29 91/41/41
f 87/37/37 98/48/48 80/30/30
f 80/30/30 98/48/48 99/49/49
f 99/49/49 98/48/48 83/33/33
f 83/33/33 98/48/48 87/37/37
f 86/36/36 84/34/34 83/33/33
f 100/50/50 78/28/28 77/27/27
f 82/32/32 84/34/34 100/50/50
f 76/26/26 95/45/45 97/47/47
f 90/40/40 78/28/28 100/50/50
f 90/40/40 100/50/50 84/34/34
f 78/28/28 90/40/40 89/39/39
f 76/26/26 78/28/28 89/39/39
usemtl 255_141_0
f 1/51/51 2/52/52 3/53/53
f 1/51/51 4/54/54 2/52/52
f 5/55/55 6/56/56 2/52/52
f 3/53/53 2/52/52 6/56/56
f 7/57/57 2/52/52 4/54/54
f 5/55/55 2/52/52 7/57/57
f 8/58/58 9/59/59 3/53/53
f 10/60/60 8/58/58 6/56/56
f 4/54/54 1/51/51 11/61/61
f 5/55/55 12/62/62 10/60/60
f 5/55/55 7/57/57 12/62/62
f 7/57/57 4/54/54 13/63/63
f 10/60/60 12/62/62 14/64/64
f 15/65/65 9/59/59 16/66/66
f 12/62/62 13/63/63 17/67/67
f 18/68/68 14/64/64 17/67/67
f 8/58/58 10/60/60 16/66/66
f 11/61/61 9/59/59 19/69/69
f 20/70/70 21/71/71 19/69/69
f 13/63/63 11/61/61 21/71/71
f 19/69/69 15/65/65 22/72/72
f 16/66/66 23/73/73 15/65/65
f 16/66/66 14/64/64 24/74/74
f 21/71/71 25/75/75 17/67/67
f 1/51/51 3/53/53 9/59/59
f 3/53/53 6/56/56 8/58/58
f 9/59/59 11/61/61 1/51/51
f 13/63/63 12/62/62 7/57/57
f 11/61/61 13/63/63 4/54/54
f 17/67/67 14/64/64 12/62/62
f 8/58/58 16/66/66 9/59/59
f 21/71/71 17/67/67 13/63/63
f 14/64/64 16/66/66 10/60/60
f 15/65/65 19/69/69 9/59/59
f 19/69/69 21/71/71 11/61/61
f 6/56/56 5/55/55 10/60/60
f 26/76/76 27/77/77 28/78/78
f 29/79/79 27/77/77 26/76/76
f 30/80/80 31/81/81 26/76/76
f 26/76/76 28/78/78 30/80/80
f 26/76/76 32/82/82 29/79/79
f 26/76/76 31/81/81 32/82/82
f 33/83/83 34/84/84 28/78/78
f 34/84/84 35/85/85 30/80/80
f 27/77/77 29/79/79 36/86/86
f 37/87/87 31/81/81 35/85/85
f 32/82/82 31/81/81 37/87/87
f 29/79/79 32/82/82 38/88/88
f 37/87/87 35/85/85 39/89/89
f 33/83/83 40/90/90 41/91/91
f 38/88/88 37/87/87 42/92/92
f 39/89/89 43/93/93 42/92/92
f 35/85/85 34/84/84 41/91/91
f 33/83/83 36/86/86 44/94/94
f 45/95/95 46/96/96 44/94/94
f 36/86/86 38/88/88 45/95/95
f 40/90/90 44/94/94 47/97/97
f 48/98/98 41/91/91 40/90/90
f 39/89/89 41/91/91 49/99/99
f 50/100/100 45/95/95 42/92/92
f 28/78/78 27/77/77 33/83/83
f 30/80/80 28/78/78 34/84/84
f 36/86/86 33/83/83 27/77/77
f 37/87/87 38/88/88 32/82/82
f 38/88/88 36/86/86 29/79/79
f 39/89/89 42/92/92 37/87/87
f 41/91/91 34/84/84 33/83/83
f 42/92/92 45/95/95 38/88/88
f 41/91/91 39/89/89 35/85/85
f 44/94/94 40/90/90 33/83/83
f 45/95/95 44/94/94 36/86/86
f 31/81/81 30/80/80 35/85/85
