# Blender v2.79 (sub 0) OBJ File: ''
# www.blender.org
mtllib HandRight.mtl
v -0.241202 -0.033474 0.407192
v -0.303387 -0.008673 -0.475659
v -0.217721 -0.363054 0.449567
v -0.303387 -0.008673 -0.475659
v 0.256966 0.026299 -0.514146
v -0.288529 -0.337587 -0.558213
v 0.256966 0.026299 -0.514146
v 0.319151 0.001498 0.368705
v 0.321008 -0.846631 -0.693706
v 0.319151 0.001498 0.368705
v -0.241202 -0.033474 0.407192
v 0.315689 -0.786553 0.502827
v -0.392378 -0.453323 0.404692
v -0.451520 -0.439691 -0.443991
v -0.386845 -0.949548 0.483713
v 0.319151 0.001498 0.368705
v 0.256966 0.026299 -0.514146
v -0.241202 -0.033474 0.407192
v -0.288529 -0.337587 -0.558213
v -0.451650 -0.998034 -0.503896
v -0.451520 -0.439691 -0.443991
v 0.321008 -0.846631 -0.693706
v -0.386845 -0.949548 0.483713
v -0.451650 -0.998034 -0.503896
v 0.315689 -0.786553 0.502827
v -0.392378 -0.453323 0.404692
v -0.386845 -0.949548 0.483713
v -0.217721 -0.363054 0.449567
v -0.303387 -0.008673 -0.475659
v -0.288529 -0.337587 -0.558213
v -0.217721 -0.363054 0.449567
v 0.315689 -0.786553 0.502827
v -0.451650 -0.998034 -0.503896
v 0.256966 0.026299 -0.514146
v -0.303387 -0.008673 -0.475659
v -0.241202 -0.033474 0.407192
v -0.217721 -0.363054 0.449567
v 0.321008 -0.846631 -0.693706
v 0.198387 -0.871193 -0.788778
v -0.175827 -0.898978 -0.757109
v -0.002205 -0.772541 -0.924168
v -0.001694 -0.080919 -0.480176
v 0.020669 -0.809947 -0.505425
v -0.175619 -0.193533 -0.304551
v 0.005335 -0.305495 -0.257242
v 0.184216 -0.221630 -0.386294
vt 0.000000 0.000000
vt 0.000000 0.000000
vt 0.000000 0.000000
vt 0.000000 0.000000
vt 0.000000 0.000000
vt 0.000000 0.000000
vt 0.000000 0.000000
vt 0.000000 0.000000
vt 0.000000 0.000000
vt 0.000000 0.000000
vt 0.000000 0.000000
vt 0.000000 0.000000
vt 0.000000 0.000000
vt 0.000000 0.000000
vt 0.000000 0.000000
vt 0.000000 0.000000
vt 0.000000 0.000000
vt 0.000000 0.000000
vt 0.000000 0.000000
vt 0.000000 0.000000
vt 0.000000 0.000000
vt 0.000000 0.000000
vt 0.000000 0.000000
vt 0.000000 0.000000
vt 0.000000 0.000000
vt 0.000000 0.000000
vt 0.000000 0.000000
vt 0.000000 0.000000
vt 0.000000 0.000000
vt 0.000000 0.000000
vt 0.000000 0.000000
vt 0.000000 0.000000
vt 0.000000 0.000000
vt 0.000000 0.000000
vt 0.000000 0.000000
vt 0.000000 0.000000
vt 0.000000 0.000000
vt 0.000000 0.000000
vt 0.000000 0.000000
vt 0.000000 0.000000
vt 0.000000 0.000000
vt 0.000000 0.000000
vt 0.000000 0.000000
vt 0.000000 0.000000
vt 0.000000 0.000000
vt 0.000000 0.000000
vn -0.9957 -0.0621 0.0684
vn -0.0814 0.2392 -0.9676
vn -0.0625 0.2117 -0.9753
vn -0.2407 -0.0098 -0.9705
vn 0.9939 0.0868 -0.0676
vn 0.9992 0.0324 -0.0242
vn 0.9985 0.0442 -0.0335
vn 0.0572 0.1673 0.9843
vn 0.0376 0.1532 0.9875
vn -0.0011 0.1134 0.9935
vn -0.8472 0.5263 0.0720
vn -0.8352 0.5460 0.0657
vn -0.9977 -0.0026 0.0681
vn -0.0601 0.9977 0.0323
vn -0.4988 0.8653 0.0502
vn -0.2563 0.1032 -0.9611
vn -0.3455 -0.0822 -0.9348
vn -0.1885 0.0962 -0.9774
vn 0.2250 -0.9738 0.0330
vn 0.2111 -0.9765 0.0442
vn 0.2159 -0.9756 0.0403
vn -0.3162 0.1458 0.9374
vn -0.1054 0.0881 0.9905
vn -0.0733 0.1167 0.9905
vn 1.0000 -0.0036 0.0046
vn -0.9978 -0.0068 0.0658
vn -0.4696 0.8811 0.0553
vn 0.2039 -0.9777 0.0500
vn 0.7869 -0.5421 -0.2948
vn -0.7400 -0.6426 -0.1987
vn -0.0735 -0.0091 -0.9973
vn -0.1842 0.5308 -0.8272
vn 0.1670 -0.6607 0.7318
vn -0.8990 0.2366 -0.3685
vn 0.6870 -0.3591 0.6317
vn 0.9939 0.0731 -0.0830
usemtl 255_255_255
s 1
f 1/1/1 2/2/1 3/3/1
f 4/4/2 5/5/3 6/6/4
f 7/7/5 8/8/6 9/9/7
f 10/10/8 11/11/9 12/12/10
f 13/13/11 14/14/12 15/15/13
f 16/16/14 17/17/14 18/18/14
f 14/14/12 13/13/11 19/19/15
f 20/20/16 21/21/17 22/22/18
f 23/23/19 24/24/20 25/25/21
f 26/26/22 27/27/23 28/28/24
f 29/29/1 30/30/1 31/31/1
f 5/5/3 22/22/18 6/6/4
f 8/8/6 32/32/25 9/9/7
f 11/11/9 28/28/24 12/12/10
f 14/14/12 33/33/26 15/15/13
f 34/34/14 35/35/14 36/36/14
f 13/13/11 37/37/27 19/19/15
f 21/21/17 6/6/4 22/22/18
f 24/24/20 38/38/28 25/25/21
f 27/27/23 12/12/10 28/28/24
f 39/39/29 40/40/30 41/41/31
f 41/41/31 40/40/30 42/42/32
f 40/40/30 43/43/33 44/44/34
f 43/43/33 39/39/29 45/45/35
f 39/39/29 41/41/31 46/46/36
f 39/39/29 43/43/33 40/40/30
f 40/40/30 44/44/34 42/42/32
f 39/39/29 46/46/36 45/45/35
f 41/41/31 42/42/32 46/46/36
