# Blender v2.79 (sub 0) OBJ File: ''
# www.blender.org
mtllib Head.mtl
v 0.787269 -2.181718 -0.000001
v 0.928988 -2.098077 0.168284
v 0.667525 -2.033228 -0.000001
v 1.057819 -2.034019 -0.000001
v 0.845613 -1.916314 0.195808
v 1.007473 -2.231642 -0.000001
v 1.030949 -1.830494 -0.000001
v 0.928988 -2.098077 -0.168286
v 0.845613 -1.916314 -0.195810
v 3.608840 -0.447063 0.867242
v 2.981731 -1.524073 -0.000001
v 3.664359 -0.788789 -0.000000
v 1.637142 -0.535357 1.397137
v 2.295853 -1.058592 0.990098
v 2.646794 -0.728563 1.386198
v 2.647073 0.467861 1.934927
v 1.816839 0.350910 1.702935
v 2.706243 -1.304951 0.527918
v 2.922894 -1.270127 0.721533
v 1.124378 0.093839 1.585199
v 1.751982 -1.334574 0.144362
v 1.121508 -1.368130 -0.000001
v 1.761898 -1.397487 -0.000001
v 2.885196 1.587049 1.426888
v 1.819902 1.513472 1.432562
v 1.723905 1.948372 0.000000
v 0.904599 1.375679 1.231935
v 2.928695 2.013644 0.000000
v 3.811916 1.278393 1.135827
v 3.553671 1.674378 -0.000000
v 4.022258 0.288776 0.517827
v 4.081237 0.456927 0.000000
v 5.217987 0.433181 2.261074
v 5.217987 0.433181 2.261074
v 3.608840 -0.447063 0.867242
v 4.022258 0.288776 0.517827
v 0.893459 0.428441 1.532174
v 0.249420 1.410533 -0.000000
v 0.866699 1.782802 -0.000000
v -0.005886 0.002242 -0.000001
v 0.293537 1.243181 0.992431
v 2.539092 -1.360966 0.212742
v 2.391431 -1.462636 -0.000001
v 1.609335 -0.833663 1.163932
v 0.904051 -0.899296 1.059744
v 1.080107 -1.302246 0.190777
v 0.116798 0.353615 1.121151
v 0.319242 0.537937 1.310163
v 3.608840 -0.447063 -0.867244
v 2.295853 -1.058592 -0.990099
v 1.637142 -0.535357 -1.397138
v 2.646794 -0.728563 -1.386199
v 1.816839 0.350911 -1.702936
v 2.647073 0.467862 -1.934928
v 2.706243 -1.304950 -0.527919
v 2.922894 -1.270127 -0.721535
v 1.124379 0.093839 -1.585200
v 1.751982 -1.334574 -0.144363
v 1.819902 1.513473 -1.432563
v 2.885196 1.587050 -1.426889
v 0.904599 1.375680 -1.231936
v 3.811916 1.278393 -1.135827
v 4.022258 0.288776 -0.517827
v 5.217989 0.433189 -2.261077
v 3.608840 -0.447063 -0.867244
v 5.217989 0.433189 -2.261077
v 4.022258 0.288776 -0.517827
v 0.893459 0.428441 -1.532175
v 0.293537 1.243181 -0.992431
v 2.539092 -1.360966 -0.212744
v 1.609335 -0.833663 -1.163933
v 0.904052 -0.899296 -1.059745
v 1.080107 -1.302246 -0.190778
v 0.116798 0.353616 -1.121152
v 0.319242 0.537937 -1.310163
v 3.655775 -1.904557 0.303365
v 3.373091 -2.813938 0.756894
v 3.522049 -1.957746 0.303364
v 3.274872 -1.922880 0.303364
v 2.671768 -2.653689 0.756894
v 3.132944 -1.928594 0.303364
v 4.062681 -1.752221 0.303365
v 4.198025 -2.665532 0.756894
v 3.946602 -1.853134 0.303365
v 3.655775 -1.904557 0.303365
v 3.522049 -1.957746 0.303364
v 3.300867 -1.180321 -0.000001
v 3.274872 -1.922880 0.303364
v 3.132944 -1.928594 0.303364
v 3.189294 -1.300500 -0.000001
v 3.413393 -1.059115 -0.000000
v 4.062681 -1.752221 0.303365
v 3.300867 -1.180321 -0.000001
v 3.189294 -1.300500 -0.000001
v 3.093318 -1.403879 -0.000001
v 3.946602 -1.853134 0.303365
v 0.895969 0.351924 1.742906
v 0.833782 -0.879455 1.226061
v 1.124378 0.093839 1.585199
v 0.282343 -0.676203 1.158757
v 0.961669 -1.180764 0.643107
v 0.904051 -0.899296 1.059744
v 0.830147 -1.546033 0.763510
v 1.080107 -1.302246 0.190777
v 0.374410 -1.463326 0.733536
v 0.667525 -2.033228 -0.000001
v 0.845613 -1.916314 0.195808
v 1.030949 -1.830494 -0.000001
v 0.158522 -0.657683 0.669364
v 0.116798 0.353615 1.121151
v 0.287134 0.468041 1.445749
v 0.174172 -1.304888 -0.000001
v 1.609335 -0.833663 1.163932
v 0.961669 -1.180764 0.643107
v 1.680212 -1.237299 0.597328
v 5.217987 0.433181 2.261074
v 2.647073 0.467861 1.934927
v 3.608840 -0.447063 0.867242
v 0.893459 0.428441 1.532174
v 0.319242 0.537937 1.310163
v 2.295853 -1.058592 0.990098
v 2.539092 -1.360966 0.212742
v 1.751982 -1.334574 0.144362
v 1.080107 -1.302246 0.190777
v 1.121508 -1.368130 -0.000001
v -0.005886 0.002242 -0.000001
v 0.904051 -0.899296 1.059744
v 2.706243 -1.304951 0.527918
v 1.305909 0.831617 2.192395
v 0.895969 0.351924 1.742906
v 1.124378 0.093839 1.585199
v 0.895969 0.351924 1.742906
v 0.546013 0.463314 1.680505
v 0.287134 0.468041 1.445748
v 0.239097 1.239114 2.276058
v 0.771982 1.225077 2.412250
v -0.082435 1.051852 1.880664
v 0.116799 0.353615 1.121151
v 0.287133 0.468041 1.445748
v 0.833783 -0.879455 -1.226062
v 0.895970 0.351925 -1.742907
v 1.124379 0.093839 -1.585200
v 0.282343 -0.676202 -1.158758
v 0.961669 -1.180763 -0.643108
v 0.904052 -0.899296 -1.059745
v 1.080107 -1.302246 -0.190778
v 0.830147 -1.546032 -0.763511
v 0.374410 -1.463325 -0.733538
v 0.845613 -1.916314 -0.195810
v 0.158523 -0.657683 -0.669365
v 0.116798 0.353616 -1.121152
v 0.287134 0.468041 -1.445749
v 0.961669 -1.180763 -0.643108
v 1.609335 -0.833663 -1.163933
v 1.680212 -1.237299 -0.597330
v 2.647073 0.467862 -1.934928
v 5.217989 0.433189 -2.261077
v 3.608840 -0.447063 -0.867244
v 0.893459 0.428441 -1.532175
v 0.319242 0.537937 -1.310163
v 2.295853 -1.058592 -0.990099
v 2.539092 -1.360966 -0.212744
v 1.751982 -1.334574 -0.144363
v 1.080107 -1.302246 -0.190778
v 0.904052 -0.899296 -1.059745
v 2.706243 -1.304950 -0.527919
v 0.895970 0.351925 -1.742907
v 1.305910 0.831618 -2.192395
v 1.124379 0.093839 -1.585200
v 0.546013 0.463315 -1.680505
v 0.895970 0.351925 -1.742907
v 0.287134 0.468041 -1.445749
v 0.239097 1.239115 -2.276059
v 0.771983 1.225079 -2.412250
v 0.116799 0.353615 -1.121152
v -0.082434 1.051853 -1.880665
v 0.287133 0.468041 -1.445749
v 1.119509 -1.342329 0.337782
v 1.360577 -1.404729 0.339735
v 1.180269 -1.280784 0.404942
v 1.362287 -1.272478 0.467329
v 1.180269 -1.280784 0.404942
v 1.360577 -1.404729 0.339735
v 1.180145 -1.313162 0.271082
v 1.362049 -1.334408 0.211294
v 1.119509 -1.342329 0.337782
v 1.362049 -1.334408 0.211294
v 1.601408 -1.432286 0.341537
v 1.842835 -1.421875 0.343180
v 1.603427 -1.278105 0.481231
v 1.844544 -1.289624 0.470774
v 1.603427 -1.278105 0.481231
v 1.842835 -1.421875 0.343180
v 1.603166 -1.345927 0.200838
v 1.844307 -1.351554 0.214739
v 1.601408 -1.432286 0.341537
v 1.844307 -1.351554 0.214739
v 1.842835 -1.421875 0.343180
v 2.083049 -1.376587 0.344666
v 1.844544 -1.289624 0.470774
v 2.026449 -1.310869 0.410987
v 1.844544 -1.289624 0.470774
v 2.083049 -1.376587 0.344666
v 1.844307 -1.351554 0.214739
v 2.026325 -1.343247 0.277126
v 2.026325 -1.343247 0.277126
v 1.360577 -1.404729 0.339735
v 1.601408 -1.432286 0.341537
v 1.362287 -1.272478 0.467329
v 1.603427 -1.278105 0.481231
v 1.362287 -1.272478 0.467329
v 1.362049 -1.334408 0.211294
v 1.603166 -1.345927 0.200838
v 1.603166 -1.345927 0.200838
v 1.355355 -1.397139 -0.355131
v 1.114326 -1.334798 -0.351695
v 1.174076 -1.272150 -0.419782
v 1.355149 -1.262806 -0.483670
v 1.358742 -1.328899 -0.227439
v 1.175953 -1.306705 -0.285820
v 1.837534 -1.414168 -0.362429
v 1.596146 -1.424637 -0.358701
v 1.596068 -1.268176 -0.499507
v 1.837329 -1.279834 -0.490968
v 1.840921 -1.345929 -0.234737
v 1.600002 -1.340557 -0.218900
v 2.077708 -1.368821 -0.366277
v 2.020117 -1.302029 -0.432588
v 2.021995 -1.336584 -0.298625
vt 0.000000 0.000000
vt 0.000000 0.000000
vt 0.000000 0.000000
vt 0.000000 0.000000
vt 0.000000 0.000000
vt 0.000000 0.000000
vt 0.000000 0.000000
vt 0.000000 0.000000
vt 0.000000 0.000000
vt 0.000000 0.000000
vt 0.000000 0.000000
vt 0.000000 0.000000
vt 0.000000 0.000000
vt 0.000000 0.000000
vt 0.000000 0.000000
vt 0.000000 0.000000
vt 0.000000 0.000000
vt 0.000000 0.000000
vt 0.000000 0.000000
vt 0.000000 0.000000
vt 0.000000 0.000000
vt 0.000000 0.000000
vt 0.000000 0.000000
vt 0.000000 0.000000
vt 0.000000 0.000000
vt 0.000000 0.000000
vt 0.000000 0.000000
vt 0.000000 0.000000
vt 0.000000 0.000000
vt 0.000000 0.000000
vt 0.000000 0.000000
vt 0.000000 0.000000
vt 0.000000 0.000000
vt 0.000000 0.000000
vt 0.000000 0.000000
vt 0.000000 0.000000
vt 0.000000 0.000000
vt 0.000000 0.000000
vt 0.000000 0.000000
vt 0.000000 0.000000
vt 0.000000 0.000000
vt 0.000000 0.000000
vt 0.000000 0.000000
vt 0.000000 0.000000
vt 0.000000 0.000000
vt 0.000000 0.000000
vt 0.000000 0.000000
vt 0.000000 0.000000
vt 0.000000 0.000000
vt 0.000000 0.000000
vt 0.000000 0.000000
vt 0.000000 0.000000
vt 0.000000 0.000000
vt 0.000000 0.000000
vt 0.000000 0.000000
vt 0.000000 0.000000
vt 0.000000 0.000000
vt 0.000000 0.000000
vt 0.000000 0.000000
vt 0.000000 0.000000
vt 0.000000 0.000000
vt 0.000000 0.000000
vt 0.000000 0.000000
vt 0.000000 0.000000
vt 0.000000 0.000000
vt 0.000000 0.000000
vt 0.000000 0.000000
vt 0.000000 0.000000
vt 0.000000 0.000000
vt 0.000000 0.000000
vt 0.000000 0.000000
vt 0.000000 0.000000
vt 0.000000 0.000000
vt 0.000000 0.000000
vt 0.000000 0.000000
vt 0.000000 0.000000
vt 0.000000 0.000000
vt 0.000000 0.000000
vt 0.000000 0.000000
vt 0.000000 0.000000
vt 0.000000 0.000000
vt 0.000000 0.000000
vt 0.000000 0.000000
vt 0.000000 0.000000
vt 0.000000 0.000000
vt 0.000000 0.000000
vt 0.000000 0.000000
vt 0.000000 0.000000
vt 0.000000 0.000000
vt 0.000000 0.000000
vt 0.000000 0.000000
vt 0.000000 0.000000
vt 0.000000 0.000000
vt 0.000000 0.000000
vt 0.000000 0.000000
vt 0.000000 0.000000
vt 0.000000 0.000000
vt 0.000000 0.000000
vt 0.000000 0.000000
vt 0.000000 0.000000
vt 0.000000 0.000000
vt 0.000000 0.000000
vt 0.000000 0.000000
vt 0.000000 0.000000
vt 0.000000 0.000000
vt 0.000000 0.000000
vt 0.000000 0.000000
vt 0.000000 0.000000
vt 0.000000 0.000000
vt 0.000000 0.000000
vt 0.000000 0.000000
vt 0.000000 0.000000
vt 0.000000 0.000000
vt 0.000000 0.000000
vt 0.000000 0.000000
vt 0.000000 0.000000
vt 0.000000 0.000000
vt 0.000000 0.000000
vt 0.000000 0.000000
vt 0.000000 0.000000
vt 0.000000 0.000000
vt 0.000000 0.000000
vt 0.000000 0.000000
vt 0.000000 0.000000
vt 0.000000 0.000000
vt 0.000000 0.000000
vt 0.000000 0.000000
vt 0.000000 0.000000
vt 0.000000 0.000000
vt 0.000000 0.000000
vt 0.000000 0.000000
vt 0.000000 0.000000
vt 0.000000 0.000000
vt 0.000000 0.000000
vt 0.000000 0.000000
vt 0.000000 0.000000
vt 0.000000 0.000000
vt 0.000000 0.000000
vt 0.000000 0.000000
vt 0.000000 0.000000
vt 0.000000 0.000000
vt 0.000000 0.000000
vt 0.000000 0.000000
vt 0.000000 0.000000
vt 0.000000 0.000000
vt 0.000000 0.000000
vt 0.000000 0.000000
vt 0.000000 0.000000
vt 0.000000 0.000000
vt 0.000000 0.000000
vt 0.000000 0.000000
vt 0.000000 0.000000
vt 0.000000 0.000000
vt 0.000000 0.000000
vt 0.000000 0.000000
vt 0.000000 0.000000
vt 0.000000 0.000000
vt 0.000000 0.000000
vt 0.000000 0.000000
vt 0.000000 0.000000
vt 0.000000 0.000000
vt 0.000000 0.000000
vt 0.000000 0.000000
vt 0.000000 0.000000
vt 0.000000 0.000000
vt 0.000000 0.000000
vt 0.000000 0.000000
vt 0.000000 0.000000
vt 0.000000 0.000000
vt 0.000000 0.000000
vt 0.000000 0.000000
vt 0.000000 0.000000
vt 0.000000 0.000000
vt 0.000000 0.000000
vt 0.000000 0.000000
vt 0.000000 0.000000
vt 0.000000 0.000000
vt 0.000000 0.000000
vt 0.000000 0.000000
vt 0.000000 0.000000
vt 0.000000 0.000000
vt 0.000000 0.000000
vt 0.000000 0.000000
vt 0.000000 0.000000
vt 0.000000 0.000000
vt 0.000000 0.000000
vt 0.000000 0.000000
vt 0.000000 0.000000
vt 0.000000 0.000000
vt 0.000000 0.000000
vt 0.000000 0.000000
vt 0.000000 0.000000
vt 0.000000 0.000000
vt 0.000000 0.000000
vt 0.000000 0.000000
vt 0.000000 0.000000
vt 0.000000 0.000000
vt 0.000000 0.000000
vt 0.000000 0.000000
vt 0.000000 0.000000
vt 0.000000 0.000000
vt 0.000000 0.000000
vt 0.000000 0.000000
vt 0.000000 0.000000
vt 0.000000 0.000000
vt 0.000000 0.000000
vt 0.000000 0.000000
vt 0.000000 0.000000
vt 0.000000 0.000000
vt 0.000000 0.000000
vt 0.000000 0.000000
vt 0.000000 0.000000
vt 0.000000 0.000000
vt 0.000000 0.000000
vt 0.000000 0.000000
vt 0.000000 0.000000
vt 0.000000 0.000000
vt 0.000000 0.000000
vt 0.000000 0.000000
vt 0.000000 0.000000
vt 0.000000 0.000000
vt 0.000000 0.000000
vt 0.000000 0.000000
vt 0.000000 0.000000
vt 0.000000 0.000000
vt 0.000000 0.000000
vt 0.000000 0.000000
vt 0.000000 0.000000
vt 0.000000 0.000000
vn 0.2231 0.3944 0.8914
vn 0.3153 -0.5240 0.7912
vn 0.4021 -0.2391 0.8838
vn -0.6855 -0.3328 0.6476
vn 0.9189 -0.2371 0.3152
vn 0.8213 -0.4108 0.3960
vn 0.4222 -0.6217 0.6597
vn 0.9212 -0.2557 0.2932
vn -0.6090 -0.5765 0.5448
vn -0.5417 -0.8406 -0.0000
vn 0.2716 -0.7897 0.5501
vn 0.9267 -0.3759 -0.0000
vn -0.9689 -0.1686 0.1813
vn -0.9360 -0.0298 0.3508
vn -0.5767 0.4562 0.6778
vn -0.9359 -0.3522 -0.0000
vn -0.0632 -0.8198 0.5691
vn -0.0349 -0.8963 0.4420
vn -0.0545 -0.9210 0.3857
vn -0.0871 -0.7939 0.6018
vn 0.3273 0.8856 0.3295
vn -0.4531 0.8315 0.3214
vn -0.0644 -0.8664 0.4952
vn -0.0508 -0.9782 0.2012
vn -0.0425 -0.9782 0.2033
vn -0.0507 -0.9718 0.2301
vn 0.9761 -0.2172 0.0000
vn -0.9930 -0.1179 -0.0000
vn -0.0055 -0.8290 0.5593
vn -0.0420 -0.9511 0.3061
vn -0.1464 -0.6069 0.7812
vn -0.3309 -0.6638 0.6708
vn -0.4003 -0.7491 0.5278
vn -0.4872 -0.6993 0.5231
vn -0.5228 -0.6395 0.5636
vn -0.3223 -0.6043 0.7286
vn -0.5027 -0.6981 0.5099
vn 0.3153 -0.5240 -0.7912
vn 0.2231 0.3944 -0.8914
vn 0.4021 -0.2391 -0.8838
vn -0.6855 -0.3328 -0.6476
vn 0.9189 -0.2371 -0.3152
vn 0.8213 -0.4108 -0.3960
vn 0.9212 -0.2557 -0.2932
vn 0.4222 -0.6217 -0.6597
vn -0.6090 -0.5765 -0.5448
vn 0.2716 -0.7897 -0.5501
vn -0.9689 -0.1686 -0.1813
vn -0.9360 -0.0298 -0.3508
vn -0.5767 0.4562 -0.6778
vn -0.0349 -0.8963 -0.4420
vn -0.0632 -0.8198 -0.5691
vn -0.0545 -0.9210 -0.3857
vn -0.0871 -0.7939 -0.6018
vn 0.3273 0.8856 -0.3295
vn -0.4531 0.8315 -0.3213
vn -0.0644 -0.8664 -0.4952
vn -0.0508 -0.9782 -0.2012
vn -0.0425 -0.9782 -0.2033
vn -0.0507 -0.9718 -0.2301
vn -0.0055 -0.8290 -0.5593
vn -0.0420 -0.9511 -0.3061
vn -0.1464 -0.6069 -0.7812
vn -0.4003 -0.7491 -0.5278
vn -0.3309 -0.6638 -0.6708
vn -0.4872 -0.6993 -0.5231
vn -0.5228 -0.6395 -0.5636
vn -0.3223 -0.6043 -0.7286
vn -0.5027 -0.6981 -0.5099
vn -0.2297 -0.8740 0.4283
vn -0.2433 -0.9464 -0.2125
vn -0.1726 -0.6434 0.7458
vn -0.2107 -0.6773 0.7049
vn -0.1689 -0.9784 0.1194
vn -0.2818 -0.7584 -0.5878
vn -0.2175 -0.8551 -0.4706
vn 0.0338 -0.8635 0.5032
vn 0.0436 -0.9921 -0.1176
vn 0.0239 -0.6714 0.7407
vn -0.0020 -0.6943 0.7197
vn 0.1374 -0.9872 0.0810
vn 0.0103 -0.8523 -0.5230
vn -0.0281 -0.9960 0.0851
vn 0.0411 -0.8766 -0.4795
vn 0.1553 -0.8408 0.5186
vn 0.1854 -0.9819 -0.0382
vn 0.1256 -0.6897 0.7132
vn 0.1794 -0.6180 0.7655
vn 0.1999 -0.8604 -0.4688
vn 0.1590 -0.8257 -0.5412
vn -0.1045 -0.8835 0.4566
vn -0.1101 -0.9747 -0.1948
vn -0.0845 -0.6913 0.7176
vn -0.0583 -0.6699 0.7402
vn -0.0626 -0.8751 -0.4798
vn -0.0931 -0.8480 -0.5217
vn -0.1769 -0.9730 -0.1483
vn -0.2701 -0.9388 -0.2138
vn -0.1907 -0.6549 -0.7313
vn -0.1393 -0.6792 -0.7207
vn -0.1355 -0.8671 0.4794
vn -0.2795 -0.7607 0.5859
vn 0.1106 -0.9818 -0.1545
vn -0.0386 -0.9888 -0.1439
vn -0.0288 -0.6734 -0.7387
vn 0.0523 -0.6847 -0.7269
vn 0.1117 -0.8727 0.4753
vn -0.0325 -0.8606 0.5083
vn 0.1969 -0.9606 -0.1959
vn 0.1708 -0.6161 -0.7689
vn 0.1774 -0.8415 0.5102
vn 0.7299 -0.5102 0.4550
vn 0.3181 -0.9481 -0.0000
vn 0.8264 -0.5631 0.0000
vn -0.0873 -0.4723 0.8771
vn -0.0634 -0.7567 0.6507
vn 0.1911 -0.5561 0.8089
vn -0.0721 0.0784 0.9943
vn -0.1974 -0.0518 0.9790
vn -0.1614 -0.9334 0.3206
vn 0.3100 -0.8263 0.4703
vn -0.1260 -0.0884 0.9881
vn -0.0513 -0.9198 0.3889
vn -0.0274 -0.9996 -0.0000
vn -0.0620 -0.9981 -0.0000
vn 0.0939 0.8017 0.5904
vn -0.1766 0.6850 0.7068
vn -0.1309 0.9914 0.0000
vn -0.3066 0.6703 0.6758
vn 0.2144 0.9768 0.0000
vn 0.6330 0.7740 0.0167
vn 0.6659 0.7460 0.0000
vn 0.9995 -0.0067 -0.0323
vn 0.9996 0.0274 0.0000
vn 0.5198 0.8300 0.2023
vn 0.6888 -0.5882 -0.4237
vn 0.0388 0.3015 0.9527
vn -0.7851 0.6193 0.0000
vn -0.3501 0.9367 0.0000
vn -0.9820 0.1891 -0.0000
vn -0.6872 0.5963 0.4151
vn -0.1366 -0.9056 0.4015
vn -0.1031 -0.9947 -0.0000
vn -0.0303 -0.6139 0.7888
vn -0.1499 -0.4927 0.8572
vn -0.0233 -0.9465 0.3218
vn -0.9427 0.2232 0.2480
vn -0.5690 0.2900 0.7695
vn 0.7299 -0.5102 -0.4550
vn -0.0634 -0.7567 -0.6507
vn -0.0873 -0.4723 -0.8771
vn 0.1911 -0.5561 -0.8089
vn -0.1974 -0.0518 -0.9790
vn -0.0721 0.0784 -0.9943
vn -0.1614 -0.9334 -0.3206
vn 0.3100 -0.8263 -0.4703
vn -0.1260 -0.0884 -0.9881
vn -0.0513 -0.9198 -0.3889
vn -0.1766 0.6850 -0.7068
vn 0.0939 0.8017 -0.5904
vn -0.3066 0.6703 -0.6758
vn 0.6330 0.7740 -0.0167
vn 0.9995 -0.0067 0.0323
vn 0.5198 0.8300 -0.2023
vn 0.6888 -0.5882 0.4237
vn 0.0388 0.3015 -0.9527
vn -0.6872 0.5963 -0.4151
vn -0.1366 -0.9056 -0.4015
vn -0.0303 -0.6139 -0.7888
vn -0.1499 -0.4927 -0.8572
vn -0.0233 -0.9465 -0.3218
vn -0.9427 0.2232 -0.2480
vn -0.5690 0.2900 -0.7695
vn 0.1930 -0.4853 -0.8528
vn 0.0217 -0.5401 -0.8413
vn 0.3304 -0.3801 -0.8639
vn 0.1305 -0.3280 -0.9356
vn 0.1486 -0.3225 -0.9348
vn 0.2728 -0.2814 -0.9200
vn 0.0176 -0.4361 -0.8997
vn 0.0622 -0.4386 -0.8965
vn 0.3687 -0.4309 -0.8236
vn 0.2235 -0.2075 -0.9524
vn 0.2054 -0.2309 -0.9511
vn 0.2216 -0.2100 -0.9523
vn 0.2946 -0.2735 -0.9157
vn 0.4528 -0.4204 -0.7863
vn 0.2032 -0.2337 -0.9508
vn -0.5769 -0.8168 -0.0000
vn 0.2134 -0.3548 0.9103
vn -0.8044 -0.5941 -0.0000
vn 0.9999 0.0143 -0.0000
vn 0.1408 -0.1260 0.9820
vn 0.5188 -0.8549 -0.0000
vn 0.9914 0.1309 -0.0000
vn 0.2134 -0.3548 -0.9103
vn 0.1408 -0.1260 -0.9820
usemtl 255_255_255
s 1
f 97/1/1 98/2/2 99/3/3
f 97/1/1 100/4/4 98/2/2
f 98/2/2 101/5/5 102/6/6
f 103/7/7 104/8/8 101/5/5
f 105/9/9 103/7/7 100/4/4
f 106/10/10 107/11/11 105/9/9
f 107/11/11 108/12/12 103/7/7
f 109/13/13 105/9/9 100/4/4
f 110/14/14 100/4/4 111/15/15
f 109/13/13 112/16/16 105/9/9
f 113/17/17 114/18/18 115/19/19
f 116/20/20 117/21/20 118/22/20
f 119/23/21 120/24/22 111/15/15
f 120/24/22 110/14/14 111/15/15
f 121/25/23 113/17/17 115/19/19
f 122/26/24 115/19/19 123/27/25
f 123/27/25 115/19/19 124/28/26
f 98/2/2 102/6/6 99/3/3
f 97/1/1 111/15/15 100/4/4
f 98/2/2 103/7/7 101/5/5
f 103/7/7 108/12/12 125/29/27
f 103/7/7 125/29/27 104/8/8
f 103/7/7 98/2/2 100/4/4
f 107/11/11 103/7/7 105/9/9
f 110/14/14 109/13/13 100/4/4
f 112/16/16 109/13/13 126/30/28
f 113/17/17 127/31/29 114/18/18
f 115/19/19 128/32/30 121/25/23
f 122/26/24 128/32/30 115/19/19
f 115/19/19 114/18/18 124/28/26
f 129/33/31 130/34/31 131/35/31
f 132/36/32 133/37/33 134/38/34
f 133/37/33 135/39/35 134/38/34
f 132/36/32 136/40/36 133/37/33
f 137/41/37 138/42/37 139/43/37
f 112/16/16 106/10/10 105/9/9
f 110/14/14 126/30/28 109/13/13
f 119/23/21 97/1/1 99/3/3
f 140/44/38 141/45/39 142/46/40
f 143/47/41 141/45/39 140/44/38
f 144/48/42 140/44/38 145/49/43
f 146/50/44 147/51/45 144/48/42
f 147/51/45 148/52/46 143/47/41
f 149/53/47 106/10/10 148/52/46
f 108/12/12 149/53/47 147/51/45
f 148/52/46 150/54/48 143/47/41
f 143/47/41 151/55/49 152/56/50
f 112/16/16 150/54/48 148/52/46
f 153/57/51 154/58/52 155/59/53
f 156/60/54 157/61/54 158/62/54
f 159/63/55 141/45/39 152/56/50
f 151/55/49 160/64/56 152/56/50
f 154/58/52 161/65/57 155/59/53
f 155/59/53 162/66/58 163/67/59
f 155/59/53 163/67/59 164/68/60
f 145/49/43 140/44/38 142/46/40
f 152/56/50 141/45/39 143/47/41
f 147/51/45 140/44/38 144/48/42
f 108/12/12 147/51/45 125/29/27
f 125/29/27 147/51/45 146/50/44
f 140/44/38 147/51/45 143/47/41
f 147/51/45 149/53/47 148/52/46
f 150/54/48 151/55/49 143/47/41
f 150/54/48 112/16/16 126/30/28
f 165/69/61 154/58/52 153/57/51
f 166/70/62 155/59/53 161/65/57
f 166/70/62 162/66/58 155/59/53
f 153/57/51 155/59/53 164/68/60
f 167/71/63 168/72/63 169/73/63
f 170/74/64 171/75/65 172/76/66
f 173/77/67 170/74/64 172/76/66
f 174/78/68 171/75/65 170/74/64
f 175/79/69 176/80/69 177/81/69
f 106/10/10 112/16/16 148/52/46
f 126/30/28 151/55/49 150/54/48
f 141/45/39 159/63/55 142/46/40
f 97/1/1 119/23/21 111/15/15
f 160/64/56 159/63/55 152/56/50
usemtl 43_43_43
f 178/82/70 179/83/71 180/84/72
f 181/85/73 182/86/73 183/87/74
f 184/88/75 185/89/75 186/90/75
f 179/83/71 178/82/70 187/91/76
f 188/92/77 189/93/78 190/94/79
f 191/95/80 192/96/80 193/97/81
f 194/98/82 195/99/82 196/100/83
f 189/93/78 188/92/77 197/101/84
f 198/102/85 199/103/86 200/104/87
f 201/105/88 202/106/88 203/107/88
f 204/108/89 205/109/89 193/97/81
f 199/103/86 198/102/85 206/110/90
f 207/111/91 208/112/92 209/113/93
f 210/114/94 211/115/94 196/100/83
f 212/116/95 213/117/95 183/87/74
f 208/112/92 207/111/91 214/118/96
f 215/119/97 216/120/98 217/121/99
f 217/121/99 218/122/100 215/119/97
f 219/123/101 220/124/102 216/120/98
f 216/120/98 215/119/97 219/123/101
f 221/125/103 222/126/104 223/127/105
f 223/127/105 224/128/106 221/125/103
f 225/129/107 226/130/108 222/126/104
f 222/126/104 221/125/103 225/129/107
f 227/131/109 221/125/103 224/128/106
f 224/128/106 228/132/110 227/131/109
f 229/133/111 225/129/107 221/125/103
f 221/125/103 227/131/109 229/133/111
f 222/126/104 215/119/97 218/122/100
f 218/122/100 223/127/105 222/126/104
f 226/130/108 219/123/101 215/119/97
f 215/119/97 222/126/104 226/130/108
usemtl 255_141_0
f 10/134/112 11/135/113 12/136/114
f 13/137/115 14/138/116 15/139/117
f 16/140/118 17/141/119 15/139/117
f 18/142/120 11/135/113 19/143/121
f 10/134/112 15/139/117 19/143/121
f 10/134/112 16/140/118 15/139/117
f 17/141/119 20/144/122 13/137/115
f 21/145/123 22/146/124 23/147/125
f 24/148/126 25/149/127 16/140/118
f 26/150/128 27/151/129 25/149/127
f 28/152/130 26/150/128 24/148/126
f 29/153/131 30/154/132 24/148/126
f 31/155/133 32/156/134 29/153/131
f 10/134/112 12/136/114 31/155/133
f 33/157/135 29/153/131 24/148/126
f 33/157/135 31/155/133 29/153/131
f 34/158/136 35/159/136 36/160/136
f 37/161/137 20/144/122 27/151/129
f 38/162/138 27/151/129 39/163/139
f 38/162/138 40/164/140 41/165/141
f 20/144/122 17/141/119 27/151/129
f 14/138/116 19/143/121 15/139/117
f 42/166/142 23/147/125 43/167/143
f 42/166/142 43/167/143 11/135/113
f 44/168/144 13/137/115 45/169/145
f 20/144/122 45/169/145 13/137/115
f 10/134/112 19/143/121 11/135/113
f 13/137/115 44/168/144 14/138/116
f 17/141/119 13/137/115 15/139/117
f 18/142/120 42/166/142 11/135/113
f 21/145/123 46/170/146 22/146/124
f 25/149/127 17/141/119 16/140/118
f 26/150/128 39/163/139 27/151/129
f 26/150/128 25/149/127 24/148/126
f 30/154/132 28/152/130 24/148/126
f 32/156/134 30/154/132 29/153/131
f 12/136/114 32/156/134 31/155/133
f 38/162/138 41/165/141 27/151/129
f 17/141/119 25/149/127 27/151/129
f 14/138/116 18/142/120 19/143/121
f 42/166/142 21/145/123 23/147/125
f 47/171/147 41/165/141 40/164/140
f 27/151/129 41/165/141 48/172/148
f 48/172/148 41/165/141 47/171/147
f 11/135/113 49/173/149 12/136/114
f 50/174/150 51/175/151 52/176/152
f 53/177/153 54/178/154 52/176/152
f 11/135/113 55/179/155 56/180/156
f 52/176/152 49/173/149 56/180/156
f 54/178/154 49/173/149 52/176/152
f 57/181/157 53/177/153 51/175/151
f 22/146/124 58/182/158 23/147/125
f 59/183/159 60/184/160 54/178/154
f 61/185/161 26/150/128 59/183/159
f 26/150/128 28/152/130 60/184/160
f 30/154/132 62/186/162 60/184/160
f 32/156/134 63/187/163 62/186/162
f 12/136/114 49/173/149 63/187/163
f 64/188/164 54/178/154 60/184/160
f 63/187/163 64/188/164 62/186/162
f 65/189/165 66/190/165 67/191/165
f 57/181/157 68/192/166 61/185/161
f 61/185/161 38/162/138 39/163/139
f 40/164/140 38/162/138 69/193/167
f 53/177/153 57/181/157 61/185/161
f 56/180/156 50/174/150 52/176/152
f 23/147/125 70/194/168 43/167/143
f 43/167/143 70/194/168 11/135/113
f 51/175/151 71/195/169 72/196/170
f 72/196/170 57/181/157 51/175/151
f 56/180/156 49/173/149 11/135/113
f 71/195/169 51/175/151 50/174/150
f 51/175/151 53/177/153 52/176/152
f 70/194/168 55/179/155 11/135/113
f 73/197/171 58/182/158 22/146/124
f 53/177/153 59/183/159 54/178/154
f 39/163/139 26/150/128 61/185/161
f 59/183/159 26/150/128 60/184/160
f 28/152/130 30/154/132 60/184/160
f 30/154/132 32/156/134 62/186/162
f 32/156/134 12/136/114 63/187/163
f 69/193/167 38/162/138 61/185/161
f 59/183/159 53/177/153 61/185/161
f 55/179/155 50/174/150 56/180/156
f 58/182/158 70/194/168 23/147/125
f 69/193/167 74/198/172 40/164/140
f 61/185/161 68/192/166 75/199/173
f 69/193/167 75/199/173 74/198/172
f 76/200/174 77/201/174 78/202/174
f 79/203/175 80/204/175 81/205/175
f 82/206/176 83/207/176 84/208/176
f 85/209/177 86/210/178 87/211/179
f 88/212/180 89/213/181 90/214/182
f 91/215/183 92/216/184 93/217/185
f 16/140/118 33/157/135 24/148/126
f 62/186/162 64/188/164 60/184/160
f 37/161/137 27/151/129 48/172/148
f 69/193/167 61/185/161 75/199/173
f 94/218/186 87/211/179 86/210/178
f 95/219/187 90/214/182 89/213/181
f 96/220/188 93/217/185 92/216/184
usemtl 56_56_56
f 1/221/189 2/222/190 3/223/191
f 2/222/190 4/224/192 5/225/193
f 1/221/189 6/226/194 2/222/190
f 2/222/190 6/226/194 4/224/192
f 2/222/190 5/225/193 3/223/191
f 4/224/192 7/227/195 5/225/193
f 8/228/196 1/221/189 3/223/191
f 4/224/192 8/228/196 9/229/197
f 6/226/194 1/221/189 8/228/196
f 6/226/194 8/228/196 4/224/192
f 9/229/197 8/228/196 3/223/191
f 7/227/195 4/224/192 9/229/197
